<svg width="513" height="512" viewBox="0 0 513 512" fill="none" xmlns="http://www.w3.org/2000/svg">
<rect x="0.359375" width="512" height="512" rx="256" fill="url(#paint0_linear_4718_7729)"/>
<path d="M178.906 213.603C178.906 223.735 176.815 231.869 172.632 238.004C168.449 244.047 161.849 248.23 152.831 250.554C161.849 252.971 168.449 257.247 172.632 263.382C176.815 269.424 178.906 277.512 178.906 287.644V343.699C178.906 353.273 181.277 360.106 186.018 364.196C190.759 368.379 198.056 370.471 207.91 370.471H225.339V400.589C217.81 401.705 209.908 402.263 201.635 402.263C181.091 402.263 165.613 397.475 155.202 387.901C144.791 378.419 139.585 364.428 139.585 345.93V287.644C139.585 280.58 137.726 275.281 134.007 271.748C130.382 268.123 125.13 266.31 118.251 266.31H111V235.076H118.251C125.13 235.076 130.382 233.263 134.007 229.638C137.726 226.013 139.585 220.668 139.585 213.603V166.333C139.585 147.834 144.791 133.844 155.202 124.362C165.613 114.787 181.091 110 201.635 110C209.908 110 217.81 110.558 225.339 111.673V141.792H207.91C198.056 141.792 190.759 143.883 186.018 148.067C181.277 152.157 178.906 158.989 178.906 168.564V213.603Z" fill="white"/>
<path d="M178.906 213.603C178.906 223.735 176.815 231.869 172.632 238.004C168.449 244.047 161.849 248.23 152.831 250.554C161.849 252.971 168.449 257.247 172.632 263.382C176.815 269.424 178.906 277.512 178.906 287.644V343.699C178.906 353.273 181.277 360.106 186.018 364.196C190.759 368.379 198.056 370.471 207.91 370.471H225.339V400.589C217.81 401.705 209.908 402.263 201.635 402.263C181.091 402.263 165.613 397.475 155.202 387.901C144.791 378.419 139.585 364.428 139.585 345.93V287.644C139.585 280.58 137.726 275.281 134.007 271.748C130.382 268.123 125.13 266.31 118.251 266.31H111V235.076H118.251C125.13 235.076 130.382 233.263 134.007 229.638C137.726 226.013 139.585 220.668 139.585 213.603V166.333C139.585 147.834 144.791 133.844 155.202 124.362C165.613 114.787 181.091 110 201.635 110C209.908 110 217.81 110.558 225.339 111.673V141.792H207.91C198.056 141.792 190.759 143.883 186.018 148.067C181.277 152.157 178.906 158.989 178.906 168.564V213.603Z" fill="url(#paint1_linear_4718_7729)"/>
<path d="M401.821 235.076V266.31H394.57C387.598 266.31 382.3 268.077 378.674 271.609C375.049 275.141 373.236 280.487 373.236 287.644V345.93C373.236 364.428 367.984 378.419 357.48 387.901C347.068 397.475 331.637 402.263 311.186 402.263C302.82 402.263 294.872 401.705 287.342 400.589V370.471H304.772C314.626 370.471 321.923 368.379 326.664 364.196C331.498 360.106 333.915 353.273 333.915 343.699V287.644C333.915 277.512 336.006 269.424 340.189 263.382C344.373 257.247 350.926 252.971 359.85 250.554C350.926 248.23 344.373 244.047 340.189 238.004C336.006 231.869 333.915 223.735 333.915 213.603V168.564C333.915 158.989 331.498 152.157 326.664 148.067C321.923 143.883 314.626 141.792 304.772 141.792H287.342V111.673C294.872 110.558 302.82 110 311.186 110C331.637 110 347.068 114.787 357.48 124.362C367.984 133.844 373.236 147.834 373.236 166.333V213.603C373.236 220.76 375.049 226.152 378.674 229.778C382.3 233.31 387.598 235.076 394.57 235.076H401.821Z" fill="white"/>
<path d="M401.821 235.076V266.31H394.57C387.598 266.31 382.3 268.077 378.674 271.609C375.049 275.141 373.236 280.487 373.236 287.644V345.93C373.236 364.428 367.984 378.419 357.48 387.901C347.068 397.475 331.637 402.263 311.186 402.263C302.82 402.263 294.872 401.705 287.342 400.589V370.471H304.772C314.626 370.471 321.923 368.379 326.664 364.196C331.498 360.106 333.915 353.273 333.915 343.699V287.644C333.915 277.512 336.006 269.424 340.189 263.382C344.373 257.247 350.926 252.971 359.85 250.554C350.926 248.23 344.373 244.047 340.189 238.004C336.006 231.869 333.915 223.735 333.915 213.603V168.564C333.915 158.989 331.498 152.157 326.664 148.067C321.923 143.883 314.626 141.792 304.772 141.792H287.342V111.673C294.872 110.558 302.82 110 311.186 110C331.637 110 347.068 114.787 357.48 124.362C367.984 133.844 373.236 147.834 373.236 166.333V213.603C373.236 220.76 375.049 226.152 378.674 229.778C382.3 233.31 387.598 235.076 394.57 235.076H401.821Z" fill="url(#paint2_linear_4718_7729)"/>
<defs>
<linearGradient id="paint0_linear_4718_7729" x1="95.1594" y1="83.5368" x2="382.65" y2="512" gradientUnits="userSpaceOnUse">
<stop stop-color="#192528"/>
<stop offset="1" stop-color="#09080F"/>
</linearGradient>
<linearGradient id="paint1_linear_4718_7729" x1="187.8" y1="147.547" x2="324.333" y2="338.693" gradientUnits="userSpaceOnUse">
<stop stop-color="#4BD8F6"/>
<stop offset="0.454184" stop-color="#818EFF"/>
<stop offset="1" stop-color="#B86EDB"/>
</linearGradient>
<linearGradient id="paint2_linear_4718_7729" x1="187.8" y1="147.547" x2="324.333" y2="338.693" gradientUnits="userSpaceOnUse">
<stop stop-color="#4BD8F6"/>
<stop offset="0.454184" stop-color="#818EFF"/>
<stop offset="1" stop-color="#B86EDB"/>
</linearGradient>
</defs>
</svg>
