<svg width="250" height="250" viewBox="0 0 250 250" fill="none" xmlns="http://www.w3.org/2000/svg">
<path d="M125 250C194.036 250 250 194.036 250 125C250 55.9644 194.036 0 125 0C55.9644 0 0 55.9644 0 125C0 194.036 55.9644 250 125 250Z" fill="url(#paint0_linear_1450_5)"/>
<path d="M249.77 117.5C248.22 91.17 238.51 67.04 223.15 47.58C220 43.6 216.62 39.81 213.02 36.25C190.43 13.84 159.33 0 125 0C124.94 0 124.88 0 124.81 0C124.79 0 124.77 0 124.75 0C124.71 0 124.67 0 124.62 0C90.44 0.11 59.49 13.92 36.98 36.25C33.38 39.81 30 43.6 26.85 47.58C11.49 67.04 1.78 91.17 0.23 117.5C0.07 119.98 0 122.48 0 125C0 127.52 0.07 130.02 0.23 132.5C1.78 158.83 11.49 182.96 26.85 202.42C30 206.4 33.38 210.19 36.98 213.75C59.49 236.08 90.44 249.89 124.62 250C124.66 250 124.7 250 124.75 250C124.77 250 124.79 250 124.81 250C124.87 250 124.93 250 125 250C159.33 250 190.43 236.16 213.02 213.75C216.62 210.19 220 206.4 223.15 202.42C238.51 182.96 248.22 158.83 249.77 132.5C249.93 130.02 250 127.52 250 125C250 122.48 249.93 119.98 249.77 117.5ZM124.58 15C124.66 15 124.74 15 124.82 15C136.12 15.04 147.99 25.44 157.4 43.53C159.15 46.9 160.77 50.47 162.27 54.19C150.46 56.24 137.92 57.32 125 57.32C112.08 57.32 99.21 56.21 87.26 54.1C88.75 50.42 90.36 46.87 92.1 43.53C101.48 25.49 113.31 15.11 124.58 15ZM160.74 20.91C174.76 25.71 187.74 33.35 198.94 43.55C192.21 46.48 184.88 48.96 177.12 50.98C172.62 39.21 167.07 29.02 160.74 20.91ZM88.58 21.15C82.35 29.2 76.88 39.26 72.43 50.87C64.84 48.87 57.67 46.42 51.06 43.55C62.08 33.52 74.82 25.96 88.58 21.15ZM124.82 235C124.74 235 124.66 235 124.58 235C113.31 234.9 101.48 224.52 92.1 206.47C90.36 203.12 88.76 199.58 87.26 195.9C99.2 193.79 111.91 192.68 125 192.68C138.09 192.68 150.46 193.76 162.27 195.81C160.77 199.52 159.15 203.09 157.4 206.47C147.99 224.56 136.12 234.95 124.82 235ZM88.58 228.85C74.82 224.04 62.08 216.48 51.06 206.45C57.66 203.58 64.83 201.13 72.43 199.13C76.88 210.73 82.35 220.8 88.58 228.85ZM160.74 229.09C167.07 220.98 172.62 210.79 177.12 199.02C184.88 201.04 192.21 203.52 198.94 206.45C187.73 216.65 174.76 224.29 160.74 229.09ZM209.88 194.97C201.51 190.94 192.08 187.5 181.83 184.78C183.27 179.69 184.55 174.4 185.62 168.91H170.35C169.44 173.23 168.38 177.42 167.2 181.49C154.02 179.03 139.82 177.68 125 177.68C110.18 177.68 95.65 179.07 82.33 181.58C81.14 177.48 80.07 173.26 79.15 168.91H63.88C64.96 174.44 66.24 179.78 67.7 184.91C57.63 187.62 48.36 191.01 40.12 194.97C25.43 177.23 16.79 155.56 15.25 132.5H23V117.5H15.25C16.79 94.44 25.43 72.77 40.12 55.03C48.36 59 57.63 62.39 67.7 65.09C66.24 70.22 64.96 75.55 63.88 81.09H79.15C80.07 76.73 81.14 72.51 82.33 68.42C95.65 70.94 110.01 72.32 125 72.32C139.99 72.32 154.01 70.97 167.2 68.51C168.38 72.58 169.44 76.77 170.35 81.09H185.62C184.55 75.6 183.28 70.31 181.83 65.22C192.08 62.49 201.51 59.05 209.88 55.03C224.57 72.77 233.21 94.44 234.75 117.5H227V132.5H234.75C233.21 155.56 224.57 177.23 209.88 194.97Z" fill="#0284C7"/>
<path d="M93.39 124.04C93.39 130.01 92.61 135.11 91.05 139.35C89.49 143.59 87.25 147.05 84.34 149.74C81.42 152.42 77.88 154.39 73.7 155.65C69.53 156.91 64.55 157.54 58.79 157.54H43.25C42.14 157.54 41.21 157.21 40.46 156.56C39.71 155.91 39.33 154.84 39.33 153.37V96.6401C39.33 95.1701 39.71 94.1001 40.46 93.4501C41.21 92.8001 42.14 92.4701 43.25 92.4701H59.95C65.75 92.4701 70.67 93.1501 74.71 94.5101C78.75 95.8701 82.15 97.8801 84.92 100.54C87.69 103.21 89.79 106.5 91.23 110.42C92.67 114.34 93.39 118.89 93.39 124.05V124.04ZM79.71 124.5C79.71 121.42 79.35 118.55 78.63 115.9C77.91 113.25 76.75 110.95 75.16 109.01C73.57 107.07 71.52 105.55 69.02 104.46C66.52 103.37 63.24 102.83 59.19 102.83H52.5V147.09H59.39C63.01 147.09 66.06 146.62 68.54 145.68C71.02 144.74 73.09 143.33 74.75 141.43C76.41 139.54 77.65 137.18 78.47 134.36C79.29 131.54 79.7 128.26 79.7 124.5H79.71Z" fill="#0284C7"/>
<path d="M157.92 152.91C157.92 153.68 157.79 154.37 157.52 154.97C157.25 155.57 156.89 156.08 156.44 156.48C155.99 156.88 155.45 157.18 154.83 157.36C154.21 157.54 153.58 157.64 152.94 157.64H147.31C146.14 157.64 145.12 157.52 144.27 157.29C143.42 157.06 142.63 156.63 141.91 156.01C141.19 155.39 140.49 154.55 139.82 153.5C139.15 152.44 138.39 151.08 137.56 149.4L121.37 118.97C120.43 117.16 119.48 115.21 118.5 113.11C117.53 111.02 116.66 108.98 115.88 107H115.78C115.91 109.41 116.01 111.82 116.08 114.22C116.15 116.62 116.18 119.09 116.18 121.64V155.69C116.18 156.02 116.09 156.33 115.9 156.6C115.71 156.87 115.4 157.09 114.94 157.28C114.49 157.46 113.87 157.61 113.1 157.71C112.33 157.81 111.34 157.86 110.13 157.86C108.92 157.86 107.98 157.81 107.21 157.71C106.44 157.61 105.83 157.47 105.4 157.28C104.96 157.1 104.66 156.87 104.49 156.6C104.32 156.33 104.24 156.03 104.24 155.69V97.2001C104.24 95.6201 104.7 94.4401 105.62 93.6501C106.54 92.8601 107.67 92.4701 109.01 92.4701H116.1C117.37 92.4701 118.45 92.5801 119.32 92.8001C120.19 93.0201 120.97 93.3801 121.66 93.8801C122.35 94.3801 122.99 95.0801 123.6 95.9701C124.2 96.8601 124.82 97.9601 125.46 99.2601L138.13 123.05C138.87 124.49 139.6 125.91 140.32 127.3C141.04 128.69 141.74 130.08 142.41 131.47C143.08 132.86 143.73 134.23 144.37 135.57C145.01 136.91 145.63 138.25 146.23 139.59H146.28C146.18 137.24 146.1 134.8 146.05 132.25C146 129.7 145.97 127.27 145.97 124.96V94.4301C145.97 94.1001 146.07 93.7901 146.27 93.5201C146.47 93.2501 146.81 93.0201 147.28 92.8201C147.75 92.6201 148.37 92.4801 149.14 92.3901C149.91 92.3101 150.9 92.2601 152.11 92.2601C153.25 92.2601 154.2 92.3001 154.98 92.3901C155.76 92.4801 156.35 92.6201 156.77 92.8201C157.19 93.0201 157.48 93.2601 157.65 93.5201C157.82 93.7901 157.9 94.0901 157.9 94.4301V152.92L157.92 152.91Z" fill="#0284C7"/>
<path d="M210.67 138.03C210.67 141.45 210.03 144.45 208.76 147.03C207.49 149.61 205.76 151.77 203.58 153.49C201.4 155.22 198.85 156.52 195.94 157.39C193.02 158.26 189.9 158.7 186.59 158.7C184.34 158.7 182.26 158.52 180.33 158.15C178.4 157.78 176.7 157.34 175.23 156.82C173.75 156.3 172.52 155.76 171.53 155.19C170.54 154.62 169.83 154.12 169.39 153.68C168.95 153.24 168.64 152.62 168.46 151.79C168.28 150.97 168.18 149.79 168.18 148.25C168.18 147.21 168.21 146.34 168.28 145.63C168.35 144.92 168.46 144.36 168.61 143.92C168.76 143.48 168.96 143.17 169.21 142.99C169.46 142.81 169.75 142.71 170.09 142.71C170.56 142.71 171.22 142.99 172.08 143.54C172.93 144.09 174.03 144.71 175.37 145.37C176.71 146.04 178.31 146.65 180.17 147.21C182.03 147.76 184.18 148.04 186.63 148.04C188.24 148.04 189.68 147.85 190.96 147.46C192.24 147.07 193.32 146.53 194.2 145.83C195.09 145.13 195.77 144.25 196.24 143.21C196.71 142.17 196.94 141.01 196.94 139.74C196.94 138.26 196.54 137 195.73 135.94C194.93 134.88 193.88 133.95 192.59 133.12C191.3 132.3 189.83 131.53 188.19 130.81C186.55 130.09 184.85 129.33 183.11 128.52C181.37 127.71 179.67 126.8 178.03 125.78C176.39 124.76 174.92 123.53 173.63 122.11C172.34 120.69 171.29 119 170.49 117.06C169.69 115.12 169.28 112.78 169.28 110.07C169.28 106.95 169.86 104.21 171.02 101.85C172.18 99.4901 173.74 97.5201 175.7 95.9701C177.66 94.4101 179.98 93.2501 182.64 92.4701C185.31 91.7001 188.13 91.3101 191.11 91.3101C192.65 91.3101 194.19 91.4301 195.74 91.6601C197.28 91.8901 198.72 92.2101 200.07 92.6201C201.41 93.0201 202.6 93.4801 203.64 93.9801C204.68 94.4801 205.37 94.9001 205.7 95.2401C206.03 95.5801 206.26 95.8601 206.38 96.1001C206.5 96.3301 206.6 96.6401 206.68 97.0301C206.76 97.4201 206.82 97.9001 206.86 98.4901C206.89 99.0801 206.91 99.8101 206.91 100.68C206.91 101.65 206.89 102.47 206.83 103.14C206.78 103.81 206.7 104.36 206.58 104.8C206.46 105.24 206.29 105.55 206.08 105.76C205.86 105.96 205.57 106.06 205.2 106.06C204.83 106.06 204.24 105.83 203.44 105.36C202.64 104.89 201.65 104.38 200.47 103.83C199.3 103.28 197.94 102.77 196.4 102.32C194.86 101.87 193.16 101.64 191.32 101.64C189.88 101.64 188.62 101.82 187.55 102.17C186.48 102.52 185.58 103.01 184.86 103.63C184.14 104.25 183.6 105 183.25 105.87C182.9 106.74 182.72 107.66 182.72 108.64C182.72 110.08 183.11 111.33 183.9 112.39C184.69 113.45 185.74 114.39 187.07 115.21C188.39 116.03 189.89 116.8 191.57 117.52C193.25 118.24 194.96 119 196.7 119.81C198.44 120.62 200.15 121.53 201.83 122.55C203.51 123.57 205 124.8 206.31 126.22C207.62 127.64 208.67 129.32 209.48 131.25C210.28 133.18 210.69 135.45 210.69 138.07L210.67 138.03Z" fill="#0284C7"/>
<defs>
<linearGradient id="paint0_linear_1450_5" x1="125" y1="0" x2="125" y2="250" gradientUnits="userSpaceOnUse">
<stop stop-color="#E0F2FE"/>
<stop offset="1" stop-color="#97D9F6"/>
</linearGradient>
</defs>
</svg>
