<svg width="224" height="48" viewBox="0 0 224 48" fill="none" xmlns="http://www.w3.org/2000/svg">
<mask id="mask0_256_874" style="mask-type:luminance" maskUnits="userSpaceOnUse" x="6" y="6" width="213" height="36">
<path d="M6 6H218.17V42H6V6Z" fill="white"/>
</mask>
<g mask="url(#mask0_256_874)">
<mask id="mask1_256_874" style="mask-type:luminance" maskUnits="userSpaceOnUse" x="6" y="6" width="213" height="36">
<path d="M6.00012 42H218.17V6H6.00012V42Z" fill="white"/>
</mask>
<g mask="url(#mask1_256_874)">
<path d="M89.2037 9.94031C89.2037 8.15333 90.6461 6.70797 92.4216 6.70797C94.2031 6.70797 95.6511 8.15333 95.6511 9.94031C95.6511 11.725 94.2031 13.1719 92.4216 13.1719C90.6461 13.1719 89.2037 11.725 89.2037 9.94031Z" fill="#273B7D"/>
<path d="M140.072 31.4403C140.072 29.6526 141.513 28.2057 143.289 28.2057C145.07 28.2057 146.517 29.6526 146.517 31.4403C146.517 33.2234 145.07 34.6719 143.289 34.6719C141.513 34.6719 140.072 33.2234 140.072 31.4403Z" fill="#499FDD"/>
<path d="M36.2916 30.0436C33.515 30.0436 31.5854 27.8384 31.5854 24.6872C31.5854 21.5368 33.515 19.3332 36.2916 19.3332C39.0842 19.3332 41.0349 21.5368 41.0349 24.6872C41.0349 27.8881 39.1248 30.0436 36.2916 30.0436ZM36.2916 14.6256C30.4173 14.6256 26.1542 18.8583 26.1542 24.6872C26.1542 30.5161 30.4173 34.748 36.2916 34.748C42.1879 34.748 46.4688 30.5161 46.4688 24.6872C46.4688 18.8583 42.1879 14.6256 36.2916 14.6256Z" fill="#273B7D"/>
<path d="M82.9596 25.19C82.7312 24.7603 82.4694 24.3964 82.1905 24.1077L82.0129 23.9192L82.1999 23.74C82.4695 23.4558 82.7451 23.1188 83.011 22.7282L88.1949 15.0219H81.9018L78.0069 21.05C77.7864 21.3732 77.3412 21.5364 76.6749 21.5364H75.7872V10.1397C75.7872 7.8602 74.3671 7.54998 72.833 7.54998H70.2065L70.2109 34.4512H75.7872V26.3818H76.3095C76.9451 26.3818 77.3781 26.4553 77.5766 26.8008L80.6526 32.6067C81.5118 34.1823 82.3682 34.4512 83.9791 34.4512H88.2524L85.0698 29.1867L82.9596 25.19Z" fill="#273B7D"/>
<path d="M110.03 14.5823C107.194 14.5823 105.384 15.8423 104.37 16.9077L104.031 17.2501L103.912 16.7844C103.614 15.6431 102.609 15.015 101.098 15.015H98.5991L98.6147 34.4443H104.153V25.4895C104.153 24.614 104.267 23.8542 104.498 23.161C105.115 21.063 106.834 19.7586 108.984 19.7586C110.713 19.7586 111.388 20.6709 111.388 23.0285V31.4908C111.388 33.503 112.319 34.4443 114.332 34.4443H116.968L116.959 22.0871C116.959 17.1774 114.563 14.5823 110.03 14.5823Z" fill="#273B7D"/>
<path d="M92.4952 15.0229H89.8701L89.8881 30.0456L89.8863 34.4483H92.6882C92.7235 34.4483 92.7518 34.4521 92.787 34.4521L94.0922 34.4483H95.3913V34.4407H95.4003L95.4115 17.9726C95.4115 15.9857 94.4597 15.0229 92.4952 15.0229Z" fill="#273B7D"/>
<path d="M58.0453 30.0426C55.2689 30.0426 53.3355 27.8374 53.3355 24.6862C53.3355 21.5359 55.2689 19.3322 58.0453 19.3322C60.832 19.3322 62.7882 21.5359 62.7882 24.6862C62.7882 27.8872 60.8787 30.0426 58.0453 30.0426ZM58.0453 14.6246C52.1651 14.6246 47.9011 18.8573 47.9011 24.6862C47.9011 30.5152 52.1651 34.7471 58.0453 34.7471C63.9355 34.7471 68.2234 30.5152 68.2234 24.6862C68.2234 18.8573 63.9355 14.6246 58.0453 14.6246Z" fill="#273B7D"/>
</g>
</g>
<mask id="mask2_256_874" style="mask-type:luminance" maskUnits="userSpaceOnUse" x="6" y="6" width="213" height="36">
<path d="M6 6H218.17V42H6V6Z" fill="white"/>
</mask>
<g mask="url(#mask2_256_874)">
<mask id="mask3_256_874" style="mask-type:luminance" maskUnits="userSpaceOnUse" x="6" y="6" width="213" height="36">
<path d="M6.00024 6.70857H218.125V41.9541H6.00024V6.70857Z" fill="white"/>
</mask>
<g mask="url(#mask3_256_874)">
<mask id="mask4_256_874" style="mask-type:luminance" maskUnits="userSpaceOnUse" x="6" y="6" width="213" height="36">
<path d="M6.00024 42H218.171V6H6.00024V42Z" fill="white"/>
</mask>
<g mask="url(#mask4_256_874)">
<path d="M176.758 30.0436C173.983 30.0436 172.048 27.8384 172.048 24.6872C172.048 21.5368 173.983 19.3332 176.758 19.3332C179.545 19.3332 181.502 21.5368 181.502 24.6872C181.502 27.8881 179.592 30.0436 176.758 30.0436ZM176.758 14.6256C170.879 14.6256 166.615 18.8583 166.615 24.6872C166.615 30.5161 170.879 34.748 176.758 34.748C182.649 34.748 186.936 30.5161 186.936 24.6872C186.936 18.8583 182.649 14.6256 176.758 14.6256Z" fill="#499FDD"/>
<path d="M128.637 29.1884C125.609 29.1884 124.531 26.5466 124.531 24.071C124.531 22.9803 124.807 19.4255 128.346 19.4255C130.104 19.4255 132.448 19.9295 132.448 24.2541C132.448 28.3328 130.374 29.1884 128.637 29.1884ZM135.324 14.9714C134.273 14.9714 133.464 15.3904 133.059 16.1556L132.905 16.4528L132.649 16.2299C131.755 15.4563 130.152 14.5387 127.549 14.5387C122.37 14.5387 118.884 18.4282 118.884 24.2165C118.884 29.998 122.491 34.0384 127.653 34.0384C129.416 34.0384 130.81 33.6271 131.914 32.7907L132.342 32.4697V33.0097C132.342 35.6048 130.663 37.0364 127.621 37.0364C126.143 37.0364 124.797 36.6764 123.897 36.3501C122.722 35.9955 122.033 36.2888 121.557 37.4676L121.117 38.5553L120.495 40.1439L120.881 40.3492C122.828 41.3824 125.362 41.999 127.653 41.999C132.37 41.999 137.877 39.5847 137.877 32.7907L137.897 14.9714H135.324Z" fill="#273B7D"/>
</g>
</g>
</g>
<mask id="mask5_256_874" style="mask-type:luminance" maskUnits="userSpaceOnUse" x="6" y="6" width="213" height="36">
<path d="M6 6H218.17V42H6V6Z" fill="white"/>
</mask>
<g mask="url(#mask5_256_874)">
<mask id="mask6_256_874" style="mask-type:luminance" maskUnits="userSpaceOnUse" x="6" y="6" width="213" height="36">
<path d="M6.00012 42H218.17V6H6.00012V42Z" fill="white"/>
</mask>
<g mask="url(#mask6_256_874)">
<path d="M15.6657 29.821L11.1574 29.8165V24.4265C11.1574 23.2745 11.604 22.6755 12.5912 22.5376H15.6657C17.8602 22.5376 19.2781 23.9217 19.2796 26.1606C19.2781 28.4585 17.8954 29.8195 15.6657 29.821ZM11.1574 15.2808V13.8623C11.1574 12.6207 11.6828 12.0301 12.8357 11.9543H15.1425C17.121 11.9543 18.306 13.1384 18.306 15.1192C18.306 16.6297 17.4948 18.3921 15.2153 18.3921H11.1574V15.2808ZM21.4235 20.6601L20.6085 20.2021L21.3199 19.5939C22.1473 18.8824 23.5344 17.2831 23.5344 14.5195C23.5344 10.2914 20.2547 7.56227 15.1786 7.56227H9.3857L8.72615 7.56074C7.2212 7.6159 6.01708 8.83989 6.00024 10.3542V34.3539H8.65872C8.66546 34.3555 8.66772 34.3539 8.66996 34.3555L15.293 34.3539C20.9358 34.3539 24.578 31.2824 24.578 26.5251C24.578 23.9637 23.402 21.7738 21.4235 20.6601Z" fill="#273B7D"/>
<path d="M211.676 14.6453C209.378 14.6453 207.157 15.7214 205.73 17.526L205.329 18.0346L205.014 17.4655C203.989 15.595 202.223 14.6453 199.768 14.6453C197.194 14.6453 195.467 16.0814 194.665 16.9355L194.141 17.5038L193.939 16.7562C193.646 15.6801 192.688 15.0872 191.236 15.0872H188.908L188.886 34.4414H194.175V25.8979C194.175 25.1496 194.268 24.4089 194.455 23.6345C194.961 21.5703 196.348 19.3498 198.68 19.5719C200.119 19.7098 200.821 20.8212 200.821 22.9681V34.4414H206.148V25.8979C206.148 24.9627 206.235 24.2626 206.446 23.5602C206.875 21.5894 208.323 19.5688 210.573 19.5688C212.202 19.5688 212.804 20.491 212.804 22.9681V31.612C212.804 33.5674 213.676 34.4414 215.63 34.4414H218.12L218.124 22.0858C218.124 17.1499 215.952 14.6453 211.676 14.6453Z" fill="#499FDD"/>
<path d="M163.553 27.7219C163.537 27.741 161.261 30.1408 158.265 30.1408C155.535 30.1408 152.777 28.4657 152.777 24.7263C152.777 21.4978 154.915 19.2412 157.976 19.2412C158.97 19.2412 160.101 19.5974 160.278 20.1964L160.304 20.2975C160.711 21.6556 161.945 21.7283 162.188 21.7283L165.086 21.7315V19.1984C165.086 15.8573 160.836 14.6456 157.976 14.6456C151.861 14.6456 147.423 18.9035 147.423 24.767C147.423 30.6281 151.812 34.8799 157.864 34.8799C163.115 34.8799 165.97 31.4285 165.997 31.394L166.15 31.2071L163.855 27.4003L163.553 27.7219Z" fill="#499FDD"/>
</g>
</g>
</svg>
