<svg width="250" height="241" viewBox="0 0 250 241" fill="none" xmlns="http://www.w3.org/2000/svg">
<circle cx="107" cy="120" r="50" fill="white"/>
<circle cx="108" cy="40" r="40" fill="white"/>
<circle cx="178" cy="79" r="40" fill="white"/>
<circle cx="177" cy="161" r="40" fill="white"/>
<circle cx="108" cy="201" r="40" fill="white"/>
<g clip-path="url(#clip0_1530_5)">
<path d="M177.176 132.302C168.585 132.302 160.884 136.112 155.61 142.11L142.097 132.533C143.531 128.58 144.355 124.335 144.355 119.891C144.355 115.525 143.56 111.351 142.173 107.456L155.656 97.9808C160.929 103.948 168.61 107.737 177.176 107.737C193.031 107.737 205.932 94.8252 205.932 78.952C205.932 63.0788 193.031 50.1668 177.176 50.1668C161.32 50.1668 148.419 63.0788 148.419 78.952C148.419 81.7931 148.848 84.5328 149.617 87.1274L136.125 96.607C130.489 89.6078 122.374 84.7208 113.127 83.2291V66.9516C126.153 64.213 135.968 52.628 135.968 38.7852C135.968 22.912 123.067 10 107.211 10C91.3561 10 78.4549 22.912 78.4549 38.7852C78.4549 52.4426 88.0153 63.8847 100.781 66.8188V83.3077C83.3593 86.3688 70.0679 101.588 70.0679 119.891C70.0679 138.284 83.4909 153.559 101.038 156.516V173.927C88.1421 176.764 78.4549 188.276 78.4549 202.027C78.4549 217.9 91.3561 230.812 107.211 230.812C123.067 230.812 135.968 217.9 135.968 202.027C135.968 188.276 126.281 176.764 113.385 173.927V156.515C122.266 155.018 130.301 150.34 135.993 143.353L149.597 152.991C148.842 155.563 148.419 158.275 148.419 161.087C148.419 176.961 161.32 189.873 177.176 189.873C193.031 189.873 205.932 176.961 205.932 161.087C205.932 145.214 193.031 132.302 177.176 132.302ZM177.176 64.9955C184.864 64.9955 191.118 71.2579 191.118 78.952C191.118 86.6461 184.864 92.9079 177.176 92.9079C169.487 92.9079 163.234 86.6461 163.234 78.952C163.234 71.2579 169.487 64.9955 177.176 64.9955ZM93.2689 38.7852C93.2689 31.0912 99.5229 24.8293 107.211 24.8293C114.9 24.8293 121.153 31.0912 121.153 38.7852C121.153 46.4793 114.9 52.7412 107.211 52.7412C99.5229 52.7412 93.2689 46.4793 93.2689 38.7852ZM121.153 202.027C121.153 209.721 114.9 215.983 107.211 215.983C99.5229 215.983 93.2689 209.721 93.2689 202.027C93.2689 194.333 99.5229 188.071 107.211 188.071C114.9 188.071 121.153 194.333 121.153 202.027ZM107.21 139.355C96.4871 139.355 87.7637 130.625 87.7637 119.891C87.7637 109.157 96.4871 100.425 107.21 100.425C117.933 100.425 126.656 109.157 126.656 119.891C126.656 130.625 117.933 139.355 107.21 139.355ZM177.176 175.044C169.487 175.044 163.234 168.782 163.234 161.087C163.234 153.393 169.487 147.132 177.176 147.132C184.864 147.132 191.118 153.393 191.118 161.087C191.118 168.782 184.864 175.044 177.176 175.044Z" fill="#231F20"/>
</g>
<defs>
<clipPath id="clip0_1530_5">
<rect width="136" height="221" fill="white" transform="translate(70 10)"/>
</clipPath>
</defs>
</svg>
