<svg width="346" height="335" viewBox="0 0 346 335" fill="none" xmlns="http://www.w3.org/2000/svg">
<path d="M135.828 42.3967C140.051 30.4471 155.732 27.6901 163.779 37.4822L205.951 88.8065C211.169 95.1572 218.895 98.9225 227.114 99.1267L293.58 100.776C306.27 101.091 313.715 115.126 306.882 125.789L271.03 181.731C268.838 185.151 267.408 189.003 266.84 193.026C266.27 197.047 266.576 201.145 267.735 205.037L286.675 268.688C290.285 280.816 279.237 292.261 266.948 289.061L202.615 272.313C198.683 271.288 194.577 271.123 190.574 271.826C186.574 272.529 182.77 274.086 179.423 276.39L124.664 314.079C114.202 321.277 99.9131 314.288 99.168 301.656L95.2625 235.362C94.7792 227.157 90.746 219.572 84.2155 214.579L31.4297 174.221C21.3688 166.528 23.5811 150.795 35.402 146.17L97.3195 121.948C104.976 118.952 110.953 112.778 113.692 105.028L135.828 42.3967Z" fill="#FFAFF3"/>
<path d="M126.734 184.735C133.152 183.606 137.44 177.489 136.312 171.072C135.183 164.654 129.066 160.368 122.649 161.496C116.231 162.625 111.943 168.742 113.071 175.159C114.199 181.576 120.316 185.864 126.734 184.735Z" fill="#151515"/>
<path d="M221.805 168.021C228.221 166.893 232.51 160.775 231.381 154.358C230.253 147.941 224.136 143.654 217.718 144.782C211.301 145.911 207.013 152.028 208.14 158.445C209.269 164.863 215.386 169.15 221.805 168.021Z" fill="#151515"/>
<path d="M147.78 26.0396C140.281 27.3585 133.424 32.3341 130.582 40.3739L108.443 103.004C106.284 109.111 101.58 113.971 95.5436 116.332L33.6237 140.557C17.7347 146.773 14.6521 168.621 28.1898 178.971L80.9756 219.325C83.5171 221.267 85.6101 223.733 87.1112 226.559C88.6123 229.382 89.4865 232.497 89.674 235.689L93.5774 301.982C94.5788 318.99 114.411 328.674 128.474 318.999L128.474 318.997L183.238 281.308L183.238 281.307C185.874 279.491 188.872 278.264 192.024 277.71C195.177 277.156 198.413 277.287 201.511 278.095L265.844 294.84C282.363 299.141 297.703 283.271 292.843 266.94L292.843 266.942L273.904 203.292C272.991 200.227 272.751 197.001 273.199 193.833C273.646 190.667 274.772 187.634 276.5 184.943L276.5 184.941L312.356 128.998L312.354 128.997C321.551 114.65 311.202 95.1638 294.146 94.7406L227.677 93.0936C221.198 92.9331 215.118 89.9691 211.008 84.9659L168.835 33.6431C163.422 27.0554 155.279 24.7175 147.778 26.0365M149.791 37.4866C153.2 36.8873 156.921 38.0663 159.554 41.2702L201.726 92.5916C208.05 100.289 217.422 104.855 227.379 105.102L293.847 106.749C302.171 106.955 306.713 115.538 302.24 122.516L266.386 178.46C261.008 186.847 259.549 197.171 262.388 206.718L281.329 270.366C283.687 278.292 276.929 285.312 268.87 283.215L204.536 266.468C194.896 263.957 184.63 265.763 176.424 271.412L121.661 309.101C114.8 313.823 106.053 309.529 105.567 301.275L101.664 234.982C101.078 225.037 96.1839 215.833 88.2693 209.78L35.4836 169.426C28.8998 164.393 30.2436 154.776 37.9967 151.741L99.9165 127.517C109.194 123.887 116.445 116.398 119.766 107.004L119.766 107.004L141.905 44.3737C143.287 40.464 146.382 38.0863 149.791 37.4869" fill="#151515"/>
<path fill-rule="evenodd" clip-rule="evenodd" d="M211.404 269.17C210.555 268.722 209.726 268.237 208.92 267.717C208.396 267.379 207.881 267.025 207.378 266.657C207.182 266.515 206.047 265.63 206.047 265.63L201.123 266.498C201.298 266.54 201.473 266.584 201.648 266.63L211.404 269.17ZM178.88 270.42C178.738 270.514 178.596 270.61 178.455 270.707L170.994 275.843C171.467 275.298 171.921 274.738 172.355 274.165C172.732 273.668 173.095 273.158 173.442 272.641C173.576 272.441 174.342 271.22 174.342 271.22L178.88 270.42ZM201.056 266.482C197.305 265.591 193.409 265.475 189.607 266.143C185.797 266.812 182.166 268.256 178.938 270.382L174.381 271.186L171.363 268.686C170.806 268.024 171.192 267.015 172.061 266.862L173.595 266.592C176.811 254.28 177.436 240.847 175.074 227.456L190.574 224.723C192.907 237.954 198.065 250.643 205.163 261.025L206.697 260.755C207.566 260.602 208.274 261.416 207.977 262.229L205.996 265.611L201.056 266.482ZM175.672 167.951C175.655 166.236 174.217 164.87 172.458 164.901C170.7 164.932 169.287 166.348 169.304 168.064C169.32 169.779 170.758 171.145 172.517 171.114C172.663 171.111 172.806 171.099 172.946 171.078C167.825 172.012 163.921 175.723 162.597 180.321C162.156 179.934 161.664 179.605 161.094 179.415C160.393 179.181 159.633 179.128 158.901 179.257C157.501 179.504 156.37 180.372 155.755 181.517C155.884 181.665 156.012 181.816 156.139 181.967L156.139 181.967L156.139 181.967L156.14 181.967C163.92 189.191 169.31 198.855 171.306 209.996L171.279 210.001C171.458 210.845 171.627 211.714 171.757 212.593L171.671 212.608C171.015 212.724 170.575 213.336 170.688 213.974C170.795 214.583 171.367 214.997 171.988 214.934C172.031 215.95 171.988 216.964 171.814 217.953L170.823 218.128C169.662 218.333 168.882 219.414 169.082 220.546C169.258 221.547 170.14 222.249 171.145 222.257L170.436 222.382C168.815 222.667 167.729 224.179 168.007 225.756C168.285 227.333 169.809 228.371 171.42 228.099L194.017 224.115C194.235 224.076 194.444 224.014 194.641 223.933C195.904 223.418 196.686 222.104 196.446 220.74C196.205 219.376 195.045 218.041 193.117 218.381L193.118 218.382L192.123 218.558C192.148 218.548 192.173 218.539 192.198 218.528C193.102 218.16 193.663 217.219 193.491 216.242C193.319 215.266 192.434 214.318 191.192 214.536L190.248 214.703C189.746 213.832 189.359 212.895 189.052 211.925C189.661 211.775 190.059 211.188 189.952 210.577C189.839 209.939 189.216 209.515 188.56 209.63L188.468 209.646C188.29 208.776 188.152 207.902 188.031 207.047C186.096 195.896 187.827 184.975 192.668 175.526C192.736 175.341 192.805 175.155 192.875 174.971L192.877 174.971C191.909 174.106 190.55 173.677 189.148 173.924C188.416 174.053 187.72 174.363 187.141 174.822C186.657 175.206 186.302 175.698 186.016 176.229C183.204 172.343 178.257 170.176 173.112 171.049C174.583 170.75 175.686 169.468 175.672 167.951Z" fill="#151515"/>
</svg>
