<svg width="250" height="200" viewBox="0 0 250 200" fill="none" xmlns="http://www.w3.org/2000/svg">
<rect width="250" height="200" rx="20" fill="url(#paint0_linear_810_35)"/>
<g filter="url(#filter0_d_810_35)">
<path d="M73.35 97.35L60.3 90.9L83.25 53.4H91.65L112.8 90.75L99.9 97.2L86.85 74.4L73.35 97.35ZM159.45 153.75V145.5C156.15 145.2 152.85 144.6 149.55 143.7C146.25 142.7 143.1 141.35 140.1 139.65C137.2 137.95 134.6 135.95 132.3 133.65L140.1 120.75C141.1 121.15 141.65 121.8 141.75 122.7C141.85 123.6 142.25 124.4 142.95 125.1C144.35 126.5 145.9 127.7 147.6 128.7C149.3 129.7 151.1 130.55 153 131.25C154.9 131.85 156.9 132.35 159 132.75V105.6C153.8 103.6 149.35 101.45 145.65 99.15C141.95 96.75 139.15 94 137.25 90.9C135.35 87.8 134.4 84.25 134.4 80.25C134.4 76.25 135.55 72.7 137.85 69.6C140.15 66.5 143.2 64 147 62.1C150.8 60.1 154.95 58.8 159.45 58.2V49.35H170.25C170.55 49.45 170.7 49.6 170.7 49.8C170.8 50 170.85 50.2 170.85 50.4C170.85 50.7 170.7 51.2 170.4 51.9C170.1 52.6 169.95 53.4 169.95 54.3V58.05C172.85 58.35 175.7 59.05 178.5 60.15C181.3 61.15 183.9 62.45 186.3 64.05C188.8 65.65 190.95 67.6 192.75 69.9L184.95 79.8C183.85 79.7 183.2 79.2 183 78.3C182.8 77.4 182.45 76.8 181.95 76.5C181.25 75.7 180.45 75 179.55 74.4C178.75 73.8 177.85 73.3 176.85 72.9C175.85 72.5 174.8 72.15 173.7 71.85C172.6 71.45 171.5 71.15 170.4 70.95V94.5C176.2 96.6 180.9 98.8 184.5 101.1C188.2 103.3 190.9 105.9 192.6 108.9C194.3 111.8 195.15 115.4 195.15 119.7C195.15 123.6 194.1 127.4 192 131.1C190 134.8 187.05 137.95 183.15 140.55C179.35 143.05 174.95 144.65 169.95 145.35V153.75H159.45ZM170.4 132.45C172.5 131.95 174.35 131.1 175.95 129.9C177.65 128.7 178.95 127.3 179.85 125.7C180.75 124 181.2 122.25 181.2 120.45C181.2 118.55 180.75 116.9 179.85 115.5C179.05 114.1 177.8 112.85 176.1 111.75C174.5 110.65 172.6 109.7 170.4 108.9V132.45ZM159 90.45V70.8C157.1 71.1 155.35 71.65 153.75 72.45C152.15 73.15 150.9 74.1 150 75.3C149.1 76.5 148.65 77.9 148.65 79.5C148.65 80.9 149.05 82.3 149.85 83.7C150.75 85 151.95 86.25 153.45 87.45C155.05 88.55 156.9 89.55 159 90.45Z" fill="#FEFCE8"/>
</g>
<defs>
<filter id="filter0_d_810_35" x="56.3" y="49.35" width="142.85" height="112.4" filterUnits="userSpaceOnUse" color-interpolation-filters="sRGB">
<feFlood flood-opacity="0" result="BackgroundImageFix"/>
<feColorMatrix in="SourceAlpha" type="matrix" values="0 0 0 0 0 0 0 0 0 0 0 0 0 0 0 0 0 0 127 0" result="hardAlpha"/>
<feOffset dy="4"/>
<feGaussianBlur stdDeviation="2"/>
<feComposite in2="hardAlpha" operator="out"/>
<feColorMatrix type="matrix" values="0 0 0 0 0 0 0 0 0 0 0 0 0 0 0 0 0 0 0.25 0"/>
<feBlend mode="normal" in2="BackgroundImageFix" result="effect1_dropShadow_810_35"/>
<feBlend mode="normal" in="SourceGraphic" in2="effect1_dropShadow_810_35" result="shape"/>
</filter>
<linearGradient id="paint0_linear_810_35" x1="125" y1="0" x2="125" y2="200" gradientUnits="userSpaceOnUse">
<stop stop-color="#FDE047"/>
<stop offset="1" stop-color="#EAB308"/>
</linearGradient>
</defs>
</svg>
