<svg width="258" height="208" viewBox="0 0 258 208" fill="none" xmlns="http://www.w3.org/2000/svg">
<g filter="url(#filter0_d_810_36)">
<rect x="4" width="250" height="200" rx="20" fill="url(#paint0_linear_810_36)"/>
</g>
<g filter="url(#filter1_d_810_36)">
<path d="M72.85 97.35L59.8 90.9L82.75 53.4H91.15L112.3 90.75L99.4 97.2L86.35 74.4L72.85 97.35ZM158.95 153.75V145.5C155.65 145.2 152.35 144.6 149.05 143.7C145.75 142.7 142.6 141.35 139.6 139.65C136.7 137.95 134.1 135.95 131.8 133.65L139.6 120.75C140.6 121.15 141.15 121.8 141.25 122.7C141.35 123.6 141.75 124.4 142.45 125.1C143.85 126.5 145.4 127.7 147.1 128.7C148.8 129.7 150.6 130.55 152.5 131.25C154.4 131.85 156.4 132.35 158.5 132.75V105.6C153.3 103.6 148.85 101.45 145.15 99.15C141.45 96.75 138.65 94 136.75 90.9C134.85 87.8 133.9 84.25 133.9 80.25C133.9 76.25 135.05 72.7 137.35 69.6C139.65 66.5 142.7 64 146.5 62.1C150.3 60.1 154.45 58.8 158.95 58.2V49.35H169.75C170.05 49.45 170.2 49.6 170.2 49.8C170.3 50 170.35 50.2 170.35 50.4C170.35 50.7 170.2 51.2 169.9 51.9C169.6 52.6 169.45 53.4 169.45 54.3V58.05C172.35 58.35 175.2 59.05 178 60.15C180.8 61.15 183.4 62.45 185.8 64.05C188.3 65.65 190.45 67.6 192.25 69.9L184.45 79.8C183.35 79.7 182.7 79.2 182.5 78.3C182.3 77.4 181.95 76.8 181.45 76.5C180.75 75.7 179.95 75 179.05 74.4C178.25 73.8 177.35 73.3 176.35 72.9C175.35 72.5 174.3 72.15 173.2 71.85C172.1 71.45 171 71.15 169.9 70.95V94.5C175.7 96.6 180.4 98.8 184 101.1C187.7 103.3 190.4 105.9 192.1 108.9C193.8 111.8 194.65 115.4 194.65 119.7C194.65 123.6 193.6 127.4 191.5 131.1C189.5 134.8 186.55 137.95 182.65 140.55C178.85 143.05 174.45 144.65 169.45 145.35V153.75H158.95ZM169.9 132.45C172 131.95 173.85 131.1 175.45 129.9C177.15 128.7 178.45 127.3 179.35 125.7C180.25 124 180.7 122.25 180.7 120.45C180.7 118.55 180.25 116.9 179.35 115.5C178.55 114.1 177.3 112.85 175.6 111.75C174 110.65 172.1 109.7 169.9 108.9V132.45ZM158.5 90.45V70.8C156.6 71.1 154.85 71.65 153.25 72.45C151.65 73.15 150.4 74.1 149.5 75.3C148.6 76.5 148.15 77.9 148.15 79.5C148.15 80.9 148.55 82.3 149.35 83.7C150.25 85 151.45 86.25 152.95 87.45C154.55 88.55 156.4 89.55 158.5 90.45Z" fill="#EEF2FF"/>
</g>
<defs>
<filter id="filter0_d_810_36" x="0" y="0" width="258" height="208" filterUnits="userSpaceOnUse" color-interpolation-filters="sRGB">
<feFlood flood-opacity="0" result="BackgroundImageFix"/>
<feColorMatrix in="SourceAlpha" type="matrix" values="0 0 0 0 0 0 0 0 0 0 0 0 0 0 0 0 0 0 127 0" result="hardAlpha"/>
<feOffset dy="4"/>
<feGaussianBlur stdDeviation="2"/>
<feComposite in2="hardAlpha" operator="out"/>
<feColorMatrix type="matrix" values="0 0 0 0 0 0 0 0 0 0 0 0 0 0 0 0 0 0 0.25 0"/>
<feBlend mode="normal" in2="BackgroundImageFix" result="effect1_dropShadow_810_36"/>
<feBlend mode="normal" in="SourceGraphic" in2="effect1_dropShadow_810_36" result="shape"/>
</filter>
<filter id="filter1_d_810_36" x="55.8" y="49.35" width="142.85" height="112.4" filterUnits="userSpaceOnUse" color-interpolation-filters="sRGB">
<feFlood flood-opacity="0" result="BackgroundImageFix"/>
<feColorMatrix in="SourceAlpha" type="matrix" values="0 0 0 0 0 0 0 0 0 0 0 0 0 0 0 0 0 0 127 0" result="hardAlpha"/>
<feOffset dy="4"/>
<feGaussianBlur stdDeviation="2"/>
<feComposite in2="hardAlpha" operator="out"/>
<feColorMatrix type="matrix" values="0 0 0 0 0 0 0 0 0 0 0 0 0 0 0 0 0 0 0.25 0"/>
<feBlend mode="normal" in2="BackgroundImageFix" result="effect1_dropShadow_810_36"/>
<feBlend mode="normal" in="SourceGraphic" in2="effect1_dropShadow_810_36" result="shape"/>
</filter>
<linearGradient id="paint0_linear_810_36" x1="129" y1="0" x2="129" y2="200" gradientUnits="userSpaceOnUse">
<stop stop-color="#A5B4FC"/>
<stop offset="1" stop-color="#6366F1"/>
</linearGradient>
</defs>
</svg>
