<svg width="250" height="245" viewBox="0 0 250 245" fill="none" xmlns="http://www.w3.org/2000/svg">
<path d="M126.87 0H127.938L124.561 0.329367C145.572 0.444645 166.608 5.53333 185.037 15.6531C208.936 28.6219 228.375 49.5696 239.373 74.3625C246.564 90.5427 250.355 108.262 249.974 125.974C250.073 154.711 239.241 183.21 220.605 205.105C193.693 208.497 165.822 210.556 139.308 203.54C123.577 199.645 109.592 189.55 100.637 176.145C91.5432 160.13 94.6546 137.963 108.441 125.513C118.041 116.851 131.893 113.137 144.563 115.954C155.776 118.234 165.74 125.505 171.491 135.329C177.11 132.389 182.687 129.375 188.315 126.452C184.35 119.815 179.46 113.648 173.344 108.847C163.058 100.745 150.016 96.3479 136.941 95.9854C124.536 95.8375 112.099 99.5265 101.895 106.575C81.1739 120.589 70.9208 148.396 78.0875 172.349C82.6635 188.604 94.663 201.959 108.665 211.017C119.803 218.14 132.705 222.001 145.638 224.331C163.414 227.46 181.562 226.308 199.436 224.793C197.641 226.629 194.943 226.522 192.584 226.942C173.51 229.758 153.84 229.848 134.988 225.443C116.907 221.276 99.6859 212.4 86.8427 198.921C67.9666 178.64 63.5479 145.679 78.3771 121.94C86.1229 109.3 97.4849 98.4312 111.61 93.2682C127.036 87.5458 144.604 87.6031 159.947 93.5729C162.471 87.7515 165.218 82.0286 167.693 76.1906C142.386 65.8979 112.157 68.5656 89.1765 83.3541C76.5979 91.4484 66.2453 102.77 58.7151 115.624C50.3237 130.404 47.6094 148.042 50.1748 164.749C53.5594 187.278 65.9307 208.366 84.0703 222.281C92.8916 229.215 103.319 233.883 114.052 237.037C127.921 241.137 142.395 242.924 156.835 243.254C158.879 243.286 160.932 243.369 162.967 243.624C160.062 245.123 156.695 244.67 153.542 244.76C136.387 245.114 119.1 242.463 103.012 236.485C90.7734 231.899 79.2213 225.056 70.1432 215.603C60.6182 206.192 52.6078 195.051 47.9652 182.453C42.5118 167.541 40.8071 151.146 43.7283 135.509C47.2701 116.909 57.9453 100.185 71.9224 87.5536C88.688 72.3125 111.387 63.6583 134.111 64.0286C134.119 57.639 134.103 51.2412 134.128 44.8514C114.515 44.8597 94.8948 49.9567 77.9385 59.8047C55.5286 72.7734 37.919 93.614 28.5762 117.642C21.716 135.641 19.1506 155.7 23.8096 174.564C29.1389 197.604 43.8442 218.106 63.5396 231.215C66.6093 233.455 70.1182 235.011 73.1307 237.342C71.7401 237.251 70.325 237.086 69.0755 236.428C62.7286 233.406 56.7948 229.593 51.1595 225.41C41.014 217.777 31.4477 209.14 24.1903 198.674C15.1123 186.133 7.95411 172.094 3.99853 157.099C0.241543 143.233 -0.610816 128.724 0.382223 114.439C2.77379 83.8073 17.2721 54.362 39.9878 33.5707C58.4666 16.4766 82.2333 5.13811 107.241 1.67154C113.737 0.634031 120.341 0.732838 126.87 0Z" fill="#9333EA"/>
</svg>
