<svg width="363" height="352" viewBox="0 0 363 352" fill="none" xmlns="http://www.w3.org/2000/svg">
<path d="M143.99 44.4276C148.426 31.8758 164.897 28.9799 173.349 39.2654L217.646 93.1755C223.127 99.8462 231.242 103.801 239.875 104.016L309.69 105.748C323.019 106.079 330.84 120.821 323.662 132.022L286.004 190.782C283.701 194.374 282.199 198.42 281.602 202.645C281.004 206.869 281.325 211.173 282.542 215.262L302.437 282.12C306.229 294.858 294.624 306.881 281.716 303.52L214.142 285.927C210.012 284.851 205.698 284.677 201.495 285.416C197.293 286.154 193.297 287.789 189.781 290.21L132.263 329.798C121.275 337.359 106.266 330.017 105.483 316.749L101.381 247.115C100.873 238.496 96.6366 230.529 89.7771 225.285L34.3319 182.893C23.7641 174.813 26.0879 158.287 38.5043 153.43L103.541 127.987C111.584 124.84 117.862 118.355 120.739 110.214L143.99 44.4276Z" fill="#FFAFF3"/>
<path d="M133.32 194.043C140.061 192.857 144.565 186.432 143.38 179.692C142.195 172.95 135.77 168.448 129.029 169.633C122.288 170.818 117.784 177.244 118.969 183.984C120.154 190.724 126.579 195.229 133.32 194.043Z" fill="#151515"/>
<path d="M233.181 176.486C239.921 175.301 244.425 168.875 243.239 162.135C242.055 155.394 235.63 150.891 228.888 152.076C222.148 153.262 217.644 159.687 218.828 166.428C220.014 173.169 226.439 177.672 233.181 176.486Z" fill="#151515"/>
<path d="M155.427 27.352C147.549 28.7372 140.347 33.9635 137.362 42.4085L114.107 108.194C111.84 114.608 106.899 119.713 100.558 122.194L35.5189 147.639C18.8294 154.168 15.5915 177.117 29.8112 187.989L85.2565 230.376C87.9261 232.415 90.1244 235.006 91.7012 237.973C93.2779 240.939 94.1962 244.211 94.3931 247.564L98.4932 317.197C99.545 335.061 120.377 345.234 135.148 335.071L135.148 335.069L192.671 295.482L192.671 295.48C195.44 293.573 198.589 292.284 201.9 291.702C205.212 291.12 208.611 291.258 211.864 292.106L279.439 309.695C296.79 314.213 312.903 297.543 307.798 280.39L307.798 280.391L287.905 213.535C286.946 210.315 286.694 206.927 287.164 203.599C287.634 200.273 288.817 197.088 290.632 194.261L290.632 194.259L328.294 135.497L328.292 135.497C337.952 120.427 327.083 99.9588 309.167 99.5142L239.349 97.7842C232.544 97.6156 226.157 94.5023 221.84 89.2471L177.542 35.3385C171.857 28.4189 163.303 25.9632 155.425 27.3486M157.539 39.3757C161.119 38.7462 165.028 39.9846 167.793 43.3499L212.09 97.2569C218.733 105.342 228.577 110.138 239.036 110.398L308.853 112.128C317.596 112.345 322.367 121.36 317.668 128.689L280.008 187.451C274.359 196.261 272.827 207.105 275.809 217.133L295.704 283.988C298.181 292.314 291.083 299.687 282.617 297.484L215.042 279.894C204.916 277.256 194.133 279.153 185.514 285.087L127.992 324.675C120.785 329.635 111.598 325.124 111.086 316.454L106.987 246.821C106.372 236.375 101.231 226.707 92.9176 220.35L37.4725 177.963C30.557 172.676 31.9685 162.574 40.1123 159.387L105.152 133.942C114.896 130.129 122.513 122.263 126.001 112.396L126.001 112.396L149.256 46.6097C150.707 42.5031 153.959 40.0056 157.539 39.376" fill="#151515"/>
<path d="M177.884 270.577C171.656 279.471 173.214 290.658 174.31 295.402C191.907 292.039 224.853 285.866 231.613 285.298C239.206 270.313 238.908 246.591 237.798 236.431C237.786 236.328 237.714 236.249 237.614 236.222L232.465 234.864C233.271 234.472 235.262 233.558 236.98 232.935C237.095 232.893 237.164 232.775 237.142 232.655C236.322 228.08 235.158 224.157 234.616 222.582C234.581 222.479 234.484 222.413 234.376 222.416L229.509 222.522C230.344 221.631 232.16 219.713 233.019 218.876C233.089 218.807 233.114 218.707 233.079 218.615C232.34 216.715 229.094 211.042 227.441 208.237C227.388 208.147 227.286 208.102 227.184 208.12L223.196 208.823C223.521 208.513 224.457 207.479 225.656 205.782C225.715 205.699 225.718 205.589 225.66 205.505C224.302 203.535 220.243 199.611 218.227 197.75C218.152 197.681 218.045 197.666 217.953 197.709L214.147 199.505C214.401 198.84 215.056 197.232 215.718 195.896C215.773 195.785 215.741 195.65 215.638 195.58C213.136 193.856 208.003 190.871 205.527 189.468C205.42 189.407 205.286 189.434 205.209 189.531L202.473 192.988C202.588 192.211 202.811 190.242 202.808 188.419C202.808 188.318 202.747 188.227 202.653 188.191C198.415 186.562 190.776 185.597 187.082 185.28C186.898 185.264 186.762 185.446 186.825 185.619C187.174 186.57 187.951 188.818 189.153 192.608C181.317 183.964 174.821 184.59 168.879 184.938C168.627 184.952 168.535 185.315 168.738 185.465C171.979 187.857 175.414 194.166 177.967 197.698C176.462 198.743 172.728 201.585 169.827 204.591C166.202 208.348 164.801 207.036 162.866 209.326C160.931 211.616 162.198 218.799 162.22 221.134C162.242 223.469 150.677 235.253 149.009 239.055C147.341 242.858 149.853 248.262 151.565 249.129C153.277 249.997 155.723 248.396 157.991 247.996C156.435 250.219 156.345 254.133 159.814 253.911C167.82 252.889 168.577 246.129 170.267 244.662C171.957 243.195 175.426 242.973 180.719 242.04C186.011 241.106 190.081 237.66 192.239 232.212C193.882 245.955 185.669 259.46 177.884 270.577Z" fill="#151515"/>
</svg>
