<svg width="250" height="200" viewBox="0 0 250 200" fill="none" xmlns="http://www.w3.org/2000/svg">
<rect width="250" height="200" rx="20" fill="url(#paint0_linear_810_35)"/>
<g filter="url(#filter0_d_810_35)">
<path d="M68.35 97.35L55.3 90.9L78.25 53.4H86.65L107.8 90.75L94.9 97.2L81.85 74.4L68.35 97.35ZM154.45 153.75V145.5C151.15 145.2 147.85 144.6 144.55 143.7C141.25 142.7 138.1 141.35 135.1 139.65C132.2 137.95 129.6 135.95 127.3 133.65L135.1 120.75C136.1 121.15 136.65 121.8 136.75 122.7C136.85 123.6 137.25 124.4 137.95 125.1C139.35 126.5 140.9 127.7 142.6 128.7C144.3 129.7 146.1 130.55 148 131.25C149.9 131.85 151.9 132.35 154 132.75V105.6C148.8 103.6 144.35 101.45 140.65 99.15C136.95 96.75 134.15 94 132.25 90.9C130.35 87.8 129.4 84.25 129.4 80.25C129.4 76.25 130.55 72.7 132.85 69.6C135.15 66.5 138.2 64 142 62.1C145.8 60.1 149.95 58.8 154.45 58.2V49.35H165.25C165.55 49.45 165.7 49.6 165.7 49.8C165.8 50 165.85 50.2 165.85 50.4C165.85 50.7 165.7 51.2 165.4 51.9C165.1 52.6 164.95 53.4 164.95 54.3V58.05C167.85 58.35 170.7 59.05 173.5 60.15C176.3 61.15 178.9 62.45 181.3 64.05C183.8 65.65 185.95 67.6 187.75 69.9L179.95 79.8C178.85 79.7 178.2 79.2 178 78.3C177.8 77.4 177.45 76.8 176.95 76.5C176.25 75.7 175.45 75 174.55 74.4C173.75 73.8 172.85 73.3 171.85 72.9C170.85 72.5 169.8 72.15 168.7 71.85C167.6 71.45 166.5 71.15 165.4 70.95V94.5C171.2 96.6 175.9 98.8 179.5 101.1C183.2 103.3 185.9 105.9 187.6 108.9C189.3 111.8 190.15 115.4 190.15 119.7C190.15 123.6 189.1 127.4 187 131.1C185 134.8 182.05 137.95 178.15 140.55C174.35 143.05 169.95 144.65 164.95 145.35V153.75H154.45ZM165.4 132.45C167.5 131.95 169.35 131.1 170.95 129.9C172.65 128.7 173.95 127.3 174.85 125.7C175.75 124 176.2 122.25 176.2 120.45C176.2 118.55 175.75 116.9 174.85 115.5C174.05 114.1 172.8 112.85 171.1 111.75C169.5 110.65 167.6 109.7 165.4 108.9V132.45ZM154 90.45V70.8C152.1 71.1 150.35 71.65 148.75 72.45C147.15 73.15 145.9 74.1 145 75.3C144.1 76.5 143.65 77.9 143.65 79.5C143.65 80.9 144.05 82.3 144.85 83.7C145.75 85 146.95 86.25 148.45 87.45C150.05 88.55 151.9 89.55 154 90.45Z" fill="#FEFCE8"/>
</g>
<defs>
<filter id="filter0_d_810_35" x="51.3" y="49.35" width="142.85" height="112.4" filterUnits="userSpaceOnUse" color-interpolation-filters="sRGB">
<feFlood flood-opacity="0" result="BackgroundImageFix"/>
<feColorMatrix in="SourceAlpha" type="matrix" values="0 0 0 0 0 0 0 0 0 0 0 0 0 0 0 0 0 0 127 0" result="hardAlpha"/>
<feOffset dy="4"/>
<feGaussianBlur stdDeviation="2"/>
<feComposite in2="hardAlpha" operator="out"/>
<feColorMatrix type="matrix" values="0 0 0 0 0 0 0 0 0 0 0 0 0 0 0 0 0 0 0.25 0"/>
<feBlend mode="normal" in2="BackgroundImageFix" result="effect1_dropShadow_810_35"/>
<feBlend mode="normal" in="SourceGraphic" in2="effect1_dropShadow_810_35" result="shape"/>
</filter>
<linearGradient id="paint0_linear_810_35" x1="125" y1="0" x2="125" y2="200" gradientUnits="userSpaceOnUse">
<stop stop-color="#FDE047"/>
<stop offset="1" stop-color="#EAB308"/>
</linearGradient>
</defs>
</svg>
