<svg width="250" height="250" viewBox="0 0 250 250" fill="none" xmlns="http://www.w3.org/2000/svg">
<circle cx="125" cy="125" r="125" fill="url(#paint0_linear_1428_3)"/>
<path fill-rule="evenodd" clip-rule="evenodd" d="M250 125.25C250 97.1938 240.5 70.1406 223 48.0969L222 47.0938C221.5 46.5938 221.5 46.0906 221 45.5906L213 37.0719C189.5 13.025 158.5 0 125 0H124C91 0.5 60.5 13.025 37 36.5719L28.5 45.5906C28 46.0906 28 46.5938 27.5 47.0938L26.5 47.5938C9.5 69.6406 0 97.1938 0 125.25C0 153.306 9.5 180.359 27 202.403L28 203.406C28.5 203.906 28.5 204.409 29 204.909L37 213.425C60.5 236.975 91 250 124 250H125C158 250 189.5 236.975 213 213.428L221 204.409C221.5 203.909 221.5 203.406 222 202.906L223 201.903C240.5 180.863 250 153.306 250 125.25ZM199.5 43.5875C199 43.5875 198.5 44.0875 198 44.0875C197 44.5875 196 45.0906 195.5 45.0906C193.5 46.0938 191 46.5938 188.5 47.5969C188 47.5969 187.5 48.0969 187 48.0969C184 49.1 181.5 49.6 178.5 50.6031C178 50.6031 177 51.1031 176.5 51.1031C172 39.0781 166.5 28.5594 160 20.5406C174.5 25.05 188 33.0656 199.5 43.5875ZM124 14.5281C138 14.5281 152 29.0562 162 54.1062C150.5 56.1094 138 57.1125 125 57.1125C112 57.1125 99 56.1125 87 54.1062C96.5 29.5594 110.5 15.0313 124 14.5281ZM88.5 21.0438C82.5 29.0594 77 39.0813 72.5 51.1031H71.5C68.5 50.1 65.5 49.6 63 48.5969C62.5 48.5969 62 48.0969 61.5 48.0969C59.5 47.0938 57 46.0938 55 45.0906C54 44.5906 53.5 44.5906 52.5 44.0875C52 43.5875 51.5 43.5875 50.5 43.0844C62 33.5656 74.5 25.55 88.5 21.0406V21.0438ZM50.5 206.912C51 206.912 51.5 206.413 52 206.413C53 205.913 53.5 205.913 54.5 205.409C56.5 204.406 59 203.906 61.5 202.903C62 202.903 62.5 202.403 63 202.403C66 201.403 68.5 200.9 71.5 199.897H72.5C77 211.422 82.5 221.941 88.5 229.956C74.5 224.947 61.5 216.934 50.5 206.912ZM124.5 235.972C110.5 235.472 96.5 221.444 87 196.894C99 194.891 112 193.887 125 193.887C138 193.887 150 194.891 162 196.894C152.5 221.444 138 235.972 124.5 235.972ZM160 229.959C166.5 221.944 172 211.422 176.5 199.397C177 199.397 178 199.897 178.5 199.897C181.5 200.9 184.5 201.4 187 202.403C187.5 202.403 188 202.903 188.5 202.903C191 203.906 193 204.406 195.5 205.409C196.5 205.909 197 205.909 198 206.413C198.5 206.413 199 206.913 200 207.413C188 217.434 174.5 225.45 160 229.959ZM210.5 195.391C209 195.391 208 194.891 206.5 194.387C205 193.884 203 192.884 201.5 192.384C201 192.384 200.5 191.884 200 191.884C194 189.378 187.5 187.878 181 185.872C182.5 179.859 184 173.847 185 167.834H170C169 173.347 168 178.356 166.5 182.866C153.5 180.359 139.5 179.359 125 179.359C110 179.359 96 180.863 82.5 183.369C81 178.359 80 173.35 79 167.838H64C65 174.35 66.5 180.363 68 186.375C62 187.878 56 189.881 50.5 191.884C50 192.384 49 192.384 48.5 192.887C47 193.387 45 194.391 43.5 194.891C42.5 194.891 41 195.391 40 195.894C25 177.856 16.5 155.312 15 132.266H23.5075V117.737H15C16.5 94.6906 25 72.6469 39.5 55.1125L40 54.6125C41 55.1125 42.5 55.6156 43.5 56.1156C45.5 57.1156 47 57.6188 49 58.6219C49.5 58.6219 50 59.1219 50.5 59.1219C56 61.125 62 63.1313 68.5 64.6344C67 70.1469 66 75.6563 65 81.1688H80L83 67.6406C96.5 70.1469 111 71.6469 125.5 71.6469C140 71.6469 154 70.1438 167 68.1406C168 72.15 169 76.6563 170 81.6688H185C184 76.1594 183 70.6469 181.5 65.1344C188 63.6313 194 61.6281 200 59.1219C200.5 59.1219 201.5 58.6219 202 58.6219C204 58.1219 205.5 57.1188 207.5 56.6188C208.5 56.1188 210 55.6156 211 55.1156C225.5 73.1531 234.5 95.1969 236 118.241H224.993V132.769H236C233.5 155.312 225 177.856 210.5 195.391Z" fill="#0D9488"/>
<path d="M32.3894 97.549H41.6541V113.67C42.56 112.393 43.7747 111.446 45.2982 110.828C46.8217 110.17 48.5512 109.84 50.4865 109.84C52.9982 109.84 55.2217 110.375 57.157 111.446C59.0923 112.517 60.5953 114.02 61.6658 115.955C62.7364 117.89 63.2717 120.114 63.2717 122.625V144.305H54.007V124.602C54.007 122.667 53.4306 121.122 52.2776 119.97C51.1659 118.775 49.6835 118.178 47.8306 118.178C45.9776 118.178 44.4747 118.775 43.3218 119.97C42.21 121.122 41.6541 122.667 41.6541 124.602V144.305H32.3894V97.549Z" fill="#0D9488"/>
<path d="M84.3725 144.675C80.2961 144.675 77.1255 143.584 74.8608 141.402C72.6373 139.178 71.5255 136.09 71.5255 132.137V118.611H65.8432V110.581H66.152C67.8814 110.581 69.199 110.149 70.1049 109.284C71.052 108.42 71.5255 107.122 71.5255 105.393V102.922H80.7902V110.581H88.6961V118.611H80.7902V131.52C80.7902 133.249 81.2637 134.546 82.2108 135.411C83.1578 136.234 84.599 136.646 86.5343 136.646C87.1108 136.646 87.8314 136.584 88.6961 136.461V144.367C87.3372 144.572 85.8961 144.675 84.3725 144.675Z" fill="#0D9488"/>
<path d="M109.134 144.675C105.057 144.675 101.887 143.584 99.6221 141.402C97.3986 139.178 96.2868 136.09 96.2868 132.137V118.611H90.6045V110.581H90.9133C92.6427 110.581 93.9604 110.149 94.8663 109.284C95.8133 108.42 96.2868 107.122 96.2868 105.393V102.922H105.552V110.581H113.457V118.611H105.552V131.52C105.552 133.249 106.025 134.546 106.972 135.411C107.919 136.234 109.36 136.646 111.296 136.646C111.872 136.646 112.593 136.584 113.457 136.461V144.367C112.099 144.572 110.657 144.675 109.134 144.675Z" fill="#0D9488"/>
<path d="M117.651 110.581H126.298V114.102C127.451 112.743 128.913 111.693 130.683 110.952C132.454 110.211 134.431 109.84 136.613 109.84C139.783 109.84 142.666 110.622 145.26 112.187C147.895 113.752 149.975 115.872 151.498 118.549C153.022 121.225 153.783 124.19 153.783 127.443C153.783 130.696 153.022 133.661 151.498 136.337C150.016 139.014 147.957 141.134 145.322 142.699C142.728 144.264 139.804 145.046 136.551 145.046C134.657 145.046 132.866 144.758 131.178 144.181C129.531 143.605 128.11 142.781 126.916 141.711V156.658H117.651V110.581ZM126.916 127.443C126.916 130.202 127.698 132.446 129.263 134.175C130.869 135.864 132.928 136.708 135.439 136.708C137.992 136.708 140.092 135.843 141.739 134.114C143.386 132.384 144.21 130.161 144.21 127.443C144.21 124.767 143.386 122.564 141.739 120.834C140.092 119.064 137.992 118.178 135.439 118.178C132.928 118.178 130.869 119.043 129.263 120.772C127.698 122.502 126.916 124.725 126.916 127.443Z" fill="#0D9488"/>
<path d="M164.768 144.305C163.327 144.305 162.112 143.811 161.124 142.822C160.136 141.834 159.642 140.62 159.642 139.178C159.642 137.737 160.136 136.543 161.124 135.596C162.112 134.608 163.327 134.114 164.768 134.114C166.21 134.114 167.404 134.608 168.351 135.596C169.339 136.543 169.833 137.737 169.833 139.178C169.833 140.661 169.36 141.896 168.412 142.884C167.465 143.831 166.251 144.305 164.768 144.305ZM159.642 115.646C159.642 114.205 160.136 113.011 161.124 112.064C162.112 111.075 163.327 110.581 164.768 110.581C166.21 110.581 167.404 111.075 168.351 112.064C169.339 113.011 169.833 114.205 169.833 115.646C169.833 117.128 169.36 118.364 168.412 119.352C167.465 120.299 166.251 120.772 164.768 120.772C163.327 120.772 162.112 120.278 161.124 119.29C160.136 118.302 159.642 117.087 159.642 115.646Z" fill="#0D9488"/>
<path d="M192.291 99.2292H202.297L181.914 150.185H171.908L192.291 99.2292Z" fill="#0D9488"/>
<path d="M212.811 99.2292H222.816L202.434 150.185H192.428L212.811 99.2292Z" fill="#0D9488"/>
<defs>
<linearGradient id="paint0_linear_1428_3" x1="125" y1="0" x2="125" y2="250" gradientUnits="userSpaceOnUse">
<stop stop-color="#CCFBF1"/>
<stop offset="1" stop-color="white"/>
</linearGradient>
</defs>
</svg>
