<svg width="250" height="200" viewBox="0 0 250 200" fill="none" xmlns="http://www.w3.org/2000/svg">
<rect width="250" height="200" rx="20" fill="url(#paint0_linear_810_33)"/>
<g filter="url(#filter0_d_810_33)">
<path d="M73.85 97.35L60.8 90.9L83.75 53.4H92.15L113.3 90.75L100.4 97.2L87.35 74.4L73.85 97.35ZM159.95 153.75V145.5C156.65 145.2 153.35 144.6 150.05 143.7C146.75 142.7 143.6 141.35 140.6 139.65C137.7 137.95 135.1 135.95 132.8 133.65L140.6 120.75C141.6 121.15 142.15 121.8 142.25 122.7C142.35 123.6 142.75 124.4 143.45 125.1C144.85 126.5 146.4 127.7 148.1 128.7C149.8 129.7 151.6 130.55 153.5 131.25C155.4 131.85 157.4 132.35 159.5 132.75V105.6C154.3 103.6 149.85 101.45 146.15 99.15C142.45 96.75 139.65 94 137.75 90.9C135.85 87.8 134.9 84.25 134.9 80.25C134.9 76.25 136.05 72.7 138.35 69.6C140.65 66.5 143.7 64 147.5 62.1C151.3 60.1 155.45 58.8 159.95 58.2V49.35H170.75C171.05 49.45 171.2 49.6 171.2 49.8C171.3 50 171.35 50.2 171.35 50.4C171.35 50.7 171.2 51.2 170.9 51.9C170.6 52.6 170.45 53.4 170.45 54.3V58.05C173.35 58.35 176.2 59.05 179 60.15C181.8 61.15 184.4 62.45 186.8 64.05C189.3 65.65 191.45 67.6 193.25 69.9L185.45 79.8C184.35 79.7 183.7 79.2 183.5 78.3C183.3 77.4 182.95 76.8 182.45 76.5C181.75 75.7 180.95 75 180.05 74.4C179.25 73.8 178.35 73.3 177.35 72.9C176.35 72.5 175.3 72.15 174.2 71.85C173.1 71.45 172 71.15 170.9 70.95V94.5C176.7 96.6 181.4 98.8 185 101.1C188.7 103.3 191.4 105.9 193.1 108.9C194.8 111.8 195.65 115.4 195.65 119.7C195.65 123.6 194.6 127.4 192.5 131.1C190.5 134.8 187.55 137.95 183.65 140.55C179.85 143.05 175.45 144.65 170.45 145.35V153.75H159.95ZM170.9 132.45C173 131.95 174.85 131.1 176.45 129.9C178.15 128.7 179.45 127.3 180.35 125.7C181.25 124 181.7 122.25 181.7 120.45C181.7 118.55 181.25 116.9 180.35 115.5C179.55 114.1 178.3 112.85 176.6 111.75C175 110.65 173.1 109.7 170.9 108.9V132.45ZM159.5 90.45V70.8C157.6 71.1 155.85 71.65 154.25 72.45C152.65 73.15 151.4 74.1 150.5 75.3C149.6 76.5 149.15 77.9 149.15 79.5C149.15 80.9 149.55 82.3 150.35 83.7C151.25 85 152.45 86.25 153.95 87.45C155.55 88.55 157.4 89.55 159.5 90.45Z" fill="#EEF2FF"/>
</g>
<defs>
<filter id="filter0_d_810_33" x="56.8" y="49.35" width="142.85" height="112.4" filterUnits="userSpaceOnUse" color-interpolation-filters="sRGB">
<feFlood flood-opacity="0" result="BackgroundImageFix"/>
<feColorMatrix in="SourceAlpha" type="matrix" values="0 0 0 0 0 0 0 0 0 0 0 0 0 0 0 0 0 0 127 0" result="hardAlpha"/>
<feOffset dy="4"/>
<feGaussianBlur stdDeviation="2"/>
<feComposite in2="hardAlpha" operator="out"/>
<feColorMatrix type="matrix" values="0 0 0 0 0 0 0 0 0 0 0 0 0 0 0 0 0 0 0.25 0"/>
<feBlend mode="normal" in2="BackgroundImageFix" result="effect1_dropShadow_810_33"/>
<feBlend mode="normal" in="SourceGraphic" in2="effect1_dropShadow_810_33" result="shape"/>
</filter>
<linearGradient id="paint0_linear_810_33" x1="125" y1="0" x2="125" y2="200" gradientUnits="userSpaceOnUse">
<stop stop-color="#A5B4FC"/>
<stop offset="1" stop-color="#6366F1"/>
</linearGradient>
</defs>
</svg>
