<svg width="250" height="200" viewBox="0 0 250 200" fill="none" xmlns="http://www.w3.org/2000/svg">
<rect width="250" height="200" rx="20" fill="url(#paint0_linear_810_34)"/>
<g filter="url(#filter0_d_810_34)">
<path d="M68.85 97.35L55.8 90.9L78.75 53.4H87.15L108.3 90.75L95.4 97.2L82.35 74.4L68.85 97.35ZM154.95 153.75V145.5C151.65 145.2 148.35 144.6 145.05 143.7C141.75 142.7 138.6 141.35 135.6 139.65C132.7 137.95 130.1 135.95 127.8 133.65L135.6 120.75C136.6 121.15 137.15 121.8 137.25 122.7C137.35 123.6 137.75 124.4 138.45 125.1C139.85 126.5 141.4 127.7 143.1 128.7C144.8 129.7 146.6 130.55 148.5 131.25C150.4 131.85 152.4 132.35 154.5 132.75V105.6C149.3 103.6 144.85 101.45 141.15 99.15C137.45 96.75 134.65 94 132.75 90.9C130.85 87.8 129.9 84.25 129.9 80.25C129.9 76.25 131.05 72.7 133.35 69.6C135.65 66.5 138.7 64 142.5 62.1C146.3 60.1 150.45 58.8 154.95 58.2V49.35H165.75C166.05 49.45 166.2 49.6 166.2 49.8C166.3 50 166.35 50.2 166.35 50.4C166.35 50.7 166.2 51.2 165.9 51.9C165.6 52.6 165.45 53.4 165.45 54.3V58.05C168.35 58.35 171.2 59.05 174 60.15C176.8 61.15 179.4 62.45 181.8 64.05C184.3 65.65 186.45 67.6 188.25 69.9L180.45 79.8C179.35 79.7 178.7 79.2 178.5 78.3C178.3 77.4 177.95 76.8 177.45 76.5C176.75 75.7 175.95 75 175.05 74.4C174.25 73.8 173.35 73.3 172.35 72.9C171.35 72.5 170.3 72.15 169.2 71.85C168.1 71.45 167 71.15 165.9 70.95V94.5C171.7 96.6 176.4 98.8 180 101.1C183.7 103.3 186.4 105.9 188.1 108.9C189.8 111.8 190.65 115.4 190.65 119.7C190.65 123.6 189.6 127.4 187.5 131.1C185.5 134.8 182.55 137.95 178.65 140.55C174.85 143.05 170.45 144.65 165.45 145.35V153.75H154.95ZM165.9 132.45C168 131.95 169.85 131.1 171.45 129.9C173.15 128.7 174.45 127.3 175.35 125.7C176.25 124 176.7 122.25 176.7 120.45C176.7 118.55 176.25 116.9 175.35 115.5C174.55 114.1 173.3 112.85 171.6 111.75C170 110.65 168.1 109.7 165.9 108.9V132.45ZM154.5 90.45V70.8C152.6 71.1 150.85 71.65 149.25 72.45C147.65 73.15 146.4 74.1 145.5 75.3C144.6 76.5 144.15 77.9 144.15 79.5C144.15 80.9 144.55 82.3 145.35 83.7C146.25 85 147.45 86.25 148.95 87.45C150.55 88.55 152.4 89.55 154.5 90.45Z" fill="#F0FDFA"/>
</g>
<defs>
<filter id="filter0_d_810_34" x="51.8" y="49.35" width="142.85" height="112.4" filterUnits="userSpaceOnUse" color-interpolation-filters="sRGB">
<feFlood flood-opacity="0" result="BackgroundImageFix"/>
<feColorMatrix in="SourceAlpha" type="matrix" values="0 0 0 0 0 0 0 0 0 0 0 0 0 0 0 0 0 0 127 0" result="hardAlpha"/>
<feOffset dy="4"/>
<feGaussianBlur stdDeviation="2"/>
<feComposite in2="hardAlpha" operator="out"/>
<feColorMatrix type="matrix" values="0 0 0 0 0 0 0 0 0 0 0 0 0 0 0 0 0 0 0.25 0"/>
<feBlend mode="normal" in2="BackgroundImageFix" result="effect1_dropShadow_810_34"/>
<feBlend mode="normal" in="SourceGraphic" in2="effect1_dropShadow_810_34" result="shape"/>
</filter>
<linearGradient id="paint0_linear_810_34" x1="125" y1="0" x2="125" y2="200" gradientUnits="userSpaceOnUse">
<stop stop-color="#6AD0CC"/>
<stop offset="1" stop-color="#38B2AC"/>
</linearGradient>
</defs>
</svg>
