<svg width="250" height="250" viewBox="0 0 250 250" fill="none" xmlns="http://www.w3.org/2000/svg">
<circle cx="125" cy="125" r="125" fill="url(#paint0_linear_1450_5)"/>
<path fill-rule="evenodd" clip-rule="evenodd" d="M250 125.25C250 97.1938 240.5 70.1406 223 48.0969L222 47.0938C221.5 46.5938 221.5 46.0906 221 45.5906L213 37.0719C189.5 13.025 158.5 0 125 0H124C91 0.5 60.5 13.025 37 36.5719L28.5 45.5906C28 46.0906 28 46.5938 27.5 47.0938L26.5 47.5938C9.5 69.6406 0 97.1938 0 125.25C0 153.306 9.5 180.359 27 202.403L28 203.406C28.5 203.906 28.5 204.409 29 204.909L37 213.425C60.5 236.975 91 250 124 250H125C158 250 189.5 236.975 213 213.428L221 204.409C221.5 203.909 221.5 203.406 222 202.906L223 201.903C240.5 180.863 250 153.306 250 125.25ZM199.5 43.5875C199 43.5875 198.5 44.0875 198 44.0875C197 44.5875 196 45.0906 195.5 45.0906C193.5 46.0938 191 46.5937 188.5 47.5969C188 47.5969 187.5 48.0969 187 48.0969C184 49.1 181.5 49.6 178.5 50.6031C178 50.6031 177 51.1031 176.5 51.1031C172 39.0781 166.5 28.5594 160 20.5406C174.5 25.05 188 33.0656 199.5 43.5875ZM124 14.5281C138 14.5281 152 29.0562 162 54.1062C150.5 56.1094 138 57.1125 125 57.1125C112 57.1125 99 56.1125 87 54.1062C96.5 29.5594 110.5 15.0313 124 14.5281ZM88.5 21.0438C82.5 29.0594 77 39.0813 72.5 51.1031H71.5C68.5 50.1 65.5 49.6 63 48.5969C62.5 48.5969 62 48.0969 61.5 48.0969C59.5 47.0938 57 46.0938 55 45.0906C54 44.5906 53.5 44.5906 52.5 44.0875C52 43.5875 51.5 43.5875 50.5 43.0844C62 33.5656 74.5 25.55 88.5 21.0406V21.0438ZM50.5 206.912C51 206.912 51.5 206.413 52 206.413C53 205.913 53.5 205.913 54.5 205.409C56.5 204.406 59 203.906 61.5 202.903C62 202.903 62.5 202.403 63 202.403C66 201.403 68.5 200.9 71.5 199.897H72.5C77 211.422 82.5 221.941 88.5 229.956C74.5 224.947 61.5 216.934 50.5 206.912ZM124.5 235.972C110.5 235.472 96.5 221.444 87 196.894C99 194.891 112 193.887 125 193.887C138 193.887 150 194.891 162 196.894C152.5 221.444 138 235.972 124.5 235.972ZM160 229.959C166.5 221.944 172 211.422 176.5 199.397C177 199.397 178 199.897 178.5 199.897C181.5 200.9 184.5 201.4 187 202.403C187.5 202.403 188 202.903 188.5 202.903C191 203.906 193 204.406 195.5 205.409C196.5 205.909 197 205.909 198 206.413C198.5 206.413 199 206.913 200 207.413C188 217.434 174.5 225.45 160 229.959ZM210.5 195.391C209 195.391 208 194.891 206.5 194.387C205 193.884 203 192.884 201.5 192.384C201 192.384 200.5 191.884 200 191.884C194 189.378 187.5 187.878 181 185.872C182.5 179.859 184 173.847 185 167.834H170C169 173.347 168 178.356 166.5 182.866C153.5 180.359 139.5 179.359 125 179.359C110 179.359 96 180.863 82.5 183.369C81 178.359 80 173.35 79 167.838H64C65 174.35 66.5 180.362 68 186.375C62 187.878 56 189.881 50.5 191.884C50 192.384 49 192.384 48.5 192.887C47 193.387 45 194.391 43.5 194.891C42.5 194.891 41 195.391 40 195.894C25 177.856 16.5 155.312 15 132.266H27.5V117.737H15C16.5 94.6906 25 72.6469 39.5 55.1125L40 54.6125C41 55.1125 42.5 55.6156 43.5 56.1156C45.5 57.1156 47 57.6188 49 58.6219C49.5 58.6219 50 59.1219 50.5 59.1219C56 61.125 62 63.1313 68.5 64.6344C67 70.1469 66 75.6563 65 81.1688H80L83 67.6406C96.5 70.1469 111 71.6469 125.5 71.6469C140 71.6469 154 70.1437 167 68.1406C168 72.15 169 76.6563 170 81.6688H185C184 76.1594 183 70.6469 181.5 65.1344C188 63.6313 194 61.6281 200 59.1219C200.5 59.1219 201.5 58.6219 202 58.6219C204 58.1219 205.5 57.1188 207.5 56.6188C208.5 56.1188 210 55.6156 211 55.1156C225.5 73.1531 234.5 95.1969 236 118.241H221V132.769H236C233.5 155.313 225 177.856 210.5 195.391ZM93.5 124.247C93.5 130.259 92.5 135.269 91 139.278C89.5 143.287 87 146.794 84.5 149.8C81.5 152.306 78 154.309 74 155.812C70 156.816 65 157.816 59 157.816H43.5C42.5 157.816 41.5 157.316 40.5 156.812C39.5 156.309 40 154.809 40 153.306V96.6906C40 95.1875 40.5 94.1844 41 93.6844C41.5 93.1844 42.5 92.6813 44 92.6813H60.5C66.5 92.6813 71 93.1813 75 94.6844C79 96.1875 82.5 98.1906 85 100.697C87.5 103.203 90 106.709 91.5 110.716C92.5 114.722 93.5 119.234 93.5 124.247ZM80 124.747C80 121.741 79.5 118.734 79 116.231C78.5 113.728 77 111.222 75.5 109.216C74 107.209 72 105.709 69.5 104.706C67 103.703 64 103.203 59.5 103.203H53V147.291H60C63.5 147.291 66.5 146.791 69 145.788C71.5 144.784 73.5 143.281 75 141.778C76.5 139.775 78 137.772 78.5 134.766C79.5 131.759 80 128.253 80 124.747ZM157.5 152.803C157.5 153.806 157.5 154.306 157 154.806C156.5 155.306 156.5 155.809 156 156.309C155.5 156.809 155 156.809 154.5 157.309C154 157.309 153.5 157.809 152.5 157.809H147C146 157.809 145 157.809 144 157.309C143 157.309 142.5 156.809 141.5 155.806C141 155.306 140 154.303 139.5 153.3C139 152.297 138 150.794 137.5 149.291L121.5 119.231C120.5 117.228 119.5 115.725 118.5 113.219C117.5 111.216 116.5 109.209 116 107.206C116 109.713 116 112.216 116.5 114.219V155.803C116.5 156.303 116.5 156.303 116 156.806C116 157.306 115.5 157.306 115 157.306C114.5 157.306 114 157.806 113 157.806H107C106 157.806 105.5 157.806 105 157.306C104.5 157.306 104.5 156.806 104 156.806V97.6875C104 96.1844 104.5 95.1813 105.5 94.1813C106.5 93.1813 107.5 93.1781 109 93.1781H116C117.5 93.1781 118.5 93.1781 119 93.6781C120 93.6781 120.5 94.1781 121.5 94.6813C122 95.1813 123 95.6844 123.5 96.6844C124.084 97.8986 124.752 99.0703 125.5 100.191L138 123.738C138.5 125.241 139.5 126.744 140 127.744C140.5 129.247 141.5 130.75 142 131.753C142.5 133.256 143.5 134.259 144 135.762C144.5 137.266 145 138.269 146 139.772V94.6875C146 94.1875 146 94.1875 146.5 93.6844C146.5 93.1844 147 93.1844 147.5 93.1844C148 93.1844 148.5 92.6844 149.5 92.6844H155.5C156.5 92.6844 157 92.6844 157.5 93.1844C158 93.1844 158 93.6844 158.5 93.6844V152.803H157.5Z" fill="#0284C7"/>
<path fill-rule="evenodd" clip-rule="evenodd" d="M210 138.276C210 141.782 209.5 144.788 208 147.294C206.5 149.801 205 151.804 203 153.807C201 155.31 198.5 156.813 195.5 157.813C192.5 158.813 189.5 159.316 186 159.316C184 159.316 181.5 159.316 180 158.816L175 157.313C173.5 156.813 172.5 156.313 171.5 155.81C170.5 155.307 170 154.807 169.5 154.307C169 153.807 169 153.304 168.5 152.304C168.5 151.304 168 150.301 168 148.797V146.291C168 145.791 168 144.788 168.5 144.788C168.5 144.288 169 144.288 169 143.785C169 143.785 169.5 143.285 170 143.285C170.5 143.285 171 143.785 172 144.288C173 144.791 174 145.291 175.5 146.291C177 146.791 178.5 147.794 180.5 148.294C182.5 148.794 184.5 149.297 187 149.297C188.5 149.297 190 149.297 191.5 148.797C193 148.297 194 147.794 194.5 147.294C195.5 146.794 196 145.791 196.5 144.788C197 143.785 197 142.785 197 141.282C197 139.779 196.5 138.776 196 137.272L193 134.266C191.5 133.263 190.5 132.763 188.5 131.76C187 131.26 185 130.257 183.5 129.254C182 128.251 180 127.751 178.5 126.747C177 125.744 175.5 124.744 174 123.241C172.5 121.738 171.5 120.235 171 118.232C170 116.229 170 114.222 170 111.216C170 108.21 170.5 105.204 171.5 103.201C172.5 100.694 174 98.6911 176 97.188C178 95.6849 180 94.6818 183 93.6818C185.5 92.6786 188.5 92.6786 191.5 92.6786C193 92.6786 194.5 92.6786 196 93.1786C197.5 93.1786 199 93.6786 200.5 94.1818C202 94.6849 203 95.1849 204 95.6849C205 96.1849 205.5 96.6849 206 96.6849C206.5 97.1849 206.5 97.1849 206.5 97.688C206.5 97.688 206.5 98.188 207 98.6911V106.207C207 106.707 206.5 106.707 206.5 107.21C206.5 107.21 206 107.71 205.5 107.71C205 107.71 204.5 107.71 204 107.21L201 105.707C200 105.207 198.5 104.704 197 104.204C195.5 103.704 194 103.704 192 103.704C190.5 103.704 189.5 103.704 188.5 104.204C187.5 104.704 186.5 105.207 186 105.707C185.5 106.207 185 107.21 184.5 107.71C184 108.713 184 109.713 184 110.216C184 111.719 184.5 112.722 185 113.722L188 116.729C189.5 117.732 191 118.232 192.5 119.235C194 119.735 196 120.738 197.5 121.741C199 122.744 201 123.244 202.5 124.247C204 125.251 205.5 126.251 207 127.754C208.5 129.257 209.5 130.76 210 132.763C209.5 133.263 210 135.269 210 138.276Z" fill="#0284C7"/>
<defs>
<linearGradient id="paint0_linear_1450_5" x1="125" y1="0" x2="125" y2="250" gradientUnits="userSpaceOnUse">
<stop stop-color="#E0F2FE"/>
<stop offset="1" stop-color="#97D9F6" stop-opacity="0"/>
</linearGradient>
</defs>
</svg>
