<svg width="171" height="48" viewBox="0 0 171 48" fill="none" xmlns="http://www.w3.org/2000/svg">
<path d="M20.3983 2H2V46L20.3983 2Z" fill="#FA0C00"/>
<path d="M33.343 2H51.7172V46L33.343 2Z" fill="#FA0C00"/>
<path d="M26.8706 18.2168L38.5808 46H30.8978L27.398 37.1544H18.8281L26.8706 18.2168Z" fill="#FA0C00"/>
<path d="M81.7326 29.9808L83.902 36.2015C83.974 36.3573 84.0818 36.4292 84.2736 36.4292H88.4447C88.6724 36.4292 88.7084 36.3213 88.6724 36.0936L80.0546 12.1579C80.0186 11.9661 79.9827 11.9302 79.7909 11.9302H74.613C74.4692 11.9302 74.3853 12.038 74.3853 12.1939C74.3134 13.4524 74.2055 13.8359 74.0497 14.2075L66.3668 36.0577C66.3308 36.3214 66.4147 36.4292 66.6305 36.4292H70.3581C70.5858 36.4292 70.6937 36.3573 70.7776 36.1296L72.8271 29.9808H81.7326ZM74.0137 25.9176C75.1404 22.5137 76.6266 18.1508 77.2259 15.6578H77.2619C78.005 18.2707 79.755 23.4486 80.546 25.9176H74.0137Z" fill="#FA0C00"/>
<path d="M99.7512 36.8008C101.993 36.8008 104.378 36.3933 106.799 35.3505C106.991 35.2786 107.027 35.1947 107.027 35.0149C106.955 34.3437 106.871 33.3729 106.871 32.6297V10.0964C106.871 9.95253 106.871 9.88062 106.691 9.88062H102.628C102.472 9.88062 102.4 9.95253 102.4 10.1443V17.7793C101.765 17.7074 101.321 17.6714 100.794 17.6714C94.2377 17.6714 90.2105 21.9983 90.2105 27.4039C90.2105 33.6725 94.3456 36.8008 99.7512 36.8008ZM102.4 32.6297C101.729 32.8455 100.986 32.9294 100.231 32.9294C97.2582 32.9294 94.825 31.2514 94.825 27.1762C94.825 23.5684 97.3301 21.435 100.65 21.435C101.321 21.435 101.909 21.5069 102.4 21.6986V32.6297Z" fill="#FA0C00"/>
<path d="M119.989 17.6714C114.392 17.6714 110.928 21.9623 110.928 27.2601C110.928 31.9945 113.685 36.8008 119.905 36.8008C125.167 36.8008 128.859 32.9294 128.859 27.1402C128.859 22.0342 125.73 17.6714 119.989 17.6714ZM119.761 21.4349C122.926 21.4349 124.268 24.1557 124.268 27.2601C124.268 31.0955 122.29 33.0013 119.989 33.0013C117.148 33.0013 115.47 30.6161 115.47 27.1762C115.47 23.6403 117.256 21.4349 119.761 21.4349Z" fill="#FA0C00"/>
<path d="M133.059 9.88062C132.904 9.88062 132.796 9.95253 132.796 10.1443V35.6502C132.796 35.758 132.904 35.9498 133.059 35.9858C134.845 36.5371 136.715 36.8008 138.645 36.8008C144.17 36.8008 149.54 33.3729 149.54 26.469C149.54 21.4709 146.112 17.6714 140.742 17.6714C139.508 17.6714 138.357 17.8632 137.35 18.1988L137.302 10.1803C137.302 9.91657 137.23 9.88062 136.967 9.88062H133.059ZM144.949 26.9245C144.949 31.0596 142.121 33.0013 139.064 33.0013C138.429 33.0013 137.866 32.9653 137.35 32.8095V21.9264C137.938 21.6986 138.645 21.5069 139.951 21.5069C142.9 21.5069 144.949 23.3767 144.949 26.9245Z" fill="#FA0C00"/>
<path d="M164.704 28.2669C166.525 28.2669 168.024 28.2309 168.539 28.111C168.731 28.0751 168.803 28.0032 168.839 27.8474C168.947 27.4398 168.995 26.5888 168.995 25.5461C168.995 21.9983 166.861 17.6714 161.348 17.6714C155.714 17.6714 152.586 22.262 152.586 27.4398C152.586 32.0304 155.007 36.8008 161.791 36.8008C164.332 36.8008 165.974 36.3933 167.388 35.7221C167.532 35.6501 167.604 35.5303 167.604 35.3145V32.2102C167.604 32.0304 167.496 31.9945 167.388 32.0664C165.974 32.6657 164.44 32.9653 162.762 32.9653C158.962 32.9653 157.236 30.8678 157.129 28.2669H164.704ZM157.129 25.0547C157.428 23.2328 158.579 21.2551 161.156 21.2551C163.996 21.2551 164.74 23.6403 164.74 24.7191C164.74 24.755 164.74 24.9108 164.74 25.0187C164.584 25.0547 164.104 25.0547 162.69 25.0547H157.129Z" fill="#FA0C00"/>
</svg>
