<svg width="150" height="48" viewBox="0 0 150 48" fill="none" xmlns="http://www.w3.org/2000/svg">
<path fill-rule="evenodd" clip-rule="evenodd" d="M92.5807 35.4091C84.096 41.663 71.7977 44.9997 61.2091 44.9997C46.3623 44.9997 32.9963 39.5084 22.8843 30.3753C22.0899 29.6572 22.8017 28.6783 23.755 29.2377C34.6678 35.5869 48.1608 39.4067 62.099 39.4067C71.4989 39.4067 81.8397 37.4619 91.3478 33.426C92.7842 32.8158 93.9854 34.3667 92.5807 35.4091Z" fill="#FF9900"/>
<path fill-rule="evenodd" clip-rule="evenodd" d="M96.1082 31.3733C95.0278 29.9878 88.9391 30.7187 86.2062 31.0429C85.3736 31.1445 85.2464 30.4199 85.9964 29.8987C90.8458 26.4858 98.8031 27.471 99.731 28.615C100.659 29.7653 99.4895 37.7417 94.9325 41.5487C94.2333 42.1335 93.566 41.8221 93.8774 41.0467C94.9008 38.4916 97.1951 32.7652 96.1082 31.3733Z" fill="#FF9900"/>
<path fill-rule="evenodd" clip-rule="evenodd" d="M86.3972 5.80446V2.48683C86.3972 1.98469 86.7786 1.64789 87.2362 1.64789H102.089C102.566 1.64789 102.947 1.99109 102.947 2.48683V5.32779C102.941 5.80446 102.541 6.4274 101.829 7.41248L94.1321 18.4015C96.9921 18.3315 100.011 18.7574 102.604 20.2191C103.189 20.5497 103.348 21.0327 103.392 21.5094V25.0496C103.392 25.5325 102.858 26.0983 102.299 25.8059C97.7295 23.4097 91.6597 23.1492 86.607 25.8313C86.0922 26.1109 85.5519 25.5516 85.5519 25.0686V21.7065C85.5519 21.1662 85.5583 20.2446 86.0986 19.4247L95.0156 6.63713H87.2552C86.7786 6.63713 86.3972 6.3002 86.3972 5.80446Z" fill="black"/>
<path fill-rule="evenodd" clip-rule="evenodd" d="M32.215 26.5052H27.6961C27.2639 26.4733 26.9206 26.1492 26.8889 25.7361V2.54414C26.8889 2.08027 27.2767 1.7116 27.7596 1.7116H31.9735C32.412 1.73066 32.7615 2.06747 32.7934 2.48694V5.5187H32.876C33.9755 2.58867 36.0411 1.22226 38.8249 1.22226C41.6532 1.22226 43.42 2.58867 44.6912 5.5187C45.7843 2.58867 48.2694 1.22226 50.9325 1.22226C52.8265 1.22226 54.8984 2.004 56.1632 3.75815C57.5932 5.70937 57.3008 8.54393 57.3008 11.029L57.2945 25.6662C57.2945 26.1301 56.9068 26.5052 56.4237 26.5052H51.9113C51.46 26.4733 51.0977 26.111 51.0977 25.6662V13.3742C51.0977 12.3956 51.1868 9.95488 50.9706 9.027C50.6338 7.46992 49.6233 7.03125 48.3139 7.03125C47.2207 7.03125 46.0767 7.76219 45.6128 8.93167C45.1488 10.1011 45.1932 12.0586 45.1932 13.3742V25.6662C45.1932 26.1301 44.8056 26.5052 44.3226 26.5052H39.81C39.3524 26.4733 38.9965 26.111 38.9965 25.6662L38.9901 13.3742C38.9901 10.7876 39.416 6.98045 36.2063 6.98045C32.9586 6.98045 33.0858 10.6922 33.0858 13.3742V25.6662C33.0858 26.1301 32.698 26.5052 32.215 26.5052Z" fill="black"/>
<path fill-rule="evenodd" clip-rule="evenodd" d="M115.735 1.22226C122.44 1.22226 126.069 6.98045 126.069 14.3023C126.069 21.3761 122.059 26.9881 115.735 26.9881C109.15 26.9881 105.566 21.2299 105.566 14.0544C105.566 6.83431 109.195 1.22226 115.735 1.22226ZM115.773 5.95724C112.443 5.95724 112.233 10.4951 112.233 13.3234C112.233 16.158 112.188 22.2087 115.735 22.2087C119.237 22.2087 119.402 17.3275 119.402 14.3531C119.402 12.3956 119.32 10.0566 118.728 8.20073C118.22 6.58644 117.209 5.95724 115.773 5.95724Z" fill="black"/>
<path fill-rule="evenodd" clip-rule="evenodd" d="M134.764 26.5052H130.264C129.813 26.4733 129.451 26.111 129.451 25.6662L129.444 2.46787C129.482 2.04213 129.857 1.7116 130.315 1.7116H134.503C134.897 1.73066 135.222 1.9976 135.311 2.35987V5.9063H135.393C136.657 2.73481 138.431 1.22226 141.552 1.22226C143.579 1.22226 145.556 1.95307 146.827 3.95522C148.009 5.81097 148.009 8.93167 148.009 11.1752V25.7742C147.959 26.181 147.583 26.5052 147.139 26.5052H142.607C142.193 26.4733 141.851 26.1682 141.807 25.7742V13.1773C141.807 10.6413 142.099 6.92965 138.977 6.92965C137.879 6.92965 136.868 7.66685 136.365 8.78553C135.731 10.2027 135.648 11.6138 135.648 13.1773V25.6662C135.641 26.1301 135.247 26.5052 134.764 26.5052Z" fill="black"/>
<path fill-rule="evenodd" clip-rule="evenodd" d="M74.5566 15.4271C74.5566 17.1876 74.6011 18.6558 73.7114 20.2194C72.9931 21.4905 71.8491 22.2722 70.5843 22.2722C68.8492 22.2722 67.8322 20.9502 67.8322 18.999C67.8322 15.1475 71.2835 14.4484 74.5566 14.4484V15.4271ZM79.1137 26.4416C78.8149 26.7085 78.3828 26.7276 78.046 26.5496C76.5459 25.3039 76.2726 24.7256 75.4527 23.537C72.974 26.0665 71.2135 26.8229 68.0038 26.8229C64.1969 26.8229 61.2415 24.4777 61.2415 19.7809C61.2415 16.1136 63.2245 13.6157 66.059 12.3955C68.5124 11.3151 71.938 11.1244 74.5566 10.8256V10.2409C74.5566 9.16677 74.6392 7.89569 74.0036 6.96781C73.4571 6.13514 72.402 5.79194 71.4678 5.79194C69.7453 5.79194 68.2137 6.67541 67.8387 8.50583C67.7624 8.91263 67.4637 9.31304 67.0505 9.3321L62.6715 8.8617C62.3029 8.77917 61.8898 8.48036 61.9978 7.91476C63.0019 2.60137 67.8069 0.999756 72.1034 0.999756C74.3024 0.999756 77.1751 1.58443 78.9102 3.24964C81.1093 5.3026 80.8996 8.04182 80.8996 11.0227V18.0647C80.8996 20.1813 81.7767 21.1091 82.6029 22.2532C82.8889 22.66 82.9525 23.1493 82.5839 23.4544C81.6623 24.2234 80.0225 25.6535 79.12 26.4543L79.1137 26.4416Z" fill="black"/>
<path fill-rule="evenodd" clip-rule="evenodd" d="M15.3152 15.4271C15.3152 17.1876 15.3596 18.6558 14.4698 20.2193C13.7516 21.4905 12.614 22.2722 11.3429 22.2722C9.60774 22.2722 8.5972 20.9502 8.5972 18.999C8.5972 15.1475 12.0483 14.4484 15.3152 14.4484V15.4271ZM19.8722 26.4416C19.5735 26.7085 19.1412 26.7276 18.8044 26.5496C17.3044 25.3039 17.0375 24.7255 16.2113 23.537C13.7326 26.0665 11.9784 26.8229 8.76244 26.8229C4.96175 26.8229 2 24.4776 2 19.7807C2 16.1135 3.98933 13.6157 6.81761 12.3955C9.2709 11.3151 12.6966 11.1244 15.3152 10.8256V10.2409C15.3152 9.16677 15.3977 7.89569 14.7686 6.96768C14.2156 6.13514 13.1606 5.79194 12.2326 5.79194C10.5103 5.79194 8.97218 6.67541 8.5972 8.50583C8.52093 8.91263 8.22221 9.31304 7.81544 9.3321L3.43003 8.8617C3.0614 8.77917 2.65463 8.48036 2.75632 7.91476C3.76688 2.60137 8.56541 0.999756 12.8619 0.999756C15.0609 0.999756 17.9336 1.58443 19.6688 3.24964C21.8678 5.3026 21.6581 8.04182 21.6581 11.0227V18.0647C21.6581 20.1811 22.5353 21.1091 23.3614 22.2532C23.6538 22.66 23.7174 23.1493 23.3487 23.4544C22.4271 24.2234 20.7874 25.6535 19.8848 26.4543L19.8722 26.4416Z" fill="black"/>
</svg>
