<svg width="182" height="48" viewBox="0 0 182 48" fill="none" xmlns="http://www.w3.org/2000/svg">
<path d="M59.9172 36.1734C51.9137 34.5762 52.2973 21.2135 60.4324 20.4209C62.521 20.2175 64.3125 20.8768 65.807 22.3989C65.8178 22.4101 65.8318 22.4178 65.847 22.421C65.8623 22.4243 65.8782 22.4229 65.8927 22.417C65.9071 22.4112 65.9195 22.4012 65.9281 22.3883C65.9368 22.3754 65.9414 22.3602 65.9412 22.3447V14.0125C65.9412 13.9897 65.9504 13.9678 65.9666 13.9517C65.9828 13.9356 66.0049 13.9265 66.0278 13.9265H69.8178C69.8404 13.9265 69.8619 13.9354 69.8778 13.9512C69.8938 13.967 69.9027 13.9884 69.9027 14.0108C69.9027 19.8389 69.903 25.6777 69.9036 31.5271C69.9036 32.9257 70.2266 34.3544 70.5478 35.7307C70.5894 35.9083 70.5184 35.9971 70.3348 35.9971H66.6236C66.5754 35.9971 66.5286 35.9806 66.4912 35.9504C66.4538 35.9202 66.4281 35.8781 66.4183 35.8312L66.0832 34.2066C66.0798 34.1905 66.0722 34.1756 66.061 34.1635C66.0498 34.1513 66.0356 34.1424 66.0198 34.1376C66.004 34.1327 65.9871 34.1322 65.971 34.136C65.9549 34.1398 65.9402 34.1479 65.9282 34.1593C64.3168 35.7272 62.2283 36.635 59.9172 36.1734ZM65.9974 28.3873C66.0047 27.3571 65.5878 26.3661 64.8385 25.6324C64.0892 24.8987 63.0688 24.4823 62.0019 24.4749C61.4736 24.4713 60.9498 24.5681 60.4603 24.76C59.9709 24.9518 59.5254 25.2349 59.1493 25.593C58.7732 25.9511 58.4739 26.3773 58.2684 26.8472C58.0629 27.3171 57.9553 27.8215 57.9517 28.3316C57.9445 29.3618 58.3614 30.3528 59.1107 31.0865C59.86 31.8202 60.8803 32.2366 61.9473 32.244C62.4755 32.2476 62.9994 32.1508 63.4888 31.9589C63.9783 31.7671 64.4238 31.4841 64.7998 31.1259C65.1759 30.7678 65.4753 30.3416 65.6807 29.8718C65.8862 29.4019 65.9938 28.8975 65.9974 28.3873Z" fill="#00CCBC"/>
<path d="M94.4578 13.9255H90.7431C90.6752 13.9255 90.6201 13.9802 90.6201 14.0476V35.8732C90.6201 35.9407 90.6752 35.9953 90.7431 35.9953H94.4578C94.5257 35.9953 94.5807 35.9407 94.5807 35.8732V14.0476C94.5807 13.9802 94.5257 13.9255 94.4578 13.9255Z" fill="#00CCBC"/>
<path d="M86.9253 34.57C81.1316 37.8563 72.8597 36.4766 72.5627 28.4925C72.3973 24.0449 75.6141 20.2566 80.2268 20.3339C85.6473 20.425 88.8935 24.7953 87.8813 29.9814C87.8768 30.0046 87.8644 30.0256 87.846 30.0406C87.8277 30.0557 87.8046 30.0639 87.7808 30.0639L76.9814 30.0665C76.9511 30.0666 76.9214 30.0749 76.8956 30.0905C76.8697 30.1062 76.8487 30.1285 76.8347 30.1551C76.8208 30.1817 76.8145 30.2116 76.8166 30.2414C76.8186 30.2713 76.8289 30.3 76.8463 30.3244C78.8405 33.1345 82.7387 32.5319 85.3788 31.1935C85.3997 31.1829 85.4224 31.1767 85.4457 31.1752C85.469 31.1736 85.4924 31.1768 85.5144 31.1845C85.5365 31.1923 85.5567 31.2044 85.5739 31.2201C85.591 31.2358 85.6048 31.2548 85.6144 31.276L86.9981 34.35C87.0155 34.3891 87.0178 34.4332 87.0043 34.4739C86.9909 34.5145 86.9628 34.5488 86.9253 34.57ZM76.571 26.9358C76.6376 26.9401 76.7415 26.9788 76.803 26.9779C78.6324 26.9596 80.4617 26.9504 82.2911 26.9504C82.6833 26.9495 83.3596 26.9959 83.8912 26.9573C83.9132 26.9556 83.9344 26.949 83.9533 26.9379C83.9722 26.9267 83.9883 26.9114 84.0003 26.8931C84.0123 26.8748 84.0198 26.854 84.0224 26.8324C84.025 26.8107 84.0225 26.7887 84.0151 26.7682C83.6433 25.732 82.9572 25.0151 81.9568 24.6174C79.8865 23.7939 77.0723 24.3664 76.4809 26.8129C76.4624 26.8885 76.4925 26.9295 76.571 26.9358Z" fill="#00CCBC"/>
<path d="M134.346 34.6217C130.055 37.094 122.868 37.2547 120.667 31.724C118.264 25.686 122.503 19.2501 129.344 20.5421C133.918 21.406 136.064 25.6766 135.337 29.9807C135.322 30.0655 135.272 30.1079 135.185 30.1079L124.354 30.1285C124.332 30.1286 124.31 30.1339 124.291 30.144C124.271 30.1541 124.255 30.1687 124.242 30.1866C124.229 30.2045 124.221 30.2251 124.218 30.2467C124.216 30.2683 124.218 30.2903 124.226 30.3108C124.242 30.356 124.272 30.407 124.316 30.4638C126.418 33.1948 130.144 32.5698 132.835 31.2813C132.853 31.2725 132.873 31.2675 132.893 31.2664C132.913 31.2654 132.933 31.2684 132.952 31.2752C132.971 31.282 132.988 31.2925 133.003 31.3061C133.018 31.3197 133.029 31.3361 133.038 31.3543L134.417 34.4025C134.46 34.4971 134.436 34.5702 134.346 34.6217ZM131.476 26.8912C131.186 23.3737 124.109 23.5559 124.013 26.8946C124.012 26.904 124.014 26.9133 124.017 26.922C124.02 26.9307 124.025 26.9386 124.032 26.9453C124.038 26.952 124.046 26.9572 124.055 26.9608C124.063 26.9644 124.073 26.9661 124.082 26.966L131.427 26.9428C131.434 26.9428 131.441 26.9414 131.447 26.9388C131.453 26.9362 131.459 26.9323 131.463 26.9274C131.468 26.9226 131.471 26.9168 131.473 26.9106C131.475 26.9044 131.476 26.8978 131.476 26.8912Z" fill="#00CCBC"/>
<path d="M138.208 35.9961C138.177 35.9961 138.148 35.9839 138.126 35.9623C138.104 35.9407 138.092 35.9114 138.092 35.8809C138.092 32.2161 138.09 28.5369 138.086 24.8434C138.084 23.4956 137.771 22.1735 137.485 20.8299C137.481 20.8137 137.482 20.797 137.486 20.781C137.489 20.7649 137.497 20.7499 137.507 20.7371C137.518 20.7242 137.531 20.7138 137.546 20.7067C137.562 20.6996 137.578 20.6958 137.595 20.6958H141.402C141.489 20.6958 141.542 20.7379 141.56 20.8222L141.908 22.452C141.91 22.4613 141.915 22.4698 141.921 22.4765C141.928 22.4833 141.936 22.4881 141.946 22.4904C141.955 22.4926 141.965 22.4922 141.974 22.4892C141.983 22.4862 141.991 22.4808 141.997 22.4735C143.874 20.2342 146.395 19.8628 148.977 21.0998C148.994 21.1078 149.008 21.1222 149.014 21.1399C149.021 21.1576 149.02 21.1771 149.013 21.1944L147.25 25.1254C147.241 25.1466 147.227 25.1658 147.21 25.1817C147.193 25.1976 147.173 25.2099 147.151 25.218C147.129 25.2261 147.105 25.2298 147.082 25.2288C147.058 25.2278 147.035 25.2221 147.014 25.2122C145.675 24.5898 142.869 24.295 142.185 26.1174C142.1 26.346 142.057 26.7661 142.056 27.3776C142.052 30.2195 142.052 33.0479 142.054 35.8628C142.054 35.8982 142.04 35.9321 142.015 35.9571C141.99 35.982 141.956 35.9961 141.92 35.9961H138.208Z" fill="#00CCBC"/>
<path d="M159.718 35.6394C155.923 37.2168 151.374 35.9033 149.558 32.0488C146.957 26.5275 150.527 20.1105 156.947 20.3993C161.733 20.6142 164.626 24.4412 164.389 28.9748C164.232 32.0007 162.536 34.4678 159.718 35.6394ZM160.591 28.2846C160.573 27.2552 160.132 26.2753 159.367 25.5604C158.601 24.8455 157.573 24.4543 156.508 24.4728C155.443 24.4912 154.429 24.9178 153.689 25.6588C152.949 26.3997 152.544 27.3943 152.562 28.4237C152.58 29.4532 153.02 30.4331 153.786 31.148C154.551 31.8628 155.58 32.2541 156.644 32.2356C157.709 32.2172 158.723 31.7905 159.463 31.0496C160.203 30.3086 160.609 29.314 160.591 28.2846Z" fill="#00CCBC"/>
<path d="M171.154 35.7339C166.125 33.9107 164.785 26.9014 168.157 23.0537C171.139 19.6522 176.945 19.4141 179.985 22.8809C183.215 26.5644 182.57 32.9513 177.989 35.3522C175.889 36.4534 173.382 36.5411 171.154 35.7339ZM178.18 28.3915C178.189 27.3613 177.775 26.3696 177.027 25.6346C176.28 24.8996 175.262 24.4815 174.197 24.4722C173.669 24.4677 173.146 24.5636 172.657 24.7546C172.167 24.9456 171.722 25.2279 171.346 25.5854C170.97 25.9428 170.67 26.3685 170.464 26.838C170.258 27.3075 170.149 27.8118 170.145 28.3219C170.136 29.3521 170.55 30.3438 171.297 31.0788C172.044 31.8138 173.063 32.2319 174.128 32.2411C174.656 32.2457 175.179 32.1498 175.668 31.9588C176.158 31.7678 176.603 31.4855 176.979 31.128C177.355 30.7706 177.655 30.3449 177.861 29.8754C178.067 29.4058 178.176 28.9016 178.18 28.3915Z" fill="#00CCBC"/>
<path d="M101.964 20.6951H98.3033C98.22 20.6951 98.1526 20.762 98.1526 20.8446V35.8466C98.1526 35.9293 98.22 35.9962 98.3033 35.9962H101.964C102.047 35.9962 102.115 35.9293 102.115 35.8466V20.8446C102.115 20.762 102.047 20.6951 101.964 20.6951Z" fill="#00CCBC"/>
<path d="M108.364 35.9419L104.242 20.7904C104.239 20.7793 104.238 20.7676 104.24 20.7563C104.242 20.745 104.247 20.7343 104.254 20.7252C104.261 20.716 104.27 20.7086 104.281 20.7035C104.291 20.6984 104.303 20.6958 104.314 20.6958H108.439C108.455 20.6959 108.472 20.7015 108.485 20.7118C108.498 20.7221 108.507 20.7364 108.511 20.7525L111.464 32.7863C111.468 32.8025 111.477 32.817 111.491 32.8273C111.504 32.8377 111.52 32.8433 111.537 32.8433C111.554 32.8433 111.57 32.8377 111.584 32.8273C111.597 32.817 111.606 32.8025 111.61 32.7863L114.567 20.7525C114.571 20.7364 114.58 20.7221 114.593 20.7118C114.606 20.7015 114.622 20.6959 114.639 20.6958H118.803C118.815 20.6958 118.826 20.6984 118.837 20.7035C118.847 20.7086 118.856 20.716 118.863 20.7252C118.87 20.7343 118.875 20.745 118.877 20.7563C118.88 20.7676 118.879 20.7793 118.876 20.7904L114.766 35.9419C114.761 35.9578 114.752 35.9717 114.739 35.9817C114.726 35.9916 114.709 35.997 114.693 35.997H108.437C108.42 35.997 108.404 35.9916 108.391 35.9817C108.378 35.9717 108.368 35.9578 108.364 35.9419Z" fill="#00CCBC"/>
<path d="M100.082 18.6243C101.461 18.6243 102.579 17.5147 102.579 16.146C102.579 14.7773 101.461 13.6677 100.082 13.6677C98.7037 13.6677 97.5861 14.7773 97.5861 16.146C97.5861 17.5147 98.7037 18.6243 100.082 18.6243Z" fill="#00CCBC"/>
<path d="M44.1383 1.25159C44.16 1.25384 44.1816 1.26078 44.2008 1.27112C44.2199 1.28144 44.2369 1.29536 44.2506 1.31213C44.2643 1.32892 44.2747 1.34808 44.2809 1.36877C44.2871 1.38956 44.289 1.41166 44.2867 1.43323C43.2147 11.4568 42.1429 21.4914 41.0709 31.5367C41.001 32.1946 40.8293 32.8255 40.5562 33.4283C38.3691 38.262 36.1659 43.0814 33.9459 47.8864C33.9274 47.9262 33.8954 47.9593 33.8561 47.9791C33.8168 47.9988 33.7721 48.0045 33.7291 47.9957L3.14511 41.6559C3.12142 41.651 3.09886 41.6398 3.08164 41.6227C3.06452 41.6057 3.05263 41.5838 3.04746 41.5602L0.00351205 27.4752C-0.000796679 27.4553 -0.0011629 27.4347 0.00253549 27.4147C0.00625426 27.3946 0.0138123 27.3751 0.0249964 27.358C0.0360734 27.3412 0.0502944 27.3265 0.0669886 27.3151C0.0839249 27.3035 0.103535 27.2948 0.123629 27.2906L17.4254 23.7164C17.443 23.7127 17.4594 23.7021 17.4693 23.6871C17.4792 23.6723 17.4826 23.6538 17.4791 23.6364L13.6539 6.00549C13.6495 5.9853 13.6493 5.96429 13.6529 5.94397C13.6566 5.92365 13.6642 5.90369 13.6754 5.88635C13.6867 5.86894 13.7021 5.8541 13.7193 5.84241C13.7365 5.83073 13.7556 5.82217 13.776 5.81799L25.4791 3.39807C25.6857 3.35511 25.8115 3.43587 25.8561 3.64026L29.6236 20.9371C29.6247 20.9421 29.6276 20.9466 29.6314 20.9498C29.6353 20.953 29.6401 20.9545 29.6451 20.9547C29.6502 20.9549 29.6554 20.9537 29.6598 20.9508C29.6641 20.9478 29.6678 20.943 29.6695 20.9381C29.6798 20.9067 29.6874 20.87 29.692 20.8278C30.4303 13.9801 31.1637 7.13128 31.8922 0.281859C31.9037 0.175951 31.9235 0.10612 31.9518 0.072875C31.9984 0.0179894 32.0569 -0.00610559 32.1266 0.000609379L44.1383 1.25159ZM29.5074 28.3805C29.3448 28.3714 29.1836 28.3853 29.0279 28.4196C29.0166 28.422 29.005 28.4237 28.9937 28.4264C28.8817 28.4534 28.7729 28.4918 28.6686 28.5397L28.5143 28.6198C28.5082 28.6233 28.5027 28.6279 28.4967 28.6315C28.2594 28.7736 28.0539 28.9707 27.9039 29.2145C27.8438 29.3119 27.7929 29.4162 27.7525 29.525L27.6139 29.899C27.5186 30.1561 27.4905 30.421 27.5162 30.6764C27.5233 30.7478 27.5334 30.819 27.5494 30.8893C27.5588 30.9306 27.5712 30.971 27.5836 31.0114C27.5887 31.0282 27.5926 31.0454 27.5982 31.0621C27.6372 31.1767 27.6879 31.287 27.7496 31.3912C27.7922 31.4632 27.8411 31.5306 27.8932 31.5953C28.0531 31.7945 28.2569 31.9622 28.4996 32.0787C28.5519 32.1039 28.6057 32.127 28.6607 32.1471L29.0582 32.2926C29.2236 32.353 29.3961 32.3875 29.5689 32.3971C29.6216 32.4 29.674 32.3998 29.7262 32.3981C29.7304 32.3979 29.7346 32.3982 29.7389 32.3981C29.8447 32.3938 29.9491 32.3798 30.0514 32.3571C30.0614 32.3548 30.0716 32.3536 30.0816 32.3512C30.114 32.3434 30.1455 32.3325 30.1773 32.3229C30.2 32.3161 30.2233 32.3111 30.2457 32.3033L30.4078 32.2389C30.5115 32.1913 30.6099 32.1328 30.7027 32.066C30.7354 32.0425 30.7666 32.0174 30.7975 31.9918C30.8105 31.9811 30.8238 31.9707 30.8365 31.9596C30.8993 31.9044 30.9571 31.8443 31.0113 31.7809C31.1417 31.6284 31.2492 31.4522 31.3228 31.2535L31.4615 30.8795C31.502 30.7702 31.5316 30.6579 31.5494 30.5446C31.6229 30.08 31.5022 29.6145 31.234 29.2467C31.2108 29.215 31.1859 29.1849 31.1607 29.1549C31.0047 28.9686 30.8091 28.8119 30.5787 28.7008C30.5257 28.6752 30.4714 28.6519 30.4156 28.6315L30.0172 28.486C29.9628 28.4661 29.9078 28.4486 29.8521 28.4342C29.7451 28.4064 29.6372 28.3908 29.5299 28.3834C29.5224 28.3829 29.5149 28.3809 29.5074 28.3805ZM22.8502 29.4811C23.2298 27.298 19.4483 26.3381 18.9078 28.5494C18.4887 30.2652 19.4135 31.1734 21.1314 31.108C22.0577 31.0717 22.7021 30.3294 22.8502 29.4811Z" fill="#00CCBC"/>
</svg>
