<svg width="177" height="48" viewBox="0 0 177 48" fill="none" xmlns="http://www.w3.org/2000/svg">
<path d="M48.9998 31.2974C48.9998 30.9224 48.7498 30.6724 48.2498 30.5474V30.2974C48.4998 30.2974 49.4374 30.3599 49.6874 30.3599C49.8749 30.3599 50.8123 30.2974 51.0623 30.2974V30.5474C50.6248 30.6724 50.3748 30.9224 50.3748 31.2974V35.9849C50.3748 37.4849 51.1873 38.2974 52.8748 38.2974C54.3748 38.2974 55.4998 37.6099 55.4998 36.0474V31.2349C55.4998 30.8599 55.2498 30.6099 54.7498 30.4849V30.2974C54.9373 30.2974 55.6873 30.3599 55.9373 30.3599C56.1873 30.3599 56.9373 30.2974 57.1248 30.2974V30.5474C56.5623 30.6724 56.3748 30.9224 56.3748 31.2974V35.8599C56.3748 37.9224 55.1873 39.1099 52.6248 39.1099C50.2498 39.1099 48.9998 38.0474 48.9998 36.1099C48.9998 36.1099 48.9998 31.2974 48.9998 31.2974ZM59.2498 38.7349C59.8123 38.6099 59.9998 38.3599 59.9998 37.9849V31.4849C59.9998 30.9224 59.6873 30.6724 59.1873 30.5474V30.2974H60.9998L66.6248 36.9224V31.2974C66.6248 30.9224 66.3748 30.6724 65.8748 30.5474V30.2974C66.0623 30.2974 66.8123 30.3599 67.0623 30.3599C67.3123 30.3599 68.0623 30.2974 68.2498 30.2974V30.5474C67.6873 30.6724 67.4373 30.9224 67.4373 31.2974V39.1099H67.1248C66.9373 39.0474 66.4998 38.8599 65.8748 38.1724L60.8123 32.2974V38.0474C60.8123 38.4224 60.9998 38.6724 61.5623 38.7974V39.0474C61.3748 39.0474 60.6248 38.9849 60.3748 38.9849C60.1248 38.9849 59.3748 39.0474 59.1873 39.0474L59.2498 38.7349ZM103.75 36.9849H104C104.125 37.4849 104.375 37.9224 104.812 38.1724C105.187 38.4849 105.875 38.6099 106.375 38.6099C107.5 38.6099 108.25 38.0474 108.25 37.1724C108.25 36.2349 107.312 35.7974 106.25 35.2349C105.437 34.7974 103.812 34.1724 103.812 32.6099C103.812 31.1724 104.937 30.2349 106.687 30.2349C107.875 30.2349 108.375 30.5474 109.187 30.4849V32.2349H108.937C108.625 31.1724 107.687 30.8599 106.625 30.8599C105.437 30.8599 105.062 31.5474 105.062 32.1724C105.062 33.1099 106 33.6099 107.062 34.1099C108.25 34.6099 109.562 35.2974 109.562 36.7974C109.562 38.2349 108.437 39.2349 106.437 39.2349C105.25 39.2349 104.5 38.8599 103.875 38.7974L103.75 36.9849ZM127.937 35.3599L125.625 31.6724C125.25 31.0474 124.937 30.6724 124.5 30.5474V30.2974C124.812 30.2974 125.687 30.3599 125.875 30.3599C126.125 30.3599 127 30.2974 127.375 30.2974V30.5474C127.062 30.6099 126.937 30.7349 126.937 30.9849C126.937 31.1724 127.062 31.4224 127.187 31.6724C127.312 31.8599 128.875 34.4849 128.875 34.4849L130.5 31.6724C130.687 31.3599 130.75 31.1099 130.75 30.9224C130.75 30.7349 130.625 30.6099 130.375 30.6099V30.2974C130.625 30.2974 131.25 30.3599 131.437 30.3599C131.625 30.3599 132.312 30.2974 132.562 30.2974V30.5474C131.937 30.7974 131.562 31.3599 131.187 31.9849L129.125 35.4849M129.25 35.0474V37.9849C129.25 38.2974 129.5 38.6724 130 38.7349V38.9849C129.75 38.9849 128.812 38.9224 128.562 38.9224C128.312 38.9224 127.437 38.9849 127.125 38.9849V38.7349C127.625 38.6099 127.875 38.2974 127.875 37.9849V35.1724M85.3123 30.2974H90.6873C90.8748 30.2974 91.1248 30.2974 91.3123 30.1724H91.5623L91.4998 31.9224H91.2498C91.0623 31.3599 90.8123 30.9224 89.8123 30.9224H87.4998V34.0474H89.3123C89.5623 34.0474 89.8748 34.0474 89.9998 33.9849C90.3748 33.9224 90.5623 33.6724 90.6873 33.2974H90.9373V35.4849H90.6873C90.5623 35.1099 90.4373 34.8599 89.9998 34.7974C89.8748 34.7349 89.5623 34.7349 89.3123 34.7349H87.4998V38.2974H90.0623C91.1873 38.2974 91.4998 37.8599 91.7498 37.1724H91.9998L91.7498 38.9849C90.9373 38.9224 90.4373 38.9224 89.4998 38.9224H86.8123C86.5623 38.9224 85.6248 38.9849 85.3123 38.9849V38.7349C85.8123 38.6099 86.0623 38.4224 86.0623 37.9224V31.2974C86.0623 30.8599 85.8123 30.6099 85.3123 30.5474V30.2974ZM71.5623 31.3599C71.5623 30.9224 71.3123 30.6724 70.8123 30.5474V30.2974C71.1248 30.2974 71.9998 30.3599 72.3123 30.3599C72.5623 30.3599 73.4998 30.2974 73.8123 30.2974V30.5474C73.3123 30.6724 72.9998 30.8599 72.9998 31.3599V37.9224C72.9998 38.3599 73.2498 38.6099 73.8123 38.7349V38.9849C73.4998 38.9849 72.6248 38.9224 72.3123 38.9224C72.0623 38.9224 71.1248 38.9849 70.8123 38.9849V38.7349C71.3748 38.6099 71.6248 38.4224 71.6248 37.9224L71.5623 31.3599ZM112.375 31.3599C112.375 30.9224 112.125 30.6724 111.625 30.5474V30.2974C111.937 30.2974 112.875 30.3599 113.125 30.3599C113.375 30.3599 114.312 30.2974 114.625 30.2974V30.5474C114.125 30.6724 113.875 30.8599 113.875 31.3599V37.9224C113.875 38.3599 114.125 38.6099 114.625 38.7349V38.9849C114.312 38.9849 113.437 38.9224 113.125 38.9224C112.875 38.9224 111.937 38.9849 111.625 38.9849V38.7349C112.187 38.6099 112.375 38.4224 112.375 37.9224V31.3599ZM119.875 30.3599C116.937 30.3599 116.437 30.2974 115.875 30.2349V31.9849H116.125C116.375 31.1724 116.812 30.9849 117.375 30.9849H119.25V37.8599C119.25 38.2974 119 38.5474 118.437 38.6724V38.9224C118.75 38.9224 119.687 38.8599 119.937 38.8599C120.187 38.8599 121.125 38.9224 121.437 38.9224V38.6724C120.937 38.5474 120.625 38.2974 120.625 37.8599V30.9849H122.437C123 30.9849 123.437 31.1724 123.687 31.9849H123.937V30.2349C123.25 30.2349 122.812 30.3599 119.875 30.3599ZM96.3123 37.9224C96.3123 38.3599 96.5623 38.6099 97.1248 38.7349V38.9849C96.8123 38.9849 95.8748 38.9224 95.6248 38.9224C95.3748 38.9224 94.4998 38.9849 94.1873 38.9849V38.7349C94.6873 38.6099 94.9373 38.4224 94.9373 37.9224V31.2974C94.9373 30.8599 94.6873 30.6099 94.1873 30.5474V30.2974C94.4998 30.2974 95.3748 30.3599 95.6248 30.3599C96.0623 30.3599 97.2498 30.2974 97.7498 30.2974C99.8123 30.2974 100.937 31.1724 100.937 32.6099C100.937 33.7349 100.062 34.5474 98.7498 34.8599C98.7498 34.8599 99.0623 35.0474 99.3748 35.3599C99.7498 35.7974 100.75 37.1724 101.125 37.6724C101.5 38.1724 102.062 38.7349 102.625 38.7349V38.9224C102.375 38.9849 101.937 39.0474 101.625 39.0474C100.937 39.0474 100.375 38.7974 99.8123 38.1724C99.3123 37.6099 98.5623 36.4224 98.0623 35.7974C97.7498 35.4224 97.3748 35.1099 96.7498 34.9849C96.6248 34.9849 96.4998 34.9224 96.3748 34.9224L96.3123 37.9224ZM96.3123 34.4224C96.5623 34.4849 96.9998 34.4849 97.3748 34.4849C98.9998 34.4849 99.4998 33.5474 99.4998 32.7349C99.4998 31.5474 98.7498 30.8599 97.3123 30.8599C96.9998 30.8599 96.6248 30.9224 96.3123 30.9849V34.4224ZM75.8123 31.3599C75.6248 30.9224 75.3123 30.6099 74.8123 30.5474V30.2974C75.1248 30.2974 76.1873 30.3599 76.4373 30.3599C76.6248 30.3599 77.5623 30.2974 77.8748 30.2974V30.5474C77.6248 30.6099 77.2498 30.7349 77.2498 31.0474C77.2498 31.2349 77.3748 31.5474 77.6248 32.0474L79.8748 37.1099L81.9998 32.0474C82.1873 31.6099 82.3123 31.2974 82.3123 31.1099C82.3123 30.8599 82.0623 30.6724 81.6873 30.6099V30.2974C81.9373 30.2974 82.6248 30.3599 82.8748 30.3599C83.0623 30.3599 83.8748 30.2974 84.1873 30.2974V30.5474C83.6873 30.6724 83.3123 30.9849 83.0623 31.6724L79.9373 38.9849H79.2498L75.8123 31.3599ZM104.875 10.5474C104.5 9.73486 103.937 9.17236 103.062 8.98486V8.54736C103.625 8.54736 105.562 8.60986 106 8.60986C106.375 8.60986 108.25 8.54736 108.875 8.54736V8.98486C108.375 9.10986 107.75 9.35986 107.75 9.92236C107.75 10.2974 108 10.8599 108.437 11.7974L112.687 21.4224L116.687 11.7974C117 11.0474 117.25 10.4224 117.25 9.98486C117.25 9.48486 116.75 9.10986 116.125 8.98486V8.54736C116.687 8.54736 117.937 8.60986 118.375 8.60986C118.75 8.60986 120.25 8.54736 120.875 8.54736V8.98486C119.875 9.23486 119.25 9.85986 118.687 11.1099L112.812 24.9849H111.5C111.5 24.9849 104.875 10.5474 104.875 10.5474ZM47.9998 24.4224C48.7498 24.2349 49.3123 23.9224 49.3123 23.0474V10.3599C49.3123 9.54736 48.8123 9.17236 47.9998 8.98486V8.48486C48.3748 8.48486 50.1248 8.54736 50.5623 8.54736C51.0623 8.54736 52.8748 8.48486 53.2498 8.48486V8.92236C52.4998 9.10986 51.9373 9.42236 51.9373 10.2974V15.6724H61.4373V10.3599C61.4373 9.48486 60.9373 9.10986 60.1248 8.98486V8.48486C60.4998 8.48486 62.3123 8.54736 62.8123 8.54736C63.2498 8.54736 64.9998 8.48486 65.4373 8.48486V8.92236C64.6873 9.10986 64.1248 9.42236 64.1248 10.2974V22.9849C64.1248 23.7974 64.6248 24.1724 65.4373 24.3599V24.7974C65.0623 24.7974 63.2498 24.7349 62.8123 24.7349C62.3123 24.7349 60.5623 24.7974 60.1248 24.7974V24.4224C60.8748 24.2349 61.4373 23.9224 61.4373 23.0474V17.0474H51.9373V23.0474C51.9373 23.9224 52.4373 24.2349 53.2498 24.4224V24.8599C52.8748 24.8599 50.9998 24.7974 50.5623 24.7974C50.1248 24.7974 48.4373 24.8599 47.9998 24.8599C47.9998 24.8599 47.9998 24.4224 47.9998 24.4224ZM157.5 24.4224C158.5 24.2349 159 23.8599 159 22.9849V10.3599C159 9.48486 158.437 9.10986 157.5 8.98486V8.48486C158.062 8.48486 159.812 8.54736 160.312 8.54736C161.125 8.54736 163.312 8.35986 165.062 8.35986C170.875 8.35986 174.437 11.6099 174.437 16.5474C174.437 21.3599 170.75 24.9224 164.75 24.9224C163 24.9224 161 24.7974 160.187 24.7974C159.687 24.7974 158.062 24.8599 157.5 24.8599V24.4224ZM161.625 23.6099C162.25 23.7349 163.312 23.7974 164.187 23.7974C169.062 23.7974 171.625 20.8599 171.625 16.7349C171.625 12.4849 168.937 9.48486 164.375 9.48486C163.437 9.48486 162.25 9.54736 161.625 9.67236V23.6099ZM91.5623 22.9224C91.5623 23.7349 92.1248 24.2349 93.0623 24.4224V24.8599C92.4998 24.8599 90.7498 24.7974 90.1873 24.7974C89.7498 24.7974 87.9998 24.8599 87.4373 24.8599V24.4224C88.3748 24.2349 88.8748 23.7974 88.8748 22.9224V10.4224C88.8748 9.67236 88.4373 9.17236 87.4373 8.98486V8.48486C87.9998 8.48486 89.6873 8.54736 90.1873 8.54736C90.9998 8.54736 93.2498 8.42236 94.1873 8.42236C98.1248 8.42236 100.312 10.0474 100.312 12.7974C100.312 14.9849 98.6873 16.4224 96.1873 17.0474C96.1873 17.0474 96.7498 17.3599 97.3123 18.0474C97.9998 18.8599 99.9373 21.6099 100.687 22.5474C101.437 23.4849 102.437 24.5474 103.5 24.5474V24.9224C103 25.0474 102.187 25.1099 101.562 25.1099C100.25 25.1099 99.1873 24.6099 98.1248 23.3599C97.2498 22.2974 95.6873 19.9849 94.8123 18.8599C94.2498 18.1099 93.5623 17.5474 92.3123 17.3599C92.0623 17.2974 91.8123 17.2974 91.5623 17.2349V22.9224ZM91.5623 16.2974C92.0623 16.3599 92.8748 16.4224 93.6248 16.4224C96.6873 16.4224 97.6248 14.6724 97.6248 13.1099C97.6248 10.9224 96.1248 9.54736 93.4998 9.54736C92.9373 9.54736 92.1248 9.60986 91.5623 9.73486V16.2974ZM143.187 22.9224C143.187 23.7349 143.75 24.2349 144.687 24.4224V24.8599C144.125 24.8599 142.375 24.7974 141.875 24.7974C141.437 24.7974 139.687 24.8599 139.125 24.8599V24.4224C140.062 24.2349 140.562 23.7974 140.562 22.9224V10.4224C140.562 9.67236 140.125 9.17236 139.125 8.98486V8.48486C139.687 8.48486 141.375 8.54736 141.875 8.54736C142.687 8.54736 144.937 8.42236 145.812 8.42236C149.75 8.42236 151.937 10.0474 151.937 12.7974C151.937 14.9849 150.312 16.4224 147.812 17.0474C147.812 17.0474 148.375 17.3599 148.937 18.0474C149.625 18.8599 151.562 21.6099 152.312 22.5474C153.062 23.4849 154.062 24.5474 155.125 24.5474V24.9224C154.625 25.0474 153.812 25.1099 153.187 25.1099C151.875 25.1099 150.812 24.6099 149.75 23.3599C148.875 22.2974 147.312 19.9849 146.437 18.8599C145.875 18.1099 145.187 17.5474 143.937 17.3599C143.687 17.2974 143.437 17.2974 143.187 17.2349V22.9224ZM143.187 16.2974C143.687 16.3599 144.5 16.4224 145.25 16.4224C148.312 16.4224 149.25 14.6724 149.25 13.1099C149.25 10.9224 147.75 9.54736 145.125 9.54736C144.562 9.54736 143.75 9.60986 143.187 9.73486V16.2974ZM67.8123 24.4224C68.8748 24.1724 69.4373 23.4849 69.8123 22.6099L75.0623 9.98486C75.3123 9.48486 75.5623 8.42236 75.5623 8.42236H77.0623C77.0623 8.42236 77.3123 9.48486 77.5623 10.0474L83.1248 22.6724C83.4998 23.5474 83.9373 24.1724 85.0623 24.4224V24.8599C84.4373 24.8599 82.6248 24.7974 82.1873 24.7974C81.7498 24.7974 79.9998 24.8599 79.3748 24.8599V24.4224C80.1873 24.2349 80.4373 23.7974 80.4373 23.4224C80.4373 23.1099 80.3123 22.6724 80.1248 22.2974L78.9373 19.6099H72.8123L71.7498 22.3599C71.6248 22.6724 71.4998 23.1099 71.4998 23.4224C71.4998 23.8599 71.7498 24.2349 72.6248 24.4849V24.9224C72.0623 24.9224 70.6248 24.8599 70.3123 24.8599L67.9373 24.9224L67.8123 24.4224ZM78.2498 18.2974L75.6248 12.2349L73.1873 18.2974H78.2498ZM119.812 24.4224C120.875 24.1724 121.437 23.4849 121.812 22.6099L127.062 9.98486C127.312 9.48486 127.562 8.42236 127.562 8.42236H129.062C129.062 8.42236 129.312 9.48486 129.562 10.0474L135.125 22.6724C135.5 23.5474 135.937 24.1724 137.062 24.4224V24.8599C136.437 24.8599 134.625 24.7974 134.187 24.7974C133.75 24.7974 132 24.8599 131.375 24.8599V24.4224C132.187 24.2349 132.437 23.7974 132.437 23.4224C132.437 23.1099 132.312 22.6724 132.125 22.2974L130.937 19.6099H124.812L123.75 22.3599C123.625 22.6724 123.5 23.1099 123.5 23.4224C123.5 23.8599 123.75 24.2349 124.625 24.4849V24.9224C124.062 24.9224 122.625 24.8599 122.312 24.8599L119.937 24.9224V24.4224H119.812ZM130.187 18.2974L127.562 12.2349L125.125 18.2974H130.187Z" fill="black"/>
<path d="M2.24991 2.04712H38.8124V15.8596C38.8124 22.1721 36.4374 35.6096 20.6874 45.6096C20.6874 45.6096 3.56241 38.4846 2.24991 15.8596V2.04712Z" fill="#A51C30"/>
<path d="M20.625 45.7971L20.5 45.7346C20.375 45.6721 3.3125 38.2971 2 15.8596V1.79712H39V15.7971C39 21.2971 37.25 35.2971 20.75 45.6721L20.625 45.7971ZM2.4375 2.23462V15.7971C3.6875 37.0471 19.1875 44.6721 20.625 45.2971C36.8125 34.9846 38.5625 21.2346 38.5625 15.7971V2.23462H2.4375Z" fill="#1E1E1E"/>
<path d="M29.9374 19.7974C29.9374 19.7974 29.6249 20.8599 28.1874 19.7974L23.1874 19.6724C23.1874 19.6724 22.5624 19.8599 22.4374 19.1724C22.4374 19.1724 22.5624 17.7974 22.4999 17.6724C22.4999 17.6724 22.4999 17.2974 21.8749 17.2974C21.8749 17.2974 20.8749 17.4224 20.8124 16.5474C20.8124 16.5474 20.6249 15.6099 21.9999 15.6099C21.9999 15.6099 22.4374 15.7974 22.4999 15.2349C22.4999 15.2349 22.4374 11.3599 22.4999 11.1099C22.4999 11.1099 22.6249 10.7349 21.9374 10.6724C21.9374 10.6724 20.9374 10.8599 20.8124 10.2349C20.8124 10.2349 20.7499 9.23486 21.4374 9.17236C21.4374 9.17236 22.2499 9.23486 22.3749 9.04736C22.3749 9.04736 22.5624 9.17236 22.4999 8.48486V7.23486C22.4999 7.23486 22.5624 6.92236 23.1249 6.92236C23.1249 6.92236 24.0624 6.98486 24.1874 6.92236C24.1874 6.92236 24.3749 6.67236 24.4374 6.54736C24.4374 6.54736 24.9374 6.54736 24.9999 6.60986C24.9999 6.60986 25.6874 7.10986 28.4374 6.92236C28.4374 6.92236 28.8749 6.92236 28.9374 7.04736C28.9374 7.04736 29.4374 7.42236 29.7499 7.04736C29.7499 7.04736 30.1874 6.98486 31.4999 6.98486C31.4999 6.98486 32.9374 7.35986 33.9374 6.54736L34.2499 6.60986C34.2499 6.60986 34.6874 7.29736 34.9374 7.10986C34.9374 7.10986 35.8124 7.04736 35.9999 7.17236C35.9999 7.17236 36.3124 7.60986 36.1249 8.79736C36.1249 8.79736 35.9374 9.29736 36.8124 9.29736C36.8124 9.29736 37.8124 9.10986 37.6874 10.0474C37.6874 10.0474 37.9374 11.1099 36.3124 10.9224C36.3124 10.9224 36.1249 11.2349 36.1249 11.4224C36.1249 11.4224 36.0624 14.7974 36.0624 15.1724C36.0624 15.1724 35.9999 15.6724 36.7499 15.6724C36.7499 15.6724 37.6874 15.6099 37.7499 16.4849C37.7499 16.4849 37.8749 17.6099 36.4999 17.4224C36.4999 17.4224 36.0624 17.4849 35.9999 17.7349L35.9374 19.2349C35.9374 19.2349 35.9999 19.9849 35.1249 19.7974C34.9999 19.7974 30.4999 19.8599 30.1249 19.7974C30.1874 19.6724 29.9999 19.6724 29.9374 19.7974ZM20.3749 24.7349C20.3749 24.7349 20.5624 24.6724 20.6249 24.4849C20.6249 24.4849 21.2499 24.4224 21.3124 24.3599L23.2499 24.4849C23.2499 24.4849 25.1874 24.6099 25.9999 24.0474C25.9999 24.0474 26.3124 24.0474 26.4999 24.1099C26.4999 24.1099 26.9374 24.1724 26.9999 24.3599H28.1249C28.1249 24.3599 28.7499 24.5474 28.7499 24.9849V25.5474C28.7499 25.5474 28.6249 26.6099 28.9374 26.6724H29.8124C29.8124 26.6724 30.4999 26.9849 30.4374 27.4224C30.4374 27.4224 30.4374 28.0474 29.8124 28.1099C29.8124 28.1099 29.1874 28.2974 28.9999 28.2349C28.9999 28.2349 28.8124 28.4849 28.7499 28.8599L28.6874 32.7349C28.6874 32.7349 28.6249 33.1724 29.2499 33.1099C29.2499 33.1099 30.1874 33.0474 30.4374 33.5474C30.4374 33.5474 30.6874 34.4224 30.1874 34.5474L29.8124 34.7349L29.0624 34.8599C29.0624 34.8599 28.7499 34.9224 28.6874 35.4224V36.4849C28.6874 36.4849 28.6874 37.1724 28.1874 37.1724L27.3749 37.2349C27.3749 37.2349 27.1874 37.4224 26.7499 37.2974C26.7499 37.2974 21.6874 37.3599 21.5624 37.3599L20.9374 37.4849C20.9374 37.4849 20.3124 38.0474 19.7499 37.6099L19.3124 37.2974C19.3124 37.2974 18.9999 37.3599 18.8749 37.3599C18.7499 37.2974 13.3124 37.4224 13.3124 37.4224C13.3124 37.4224 12.1249 37.5474 12.0624 37.1724C12.0624 37.1724 11.9374 35.6724 11.9999 35.4849C11.9999 35.4849 11.9999 35.0474 11.7499 34.9849C11.7499 34.9849 10.5624 34.9224 10.5624 34.7974C10.5624 34.7974 9.9374 34.3599 10.1249 33.9224C10.1249 33.9224 10.3124 33.3599 10.9374 33.2974C10.9374 33.2974 11.8749 33.4224 11.8749 33.1724C11.8749 33.1724 11.9374 32.9849 11.9374 32.6724C11.9374 32.6724 11.9999 29.1724 11.9374 28.9224C11.9374 28.9224 11.9999 28.4849 11.6249 28.4849C11.6249 28.4849 11.1874 28.6099 10.9374 28.4224C10.9374 28.4224 10.2499 28.4224 10.0624 27.9224C10.0624 27.9224 9.9374 27.5474 10.1249 27.2974C10.1249 27.2974 10.4374 26.6724 11.3749 26.8599C11.3749 26.8599 11.8749 26.9849 11.9999 26.6099V25.1724C11.9999 25.1724 11.8749 24.7974 12.6249 24.5474C12.6249 24.5474 13.5624 24.7974 13.8749 24.3599C13.8749 24.3599 14.1874 23.7349 14.4999 24.1724C14.4999 24.1724 15.0624 24.7349 16.6249 24.6724C16.6249 24.6724 19.3124 24.4849 19.3749 24.5474C19.3749 24.5474 19.9999 24.6724 20.1874 24.8599L20.3749 24.7349ZM12.3124 19.7974C12.3124 19.7974 11.9999 20.8599 10.5624 19.7974L5.5624 19.6724C5.5624 19.6724 4.9374 19.8599 4.8124 19.1724C4.8124 19.1724 4.9374 17.7974 4.8749 17.6724C4.8749 17.6724 4.9374 17.2974 4.2499 17.2974C4.2499 17.2974 3.24991 17.4224 3.18741 16.5474C3.18741 16.5474 2.99991 15.6099 4.3749 15.6099C4.3749 15.6099 4.8124 15.7974 4.8749 15.2349C4.8749 15.2349 4.8124 11.3599 4.8124 11.1099C4.8124 11.1099 4.9374 10.7349 4.2499 10.6724C4.2499 10.6724 3.24991 10.8599 3.12491 10.2349C3.12491 10.2349 3.06241 9.23486 3.68741 9.17236C3.68741 9.17236 4.4999 9.23486 4.6249 9.04736C4.6249 9.04736 4.81241 9.17236 4.74991 8.42236L4.8124 7.23486C4.8124 7.23486 4.8749 6.92236 5.3749 6.92236C5.3749 6.92236 6.3124 6.98486 6.4374 6.92236C6.4374 6.92236 6.6249 6.67236 6.6874 6.54736C6.6874 6.54736 7.1874 6.54736 7.2499 6.60986C7.2499 6.60986 7.9374 7.10986 10.6874 6.92236C10.6874 6.92236 11.1249 6.92236 11.1874 7.04736C11.1874 7.04736 11.6874 7.42236 11.9999 7.04736C11.9999 7.04736 12.4374 6.98486 13.8124 6.98486C13.8124 6.98486 15.2499 7.35986 16.2499 6.54736L16.5624 6.60986C16.5624 6.60986 16.9999 7.29736 17.2499 7.10986C17.2499 7.10986 18.1249 7.04736 18.3124 7.17236C18.3124 7.17236 18.6249 7.60986 18.4374 8.79736C18.4374 8.79736 18.2499 9.29736 19.1249 9.29736C19.1249 9.29736 20.1249 9.10986 19.9999 10.0474C19.9999 10.0474 20.2499 11.1099 18.6249 10.9224C18.6249 10.9224 18.4374 11.2349 18.4374 11.4224C18.4374 11.4224 18.4374 14.7974 18.3749 15.1724C18.3749 15.1724 18.3749 15.6724 19.0624 15.6724C19.0624 15.6724 19.9999 15.6099 20.0624 16.4849C20.0624 16.4849 20.1874 17.6099 18.8124 17.4224C18.8124 17.4224 18.3749 17.4849 18.3124 17.7349L18.2499 19.2349C18.2499 19.2349 18.2499 19.9849 17.4374 19.7974C17.3124 19.7974 12.8124 19.8599 12.4374 19.7974C12.5624 19.6724 12.3749 19.6724 12.3124 19.7974Z" fill="white"/>
<path d="M29.9374 19.7974C29.9374 19.7974 29.6249 20.8599 28.1874 19.7974L23.1874 19.6724C23.1874 19.6724 22.5624 19.8599 22.4374 19.1724C22.4374 19.1724 22.5624 17.7974 22.4999 17.6724C22.4999 17.6724 22.4999 17.2974 21.8749 17.2974C21.8749 17.2974 20.8749 17.4224 20.8124 16.5474C20.8124 16.5474 20.6249 15.6099 21.9999 15.6099C21.9999 15.6099 22.4374 15.7974 22.4999 15.2349C22.4999 15.2349 22.4374 11.3599 22.4999 11.1099C22.4999 11.1099 22.6249 10.7349 21.9374 10.6724C21.9374 10.6724 20.9374 10.8599 20.8124 10.2349C20.8124 10.2349 20.7499 9.23486 21.4374 9.17236C21.4374 9.17236 22.2499 9.23486 22.3749 9.04736C22.3749 9.04736 22.5624 9.17236 22.4999 8.48486V7.23486C22.4999 7.23486 22.5624 6.92236 23.1249 6.92236C23.1249 6.92236 24.0624 6.98486 24.1874 6.92236C24.1874 6.92236 24.3749 6.67236 24.4374 6.54736C24.4374 6.54736 24.9374 6.54736 24.9999 6.60986C24.9999 6.60986 25.6874 7.10986 28.4374 6.92236C28.4374 6.92236 28.8749 6.92236 28.9374 7.04736C28.9374 7.04736 29.4374 7.42236 29.7499 7.04736C29.7499 7.04736 30.1874 6.98486 31.4999 6.98486C31.4999 6.98486 32.9374 7.35986 33.9374 6.54736L34.2499 6.60986C34.2499 6.60986 34.6874 7.29736 34.9374 7.10986C34.9374 7.10986 35.8124 7.04736 35.9999 7.17236C35.9999 7.17236 36.3124 7.60986 36.1249 8.79736C36.1249 8.79736 35.9374 9.29736 36.8124 9.29736C36.8124 9.29736 37.8124 9.10986 37.6874 10.0474C37.6874 10.0474 37.9374 11.1099 36.3124 10.9224C36.3124 10.9224 36.1249 11.2349 36.1249 11.4224C36.1249 11.4224 36.0624 14.7974 36.0624 15.1724C36.0624 15.1724 35.9999 15.6724 36.7499 15.6724C36.7499 15.6724 37.6874 15.6099 37.7499 16.4849C37.7499 16.4849 37.8749 17.6099 36.4999 17.4224C36.4999 17.4224 36.0624 17.4849 35.9999 17.7349L35.9374 19.2349C35.9374 19.2349 35.9999 19.9849 35.1249 19.7974C34.9999 19.7974 30.4999 19.8599 30.1249 19.7974C30.1874 19.6724 29.9999 19.6724 29.9374 19.7974Z" fill="#1E1E1E"/>
<path d="M29.9374 19.7974C29.9374 19.7974 29.6249 20.8599 28.1874 19.7974L23.1874 19.6724C23.1874 19.6724 22.5624 19.8599 22.4374 19.1724C22.4374 19.1724 22.5624 17.7974 22.4999 17.6724C22.4999 17.6724 22.4999 17.2974 21.8749 17.2974C21.8749 17.2974 20.8749 17.4224 20.8124 16.5474C20.8124 16.5474 20.6249 15.6099 21.9999 15.6099C21.9999 15.6099 22.4374 15.7974 22.4999 15.2349C22.4999 15.2349 22.4374 11.3599 22.4999 11.1099C22.4999 11.1099 22.6249 10.7349 21.9374 10.6724C21.9374 10.6724 20.9374 10.8599 20.8124 10.2349C20.8124 10.2349 20.7499 9.23486 21.4374 9.17236C21.4374 9.17236 22.2499 9.23486 22.3749 9.04736C22.3749 9.04736 22.5624 9.17236 22.4999 8.48486V7.23486C22.4999 7.23486 22.5624 6.92236 23.1249 6.92236C23.1249 6.92236 24.0624 6.98486 24.1874 6.92236C24.1874 6.92236 24.3749 6.67236 24.4374 6.54736C24.4374 6.54736 24.9374 6.54736 24.9999 6.60986C24.9999 6.60986 25.6874 7.10986 28.4374 6.92236C28.4374 6.92236 28.8749 6.92236 28.9374 7.04736C28.9374 7.04736 29.4374 7.42236 29.7499 7.04736C29.7499 7.04736 30.1874 6.98486 31.4999 6.98486C31.4999 6.98486 32.9374 7.35986 33.9374 6.54736L34.2499 6.60986C34.2499 6.60986 34.6874 7.29736 34.9374 7.10986C34.9374 7.10986 35.8124 7.04736 35.9999 7.17236C35.9999 7.17236 36.3124 7.60986 36.1249 8.79736C36.1249 8.79736 35.9374 9.29736 36.8124 9.29736C36.8124 9.29736 37.8124 9.10986 37.6874 10.0474C37.6874 10.0474 37.9374 11.1099 36.3124 10.9224C36.3124 10.9224 36.1249 11.2349 36.1249 11.4224C36.1249 11.4224 36.0624 14.7974 36.0624 15.1724C36.0624 15.1724 35.9999 15.6724 36.7499 15.6724C36.7499 15.6724 37.6874 15.6099 37.7499 16.4849C37.7499 16.4849 37.8749 17.6099 36.4999 17.4224C36.4999 17.4224 36.0624 17.4849 35.9999 17.7349L35.9374 19.2349C35.9374 19.2349 35.9999 19.9849 35.1249 19.7974C34.9999 19.7974 30.4999 19.8599 30.1249 19.7974C30.1874 19.6724 29.9999 19.6724 29.9374 19.7974Z" stroke="#1E1E1E" stroke-width="0.1025"/>
<path d="M24.3749 7.54736C24.3749 7.54736 24.4374 8.17236 24.4374 8.29736C24.4374 8.42236 24.3749 16.8599 24.3749 16.8599C24.3749 16.8599 24.4374 17.4849 23.8749 17.8599C23.8749 17.8599 23.7499 17.9224 23.6874 17.4849L23.7499 8.60986C23.7499 8.60986 23.8124 7.54736 24.3749 7.54736Z" fill="white"/>
<path d="M24.3749 7.54736C24.3749 7.54736 24.4374 8.17236 24.4374 8.29736C24.4374 8.42236 24.3749 16.8599 24.3749 16.8599C24.3749 16.8599 24.4374 17.4849 23.8749 17.8599C23.8749 17.8599 23.7499 17.9224 23.6874 17.4849L23.7499 8.60986C23.7499 8.60986 23.8124 7.54736 24.3749 7.54736Z" stroke="#1E1E1E" stroke-width="0.107625"/>
<path d="M23.3749 17.9223C23.3749 17.9223 23.4374 9.54726 23.3749 9.42226V9.54726C23.3749 9.54726 23.3124 8.10976 23.6874 7.48476C23.6874 7.48476 23.5624 6.98476 22.8749 7.60976V8.79726C22.8749 8.79726 22.8749 9.48476 22.2499 9.42226C22.2499 9.42226 21.5624 9.42226 21.1874 9.73476C21.1874 9.73476 20.9999 10.3598 21.6874 10.2973C21.6874 10.2973 22.7499 10.2973 22.8124 10.7348L22.7499 15.2348C22.7499 15.2348 22.9999 15.9848 22.1249 15.9848C22.1249 15.9848 21.1249 15.9223 21.1249 16.5473C21.1249 16.5473 21.3124 17.0473 22.1874 16.9223C22.1874 16.9223 22.8124 17.0473 22.8124 17.6098V18.7348C22.8124 18.7348 22.7499 19.1723 23.3124 19.2348H27.9374C27.9374 19.2348 28.1874 19.2348 28.1874 18.9848C28.1874 18.9848 28.1874 18.7348 27.8124 18.7348L24.0624 18.6723C24.0624 18.6723 23.4374 18.8598 23.3749 17.9223Z" fill="white"/>
<path d="M24.2499 17.9221C24.2499 17.9221 24.1249 18.3596 24.5624 18.2346H27.6249L28.4374 18.4221C28.4374 18.4221 29.3124 18.2346 28.4374 17.7346H25.4999C25.4999 17.7346 24.9374 17.6096 24.8124 17.5471C24.8124 17.5471 24.4999 17.4221 24.2499 17.9221Z" fill="white"/>
<path d="M24.2499 17.9221C24.2499 17.9221 24.1249 18.3596 24.5624 18.2346H27.6249L28.4374 18.4221C28.4374 18.4221 29.3124 18.2346 28.4374 17.7346H25.4999C25.4999 17.7346 24.9374 17.6096 24.8124 17.5471C24.8124 17.5471 24.4999 17.4221 24.2499 17.9221Z" stroke="#1E1E1E" stroke-width="0.107625"/>
<path d="M29.3125 18.3598C29.3125 18.3598 28.75 18.3598 28.8125 19.1098C28.8125 19.1098 28.875 19.6723 29.4375 19.6723C29.4375 19.6723 29.9375 19.6098 29.9375 18.9848C29.9375 18.9848 29.5625 18.2348 29.3125 18.3598ZM29.75 18.0473C29.75 18.0473 30 17.7348 30.1875 17.7348C30.1875 17.7348 33.125 17.9848 33.625 17.6723C33.625 17.6723 34.0625 17.6098 34.1875 17.6723C34.1875 17.6723 34.625 18.0473 34.625 18.2348C34.625 18.2348 34.625 18.4848 34.0625 18.3598H30.5625C30.5625 18.3598 29.625 18.6098 29.75 18.0473Z" fill="white"/>
<path d="M29.7498 18.0473C29.7498 18.0473 29.9998 17.7348 30.1873 17.7348C30.1873 17.7348 33.1248 17.9848 33.6248 17.6723C33.6248 17.6723 34.0623 17.6098 34.1873 17.6723C34.1873 17.6723 34.6248 18.0473 34.6248 18.2348C34.6248 18.2348 34.6248 18.4848 34.0623 18.3598H30.5623C30.5623 18.3598 29.6248 18.6098 29.7498 18.0473Z" stroke="#1E1E1E" stroke-width="0.107625"/>
<path d="M30.1249 18.9844C30.1249 18.9844 30.1249 18.7344 30.5624 18.7344H34.6874C34.6874 18.7344 35.0624 18.9219 35.0624 18.2344C35.0624 18.2344 35.1874 14.9844 35.2499 11.4219C35.2499 10.3594 35.3124 9.23438 35.2499 8.23438C35.2499 8.23438 35.1249 7.79687 35.0624 7.67187C35.0624 7.67187 35.0624 7.17187 35.5624 7.35937C35.5624 7.35937 35.9999 7.35938 35.8749 8.04688V9.04688C35.8749 9.04688 35.8124 9.48438 36.5624 9.35938C36.5624 9.35938 37.3749 9.48438 37.3749 9.79688C37.3749 9.79688 37.6249 10.4219 36.6874 10.3594H35.9999C35.9999 10.3594 35.6874 10.5469 35.8124 10.9219L35.7499 15.2344C35.7499 15.2344 35.6874 15.9844 36.3749 15.9219C36.3749 15.9219 37.1249 15.9219 37.2499 16.1094C37.2499 16.1094 37.7499 16.8594 36.6874 16.7969C36.6874 16.7969 35.9999 16.7969 35.8749 16.8594C35.8749 16.8594 35.7499 16.9844 35.6874 18.4219C35.6874 18.4219 35.7499 19.2344 35.1249 19.1719C35.1249 19.1719 30.9999 19.2344 30.6249 19.1719C30.6249 19.2344 30.1874 19.3594 30.1249 18.9844ZM24.8124 7.29688L24.6874 16.7969C24.6874 16.7969 24.6874 17.2344 25.3749 17.2969C25.3749 17.2969 26.2499 17.3594 26.4374 17.2969H28.4374C28.4374 17.2969 28.8124 17.6719 28.8124 17.1719C28.8124 17.1719 29.0624 9.48437 28.9374 7.85938C28.9374 7.85938 28.9374 7.17188 28.3749 7.17188C28.3749 7.17188 26.1249 7.35938 25.9374 7.17188L25.1249 7.04688C25.1249 7.04688 24.7499 7.04688 24.8124 7.29688Z" fill="white"/>
<path d="M29.5 7.79715C29.5 7.79715 29.4375 12.2971 29.4375 12.4221L29.375 16.1721L29.25 17.4846C29.25 17.4846 29.4375 17.7346 29.5625 17.5471C29.5625 17.5471 30.5 17.2971 31.125 17.4221C31.125 17.4221 33 17.6096 33.4375 17.2971C33.4375 17.2971 33.75 17.4221 33.8125 16.9846C33.8125 16.9846 33.9375 8.67215 33.875 8.54715C33.875 8.54715 34 7.35965 33.9375 7.23465C33.9375 7.23465 33.9375 6.98465 33.4375 7.23465C33.4375 7.23465 33.5 7.48465 30.6875 7.35965C30.625 7.35965 29.5 7.29715 29.5 7.79715ZM34.1875 7.67215V17.0471C34.1875 17.0471 34.4375 17.8596 34.8125 17.7971C34.8125 17.7971 34.875 17.6096 34.875 17.2971L35 8.35965C35 8.35965 34.6875 6.98465 34.1875 7.67215Z" fill="white"/>
<path d="M34.1874 7.67199V17.047C34.1874 17.047 34.4374 17.8595 34.8124 17.797C34.8124 17.797 34.8749 17.6095 34.8749 17.297L34.9999 8.35949C34.9999 8.35949 34.6874 6.98449 34.1874 7.67199Z" stroke="#1E1E1E" stroke-width="0.107625"/>
<path d="M30.5624 10.4849C30.4999 10.2349 31.0624 10.2349 31.0624 10.2349L31.3749 10.2974C31.5624 10.2974 31.8124 10.3599 31.8124 10.3599C31.9999 10.6724 31.6874 10.8599 31.6874 10.8599L31.5624 11.2349V14.3599C31.6249 14.4849 31.8749 14.7974 31.8749 14.7974C31.8749 15.0474 31.5624 14.9849 31.5624 14.9849H30.6874C30.4374 14.9849 30.4999 14.6724 30.4999 14.6724C30.8124 14.5474 30.8749 13.9849 30.8749 13.9849V11.0474L30.5624 10.4849ZM26.5624 13.2349L26.4999 14.1724L26.7499 14.6099C26.9374 14.8599 26.6249 15.0474 26.6249 15.0474L25.6874 14.9224C25.4999 14.8599 25.6874 14.5474 25.6874 14.5474C25.9374 14.4224 25.9374 14.0474 25.9374 14.0474V11.0474C25.9374 10.9224 25.6874 10.6099 25.6874 10.6099C25.4999 10.6099 25.5624 10.2974 25.5624 10.2974C25.6249 10.1724 26.1249 10.2349 26.1249 10.2349H27.3749C28.5624 10.6099 28.3749 11.4849 28.3749 11.4849C28.4374 12.3599 27.5624 12.6724 27.5624 12.6724L27.4999 13.1724L28.3749 14.5474C28.4999 14.6724 28.4999 14.7974 28.4999 14.7974C28.3749 15.1099 27.8749 14.7974 27.8749 14.7974L26.8124 13.1099C26.6874 12.9849 26.5624 13.2349 26.5624 13.2349ZM26.5624 10.8599V12.4224C27.1249 12.8599 27.4374 12.2349 27.4374 12.2349C28.1874 11.5474 27.4374 10.8599 27.3124 10.6724C27.1874 10.4849 26.6249 10.6724 26.6249 10.6724L26.5624 10.8599ZM20.3749 24.7349C20.3749 24.7349 20.5624 24.6724 20.6249 24.4849C20.6249 24.4849 21.2499 24.4224 21.3124 24.3599L23.2499 24.4849C23.2499 24.4849 25.1874 24.6099 25.9999 24.0474C25.9999 24.0474 26.3124 24.0474 26.4999 24.1099C26.4999 24.1099 26.9374 24.1724 26.9999 24.3599H28.1249C28.1249 24.3599 28.7499 24.5474 28.7499 24.9849V25.5474C28.7499 25.5474 28.6249 26.6099 28.9374 26.6724H29.8124C29.8124 26.6724 30.4999 26.9849 30.4374 27.4224C30.4374 27.4224 30.4374 28.0474 29.8124 28.1099C29.8124 28.1099 29.1874 28.2974 28.9999 28.2349C28.9999 28.2349 28.8124 28.4849 28.7499 28.8599L28.6874 32.7349C28.6874 32.7349 28.6249 33.1724 29.2499 33.1099C29.2499 33.1099 30.1874 33.0474 30.4374 33.5474C30.4374 33.5474 30.6874 34.4224 30.1874 34.5474L29.8124 34.7349L29.0624 34.8599C29.0624 34.8599 28.7499 34.9224 28.6874 35.4224V36.4849C28.6874 36.4849 28.6874 37.1724 28.1874 37.1724L27.3749 37.2349C27.3749 37.2349 27.1874 37.4224 26.7499 37.2974C26.7499 37.2974 21.6874 37.3599 21.5624 37.3599L20.9374 37.4849C20.9374 37.4849 20.3124 38.0474 19.7499 37.6099L19.3124 37.2974C19.3124 37.2974 18.9999 37.3599 18.8749 37.3599C18.7499 37.2974 13.3124 37.4224 13.3124 37.4224C13.3124 37.4224 12.1249 37.5474 12.0624 37.1724C12.0624 37.1724 11.9374 35.6724 11.9999 35.4849C11.9999 35.4849 11.9999 35.0474 11.7499 34.9849C11.7499 34.9849 10.5624 34.9224 10.5624 34.7974C10.5624 34.7974 9.93742 34.3599 10.1249 33.9224C10.1249 33.9224 10.3124 33.3599 10.9374 33.2974C10.9374 33.2974 11.8749 33.4224 11.8749 33.1724C11.8749 33.1724 11.9374 32.9849 11.9374 32.6724C11.9374 32.6724 11.9999 29.1724 11.9374 28.9224C11.9374 28.9224 11.9999 28.4849 11.6249 28.4849C11.6249 28.4849 11.1874 28.6099 10.9374 28.4224C10.9374 28.4224 10.2499 28.4224 10.0624 27.9224C10.0624 27.9224 9.93742 27.5474 10.1249 27.2974C10.1249 27.2974 10.4374 26.6724 11.3749 26.8599C11.3749 26.8599 11.8749 26.9849 11.9999 26.6099V25.1724C11.9999 25.1724 11.8749 24.7974 12.6249 24.5474C12.6249 24.5474 13.5624 24.7974 13.8749 24.3599C13.8749 24.3599 14.1874 23.7349 14.4999 24.1724C14.4999 24.1724 15.0624 24.7349 16.6249 24.6724C16.6249 24.6724 19.3124 24.4849 19.3749 24.5474C19.3749 24.5474 19.9999 24.6724 20.1874 24.8599L20.3749 24.7349Z" fill="#1E1E1E"/>
<path d="M20.3749 24.672C20.3749 24.672 20.5624 24.6095 20.6249 24.422C20.6249 24.422 21.2499 24.3595 21.3124 24.297L23.2499 24.422C23.2499 24.422 25.1874 24.547 25.9999 23.9845C25.9999 23.9845 26.3124 23.9845 26.4999 24.047C26.4999 24.047 26.9374 24.1095 26.9999 24.297H28.1249C28.1249 24.297 28.7499 24.4845 28.7499 24.922V25.422C28.7499 25.422 28.6249 26.4845 28.9374 26.547H29.8124C29.8124 26.547 30.4999 26.8595 30.4374 27.297C30.4374 27.297 30.4374 27.922 29.8124 27.9845C29.8124 27.9845 29.1874 28.172 28.9999 28.1095C28.9999 28.1095 28.8124 28.3595 28.7499 28.7345L28.6874 32.6095C28.6874 32.6095 28.6249 33.047 29.2499 32.9845C29.2499 32.9845 30.1874 32.922 30.4374 33.422C30.4374 33.422 30.6874 34.297 30.1874 34.422L29.8124 34.6095L29.0624 34.7345C29.0624 34.7345 28.7499 34.797 28.6874 35.297V36.3595C28.6874 36.3595 28.6874 37.047 28.1874 37.047L27.3749 37.1095C27.3749 37.1095 27.1874 37.297 26.7499 37.172C26.7499 37.172 21.6874 37.2345 21.5624 37.2345L20.9374 37.3595C20.9374 37.3595 20.3124 37.922 19.7499 37.4845L19.3124 37.172C19.3124 37.172 18.9999 37.2345 18.8749 37.2345C18.7499 37.172 13.3124 37.297 13.3124 37.297C13.3124 37.297 12.1249 37.422 12.0624 37.047C12.0624 37.047 11.9374 35.547 11.9999 35.3595C11.9999 35.3595 11.9999 34.922 11.7499 34.8595C11.7499 34.8595 10.5624 34.797 10.5624 34.672C10.5624 34.672 9.93742 34.2345 10.1249 33.797C10.1249 33.797 10.3124 33.2345 10.9374 33.172C10.9374 33.172 11.8749 33.297 11.8749 33.047C11.8749 33.047 11.9374 32.8595 11.9374 32.547C11.9374 32.547 11.9999 29.047 11.9374 28.797C11.9374 28.797 11.9999 28.3595 11.6249 28.3595C11.6249 28.3595 11.1874 28.4845 10.9374 28.297C10.9374 28.297 10.2499 28.297 10.0624 27.797C10.0624 27.797 9.93742 27.422 10.1249 27.172C10.1249 27.172 10.4374 26.547 11.3749 26.7345C11.3749 26.7345 11.9374 26.8595 11.9999 26.4845V25.047C11.9999 25.047 11.8749 24.672 12.6249 24.422C12.6249 24.422 13.5624 24.672 13.8749 24.2345C13.8749 24.2345 14.1874 23.6095 14.4999 24.047C14.4999 24.047 15.0624 24.6095 16.6249 24.547C16.6249 24.547 19.3124 24.3595 19.3749 24.422C19.3749 24.422 19.9999 24.547 20.1874 24.7345L20.3749 24.672Z" stroke="#1E1E1E" stroke-width="0.1025"/>
<path d="M21.1249 36.3597C21.1249 36.3597 21.4999 36.1722 21.7499 36.2347C21.9999 36.2972 25.4374 36.1722 25.4374 36.1722C25.4374 36.1722 26.9374 36.2972 27.1874 36.0472L27.5624 35.9222C27.5624 35.9222 27.6874 35.7347 27.6874 35.4847V34.4222L27.7499 34.1097V25.9222C27.7499 25.9222 27.8749 25.2972 27.4999 24.9222C27.4999 24.9222 27.4999 24.6722 27.6249 24.7347C27.7499 24.7972 27.6874 24.7347 27.6874 24.7347C27.6874 24.7347 28.1874 24.6097 28.3124 24.7972C28.3124 24.7972 28.5624 25.4847 28.3124 25.9222C28.3124 25.9222 28.2499 26.7972 28.6874 26.7972C28.6874 26.7972 28.8749 26.9847 29.1874 26.8597C29.1874 26.8597 29.9374 26.9222 29.9374 27.1722C29.9374 27.1722 29.9374 27.7347 29.4374 27.6097L28.7499 27.6722C28.7499 27.6722 28.2499 27.7972 28.3124 28.2972C28.3749 28.8597 28.3124 32.9222 28.3124 32.9222C28.3124 32.9222 28.3124 33.4222 29.0624 33.3597C29.0624 33.3597 29.9999 33.2972 29.9999 33.6097C29.9999 33.6097 30.2499 34.1722 29.5624 34.2347C29.5624 34.2347 28.3124 34.1722 28.4374 34.5472C28.4374 34.5472 28.3749 35.3597 28.3124 35.5472C28.3124 35.5472 28.4374 36.2347 28.3124 36.3597C28.3124 36.3597 28.2499 36.7347 27.4374 36.6722C27.4374 36.6722 22.3749 36.6722 21.5624 36.7347C21.4999 36.8597 20.9999 36.7972 21.1249 36.3597ZM20.2499 35.7972C20.2499 35.7972 20.7499 35.8597 20.7499 36.3597C20.7499 36.8597 20.7499 37.1097 20.4999 37.1722C20.1874 37.2347 19.8749 37.1097 19.8124 36.7347C19.6874 36.3597 19.8124 35.9222 20.2499 35.7972Z" fill="white"/>
<path d="M20.8124 35.5471C20.8124 35.5471 21.3124 35.1721 21.5624 35.2346C21.5624 35.2346 24.2499 35.4221 25.0624 35.2971C25.8749 35.1721 25.3749 35.2346 25.3749 35.2346C25.3749 35.2346 26.0624 35.2346 26.3124 34.9846C26.3124 34.9846 26.4999 34.9221 26.6249 35.1096L27.0624 35.6096C27.0624 35.6096 27.0624 35.9221 26.5624 35.8596C26.5624 35.8596 21.7499 35.8596 21.5624 35.9221C21.6249 35.9221 20.7499 36.0471 20.8124 35.5471Z" fill="white"/>
<path d="M20.8124 35.5471C20.8124 35.5471 21.3124 35.1721 21.5624 35.2346C21.5624 35.2346 24.2499 35.4221 25.0624 35.2971C25.8749 35.1721 25.3749 35.2346 25.3749 35.2346C25.3749 35.2346 26.0624 35.2346 26.3124 34.9846C26.3124 34.9846 26.4999 34.9221 26.6249 35.1096L27.0624 35.6096C27.0624 35.6096 27.0624 35.9221 26.5624 35.8596C26.5624 35.8596 21.7499 35.8596 21.5624 35.9221C21.6249 35.9221 20.7499 36.0471 20.8124 35.5471Z" stroke="#1E1E1E" stroke-width="0.107625"/>
<path d="M13.8124 25.0474C13.8124 25.0474 13.9999 25.0474 13.9999 25.4224L13.9374 34.3599C13.9374 34.3599 13.9999 34.9224 13.4999 35.3599C13.4999 35.3599 13.2499 35.6724 13.2499 35.1724L13.3749 26.0474C13.3749 26.0474 13.3749 25.3599 13.8124 25.0474Z" fill="white"/>
<path d="M13.8124 25.0474C13.8124 25.0474 13.9999 25.0474 13.9999 25.4224L13.9374 34.3599C13.9374 34.3599 13.9999 34.9224 13.4999 35.3599C13.4999 35.3599 13.2499 35.6724 13.2499 35.1724L13.3749 26.0474C13.3749 26.0474 13.3749 25.3599 13.8124 25.0474Z" stroke="#1E1E1E" stroke-width="0.107625"/>
<path d="M13.3124 25.1099C13.3124 25.1099 12.9374 25.7349 12.9999 25.9224V35.7974C12.9999 35.7974 12.9374 36.4849 13.4999 36.2974C13.4999 36.2974 18.6874 36.1724 19.0624 36.2974C19.0624 36.2974 19.5624 36.3599 19.3749 36.6099C19.3749 36.6099 19.3749 36.7974 19.0624 36.7349C19.0624 36.7349 16.6249 36.9849 14.3749 36.8599C14.3749 36.8599 12.8749 36.9224 12.8124 36.7974C12.8124 36.7974 12.5624 36.7349 12.5624 35.9224C12.5624 35.9224 12.5624 35.1099 12.4999 34.9849C12.4999 34.9849 12.5624 34.5474 11.8124 34.4849C11.8124 34.4849 10.7499 34.6724 10.7499 34.0474C10.7499 34.0474 10.8749 33.6099 11.9374 33.6724C11.9374 33.6724 12.6874 33.7974 12.4999 33.1724L12.5624 28.7974C12.5624 28.7974 12.6874 28.0474 12.1249 27.9849H11.4999C11.4999 27.9849 10.6249 27.9849 10.6874 27.4849C10.6874 27.4849 10.9999 26.9849 11.8749 27.0474C11.8749 27.0474 12.4999 27.1724 12.5624 26.4224C12.5624 26.4224 12.5624 24.9224 12.8749 24.8599C12.8124 24.8599 13.5624 24.9224 13.3124 25.1099Z" fill="white"/>
<path d="M14.1874 34.9224C14.1874 34.9224 14.6249 35.3599 15.3124 35.3599L19.3124 35.4224C19.3124 35.4224 19.7499 35.4849 19.7499 35.6724C19.7499 35.6724 19.6874 36.0474 19.1249 35.9224L14.2499 35.8599L13.6874 35.9224C13.6874 35.9224 13.3124 35.8599 13.8749 35.1724L14.1874 34.9224Z" fill="white"/>
<path d="M14.1874 34.9224C14.1874 34.9224 14.6249 35.3599 15.3124 35.3599L19.3124 35.4224C19.3124 35.4224 19.7499 35.4849 19.7499 35.6724C19.7499 35.6724 19.6874 36.0474 19.1249 35.9224L14.2499 35.8599L13.6874 35.9224C13.6874 35.9224 13.3124 35.8599 13.8749 35.1724L14.1874 34.9224Z" stroke="#1E1E1E" stroke-width="0.107625"/>
<path d="M26.6249 34.5471C26.6249 34.5471 26.9999 35.2346 27.1249 35.2971C27.1249 35.2971 27.4374 35.6721 27.3749 34.9846L27.4374 26.4221C27.4374 26.4221 27.3749 26.1096 27.4374 25.6721L27.0624 25.0471C27.0624 25.0471 26.6874 24.7346 26.6874 25.2346V34.2971L26.6249 34.5471Z" fill="white"/>
<path d="M26.6249 34.5471C26.6249 34.5471 26.9999 35.2346 27.1249 35.2971C27.1249 35.2971 27.4374 35.6721 27.3749 34.9846L27.4374 26.4221C27.4374 26.4221 27.3749 26.1096 27.4374 25.6721L27.0624 25.0471C27.0624 25.0471 26.6874 24.7346 26.6874 25.2346V34.2971L26.6249 34.5471Z" stroke="#1E1E1E" stroke-width="0.107625"/>
<path d="M20.0624 30.4849C20.0624 30.4849 20.0624 31.1724 19.9999 31.8599C19.9374 32.2349 20.1249 33.9849 19.9999 34.8599C19.9999 34.8599 19.9999 35.1724 19.3749 34.9224C19.3749 34.9224 15.5624 34.9849 15.4999 34.8599C15.4999 34.8599 14.4374 34.9224 14.3749 34.3599C14.3749 34.3599 14.4999 30.2974 14.4374 30.1724C14.4374 30.1724 14.3749 27.9849 14.4374 27.7349C14.4374 27.7349 14.4999 25.6724 14.4374 25.4224C14.4374 25.4224 14.4374 24.9224 14.3749 24.7349C14.3749 24.7349 14.3749 24.4224 14.8749 24.6099C14.8749 24.6099 15.0624 24.9224 15.9999 24.7974C15.9999 24.7974 16.6874 24.9224 17.3749 24.7974C17.3749 24.7974 18.8749 24.6724 19.2499 24.7974C19.2499 24.7974 19.8749 24.6724 19.9999 25.3599V27.1724L20.1874 27.7974L20.3749 27.6724L20.4374 27.2349V25.2974C20.4374 25.2974 20.5624 24.9224 21.0624 24.8599C21.0624 24.8599 21.8124 24.7974 21.9374 24.8599C22.0624 24.9224 23.6874 24.9849 24.1249 24.9224C24.5624 24.8599 24.6249 25.2349 25.9999 24.5474C25.9999 24.5474 26.3749 24.5474 26.3749 24.7974C26.3749 24.7974 26.2499 27.2974 26.3749 27.7974C26.3749 27.7974 26.3749 32.4224 26.2499 32.7349L26.3124 34.2349C26.3124 34.2349 26.3749 34.8599 25.3124 34.9224C25.3124 34.9224 25.9374 34.9849 21.8749 34.8599C21.8749 34.8599 21.2499 34.7974 20.4999 35.1724C20.4999 35.1724 20.3749 35.1099 20.3749 34.7349C20.3749 34.7349 20.4999 33.3599 20.3749 31.9849L20.3124 30.4849H20.0624Z" fill="white"/>
<path d="M17.4374 28.3599C17.4374 28.3599 17.4999 30.5474 17.4374 30.8599V31.3599C17.4374 31.3599 17.5624 31.6724 17.7499 31.7974C17.7499 31.7974 17.8749 32.2349 17.5624 32.1724C17.5624 32.1724 16.8124 32.1099 16.6249 32.1724C16.6249 32.1724 16.1874 32.1724 16.6249 31.6724C16.6249 31.6724 16.7499 31.4849 16.7499 30.9224C16.7499 30.9224 16.7499 28.4224 16.8124 28.2974C16.8124 28.2974 16.8749 27.9849 16.6874 27.8599H16.3124L15.8749 28.2974C15.8749 28.2974 15.7499 28.7349 15.5624 28.2974V28.0474L15.8124 27.3599H15.9999C15.9999 27.3599 16.2499 27.5474 16.4999 27.6099H17.8749L18.3749 27.3599C18.3749 27.3599 18.5624 27.3599 18.4999 27.6724C18.4999 27.6724 18.5624 28.3599 18.1874 28.4224C18.1874 28.4224 17.9374 28.3599 17.8124 27.9849C17.8124 27.9224 17.4374 27.6724 17.4374 28.3599ZM23.9374 27.5474C23.9374 27.5474 22.8124 27.4224 22.8124 28.6724C22.8124 28.6724 22.6874 29.4849 23.9374 30.0474C23.9374 30.0474 24.8749 30.4849 24.8124 31.0474C24.8124 31.0474 24.6874 32.0474 23.6874 31.5474C23.6874 31.5474 23.1874 31.2974 23.2499 31.0474C23.2499 31.0474 23.1249 30.7349 22.9374 30.7974C22.9374 30.7974 22.7499 30.8599 22.8124 31.8599C22.8124 31.8599 22.8124 32.2349 23.2499 31.8599L23.4999 31.9224C23.4999 31.9224 24.3124 32.5474 24.9999 31.7974C24.9999 31.7974 25.7499 31.1099 25.1874 30.2974C25.1874 30.2974 24.8124 29.6724 24.1249 29.4224C24.1249 29.4224 23.4999 29.1099 23.3124 28.6099C23.3124 28.6099 23.4999 27.7349 24.3124 28.1724C24.3124 28.1724 24.6249 28.5474 24.8124 28.6099C24.8124 28.6099 25.0624 28.6099 24.9999 28.0474L24.9374 27.6099C24.9374 27.6099 24.8749 27.2974 24.4374 27.6099C24.4374 27.5474 24.0624 27.7349 23.9374 27.5474ZM20.3749 26.9224C20.5624 27.0474 20.6249 27.3599 20.6249 27.3599C21.2499 28.9224 21.7499 31.2349 21.7499 31.2349C21.8749 31.5474 22.1874 31.7349 22.1874 31.7349C22.6874 31.9224 22.1874 32.0474 22.1874 32.0474C21.9999 32.1099 21.3124 32.0474 21.3124 32.0474C20.9374 31.9849 21.1249 31.8599 21.1249 31.8599C21.2499 31.7349 21.1249 31.1099 21.1249 31.1099C21.1249 30.8599 20.8124 30.4849 20.8124 30.4849C20.6874 30.4224 20.4999 30.6724 20.4999 30.6724C20.4999 30.6724 20.1874 30.7974 20.1249 30.6724C20.0624 30.5474 19.8749 30.4224 19.8749 30.4224C19.4999 30.4224 19.3749 31.2974 19.3749 31.2974C19.5624 32.0474 19.3749 31.9224 19.3749 31.9224C19.1874 32.1724 18.6249 31.9849 18.6249 31.9849C18.3749 31.9224 18.5624 31.7349 18.5624 31.7349C18.8749 31.6724 18.9999 31.2974 18.9999 31.2974C19.1249 31.1099 20.1249 27.2349 20.1249 27.2349C20.0624 27.1724 20.1249 26.7974 20.3749 26.9224ZM19.8749 28.9224C19.8749 29.0474 19.6249 29.9224 19.6249 29.9224L19.8124 30.2349H20.4374C20.5624 30.2349 20.6249 30.1099 20.6249 29.9224C20.6249 29.7974 20.3124 28.8599 20.3124 28.8599L20.1874 28.6724L19.8749 28.9224ZM12.3124 19.7974C12.3124 19.7974 11.9999 20.8599 10.5624 19.7974L5.5624 19.6724C5.5624 19.6724 4.9374 19.8599 4.8124 19.1724C4.8124 19.1724 4.9374 17.7974 4.8749 17.6724C4.8749 17.6724 4.9374 17.2974 4.2499 17.2974C4.2499 17.2974 3.24991 17.4224 3.18741 16.5474C3.18741 16.5474 2.99991 15.6099 4.3749 15.6099C4.3749 15.6099 4.8124 15.7974 4.8749 15.2349C4.8749 15.2349 4.8124 11.3599 4.8124 11.1099C4.8124 11.1099 4.9374 10.7349 4.2499 10.6724C4.2499 10.6724 3.24991 10.8599 3.12491 10.2349C3.12491 10.2349 3.06241 9.23486 3.68741 9.17236C3.68741 9.17236 4.4999 9.23486 4.6249 9.04736C4.6249 9.04736 4.81241 9.17236 4.74991 8.42236L4.8124 7.23486C4.8124 7.23486 4.8749 6.92236 5.3749 6.92236C5.3749 6.92236 6.3124 6.98486 6.4374 6.92236C6.4374 6.92236 6.6249 6.67236 6.6874 6.54736C6.6874 6.54736 7.1874 6.54736 7.2499 6.60986C7.2499 6.60986 7.9374 7.10986 10.6874 6.92236C10.6874 6.92236 11.1249 6.92236 11.1874 7.04736C11.1874 7.04736 11.6874 7.42236 11.9999 7.04736C11.9999 7.04736 12.4374 6.98486 13.8124 6.98486C13.8124 6.98486 15.2499 7.35986 16.2499 6.54736L16.5624 6.60986C16.5624 6.60986 16.9999 7.29736 17.2499 7.10986C17.2499 7.10986 18.1249 7.04736 18.3124 7.17236C18.3124 7.17236 18.6249 7.60986 18.4374 8.79736C18.4374 8.79736 18.2499 9.29736 19.1249 9.29736C19.1249 9.29736 20.1249 9.10986 19.9999 10.0474C19.9999 10.0474 20.2499 11.1099 18.6249 10.9224C18.6249 10.9224 18.4374 11.2349 18.4374 11.4224C18.4374 11.4224 18.4374 14.7974 18.3749 15.1724C18.3749 15.1724 18.3749 15.6724 19.0624 15.6724C19.0624 15.6724 19.9999 15.6099 20.0624 16.4849C20.0624 16.4849 20.1874 17.6099 18.8124 17.4224C18.8124 17.4224 18.3749 17.4849 18.3124 17.7349L18.2499 19.2349C18.2499 19.2349 18.2499 19.9849 17.4374 19.7974C17.3124 19.7974 12.8124 19.8599 12.4374 19.7974C12.5624 19.6724 12.3749 19.6724 12.3124 19.7974Z" fill="#1E1E1E"/>
<path d="M12.3124 19.7974C12.3124 19.7974 11.9999 20.8599 10.5624 19.7974L5.5624 19.6724C5.5624 19.6724 4.93741 19.8599 4.81241 19.1724C4.81241 19.1724 4.93741 17.7974 4.87491 17.6724C4.87491 17.6724 4.93741 17.2974 4.24991 17.2974C4.24991 17.2974 3.24991 17.4224 3.18741 16.5474C3.18741 16.5474 2.99991 15.6099 4.37491 15.6099C4.37491 15.6099 4.81241 15.7974 4.87491 15.2349C4.87491 15.2349 4.81241 11.3599 4.81241 11.1099C4.81241 11.1099 4.93741 10.7349 4.24991 10.6724C4.24991 10.6724 3.24991 10.8599 3.12491 10.2349C3.12491 10.2349 3.06241 9.23486 3.68741 9.17236C3.68741 9.17236 4.4999 9.23486 4.6249 9.04736C4.6249 9.04736 4.81241 9.17236 4.74991 8.42236L4.81241 7.23486C4.81241 7.23486 4.87491 6.92236 5.37491 6.92236C5.37491 6.92236 6.31241 6.98486 6.43741 6.92236C6.43741 6.92236 6.62491 6.67236 6.68741 6.54736C6.68741 6.54736 7.1874 6.54736 7.2499 6.60986C7.2499 6.60986 7.9374 7.10986 10.6874 6.92236C10.6874 6.92236 11.1249 6.92236 11.1874 7.04736C11.1874 7.04736 11.6874 7.42236 11.9999 7.04736C11.9999 7.04736 12.4374 6.98486 13.8124 6.98486C13.8124 6.98486 15.2499 7.35986 16.2499 6.54736L16.5624 6.60986C16.5624 6.60986 16.9999 7.29736 17.2499 7.10986C17.2499 7.10986 18.1249 7.04736 18.3124 7.17236C18.3124 7.17236 18.6249 7.60986 18.4374 8.79736C18.4374 8.79736 18.2499 9.29736 19.1249 9.29736C19.1249 9.29736 20.1249 9.10986 19.9999 10.0474C19.9999 10.0474 20.2499 11.1099 18.6249 10.9224C18.6249 10.9224 18.4374 11.2349 18.4374 11.4224C18.4374 11.4224 18.4374 14.7974 18.3749 15.1724C18.3749 15.1724 18.3749 15.6724 19.0624 15.6724C19.0624 15.6724 19.9999 15.6099 20.0624 16.4849C20.0624 16.4849 20.1874 17.6099 18.8124 17.4224C18.8124 17.4224 18.3749 17.4849 18.3124 17.7349L18.2499 19.2349C18.2499 19.2349 18.2499 19.9849 17.4374 19.7974C17.3124 19.7974 12.8124 19.8599 12.4374 19.7974C12.5624 19.6724 12.3749 19.6724 12.3124 19.7974Z" stroke="#1E1E1E" stroke-width="0.1025"/>
<path d="M6.74991 7.54736C6.74991 7.54736 6.81241 8.17236 6.81241 8.29736C6.81241 8.42236 6.74991 16.8599 6.74991 16.8599C6.74991 16.8599 6.81241 17.4849 6.24991 17.8599C6.24991 17.8599 6.12491 17.9224 6.06241 17.4849L6.12491 8.60986C6.12491 8.60986 6.18741 7.54736 6.74991 7.54736Z" fill="white"/>
<path d="M6.74991 7.54736C6.74991 7.54736 6.81241 8.17236 6.81241 8.29736C6.81241 8.42236 6.74991 16.8599 6.74991 16.8599C6.74991 16.8599 6.81241 17.4849 6.24991 17.8599C6.24991 17.8599 6.12491 17.9224 6.06241 17.4849L6.12491 8.60986C6.12491 8.60986 6.18741 7.54736 6.74991 7.54736Z" stroke="#1E1E1E" stroke-width="0.107625"/>
<path d="M5.74989 17.9223C5.74989 17.9223 5.81239 9.54726 5.81239 9.42226C5.74989 9.29726 5.81239 9.54726 5.81239 9.54726C5.81239 9.54726 5.74989 8.10976 6.12489 7.48476C6.12489 7.48476 5.99989 6.98476 5.31239 7.60976L5.24989 8.85976C5.24989 8.85976 5.24989 9.54726 4.62489 9.48476C4.62489 9.48476 3.93739 9.48476 3.56239 9.79726C3.56239 9.79726 3.37489 10.4223 4.06239 10.3598C4.06239 10.3598 5.12489 10.3598 5.18739 10.7973L5.12489 15.2973C5.12489 15.2973 5.37489 16.0473 4.56239 16.0473C4.56239 16.0473 3.56239 15.9848 3.56239 16.6098C3.56239 16.6098 3.74989 17.1098 4.62489 16.9848C4.62489 16.9848 5.24989 17.1098 5.18739 17.6723V18.7973C5.18739 18.7973 5.12489 19.2348 5.74989 19.2973H10.3749C10.3749 19.2973 10.6249 19.2973 10.6249 19.0473C10.6249 19.0473 10.6249 18.7973 10.2499 18.7973L6.43739 18.6723C6.43739 18.6723 5.81239 18.8598 5.74989 17.9223Z" fill="white"/>
<path d="M6.5624 17.9846C6.5624 17.9846 6.4374 18.4221 6.8749 18.2971H9.9374L10.7499 18.4846C10.7499 18.4846 11.6249 18.2971 10.7499 17.7971H7.8124C7.8124 17.7971 7.2499 17.6721 7.1249 17.6096C7.1249 17.6096 6.8124 17.4846 6.5624 17.9846Z" fill="white"/>
<path d="M6.5624 17.9846C6.5624 17.9846 6.4374 18.4221 6.8749 18.2971H9.9374L10.7499 18.4846C10.7499 18.4846 11.6249 18.2971 10.7499 17.7971H7.8124C7.8124 17.7971 7.2499 17.6721 7.1249 17.6096C7.1249 17.6096 6.8124 17.4846 6.5624 17.9846Z" stroke="#1E1E1E" stroke-width="0.107625"/>
<path d="M11.6249 18.4223C11.6249 18.4223 11.0624 18.4223 11.0624 19.1723C11.0624 19.1723 11.1249 19.7348 11.6874 19.7348C11.6874 19.7348 12.1874 19.6098 12.1874 19.0473C12.1874 19.0473 11.8749 18.2973 11.6249 18.4223ZM11.9999 18.1098C11.9999 18.1098 12.2499 17.7973 12.4374 17.7973C12.4374 17.7973 15.3749 18.0473 15.8749 17.7348C15.8749 17.7348 16.3124 17.6723 16.4374 17.7348C16.4374 17.7348 16.8749 18.1098 16.8749 18.2973C16.8749 18.2973 16.8749 18.5473 16.3124 18.4223H12.8124C12.8749 18.4223 11.9374 18.6723 11.9999 18.1098Z" fill="white"/>
<path d="M11.9999 18.1098C11.9999 18.1098 12.2499 17.7973 12.4374 17.7973C12.4374 17.7973 15.3749 18.0473 15.8749 17.7348C15.8749 17.7348 16.3124 17.6723 16.4374 17.7348C16.4374 17.7348 16.8749 18.1098 16.8749 18.2973C16.8749 18.2973 16.8749 18.5473 16.3124 18.4223H12.8124C12.8749 18.4223 11.9374 18.6723 11.9999 18.1098Z" stroke="#1E1E1E" stroke-width="0.107625"/>
<path d="M12.4999 18.9844C12.4999 18.9844 12.4999 18.7344 12.9374 18.7344H17.0624C17.0624 18.7344 17.4374 18.9219 17.4374 18.2344C17.4374 18.2344 17.5624 14.9844 17.6249 11.4219C17.6249 10.3594 17.6874 9.23438 17.6249 8.23438C17.6249 8.23438 17.5624 7.79688 17.4374 7.67188C17.4374 7.67188 17.4374 7.17187 17.9374 7.35938C17.9374 7.35938 18.3749 7.35938 18.2499 8.04688V9.10938C18.2499 9.10938 18.1874 9.54688 18.9374 9.42188C18.9374 9.42188 19.7499 9.54688 19.7499 9.85938C19.7499 9.85938 19.9999 10.4844 19.0624 10.4219H18.3749C18.3749 10.4219 18.0624 10.6094 18.1874 10.9844L18.1249 15.2969C18.1249 15.2969 18.0624 16.0469 18.7499 15.9844C18.7499 15.9844 19.4999 15.9844 19.6249 16.1719C19.6249 16.1719 20.1249 16.9219 18.9999 16.8594C18.9999 16.8594 18.3124 16.8594 18.1874 16.9219C18.1874 16.9219 18.0624 17.0469 17.9999 18.4844C17.9999 18.4844 18.0624 19.2969 17.4374 19.2344C17.4374 19.2344 13.3124 19.2969 12.9374 19.2344C12.9374 19.2344 12.5624 19.3594 12.4999 18.9844ZM7.18738 7.29688L7.06238 16.7969C7.06238 16.7969 7.06238 17.2344 7.74988 17.2969C7.74988 17.2969 8.62488 17.3594 8.81238 17.2969H10.8124C10.8124 17.2969 11.1874 17.6719 11.1874 17.2344C11.1874 17.2344 11.4374 9.54688 11.3124 7.92188C11.3124 7.92188 11.3124 7.23438 10.7499 7.23438C10.7499 7.23438 8.49988 7.42188 8.31238 7.23438L7.49988 7.04688C7.49988 7.04688 7.12488 7.04688 7.18738 7.29688Z" fill="white"/>
<path d="M16.5624 7.67227V17.0473C16.5624 17.0473 16.8124 17.8598 17.1874 17.7973C17.1874 17.7973 17.2499 17.6098 17.2499 17.2973L17.3749 8.35977C17.3749 8.35977 17.0624 6.92227 16.5624 7.67227Z" fill="white"/>
<path d="M16.5624 7.67227V17.0473C16.5624 17.0473 16.8124 17.8598 17.1874 17.7973C17.1874 17.7973 17.2499 17.6098 17.2499 17.2973L17.3749 8.35977C17.3749 8.35977 17.0624 6.92227 16.5624 7.67227Z" stroke="#1E1E1E" stroke-width="0.107625"/>
<path d="M11.8124 7.73465C11.8124 7.73465 11.7499 12.2346 11.7499 12.3596L11.6874 16.1096L11.6249 17.4221C11.6249 17.4221 11.8124 17.6721 11.9374 17.4846C11.9374 17.4846 12.8749 17.2346 13.4999 17.3596C13.4999 17.3596 15.3749 17.5471 15.8124 17.2346C15.8124 17.2346 16.1249 17.3596 16.1874 16.9221C16.1874 16.9221 16.3124 8.60965 16.2499 8.48465C16.2499 8.48465 16.3749 7.29715 16.3124 7.17215C16.3124 7.17215 16.3124 6.92215 15.7499 7.17215C15.7499 7.17215 15.8124 7.42215 12.9999 7.29715C12.9374 7.29715 11.8749 7.29715 11.8124 7.73465Z" fill="white"/>
<path d="M10.9374 10.4844L10.6874 11.0469C10.6874 11.0469 10.0624 13.9219 9.68741 14.4844C9.68741 14.4844 9.62491 15.1094 9.12491 14.6094C9.12491 14.6094 7.93741 10.9844 7.87491 10.8594L7.49991 10.6094C7.49991 10.6094 7.24991 10.2969 7.68741 10.2344H8.81241C8.81241 10.2344 9.18741 10.5469 8.68741 10.8594C8.68741 10.8594 8.74991 11.3594 9.37491 13.1719C9.37491 13.1719 9.56241 13.8594 9.74991 13.3594L10.3749 11.2344L10.1874 10.6094C10.1874 10.6094 9.99991 10.2969 10.2499 10.2969C10.2499 10.2969 10.8749 10.2344 10.9374 10.4844ZM12.6249 10.9844V14.1094L12.5624 14.3594C12.5624 14.3594 12.2499 14.7344 12.4999 14.7969C12.4999 14.7969 12.2499 14.9844 14.3749 14.9844C14.3749 14.9844 15.1874 15.1094 14.9999 14.0469C14.9999 14.0469 14.9374 13.6719 14.6249 14.2344C14.6249 14.2344 14.5624 14.7344 13.4374 14.5469C13.4374 14.5469 13.1874 14.3594 13.1874 14.1094V12.7969C13.1874 12.7969 13.1874 12.4844 13.6874 12.4844C13.6874 12.4844 14.2499 12.8594 14.3124 12.6719C14.3124 12.6719 14.4999 12.1719 14.3124 11.9219C14.3124 11.9219 14.0624 11.9219 13.9999 11.9844C13.9999 11.9844 13.8124 12.3594 13.3124 12.1094C13.3124 12.1094 13.0624 11.6094 13.2499 11.2344C13.2499 11.2344 13.1874 10.4844 13.6874 10.5469C13.6874 10.5469 14.3124 10.6719 14.3124 10.8594C14.3124 10.8594 14.4374 11.2344 14.6249 10.7969L14.4999 10.3594C14.4999 10.3594 14.4374 10.1719 14.2499 10.2344C14.2499 10.2344 13.2499 10.3594 13.1249 10.2344L12.3124 10.2969C12.3124 10.2969 12.1874 10.6094 12.5624 10.7344C12.5624 10.7969 12.6249 10.8594 12.6249 10.9844Z" fill="#1E1E1E"/>
</svg>
