<svg width="170" height="48" viewBox="0 0 170 48" fill="none" xmlns="http://www.w3.org/2000/svg">
<path d="M61.8086 34.3879V25.9644H54.3997V34.3879H50.6281V14.4145H54.3997V22.63H61.8086V14.4145H65.5802V34.3879M79.4071 34.3879H76.4139L76.1422 33.4001C74.8478 34.2419 73.3371 34.6902 71.7931 34.6908C69.1226 34.6908 67.9833 32.8609 67.9833 30.3417C67.9833 27.3725 69.274 26.2347 72.229 26.2347H75.7388V24.7034C75.7388 23.0858 75.2902 22.5154 72.9508 22.5154C71.5905 22.525 70.2345 22.6705 68.9032 22.9499L68.4546 20.1619C70.0863 19.709 71.7705 19.4783 73.4645 19.4712C78.0499 19.4712 79.4015 21.0888 79.4015 24.7501L79.4071 34.3879ZM75.7487 28.8684H73.0513C71.8511 28.8684 71.5228 29.1968 71.5228 30.3092C71.5228 31.3281 71.8511 31.781 72.9947 31.781C73.9625 31.7658 74.9108 31.5063 75.7516 31.0267L75.7487 28.8684ZM86.4876 34.671C84.7759 34.6406 83.0781 34.3573 81.4493 33.8303L81.9588 31.0423C83.3736 31.447 84.8365 31.6588 86.3079 31.6721C87.9255 31.6721 88.1675 31.2942 88.1675 30.2002C88.1675 29.3029 87.9864 28.85 85.6172 28.2797C82.0508 27.4079 81.6305 26.5106 81.6305 23.6943C81.6305 20.7563 82.9212 19.4656 87.0891 19.4656C88.5638 19.467 90.0328 19.6382 91.4679 19.975L91.1041 22.8961C89.7784 22.6513 88.4354 22.5112 87.0877 22.4772C85.4998 22.4772 85.2281 22.8551 85.2281 23.7509C85.2281 24.9199 85.3186 25.0246 87.2986 25.52C91.4028 26.6026 91.7792 27.1418 91.7792 30.1252C91.7792 32.9585 90.9074 34.6964 86.5004 34.6964L86.4876 34.671ZM102.65 34.3879V24.2038C102.65 23.4226 102.321 23.0348 101.481 23.0348C100.583 23.0348 98.9899 23.5726 97.6709 24.2661V34.3907H94.0125V13.8272L97.6709 13.3177V20.9034C99.3267 20.0543 101.148 19.5731 103.006 19.4924C105.435 19.4924 106.304 21.2006 106.304 23.8118V34.3978L102.65 34.3879ZM109.018 17.7163V13.4989H112.677V17.7276L109.018 17.7163ZM109.018 34.3879V19.8109H112.677V34.4162L109.018 34.3879ZM115.227 19.9029C115.227 16.2445 117.354 14.1173 122.332 14.1173C124.161 14.117 125.983 14.3385 127.759 14.7768L127.334 18.056C125.717 17.7493 124.077 17.5789 122.431 17.5465C119.821 17.5465 118.983 18.448 118.983 20.5638V28.2401C118.983 30.3672 119.824 31.2574 122.431 31.2574C124.077 31.225 125.717 31.0546 127.334 30.7479L127.753 34.003C125.977 34.4275 124.154 34.6625 122.326 34.6625C117.347 34.6625 115.221 32.5353 115.221 28.8769L115.227 19.9029ZM135.267 34.6851C130.257 34.6851 128.898 31.9282 128.898 28.9293V25.2398C128.898 22.2394 130.248 19.484 135.267 19.484C140.285 19.484 141.636 22.2408 141.636 25.2398V28.9293C141.624 31.9296 140.277 34.6851 135.267 34.6851ZM135.267 22.6131C133.317 22.6131 132.569 23.4849 132.569 25.1322V29.0482C132.569 30.6969 133.324 31.5673 135.267 31.5673C137.21 31.5673 137.964 30.6955 137.964 29.0482V25.1322C137.957 23.4834 137.206 22.6131 135.267 22.6131ZM151.33 22.8395C149.985 23.4481 148.693 24.1599 147.459 24.9666V34.3964H143.801V19.7826H146.89L147.131 21.4002C148.321 20.5936 149.612 19.9478 150.97 19.4797L151.33 22.8395ZM165.204 29.5265C165.204 32.7816 163.763 34.6823 160.375 34.6823C159.064 34.6681 157.757 34.5408 156.474 34.2577V40.2923L152.816 40.8018V19.7826H155.724L156.102 21.0138C157.435 20.0185 159.055 19.4827 160.719 19.4868C163.657 19.4868 165.215 21.2275 165.215 24.5562L165.204 29.5265ZM156.479 31.1753C157.544 31.4092 158.629 31.5358 159.72 31.5532C161.04 31.5532 161.549 30.9234 161.549 29.603V24.4246C161.549 23.2244 161.101 22.5649 159.752 22.5649C158.541 22.6069 157.383 23.0744 156.483 23.8854L156.479 31.1753ZM21.3226 2.01415L4 12.0058V36.0041L10.5101 39.7616V15.7519L21.3226 9.50647M28.2191 2V21.1129H21.307V13.9801L14.7969 17.7375V42.2255L21.307 45.9901V26.9324H28.2191V34.0157L34.7292 30.2625V5.74333M28.2191 46L45.5417 36.0084V12.0058L39.0316 8.24831V32.2509L28.2191 38.4964" fill="black"/>
</svg>
