<svg width="177" height="48" viewBox="0 0 177 48" fill="none" xmlns="http://www.w3.org/2000/svg">
<g clip-path="url(#clip0_261_2)">
<path d="M19.4854 8.64997V20.9616H6.64073V8.64997H0V39.6492H6.64073V26.6738H19.4854V39.6492H26.1262V8.64997H19.4854ZM68.5154 33.8889V8.64997H61.8678V33.9783C61.8678 37.6546 63.8659 39.6492 67.5388 39.6492H82.6429V33.8889H68.5154ZM82.6394 8.64997V14.3622H91.801V39.6492H98.4417V14.3622H107.61V8.64997H82.6394ZM120.599 32.0731C120.107 33.9783 118.471 34.9515 115.994 34.9515C112.896 34.9515 110.901 33.0016 110.461 29.8584H126.487C126.535 29.3735 126.58 28.7097 126.58 27.8672C126.58 22.774 123.436 16.9758 115.554 16.9758C107.978 16.9758 104.529 22.774 104.529 28.4449C104.529 34.0643 108.429 40 115.998 40C121.49 40 125.737 36.9015 126.624 32.0731H120.599ZM115.547 21.4912C118.512 21.4912 120.238 23.4824 120.417 25.9688H110.54C111.077 22.86 112.758 21.4912 115.547 21.4912ZM146.375 31.3234C145.931 33.3146 144.119 34.6867 141.863 34.6867C138.499 34.6867 136.508 32.1178 136.508 28.4896C136.508 24.8615 138.451 22.2478 141.777 22.2478C144.033 22.2478 145.934 23.706 146.289 25.6972H152.486C152.087 20.518 147.437 16.9758 141.594 16.9758C134.682 16.9758 130.084 21.9761 130.084 28.4862C130.084 34.9928 134.685 39.9966 141.594 39.9966C147.393 39.9966 152.001 36.2756 152.665 31.3199H146.375V31.3234ZM169.134 16.9758C166.035 16.9758 163.601 18.262 162.314 20.4251V8.64997H156.159V39.6492H162.314V27.4235C162.314 24.5451 164.22 22.4679 166.919 22.4679C169.488 22.4679 171.259 24.4178 171.259 27.1175V39.6492H177.415V25.7453C177.415 20.604 174.138 16.9758 169.134 16.9758ZM30.2977 23.8229C30.2977 13.3924 37.0382 8 44.7278 8C51.9635 8 57.2664 12.4191 58.0471 19.0943H51.592C51.1794 15.8685 48.3456 13.7019 44.7278 13.7019C40.0817 13.7019 36.5051 17.1925 36.5051 23.8229C36.5051 30.4533 40.0817 33.9026 44.7278 33.9026C48.4282 33.9026 51.2653 31.7361 51.7571 28.555H57.9233C57.3902 35.1854 52.0873 39.6492 44.7278 39.6492C36.9143 39.6458 30.2977 34.2534 30.2977 23.8229Z" fill="#315EA8"/>
</g>
<defs>
<clipPath id="clip0_261_2">
<rect width="177" height="48" fill="white"/>
</clipPath>
</defs>
</svg>
