<svg width="165" height="48" viewBox="0 0 165 48" fill="none" xmlns="http://www.w3.org/2000/svg">
<path fill-rule="evenodd" clip-rule="evenodd" d="M7.16551 10.5509C6.95412 10.7833 6.96812 11.1397 7.1902 11.3618L34.6382 38.8098C34.8603 39.0319 35.2167 39.0459 35.4491 38.8345C39.4737 35.1723 42 29.8921 42 24.0219C42 12.9641 33.0359 4 21.9781 4C16.1079 4 10.8277 6.52628 7.16551 10.5509ZM3.73494 15.7601C3.63352 15.9837 3.68466 16.246 3.85829 16.4196L29.5804 42.1417C29.754 42.3153 30.0163 42.3665 30.2399 42.2651C30.8341 41.9955 31.4128 41.6978 31.9743 41.3737C32.3081 41.181 32.3592 40.7256 32.0867 40.4531L5.54686 13.9133C5.27437 13.6408 4.81902 13.692 4.62634 14.0257C4.30217 14.5872 4.00447 15.1659 3.73494 15.7601ZM2.17446 23.1255C2.05403 23.005 1.98995 22.839 2.00129 22.6691C2.05439 21.8732 2.154 21.09 2.29743 20.3222C2.38343 19.8619 2.94596 19.7021 3.27711 20.0332L25.9668 42.7229C26.2979 43.054 26.1382 43.6166 25.6778 43.7026C24.91 43.846 24.1269 43.9456 23.3309 43.9987C23.161 44.01 22.995 43.946 22.8745 43.8255L2.17446 23.1255ZM3.56687 28.7127C3.15348 28.2993 2.48636 28.6555 2.63776 29.2202C4.4823 36.1 9.90004 41.5177 16.7798 43.3622C17.3445 43.5137 17.7007 42.8465 17.2873 42.4331L3.56687 28.7127ZM82.6635 15.0181C84.0989 15.0181 85.2621 13.8504 85.2621 12.4101C85.2621 10.9698 84.0989 9.80214 82.6635 9.80214C81.2286 9.80214 80.0654 10.9698 80.0654 12.4101C80.0654 13.8504 81.2286 15.0181 82.6635 15.0181ZM60.4069 37.7623V9.8037H65.0246V33.6717H77.4752V37.7623H60.4069ZM93.2734 26.3537V37.7623H88.8054V17.9473H93.2174V21.3436L93.2734 21.3061C93.722 20.2428 94.4451 19.3547 95.4422 18.6416C96.439 17.9161 97.7103 17.5533 99.256 17.5533C100.627 17.5533 101.873 17.8598 102.995 18.4727C104.117 19.0732 105.014 19.9551 105.687 21.1185C106.36 22.2819 106.696 23.708 106.696 25.3967V37.7623H102.228V26.0159C102.228 24.5148 101.829 23.3764 101.032 22.6009C100.247 21.8128 99.1936 21.4187 97.8723 21.4187C97.0248 21.4187 96.2521 21.5939 95.5543 21.9441C94.8564 22.2944 94.3018 22.8323 93.8905 23.5578C93.4791 24.2834 93.2734 25.2153 93.2734 26.3537ZM133.73 37.4245C134.752 37.8624 135.924 38.0813 137.245 38.0813C138.329 38.0813 139.258 37.9437 140.03 37.6685C140.803 37.3808 141.439 36.9992 141.937 36.5238C142.448 36.0485 142.853 35.5294 143.153 34.9664H143.227V37.7623H147.509V24.1207C147.509 23.1575 147.321 22.2756 146.948 21.475C146.574 20.6744 146.032 19.9801 145.321 19.3922C144.623 18.8042 143.776 18.3539 142.779 18.0412C141.782 17.7159 140.66 17.5533 139.414 17.5533C137.706 17.5533 136.229 17.8473 134.983 18.4352C133.749 19.0107 132.783 19.7862 132.085 20.762C131.387 21.7377 131.007 22.8386 130.945 24.0644H135.263C135.313 23.489 135.513 22.9761 135.862 22.5258C136.21 22.0755 136.684 21.7252 137.282 21.475C137.881 21.2123 138.572 21.0809 139.358 21.0809C140.143 21.0809 140.809 21.2123 141.358 21.475C141.919 21.7377 142.349 22.0942 142.648 22.5446C142.947 22.9949 143.097 23.5203 143.097 24.1207V24.2709C143.097 24.7212 142.941 25.0527 142.629 25.2654C142.33 25.478 141.819 25.6344 141.096 25.7345C140.386 25.8345 139.414 25.9534 138.18 26.091C137.17 26.2036 136.198 26.3725 135.263 26.5976C134.329 26.8228 133.493 27.1543 132.758 27.5921C132.035 28.0299 131.462 28.6116 131.038 29.3372C130.614 30.0627 130.403 30.9947 130.403 32.133C130.403 33.4465 130.702 34.5473 131.3 35.4355C131.898 36.3112 132.708 36.9742 133.73 37.4245ZM140.965 34.1033C140.242 34.491 139.351 34.685 138.292 34.685C137.22 34.685 136.366 34.4598 135.731 34.0095C135.095 33.5466 134.777 32.9149 134.777 32.1143C134.777 31.4888 134.952 30.9822 135.301 30.5944C135.662 30.2066 136.136 29.9001 136.721 29.675C137.307 29.4497 137.943 29.2934 138.628 29.2058C139.127 29.1308 139.613 29.0557 140.087 28.9807C140.56 28.8931 141.003 28.8118 141.414 28.7367C141.825 28.6492 142.174 28.5616 142.461 28.474C142.76 28.3865 142.978 28.2926 143.115 28.1926V30.4067C143.115 31.1823 142.935 31.8954 142.573 32.5459C142.224 33.1838 141.688 33.703 140.965 34.1033ZM151.407 37.7623V17.9473H155.706V21.2123H155.763C156.124 20.0865 156.691 19.2296 157.464 18.6416C158.249 18.0412 159.277 17.7409 160.549 17.7409C160.86 17.7409 161.141 17.7534 161.39 17.7785C161.652 17.791 161.87 17.8035 162.044 17.816V21.8503C161.882 21.8253 161.595 21.794 161.184 21.7565C160.773 21.7189 160.337 21.7002 159.876 21.7002C159.14 21.7002 158.467 21.869 157.856 22.2068C157.246 22.5446 156.76 23.0637 156.398 23.7642C156.049 24.4523 155.875 25.3217 155.875 26.3725V37.7623H151.407ZM80.4203 37.7623V17.9473H84.8883V37.7623H80.4203ZM114.128 36.8804C115.561 37.7685 117.263 38.2126 119.232 38.2126C120.752 38.2126 122.136 37.9374 123.382 37.387C124.641 36.8241 125.688 36.0547 126.523 35.079C127.358 34.0908 127.9 32.9524 128.15 31.6639H123.943C123.756 32.2519 123.451 32.771 123.027 33.2213C122.616 33.6592 122.098 34.0032 121.475 34.2534C120.852 34.5036 120.129 34.6287 119.307 34.6287C118.197 34.6287 117.244 34.3785 116.446 33.8781C115.661 33.3777 115.063 32.6835 114.652 31.7953C114.278 30.9778 114.074 30.0521 114.04 29.0182H128.411V27.8173C128.411 26.2911 128.187 24.9026 127.738 23.6516C127.29 22.3882 126.654 21.2999 125.831 20.3867C125.009 19.461 124.018 18.748 122.859 18.2476C121.712 17.7472 120.435 17.497 119.026 17.497C117.194 17.497 115.574 17.9411 114.166 18.8293C112.757 19.7174 111.654 20.9434 110.856 22.507C110.059 24.0707 109.66 25.8595 109.66 27.8736C109.66 29.8751 110.046 31.6577 110.819 33.2213C111.592 34.7725 112.695 35.9922 114.128 36.8804ZM123.532 23.7642C123.12 22.9136 122.535 22.2569 121.774 21.794C121.014 21.3312 120.117 21.0997 119.082 21.0997C118.06 21.0997 117.169 21.3312 116.409 21.794C115.661 22.2569 115.075 22.9136 114.652 23.7642C114.349 24.3803 114.158 25.0808 114.078 25.8658H124.105C124.025 25.0808 123.834 24.3803 123.532 23.7642Z" fill="#222326"/>
</svg>
