<svg width="210" height="48" viewBox="0 0 210 48" fill="none" xmlns="http://www.w3.org/2000/svg">
<path d="M23.4266 28.3134C25.6714 28.3134 26.88 27.1046 26.88 24.86V21.4533C26.88 19.2087 25.6714 18 23.4266 18H0V32H3.17334V28.3134H23.4266ZM23.7066 21.64V24.6733C23.7066 25.0373 23.5106 25.2333 23.1466 25.2333H3.17334V21.08H23.1466C23.5106 21.08 23.7066 21.276 23.7066 21.64ZM34.3466 32C32.102 32 30.8934 30.7914 30.8934 28.5466V21.4533C30.8934 19.2087 32.102 18 34.3466 18H53.8066C56.0514 18 57.26 19.2087 57.26 21.4533V28.5466C57.26 30.7914 56.0514 32 53.8066 32H34.3466ZM53.5266 28.92C53.8906 28.92 54.0866 28.724 54.0866 28.36V21.64C54.0866 21.276 53.8906 21.08 53.5266 21.08H34.6266C34.2626 21.08 34.0666 21.276 34.0666 21.64V28.36C34.0666 28.724 34.2626 28.92 34.6266 28.92H53.5266ZM85.0266 27.24C86.8861 28.022 88.193 29.858 88.2 32H85.0266C85.0266 29.48 83.86 28.3134 81.34 28.3134H64.4934V32H61.32V18H84.7466C86.9914 18 88.2 19.2087 88.2 21.4533V23.7932C88.2 25.9427 87.0916 27.142 85.0266 27.24ZM84.4666 25.2333C84.8306 25.2333 85.0266 25.0373 85.0266 24.6733V21.64C85.0266 21.276 84.8306 21.08 84.4666 21.08H64.4934V25.2333H84.4666ZM92.0264 21.4533C92.0264 19.2087 93.2356 18 95.48 18H118.44V20.6133H95.76C95.396 20.6133 95.2 20.8093 95.2 21.1733V23.1333C95.2 23.4973 95.396 23.6933 95.76 23.6933H115.454C117.698 23.6933 118.906 24.902 118.906 27.1466V28.5466C118.906 30.7914 117.698 32 115.454 32H92.4936V29.3866H115.174C115.538 29.3866 115.734 29.1906 115.734 28.8266V26.8666C115.734 26.5027 115.538 26.3067 115.174 26.3067H95.48C93.2356 26.3067 92.0264 25.098 92.0264 22.8533V21.4533ZM122.874 21.4533C122.874 19.2087 124.082 18 126.326 18H148.726V21.08H126.606C126.242 21.08 126.046 21.276 126.046 21.64V28.36C126.046 28.724 126.242 28.92 126.606 28.92H148.726V32H126.326C124.082 32 122.874 30.7914 122.874 28.5466V21.4533ZM178.126 18V32H174.954V26.54H155.96V32H152.786V18H155.96V23.46H174.954V18H178.126ZM185.406 20.6133V23.6933H210V26.3067H185.406V29.3866H210V32H182.234V18H210V20.6133H185.406Z" fill="black"/>
</svg>
