<svg width="180" height="48" viewBox="0 0 180 48" fill="none" xmlns="http://www.w3.org/2000/svg">
<path d="M23.9112 28.8162L28.9039 37.9537H19.6402L15.4247 30.1449H11.431V37.9537H3V10.2728H18.4199C24.7986 10.2728 28.8484 13.813 28.8484 20.1797C28.8484 24.2765 26.9624 27.2113 23.9112 28.8162ZM11.431 17.4669V22.9478H17.4215C19.1965 22.9478 20.3058 21.8959 20.3058 20.1797C20.3058 18.4634 19.1965 17.4669 17.4215 17.4669H11.431ZM55.6946 40L30.4569 33.1904L37.224 8L49.8427 11.4048L62.4615 14.8095L55.6946 40ZM50.9243 21.453L43.8799 19.5153L41.9941 26.5463L49.0385 28.4846L50.9243 21.453ZM91.3607 30.1449C91.3607 35.4595 87.9771 37.9537 82.7077 37.9537H66.1785V10.2728H82.1531C87.4225 10.2728 90.8061 12.9855 90.8061 17.7467C90.8061 20.7362 89.6966 22.7298 87.5888 24.1139C89.9739 25.1623 91.3607 27.2666 91.3607 30.1449ZM74.3876 16.9162V21.013H79.876C81.3737 21.013 82.2611 20.3487 82.2611 18.9093C82.2611 17.5806 81.3737 16.9162 79.876 16.9162H74.3876ZM74.3876 31.3104H80.5446C81.9866 31.3104 82.8216 30.5353 82.8216 29.206C82.8216 27.7672 81.9897 27.1028 80.5446 27.1028H74.3876V31.3104ZM95.5208 10.2728H103.951V29.7578H116.042V37.9537H95.5195L95.5208 10.2728ZM147.051 24.1139C147.051 26.9608 146.205 29.7438 144.62 32.1109C143.035 34.478 140.783 36.3229 138.148 37.4124C135.513 38.5018 132.613 38.7869 129.816 38.2315C127.018 37.676 124.448 36.3051 122.431 34.292C120.415 32.2789 119.041 29.7143 118.485 26.922C117.928 24.1298 118.214 21.2357 119.305 18.6055C120.397 15.9753 122.245 13.7272 124.617 12.1456C126.988 10.5639 129.777 9.71972 132.629 9.71972C134.524 9.71596 136.4 10.0856 138.152 10.8075C139.903 11.5293 141.494 12.5892 142.834 13.9262C144.174 15.2633 145.236 16.8513 145.96 18.599C146.683 20.3468 147.054 22.2199 147.051 24.111V24.1139ZM138.619 24.1139C138.619 20.6808 135.901 17.9681 132.629 17.9681C129.356 17.9681 126.638 20.6808 126.638 24.1139C126.638 27.5469 129.356 30.2591 132.629 30.2591C135.901 30.2591 138.619 27.5428 138.619 24.111V24.1139ZM167.352 23.6704L176.449 37.9537H166.406L161.417 29.8127L156.258 37.9537H146.052L155.537 24.002L146.829 10.2728H156.868L161.472 17.7467L165.909 10.2728H175.894L167.352 23.6704Z" fill="black"/>
</svg>
