<svg width="197" height="48" viewBox="0 0 197 48" fill="none" xmlns="http://www.w3.org/2000/svg">
<g clip-path="url(#clip0_257_973)">
<path d="M51.3892 27.5925C51.5925 29.4941 53.3222 32.7539 58.3419 32.7539C62.7169 32.7539 64.82 29.9695 64.82 27.253C64.82 24.8081 63.1579 22.8047 59.8682 22.1255L57.4938 21.6162C56.5782 21.4464 55.9678 20.9371 55.9678 20.1221C55.9678 19.1713 56.9174 18.4583 58.1046 18.4583C60.0037 18.4583 60.7159 19.7146 60.8517 20.6994L64.6163 19.8505C64.4129 18.0508 62.8187 15.0287 58.0706 15.0287C54.4754 15.0287 51.8302 17.5075 51.8302 20.4956C51.8302 22.8386 53.2883 24.7742 56.5103 25.4872L58.715 25.9966C60.0037 26.2682 60.5126 26.8795 60.5126 27.6265C60.5126 28.5094 59.8003 29.2904 58.3079 29.2904C56.3409 29.2904 55.3571 28.0679 55.2556 26.7436L51.3892 27.5925Z" fill="#1F1F1F"/>
<path d="M79.2353 32.2445H83.5428C83.4749 31.6673 83.373 30.5128 83.373 29.2224V15.538H78.8619V25.2495C78.8619 27.1851 77.709 28.5433 75.7081 28.5433C73.6053 28.5433 72.6554 27.0492 72.6554 25.1816V15.538H68.1446V26.0985C68.1446 29.7318 70.4507 32.686 74.4869 32.686C76.2502 32.686 78.1843 32.0069 79.0999 30.4448C79.0999 31.124 79.1674 31.905 79.2353 32.2445Z" fill="#1F1F1F"/>
<path d="M92.6977 38.6963V30.6147C93.5115 31.7352 95.2076 32.6521 97.514 32.6521C102.228 32.6521 105.382 28.9168 105.382 23.8573C105.382 18.8997 102.567 15.1645 97.6835 15.1645C95.174 15.1645 93.3085 16.285 92.5623 17.5754V15.538H88.1873V38.6963H92.6977ZM100.939 23.8913C100.939 26.8795 99.1079 28.6112 96.8015 28.6112C94.4957 28.6112 92.6302 26.8455 92.6302 23.8913C92.6302 20.9371 94.4957 19.2053 96.8015 19.2053C99.1079 19.2053 100.939 20.9371 100.939 23.8913Z" fill="#1F1F1F"/>
<path d="M107.937 27.6944C107.937 30.3091 110.107 32.72 113.669 32.72C116.144 32.72 117.738 31.5654 118.586 30.2411C118.586 30.8863 118.654 31.8031 118.755 32.2445H122.893C122.791 31.6673 122.69 30.4788 122.69 29.596V21.3785C122.69 18.0168 120.723 15.0287 115.432 15.0287C110.955 15.0287 108.547 17.9149 108.276 20.5296L112.278 21.3785C112.414 19.9184 113.499 18.662 115.465 18.662C117.365 18.662 118.281 19.6467 118.281 20.8352C118.281 21.4125 117.976 21.8879 117.026 22.0237L112.922 22.6349C110.141 23.0424 107.937 24.7062 107.937 27.6944ZM114.618 29.3582C113.16 29.3582 112.447 28.4075 112.447 27.4228C112.447 26.1324 113.363 25.4872 114.516 25.3175L118.281 24.7402V25.4872C118.281 28.4415 116.517 29.3582 114.618 29.3582Z" fill="#1F1F1F"/>
<path d="M131.612 32.2446V30.2072C132.494 31.6334 134.257 32.6521 136.564 32.6521C141.312 32.6521 144.433 28.8829 144.433 23.8234C144.433 18.8658 141.617 15.0966 136.733 15.0966C134.257 15.0966 132.426 16.1832 131.68 17.3716V7.66016H127.237V32.2446H131.612ZM139.921 23.8573C139.921 26.9134 138.09 28.6112 135.784 28.6112C133.511 28.6112 131.612 26.8795 131.612 23.8573C131.612 20.8012 133.511 19.1374 135.784 19.1374C138.09 19.1374 139.921 20.8012 139.921 23.8573Z" fill="#1F1F1F"/>
<path d="M146.987 27.6944C146.987 30.3091 149.157 32.72 152.718 32.72C155.194 32.72 156.788 31.5654 157.636 30.2411C157.636 30.8863 157.704 31.8031 157.805 32.2445H161.943C161.842 31.6673 161.74 30.4788 161.74 29.596V21.3785C161.74 18.0168 159.773 15.0287 154.482 15.0287C150.005 15.0287 147.597 17.9149 147.326 20.5296L151.327 21.3785C151.463 19.9184 152.549 18.662 154.515 18.662C156.415 18.662 157.331 19.6467 157.331 20.8352C157.331 21.4125 157.026 21.8879 156.076 22.0237L151.972 22.6349C149.191 23.0424 146.987 24.7062 146.987 27.6944ZM153.668 29.3582C152.21 29.3582 151.497 28.4075 151.497 27.4228C151.497 26.1324 152.413 25.4872 153.566 25.3175L157.331 24.7402V25.4872C157.331 28.4415 155.567 29.3582 153.668 29.3582Z" fill="#1F1F1F"/>
<path d="M164.862 27.5925C165.065 29.4941 166.795 32.7539 171.815 32.7539C176.19 32.7539 178.293 29.9695 178.293 27.253C178.293 24.8081 176.631 22.8047 173.341 22.1255L170.967 21.6162C170.051 21.4464 169.441 20.9371 169.441 20.1221C169.441 19.1713 170.39 18.4583 171.577 18.4583C173.477 18.4583 174.189 19.7146 174.325 20.6994L178.09 19.8505C177.886 18.0508 176.292 15.0287 171.544 15.0287C167.948 15.0287 165.303 17.5075 165.303 20.4956C165.303 22.8386 166.761 24.7742 169.984 25.4872L172.188 25.9966C173.477 26.2682 173.986 26.8795 173.986 27.6265C173.986 28.5094 173.274 29.2904 171.781 29.2904C169.814 29.2904 168.831 28.0679 168.729 26.7436L164.862 27.5925Z" fill="#1F1F1F"/>
<path d="M185.143 21.9897C185.245 20.4617 186.534 18.6959 188.874 18.6959C191.452 18.6959 192.537 20.3259 192.605 21.9897H185.143ZM193.046 26.3362C192.503 27.8302 191.35 28.8829 189.247 28.8829C187.009 28.8829 185.143 27.2869 185.042 25.0798H196.98C196.98 25.0118 197.048 24.3327 197.048 23.6875C197.048 18.3224 193.962 15.0287 188.806 15.0287C184.533 15.0287 180.599 18.4922 180.599 23.8234C180.599 29.4601 184.635 32.7539 189.214 32.7539C193.317 32.7539 195.963 30.343 196.811 27.4567L193.046 26.3362Z" fill="#1F1F1F"/>
<path d="M21.6197 42.3686C20.6489 43.5911 18.6806 42.9213 18.6572 41.3603L18.3152 18.5293H33.6667C36.4473 18.5293 37.9981 21.7409 36.2691 23.9186L21.6197 42.3686Z" fill="url(#paint0_linear_257_973)"/>
<path d="M21.6197 42.3686C20.6489 43.5911 18.6806 42.9213 18.6572 41.3603L18.3152 18.5293H33.6667C36.4473 18.5293 37.9981 21.7409 36.2691 23.9186L21.6197 42.3686Z" fill="url(#paint1_linear_257_973)" fill-opacity="0.2"/>
<path d="M15.3762 5.6314C16.347 4.40876 18.3153 5.07868 18.3387 6.63967L18.4886 29.4706H3.32918C0.548518 29.4706 -1.00231 26.2591 0.72679 24.0814L15.3762 5.6314Z" fill="#3ECF8E"/>
</g>
<defs>
<linearGradient id="paint0_linear_257_973" x1="18.3152" y1="23.5915" x2="31.9591" y2="29.3137" gradientUnits="userSpaceOnUse">
<stop stop-color="#249361"/>
<stop offset="1" stop-color="#3ECF8E"/>
</linearGradient>
<linearGradient id="paint1_linear_257_973" x1="12.2662" y1="15.3094" x2="18.4885" y2="27.0226" gradientUnits="userSpaceOnUse">
<stop/>
<stop offset="1" stop-opacity="0"/>
</linearGradient>
<clipPath id="clip0_257_973">
<rect width="197" height="48" fill="white"/>
</clipPath>
</defs>
</svg>
