<svg width="189" height="48" viewBox="0 0 189 48" fill="none" xmlns="http://www.w3.org/2000/svg">
<g clip-path="url(#clip0_257_979)">
<path d="M1.16223 8L0 12.5327H10.77L6.8184 28.339L3.91283 40H10.9637L13.8692 28.339L17.8208 12.5327H28.5521L29.6755 8H1.16223ZM176.736 10.7506L175.264 16.7167H169.608L168.523 21.1332H189.211L176.736 10.7506ZM37.7724 15.3995C33.4737 15.3995 29.7453 16.523 26.5763 18.77C23.4243 21.0495 21.3772 24.0356 20.4552 27.7191C20.401 27.9345 20.3436 28.1282 20.3002 28.339C19.5921 31.759 20.2197 34.5484 22.1985 36.6683C24.3076 38.8998 27.5618 40 31.9613 40C39.4599 40 45.2076 35.4255 45.7918 34.9249L42.5375 34.1889C41.772 34.3655 37.6035 35.5727 33.4334 35.1961C28.1724 34.7235 26.9792 30.8711 27.2736 28.9588H48.3874L48.5811 28.339L48.7361 27.6804C49.6937 23.8404 49.187 20.8201 47.2252 18.6538C45.2478 16.4688 42.1145 15.3995 37.7724 15.3995ZM100.339 15.3995C95.8156 15.3995 91.7245 16.5726 88.0194 18.9637C84.308 21.3563 82.0316 24.3208 81.1622 27.7966C81.1142 27.9872 81.0444 28.1515 81.0073 28.339C80.358 31.5653 81.218 34.2942 83.5642 36.5133C86.0529 38.8409 89.5752 40 94.1404 40C96.9065 40 99.809 39.4266 102.857 38.2954L104.639 31.2058C102.612 32.7663 100.912 33.803 99.5642 34.3438C98.1726 34.9017 96.6679 35.1961 95.0315 35.1961C92.4668 35.1961 90.5267 34.5081 89.2203 33.1041C88.0643 31.8396 87.6506 30.2342 87.9806 28.339C88.0178 28.1298 88.0814 27.9345 88.1356 27.7191C88.6702 25.5837 89.9564 23.7892 92.0097 22.3729C94.0583 20.9565 96.3781 20.2421 98.9443 20.2421C100.579 20.2421 101.903 20.5195 102.973 21.0944C104.064 21.6507 105.208 22.6952 106.383 24.1937L108.165 17.0266C105.854 15.9279 103.248 15.3995 100.339 15.3995ZM125.869 15.3995C121.569 15.3995 117.841 16.523 114.673 18.77C111.52 21.0495 109.473 24.0356 108.552 27.7191C108.498 27.9345 108.442 28.1282 108.397 28.339C107.687 31.759 108.313 34.5484 110.295 36.6683C112.401 38.8998 115.66 40 120.058 40C127.554 40 133.306 35.4255 133.889 34.9249L130.634 34.1889C129.869 34.3655 125.7 35.5727 121.53 35.1961C116.271 34.7235 115.073 30.8711 115.37 28.9588H136.484L136.678 28.339L136.833 27.6804C137.794 23.8404 137.32 20.8201 135.361 18.6538C133.383 16.4688 130.213 15.3995 125.869 15.3995ZM70.9346 16.0581C67.9469 16.0581 65.0259 16.9817 62.1792 18.8475L55.8644 16.7167L52.9588 28.339L50.0533 40H56.9104L59.6998 28.7651C59.7355 28.621 59.7803 28.4692 59.8159 28.339C60.5288 25.6612 61.4849 23.7521 62.644 22.6441C63.8868 21.4663 65.6131 20.9007 67.874 20.9007C69.9536 20.9007 71.3003 21.3238 71.8643 22.2179C72.4517 23.0919 72.4393 24.688 71.8643 26.983L71.5544 28.339L68.6101 40H75.4672L78.3728 28.339L79.0314 25.7046C79.8543 22.4209 79.628 20.0701 78.3341 18.615C76.8418 16.9104 74.3686 16.0581 70.9346 16.0581ZM158.45 16.0581C155.461 16.0581 152.545 16.9817 149.695 18.8475L143.38 16.7167L140.475 28.339L137.569 40H144.426L147.215 28.7651C147.253 28.621 147.295 28.4692 147.332 28.339C148.048 25.6612 148.998 23.7521 150.16 22.6441C151.404 21.4663 153.126 20.9007 155.39 20.9007C157.468 20.9007 158.814 21.3238 159.38 22.2179C159.966 23.0919 159.955 24.688 159.38 26.983L159.031 28.339L156.126 40H162.983L165.889 28.339L166.547 25.7046C167.37 22.4209 167.142 20.0701 165.85 18.615C164.359 16.9104 161.881 16.0581 158.45 16.0581ZM36.6877 20.2421C40.3231 20.2421 42.2663 21.6709 42.4988 24.5424H28.8232C29.2107 23.8729 29.66 23.2872 30.2179 22.7603C30.7711 22.2365 31.3956 21.7701 32.0775 21.4044C32.7779 21.02 33.5109 20.7442 34.2857 20.5521C35.0636 20.3444 35.8601 20.2421 36.6877 20.2421ZM124.784 20.2421C128.42 20.2421 130.366 21.6709 130.596 24.5424H116.92C117.311 23.8729 117.762 23.2872 118.315 22.7603C118.871 22.2365 119.5 21.7701 120.174 21.4044C120.881 21.02 121.608 20.7442 122.383 20.5521C123.164 20.3444 123.955 20.2421 124.784 20.2421ZM173.908 22.1404L172.358 28.339L169.414 40H176.232L179.177 28.339L180.726 22.1404H173.908Z" fill="#006CB6"/>
</g>
<defs>
<clipPath id="clip0_257_979">
<rect width="189" height="48" fill="white"/>
</clipPath>
</defs>
</svg>
