<svg width="100%" height="100%" viewBox="0 0 27.3211 18.7013" fill="none" xmlns="http://www.w3.org/2000/svg">
<g id="Layer_1" clip-path="url(#clip0_522_968)">
<path id="Vector" d="M27.3153 10.961C27.3397 11.0764 27.2859 11.1948 27.1842 11.2535L14.8243 18.3902C14.1052 18.805 13.2189 18.805 12.4988 18.3902L0.13697 11.2525C0.035226 11.1938 -0.0185809 11.0754 0.0058768 10.96C0.116425 10.4376 0.257301 9.92689 0.42557 9.42795C0.480355 9.26458 0.672103 9.19218 0.821784 9.27827L13.3187 16.4933C13.53 16.6156 13.7912 16.6156 14.0025 16.4933L26.4984 9.27827C26.6481 9.19218 26.8398 9.2636 26.8946 9.42795C27.0629 9.92689 27.2038 10.4376 27.3143 10.96L27.3153 10.961Z" fill="#1a1c2a"/>
<path id="Vector_2" d="M25.5671 7.13087L15.8496 12.7414C15.3937 13.0046 14.8233 12.6759 14.8233 12.1496V0.273918C14.8233 0.110541 14.9652 -0.0146822 15.1266 0.00194902C15.647 0.0557559 16.1597 0.138912 16.6615 0.248482C16.7868 0.275875 16.8748 0.387402 16.8748 0.51556V9.78012L24.4508 5.40611C24.5692 5.33763 24.7218 5.36698 24.805 5.47655C25.1141 5.88548 25.4008 6.31104 25.6639 6.75324C25.7422 6.88531 25.6991 7.05554 25.5671 7.13184V7.13087Z" fill="#1a1c2a"/>
<path id="Vector_3" d="M10.4465 0.531246V9.78015L2.86953 5.40517C2.75115 5.33668 2.59854 5.36603 2.51538 5.4756C2.20623 5.88454 1.91959 6.3101 1.65643 6.75229C1.57816 6.88436 1.62121 7.05459 1.75328 7.1309L11.4718 12.7415C11.9277 13.0046 12.498 12.6759 12.498 12.1496V0.292539C12.498 0.12427 12.3474 -0.00388765 12.182 0.0225266L10.6774 0.260255C10.5443 0.280799 10.4465 0.39624 10.4465 0.530267V0.531246Z" fill="#1a1c2a"/>
</g>
<defs>
<clipPath id="clip0_522_968">
<rect width="27.3211" height="18.7013" fill="white"/>
</clipPath>
</defs>
</svg>
