<svg width="200" height="200" viewBox="0 0 200 200" fill="none" xmlns="http://www.w3.org/2000/svg">
<circle cx="100" cy="100" r="98" fill="black" stroke="url(#paint0_linear_14_2)" stroke-width="4"/>
<path d="M62.5402 118.108C61.9815 118.108 61.4483 117.875 61.0697 117.464L46.2496 101.387C45.5436 100.621 45.5436 99.4419 46.2496 98.6761L61.0697 82.5996C61.4483 82.1888 61.9815 81.9551 62.5402 81.9551H74.7335C76.4787 81.9551 77.3867 84.034 76.2006 85.3143L63.8258 98.6725C63.1154 99.4394 63.1154 100.624 63.8258 101.391L76.2006 114.749C77.3867 116.029 76.4787 118.108 74.7334 118.108H62.5402Z" fill="white"/>
<path d="M115.763 53C117.054 53 118.006 54.2044 117.709 55.4604L96.6562 144.46C96.4427 145.363 95.6371 146 94.7099 146H85.2758C83.9852 146 83.0324 144.796 83.3295 143.54L104.383 54.5396C104.596 53.6373 105.402 53 106.329 53H115.763Z" fill="white"/>
<path d="M123.799 85.3143C122.613 84.034 123.521 81.9551 125.267 81.9551H137.46C138.018 81.9551 138.552 82.1888 138.93 82.5996L153.75 98.6761C154.456 99.4419 154.456 100.621 153.75 101.387L138.93 117.464C138.552 117.875 138.018 118.108 137.46 118.108H125.267C123.521 118.108 122.613 116.029 123.799 114.749L136.174 101.391C136.885 100.624 136.885 99.4394 136.174 98.6725L123.799 85.3143Z" fill="white"/>
<defs>
<linearGradient id="paint0_linear_14_2" x1="100" y1="0" x2="100" y2="200" gradientUnits="userSpaceOnUse">
<stop stop-color="#00E0EE"/>
<stop offset="1" stop-color="#6809E1"/>
</linearGradient>
</defs>
</svg>
