<svg width="1280" height="164" viewBox="0 0 1280 164" fill="none" xmlns="http://www.w3.org/2000/svg">
<g clip-path="url(#clip0_2070_731)">
<path d="M232.818 96.0378C233.026 97.0494 232.568 98.0866 231.7 98.6009L126.354 161.136C120.225 164.77 112.671 164.77 106.534 161.136L1.17113 98.5924C0.303946 98.078 -0.15466 97.0408 0.0537973 96.0293C0.996026 91.4517 2.19674 86.977 3.63093 82.6051C4.09788 81.1736 5.73218 80.5392 7.00795 81.2936L113.521 144.514C115.323 145.585 117.549 145.585 119.35 144.514L225.855 81.2936C227.131 80.5392 228.765 81.165 229.232 82.6051C230.666 86.977 231.867 91.4517 232.809 96.0293L232.818 96.0378Z" fill="#151515"/>
<path d="M217.923 62.479L135.098 111.641C131.213 113.947 126.352 111.067 126.352 106.455V2.39609C126.352 0.964523 127.561 -0.132725 128.936 0.0130032C133.372 0.484477 137.742 1.21312 142.019 2.17321C143.087 2.41323 143.837 3.39047 143.837 4.51344V85.6927L208.409 47.3661C209.418 46.7661 210.719 47.0232 211.427 47.9833C214.062 51.5665 216.505 55.2955 218.748 59.1701C219.415 60.3274 219.049 61.819 217.923 62.4876V62.479Z" fill="#151515"/>
<path d="M89.0512 4.65293V85.695L24.471 47.3599C23.4621 46.7598 22.1613 47.017 21.4525 47.9771C18.8176 51.5603 16.3745 55.2892 14.1315 59.1639C13.4644 60.3211 13.8313 61.8127 14.957 62.4814L97.7897 111.643C101.675 113.949 106.537 111.069 106.537 106.457V2.5613C106.537 1.08687 105.253 -0.0360906 103.843 0.19536L91.019 2.27842C89.885 2.45844 89.0512 3.46996 89.0512 4.64436V4.65293Z" fill="#151515"/>
</g>
<path d="M347.382 150.393C335.315 150.393 324.682 147.764 315.482 142.507C306.402 137.131 299.293 129.724 294.156 120.285C289.138 110.847 286.629 99.9744 286.629 87.6685C286.629 78.5884 288.122 70.2849 291.109 62.758C294.216 55.1116 298.457 48.4807 303.833 42.8654C309.329 37.2501 315.721 32.8893 323.009 29.7829C330.416 26.6766 338.481 25.1234 347.203 25.1234C352.101 25.1234 357.597 25.7208 363.69 26.9155C369.783 27.9908 375.817 30.2608 381.791 33.7256L382.507 59.7114H371.396L367.812 38.9227C364.586 37.1306 361.42 35.8761 358.314 35.1593C355.327 34.4424 352.4 34.084 349.532 34.084C341.528 34.084 334.24 36.1151 327.669 40.1772C321.097 44.2394 315.841 50.2729 311.898 58.2777C308.075 66.163 306.163 75.9599 306.163 87.6685C306.163 99.377 307.955 109.234 311.539 117.238C315.124 125.243 320.082 131.277 326.414 135.339C332.866 139.401 340.154 141.432 348.278 141.432C351.743 141.432 355.267 141.074 358.851 140.357C362.555 139.521 366.139 138.266 369.604 136.593L373.188 115.805H384.3L383.583 141.791C378.087 144.777 372.233 146.928 366.02 148.242C359.927 149.676 353.714 150.393 347.382 150.393Z" fill="#151515"/>
<path d="M436.784 150.034C429.854 150.034 423.223 148.421 416.891 145.196C410.678 141.85 405.601 136.892 401.658 130.321C397.715 123.63 395.744 115.387 395.744 105.59C395.744 95.6733 397.715 87.3698 401.658 80.6792C405.601 73.8691 410.678 68.7915 416.891 65.4462C423.223 61.9814 429.854 60.249 436.784 60.249C443.713 60.249 450.284 61.9814 456.497 65.4462C462.829 68.7915 467.967 73.8691 471.909 80.6792C475.971 87.3698 478.002 95.6733 478.002 105.59C478.002 115.387 475.971 123.63 471.909 130.321C467.967 136.892 462.829 141.85 456.497 145.196C450.284 148.421 443.713 150.034 436.784 150.034ZM436.784 141.97C444.549 141.97 450.523 138.923 454.705 132.83C458.886 126.617 460.977 117.537 460.977 105.59C460.977 93.5227 458.886 84.3232 454.705 77.991C450.523 71.6588 444.549 68.4928 436.784 68.4928C429.018 68.4928 423.044 71.6588 418.862 77.991C414.8 84.3232 412.769 93.5227 412.769 105.59C412.769 117.537 414.8 126.617 418.862 132.83C423.044 138.923 429.018 141.97 436.784 141.97Z" fill="#151515"/>
<path d="M506.646 105.59C506.646 117.298 508.975 125.96 513.635 131.575C518.414 137.071 524.388 139.819 531.556 139.819C535.499 139.819 538.963 139.043 541.95 137.489C545.057 135.817 548.283 133.129 551.628 129.425V79.7831C547.566 76.1989 543.922 73.7497 540.696 72.4354C537.47 71.1212 534.364 70.4641 531.377 70.4641C526.956 70.4641 522.834 71.7186 519.011 74.2276C515.307 76.6171 512.321 80.4402 510.051 85.6971C507.781 90.8346 506.646 97.4654 506.646 105.59ZM553.42 149.497L552.165 137.131C549.059 141.193 545.475 144.359 541.413 146.629C537.47 148.899 532.691 150.034 527.076 150.034C519.788 150.034 513.396 148.182 507.9 144.479C502.404 140.775 498.103 135.638 494.997 129.066C492.01 122.376 490.516 114.67 490.516 105.948C490.516 96.7486 492.189 88.7437 495.534 81.9337C498.88 75.1236 503.42 69.807 509.155 65.9838C514.889 62.1606 521.401 60.249 528.689 60.249C532.87 60.249 536.873 61.0853 540.696 62.758C544.639 64.4306 548.462 67.4772 552.165 71.8978V31.3958L536.932 29.6037V23.3313L564.89 15.2667L567.398 16.7004L566.682 42.1486V139.102L581.198 141.253V147.705L553.42 149.497Z" fill="#151515"/>
<path d="M628.758 68.4928C625.412 68.4928 622.007 69.4486 618.543 71.3602C615.197 73.2718 612.27 76.3184 609.761 80.5C607.372 84.6816 605.819 90.2372 605.102 97.1667H637.718C642.019 97.1667 644.827 96.2707 646.141 94.4785C647.575 92.6864 648.292 90.4761 648.292 87.8477C648.292 84.3829 647.396 81.2168 645.604 78.3494C643.931 75.3626 641.601 72.9731 638.614 71.181C635.747 69.3888 632.461 68.4928 628.758 68.4928ZM628.578 150.034C616.512 150.034 606.834 146.151 599.546 138.386C592.258 130.5 588.614 119.688 588.614 105.948C588.614 96.7486 590.466 88.7437 594.17 81.9337C597.993 75.1236 603.011 69.807 609.224 65.9838C615.556 62.1606 622.426 60.249 629.833 60.249C636.046 60.249 641.661 61.623 646.679 64.3709C651.697 67.1188 655.699 71.0615 658.686 76.1989C661.673 81.2168 663.166 87.3698 663.166 94.6578C663.166 96.6888 663.047 98.6004 662.808 100.393C662.569 102.065 662.27 103.499 661.912 104.694H604.743C604.982 115.685 607.73 124.049 612.987 129.783C618.244 135.518 625.173 138.386 633.776 138.386C639.51 138.386 644.289 137.251 648.113 134.981C651.936 132.591 655.46 129.544 658.686 125.841L662.987 129.246C659.642 135.578 655.102 140.656 649.367 144.479C643.632 148.182 636.703 150.034 628.578 150.034Z" fill="#151515"/>
<path d="M737.497 150.393C725.431 150.393 714.797 147.764 705.598 142.507C696.518 137.131 689.409 129.724 684.271 120.285C679.254 110.847 676.745 99.9744 676.745 87.6685C676.745 78.5884 678.238 70.2849 681.225 62.758C684.331 55.1116 688.573 48.4807 693.949 42.8654C699.445 37.2501 705.837 32.8893 713.125 29.7829C720.532 26.6766 728.597 25.1234 737.318 25.1234C742.217 25.1234 747.713 25.7208 753.806 26.9155C759.899 27.9908 765.933 30.2608 771.906 33.7256L772.623 59.7114H761.512L757.928 38.9227C754.702 37.1306 751.536 35.8761 748.429 35.1593C745.443 34.4424 742.515 34.084 739.648 34.084C731.643 34.084 724.355 36.1151 717.784 40.1772C711.213 44.2394 705.956 50.2729 702.013 58.2777C698.19 66.163 696.279 75.9599 696.279 87.6685C696.279 99.377 698.071 109.234 701.655 117.238C705.239 125.243 710.198 131.277 716.53 135.339C722.981 139.401 730.269 141.432 738.394 141.432C741.858 141.432 745.383 141.074 748.967 140.357C752.671 139.521 756.255 138.266 759.72 136.593L763.304 115.805H774.415L773.698 141.791C768.203 144.777 762.348 146.928 756.136 148.242C750.042 149.676 743.83 150.393 737.497 150.393Z" fill="#151515"/>
<path d="M785.322 147.705V141.253L798.225 138.923C798.345 134.383 798.404 129.485 798.404 124.228C798.524 118.851 798.584 114.132 798.584 110.07V101.468C798.584 96.5694 798.524 92.5072 798.404 89.2814C798.404 86.0556 798.285 82.6505 798.046 79.0663L783.888 77.4534V71.181L808.978 60.249L811.666 62.0411L813.638 83.1882C816.624 76.0197 820.448 70.4044 825.107 66.3422C829.886 62.2801 834.665 60.249 839.444 60.249C842.192 60.249 844.761 60.8464 847.15 62.0411C849.54 63.2359 851.272 64.8488 852.347 66.8799C852.347 75.6015 848.823 79.9623 841.774 79.9623C839.743 79.9623 837.831 79.6039 836.039 78.8871C834.247 78.0508 832.515 76.9157 830.842 75.482L828.691 73.5107C825.107 76.1391 822.12 79.365 819.731 83.1882C817.341 87.0114 815.37 91.4917 813.817 96.6291V110.07C813.817 114.013 813.817 118.612 813.817 123.869C813.936 129.126 814.056 134.025 814.175 138.565L828.871 141.253V147.705H785.322Z" fill="#151515"/>
<path d="M922.618 149.497C918.317 149.497 914.733 148.242 911.865 145.733C908.998 143.224 907.206 139.879 906.489 135.697C901.591 140.476 897.289 144.061 893.586 146.45C889.882 148.84 885.402 150.034 880.145 150.034C873.574 150.034 867.899 148.182 863.12 144.479C858.46 140.656 856.13 135.04 856.13 127.633C856.13 124.168 856.907 120.942 858.46 117.955C860.133 114.968 863.12 112.041 867.421 109.174C871.722 106.307 877.875 103.439 885.88 100.572C888.628 99.616 891.794 98.6004 895.378 97.5251C898.962 96.4499 902.546 95.4941 906.131 94.6578V90.1774C906.131 81.4558 904.816 75.6613 902.188 72.7939C899.56 69.9265 895.258 68.4928 889.285 68.4928C887.97 68.4928 886.477 68.5525 884.804 68.672C883.251 68.7915 881.519 69.0901 879.607 69.568L876.202 81.2168C874.53 86.9516 871.423 89.819 866.883 89.819C861.865 89.819 859.058 87.3698 858.46 82.4713C860.133 75.6613 864.076 70.2849 870.288 66.3422C876.62 62.2801 884.326 60.249 893.407 60.249C902.845 60.249 909.834 62.6385 914.374 67.4175C918.914 72.077 921.184 80.0818 921.184 91.4319V129.604C921.184 133.427 921.782 136.175 922.977 137.848C924.171 139.401 925.724 140.178 927.636 140.178C929.189 140.178 930.504 139.819 931.579 139.102C932.654 138.386 933.67 137.43 934.625 136.235L938.21 140.178C936.059 143.642 933.67 146.092 931.041 147.525C928.532 148.84 925.725 149.497 922.618 149.497ZM872.08 124.945C872.08 129.724 873.454 133.129 876.202 135.16C878.95 137.191 882.355 138.206 886.417 138.206C888.209 138.206 889.882 137.967 891.435 137.489C893.108 137.012 895.079 136.116 897.349 134.801C899.619 133.368 902.546 131.337 906.131 128.708V101.289C903.024 102.125 899.978 103.081 896.991 104.156C894.004 105.112 891.555 105.948 889.643 106.665C884.506 108.696 880.682 110.787 878.174 112.937C875.665 115.088 873.992 117.179 873.156 119.21C872.439 121.241 872.08 123.153 872.08 124.945Z" fill="#151515"/>
<path d="M942.115 147.705V141.253L956.272 138.744C956.392 133.965 956.451 129.186 956.451 124.407C956.571 119.628 956.631 114.849 956.631 110.07V72.077H941.756V64.1917L956.989 62.2203C957.825 52.6623 959.14 44.9562 960.932 39.102C962.843 33.1282 966.009 27.9311 970.43 23.5105C974.253 19.6873 978.256 17.0589 982.437 15.6251C986.619 14.1915 990.741 13.4746 994.803 13.4746C998.985 13.4746 1002.69 14.2512 1005.91 15.8044C1009.14 17.2381 1011.17 19.6873 1012.01 23.1521C1011.89 25.4221 1010.87 27.3337 1008.96 28.8869C1007.05 30.44 1004.42 31.2166 1001.08 31.2166C996.774 31.2166 992.473 29.4245 988.172 25.8403L983.154 21.8976C982.676 22.256 982.198 22.6144 981.72 22.9729C981.362 23.3313 981.004 23.6897 980.645 24.0481C977.539 27.1545 975.149 31.8737 973.477 38.2059C971.924 44.4186 971.266 52.5429 971.505 62.5788H1010.39L1015.23 38.2059H1025.81L1024.91 62.5788H1048.92V72.077H1024.55V127.633C1024.55 132.173 1025.45 135.518 1027.24 137.669C1029.03 139.7 1031.42 140.715 1034.41 140.715C1036.44 140.715 1038.41 140.297 1040.32 139.461C1042.23 138.624 1044.33 137.43 1046.6 135.877L1050.72 140.536C1046.06 146.868 1039.01 150.034 1029.57 150.034C1023.36 150.034 1018.4 148.362 1014.7 145.016C1010.99 141.671 1009.14 136.534 1009.14 129.604C1009.14 127.334 1009.14 125.124 1009.14 122.973C1009.26 120.703 1009.32 117.836 1009.32 114.371V72.077H971.864V110.07C971.864 114.849 971.864 119.628 971.864 124.407C971.983 129.067 972.103 133.786 972.222 138.565L988.351 141.253V147.705H942.115Z" fill="#151515"/>
<path d="M1099.2 68.4928C1095.86 68.4928 1092.45 69.4486 1088.99 71.3602C1085.64 73.2718 1082.72 76.3184 1080.21 80.5C1077.82 84.6816 1076.26 90.2372 1075.55 97.1667H1108.16C1112.47 97.1667 1115.27 96.2707 1116.59 94.4785C1118.02 92.6864 1118.74 90.4761 1118.74 87.8477C1118.74 84.3829 1117.84 81.2168 1116.05 78.3494C1114.38 75.3626 1112.05 72.9731 1109.06 71.181C1106.19 69.3888 1102.91 68.4928 1099.2 68.4928ZM1099.02 150.034C1086.96 150.034 1077.28 146.151 1069.99 138.386C1062.7 130.5 1059.06 119.688 1059.06 105.948C1059.06 96.7486 1060.91 88.7437 1064.62 81.9337C1068.44 75.1236 1073.46 69.807 1079.67 65.9838C1086 62.1606 1092.87 60.249 1100.28 60.249C1106.49 60.249 1112.11 61.623 1117.12 64.3709C1122.14 67.1188 1126.15 71.0615 1129.13 76.1989C1132.12 81.2168 1133.61 87.3698 1133.61 94.6578C1133.61 96.6888 1133.49 98.6004 1133.25 100.393C1133.02 102.065 1132.72 103.499 1132.36 104.694H1075.19C1075.43 115.685 1078.18 124.049 1083.43 129.783C1088.69 135.518 1095.62 138.386 1104.22 138.386C1109.96 138.386 1114.74 137.251 1118.56 134.981C1122.38 132.591 1125.91 129.544 1129.13 125.841L1133.43 129.246C1130.09 135.578 1125.55 140.656 1119.81 144.479C1114.08 148.182 1107.15 150.034 1099.02 150.034Z" fill="#151515"/>
<path d="M1146.29 147.705V141.253L1159.2 138.923C1159.32 134.383 1159.38 129.485 1159.38 124.228C1159.5 118.851 1159.56 114.132 1159.56 110.07V101.468C1159.56 96.5694 1159.5 92.5072 1159.38 89.2814C1159.38 86.0556 1159.26 82.6505 1159.02 79.0663L1144.86 77.4534V71.181L1169.95 60.249L1172.64 62.0411L1174.61 83.1882C1177.6 76.0197 1181.42 70.4044 1186.08 66.3422C1190.86 62.2801 1195.64 60.249 1200.42 60.249C1203.16 60.249 1205.73 60.8464 1208.12 62.0411C1210.51 63.2359 1212.24 64.8488 1213.32 66.8799C1213.32 75.6015 1209.8 79.9623 1202.75 79.9623C1200.72 79.9623 1198.8 79.6039 1197.01 78.8871C1195.22 78.0508 1193.49 76.9157 1191.81 75.482L1189.66 73.5107C1186.08 76.1391 1183.09 79.365 1180.7 83.1882C1178.31 87.0114 1176.34 91.4917 1174.79 96.6291V110.07C1174.79 114.013 1174.79 118.612 1174.79 123.869C1174.91 129.126 1175.03 134.025 1175.15 138.565L1189.84 141.253V147.705H1146.29Z" fill="#151515"/>
<path d="M1245.06 150.034C1240.04 150.034 1235.44 149.437 1231.26 148.242C1227.08 147.167 1222.77 145.494 1218.35 143.224L1217.64 123.511H1227.49L1230.9 139.102C1235.08 141.014 1239.92 141.97 1245.41 141.97C1252.22 141.97 1257.24 140.715 1260.47 138.206C1263.81 135.697 1265.49 132.412 1265.49 128.35C1265.49 124.526 1264.11 121.48 1261.36 119.21C1258.62 116.82 1254.43 114.67 1248.82 112.758L1240.58 109.712C1234 107.322 1228.75 104.216 1224.81 100.393C1220.86 96.5693 1218.89 91.6111 1218.89 85.5179C1218.89 81.0974 1220.09 76.9755 1222.48 73.1523C1224.86 69.3291 1228.39 66.2227 1233.05 63.8332C1237.71 61.4437 1243.38 60.249 1250.07 60.249C1254.97 60.249 1259.39 60.9061 1263.34 62.2203C1267.4 63.4151 1271.34 65.2072 1275.16 67.5967L1274.45 85.8764H1265.13L1262.26 71.5394C1258.2 69.5083 1254.08 68.4928 1249.89 68.4928C1244.4 68.4928 1240.22 69.6278 1237.35 71.8978C1234.6 74.0483 1233.23 76.9755 1233.23 80.6792C1233.23 84.6219 1234.42 87.6087 1236.81 89.6398C1239.32 91.6709 1243.62 93.8214 1249.72 96.0914L1255.27 98.0628C1264.23 101.408 1270.56 105.231 1274.27 109.532C1278.09 113.833 1280 118.792 1280 124.407C1280 128.947 1278.69 133.188 1276.06 137.131C1273.43 140.954 1269.55 144.061 1264.41 146.45C1259.27 148.84 1252.82 150.034 1245.06 150.034Z" fill="#151515"/>
<defs>
<clipPath id="clip0_2070_731">
<rect width="232.864" height="163.867" fill="white" transform="translate(0.00195312)"/>
</clipPath>
</defs>
</svg>
