<svg width="69" height="76" viewBox="0 0 69 76" fill="none" xmlns="http://www.w3.org/2000/svg">
<path d="M48.9394 29.1225C48.9394 29.1225 47.8269 18.6775 37.5355 18.3875C27.244 18.0974 21.9585 26.2212 21.9585 37.8265C21.9585 49.4318 27.7998 58.7166 37.8133 58.7166C47.8269 58.7166 48.9394 47.1113 48.9394 47.1113L68.1318 48.2717C68.1318 48.2717 69.2619 58.7532 61.2305 66.7501C53.199 74.7463 43.341 76.0527 36.4567 75.9984C29.5723 75.9431 20.0273 76.107 10.7968 66.5869C1.5664 57.0668 0 47.8185 0 38.7337C0 29.6485 1.75045 17.6132 12.7256 8.48662C20.1846 2.28499 27.7459 0 35.3084 0C66.8796 0 69 29.3222 69 29.3222L48.9394 29.1225Z" fill="black"/>
</svg>
