<svg width="100" height="100" viewBox="0 0 100 100" fill="none" xmlns="http://www.w3.org/2000/svg">
<path d="M61.4282 42.5242C61.4282 42.5242 60.5092 33.7284 52.0075 33.4842C43.5059 33.2399 39.1397 40.081 39.1397 49.8539C39.1397 59.6268 43.9651 67.4456 52.2371 67.4456C60.5092 67.4456 61.4282 57.6727 61.4282 57.6727L77.2828 58.6498C77.2828 58.6498 78.2163 67.4764 71.5817 74.2106C64.947 80.9442 56.8034 82.0444 51.1164 81.9987C45.4293 81.9521 37.5443 82.0901 29.9191 74.0732C22.294 66.0563 21 58.2682 21 50.6178C21 42.9671 22.446 32.8322 31.5125 25.1466C37.6742 19.9242 43.9205 18 50.1678 18C76.2484 18 78 42.6924 78 42.6924L61.4282 42.5242V42.5242Z" fill="#38B2AC"/>
</svg>
