<svg width="98" height="100" viewBox="0 0 98 100" fill="none" xmlns="http://www.w3.org/2000/svg">
<path d="M64.6135 40.188C64.6135 40.188 63.3721 28.6436 51.8874 28.323C40.4027 28.0024 34.5044 36.9813 34.5044 49.8083C34.5044 62.6352 41.023 72.8973 52.1974 72.8973C63.3721 72.8973 64.6135 60.0704 64.6135 60.0704L86.0312 61.3529C86.0312 61.3529 87.2922 72.9378 78.3297 81.7764C69.367 90.6143 58.366 92.0583 50.6835 91.9982C43.001 91.9371 32.3493 92.1183 22.0487 81.5961C11.748 71.0739 10 60.852 10 50.8109C10 40.7693 11.9534 27.4672 24.2011 17.38C32.5248 10.5255 40.9628 8 49.4022 8C84.6338 8 87 40.4088 87 40.4088L64.6135 40.188Z" fill="#38B2AC"/>
</svg>
