<svg width="69" height="76" viewBox="0 0 69 76" fill="none" xmlns="http://www.w3.org/2000/svg">
<path d="M48.9394 29.2071C48.9394 29.2071 47.8269 18.8621 37.5355 18.5748C27.244 18.2875 21.9585 26.3335 21.9585 37.8278C21.9585 49.3221 27.7998 58.518 37.8133 58.518C47.8269 58.518 48.9394 47.0237 48.9394 47.0237L68.1318 48.173C68.1318 48.173 69.2619 58.5543 61.2305 66.4746C53.199 74.3943 43.341 75.6882 36.4567 75.6344C29.5723 75.5796 20.0273 75.742 10.7968 66.313C1.5664 56.884 0 47.7242 0 38.7263C0 29.728 1.75045 17.8079 12.7256 8.76869C20.1846 2.6264 27.7459 0.363281 35.3084 0.363281C66.8796 0.363281 69 29.4049 69 29.4049L48.9394 29.2071Z" fill="white"/>
</svg>
