<svg width="100" height="100" viewBox="0 0 100 100" fill="none" xmlns="http://www.w3.org/2000/svg">
<path d="M58.917 44.1595C58.917 44.1595 58.1915 37.2878 51.4796 37.097C44.7678 36.9062 41.3208 42.2508 41.3208 49.8859C41.3208 57.521 45.1303 63.6293 51.6608 63.6293C58.1915 63.6293 58.917 55.9943 58.917 55.9943L71.4338 56.7577C71.4338 56.7577 72.1708 63.6534 66.933 68.9145C61.695 74.1752 55.2659 75.0347 50.7761 74.999C46.2863 74.9626 40.0613 75.0704 34.0414 68.8072C28.0216 62.544 27 56.4595 27 50.4827C27 44.5056 28.1416 36.5876 35.2993 30.5833C40.1639 26.5033 45.0951 25 50.0272 25C70.6171 25 72 44.2909 72 44.2909L58.917 44.1595Z" fill="white"/>
</svg>
