<svg width="84" height="84" viewBox="0 0 84 84" fill="none" xmlns="http://www.w3.org/2000/svg">
<path d="M40.26 42.7571C39.8425 43.6619 39.3818 44.6785 38.9047 45.7605C37.2183 49.5815 35.3507 54.2311 34.6685 57.2098C34.4234 58.2708 34.2716 59.5855 34.2745 61.0432C34.2745 61.6198 34.3054 62.2258 34.3544 62.843C36.7387 63.7191 39.3139 64.2009 42.0031 64.2057C44.4513 64.2009 46.8032 63.7965 49.0045 63.0645C48.4871 62.5914 47.9933 62.0871 47.5439 61.5189C44.5595 57.7131 42.8944 52.1354 40.26 42.7571Z" fill="black"/>
<path d="M29.2412 23.8481C23.5415 27.8652 19.8117 34.4906 19.7976 41.9991C19.8117 49.3954 23.4293 55.9352 28.9856 59.969C30.3486 54.2915 33.765 49.0929 38.8882 38.6726C38.584 37.8368 38.2373 36.9218 37.8492 35.9607C36.4299 32.4004 34.3815 28.2656 32.5535 26.3932C31.6215 25.4151 30.4905 24.5699 29.2412 23.8481Z" fill="black"/>
<path d="M61.3453 67.4697C58.4045 67.1012 55.9774 66.6564 53.8542 65.9074C50.2831 67.6807 46.2614 68.6824 42.003 68.6824C27.2684 68.6824 15.3239 56.7393 15.3221 41.9997C15.3221 34.0022 18.8453 26.8328 24.419 21.9432C22.9283 21.5831 21.3736 21.3728 19.7856 21.3757C11.9572 21.4494 3.69345 25.7821 0.253043 37.483C-0.0686327 39.1862 0.00797399 40.4741 0.00797399 42.0005C0.00797399 65.1958 18.8115 84 42.0041 84C56.2079 84 68.7555 76.9421 76.3541 66.1478C72.2442 67.172 68.2918 67.6618 64.9073 67.6723C63.6388 67.6723 62.4479 67.6044 61.3453 67.4697Z" fill="black"/>
<path d="M53.4536 59.3319C53.7129 59.4604 54.3007 59.6703 55.1186 59.9023C60.6216 55.8623 64.1978 49.3548 64.212 41.9999H64.2098C64.1891 29.7384 54.2669 19.8172 42.0029 19.7929C39.5653 19.7976 37.2235 20.1999 35.031 20.9265C39.5399 26.0662 41.7081 33.4113 43.8055 41.4459C43.8066 41.4495 43.8084 41.4524 43.8092 41.4553C43.8132 41.4618 44.4801 43.6864 45.6252 46.6379C46.7623 49.5854 48.3823 53.2343 50.149 55.8935C51.309 57.6755 52.5848 58.9561 53.4536 59.3319Z" fill="black"/>
<path d="M42.0039 0C27.9373 0 15.4943 6.92501 7.87284 17.5433C11.8393 15.0591 15.8893 14.163 19.4238 14.1949C24.3055 14.2091 28.1435 15.7228 29.985 16.7583C30.4297 17.0146 30.852 17.2906 31.2655 17.5741C34.5512 16.1269 38.1819 15.3176 42.0028 15.3176C56.7392 15.3194 68.6855 27.2625 68.6877 41.9995H68.6855C68.6855 49.4296 65.6467 56.1476 60.7478 60.9853C61.9503 61.12 63.2327 61.2039 64.5422 61.1973C69.1935 61.1995 74.2208 60.1731 77.9898 57.0031C80.4474 54.9328 82.5064 51.9014 83.6482 47.3564C83.8715 45.6009 84 43.8164 84 42.0003C84 18.806 65.1983 0 42.0039 0Z" fill="black"/>
</svg>
