<svg width="85" height="100" viewBox="0 0 85 100" fill="none" xmlns="http://www.w3.org/2000/svg">
<path d="M41.5372 50.7197C41.1778 51.4985 40.7812 52.3735 40.3706 53.3047C38.919 56.5935 37.3115 60.5954 36.7244 63.1591C36.5134 64.0722 36.3828 65.2038 36.3853 66.4585C36.3853 66.9547 36.4119 67.4763 36.454 68.0075C38.5062 68.7616 40.7228 69.1763 43.0375 69.1804C45.1447 69.1763 47.169 68.8282 49.0637 68.1982C48.6184 67.791 48.1934 67.3569 47.8065 66.8679C45.2378 63.5922 43.8047 58.7916 41.5372 50.7197Z" fill="#A0AEC0"/>
<path d="M32.0528 34.4448C27.1468 37.9023 23.9365 43.6047 23.9243 50.0672C23.9365 56.4331 27.0503 62.0618 31.8328 65.5336C33.0059 60.6471 35.9465 56.1728 40.3562 47.2041C40.0943 46.4847 39.7959 45.6972 39.4618 44.87C38.2403 41.8057 36.4771 38.247 34.9037 36.6354C34.1015 35.7936 33.1281 35.0661 32.0528 34.4448Z" fill="#A0AEC0"/>
<path d="M59.6858 71.9897C57.1546 71.6726 55.0655 71.2897 53.238 70.645C50.1643 72.1713 46.7027 73.0335 43.0374 73.0335C30.3549 73.0335 20.074 62.7541 20.0724 50.0679C20.0724 43.1844 23.1049 37.0138 27.9024 32.8054C26.6193 32.4954 25.2811 32.3144 23.9143 32.3169C17.1761 32.3804 10.0633 36.1094 7.10208 46.1804C6.8252 47.6463 6.89114 48.7547 6.89114 50.0685C6.89114 70.0325 23.0758 86.2172 43.0383 86.2172C55.264 86.2172 66.064 80.1425 72.6043 70.8519C69.0668 71.7335 65.6649 72.155 62.7518 72.1641C61.6599 72.1641 60.6349 72.1057 59.6858 71.9897Z" fill="#A0AEC0"/>
<path d="M52.8933 64.9855C53.1165 65.0961 53.6224 65.2768 54.3265 65.4765C59.063 61.9993 62.1411 56.3983 62.1533 50.068H62.1514C62.1336 39.5146 53.5933 30.9755 43.0375 30.9546C40.9394 30.9587 38.9238 31.3049 37.0366 31.9302C40.9175 36.354 42.7838 42.6758 44.589 49.5911C44.59 49.5943 44.5915 49.5968 44.5922 49.5993C44.5956 49.6049 45.1697 51.5196 46.1553 54.0599C47.134 56.5968 48.5284 59.7374 50.049 62.0261C51.0474 63.5599 52.1455 64.6621 52.8933 64.9855Z" fill="#A0AEC0"/>
<path d="M43.0381 13.9192C30.9306 13.9192 20.2206 19.8795 13.6606 29.0186C17.0747 26.8805 20.5606 26.1092 23.6028 26.1367C27.8047 26.1489 31.1081 27.4518 32.6931 28.343C33.076 28.5636 33.4394 28.8011 33.7953 29.0452C36.6235 27.7996 39.7485 27.103 43.0372 27.103C55.7213 27.1046 66.0038 37.384 66.0056 50.0681H66.0038C66.0038 56.4631 63.3881 62.2453 59.1716 66.4091C60.2066 66.5251 61.3103 66.5972 62.4375 66.5916C66.441 66.5935 70.7681 65.71 74.0122 62.9816C76.1275 61.1997 77.8997 58.5906 78.8825 54.6787C79.0747 53.1678 79.1853 51.6319 79.1853 50.0687C79.1853 30.1055 63.0022 13.9192 43.0381 13.9192Z" fill="#A0AEC0"/>
</svg>
