<svg width="100" height="100" viewBox="0 0 100 100" fill="none" xmlns="http://www.w3.org/2000/svg">
<path d="M48.7572 50.5408C48.4589 51.1871 48.1298 51.9132 47.7891 52.6861C46.5845 55.4154 45.2505 58.7365 44.7632 60.8642C44.5881 61.622 44.4797 62.561 44.4818 63.6023C44.4818 64.0141 44.5039 64.447 44.5389 64.8879C46.2419 65.5137 48.0813 65.8578 50.0022 65.8612C51.7509 65.8578 53.4309 65.5689 55.0032 65.0461C54.6336 64.7081 54.281 64.3479 53.9599 63.942C51.8282 61.2236 50.6389 57.2396 48.7572 50.5408Z" fill="white"/>
<path d="M40.8866 37.0343C36.8153 39.9037 34.1512 44.6362 34.1411 49.9994C34.1512 55.2824 36.7352 59.9537 40.704 62.835C41.6776 58.7796 44.1179 55.0664 47.7773 47.6233C47.56 47.0263 47.3123 46.3727 47.0351 45.6862C46.0214 43.1431 44.5582 40.1897 43.2525 38.8523C42.5868 38.1536 41.779 37.5499 40.8866 37.0343Z" fill="white"/>
<path d="M63.8181 68.1927C61.7175 67.9294 59.9839 67.6117 58.4673 67.0767C55.9165 68.3433 53.0439 69.0589 50.0021 69.0589C39.4774 69.0589 30.9456 60.5281 30.9443 49.9998C30.9443 44.2873 33.4609 39.1663 37.4422 35.6737C36.3773 35.4165 35.2669 35.2663 34.1326 35.2684C28.5408 35.321 22.6382 38.4158 20.1807 46.7736C19.951 47.9902 20.0057 48.91 20.0057 50.0003C20.0057 66.5684 33.4368 80 50.0029 80C60.1485 80 69.1111 74.9586 74.5386 67.2484C71.603 67.98 68.7799 68.3299 66.3624 68.3374C65.4563 68.3374 64.6057 68.2889 63.8181 68.1927Z" fill="white"/>
<path d="M58.1812 62.3799C58.3663 62.4717 58.7862 62.6216 59.3705 62.7873C63.3012 59.9016 65.8556 55.2534 65.8657 49.9999H65.8641C65.8494 41.2417 58.7621 34.1552 50.0021 34.1378C48.2609 34.1412 46.5882 34.4285 45.0221 34.9475C48.2428 38.6187 49.7915 43.8652 51.2897 49.6042C51.2904 49.6068 51.2917 49.6089 51.2923 49.6109C51.2951 49.6156 51.7715 51.2046 52.5894 53.3128C53.4017 55.4181 54.5588 58.0245 55.8207 59.9239C56.6493 61.1968 57.5606 62.1115 58.1812 62.3799Z" fill="white"/>
<path d="M50.0028 20C39.9552 20 31.0674 24.9464 25.6235 32.5309C28.4567 30.7565 31.3495 30.1164 33.8741 30.1392C37.3611 30.1494 40.1025 31.2306 41.4178 31.9702C41.7355 32.1533 42.0371 32.3504 42.3325 32.5529C44.6795 31.5192 47.2728 30.9411 50.002 30.9411C60.528 30.9424 69.0611 39.4732 69.0627 49.9997H69.0611C69.0611 55.3069 66.8905 60.1055 63.3913 63.5609C64.2502 63.6572 65.1662 63.7171 66.1016 63.7124C69.4239 63.7139 73.0149 62.9808 75.707 60.7165C77.4624 59.2377 78.9331 57.0725 79.7487 53.826C79.9082 52.5721 80 51.2974 80 50.0002C80 33.4329 66.5702 20 50.0028 20Z" fill="white"/>
</svg>
