<svg width="84" height="84" viewBox="0 0 84 84" fill="none" xmlns="http://www.w3.org/2000/svg">
<path d="M40.4168 42.9035C40.0007 43.805 39.5417 44.818 39.0663 45.896C37.3859 49.7032 35.525 54.336 34.8452 57.3039C34.601 58.361 34.4498 59.6709 34.4527 61.1234C34.4527 61.6979 34.4835 62.3017 34.5323 62.9167C36.908 63.7896 39.474 64.2697 42.1536 64.2744C44.593 64.2697 46.9365 63.8666 49.1299 63.1373C48.6143 62.666 48.1224 62.1635 47.6745 61.5973C44.7008 57.8053 43.0417 52.2479 40.4168 42.9035Z" fill="#A0AEC0"/>
<path d="M29.4375 24.0629C23.7581 28.0655 20.0417 34.667 20.0276 42.1482C20.0417 49.5177 23.6463 56.0338 29.1828 60.053C30.5408 54.3961 33.945 49.2164 39.0499 38.8338C38.7467 38.001 38.4013 37.0893 38.0145 36.1318C36.6004 32.5843 34.5593 28.4645 32.7378 26.5989C31.8092 25.6243 30.6823 24.7821 29.4375 24.0629Z" fill="#A0AEC0"/>
<path d="M61.4265 67.5266C58.4962 67.1594 56.0778 66.7163 53.9622 65.9699C50.4039 67.7368 46.3966 68.7349 42.1535 68.7349C27.4717 68.7349 15.57 56.835 15.5682 42.1489C15.5682 34.1803 19.0787 27.0369 24.6325 22.165C23.1471 21.8062 21.5981 21.5967 20.0157 21.5996C12.2153 21.673 3.98124 25.99 0.553162 37.6485C0.232639 39.3456 0.308971 40.6287 0.308971 42.1496C0.308971 65.2609 19.0451 83.997 42.1546 83.997C56.3075 83.997 68.8101 76.9647 76.3814 66.2094C72.2863 67.23 68.3481 67.718 64.9757 67.7285C63.7117 67.7285 62.5252 67.6608 61.4265 67.5266Z" fill="#A0AEC0"/>
<path d="M53.5631 59.4182C53.8214 59.5463 54.4071 59.7554 55.2221 59.9866C60.7054 55.9612 64.2688 49.4773 64.2829 42.1491H64.2807C64.2601 29.9319 54.3734 20.0467 42.1534 20.0225C39.7245 20.0272 37.3911 20.428 35.2064 21.1519C39.6992 26.2731 41.8596 33.5915 43.9496 41.597C43.9506 41.6006 43.9524 41.6035 43.9532 41.6064C43.9572 41.6129 44.6217 43.8295 45.7627 46.7702C46.8958 49.707 48.51 53.3428 50.2703 55.9923C51.4261 57.7679 52.6974 59.0438 53.5631 59.4182Z" fill="#A0AEC0"/>
<path d="M42.1544 0.30127C28.1382 0.30127 15.7398 7.20119 8.14565 17.781C12.0979 15.3058 16.1334 14.413 19.6552 14.4448C24.5195 14.4589 28.3437 15.9671 30.1785 16.9988C30.6217 17.2543 31.0424 17.5292 31.4545 17.8117C34.7284 16.3697 38.3461 15.5634 42.1533 15.5634C56.8369 15.5652 68.7404 27.465 68.7426 42.1487H68.7404C68.7404 49.5518 65.7124 56.2455 60.8312 61.0657C62.0293 61.1999 63.3071 61.2835 64.6119 61.277C69.2465 61.2791 74.2559 60.2564 78.0113 57.0979C80.4601 55.0351 82.5117 52.0147 83.6494 47.4861C83.8719 45.737 84 43.959 84 42.1494C84 19.0392 65.2657 0.30127 42.1544 0.30127Z" fill="#A0AEC0"/>
</svg>
