<svg width="99" height="100" viewBox="0 0 99 100" fill="none" xmlns="http://www.w3.org/2000/svg">
<g clip-path="url(#clip0_1564_223)">
<path d="M48.9996 4C23.6364 4 3 24.6364 3 50.0004C3 75.3665 23.6364 96.0018 48.9996 96.0018C74.3636 96.0018 95 75.3665 95 50.0004C95 24.6364 74.3636 4 48.9996 4Z" fill="white"/>
<path d="M47.3174 50.8276C46.9041 51.7232 46.4481 52.7295 45.9758 53.8004C44.3066 57.5825 42.4579 62.1846 41.7827 65.1329C41.5401 66.183 41.3899 67.4843 41.3927 68.9272C41.3927 69.4979 41.4233 70.0977 41.4718 70.7086C43.8318 71.5758 46.3809 72.0527 49.0428 72.0574C51.466 72.0527 53.7941 71.6523 55.9729 70.9278C55.4608 70.4596 54.9721 69.9604 54.5272 69.398C51.5731 65.631 49.925 60.1103 47.3174 50.8276Z" fill="#91DC47"/>
<path d="M36.4111 32.1121C30.7692 36.0882 27.0774 42.6461 27.0634 50.0779C27.0774 57.3988 30.6582 63.8718 36.1581 67.8645C37.5072 62.2449 40.8889 57.0994 45.96 46.7853C45.6589 45.9581 45.3157 45.0524 44.9315 44.1012C43.5267 40.5771 41.4991 36.4846 39.6896 34.6313C38.7671 33.6631 37.6477 32.8265 36.4111 32.1121Z" fill="#91DC47"/>
<path d="M68.1885 75.2882C65.2775 74.9234 62.8751 74.4832 60.7735 73.7418C57.2387 75.497 53.2579 76.4885 49.0428 76.4885C34.4579 76.4885 22.6348 64.6672 22.633 50.078C22.633 42.1621 26.1204 35.0659 31.6375 30.2262C30.1619 29.8697 28.6231 29.6616 27.0512 29.6645C19.3023 29.7374 11.1226 34.0258 7.71715 45.6074C7.39874 47.2932 7.47457 48.5679 7.47457 50.0788C7.47457 73.0374 26.087 91.6498 49.0438 91.6498C63.1033 91.6498 75.5233 84.6639 83.0447 73.9797C78.9765 74.9935 75.0644 75.4783 71.7143 75.4887C70.4586 75.4887 69.2799 75.4215 68.1885 75.2882Z" fill="#63B132"/>
<path d="M60.3771 67.2331C60.6337 67.3603 61.2156 67.5681 62.0252 67.7977C67.4723 63.7989 71.0121 57.3578 71.0261 50.078H71.024C71.0035 37.9415 61.1821 28.1216 49.0428 28.0975C46.63 28.1022 44.312 28.5004 42.1417 29.2195C46.6048 34.3068 48.751 41.577 50.8271 49.5296C50.8282 49.5332 50.83 49.5361 50.8307 49.5389C50.8346 49.5454 51.4948 51.7473 52.6283 54.6686C53.7538 57.586 55.3574 61.1978 57.1061 63.8298C58.2543 65.5936 59.5171 66.8612 60.3771 67.2331Z" fill="#90B4FE"/>
<path d="M49.0439 8.50696C35.1203 8.50696 22.8038 15.3613 15.2598 25.8712C19.1859 23.4124 23.1948 22.5255 26.6933 22.5571C31.5254 22.5711 35.3244 24.0693 37.1471 25.0943C37.5874 25.348 38.0053 25.6211 38.4147 25.9018C41.667 24.4693 45.2608 23.6683 49.0428 23.6683C63.6295 23.6701 75.4544 35.4913 75.4565 50.078H75.4544C75.4544 57.4323 72.4464 64.0818 67.5974 68.8701C68.7876 69.0034 70.0569 69.0864 71.3532 69.08C75.9571 69.0821 80.9334 68.0662 84.6641 64.9285C87.0967 62.8793 89.1347 59.8789 90.2649 55.3802C90.486 53.6427 90.6132 51.8763 90.6132 50.0787C90.6132 27.1211 72.0026 8.50696 49.0439 8.50696Z" fill="#5881D8"/>
</g>
<defs>
<clipPath id="clip0_1564_223">
<rect width="92" height="92" fill="white" transform="translate(3 4)"/>
</clipPath>
</defs>
</svg>
