<svg width="100" height="100" viewBox="0 0 100 100" fill="none" xmlns="http://www.w3.org/2000/svg">
<path d="M48.5915 50.6129C48.2535 51.3453 47.8805 52.1683 47.4943 53.0442C46.1291 56.1374 44.6172 59.9014 44.0649 62.3127C43.8666 63.1716 43.7437 64.2359 43.7461 65.416C43.7461 65.8827 43.771 66.3732 43.8107 66.8729C45.7408 67.5821 47.8255 67.9722 50.0025 67.976C51.9844 67.9722 53.8883 67.6448 55.6703 67.0522C55.2515 66.6692 54.8517 66.261 54.4879 65.801C52.0719 62.7201 50.7241 58.2049 48.5915 50.6129Z" fill="white"/>
<path d="M39.6715 35.3056C35.0574 38.5575 32.038 43.921 32.0266 49.9993C32.038 55.9867 34.9666 61.2808 39.4646 64.5463C40.5679 59.9503 43.3336 55.7419 47.481 47.3064C47.2347 46.6298 46.954 45.8891 46.6398 45.1111C45.4909 42.2289 43.8327 38.8817 42.3528 37.366C41.5984 36.5741 40.6828 35.8899 39.6715 35.3056Z" fill="white"/>
<path d="M65.6605 70.6184C63.2798 70.32 61.315 69.96 59.5962 69.3536C56.7053 70.7891 53.4497 71.6001 50.0024 71.6001C38.0744 71.6001 28.405 61.9318 28.4036 49.9998C28.4036 43.5256 31.2557 37.7218 35.7678 33.7636C34.561 33.472 33.3025 33.3018 32.0169 33.3042C25.6796 33.3638 18.9899 36.8712 16.2048 46.3434C15.9444 47.7222 16.0065 48.7647 16.0065 50.0004C16.0065 68.7775 31.2283 84 50.0033 84C61.5017 84 71.6592 78.2865 77.8104 69.5482C74.4834 70.3773 71.2839 70.7738 68.544 70.7824C67.5171 70.7824 66.5531 70.7274 65.6605 70.6184Z" fill="white"/>
<path d="M59.272 64.0306C59.4818 64.1346 59.9577 64.3045 60.6199 64.4923C65.0747 61.2219 67.9697 55.9539 67.9811 49.9999H67.9794C67.9626 40.0739 59.9303 32.0425 50.0024 32.0228C48.029 32.0267 46.1333 32.3523 44.3584 32.9405C48.0085 37.1012 49.7637 43.0472 51.4616 49.5514C51.4625 49.5544 51.464 49.5567 51.4646 49.5591C51.4678 49.5643 52.0077 51.3652 52.9347 53.7545C53.8552 56.1405 55.1667 59.0944 56.5968 61.2471C57.5359 62.6897 58.5687 63.7263 59.272 64.0306Z" fill="white"/>
<path d="M50.0031 16C38.6159 16 28.543 21.606 22.3733 30.2017C25.5842 28.1907 28.8628 27.4653 31.724 27.4911C35.6759 27.5026 38.7828 28.728 40.2735 29.5662C40.6336 29.7737 40.9754 29.9971 41.3102 30.2267C43.9701 29.0551 46.9092 28.3999 50.0023 28.3999C61.9318 28.4014 71.6026 38.0697 71.6043 49.9996H71.6026C71.6026 56.0144 69.1426 61.4529 65.1768 65.3691C66.1503 65.4781 67.1883 65.546 68.2485 65.5407C72.0138 65.5425 76.0835 64.7116 79.1346 62.1453C81.1241 60.4694 82.7909 58.0154 83.7152 54.3361C83.896 52.915 84 51.4704 84 50.0002C84 31.2239 68.7796 16 50.0031 16Z" fill="white"/>
<rect width="100" height="100" stroke="white"/>
</svg>
