<svg width="85" height="100" viewBox="0 0 85 100" fill="none" xmlns="http://www.w3.org/2000/svg">
<path d="M41.5372 50.7197C41.1778 51.4985 40.7812 52.3735 40.3706 53.3047C38.919 56.5935 37.3115 60.5954 36.7244 63.1591C36.5134 64.0722 36.3828 65.2038 36.3853 66.4585C36.3853 66.9547 36.4119 67.4763 36.454 68.0075C38.5062 68.7616 40.7228 69.1763 43.0375 69.1804C45.1447 69.1763 47.1691 68.8282 49.0637 68.1982C48.6184 67.791 48.1934 67.3569 47.8066 66.8679C45.2378 63.5922 43.8047 58.7916 41.5372 50.7197Z" fill="#38B2AC"/>
<path d="M32.053 34.4451C27.1471 37.9026 23.9367 43.6051 23.9246 50.0676C23.9367 56.4335 27.0505 62.0622 31.833 65.5341C33.0061 60.6476 35.9467 56.1732 40.3564 47.2044C40.0946 46.4851 39.7961 45.6976 39.4621 44.8704C38.2405 41.806 36.4774 38.2473 34.9039 36.6357C34.1017 35.7938 33.1283 35.0663 32.053 34.4451Z" fill="#38B2AC"/>
<path d="M59.6858 71.99C57.1546 71.6728 55.0655 71.29 53.238 70.6453C50.1643 72.1715 46.7027 73.0337 43.0374 73.0337C30.3549 73.0337 20.074 62.7544 20.0724 50.0681C20.0724 43.1847 23.1049 37.014 27.9024 32.8056C26.6193 32.4956 25.2811 32.3147 23.9143 32.3172C17.1761 32.3806 10.0633 36.1097 7.10208 46.1806C6.8252 47.6465 6.89114 48.755 6.89114 50.0687C6.89114 70.0328 23.0758 86.2175 43.0383 86.2175C55.264 86.2175 66.064 80.1428 72.6043 70.8522C69.0668 71.7337 65.6649 72.1553 62.7518 72.1644C61.6599 72.1644 60.6349 72.1059 59.6858 71.99Z" fill="#38B2AC"/>
<path d="M52.8933 64.9855C53.1164 65.0961 53.6223 65.2768 54.3264 65.4765C59.0629 61.9993 62.1411 56.3983 62.1533 50.068H62.1514C62.1336 39.5146 53.5933 30.9755 43.0373 30.9546C40.9392 30.9587 38.9236 31.3049 37.0364 31.9302C40.9173 36.354 42.7836 42.6758 44.5889 49.5911C44.5898 49.5943 44.5914 49.5968 44.592 49.5993C44.5954 49.6049 45.1695 51.5196 46.1551 54.0599C47.1339 56.5968 48.5283 59.7374 50.0489 62.0261C51.0473 63.5599 52.1454 64.6621 52.8933 64.9855Z" fill="#38B2AC"/>
<path d="M43.0381 13.9192C30.9306 13.9192 20.2206 19.8795 13.6606 29.0186C17.0747 26.8804 20.5606 26.1092 23.6028 26.1367C27.8047 26.1489 31.1081 27.4517 32.6931 28.3429C33.076 28.5636 33.4394 28.8011 33.7953 29.0451C36.6235 27.7995 39.7485 27.1029 43.0372 27.1029C55.7213 27.1045 66.0038 37.3839 66.0056 50.0679H66.0038C66.0038 56.4629 63.3881 62.2451 59.1716 66.4089C60.2066 66.5248 61.3103 66.597 62.4375 66.5914C66.441 66.5933 70.7681 65.7098 74.0122 62.9814C76.1275 61.1995 77.8997 58.5904 78.8825 54.6786C79.0747 53.1676 79.1853 51.6317 79.1853 50.0686C79.1853 30.1054 63.0022 13.9192 43.0381 13.9192Z" fill="#38B2AC"/>
</svg>
