<svg width="100" height="100" viewBox="0 0 100 100" fill="none" xmlns="http://www.w3.org/2000/svg">
<path fill-rule="evenodd" clip-rule="evenodd" d="M76.109 35C75.6867 34.2751 75.1043 33.6421 74.4639 33.2755L52.2259 20.5499C50.9449 19.8167 48.8483 19.8167 47.5673 20.5499L25.3293 33.2755C24.0481 34.0085 23 35.8081 23 37.2743V62.7257C23 63.4589 23.2621 64.2754 23.6844 65C24.1065 65.7247 24.6889 66.3581 25.3293 66.7245L47.5674 79.4501C48.8484 80.1833 50.9449 80.1833 52.2259 79.4501L74.464 66.7245C75.1045 66.3579 75.6868 65.7249 76.1089 65C76.5309 64.2754 76.7931 63.4588 76.7931 62.7256V37.2742C76.7931 36.541 76.5312 35.7246 76.109 35ZM42.1338 54.4424L34.3709 58.8847C37.4756 64.1938 43.2724 67.7726 49.8965 67.7726C56.2768 67.7726 62.2271 64.3695 65.4252 58.8911L57.6651 54.4405C56.0643 57.1829 53.0875 58.8862 49.8965 58.8862C46.5844 58.8862 43.6861 57.0969 42.1338 54.4424ZM42.1338 54.4424L57.6628 45.5559L57.6645 45.5588L60.7262 43.8028L57.6628 45.5559L65.4246 41.108C62.2266 35.6302 56.2764 32.2272 49.8965 32.2272C40.0093 32.2272 31.9655 40.2 31.9655 49.9999C31.9655 53.2341 32.8416 56.2694 34.3709 58.8847L42.1338 54.4424ZM42.1338 54.4424L57.6628 45.5559C56.0617 42.8158 53.086 41.1136 49.8965 41.1136C44.9528 41.1136 40.931 45.0999 40.931 49.9999C40.931 51.617 41.3691 53.1347 42.1338 54.4424ZM67.8276 49.0125H65.8352V47.0378H63.8431V49.0125H61.8506V50.9872H63.8431V52.9621H65.8352V50.9872H67.8276V49.0125ZM73.3065 49.0125H75.2989V50.9872H73.3065V52.9621H71.3144V50.9872H69.3219V49.0125H71.3144V47.0378H73.3065V49.0125Z" fill="white"/>
</svg>
