<svg width="80" height="90" viewBox="0 0 80 90" fill="none" xmlns="http://www.w3.org/2000/svg">
<path fill-rule="evenodd" clip-rule="evenodd" d="M78.9595 22.4999C78.3318 21.4126 77.4659 20.4631 76.5137 19.9132L43.4514 0.824858C41.5469 -0.274953 38.4299 -0.274953 36.5253 0.824858L3.46305 19.9132C1.55824 21.0127 0 23.7121 0 25.9114V64.0883C0 65.1881 0.389691 66.4129 1.01748 67.4999C1.64501 68.5869 2.511 69.5369 3.46314 70.0866L36.5254 89.1749C38.43 90.2747 41.547 90.2747 43.4515 89.1749L76.5138 70.0866C77.4662 69.5367 78.3318 68.5871 78.9594 67.4999C79.5869 66.4129 79.9767 65.188 79.9767 64.0882V25.9113C79.9767 24.8115 79.5873 23.5869 78.9595 22.4999ZM28.4471 51.6635L16.9057 58.3268C21.5215 66.2906 30.1399 71.6587 39.9883 71.6587C49.4741 71.6587 58.3207 66.554 63.0754 58.3365L51.5381 51.6606C49.1582 55.7741 44.7325 58.3292 39.9883 58.3292C35.0641 58.3292 30.755 55.6452 28.4471 51.6635ZM28.4471 51.6635L51.5347 38.3337L51.5373 38.3381L56.0893 35.7041L51.5347 38.3337L63.0746 31.6619C58.3199 23.4452 49.4736 18.3408 39.9883 18.3408C25.2885 18.3408 13.3293 30.3 13.3293 44.9997C13.3293 49.8511 14.6319 54.4039 16.9057 58.3268L28.4471 51.6635ZM28.4471 51.6635L51.5347 38.3337C49.1544 34.2235 44.7302 31.6703 39.9883 31.6703C32.6382 31.6703 26.6588 37.6497 26.6588 44.9997C26.6588 47.4254 27.3102 49.702 28.4471 51.6635ZM66.6473 43.5187H63.685V40.5566H60.7233V43.5187H57.761V46.4807H60.7233V49.4429H63.685V46.4807H66.6473V43.5187ZM74.7929 43.5187H77.7552V46.4807H74.7929V49.4429H71.8312V46.4807H68.8689V43.5187H71.8312V40.5566H74.7929V43.5187Z" fill="#A0AEC0"/>
</svg>
