<svg width="99" height="100" viewBox="0 0 99 100" fill="none" xmlns="http://www.w3.org/2000/svg">
<path d="M84.4505 33.52C84.4499 32.1749 84.1622 30.9862 83.5805 29.9661C83.009 28.9629 82.1531 28.1221 81.0052 27.4573C71.5292 21.9934 62.044 16.5463 52.5711 11.0768C50.0173 9.60241 47.5411 9.65616 45.0062 11.1517C41.2345 13.3761 22.3507 24.195 16.7236 27.4543C14.4062 28.7958 13.2786 30.8489 13.278 33.5175C13.2744 44.5058 13.278 55.4937 13.2744 66.4822C13.2744 67.7979 13.5504 68.9634 14.1066 69.9682C14.6783 71.0017 15.5461 71.8656 16.7206 72.5455C22.348 75.8047 41.2342 86.6228 45.0051 88.8478C47.5411 90.3441 50.0173 90.3976 52.5719 88.9227C62.0451 83.4529 71.5309 78.006 81.0082 72.5421C82.1827 71.8626 83.0505 70.9981 83.6222 69.9654C84.1776 68.9606 84.4541 67.7951 84.4541 66.4792C84.4541 66.4792 84.4541 44.5085 84.4505 33.52Z" fill="#659AD2"/>
<path d="M48.9732 49.8928L14.1066 69.9682C14.6783 71.0018 15.5461 71.8657 16.7206 72.5455C22.348 75.8048 41.2342 86.6229 45.0051 88.8478C47.5411 90.3442 50.0173 90.3976 52.5719 88.9227C62.0451 83.453 71.5309 78.0061 81.0082 72.5422C82.1827 71.8626 83.0505 70.9981 83.6222 69.9655L48.9732 49.8928Z" fill="#004482"/>
<path d="M84.4505 33.52C84.4499 32.1749 84.1622 30.9862 83.5804 29.9661L48.9731 49.8928L83.6222 69.9654C84.1776 68.9606 84.4535 67.7951 84.4541 66.4791C84.4541 66.4791 84.4541 44.5085 84.4505 33.52Z" fill="#00599C"/>
<path d="M49.0496 23.5424C58.8372 23.5424 67.3825 28.8579 71.9596 36.7589L71.9149 36.6828L60.3993 43.3135C58.1305 39.4719 53.9711 36.8795 49.1999 36.8261L49.0496 36.8253C41.7736 36.8253 35.8749 42.7238 35.8749 49.9997C35.8749 52.3791 36.5092 54.6095 37.6124 56.536C39.8833 60.5005 44.1524 63.1745 49.0496 63.1745C53.9771 63.1745 58.2705 60.4665 60.5298 56.4596L60.4749 56.5558L71.9733 63.217C67.4464 71.0511 59.0181 76.3502 49.3443 76.4558L49.0496 76.4574C39.2312 76.4574 30.6616 71.1092 26.096 63.1664C23.8672 59.2889 22.5919 54.7935 22.5919 49.9997C22.5919 35.3879 34.4372 23.5424 49.0496 23.5424Z" fill="white"/>
<path d="M72.8889 48.6295H70.2591V46H67.6298V48.6295H65V51.2591H67.6298V53.8889H70.2591V51.2591H72.8889V48.6295Z" fill="white"/>
<path d="M82.75 48.6701H80.1202V46.0405H77.4909V48.6701H74.8611V51.2996H77.4909V53.9294H80.1202V51.2996H82.75V48.6701Z" fill="white"/>
</svg>
