<svg width="90" height="100" viewBox="0 0 90 100" fill="none" xmlns="http://www.w3.org/2000/svg">
<path d="M81.8866 60.6332L54.7417 87.7236C54.6332 87.8322 54.4703 87.8866 54.3617 87.8322L17.282 77.8972C17.1192 77.843 17.0106 77.7343 17.0106 77.6258L7.0213 40.6004C6.96701 40.4375 7.0213 40.3289 7.12987 40.2204L34.2747 13.1298C34.3832 13.0213 34.5461 12.967 34.6547 13.0213L71.7344 22.9562C71.8972 23.0106 72.0058 23.1192 72.0058 23.2277L81.9408 60.2532C82.0494 60.416 81.9951 60.5247 81.8866 60.6332ZM45.5125 31.154L9.08428 40.8718C9.02996 40.8718 8.97575 40.9804 9.02996 41.0347L35.6861 67.6366C35.7404 67.6908 35.849 67.6908 35.849 67.5822L45.6212 31.2083C45.6754 31.2083 45.5668 31.0997 45.5125 31.154Z" fill="#38B2AC"/>
</svg>
