<svg width="100" height="100" viewBox="0 0 100 100" fill="none" xmlns="http://www.w3.org/2000/svg">
<path d="M83.8971 59.2719L59.2859 83.882C59.1874 83.9806 59.0398 84.03 58.9413 83.9807L25.3224 74.9553C25.1747 74.906 25.0762 74.8074 25.0762 74.7087L16.0193 41.0733C15.9701 40.9253 16.0193 40.8267 16.1178 40.7281L40.729 16.118C40.8274 16.0193 40.9751 15.97 41.0736 16.0193L74.6925 25.0447C74.8402 25.094 74.9386 25.1926 74.9386 25.2913L83.9463 58.9267C84.0448 59.0747 83.9956 59.1733 83.8971 59.2719ZM50.9181 32.4918L17.8898 41.3199C17.8405 41.3199 17.7913 41.4185 17.8405 41.4678L42.0088 65.6341C42.058 65.6834 42.1565 65.6834 42.1565 65.5847L51.0165 32.5411C51.0657 32.5411 50.9673 32.4425 50.9181 32.4918Z" fill="#38B2AC"/>
<rect width="100" height="100" stroke="#38B2AC"/>
</svg>
