<svg width="85" height="100" viewBox="0 0 85 100" fill="none" xmlns="http://www.w3.org/2000/svg">
<path d="M76.8273 59.143L52.2413 83.6797C52.143 83.7781 51.9955 83.8273 51.8971 83.7781L18.3128 74.7796C18.1653 74.7305 18.0669 74.6321 18.0669 74.5338L9.01929 40.9986C8.97012 40.8511 9.01929 40.7527 9.11763 40.6544L33.7036 16.1176C33.8019 16.0193 33.9494 15.9701 34.0478 16.0193L67.6321 25.0177C67.7796 25.0669 67.878 25.1653 67.878 25.2636L76.8764 58.7988C76.9748 58.9463 76.9256 59.0447 76.8273 59.143ZM43.8821 32.4427L10.8878 41.2444C10.8386 41.2444 10.7895 41.3428 10.8386 41.392L34.982 65.4862C35.0312 65.5353 35.1295 65.5353 35.1295 65.437L43.9805 32.4919C44.0296 32.4919 43.9313 32.3935 43.8821 32.4427Z" fill="#A0AEC0"/>
</svg>
