<svg width="83" height="83" viewBox="0 0 83 83" fill="none" xmlns="http://www.w3.org/2000/svg">
<path d="M82.8757 53.0672L53.1721 82.7114C53.0533 82.8302 52.8751 82.8896 52.7563 82.8302L12.1812 71.9587C12.003 71.8993 11.8842 71.7805 11.8842 71.6617L0.953237 31.146C0.89383 30.9678 0.953238 30.849 1.07205 30.7301L30.7756 1.08597C30.8945 0.967154 31.0727 0.907746 31.1915 0.967153L71.7666 11.8387C71.9448 11.8981 72.0636 12.0169 72.0636 12.1357L82.9351 52.6514C83.054 52.8296 82.9945 52.9484 82.8757 53.0672ZM43.0729 20.8091L3.21071 31.443C3.1513 31.443 3.0919 31.5618 3.1513 31.6213L32.3202 60.7308C32.3796 60.7902 32.4984 60.7902 32.4984 60.6714L43.1917 20.8686C43.2511 20.8686 43.1323 20.7497 43.0729 20.8091Z" fill="#A0AEC0"/>
</svg>
