<svg width="100" height="100" viewBox="0 0 100 100" fill="none" xmlns="http://www.w3.org/2000/svg">
<path d="M79.9092 58.1811L58.1934 79.8959C58.1066 79.9829 57.9763 80.0264 57.8894 79.9829L28.2256 72.0194C28.0953 71.9759 28.0085 71.8888 28.0085 71.8018L20.017 42.1235C19.9736 41.9929 20.017 41.9059 20.1039 41.8189L41.8197 20.1041C41.9066 20.0171 42.0369 19.9736 42.1237 20.0171L71.7875 27.9806C71.9178 28.0241 72.0047 28.1112 72.0047 28.1982L79.9527 57.8765C80.0395 58.0071 79.9961 58.0941 79.9092 58.1811ZM50.81 34.5516L21.6674 42.3411C21.624 42.3411 21.5806 42.4281 21.624 42.4716L42.9489 63.7948C42.9924 63.8383 43.0792 63.8383 43.0792 63.7512L50.8969 34.5951C50.9403 34.5951 50.8535 34.5081 50.81 34.5516Z" fill="#38B2AC"/>
</svg>
