<svg width="82" height="82" viewBox="0 0 82 82" fill="none" xmlns="http://www.w3.org/2000/svg">
<path d="M81.8759 52.1809L52.1977 81.8577C52.079 81.9767 51.9009 82.0361 51.7822 81.9767L11.2417 71.0932C11.0636 71.0337 10.9449 70.9148 10.9449 70.7958L0.0232858 30.2354C-0.0360708 30.057 0.0232862 29.9381 0.141999 29.8191L29.8203 0.142277C29.939 0.0233318 30.117 -0.0361413 30.2358 0.0233313L70.7763 10.9068C70.9543 10.9663 71.0731 11.0852 71.0731 11.2042L81.9353 51.7646C82.054 51.943 81.9947 52.0619 81.8759 52.1809ZM42.1071 19.8872L2.27883 30.5328C2.21948 30.5328 2.16012 30.6518 2.21948 30.7112L31.3635 59.8528C31.4229 59.9123 31.5416 59.9123 31.5416 59.7934L42.2258 19.9467C42.2851 19.9467 42.1664 19.8277 42.1071 19.8872Z" fill="black"/>
</svg>
