<svg width="90" height="100" viewBox="0 0 90 100" fill="none" xmlns="http://www.w3.org/2000/svg">
<path d="M84.879 60.8087L55.9245 89.7052C55.8087 89.8211 55.635 89.879 55.5191 89.8211L15.9675 79.2237C15.7938 79.1659 15.6779 79.05 15.6779 78.9342L5.02272 39.4404C4.96481 39.2667 5.02272 39.1508 5.13853 39.035L34.093 10.1385C34.2088 10.0227 34.3825 9.96479 34.4983 10.0227L74.05 20.62C74.2237 20.6779 74.3396 20.7938 74.3396 20.9096L84.9368 60.4034C85.0527 60.5771 84.9948 60.693 84.879 60.8087ZM46.08 29.3643L7.22323 39.7299C7.16529 39.7299 7.10746 39.8458 7.16529 39.9037L35.5985 68.279C35.6565 68.3368 35.7722 68.3368 35.7722 68.2211L46.1959 29.4222C46.2537 29.4222 46.138 29.3063 46.08 29.3643Z" fill="#A0AEC0"/>
</svg>
