<svg width="90" height="100" viewBox="0 0 90 100" fill="none" xmlns="http://www.w3.org/2000/svg">
<g clip-path="url(#clip0_1559_75)">
<g opacity="0.25" filter="url(#filter0_f_1559_75)">
<path d="M86.8287 59.69H86.8187L76.2987 20.5C76.1387 19.69 75.5287 19.01 74.6787 18.72C74.6387 18.72 74.6087 18.7 74.5687 18.69L35.0987 8.11C34.8687 8.04 34.6287 8 34.3887 8C33.7587 8 33.1287 8.26 32.6687 8.72L3.72874 37.62C3.07874 38.27 2.84874 39.15 3.09874 40L13.7187 79.35C13.8787 80.16 14.4887 80.84 15.3387 81.12C15.3787 81.13 15.4087 81.14 15.4487 81.15L54.9187 91.73C55.1487 91.8 55.3887 91.84 55.6287 91.84C56.2587 91.84 56.8887 91.58 57.3487 91.12L86.2987 62.22C86.9987 61.52 87.1887 60.55 86.8287 59.69ZM46.1787 29.42L35.7587 68.22C35.7587 68.34 35.6487 68.34 35.5887 68.28L7.15874 39.9C7.09874 39.85 7.15874 39.73 7.21874 39.73L46.0587 29.36C46.1187 29.3 46.2387 29.42 46.1787 29.42Z" fill="white"/>
</g>
<path d="M84.9387 60.4L74.3387 20.91C74.3387 20.79 74.2187 20.68 74.0487 20.62L34.4987 10.02C34.3787 9.96998 34.2087 10.02 34.0887 10.14L5.13872 39.03C5.01872 39.15 4.95872 39.27 5.01872 39.44L15.6787 78.94C15.6787 79.06 15.7987 79.17 15.9687 79.23L55.5187 89.83C55.6387 89.88 55.8087 89.83 55.9287 89.71L84.8787 60.81C84.9987 60.69 85.0587 60.57 84.9387 60.4ZM46.1787 29.42L35.7587 68.22C35.7587 68.34 35.6487 68.34 35.5887 68.28L7.15872 39.9C7.09872 39.85 7.15872 39.73 7.21872 39.73L46.0587 29.36C46.1187 29.3 46.2387 29.42 46.1787 29.42Z" fill="black"/>
<path d="M46.1788 29.4201L35.7588 68.2201C35.7588 68.3401 35.6488 68.3401 35.5888 68.2801L7.15876 39.9001C7.09876 39.8501 7.15876 39.7301 7.21876 39.7301L46.0588 29.3601C46.1188 29.3001 46.2388 29.4201 46.1788 29.4201Z" fill="white"/>
</g>
<defs>
<filter id="filter0_f_1559_75" x="-2" y="3" width="94.0069" height="93.84" filterUnits="userSpaceOnUse" color-interpolation-filters="sRGB">
<feFlood flood-opacity="0" result="BackgroundImageFix"/>
<feBlend mode="normal" in="SourceGraphic" in2="BackgroundImageFix" result="shape"/>
<feGaussianBlur stdDeviation="2.5" result="effect1_foregroundBlur_1559_75"/>
</filter>
<clipPath id="clip0_1559_75">
<rect width="90" height="100" fill="white"/>
</clipPath>
</defs>
</svg>
