<svg width="100" height="100" viewBox="0 0 100 100" fill="none" xmlns="http://www.w3.org/2000/svg">
<path d="M48.4816 43.8418C48.4816 43.8418 47.6523 36.0081 39.9806 35.7906C32.3088 35.573 28.3689 41.6659 28.3689 50.3699C28.3689 59.0739 32.7232 66.0375 40.1877 66.0375C47.6523 66.0375 48.4816 57.3335 48.4816 57.3335L62.7885 58.2038C62.7885 58.2038 63.6309 66.0649 57.644 72.0626C51.6569 78.0597 44.3083 79.0396 39.1764 78.9988C34.0446 78.9574 26.9292 79.0803 20.0485 71.9402C13.1677 64.8002 12 57.8639 12 51.0503C12 44.2364 13.3049 35.21 21.4862 28.365C27.0465 23.7137 32.683 22 38.3205 22C61.855 22 63.4356 43.9917 63.4356 43.9917L48.4816 43.8418Z" fill="black"/>
<path d="M80.3866 67.6005L85.7427 34.4369H90.8437L85.4876 67.6005H80.3866ZM65.7688 59.3744L66.6137 54.1926H92.119L91.2741 59.3744H65.7688ZM68.9092 67.6005L74.2653 34.4369H79.3664L74.0102 67.6005H68.9092ZM67.6339 47.8448L68.4947 42.663H94L93.1392 47.8448H67.6339Z" fill="black"/>
</svg>
