<svg width="100" height="100" viewBox="0 0 100 100" fill="none" xmlns="http://www.w3.org/2000/svg">
<path d="M49.253 45.0099C49.253 45.0099 48.5653 38.5506 42.2034 38.3712C35.8415 38.1918 32.5742 43.2157 32.5742 50.3927C32.5742 57.5697 36.1851 63.3116 42.3751 63.3116C48.5653 63.3116 49.253 56.1346 49.253 56.1346L61.1173 56.8522C61.1173 56.8522 61.8159 63.3342 56.8511 68.2797C51.8862 73.2247 45.7923 74.0326 41.5366 73.999C37.2809 73.9649 31.3803 74.0662 25.6743 68.1788C19.9683 62.2914 19 56.572 19 50.9537C19 45.3353 20.0821 37.8924 26.8666 32.2483C31.4776 28.4131 36.1518 27 40.8267 27C60.3432 27 61.6539 45.1335 61.6539 45.1335L49.253 45.0099Z" fill="#A0AEC0"/>
<path d="M75.7108 64.6004L80.1525 37.255H84.3826L79.9409 64.6004H75.7108ZM63.5888 57.8175L64.2894 53.5448H85.4402L84.7395 57.8175H63.5888ZM66.193 64.6004L70.6346 37.255H74.8648L70.4231 64.6004H66.193ZM65.1354 48.3106L65.8493 44.0379H87L86.2862 48.3106H65.1354Z" fill="#A0AEC0"/>
</svg>
