<svg width="100" height="69" viewBox="0 0 100 69" fill="none" xmlns="http://www.w3.org/2000/svg">
<path d="M44.4898 26.4401C44.4898 26.4401 43.4784 16.9572 34.1227 16.6939C24.7669 16.4305 19.962 23.806 19.962 34.3425C19.962 44.8789 25.2722 53.3085 34.3752 53.3085C43.4784 53.3085 44.4898 42.7721 44.4898 42.7721L61.9372 43.8256C61.9372 43.8256 62.9645 53.3418 55.6634 60.6021C48.362 67.8618 39.4004 69.0479 33.142 68.9986C26.8836 68.9484 18.2064 69.0972 9.8152 60.4539C1.42398 51.8108 0 43.4141 0 35.1661C0 26.9177 1.5913 15.991 11.5686 7.70501C18.3494 2.07449 25.2232 0 32.0981 0C60.7988 0 62.7264 26.6215 62.7264 26.6215L44.4898 26.4401Z" fill="black"/>
<path d="M83.3983 55.2007L89.9301 15.0552H96.1509L89.619 55.2007H83.3983ZM65.5718 45.2427L66.6021 38.97H97.7061L96.6757 45.2427H65.5718ZM69.4015 55.2007L75.9332 15.0552H82.1541L75.6222 55.2007H69.4015ZM67.8462 31.2858L68.896 25.0131H100L98.9503 31.2858H67.8462Z" fill="black"/>
</svg>
