<svg width="101" height="69" viewBox="0 0 101 69" fill="none" xmlns="http://www.w3.org/2000/svg">
<path d="M45.3366 26.315C45.3366 26.315 44.3225 16.8847 34.941 16.6228C25.5593 16.3609 20.7412 23.6956 20.7412 34.1736C20.7412 44.6516 26.0661 53.0345 35.1942 53.0345C44.3225 53.0345 45.3366 42.5565 45.3366 42.5565L62.8322 43.6042C62.8322 43.6042 63.8623 53.0675 56.5411 60.2876C49.2196 67.5071 40.2332 68.6866 33.9576 68.6376C27.6819 68.5877 18.9807 68.7357 10.5664 60.1403C2.15203 51.545 0.724121 43.195 0.724121 34.9927C0.724121 26.79 2.31981 15.9238 12.3246 7.68378C19.1241 2.08447 26.0169 0.0214844 32.9108 0.0214844C61.6906 0.0214844 63.6236 26.4954 63.6236 26.4954L45.3366 26.315Z" fill="white"/>
<path d="M84.3524 54.9161L90.9023 14.9932H97.1402L90.5903 54.9161H84.3524ZM66.4768 45.0134L67.5099 38.7755H98.6998L97.6665 45.0134H66.4768ZM70.3171 54.9161L76.8668 14.9932H83.1049L76.555 54.9161H70.3171ZM68.7575 31.1339L69.8102 24.896H101L99.9474 31.1339H68.7575Z" fill="white"/>
</svg>
