<svg width="98" height="100" viewBox="0 0 98 100" fill="none" xmlns="http://www.w3.org/2000/svg">
<path d="M46.0097 42.9914C46.0097 42.9914 45.1229 34.7454 36.9196 34.5164C28.7162 34.2874 24.5032 40.7009 24.5032 49.863C24.5032 59.0251 29.1593 66.3552 37.141 66.3552C45.1229 66.3552 46.0097 57.1931 46.0097 57.1931L61.308 58.1092C61.308 58.1092 62.2088 66.3841 55.807 72.6974C49.405 79.0102 41.5472 80.0416 36.0597 79.9987C30.5722 79.9551 22.9638 80.0845 15.6062 72.5686C8.24858 65.0528 7 57.7514 7 50.5792C7 43.4067 8.39529 33.9052 17.1436 26.7C23.0892 21.8039 29.1163 20 35.1444 20C60.3098 20 62 43.1491 62 43.1491L46.0097 42.9914V42.9914Z" fill="#A0AEC0"/>
<path d="M80.125 68L85.8523 33.0909H91.3068L85.5795 68H80.125ZM64.4943 59.3409L65.3977 53.8864H92.6705L91.767 59.3409H64.4943ZM67.8523 68L73.5795 33.0909H79.0341L73.3068 68H67.8523ZM66.4886 47.2045L67.4091 41.75H94.6818L93.7614 47.2045H66.4886Z" fill="#A0AEC0"/>
</svg>
