<svg width="57" height="89" viewBox="0 0 57 89" fill="none" xmlns="http://www.w3.org/2000/svg">
<path fill-rule="evenodd" clip-rule="evenodd" d="M31.0027 0.872038C24.6313 3.13044 18.4808 9.72211 12.5512 20.6471C3.65673 37.0345 -7.83085 60.3213 7.98764 78.7588C15.3058 87.2885 27.3889 92.3227 43.2461 84.3497C55.985 77.9445 59.5278 59.5634 54.9544 50.9258C45.5203 33.1081 35.949 28.7135 33.386 17.6637C31.6773 10.2973 30.8829 4.70002 31.0027 0.872038Z" fill="#A0AEC0" fill-opacity="0.5"/>
<path fill-rule="evenodd" clip-rule="evenodd" d="M31.0027 0.651367C24.599 2.93305 18.4485 9.52473 12.5512 20.4264C3.70524 36.7789 -7.83082 60.1006 7.98767 78.5381C15.3058 87.0679 27.2334 89.8242 33.8518 84.7654C38.1664 81.4674 41.1008 78.3238 42.7915 71.7002C44.6741 64.3249 43.2297 54.3956 42.24 49.8342C40.9876 44.0622 40.5777 37.7271 41.0102 30.8288C40.8578 30.6431 40.7439 30.5041 40.6686 30.4119C37.223 26.1951 34.5641 22.5221 33.386 17.4431C31.6774 10.0766 30.8829 4.47935 31.0027 0.651367Z" fill="#A0AEC0" fill-opacity="0.5"/>
<path fill-rule="evenodd" clip-rule="evenodd" d="M25.7003 3.52034C19.7357 8.23432 15.3009 16.1413 12.3959 27.2412C8.0384 43.8911 7.56621 59.245 9.10304 68.1756C12.0823 85.4881 27.5276 92.0597 43.3701 84.0014C53.1199 79.0422 57.1807 68.3973 56.9656 56.8428C56.7428 44.8789 33.6234 31.3198 29.5289 21.3352C26.7993 14.6787 25.5231 8.74045 25.7003 3.52034Z" fill="#A0AEC0" fill-opacity="0.5"/>
<path fill-rule="evenodd" clip-rule="evenodd" d="M40.8217 34.7357C47.975 43.9096 49.5343 50.2958 45.4996 53.8942C39.4475 59.2918 24.6475 62.8136 15.4404 56.2843C9.30226 51.9314 6.97983 42.5936 8.47306 28.2707C5.93925 33.5623 3.79689 38.9228 2.04598 44.3521C0.295064 49.7813 -0.216235 55.463 0.512083 61.397C2.70638 65.8363 8.04151 68.8012 16.5175 70.2917C29.2314 72.5275 41.2649 71.4227 49.3393 67.3523C54.7223 64.6388 57.2684 61.9375 56.9777 59.2485C57.172 55.2776 55.9475 51.4976 53.3042 47.9084C50.661 44.3192 46.5001 39.9283 40.8217 34.7357Z" fill="#A0AEC0" fill-opacity="0.5"/>
<path fill-rule="evenodd" clip-rule="evenodd" d="M12.8678 25.5753C12.808 32.2008 14.5116 38.4991 17.9785 44.4702C23.179 53.4269 29.2494 62.2773 38.3332 69.6134C44.389 74.5041 49.2279 76.0842 52.8498 74.3537C49.8749 79.6777 46.7118 82.2866 43.3603 82.1802C38.3332 82.0206 32.2034 79.8236 22.3819 68.0211C15.8342 60.1527 11.3549 52.7098 8.94407 45.6922C9.32638 42.9083 9.73178 40.1354 10.1603 37.3735C10.5888 34.6117 11.4913 30.6789 12.8678 25.5753Z" fill="#A0AEC0" fill-opacity="0.5"/>
<path fill-rule="evenodd" clip-rule="evenodd" d="M28.2314 34.6677C28.787 40.065 30.8873 48.6987 28.2314 54.4471C25.5755 60.1955 13.3081 70.58 16.6944 79.7279C20.0807 88.8759 28.333 86.8221 33.5096 82.6063C38.6861 78.3904 41.4569 71.5353 42.0711 66.7144C42.6853 61.8936 40.6016 52.6174 39.924 44.5489C39.4722 39.1699 39.7787 34.5579 40.8436 30.7131L39.2574 28.7171L29.921 25.9527C28.4241 28.1645 27.8609 31.0695 28.2314 34.6677Z" fill="#A0AEC0" fill-opacity="0.5"/>
<path fill-rule="evenodd" clip-rule="evenodd" d="M31.5641 7.93415C28.5423 9.211 25.6793 11.741 22.9751 15.5243C18.9188 21.1992 16.8528 24.6009 18.3821 35.8499C19.4015 43.3492 20.1313 50.2485 20.5712 56.5476L33.6478 18.5539C33.1671 16.618 32.7672 14.8696 32.4483 13.3087C32.1293 11.7479 31.8346 9.95633 31.5641 7.93415Z" fill="#A0AEC0" fill-opacity="0.5"/>
<path fill-rule="evenodd" clip-rule="evenodd" d="M33.6227 18.4784C30.3031 20.416 27.7309 24.3855 25.906 30.3872C24.0811 36.3888 22.4116 44.7789 20.8974 55.5575C22.917 48.7019 24.2566 43.7364 24.9164 40.661C25.906 36.048 26.2441 29.5246 28.8718 25.0958C30.6236 22.1433 32.2072 19.9375 33.6227 18.4784Z" fill="#A0AEC0" fill-opacity="0.5"/>
<path fill-rule="evenodd" clip-rule="evenodd" d="M18.2523 82.7831C23.7152 83.5635 26.5717 84.2574 26.8219 84.8646C27.1973 85.7755 26.1304 86.6087 23.0981 86.0488C21.0765 85.6755 19.4612 84.5869 18.2523 82.7831Z" fill="#A0AEC0" fill-opacity="0.5"/>
<path fill-rule="evenodd" clip-rule="evenodd" d="M20.9968 7.93415C17.9921 11.5237 15.3884 15.3292 13.1859 19.3506C10.9833 23.3721 9.40953 26.3722 8.4645 28.3511C8.1716 29.827 8.02864 32.0047 8.03561 34.8843C8.0426 37.7639 8.29166 40.9656 8.78282 44.4896C9.21284 37.589 10.5292 30.8907 12.7321 24.3949C14.9349 17.8991 17.6898 12.4122 20.9968 7.93415Z" fill="#A0AEC0" fill-opacity="0.5"/>
</svg>
