<svg width="70" height="100" viewBox="0 0 70 100" fill="none" xmlns="http://www.w3.org/2000/svg">
<path fill-rule="evenodd" clip-rule="evenodd" d="M36.9276 8.21387C30.7522 10.4028 24.7909 16.7917 19.0437 27.3806C10.4228 43.2639 -0.711346 65.8344 14.6205 83.7047C21.7135 91.972 33.4249 96.8513 48.7944 89.1235C61.1414 82.9155 64.5752 65.0998 60.1425 56.7279C50.9986 39.4583 41.7218 35.1988 39.2376 24.489C37.5815 17.3491 36.8115 11.9241 36.9276 8.21387Z" fill="url(#paint0_linear)"/>
<path fill-rule="evenodd" clip-rule="evenodd" d="M36.9276 8C30.7208 10.2115 24.7595 16.6004 19.0437 27.1667C10.4698 43.0162 -0.711356 65.6205 14.6205 83.4908C21.7135 91.7581 33.2742 94.4297 39.689 89.5265C43.8709 86.33 46.7151 83.283 48.3537 76.8632C50.1784 69.7148 48.7784 60.0909 47.8191 55.6698C46.6053 50.0754 46.208 43.9352 46.6272 37.2491C46.4795 37.0691 46.3691 36.9344 46.2961 36.845C42.9565 32.7579 40.3794 29.198 39.2376 24.2752C37.5815 17.1353 36.8115 11.7102 36.9276 8Z" fill="url(#paint1_linear)"/>
<path fill-rule="evenodd" clip-rule="evenodd" d="M31.7883 10.7808C26.0072 15.3497 21.7089 23.0134 18.8932 33.7719C14.6697 49.9097 14.2121 64.7912 15.7016 73.4471C18.5892 90.227 33.5594 96.5965 48.9146 88.786C58.3644 83.9794 62.3003 73.662 62.0918 62.4629C61.8759 50.867 39.4677 37.7251 35.4992 28.0476C32.8535 21.5959 31.6166 15.8403 31.7883 10.7808Z" fill="url(#paint2_linear)"/>
<path fill-rule="evenodd" clip-rule="evenodd" d="M46.4447 41.0359C53.3779 49.9276 54.8893 56.1174 50.9786 59.6051C45.1127 64.8366 30.768 68.25 21.8441 61.9216C15.8948 57.7027 13.6438 48.652 15.0911 34.7698C12.6352 39.8986 10.5588 45.0942 8.86173 50.3565C7.16468 55.6187 6.66911 61.1256 7.37503 66.8771C9.50182 71.1798 14.6728 74.0535 22.8881 75.4981C35.2109 77.6651 46.8742 76.5944 54.7002 72.6492C59.9176 70.0191 62.3854 67.4009 62.1036 64.7946C62.2919 60.9459 61.1051 57.2822 58.5432 53.8034C55.9812 50.3246 51.9484 46.0688 46.4447 41.0359Z" fill="url(#paint3_linear)"/>
<path fill-rule="evenodd" clip-rule="evenodd" d="M19.3506 32.1572C19.2927 38.5789 20.9439 44.6834 24.3042 50.4709C29.3446 59.152 35.2283 67.7301 44.0326 74.8406C49.9022 79.5809 54.5922 81.1124 58.1027 79.4351C55.2193 84.5953 52.1535 87.1239 48.9051 87.0208C44.0326 86.8661 38.0914 84.7367 28.572 73.2972C22.2258 65.6709 17.8843 58.4569 15.5476 51.6553C15.9182 48.957 16.3111 46.2694 16.7264 43.5925C17.1417 40.9156 18.0165 37.1038 19.3506 32.1572Z" fill="url(#paint4_linear)"/>
<path fill-rule="evenodd" clip-rule="evenodd" d="M34.2415 40.9698C34.7801 46.2011 36.8157 54.5692 34.2415 60.1408C31.6673 65.7123 19.7773 75.7774 23.0594 84.6439C26.3415 93.5104 34.34 91.5198 39.3573 87.4337C44.3746 83.3476 47.0602 76.7033 47.6555 72.0307C48.2508 67.3582 46.2312 58.3674 45.5744 50.547C45.1365 45.3335 45.4336 40.8634 46.4657 37.1369L44.9283 35.2023L35.8792 32.5229C34.4283 34.6667 33.8824 37.4823 34.2415 40.9698Z" fill="url(#paint5_linear)"/>
<path fill-rule="evenodd" clip-rule="evenodd" d="M37.4718 15.0588C34.543 16.2964 31.768 18.7486 29.147 22.4155C25.2155 27.9158 23.2131 31.2129 24.6953 42.1158C25.6834 49.3845 26.3907 56.0715 26.8171 62.1769L39.4914 25.3519C39.0255 23.4756 38.6379 21.7809 38.3288 20.2681C38.0197 18.7552 37.734 17.0188 37.4718 15.0588Z" fill="url(#paint6_linear)"/>
<path fill-rule="evenodd" clip-rule="evenodd" d="M39.4671 25.2786C36.2497 27.1565 33.7566 31.004 31.9878 36.821C30.2191 42.638 28.6009 50.77 27.1333 61.217C29.0907 54.5723 30.3891 49.7596 31.0286 46.7788C31.9878 42.3077 32.3154 35.985 34.8623 31.6924C36.5603 28.8307 38.0952 26.6928 39.4671 25.2786Z" fill="#A0AEC0" fill-opacity="0.22"/>
<path fill-rule="evenodd" clip-rule="evenodd" d="M24.5693 87.6052C29.8641 88.3617 32.6328 89.0342 32.8753 89.6227C33.2392 90.5056 32.2051 91.3132 29.266 90.7705C27.3066 90.4087 25.7411 89.3536 24.5693 87.6052Z" fill="#A0AEC0"/>
<path fill-rule="evenodd" clip-rule="evenodd" d="M27.2295 15.0588C24.3172 18.538 21.7936 22.2264 19.6588 26.1241C17.524 30.0219 15.9986 32.9297 15.0827 34.8477C14.7988 36.2782 14.6602 38.389 14.667 41.1799C14.6738 43.9709 14.9152 47.0742 15.3912 50.4898C15.808 43.8014 17.0839 37.3092 19.219 31.0133C21.354 24.7173 24.0242 19.3991 27.2295 15.0588Z" fill="#A0AEC0"/>
<defs>
<linearGradient id="paint0_linear" x1="35.738" y1="14.4787" x2="32.7893" y2="92.9358" gradientUnits="userSpaceOnUse">
<stop stop-color="#A0AEC0"/>
<stop offset="1" stop-color="#A0AEC0" stop-opacity="0.32"/>
</linearGradient>
<linearGradient id="paint1_linear" x1="37.0708" y1="14.459" x2="6.25468" y2="81.9992" gradientUnits="userSpaceOnUse">
<stop stop-color="#A0AEC0" stop-opacity="0.54"/>
<stop offset="1" stop-color="#A0AEC0" stop-opacity="0.72"/>
</linearGradient>
<linearGradient id="paint2_linear" x1="40.5109" y1="36.3419" x2="40.5109" y2="90.6551" gradientUnits="userSpaceOnUse">
<stop stop-color="#A0AEC0" stop-opacity="0.79"/>
<stop offset="1" stop-color="#B7B4B4" stop-opacity="0.277683"/>
</linearGradient>
<linearGradient id="paint3_linear" x1="12.6433" y1="40.0148" x2="26.4702" y2="76.6417" gradientUnits="userSpaceOnUse">
<stop stop-color="#A0AEC0" stop-opacity="0.4"/>
<stop offset="1" stop-color="#A0AEC0" stop-opacity="0.74"/>
</linearGradient>
<linearGradient id="paint4_linear" x1="49.6014" y1="85.0542" x2="11.5785" y2="53.5485" gradientUnits="userSpaceOnUse">
<stop stop-color="#A0AEC0" stop-opacity="0.21"/>
<stop offset="1" stop-color="#A0AEC0"/>
</linearGradient>
<linearGradient id="paint5_linear" x1="41.786" y1="36.8537" x2="14.969" y2="77.6497" gradientUnits="userSpaceOnUse">
<stop stop-color="#A0AEC0" stop-opacity="0.4"/>
<stop offset="1" stop-color="#F4F4F4" stop-opacity="0.233639"/>
</linearGradient>
<linearGradient id="paint6_linear" x1="44.3508" y1="49.2972" x2="25.3596" y2="48.1379" gradientUnits="userSpaceOnUse">
<stop stop-color="#A0AEC0" stop-opacity="0.27"/>
<stop offset="1" stop-color="#A0AEC0" stop-opacity="0.46"/>
</linearGradient>
</defs>
</svg>
