<svg width="100" height="100" viewBox="0 0 100 100" fill="none" xmlns="http://www.w3.org/2000/svg">
<path fill-rule="evenodd" clip-rule="evenodd" d="M51.259 18.1585C46.666 19.7809 42.2322 24.5162 37.9576 32.3644C31.5458 44.1368 23.2646 60.8655 34.6679 74.1105C39.9433 80.2381 48.6538 83.8546 60.0851 78.1269C69.2683 73.5256 71.8222 60.321 68.5253 54.116C61.7245 41.3162 54.8247 38.1592 52.9771 30.2213C51.7453 24.9294 51.1726 20.9085 51.259 18.1585Z" fill="#A0AEC0" fill-opacity="0.4"/>
<path fill-rule="evenodd" clip-rule="evenodd" d="M51.259 18C46.6427 19.6391 42.2089 24.3744 37.9576 32.2059C31.5808 43.9532 23.2646 60.707 34.6679 73.952C39.9434 80.0796 48.5418 82.0597 53.3128 78.4255C56.4232 76.0563 58.5386 73.798 59.7573 69.0398C61.1144 63.7416 60.0732 56.6086 59.3597 53.3318C58.4569 49.1853 58.1614 44.6343 58.4732 39.6787C58.3634 39.5453 58.2813 39.4455 58.2269 39.3793C55.7431 36.35 53.8264 33.7114 52.9771 30.0628C51.7453 24.7709 51.1726 20.7499 51.259 18Z" fill="#A0AEC0" fill-opacity="0.4"/>
<path fill-rule="evenodd" clip-rule="evenodd" d="M47.4366 20.061C43.1368 23.4474 39.9399 29.1276 37.8457 37.1015C34.7044 49.0624 34.3641 60.0923 35.4719 66.5078C37.6196 78.9447 48.7538 83.6656 60.1745 77.8767C67.2029 74.3141 70.1302 66.6671 69.9751 58.3666C69.8146 49.772 53.1482 40.0315 50.1966 32.8587C48.2289 28.0769 47.3088 23.811 47.4366 20.061Z" fill="#A0AEC0" fill-opacity="0.4"/>
<path fill-rule="evenodd" clip-rule="evenodd" d="M58.3373 42.4854C63.494 49.0757 64.6181 53.6634 61.7095 56.2484C57.3467 60.1259 46.6776 62.6559 40.0404 57.9654C35.6155 54.8384 33.9413 48.1303 35.0178 37.8411C33.1912 41.6425 31.6468 45.4933 30.3846 49.3936C29.1224 53.2938 28.7538 57.3754 29.2789 61.6382C30.8607 64.8273 34.7067 66.9572 40.8169 68.028C49.9821 69.6341 58.6568 68.8405 64.4775 65.9164C68.358 63.967 70.1935 62.0265 69.9839 60.0948C70.1239 57.2422 69.2412 54.5267 67.3357 51.9484C65.4303 49.37 62.4308 46.2156 58.3373 42.4854Z" fill="#A0AEC0" fill-opacity="0.4"/>
<path fill-rule="evenodd" clip-rule="evenodd" d="M38.1859 35.9048C38.1428 40.6644 39.3708 45.1889 41.8701 49.4784C45.619 55.9127 49.995 62.2706 56.5434 67.5407C60.9089 71.0541 64.3972 72.1892 67.0081 70.946C64.8636 74.7707 62.5834 76.6448 60.1674 76.5684C56.5434 76.4537 52.1245 74.8755 45.0444 66.3968C40.3243 60.7444 37.0953 55.3975 35.3573 50.3563C35.6329 48.3564 35.9252 46.3644 36.2341 44.3803C36.543 42.3963 37.1936 39.5711 38.1859 35.9048Z" fill="#A0AEC0" fill-opacity="0.4"/>
<path fill-rule="evenodd" clip-rule="evenodd" d="M49.2612 42.4365C49.6618 46.3138 51.1758 52.5161 49.2612 56.6456C47.3466 60.7751 38.5033 68.2351 40.9444 74.8067C43.3855 81.3784 49.3345 79.903 53.0661 76.8745C56.7978 73.8459 58.7953 68.9214 59.238 65.4582C59.6808 61.995 58.1787 55.3312 57.6902 49.5349C57.3645 45.6708 57.5855 42.3577 58.3531 39.5957L57.2096 38.1618L50.4792 36.1759C49.4002 37.7648 48.9942 39.8517 49.2612 42.4365Z" fill="#A0AEC0" fill-opacity="0.4"/>
<path fill-rule="evenodd" clip-rule="evenodd" d="M51.6637 23.2318C49.4853 24.149 47.4214 25.9666 45.472 28.6844C42.5479 32.761 41.0586 35.2048 42.161 43.2858C42.8959 48.6731 43.422 53.6294 43.7391 58.1545L53.1658 30.8608C52.8192 29.47 52.531 28.214 52.3011 27.0927C52.0711 25.9715 51.8587 24.6845 51.6637 23.2318Z" fill="#A0AEC0" fill-opacity="0.4"/>
<path fill-rule="evenodd" clip-rule="evenodd" d="M53.1477 30.8065C50.7547 32.1984 48.9004 35.0501 47.5849 39.3615C46.2694 43.6729 45.0658 49.7002 43.9743 57.4432C45.4301 52.5183 46.3959 48.9513 46.8715 46.742C47.5849 43.4281 47.8286 38.7418 49.7229 35.5603C50.9857 33.4393 52.1273 31.8547 53.1477 30.8065Z" fill="#A0AEC0" fill-opacity="0.4"/>
<path fill-rule="evenodd" clip-rule="evenodd" d="M42.0675 77.0015C46.0055 77.5621 48.0648 78.0606 48.2452 78.4968C48.5158 79.1512 47.7467 79.7497 45.5607 79.3475C44.1034 79.0793 42.939 78.2973 42.0675 77.0015Z" fill="#A0AEC0" fill-opacity="0.4"/>
<path fill-rule="evenodd" clip-rule="evenodd" d="M44.0459 23.2318C41.8799 25.8104 40.0029 28.5442 38.4152 31.4331C36.8274 34.322 35.6929 36.4773 35.0116 37.8988C34.8005 38.9591 34.6974 40.5235 34.7024 42.5921C34.7075 44.6607 34.887 46.9608 35.2411 49.4924C35.5511 44.5351 36.5001 39.7232 38.088 35.0568C39.676 30.3904 41.662 26.4487 44.0459 23.2318Z" fill="#A0AEC0" fill-opacity="0.4"/>
</svg>
