<svg width="57" height="87" viewBox="0 0 57 87" fill="none" xmlns="http://www.w3.org/2000/svg">
<path fill-rule="evenodd" clip-rule="evenodd" d="M30.9454 0.218915C24.56 2.45935 18.3959 8.99858 12.4533 19.8366C3.53926 36.0936 -7.97361 59.1952 7.87971 77.486C15.2139 85.9479 27.3236 90.942 43.2158 83.0324C55.9827 76.6782 59.5333 58.4433 54.9498 49.8744C45.495 32.1985 35.9026 27.8388 33.334 16.877C31.6216 9.56914 30.8254 4.01644 30.9454 0.218915Z" fill="black" fill-opacity="0.5"/>
<path fill-rule="evenodd" clip-rule="evenodd" d="M30.9454 0C24.5276 2.26353 18.3636 8.80276 12.4533 19.6177C3.58788 35.8401 -7.97358 58.9763 7.87973 77.2671C15.214 85.7289 27.1678 88.4633 33.8008 83.4447C38.1249 80.173 41.0658 77.0544 42.7602 70.4835C44.6469 63.167 43.1993 53.3166 42.2074 48.7915C40.9523 43.0655 40.5415 36.7807 40.975 29.9373C40.8222 29.7531 40.7081 29.6152 40.6326 29.5237C37.1794 25.3405 34.5147 21.6968 33.334 16.6581C31.6216 9.35022 30.8254 3.79752 30.9454 0Z" fill="black" fill-opacity="0.5"/>
<path fill-rule="evenodd" clip-rule="evenodd" d="M25.6313 2.84615C19.6537 7.52262 15.2091 15.3667 12.2977 26.3783C7.93058 42.8957 7.45735 58.1275 8.99756 66.987C11.9833 84.1617 27.4627 90.681 43.3401 82.6868C53.1113 77.7671 57.1811 67.207 56.9655 55.7444C56.7422 43.8756 33.5719 30.4244 29.4684 20.5192C26.7328 13.9157 25.4538 8.02472 25.6313 2.84615Z" fill="black" fill-opacity="0.5"/>
<path fill-rule="evenodd" clip-rule="evenodd" d="M40.7861 33.8131C47.9551 42.9141 49.5179 49.2495 45.4742 52.8192C39.4088 58.1739 24.5762 61.6676 15.3488 55.1903C9.19722 50.8721 6.86967 41.6085 8.36619 27.3996C5.82681 32.6491 3.67973 37.9669 1.92496 43.353C0.170193 48.7391 -0.342231 54.3755 0.387691 60.2623C2.58682 64.6663 7.93369 67.6076 16.4283 69.0862C29.1702 71.3042 41.2302 70.2083 49.3224 66.1703C54.7173 63.4783 57.269 60.7985 56.9776 58.1309C57.1723 54.1917 55.9451 50.4417 53.296 46.8811C50.647 43.3204 46.477 38.9645 40.7861 33.8131Z" fill="black" fill-opacity="0.5"/>
<path fill-rule="evenodd" clip-rule="evenodd" d="M12.7706 24.7257C12.7107 31.2984 14.418 37.5466 17.8926 43.4702C23.1045 52.3556 29.1882 61.1356 38.292 68.4133C44.3612 73.2652 49.2107 74.8327 52.8406 73.1159C49.8592 78.3976 46.6891 80.9857 43.3303 80.8801C38.292 80.7218 32.1487 78.5423 22.3056 66.8337C15.7435 59.0279 11.2544 51.6442 8.83823 44.6825C9.22139 41.9207 9.62769 39.1698 10.0571 36.43C10.4865 33.6901 11.391 29.7887 12.7706 24.7257Z" fill="black" fill-opacity="0.5"/>
<path fill-rule="evenodd" clip-rule="evenodd" d="M28.168 33.7457C28.7249 39.1 30.8298 47.6651 28.168 53.3677C25.5063 59.0703 13.2119 69.3723 16.6056 78.4474C19.9994 87.5225 28.2699 85.4851 33.4578 81.3028C38.6457 77.1206 41.4227 70.32 42.0382 65.5375C42.6537 60.7549 40.5655 51.5526 39.8863 43.5483C39.4336 38.212 39.7408 33.6368 40.808 29.8226L39.2183 27.8424L29.8614 25.1001C28.3612 27.2943 27.7967 30.1761 28.168 33.7457Z" fill="black" fill-opacity="0.5"/>
<path fill-rule="evenodd" clip-rule="evenodd" d="M31.508 7.22483C28.4796 8.49153 25.6103 11.0014 22.9002 14.7546C18.8349 20.3843 16.7644 23.759 18.297 34.9185C19.3187 42.3581 20.0501 49.2025 20.491 55.4515L33.5963 17.7601C33.1145 15.8396 32.7138 14.1051 32.3942 12.5566C32.0745 11.0082 31.7792 9.23093 31.508 7.22483Z" fill="black" fill-opacity="0.5"/>
<path fill-rule="evenodd" clip-rule="evenodd" d="M33.5712 17.6852C30.2443 19.6073 27.6664 23.5453 25.8375 29.4992C24.0086 35.4531 22.3354 43.7764 20.8179 54.4692C22.8419 47.6682 24.1845 42.7422 24.8457 39.6913C25.8375 35.115 26.1763 28.6435 28.8098 24.25C30.5655 21.3209 32.1526 19.1327 33.5712 17.6852Z" fill="black" fill-opacity="0.5"/>
<path fill-rule="evenodd" clip-rule="evenodd" d="M18.167 81.4782C23.6418 82.2525 26.5047 82.9408 26.7555 83.5432C27.1317 84.4468 26.0624 85.2734 23.0234 84.7179C20.9974 84.3476 19.3786 83.2677 18.167 81.4782Z" fill="black" fill-opacity="0.5"/>
<path fill-rule="evenodd" clip-rule="evenodd" d="M20.9175 7.22483C17.9062 10.7858 15.2968 14.561 13.0894 18.5505C10.882 22.5399 9.30473 25.5162 8.35762 27.4793C8.06407 28.9435 7.92079 31.1039 7.92778 33.9606C7.93479 36.8172 8.18439 39.9935 8.67663 43.4895C9.1076 36.6437 10.4269 29.9988 12.6346 23.5546C14.8422 17.1105 17.6032 11.6673 20.9175 7.22483Z" fill="black" fill-opacity="0.5"/>
</svg>
