<svg width="70" height="100" viewBox="0 0 70 100" fill="none" xmlns="http://www.w3.org/2000/svg">
<path fill-rule="evenodd" clip-rule="evenodd" d="M36.9276 7.21387C30.7522 9.4028 24.7909 15.7917 19.0437 26.3806C10.4228 42.2639 -0.711346 64.8344 14.6205 82.7047C21.7135 90.972 33.4249 95.8513 48.7944 88.1235C61.1414 81.9155 64.5752 64.0998 60.1425 55.7279C50.9986 38.4583 41.7218 34.1988 39.2376 23.489C37.5815 16.3491 36.8115 10.9241 36.9276 7.21387Z" fill="url(#paint0_linear)"/>
<path fill-rule="evenodd" clip-rule="evenodd" d="M36.9276 7C30.7208 9.2115 24.7595 15.6004 19.0437 26.1667C10.4698 42.0162 -0.711356 64.6205 14.6205 82.4908C21.7135 90.7581 33.2742 93.4297 39.689 88.5265C43.8709 85.33 46.7151 82.283 48.3537 75.8632C50.1784 68.7148 48.7784 59.0909 47.8191 54.6698C46.6053 49.0754 46.208 42.9352 46.6272 36.2491C46.4795 36.0691 46.3691 35.9344 46.2961 35.845C42.9565 31.7579 40.3794 28.198 39.2376 23.2752C37.5815 16.1353 36.8115 10.7102 36.9276 7Z" fill="url(#paint1_linear)"/>
<path fill-rule="evenodd" clip-rule="evenodd" d="M31.7883 9.78076C26.0072 14.3497 21.7089 22.0134 18.8932 32.7719C14.6697 48.9097 14.2121 63.7912 15.7016 72.4471C18.5892 89.227 33.5594 95.5965 48.9146 87.786C58.3644 82.9794 62.3003 72.662 62.0918 61.4629C61.8759 49.867 39.4677 36.7251 35.4992 27.0476C32.8535 20.5959 31.6166 14.8403 31.7883 9.78076Z" fill="url(#paint2_linear)"/>
<path fill-rule="evenodd" clip-rule="evenodd" d="M46.4447 40.0359C53.3779 48.9276 54.8893 55.1174 50.9786 58.6051C45.1127 63.8366 30.768 67.25 21.8441 60.9216C15.8948 56.7027 13.6438 47.652 15.0911 33.7698C12.6352 38.8986 10.5588 44.0942 8.86173 49.3565C7.16468 54.6187 6.66911 60.1256 7.37503 65.8771C9.50182 70.1798 14.6728 73.0535 22.8881 74.4981C35.2109 76.6651 46.8742 75.5944 54.7002 71.6492C59.9176 69.0191 62.3854 66.4009 62.1036 63.7946C62.2919 59.9459 61.1051 56.2822 58.5432 52.8034C55.9812 49.3246 51.9484 45.0688 46.4447 40.0359Z" fill="url(#paint3_linear)"/>
<path fill-rule="evenodd" clip-rule="evenodd" d="M19.3506 31.1572C19.2927 37.5789 20.9439 43.6834 24.3042 49.4709C29.3446 58.152 35.2283 66.7301 44.0326 73.8406C49.9022 78.5809 54.5922 80.1124 58.1027 78.4351C55.2193 83.5953 52.1535 86.1239 48.9051 86.0208C44.0326 85.8661 38.0914 83.7367 28.572 72.2972C22.2258 64.6709 17.8843 57.4569 15.5476 50.6553C15.9182 47.957 16.3111 45.2694 16.7264 42.5925C17.1417 39.9156 18.0165 36.1038 19.3506 31.1572Z" fill="url(#paint4_linear)"/>
<path fill-rule="evenodd" clip-rule="evenodd" d="M34.2415 39.9698C34.7801 45.2011 36.8157 53.5692 34.2415 59.1408C31.6673 64.7123 19.7773 74.7774 23.0594 83.6439C26.3415 92.5104 34.34 90.5198 39.3573 86.4337C44.3746 82.3476 47.0602 75.7033 47.6555 71.0307C48.2508 66.3582 46.2312 57.3674 45.5744 49.547C45.1365 44.3335 45.4336 39.8634 46.4657 36.1369L44.9283 34.2023L35.8792 31.5229C34.4283 33.6667 33.8824 36.4823 34.2415 39.9698Z" fill="url(#paint5_linear)"/>
<path fill-rule="evenodd" clip-rule="evenodd" d="M37.4718 14.0588C34.543 15.2964 31.768 17.7486 29.147 21.4155C25.2155 26.9158 23.2131 30.2129 24.6953 41.1158C25.6834 48.3845 26.3907 55.0715 26.8171 61.1769L39.4914 24.3519C39.0255 22.4756 38.6379 20.7809 38.3288 19.2681C38.0197 17.7552 37.734 16.0188 37.4718 14.0588Z" fill="url(#paint6_linear)"/>
<path fill-rule="evenodd" clip-rule="evenodd" d="M39.4671 24.2786C36.2497 26.1565 33.7566 30.004 31.9878 35.821C30.2191 41.638 28.6009 49.77 27.1333 60.217C29.0907 53.5723 30.3891 48.7596 31.0286 45.7788C31.9878 41.3077 32.3154 34.985 34.8623 30.6924C36.5603 27.8307 38.0952 25.6928 39.4671 24.2786Z" fill="#38B2AC" fill-opacity="0.26"/>
<path fill-rule="evenodd" clip-rule="evenodd" d="M24.5693 86.6052C29.8641 87.3617 32.6328 88.0342 32.8753 88.6227C33.2392 89.5056 32.2051 90.3132 29.266 89.7705C27.3066 89.4087 25.7411 88.3536 24.5693 86.6052Z" fill="#38B2AC"/>
<path fill-rule="evenodd" clip-rule="evenodd" d="M27.2295 14.0588C24.3172 17.538 21.7936 21.2264 19.6588 25.1241C17.524 29.0219 15.9986 31.9297 15.0827 33.8477C14.7988 35.2782 14.6602 37.389 14.667 40.1799C14.6738 42.9709 14.9152 46.0742 15.3912 49.4898C15.808 42.8014 17.0839 36.3092 19.219 30.0133C21.354 23.7173 24.0242 18.3991 27.2295 14.0588Z" fill="#38B2AC"/>
<defs>
<linearGradient id="paint0_linear" x1="35.738" y1="13.4787" x2="32.7893" y2="91.9358" gradientUnits="userSpaceOnUse">
<stop stop-color="#38B2AC"/>
<stop offset="1" stop-color="#38B2AC" stop-opacity="0.35"/>
</linearGradient>
<linearGradient id="paint1_linear" x1="37.0708" y1="13.459" x2="6.25468" y2="80.9992" gradientUnits="userSpaceOnUse">
<stop stop-color="#38B2AC" stop-opacity="0.61"/>
<stop offset="1" stop-color="#38B2AC" stop-opacity="0.81"/>
</linearGradient>
<linearGradient id="paint2_linear" x1="40.5109" y1="35.3419" x2="40.5109" y2="89.6551" gradientUnits="userSpaceOnUse">
<stop stop-color="#38B2AC"/>
<stop offset="1" stop-color="#B7B4B4" stop-opacity="0.277683"/>
</linearGradient>
<linearGradient id="paint3_linear" x1="12.6433" y1="39.0148" x2="26.4702" y2="75.6417" gradientUnits="userSpaceOnUse">
<stop stop-color="#38B2AC" stop-opacity="0.43"/>
<stop offset="1" stop-color="#38B2AC" stop-opacity="0.46"/>
</linearGradient>
<linearGradient id="paint4_linear" x1="49.6014" y1="84.0542" x2="11.5785" y2="52.5485" gradientUnits="userSpaceOnUse">
<stop stop-color="#38B2AC" stop-opacity="0.26"/>
<stop offset="1" stop-color="#38B2AC"/>
</linearGradient>
<linearGradient id="paint5_linear" x1="41.786" y1="35.8537" x2="14.969" y2="76.6497" gradientUnits="userSpaceOnUse">
<stop stop-color="#38B2AC" stop-opacity="0.44"/>
<stop offset="1" stop-color="#F4F4F4" stop-opacity="0.233639"/>
</linearGradient>
<linearGradient id="paint6_linear" x1="44.3508" y1="48.2972" x2="25.3596" y2="47.1379" gradientUnits="userSpaceOnUse">
<stop stop-color="#38B2AC" stop-opacity="0.33"/>
<stop offset="1" stop-color="#3BA09B" stop-opacity="0.47"/>
</linearGradient>
</defs>
</svg>
