<svg width="100" height="100" viewBox="0 0 100 100" fill="none" xmlns="http://www.w3.org/2000/svg">
<path fill-rule="evenodd" clip-rule="evenodd" d="M51.4306 15.1736C46.3895 16.9505 41.5231 22.1368 36.8315 30.7325C29.7942 43.626 20.705 61.9479 33.2208 76.4544C39.011 83.1655 48.5713 87.1264 61.1178 80.8533C71.1969 75.8138 74 61.3516 70.3814 54.5556C62.9171 40.5368 55.3442 37.0791 53.3163 28.3852C51.9644 22.5893 51.3358 18.1855 51.4306 15.1736Z" fill="#A0AEC0" fill-opacity="0.4"/>
<path fill-rule="evenodd" clip-rule="evenodd" d="M51.4306 15C46.3639 16.7952 41.4976 21.9815 36.8315 30.5589C29.8325 43.4249 20.7051 61.7743 33.2208 76.2808C39.011 82.9919 48.4483 85.1606 53.6848 81.1803C57.0986 78.5855 59.4204 76.1121 60.7581 70.9007C62.2475 65.0979 61.1047 57.2856 60.3217 53.6967C59.3308 49.1554 59.0064 44.1709 59.3487 38.7434C59.2281 38.5973 59.138 38.4879 59.0783 38.4154C56.3521 35.0976 54.2484 32.2078 53.3163 28.2116C51.9644 22.4157 51.3358 18.0118 51.4306 15Z" fill="#A0AEC0" fill-opacity="0.4"/>
<path fill-rule="evenodd" clip-rule="evenodd" d="M47.2353 17.2573C42.516 20.9662 39.0072 27.1874 36.7087 35.9207C33.261 49.0207 32.8874 61.1011 34.1033 68.1276C36.4605 81.7489 48.681 86.9194 61.2159 80.5792C68.93 76.6774 72.1429 68.3021 71.9727 59.211C71.7965 49.7979 53.5041 39.1297 50.2645 31.2739C48.1048 26.0366 47.0951 21.3644 47.2353 17.2573Z" fill="#A0AEC0" fill-opacity="0.4"/>
<path fill-rule="evenodd" clip-rule="evenodd" d="M59.1995 41.8173C64.8593 49.0353 66.0931 54.0599 62.9007 56.8911C58.1122 61.1379 46.4023 63.9088 39.1175 58.7716C34.261 55.3468 32.4234 47.9998 33.6049 36.7307C31.6001 40.8941 29.9051 45.1117 28.5197 49.3834C27.1344 53.6551 26.7298 58.1254 27.3061 62.7943C29.0422 66.287 33.2634 68.6198 39.9697 69.7925C50.0291 71.5516 59.5501 70.6824 65.9388 67.4799C70.1978 65.3448 72.2124 63.2195 71.9823 61.1038C72.136 57.9796 71.1672 55.0055 69.0758 52.1815C66.9844 49.3576 63.6924 45.9028 59.1995 41.8173Z" fill="#A0AEC0" fill-opacity="0.4"/>
<path fill-rule="evenodd" clip-rule="evenodd" d="M37.0821 34.61C37.0347 39.8229 38.3826 44.7783 41.1257 49.4764C45.2404 56.5234 50.0433 63.4868 57.2305 69.2588C62.022 73.1069 65.8506 74.3501 68.7163 72.9885C66.3625 77.1774 63.8598 79.23 61.2081 79.1463C57.2305 79.0208 52.3806 77.2922 44.6097 68.006C39.4291 61.8153 35.8851 55.9592 33.9776 50.4378C34.28 48.2474 34.6008 46.0657 34.9398 43.8927C35.2789 41.7197 35.9929 38.6255 37.0821 34.61Z" fill="#A0AEC0" fill-opacity="0.4"/>
<path fill-rule="evenodd" clip-rule="evenodd" d="M49.2379 41.7638C49.6775 46.0104 51.3393 52.8033 49.2379 57.3261C47.1365 61.8489 37.4304 70.0194 40.1097 77.2169C42.789 84.4144 49.3183 82.7986 53.4141 79.4816C57.5098 76.1646 59.7021 70.771 60.1881 66.978C60.674 63.185 59.0254 55.8866 58.4892 49.5383C58.1318 45.3061 58.3743 41.6775 59.2168 38.6524L57.9618 37.0819L50.5748 34.907C49.3904 36.6472 48.9448 38.9328 49.2379 41.7638Z" fill="#A0AEC0" fill-opacity="0.4"/>
<path fill-rule="evenodd" clip-rule="evenodd" d="M51.8748 20.73C49.4839 21.7347 47.2187 23.7253 45.0791 26.7019C41.8697 31.1669 40.2351 33.8433 41.445 42.694C42.2516 48.5944 42.829 54.0227 43.1771 58.9788L53.5234 29.0856C53.1431 27.5624 52.8267 26.1868 52.5743 24.9587C52.322 23.7306 52.0888 22.3211 51.8748 20.73Z" fill="#A0AEC0" fill-opacity="0.4"/>
<path fill-rule="evenodd" clip-rule="evenodd" d="M53.5036 29.0262C50.8771 30.5506 48.8419 33.6739 47.3981 38.3959C45.9542 43.1179 44.6332 49.7192 43.4352 58.1997C45.0331 52.8058 46.093 48.899 46.615 46.4793C47.3981 42.8498 47.6655 37.7173 49.7446 34.2327C51.1306 31.9097 52.3836 30.1742 53.5036 29.0262Z" fill="#A0AEC0" fill-opacity="0.4"/>
<path fill-rule="evenodd" clip-rule="evenodd" d="M41.3424 79.6207C45.6646 80.2347 47.9247 80.7806 48.1227 81.2584C48.4197 81.9751 47.5756 82.6306 45.1764 82.1901C43.5769 81.8964 42.2989 81.0399 41.3424 79.6207Z" fill="#A0AEC0" fill-opacity="0.4"/>
<path fill-rule="evenodd" clip-rule="evenodd" d="M43.5138 20.73C41.1364 23.5543 39.0764 26.5484 37.3337 29.7125C35.591 32.8765 34.3458 35.237 33.5981 36.7939C33.3664 37.9552 33.2533 39.6686 33.2588 41.9342C33.2643 44.1999 33.4614 46.719 33.85 49.4916C34.1902 44.0622 35.2318 38.7921 36.9747 33.6813C38.7175 28.5704 40.8973 24.2533 43.5138 20.73Z" fill="#A0AEC0" fill-opacity="0.4"/>
<rect width="100" height="100" stroke="#A0AEC0"/>
</svg>
