<svg width="134" height="50" viewBox="0 0 134 50" fill="none" xmlns="http://www.w3.org/2000/svg">
<path d="M10.1126 15.1393C9.85165 15.1393 9.78641 15.009 9.91689 14.8135L11.287 13.0542C11.4175 12.8587 11.7437 12.7284 12.0047 12.7284H35.2962C35.5572 12.7284 35.6224 12.9239 35.4919 13.1194L34.3828 14.8135C34.2523 15.009 33.9261 15.2045 33.7304 15.2045L10.1126 15.1393Z" fill="black"/>
<path d="M0.26097 21.1342C5.66244e-07 21.1342 -0.0652426 21.0039 0.0652423 20.8084L1.43533 19.0491C1.56582 18.8536 1.89203 18.7233 2.153 18.7233H31.9036C32.1645 18.7233 32.295 18.9188 32.2298 19.1142L31.7078 20.6781C31.6426 20.9387 31.3816 21.069 31.1207 21.069L0.26097 21.1342Z" fill="black"/>
<path d="M16.0497 27.129C15.7887 27.129 15.7235 26.9336 15.854 26.7381L16.7673 25.1091C16.8978 24.9136 17.1588 24.7181 17.4198 24.7181H30.4683C30.7292 24.7181 30.8597 24.9136 30.8597 25.1742L30.7292 26.7381C30.7292 26.9987 30.4683 27.1942 30.2725 27.1942L16.0497 27.129Z" fill="black"/>
<path d="M83.7713 13.9666C79.6611 15.0092 76.8556 15.7911 72.8106 16.8337C71.832 17.0943 71.7667 17.1595 70.9186 16.1821C69.9399 15.0743 69.2223 14.3576 67.8522 13.706C63.7419 11.686 59.7621 12.2725 56.0433 14.6834C51.6068 17.5504 49.3233 21.7858 49.3886 27.0638C49.4538 32.2766 53.0421 36.5772 58.1963 37.2939C62.6328 37.8804 66.3516 36.3165 69.2875 32.9934C69.8747 32.2766 70.3966 31.4947 71.049 30.5824C68.7003 30.5824 65.7644 30.5824 58.4573 30.5824C57.0872 30.5824 56.7609 29.7354 57.2176 28.6276C58.0658 26.6077 59.6316 23.2193 60.545 21.5252C60.7407 21.1342 61.1974 20.4826 62.1761 20.4826C65.5034 20.4826 77.769 20.4826 85.9243 20.4826C85.7938 22.2419 85.7938 24.0013 85.5329 25.7606C84.8152 30.4521 83.0537 34.7527 80.183 38.532C75.4855 44.7222 69.3527 48.5666 61.5889 49.6092C55.1951 50.4562 49.2581 49.2182 44.0387 45.3086C39.2107 41.6596 36.4705 36.8378 35.7529 30.8431C34.9047 23.7406 36.9925 17.3549 41.2985 11.7512C45.9307 5.69129 52.0635 1.84685 59.5664 0.478488C65.6992 -0.629233 71.571 0.0875282 76.8556 3.67133C80.3135 5.95193 82.7927 9.07961 84.4238 12.8589C84.8152 13.4453 84.5542 13.7711 83.7713 13.9666Z" fill="black"/>
<path d="M105.367 50C99.4295 49.8697 94.0144 48.1755 89.4474 44.2659C85.5981 40.9428 83.1841 36.7073 82.4012 31.69C81.2268 24.3269 83.2494 17.8109 87.6858 12.0117C92.4485 5.75633 98.1899 2.49833 105.954 1.12996C112.608 -0.0429165 118.872 0.608683 124.548 4.45313C129.702 7.97177 132.899 12.7285 133.747 18.9838C134.856 27.7804 132.312 34.948 126.244 41.0731C121.938 45.4388 116.653 48.1755 110.586 49.4136C108.824 49.7394 107.063 49.8045 105.367 50ZM120.894 23.6753C120.829 22.8283 120.829 22.1767 120.699 21.5251C119.524 15.0742 113.587 11.4253 107.389 12.8588C101.322 14.2271 97.407 18.0716 95.9716 24.1966C94.7973 29.2791 97.2765 34.4267 101.974 36.5119C105.562 38.0757 109.151 37.8802 112.608 36.1209C117.763 33.4493 120.568 29.2791 120.894 23.6753Z" fill="black"/>
</svg>
