<svg width="148" height="100" viewBox="0 0 148 100" fill="none" xmlns="http://www.w3.org/2000/svg">
<path d="M13.7456 39.1076C13.4683 39.1076 13.3989 38.9689 13.5376 38.7609L14.9934 36.8891C15.1321 36.6811 15.4787 36.5425 15.756 36.5425H40.5055C40.7828 36.5425 40.8522 36.7505 40.7135 36.9584L39.535 38.7609C39.3963 38.9689 39.0497 39.1769 38.8417 39.1769L13.7456 39.1076Z" fill="#A0AEC0"/>
<path d="M3.27731 45.4855C3 45.4855 2.93067 45.3468 3.06933 45.1389L4.52518 43.267C4.66383 43.0591 5.01046 42.9204 5.28777 42.9204H36.9006C37.1779 42.9204 37.3165 43.1284 37.2472 43.3364L36.6926 45.0002C36.6233 45.2775 36.346 45.4162 36.0686 45.4162L3.27731 45.4855Z" fill="#A0AEC0"/>
<path d="M20.0543 51.8637C19.777 51.8637 19.7077 51.6557 19.8463 51.4477L20.8169 49.7145C20.9555 49.5066 21.2328 49.2986 21.5101 49.2986H35.3754C35.6527 49.2986 35.7914 49.5066 35.7914 49.7839L35.6527 51.4477C35.6527 51.725 35.3754 51.933 35.1674 51.933L20.0543 51.8637Z" fill="#A0AEC0"/>
<path d="M92.015 37.8596C87.6475 38.9689 84.6664 39.8008 80.3682 40.91C79.3283 41.1873 79.259 41.2566 78.3577 40.2167C77.3178 39.0382 76.5552 38.2756 75.0994 37.5823C70.7318 35.4332 66.5029 36.0571 62.5513 38.6222C57.8371 41.6726 55.4107 46.1788 55.48 51.7942C55.5494 57.3403 59.3623 61.9159 64.8391 62.6785C69.5533 63.3024 73.5049 61.6386 76.6246 58.1029C77.2485 57.3403 77.8031 56.5084 78.4964 55.5378C76.0006 55.5378 72.8809 55.5378 65.1164 55.5378C63.6605 55.5378 63.3139 54.6366 63.7992 53.458C64.7004 51.3089 66.3643 47.704 67.3348 45.9015C67.5428 45.4855 68.0281 44.7923 69.068 44.7923C72.6036 44.7923 85.637 44.7923 94.3028 44.7923C94.1641 46.6641 94.1641 48.5359 93.8868 50.4077C93.1242 55.3992 91.2524 59.9747 88.2021 63.9956C83.2106 70.5816 76.6939 74.6719 68.4441 75.7811C61.6501 76.6824 55.3414 75.3652 49.7953 71.2056C44.6651 67.3233 41.7534 62.1932 40.9908 55.8151C40.0896 48.2586 42.308 41.4646 46.8836 35.5025C51.8057 29.0552 58.3224 24.9649 66.2949 23.5091C72.8116 22.3305 79.051 23.0931 84.6664 26.9061C88.3407 29.3325 90.9751 32.6602 92.7083 36.6811C93.1242 37.305 92.8469 37.6517 92.015 37.8596Z" fill="#A0AEC0"/>
<path d="M114.962 76.197C108.653 76.0583 102.899 74.2558 98.0463 70.0963C93.9561 66.5606 91.391 62.0544 90.5591 56.7163C89.3112 48.8824 91.4603 41.9498 96.1745 35.7797C101.235 29.1244 107.336 25.6581 115.586 24.2022C122.657 22.9544 129.313 23.6476 135.344 27.7379C140.821 31.4815 144.218 36.5423 145.119 43.1977C146.297 52.5567 143.594 60.1826 137.146 66.6993C132.571 71.3441 126.955 74.2558 120.508 75.573C118.636 75.9197 116.764 75.989 114.962 76.197ZM131.462 48.1891C131.392 47.2879 131.392 46.5946 131.254 45.9014C130.006 39.0381 123.697 35.1558 117.111 36.681C110.664 38.1368 106.504 42.2271 104.979 48.7438C103.731 54.1512 106.365 59.628 111.357 61.8464C115.17 63.5103 118.983 63.3023 122.657 61.4305C128.134 58.5881 131.115 54.1512 131.462 48.1891Z" fill="#A0AEC0"/>
</svg>
