<svg width="134" height="51" viewBox="0 0 134 51" fill="none" xmlns="http://www.w3.org/2000/svg">
<path d="M10.1126 15.1585C9.85165 15.1585 9.7864 15.028 9.91689 14.8323L11.287 13.0707C11.4175 12.875 11.7437 12.7445 12.0046 12.7445H35.2962C35.5572 12.7445 35.6224 12.9402 35.4919 13.136L34.3828 14.8323C34.2523 15.028 33.9261 15.2237 33.7304 15.2237L10.1126 15.1585Z" fill="#38B2AC"/>
<path d="M0.26097 21.1609C5.66244e-07 21.1609 -0.0652426 21.0304 0.0652422 20.8347L1.43533 19.0732C1.56582 18.8774 1.89203 18.7469 2.153 18.7469H31.9035C32.1645 18.7469 32.295 18.9427 32.2298 19.1384L31.7078 20.7042C31.6426 20.9652 31.3816 21.0957 31.1206 21.0957L0.26097 21.1609Z" fill="#38B2AC"/>
<path d="M16.0497 27.1633C15.7887 27.1633 15.7235 26.9676 15.8539 26.7719L16.7673 25.1408C16.8978 24.9451 17.1588 24.7494 17.4198 24.7494H30.4683C30.7292 24.7494 30.8597 24.9451 30.8597 25.2061L30.7292 26.7719C30.7292 27.0329 30.4683 27.2286 30.2725 27.2286L16.0497 27.1633Z" fill="#38B2AC"/>
<path d="M83.7713 13.9843C79.661 15.0282 76.8556 15.8111 72.8106 16.8549C71.8319 17.1159 71.7667 17.1812 70.9185 16.2025C69.9399 15.0934 69.2222 14.3757 67.8521 13.7233C63.7419 11.7008 59.7621 12.288 56.0433 14.7019C51.6068 17.5726 49.3233 21.8134 49.3885 27.098C49.4538 32.3174 53.0421 36.6234 58.1963 37.3411C62.6327 37.9283 66.3516 36.3624 69.2875 33.0351C69.8746 32.3174 70.3966 31.5345 71.049 30.6211C68.7003 30.6211 65.7644 30.6211 58.4572 30.6211C57.0871 30.6211 56.7609 29.7729 57.2176 28.6638C58.0658 26.6413 59.6316 23.2487 60.545 21.5524C60.7407 21.1609 61.1974 20.5085 62.176 20.5085C65.5034 20.5085 77.769 20.5085 85.9243 20.5085C85.7938 22.2701 85.7938 24.0316 85.5328 25.7932C84.8152 30.4906 83.0536 34.7966 80.183 38.5807C75.4855 44.7787 69.3527 48.628 61.5889 49.6719C55.1951 50.52 49.258 49.2804 44.0387 45.3659C39.2107 41.7123 36.4705 36.8844 35.7529 30.8821C34.9047 23.7706 36.9925 17.3769 41.2985 11.766C45.9307 5.69849 52.0635 1.84918 59.5664 0.479092C65.6991 -0.630029 71.571 0.0876389 76.8556 3.67597C80.3134 5.95946 82.7927 9.09109 84.4237 12.8752C84.8152 13.4623 84.5542 13.7886 83.7713 13.9843Z" fill="#38B2AC"/>
<path d="M105.367 50.0632C99.4294 49.9327 94.0143 48.2364 89.4474 44.3219C85.5981 40.9945 83.1841 36.7538 82.4012 31.7301C81.2268 24.3577 83.2493 17.8335 87.6858 12.0269C92.4485 5.76361 98.1898 2.50148 105.954 1.13139C112.608 -0.0429708 118.872 0.609452 124.548 4.45876C129.702 7.98185 132.899 12.7445 133.747 19.0078C134.856 27.8155 132.312 34.9922 126.244 41.125C121.938 45.4962 116.653 48.2364 110.586 49.476C108.824 49.8022 107.063 49.8675 105.367 50.0632ZM120.894 23.7053C120.829 22.8571 120.829 22.2047 120.698 21.5523C119.524 15.0933 113.587 11.4397 107.389 12.875C101.321 14.2451 97.4069 18.0944 95.9716 24.2272C94.7972 29.3161 97.2765 34.4703 101.974 36.558C105.562 38.1238 109.151 37.9281 112.608 36.1666C117.763 33.4916 120.568 29.3161 120.894 23.7053Z" fill="#38B2AC"/>
</svg>
