<svg width="100" height="100" viewBox="0 0 100 100" fill="none" xmlns="http://www.w3.org/2000/svg">
<path d="M7.77853 41.0588C7.5778 41.0588 7.52761 40.9546 7.62798 40.7982L8.68184 39.3907C8.78221 39.2344 9.03313 39.1301 9.23386 39.1301H25.1293C25.33 39.1301 25.3802 39.2865 25.2799 39.4429L24.4267 40.7982C24.3264 40.9546 24.0754 41.111 23.9249 41.111L7.77853 41.0588Z" fill="#38B2AC"/>
<path d="M0.200736 45.8547C3.91344e-07 45.8547 -0.050184 45.7505 0.0501837 45.5941L1.10405 44.1866C1.20441 44.0302 1.45533 43.926 1.65607 43.926H22.5197C22.7205 43.926 22.8208 44.0824 22.7706 44.2388L22.3692 45.4898C22.319 45.6983 22.1182 45.8026 21.9175 45.8026L0.200736 45.8547Z" fill="#38B2AC"/>
<path d="M12.3453 50.6506C12.1445 50.6506 12.0943 50.4942 12.1947 50.3378L12.8973 49.0346C12.9977 48.8783 13.1984 48.7219 13.3991 48.7219H21.4157C21.6164 48.7219 21.7168 48.8783 21.7168 49.0868L21.6164 50.3378C21.6164 50.5464 21.4157 50.7027 21.2651 50.7027L12.3453 50.6506Z" fill="#38B2AC"/>
<path d="M61.3646 41.1733C58.203 42.0073 56.0451 42.6329 52.9337 43.4669C52.1809 43.6754 52.1307 43.7276 51.4784 42.9456C50.7256 42.0595 50.1736 41.4861 49.1197 40.9648C45.9581 39.3488 42.8969 39.818 40.0364 41.7467C36.6239 44.0403 34.8675 47.4287 34.9177 51.651C34.9679 55.8213 37.728 59.2617 41.6925 59.8351C45.105 60.3043 47.9655 59.0532 50.2238 56.3947C50.6754 55.8213 51.0769 55.1957 51.5787 54.4659C49.7721 54.4659 47.5138 54.4659 41.8932 54.4659C40.8394 54.4659 40.5885 53.7883 40.9397 52.9021C41.5921 51.2861 42.7965 48.5755 43.4991 47.2201C43.6497 46.9074 44.001 46.3861 44.7537 46.3861C47.3131 46.3861 56.7477 46.3861 63.0206 46.3861C62.9203 47.7936 62.9203 49.201 62.7196 50.6085C62.1675 54.3617 60.8126 57.8021 58.6045 60.8256C54.9912 65.7777 50.2739 68.8533 44.3021 69.6873C39.384 70.365 34.8173 69.3746 30.8026 66.2469C27.089 63.3277 24.9813 59.4702 24.4292 54.6745C23.7769 48.9925 25.3827 43.884 28.6949 39.4009C32.2579 34.553 36.9752 31.4775 42.7464 30.3828C47.4636 29.4966 51.9802 30.07 56.0451 32.9371C58.7048 34.7615 60.6118 37.2637 61.8664 40.2871C62.1675 40.7563 61.9668 41.0169 61.3646 41.1733Z" fill="#38B2AC"/>
<path d="M77.9754 70C73.4087 69.8957 69.2434 68.5404 65.7306 65.4127C62.7697 62.7542 60.9129 59.3659 60.3107 55.352C59.4074 49.4616 60.9631 44.2487 64.3756 39.6094C68.039 34.6051 72.4552 31.9987 78.4271 30.904C83.5458 29.9657 88.3635 30.4869 92.7295 33.5625C96.694 36.3774 99.153 40.1828 99.8054 45.1871C100.659 52.2243 98.7014 57.9584 94.0343 62.8585C90.7221 66.351 86.6572 68.5404 81.9901 69.5308C80.6352 69.7915 79.2802 69.8436 77.9754 70ZM89.9192 48.9403C89.869 48.2626 89.869 47.7413 89.7686 47.22C88.8653 42.0594 84.2986 39.1402 79.5311 40.287C74.864 41.3817 71.853 44.4573 70.749 49.3573C69.8456 53.4233 71.7526 57.5414 75.3659 59.2095C78.126 60.4606 80.8861 60.3042 83.5458 58.8967C87.5104 56.7595 89.6683 53.4233 89.9192 48.9403Z" fill="#38B2AC"/>
<rect width="100" height="100" stroke="#38B2AC"/>
</svg>
