<svg width="100" height="100" viewBox="0 0 100 100" fill="none" xmlns="http://www.w3.org/2000/svg">
<path d="M7.47126 42.5059C7.27846 42.5059 7.23026 42.4069 7.32666 42.2583L8.33889 40.9212C8.43529 40.7726 8.6763 40.6736 8.86911 40.6736H26.077C26.2699 40.6736 26.3181 40.8222 26.2217 40.9707L25.4022 42.2583C25.3058 42.4069 25.0648 42.5554 24.9202 42.5554L7.47126 42.5059Z" fill="#38B2AC"/>
<path d="M0.192806 47.062C4.18345e-07 47.062 -0.0482017 46.9629 0.0482014 46.8144L1.06043 45.4773C1.15684 45.3287 1.39784 45.2297 1.59065 45.2297H23.5705C23.7633 45.2297 23.8597 45.3783 23.8115 45.5268L23.4259 46.7153C23.3777 46.9134 23.1849 47.0125 22.9921 47.0125L0.192806 47.062Z" fill="#38B2AC"/>
<path d="M11.8576 51.6181C11.6648 51.6181 11.6166 51.4695 11.713 51.3209L12.3878 50.0829C12.4842 49.9343 12.677 49.7858 12.8698 49.7858H22.5101C22.7029 49.7858 22.7993 49.9343 22.7993 50.1324L22.7029 51.3209C22.7029 51.519 22.5101 51.6676 22.3655 51.6676L11.8576 51.6181Z" fill="#38B2AC"/>
<path d="M61.8908 41.6146C58.8541 42.407 56.7814 43.0012 53.7929 43.7936C53.0699 43.9917 53.0217 44.0412 52.3951 43.2984C51.672 42.4565 51.1418 41.9118 50.1296 41.4165C47.0929 39.8814 44.1526 40.3271 41.4051 42.1594C38.1274 44.3383 36.4404 47.5572 36.4886 51.5685C36.5368 55.5302 39.1878 58.7986 42.9958 59.3434C46.2735 59.7891 49.0209 58.6006 51.19 56.0749C51.6238 55.5302 52.0094 54.936 52.4915 54.2426C50.7562 54.2426 48.5871 54.2426 43.1886 54.2426C42.1763 54.2426 41.9353 53.5989 42.2727 52.757C42.8994 51.2218 44.0562 48.6467 44.731 47.3591C44.8756 47.062 45.213 46.5668 45.9361 46.5668C48.3943 46.5668 57.4562 46.5668 63.4814 46.5668C63.385 47.9039 63.385 49.241 63.1922 50.578C62.662 54.1436 61.3605 57.412 59.2397 60.2843C55.7692 64.9888 51.2382 67.9106 45.5022 68.703C40.7785 69.3467 36.3922 68.4058 32.536 65.4345C28.9691 62.6613 26.9447 58.9967 26.4144 54.4407C25.7878 49.0429 27.3303 44.1898 30.5116 39.9309C33.9339 35.3254 38.4648 32.4036 44.008 31.3637C48.5389 30.5218 52.8771 31.0665 56.7814 33.7902C59.3361 35.5235 61.1677 37.9005 62.3728 40.7728C62.662 41.2185 62.4692 41.4661 61.8908 41.6146Z" fill="#38B2AC"/>
<path d="M77.8454 69C73.4591 68.901 69.4584 67.6134 66.0843 64.6421C63.2404 62.1165 61.4569 58.8976 60.8785 55.0844C60.0109 49.4885 61.5051 44.5363 64.7828 40.1289C68.3015 35.3748 72.5433 32.8987 78.2793 31.8588C83.1958 30.9674 87.8232 31.4626 92.0167 34.3844C95.8246 37.0585 98.1865 40.6736 98.8131 45.4277C99.6325 52.1131 97.7527 57.5605 93.2699 62.2155C90.0886 65.5335 86.1843 67.6134 81.7016 68.5543C80.4001 68.8019 79.0987 68.8514 77.8454 69ZM89.3174 48.9933C89.2692 48.3495 89.2692 47.8543 89.1728 47.359C88.3052 42.4564 83.9188 39.6832 79.3397 40.7727C74.8569 41.8126 71.9649 44.7344 70.9044 49.3894C70.0368 53.2521 71.8685 57.1643 75.339 58.749C77.99 59.9375 80.6411 59.789 83.1958 58.4519C87.0037 56.4215 89.0764 53.2521 89.3174 48.9933Z" fill="#38B2AC"/>
</svg>
