<svg width="69" height="94" viewBox="0 0 69 94" fill="none" xmlns="http://www.w3.org/2000/svg">
<path d="M67.5622 47.6783C67.4872 47.6033 67.4122 47.5282 67.2622 47.5282L67.1872 47.4531C67.1123 47.378 67.0373 47.378 67.0373 47.3029L66.9623 47.2278C66.8873 47.2278 66.8123 47.1528 66.8123 47.1528L66.6623 47.0777C66.5874 47.0777 66.5124 47.0026 66.5124 47.0026L66.3624 46.9275C66.2874 46.9275 66.2124 46.8524 66.2124 46.8524C66.1375 46.8524 66.1374 46.8524 66.0625 46.7773L65.8375 46.7023C65.7625 46.7023 65.7625 46.7023 65.6875 46.6272L65.4626 46.5521H65.3876L65.0876 46.477H64.9377C64.8627 46.477 64.7877 46.477 64.7127 46.4019H62.988C62.5381 36.4157 63.438 26.2794 60.8884 16.6686C70.5616 13.2148 62.988 -0.0750839 54.5896 5.85655C49.0407 1.05118 41.3921 0 33.3687 0C25.4952 0.525588 18.0716 2.17744 12.8226 6.30706C10.723 5.25588 8.69835 4.95554 6.89869 5.48113V5.55622C6.8237 5.55622 6.67373 5.6313 6.59875 5.70638C6.52376 5.70638 6.37379 5.78147 6.2988 5.85655H6.22382C6.14883 5.85655 6.07385 5.93164 5.92388 6.00672H5.84889L5.62393 6.15689H5.54895L5.32399 6.30706H5.249L5.02405 6.45722C5.02405 6.45722 4.94906 6.45722 4.94906 6.53231L4.7241 6.68248C4.7241 6.68248 4.64912 6.68248 4.64912 6.75756L4.42416 6.90773C4.42416 6.90773 4.34917 6.90773 4.34917 6.98281L4.12422 7.13298L4.04923 7.20806C3.97425 7.28315 3.89926 7.28315 3.89926 7.35823L3.82427 7.43332L3.6743 7.58348L3.59932 7.65857C3.52433 7.73365 3.52433 7.80874 3.44935 7.80874L3.37436 7.88382C3.29937 7.9589 3.29937 8.03399 3.22439 8.03399L3.1494 8.10907C3.07442 8.18416 3.07442 8.25924 2.99943 8.25924L2.92444 8.33432C2.84946 8.40941 2.84946 8.48449 2.77447 8.48449L2.69949 8.55958C2.6245 8.63466 2.6245 8.70974 2.54952 8.70974L2.47453 8.78483L2.39954 9.01008C2.39954 9.01008 2.39954 9.08516 2.32456 9.08516L2.24957 9.31042C2.24957 9.31042 2.24957 9.3855 2.17459 9.3855L2.0996 9.61075C2.0996 9.61075 2.0996 9.68584 2.02461 9.68584L1.94963 9.91109C1.94963 9.91109 1.94963 9.98617 1.87464 9.98617C2.17459 10.2114 2.17459 10.2865 2.17459 10.2865V10.3616L2.0996 10.5868V10.6619C2.0996 10.737 2.0996 10.8121 2.02461 10.8872V13.2148C2.02461 13.2899 2.02462 13.365 2.0996 13.44V13.5151L2.17459 13.7404V13.8155L2.24957 14.0407C2.24957 14.0407 2.24957 14.1158 2.32456 14.1158L2.39954 14.341C2.39954 14.341 2.39954 14.4161 2.47453 14.4161L2.54952 14.6414C2.54952 14.6414 2.54952 14.7165 2.6245 14.7165L2.77447 14.9417C2.77447 14.9417 2.77447 15.0168 2.84946 15.0168L2.99943 15.2421C2.99943 15.2421 2.99943 15.3171 3.07442 15.3171L3.22439 15.5424L3.29937 15.6175L3.52433 15.8427L3.74929 16.068H3.82427C4.57413 16.7437 5.32399 17.2693 6.82371 17.7198V17.5697C3.6743 27.0302 6.2988 36.5659 6.44878 46.3268C5.99886 46.3268 5.92388 46.6272 5.17402 46.7023H4.79909C4.7241 46.7023 4.57413 46.7023 4.42416 46.7773C4.34917 46.7773 4.1992 46.7773 4.12422 46.8524L3.82427 46.9275H3.74929L3.44935 47.0026H3.37436L3.1494 47.0777H3.07442L2.84946 47.1528C2.84946 47.1528 2.77447 47.1528 2.77447 47.2278L2.54952 47.3029L2.39954 47.378C2.32456 47.378 2.24957 47.4531 2.24957 47.4531L2.0996 47.5282L1.94963 47.6033C1.87464 47.6033 1.79966 47.6783 1.79966 47.6783L1.64969 47.7534L1.34974 47.9787C1.27476 48.0538 1.19977 48.1288 1.12479 48.1288L0.824844 48.4292L0.749858 48.5043C0.674872 48.6544 0.524901 48.8046 0.449915 48.8797L0.299943 49.1049L0.0749861 49.5554L0 49.7807V50.0059C0 50.3814 0.149971 50.6817 0.674872 50.907C0.824843 53.6851 3.59932 52.4086 4.87407 51.5076L4.94906 51.4325C5.09903 51.2824 5.32399 51.2073 5.39897 51.2073H5.47396L5.62393 51.1322C5.69892 51.1322 5.69892 51.1322 5.7739 51.0571C5.92387 50.982 6.07385 50.982 6.14883 50.907C6.22382 50.907 6.22382 50.8319 6.22382 50.7568L6.2988 50.6817C6.37379 50.5315 6.44878 50.2312 6.44878 49.7807L6.52376 48.8046V50.1561C6.14883 59.9921 3.52433 73.2069 8.99829 82.0668C9.97311 83.6436 11.1729 84.9951 12.5226 86.1214H12.1477C11.9977 86.2715 11.7728 86.4217 11.5478 86.5719L10.8729 87.0224L10.648 87.1725L10.1981 87.4729L9.52319 87.9985L8.69835 88.7493C8.54838 88.8995 8.47339 89.0496 8.39841 89.1247L8.09846 89.5752L7.94849 89.8005C7.87351 89.9506 7.79852 90.1008 7.79852 90.251L7.72353 90.4762C7.57356 91.0769 7.72353 91.7527 8.17345 92.5035L8.47339 92.8038H8.62336C8.69835 92.8038 8.77333 92.8038 8.92331 92.8789C9.07328 93.1793 9.82314 94.756 11.8478 93.5547C13.9474 92.4284 15.3721 90.1008 17.9216 89.7254L17.5467 89.2749C21.9708 91.3772 27.1448 92.2782 31.794 92.4284C38.3177 92.6537 45.7413 91.7527 51.6652 88.524C53.3149 89.0496 54.5896 91.4523 56.0144 92.5786L56.0894 92.6537L56.1643 92.7288L56.2393 92.8038L56.3143 92.8789C56.3143 92.8789 56.3893 92.8789 56.3893 92.954C56.3893 92.954 56.4643 92.954 56.4643 93.0291C56.4643 93.0291 56.5393 93.0291 56.5393 93.1042H58.114C58.114 93.1042 58.189 93.1042 58.189 93.0291H58.2639C58.2639 93.0291 58.3389 93.0291 58.3389 92.954H58.4139C58.4139 92.954 58.4889 92.954 58.4889 92.8789C58.4889 92.8789 58.5639 92.8789 58.5639 92.8038L58.6389 92.7288C58.6389 92.7288 58.7139 92.7287 58.7139 92.6537L58.7888 92.5786H58.8638L59.0138 92.4284L59.1638 92.3533H59.2388L59.3137 92.2782H59.3887L59.4637 92.2032L59.5387 92.1281L59.6137 92.053L59.6887 91.9779L59.7637 91.9028L59.8386 91.8277L59.9136 91.7527V91.6776C59.9136 91.6776 59.9136 91.6025 59.9886 91.6025V91.5274C59.9886 91.5274 59.9886 91.4523 60.0636 91.4523V91.3772C60.0636 91.3772 60.0636 91.3022 60.1386 91.3022V90.251C60.1386 90.251 59.9136 90.251 59.9136 90.1759L59.6887 90.1008V90.0257L59.9136 89.9506C59.9136 89.9506 60.0636 89.9506 60.0636 89.8756L60.1386 89.8005V88.2237C60.1386 88.2237 60.1386 88.1486 60.0636 88.1486V88.0735C60.0636 88.0735 60.0636 87.9985 59.9886 87.9985V87.9234C59.9886 87.9234 59.9886 87.8483 59.9136 87.8483C59.9136 87.8483 59.9136 87.7732 59.8386 87.7732C59.8386 87.7732 59.8386 87.6981 59.7637 87.6981C59.7637 87.6981 59.7637 87.623 59.6887 87.623C59.6887 87.623 59.6887 87.548 59.6137 87.548C59.6137 87.548 59.6137 87.4729 59.5387 87.4729C59.5387 87.4729 59.5387 87.3978 59.4637 87.3978C59.4637 87.3978 59.4637 87.3227 59.3887 87.3227C59.3887 87.3227 59.3887 87.2476 59.3137 87.2476C59.3137 87.2476 59.3137 87.1725 59.2388 87.1725C59.2388 87.1725 59.2388 87.0975 59.1638 87.0975C59.1638 87.0975 59.1638 87.0224 59.0888 87.0224C59.0888 87.0224 59.0888 86.9473 59.0138 86.9473C59.0138 86.9473 59.0138 86.8722 58.9388 86.8722L58.8638 86.7971L58.7888 86.722L58.7139 86.6469L58.6389 86.5719L58.5639 86.4968L58.4889 86.4217L58.4139 86.3466L58.3389 86.2715L58.2639 86.1964L58.189 86.1214L58.114 86.0463L58.039 85.9712V85.8961L57.964 85.821L57.889 85.7459L57.814 85.6709L57.739 85.5958L57.6641 85.5207L57.5891 85.4456L57.5141 85.3705L57.4391 85.2954L57.3641 85.2203L57.2891 85.1453L57.2141 85.0702L57.1392 84.9951L57.0642 84.92L56.9892 84.8449L56.9142 84.7698L56.8392 84.6948L56.7642 84.6197L56.6892 84.5446L56.6143 84.4695C58.114 83.0429 59.4637 81.316 60.4385 79.2887C64.8627 70.4288 64.1128 59.6167 63.5129 49.8558H63.5879C63.6629 49.8558 63.7379 49.9309 63.7379 49.9309H63.9629C63.9629 49.9309 64.0378 49.9309 64.0378 50.0059H64.1128C64.1128 50.0059 64.1878 50.0059 64.1878 50.081L64.3378 50.1561C65.6125 51.0571 68.387 52.3336 68.537 49.5554C69.7368 50.0059 68.312 48.2039 67.5622 47.6783ZM13.4225 16.2932C11.0229 4.27979 30.2193 2.02727 30.8941 13.7404C31.494 23.5013 15.897 25.9791 13.4225 16.2932ZM40.4923 27.5558C39.5175 28.607 38.4677 28.4568 37.4179 28.0814C37.4179 29.508 37.7178 31.0097 37.4929 32.5114C37.118 33.1871 36.3681 33.2622 35.7682 33.5626C34.8684 33.4124 34.1935 32.8868 33.8186 32.0609L33.6686 31.9858C30.7442 35.8902 28.9445 31.1599 29.7693 28.2316C28.8695 28.3067 28.1197 28.0814 27.5198 27.1053C26.47 25.1531 28.0447 22.7505 30.0693 22.375C30.5942 24.6276 36.5931 24.3272 37.6429 22.2249C39.9674 23.3511 42.5169 25.4535 40.4923 27.5558ZM35.2433 14.4161C34.5684 4.05454 50.4654 1.27643 52.79 11.4128C55.4145 22.6754 37.1929 25.6036 35.2433 14.4161ZM17.6966 11.7882C16.2719 11.7882 15.0721 13.0646 15.0721 14.6414C15.0721 16.2181 16.2719 17.4946 17.6966 17.4946C19.1214 17.4946 20.3211 16.2181 20.3211 14.6414C20.3211 13.0646 19.1964 11.7882 17.6966 11.7882ZM18.8964 16.068C18.5215 16.068 18.2965 15.7676 18.2965 15.3171C18.2965 14.9417 18.5965 14.5663 18.8964 14.5663C19.2713 14.5663 19.4963 14.8666 19.4963 15.3171C19.4963 15.6926 19.2713 16.068 18.8964 16.068ZM39.7425 11.1124C38.3177 11.1124 37.1929 12.3889 37.1929 13.9656C37.1929 15.5424 38.3177 16.8188 39.7425 16.8188C41.1672 16.8188 42.292 15.5424 42.292 13.9656C42.292 12.3889 41.1672 11.1124 39.7425 11.1124ZM40.9422 15.3171C40.6423 15.3171 40.3423 15.0168 40.3423 14.5663C40.3423 14.1909 40.6423 13.8155 40.9422 13.8155C41.2422 13.8155 41.5421 14.1158 41.5421 14.5663C41.5421 15.0168 41.2422 15.3171 40.9422 15.3171Z" fill="black"/>
</svg>
