<svg width="100" height="100" viewBox="0 0 100 100" fill="none" xmlns="http://www.w3.org/2000/svg">
<path d="M76.8122 50.5484C76.7503 50.4877 76.6883 50.427 76.5645 50.427L76.5025 50.3663C76.4406 50.3056 76.3786 50.3056 76.3786 50.2449L76.3167 50.1842C76.2547 50.1842 76.1928 50.1235 76.1928 50.1235L76.0689 50.0628C76.007 50.0628 75.945 50.0021 75.945 50.0021L75.8211 49.9414C75.7592 49.9414 75.6972 49.8807 75.6972 49.8807C75.6353 49.8807 75.6353 49.8807 75.5733 49.82L75.3875 49.7593C75.3256 49.7593 75.3256 49.7593 75.2636 49.6986L75.0778 49.6379H75.0158L74.7681 49.5771H74.6442C74.5822 49.5771 74.5203 49.5771 74.4583 49.5164H73.0336C72.6619 41.4425 73.4053 33.2472 71.2992 25.4768C79.29 22.6843 73.0336 11.9393 66.0958 16.7351C61.5119 12.8499 55.1935 12 48.5654 12C42.0612 12.4249 35.9287 13.7605 31.5926 17.0993C29.8581 16.2494 28.1856 16.0066 26.6989 16.4316V16.4923C26.637 16.4923 26.5131 16.553 26.4511 16.6137C26.3892 16.6137 26.2653 16.6744 26.2034 16.7351H26.1414C26.0795 16.7351 26.0175 16.7958 25.8936 16.8565H25.8317L25.6459 16.9779H25.5839L25.3981 17.0993H25.3361L25.1503 17.2207C25.1503 17.2207 25.0884 17.2207 25.0884 17.2814L24.9025 17.4029C24.9025 17.4029 24.8406 17.4029 24.8406 17.4636L24.6547 17.585C24.6547 17.585 24.5928 17.585 24.5928 17.6457L24.407 17.7671L24.345 17.8278C24.2831 17.8885 24.2211 17.8885 24.2211 17.9492L24.1592 18.0099L24.0353 18.1313L23.9733 18.192C23.9114 18.2527 23.9114 18.3134 23.8495 18.3134L23.7875 18.3742C23.7256 18.4349 23.7256 18.4956 23.6636 18.4956L23.6017 18.5563C23.5397 18.617 23.5397 18.6777 23.4778 18.6777L23.4158 18.7384C23.3539 18.7991 23.3539 18.8598 23.292 18.8598L23.23 18.9205C23.1681 18.9812 23.1681 19.0419 23.1061 19.0419L23.0442 19.1026L22.9822 19.2847C22.9822 19.2847 22.9822 19.3455 22.9203 19.3455L22.8583 19.5276C22.8583 19.5276 22.8583 19.5883 22.7964 19.5883L22.7345 19.7704C22.7345 19.7704 22.7345 19.8311 22.6725 19.8311L22.6106 20.0132C22.6106 20.0132 22.6106 20.0739 22.5486 20.0739C22.7964 20.256 22.7964 20.3168 22.7964 20.3168V20.3775L22.7345 20.5596V20.6203C22.7345 20.681 22.7345 20.7417 22.6725 20.8024V22.6843C22.6725 22.745 22.6725 22.8057 22.7345 22.8664V22.9271L22.7964 23.1092V23.1699L22.8583 23.3521C22.8583 23.3521 22.8583 23.4128 22.9203 23.4128L22.9822 23.5949C22.9822 23.5949 22.9822 23.6556 23.0442 23.6556L23.1061 23.8377C23.1061 23.8377 23.1061 23.8984 23.1681 23.8984L23.292 24.0805C23.292 24.0805 23.292 24.1412 23.3539 24.1412L23.4778 24.3234C23.4778 24.3234 23.4778 24.3841 23.5397 24.3841L23.6636 24.5662L23.7256 24.6269L23.9114 24.809L24.0972 24.9911H24.1592C24.7786 25.5375 25.3981 25.9624 26.637 26.3267V26.2053C24.0353 33.8542 26.2034 41.5639 26.3273 49.4557C25.9556 49.4557 25.8936 49.6986 25.2742 49.7593H24.9645C24.9025 49.7593 24.7786 49.7593 24.6547 49.82C24.5928 49.82 24.4689 49.82 24.407 49.8807L24.1592 49.9414H24.0972L23.8495 50.0021H23.7875L23.6017 50.0628H23.5397L23.3539 50.1235C23.3539 50.1235 23.292 50.1235 23.292 50.1842L23.1061 50.2449L22.9822 50.3056C22.9203 50.3056 22.8583 50.3663 22.8583 50.3663L22.7345 50.427L22.6106 50.4877C22.5486 50.4877 22.4867 50.5484 22.4867 50.5484L22.3628 50.6092L22.115 50.7913C22.0531 50.852 21.9911 50.9127 21.9292 50.9127L21.6814 51.1555L21.6194 51.2162C21.5575 51.3376 21.4336 51.459 21.3717 51.5197L21.2478 51.7019L21.0619 52.0661L21 52.2482V52.4303C21 52.7339 21.1239 52.9767 21.5575 53.1588C21.6814 55.4049 23.9733 54.3729 25.0264 53.6445L25.0884 53.5838C25.2122 53.4623 25.3981 53.4016 25.46 53.4016H25.522L25.6459 53.3409C25.7078 53.3409 25.7078 53.3409 25.7697 53.2802C25.8936 53.2195 26.0175 53.2195 26.0795 53.1588C26.1414 53.1588 26.1414 53.0981 26.1414 53.0374L26.2034 52.9767C26.2653 52.8553 26.3273 52.6125 26.3273 52.2482L26.3892 51.459V52.5517C26.0795 60.5043 23.9114 71.1886 28.4334 78.3519C29.2387 79.6267 30.2298 80.7194 31.3448 81.63H31.0351C30.9112 81.7514 30.7253 81.8729 30.5395 81.9943L29.982 82.3585L29.7962 82.4799L29.4245 82.7227L28.867 83.1477L28.1856 83.7547C28.0617 83.8762 27.9998 83.9976 27.9378 84.0583L27.69 84.4225L27.5661 84.6046C27.5042 84.726 27.4423 84.8475 27.4423 84.9689L27.3803 85.151C27.2564 85.6366 27.3803 86.183 27.752 86.7901L27.9998 87.0329H28.1236C28.1856 87.0329 28.2475 87.0329 28.3714 87.0936C28.4953 87.3364 29.1148 88.6112 30.7873 87.6399C32.5217 86.7294 33.6987 84.8475 35.8048 84.5439L35.4951 84.1797C39.1498 85.8795 43.424 86.6079 47.2646 86.7294C52.6538 86.9115 58.7863 86.183 63.6799 83.5726C65.0427 83.9976 66.0958 85.9402 67.2727 86.8508L67.3347 86.9115L67.3966 86.9722L67.4586 87.0329L67.5205 87.0936C67.5205 87.0936 67.5825 87.0936 67.5825 87.1543C67.5825 87.1543 67.6444 87.1543 67.6444 87.215C67.6444 87.215 67.7064 87.215 67.7064 87.2757H69.0072C69.0072 87.2757 69.0691 87.2757 69.0691 87.215H69.1311C69.1311 87.215 69.193 87.215 69.193 87.1543H69.255C69.255 87.1543 69.3169 87.1543 69.3169 87.0936C69.3169 87.0936 69.3789 87.0936 69.3789 87.0329L69.4408 86.9722C69.4408 86.9722 69.5028 86.9722 69.5028 86.9115L69.5647 86.8508H69.6266L69.7505 86.7294L69.8744 86.6686H69.9364L69.9983 86.6079H70.0603L70.1222 86.5472L70.1841 86.4865L70.2461 86.4258L70.308 86.3651L70.37 86.3044L70.4319 86.2437L70.4939 86.183V86.1223C70.4939 86.1223 70.4939 86.0616 70.5558 86.0616V86.0009C70.5558 86.0009 70.5558 85.9402 70.6178 85.9402V85.8795C70.6178 85.8795 70.6178 85.8188 70.6797 85.8188V84.9689C70.6797 84.9689 70.4939 84.9689 70.4939 84.9082L70.308 84.8475V84.7867L70.4939 84.726C70.4939 84.726 70.6178 84.726 70.6178 84.6653L70.6797 84.6046V83.3298C70.6797 83.3298 70.6797 83.2691 70.6178 83.2691V83.2084C70.6178 83.2084 70.6178 83.1477 70.5558 83.1477V83.087C70.5558 83.087 70.5558 83.0263 70.4939 83.0263C70.4939 83.0263 70.4939 82.9656 70.4319 82.9656C70.4319 82.9656 70.4319 82.9049 70.37 82.9049C70.37 82.9049 70.37 82.8442 70.308 82.8442C70.308 82.8442 70.308 82.7834 70.2461 82.7834C70.2461 82.7834 70.2461 82.7227 70.1841 82.7227C70.1841 82.7227 70.1841 82.662 70.1222 82.662C70.1222 82.662 70.1222 82.6013 70.0603 82.6013C70.0603 82.6013 70.0603 82.5406 69.9983 82.5406C69.9983 82.5406 69.9983 82.4799 69.9364 82.4799C69.9364 82.4799 69.9364 82.4192 69.8744 82.4192C69.8744 82.4192 69.8744 82.3585 69.8125 82.3585C69.8125 82.3585 69.8125 82.2978 69.7505 82.2978C69.7505 82.2978 69.7505 82.2371 69.6886 82.2371L69.6266 82.1764L69.5647 82.1157L69.5028 82.055L69.4408 81.9943L69.3789 81.9336L69.3169 81.8729L69.255 81.8121L69.193 81.7514L69.1311 81.6907L69.0691 81.63L69.0072 81.5693L68.9452 81.5086V81.4479L68.8833 81.3872L68.8214 81.3265L68.7594 81.2658L68.6975 81.2051L68.6355 81.1444L68.5736 81.0837L68.5116 81.023L68.4497 80.9623L68.3877 80.9016L68.3258 80.8408L68.2639 80.7801L68.2019 80.7194L68.14 80.6587L68.078 80.598L68.0161 80.5373L67.9541 80.4766L67.8922 80.4159L67.8302 80.3552L67.7683 80.2945C69.0072 79.1411 70.1222 77.7448 70.9275 76.1058C74.5822 68.9424 73.9628 60.2007 73.4672 52.3089H73.5292C73.5911 52.3089 73.6531 52.3696 73.6531 52.3696H73.8389C73.8389 52.3696 73.9008 52.3696 73.9008 52.4303H73.9628C73.9628 52.4303 74.0247 52.4303 74.0247 52.491L74.1486 52.5517C75.2017 53.2802 77.4936 54.3122 77.6175 52.0661C78.6086 52.4303 77.4317 50.9734 76.8122 50.5484V50.5484ZM32.0881 25.1732C30.1059 15.4603 45.9637 13.6391 46.5212 23.1092C47.0168 31.001 34.1323 33.0044 32.0881 25.1732ZM54.4502 34.2792C53.6449 35.1291 52.7777 35.0077 51.9104 34.7041C51.9104 35.8575 52.1582 37.0717 51.9724 38.2858C51.6627 38.8321 51.0432 38.8929 50.5477 39.1357C49.8043 39.0143 49.2468 38.5893 48.9371 37.9216L48.8132 37.8608C46.3974 41.0176 44.9107 37.1931 45.5921 34.8255C44.8487 34.8862 44.2293 34.7041 43.7337 33.9149C42.8665 32.3366 44.1673 30.394 45.8398 30.0905C46.2735 31.9116 51.229 31.6688 52.0963 29.969C54.0166 30.8796 56.1227 32.5794 54.4502 34.2792V34.2792ZM50.114 23.6556C49.5565 15.2781 62.6888 13.032 64.6091 21.2273C66.7772 30.3333 51.7246 32.7008 50.114 23.6556ZM35.619 21.5309C34.442 21.5309 33.4509 22.5629 33.4509 23.8377C33.4509 25.1125 34.442 26.1445 35.619 26.1445C36.7959 26.1445 37.787 25.1125 37.787 23.8377C37.787 22.5629 36.8579 21.5309 35.619 21.5309ZM36.6101 24.9911C36.3004 24.9911 36.1145 24.7483 36.1145 24.3841C36.1145 24.0805 36.3623 23.777 36.6101 23.777C36.9198 23.777 37.1056 24.0198 37.1056 24.3841C37.1056 24.6876 36.9198 24.9911 36.6101 24.9911ZM53.8307 20.9845C52.6538 20.9845 51.7246 22.0165 51.7246 23.2914C51.7246 24.5662 52.6538 25.5982 53.8307 25.5982C55.0077 25.5982 55.9368 24.5662 55.9368 23.2914C55.9368 22.0165 55.0077 20.9845 53.8307 20.9845ZM54.8218 24.3841C54.5741 24.3841 54.3263 24.1412 54.3263 23.777C54.3263 23.4735 54.5741 23.1699 54.8218 23.1699C55.0696 23.1699 55.3174 23.4128 55.3174 23.777C55.3174 24.1412 55.0696 24.3841 54.8218 24.3841Z" fill="black"/>
</svg>
