<svg width="100" height="100" viewBox="0 0 100 100" fill="none" xmlns="http://www.w3.org/2000/svg">
<path d="M71.0623 50.433C71.0134 50.3851 70.9645 50.3371 70.8667 50.3371L70.8178 50.2892C70.7689 50.2413 70.72 50.2413 70.72 50.1934L70.6711 50.1454C70.6222 50.1454 70.5732 50.0975 70.5732 50.0975L70.4754 50.0496C70.4265 50.0496 70.3776 50.0017 70.3776 50.0017L70.2798 49.9537C70.2309 49.9537 70.182 49.9058 70.182 49.9058C70.1331 49.9058 70.1331 49.9058 70.0842 49.8579L69.9375 49.8099C69.8886 49.8099 69.8886 49.8099 69.8397 49.762L69.693 49.7141H69.6441L69.4485 49.6662H69.3507C69.3018 49.6662 69.2528 49.6662 69.2039 49.6182H68.0792C67.7857 43.2441 68.3726 36.7741 66.7099 30.6396C73.0184 28.435 68.0792 19.9521 62.6019 23.7382C58.9831 20.671 53.9949 20 48.7622 20C43.6273 20.3355 38.7858 21.3899 35.3625 24.0258C33.9932 23.3548 32.6728 23.1631 31.4991 23.4986V23.5465C31.4502 23.5465 31.3524 23.5944 31.3035 23.6424C31.2546 23.6424 31.1568 23.6903 31.1079 23.7382H31.059C31.0101 23.7382 30.9612 23.7862 30.8634 23.8341H30.8145L30.6678 23.9299H30.6189L30.4722 24.0258H30.4233L30.2766 24.1216C30.2766 24.1216 30.2276 24.1216 30.2276 24.1696L30.0809 24.2654C30.0809 24.2654 30.032 24.2654 30.032 24.3133L29.8853 24.4092C29.8853 24.4092 29.8364 24.4092 29.8364 24.4571L29.6897 24.553L29.6408 24.6009C29.5919 24.6488 29.543 24.6488 29.543 24.6967L29.4941 24.7447L29.3963 24.8405L29.3474 24.8884C29.2985 24.9364 29.2985 24.9843 29.2496 24.9843L29.2007 25.0322C29.1518 25.0802 29.1518 25.1281 29.1029 25.1281L29.054 25.176C29.0051 25.2239 29.0051 25.2719 28.9562 25.2719L28.9072 25.3198C28.8583 25.3677 28.8583 25.4156 28.8094 25.4156L28.7605 25.4636C28.7116 25.5115 28.7116 25.5594 28.6627 25.5594L28.6138 25.6073L28.5649 25.7511C28.5649 25.7511 28.5649 25.799 28.516 25.799L28.4671 25.9428C28.4671 25.9428 28.4671 25.9907 28.4182 25.9907L28.3693 26.1345C28.3693 26.1345 28.3693 26.1824 28.3204 26.1824L28.2715 26.3262C28.2715 26.3262 28.2715 26.3742 28.2226 26.3742C28.4182 26.5179 28.4182 26.5659 28.4182 26.5659V26.6138L28.3693 26.7576V26.8055C28.3693 26.8534 28.3693 26.9013 28.3204 26.9493V28.435C28.3204 28.4829 28.3204 28.5308 28.3693 28.5787V28.6267L28.4182 28.7705V28.8184L28.4671 28.9622C28.4671 28.9622 28.4671 29.0101 28.516 29.0101L28.5649 29.1539C28.5649 29.1539 28.5649 29.2018 28.6138 29.2018L28.6627 29.3456C28.6627 29.3456 28.6627 29.3935 28.7116 29.3935L28.8094 29.5373C28.8094 29.5373 28.8094 29.5852 28.8583 29.5852L28.9562 29.729C28.9562 29.729 28.9562 29.7769 29.0051 29.7769L29.1029 29.9207L29.1518 29.9686L29.2985 30.1124L29.4452 30.2562H29.4941C29.9831 30.6875 30.4722 31.023 31.4502 31.3105V31.2147C29.3963 37.2533 31.1079 43.3399 31.2057 49.5703C30.9123 49.5703 30.8634 49.762 30.3744 49.8099H30.1298C30.0809 49.8099 29.9831 49.8099 29.8853 49.8579C29.8364 49.8579 29.7386 49.8579 29.6897 49.9058L29.4941 49.9537H29.4452L29.2496 50.0017H29.2007L29.054 50.0496H29.0051L28.8583 50.0975C28.8583 50.0975 28.8094 50.0975 28.8094 50.1454L28.6627 50.1934L28.5649 50.2413C28.516 50.2413 28.4671 50.2892 28.4671 50.2892L28.3693 50.3371L28.2715 50.3851C28.2226 50.3851 28.1737 50.433 28.1737 50.433L28.0759 50.4809L27.8803 50.6247C27.8314 50.6726 27.7825 50.7205 27.7336 50.7205L27.5379 50.9122L27.489 50.9602C27.4401 51.056 27.3423 51.1519 27.2934 51.1998L27.1956 51.3436L27.0489 51.6311L27 51.7749V51.9187C27 52.1583 27.0978 52.35 27.4401 52.4938C27.5379 54.2671 29.3474 53.4523 30.1787 52.8772L30.2276 52.8293C30.3255 52.7334 30.4722 52.6855 30.5211 52.6855H30.57L30.6678 52.6376C30.7167 52.6376 30.7167 52.6376 30.7656 52.5897C30.8634 52.5417 30.9612 52.5417 31.0101 52.4938C31.059 52.4938 31.059 52.4459 31.059 52.3979L31.1079 52.35C31.1568 52.2542 31.2057 52.0625 31.2057 51.7749L31.2546 51.1519V52.0145C31.0101 58.2928 29.2985 66.7278 32.8685 72.3831C33.5042 73.3895 34.2867 74.2522 35.1669 74.9711H34.9224C34.8246 75.0669 34.6779 75.1628 34.5312 75.2586L34.091 75.5462L33.9443 75.642L33.6509 75.8337L33.2108 76.1692L32.6728 76.6485C32.575 76.7443 32.5261 76.8402 32.4772 76.8881L32.2816 77.1757L32.1838 77.3195C32.1349 77.4153 32.086 77.5112 32.086 77.607L32.0371 77.7508C31.9393 78.1342 32.0371 78.5655 32.3305 79.0448L32.5261 79.2365H32.6239C32.6728 79.2365 32.7217 79.2365 32.8195 79.2844C32.9174 79.4761 33.4064 80.4826 34.7268 79.7157C36.0961 78.9969 37.0253 77.5112 38.688 77.2715L38.4435 76.984C41.3288 78.3259 44.7032 78.901 47.7352 78.9969C51.9898 79.1406 56.8313 78.5655 60.6947 76.5047C61.7706 76.8402 62.6019 78.3738 63.5311 79.0927L63.58 79.1406L63.6289 79.1886L63.6778 79.2365L63.7267 79.2844C63.7267 79.2844 63.7756 79.2844 63.7756 79.3323C63.7756 79.3323 63.8245 79.3323 63.8245 79.3803C63.8245 79.3803 63.8734 79.3803 63.8734 79.4282H64.9004C64.9004 79.4282 64.9493 79.4282 64.9493 79.3803H64.9982C64.9982 79.3803 65.0471 79.3803 65.0471 79.3323H65.096C65.096 79.3323 65.1449 79.3323 65.1449 79.2844C65.1449 79.2844 65.1938 79.2844 65.1938 79.2365L65.2427 79.1886C65.2427 79.1886 65.2916 79.1886 65.2916 79.1406L65.3405 79.0927H65.3895L65.4873 78.9969L65.5851 78.9489H65.634L65.6829 78.901H65.7318L65.7807 78.8531L65.8296 78.8052L65.8785 78.7572L65.9274 78.7093L65.9763 78.6614L66.0252 78.6134L66.0741 78.5655V78.5176C66.0741 78.5176 66.0741 78.4697 66.123 78.4697V78.4217C66.123 78.4217 66.123 78.3738 66.1719 78.3738V78.3259C66.1719 78.3259 66.1719 78.278 66.2208 78.278V77.607C66.2208 77.607 66.0741 77.607 66.0741 77.5591L65.9274 77.5112V77.4632L66.0741 77.4153C66.0741 77.4153 66.1719 77.4153 66.1719 77.3674L66.2208 77.3195V76.313C66.2208 76.313 66.2208 76.2651 66.1719 76.2651V76.2172C66.1719 76.2172 66.1719 76.1692 66.123 76.1692V76.1213C66.123 76.1213 66.123 76.0734 66.0741 76.0734C66.0741 76.0734 66.0741 76.0254 66.0252 76.0254C66.0252 76.0254 66.0252 75.9775 65.9763 75.9775C65.9763 75.9775 65.9763 75.9296 65.9274 75.9296C65.9274 75.9296 65.9274 75.8817 65.8785 75.8817C65.8785 75.8817 65.8785 75.8337 65.8296 75.8337C65.8296 75.8337 65.8296 75.7858 65.7807 75.7858C65.7807 75.7858 65.7807 75.7379 65.7318 75.7379C65.7318 75.7379 65.7318 75.69 65.6829 75.69C65.6829 75.69 65.6829 75.642 65.634 75.642C65.634 75.642 65.634 75.5941 65.5851 75.5941C65.5851 75.5941 65.5851 75.5462 65.5362 75.5462C65.5362 75.5462 65.5362 75.4983 65.4873 75.4983C65.4873 75.4983 65.4873 75.4503 65.4384 75.4503L65.3895 75.4024L65.3405 75.3545L65.2916 75.3066L65.2427 75.2586L65.1938 75.2107L65.1449 75.1628L65.096 75.1149L65.0471 75.0669L64.9982 75.019L64.9493 74.9711L64.9004 74.9231L64.8515 74.8752V74.8273L64.8026 74.7794L64.7537 74.7314L64.7048 74.6835L64.6559 74.6356L64.607 74.5877L64.5581 74.5397L64.5092 74.4918L64.4603 74.4439L64.4114 74.396L64.3625 74.348L64.3136 74.3001L64.2647 74.2522L64.2158 74.2043L64.1669 74.1563L64.118 74.1084L64.0691 74.0605L64.0201 74.0126L63.9712 73.9646L63.9223 73.9167C64.9004 73.0061 65.7807 71.9038 66.4164 70.6098C69.3018 64.9546 68.8127 58.0532 68.4215 51.8228H68.4704C68.5193 51.8228 68.5682 51.8708 68.5682 51.8708H68.7149C68.7149 51.8708 68.7638 51.8708 68.7638 51.9187H68.8127C68.8127 51.9187 68.8616 51.9187 68.8616 51.9666L68.9594 52.0145C69.7908 52.5897 71.6002 53.4044 71.698 51.6311C72.4805 51.9187 71.5513 50.7685 71.0623 50.433ZM35.7538 30.3999C34.1889 22.7318 46.7082 21.294 47.1483 28.7705C47.5396 35.0008 37.3676 36.5824 35.7538 30.3999ZM53.408 37.5888C52.7723 38.2598 52.0876 38.1639 51.403 37.9243C51.403 38.8349 51.5986 39.7934 51.4519 40.7519C51.2074 41.1833 50.7183 41.2312 50.3271 41.4229C49.7403 41.3271 49.3001 40.9916 49.0556 40.4644L48.9578 40.4165C47.0505 42.9086 45.8769 39.8893 46.4148 38.0202C45.8279 38.0681 45.3389 37.9243 44.9477 37.3013C44.263 36.0552 45.29 34.5216 46.6104 34.2819C46.9527 35.7197 50.865 35.528 51.5497 34.1861C53.0657 34.905 54.7284 36.2469 53.408 37.5888ZM49.9848 29.2018C49.5446 22.588 59.9122 20.8147 61.4282 27.2847C63.1399 34.4736 51.2563 36.3428 49.9848 29.2018ZM38.5413 27.5244C37.6121 27.5244 36.8297 28.3391 36.8297 29.3456C36.8297 30.352 37.6121 31.1667 38.5413 31.1667C39.4705 31.1667 40.2529 30.352 40.2529 29.3456C40.2529 28.3391 39.5194 27.5244 38.5413 27.5244ZM39.3237 30.2562C39.0792 30.2562 38.9325 30.0645 38.9325 29.7769C38.9325 29.5373 39.1281 29.2976 39.3237 29.2976C39.5683 29.2976 39.715 29.4893 39.715 29.7769C39.715 30.0165 39.5683 30.2562 39.3237 30.2562ZM52.919 27.093C51.9898 27.093 51.2563 27.9078 51.2563 28.9142C51.2563 29.9207 51.9898 30.7354 52.919 30.7354C53.8482 30.7354 54.5817 29.9207 54.5817 28.9142C54.5817 27.9078 53.8482 27.093 52.919 27.093ZM53.7015 29.7769C53.5058 29.7769 53.3102 29.5852 53.3102 29.2976C53.3102 29.058 53.5058 28.8184 53.7015 28.8184C53.8971 28.8184 54.0927 29.0101 54.0927 29.2976C54.0927 29.5852 53.8971 29.7769 53.7015 29.7769Z" fill="#38B2AC"/>
</svg>
