<svg width="98" height="100" viewBox="0 0 98 100" fill="none" xmlns="http://www.w3.org/2000/svg">
<g clip-path="url(#clip0)">
<path d="M83.5312 50.625C83.4531 50.5469 83.375 50.4688 83.2188 50.4688L83.1406 50.3906C83.0625 50.3125 82.9844 50.3125 82.9844 50.2344L82.9062 50.1563C82.8281 50.1563 82.75 50.0781 82.75 50.0781L82.5938 50C82.5156 50 82.4375 49.9219 82.4375 49.9219L82.2812 49.8438C82.2031 49.8438 82.125 49.7656 82.125 49.7656C82.0469 49.7656 82.0469 49.7656 81.9688 49.6875L81.7344 49.6094C81.6562 49.6094 81.6562 49.6094 81.5781 49.5313L81.3438 49.4531H81.2656L80.9531 49.375H80.7969C80.7188 49.375 80.6406 49.375 80.5625 49.2969H78.7656C78.2969 38.9063 79.2344 28.3594 76.5781 18.3594C86.6562 14.7656 78.7656 0.9375 70.0156 7.10938C64.2344 2.10938 56.2656 1.01562 47.9062 1.01562C39.7031 1.5625 31.9688 3.28125 26.5 7.57812C24.3125 6.48438 22.2031 6.17188 20.3281 6.71875V6.79688C20.25 6.79688 20.0937 6.875 20.0156 6.95312C19.9375 6.95312 19.7812 7.03125 19.7031 7.10938H19.625C19.5469 7.10938 19.4687 7.1875 19.3125 7.26563H19.2344L19 7.42188H18.9219L18.6875 7.57812H18.6094L18.375 7.73438C18.375 7.73438 18.2969 7.73438 18.2969 7.8125L18.0625 7.96875C18.0625 7.96875 17.9844 7.96875 17.9844 8.04688L17.75 8.20313C17.75 8.20313 17.6719 8.20313 17.6719 8.28125L17.4375 8.4375L17.3594 8.51562C17.2812 8.59375 17.2031 8.59375 17.2031 8.67188L17.125 8.75L16.9687 8.90625L16.8906 8.98438C16.8125 9.0625 16.8125 9.14062 16.7344 9.14062L16.6562 9.21875C16.5781 9.29688 16.5781 9.375 16.5 9.375L16.4219 9.45313C16.3437 9.53125 16.3438 9.60938 16.2656 9.60938L16.1875 9.6875C16.1094 9.76562 16.1094 9.84375 16.0312 9.84375L15.9531 9.92188C15.875 10 15.875 10.0781 15.7969 10.0781L15.7187 10.1563L15.6406 10.3906C15.6406 10.3906 15.6406 10.4688 15.5625 10.4688L15.4844 10.7031C15.4844 10.7031 15.4844 10.7813 15.4062 10.7813L15.3281 11.0156C15.3281 11.0156 15.3281 11.0938 15.25 11.0938L15.1719 11.3281C15.1719 11.3281 15.1719 11.4063 15.0938 11.4063C15.4062 11.6406 15.4062 11.7188 15.4062 11.7188V11.7969L15.3281 12.0312V12.1094C15.3281 12.1875 15.3281 12.2656 15.25 12.3438V14.7656C15.25 14.8438 15.25 14.9219 15.3281 15V15.0781L15.4062 15.3125V15.3906L15.4844 15.625C15.4844 15.625 15.4844 15.7031 15.5625 15.7031L15.6406 15.9375C15.6406 15.9375 15.6406 16.0156 15.7187 16.0156L15.7969 16.25C15.7969 16.25 15.7969 16.3281 15.875 16.3281L16.0312 16.5625C16.0312 16.5625 16.0312 16.6406 16.1094 16.6406L16.2656 16.875C16.2656 16.875 16.2656 16.9531 16.3438 16.9531L16.5 17.1875L16.5781 17.2656L16.8125 17.5L17.0469 17.7344H17.125C17.9063 18.4375 18.6875 18.9844 20.25 19.4531V19.2969C16.9688 29.1406 19.7031 39.0625 19.8594 49.2188C19.3906 49.2188 19.3125 49.5313 18.5312 49.6094H18.1406C18.0625 49.6094 17.9062 49.6094 17.75 49.6875C17.6719 49.6875 17.5156 49.6875 17.4375 49.7656L17.125 49.8438H17.0469L16.7344 49.9219H16.6562L16.4219 50H16.3438L16.1094 50.0781C16.1094 50.0781 16.0312 50.0781 16.0312 50.1563L15.7969 50.2344L15.6406 50.3125C15.5625 50.3125 15.4844 50.3906 15.4844 50.3906L15.3281 50.4688L15.1719 50.5469C15.0938 50.5469 15.0156 50.625 15.0156 50.625L14.8594 50.7031L14.5469 50.9375C14.4687 51.0156 14.3906 51.0938 14.3125 51.0938L14 51.4063L13.9219 51.4844C13.8438 51.6406 13.6875 51.7969 13.6094 51.875L13.4531 52.1094L13.2188 52.5781L13.1406 52.8125V53.0469C13.1406 53.4375 13.2969 53.75 13.8437 53.9844C14 56.875 16.8906 55.5469 18.2188 54.6094L18.2969 54.5313C18.4531 54.375 18.6875 54.2969 18.7656 54.2969H18.8437L19 54.2188C19.0781 54.2188 19.0781 54.2188 19.1562 54.1406C19.3125 54.0625 19.4687 54.0625 19.5469 53.9844C19.625 53.9844 19.625 53.9063 19.625 53.8281L19.7031 53.75C19.7812 53.5938 19.8594 53.2812 19.8594 52.8125L19.9375 51.7969V53.2031C19.5469 63.4375 16.8125 77.1875 22.5156 86.4062C23.5312 88.0469 24.7812 89.4531 26.1875 90.625H25.7969C25.6406 90.7813 25.4062 90.9375 25.1719 91.0938L24.4687 91.5625L24.2344 91.7188L23.7656 92.0313L23.0625 92.5781L22.2031 93.3594C22.0469 93.5156 21.9687 93.6719 21.8906 93.75L21.5781 94.2188L21.4219 94.4531C21.3438 94.6094 21.2656 94.7656 21.2656 94.9219L21.1875 95.1563C21.0312 95.7813 21.1875 96.4844 21.6562 97.2656L21.9687 97.5781H22.125C22.2031 97.5781 22.2812 97.5781 22.4375 97.6563C22.5938 97.9688 23.375 99.6094 25.4844 98.3594C27.6719 97.1875 29.1562 94.7656 31.8125 94.375L31.4219 93.9062C36.0312 96.0938 41.4219 97.0313 46.2656 97.1875C53.0625 97.4219 60.7969 96.4844 66.9688 93.125C68.6875 93.6719 70.0156 96.1719 71.5 97.3438L71.5781 97.4219L71.6562 97.5L71.7344 97.5781L71.8125 97.6563C71.8125 97.6563 71.8906 97.6562 71.8906 97.7344C71.8906 97.7344 71.9688 97.7344 71.9688 97.8125C71.9688 97.8125 72.0469 97.8125 72.0469 97.8906H73.6875C73.6875 97.8906 73.7656 97.8906 73.7656 97.8125H73.8438C73.8438 97.8125 73.9219 97.8125 73.9219 97.7344H74C74 97.7344 74.0781 97.7344 74.0781 97.6563C74.0781 97.6563 74.1562 97.6563 74.1562 97.5781L74.2344 97.5C74.2344 97.5 74.3125 97.5 74.3125 97.4219L74.3906 97.3438H74.4688L74.625 97.1875L74.7812 97.1094H74.8594L74.9375 97.0312H75.0156L75.0938 96.9531L75.1719 96.875L75.25 96.7969L75.3281 96.7188L75.4063 96.6406L75.4844 96.5625L75.5625 96.4844V96.4063C75.5625 96.4063 75.5625 96.3281 75.6406 96.3281V96.25C75.6406 96.25 75.6406 96.1719 75.7188 96.1719V96.0938C75.7188 96.0938 75.7188 96.0156 75.7969 96.0156V94.9219C75.7969 94.9219 75.5625 94.9219 75.5625 94.8438L75.3281 94.7656V94.6875L75.5625 94.6094C75.5625 94.6094 75.7188 94.6094 75.7188 94.5313L75.7969 94.4531V92.8125C75.7969 92.8125 75.7969 92.7344 75.7188 92.7344V92.6562C75.7188 92.6562 75.7188 92.5781 75.6406 92.5781V92.5C75.6406 92.5 75.6406 92.4219 75.5625 92.4219C75.5625 92.4219 75.5625 92.3438 75.4844 92.3438C75.4844 92.3438 75.4844 92.2656 75.4063 92.2656C75.4063 92.2656 75.4062 92.1875 75.3281 92.1875C75.3281 92.1875 75.3281 92.1094 75.25 92.1094C75.25 92.1094 75.25 92.0313 75.1719 92.0313C75.1719 92.0313 75.1719 91.9531 75.0938 91.9531C75.0938 91.9531 75.0938 91.875 75.0156 91.875C75.0156 91.875 75.0156 91.7969 74.9375 91.7969C74.9375 91.7969 74.9375 91.7188 74.8594 91.7188C74.8594 91.7188 74.8594 91.6406 74.7812 91.6406C74.7812 91.6406 74.7813 91.5625 74.7031 91.5625C74.7031 91.5625 74.7031 91.4844 74.625 91.4844C74.625 91.4844 74.625 91.4063 74.5469 91.4063L74.4688 91.3281L74.3906 91.25L74.3125 91.1719L74.2344 91.0938L74.1562 91.0156L74.0781 90.9375L74 90.8594L73.9219 90.7812L73.8438 90.7031L73.7656 90.625L73.6875 90.5469L73.6094 90.4688V90.3906L73.5313 90.3125L73.4531 90.2344L73.375 90.1563L73.2969 90.0781L73.2188 90L73.1406 89.9219L73.0625 89.8438L72.9844 89.7656L72.9062 89.6875L72.8281 89.6094L72.75 89.5312L72.6719 89.4531L72.5938 89.375L72.5156 89.2969L72.4375 89.2188L72.3594 89.1406L72.2813 89.0625L72.2031 88.9844L72.125 88.9063C73.6875 87.4219 75.0938 85.625 76.1094 83.5156C80.7188 74.2969 79.9375 63.0469 79.3125 52.8906H79.3906C79.4688 52.8906 79.5469 52.9688 79.5469 52.9688H79.7812C79.7812 52.9688 79.8594 52.9688 79.8594 53.0469H79.9375C79.9375 53.0469 80.0156 53.0469 80.0156 53.125L80.1719 53.2031C81.5 54.1406 84.3906 55.4688 84.5469 52.5781C85.7969 53.0469 84.3125 51.1719 83.5312 50.625ZM27.125 17.9688C24.625 5.46875 44.625 3.125 45.3281 15.3125C45.9531 25.4688 29.7031 28.0469 27.125 17.9688ZM55.3281 29.6875C54.3125 30.7813 53.2188 30.625 52.125 30.2344C52.125 31.7188 52.4375 33.2812 52.2031 34.8438C51.8125 35.5469 51.0313 35.625 50.4063 35.9375C49.4688 35.7813 48.7656 35.2344 48.375 34.375L48.2188 34.2969C45.1719 38.3594 43.2969 33.4375 44.1562 30.3906C43.2187 30.4688 42.4375 30.2344 41.8125 29.2188C40.7187 27.1875 42.3594 24.6875 44.4687 24.2969C45.0156 26.6406 51.2656 26.3281 52.3594 24.1406C54.7813 25.3125 57.4375 27.5 55.3281 29.6875ZM49.8594 16.0156C49.1562 5.23438 65.7188 2.34375 68.1406 12.8906C70.875 24.6094 51.8906 27.6563 49.8594 16.0156ZM31.5781 13.2813C30.0938 13.2813 28.8438 14.6094 28.8438 16.25C28.8438 17.8906 30.0938 19.2188 31.5781 19.2188C33.0625 19.2188 34.3125 17.8906 34.3125 16.25C34.3125 14.6094 33.1406 13.2813 31.5781 13.2813ZM32.8281 17.7344C32.4375 17.7344 32.2031 17.4219 32.2031 16.9531C32.2031 16.5625 32.5156 16.1719 32.8281 16.1719C33.2188 16.1719 33.4531 16.4844 33.4531 16.9531C33.4531 17.3438 33.2188 17.7344 32.8281 17.7344ZM54.5469 12.5781C53.0625 12.5781 51.8906 13.9063 51.8906 15.5469C51.8906 17.1875 53.0625 18.5156 54.5469 18.5156C56.0312 18.5156 57.2031 17.1875 57.2031 15.5469C57.2031 13.9063 56.0312 12.5781 54.5469 12.5781ZM55.7969 16.9531C55.4844 16.9531 55.1719 16.6406 55.1719 16.1719C55.1719 15.7813 55.4844 15.3906 55.7969 15.3906C56.1094 15.3906 56.4219 15.7031 56.4219 16.1719C56.4219 16.6406 56.1094 16.9531 55.7969 16.9531Z" fill="#38B2AC"/>
</g>
<defs>
<clipPath id="clip0">
<rect width="98" height="100" fill="white"/>
</clipPath>
</defs>
</svg>
