<svg width="70" height="94" viewBox="0 0 70 94" fill="none" xmlns="http://www.w3.org/2000/svg">
<path d="M67.9818 47.5805C67.9069 47.5056 67.832 47.4307 67.6821 47.4307L67.6072 47.3557C67.5323 47.2808 67.4573 47.2808 67.4573 47.2059L67.3824 47.1309C67.3075 47.1309 67.2325 47.056 67.2325 47.056L67.0827 46.9811C67.0078 46.9811 66.9328 46.9061 66.9328 46.9061L66.783 46.8312C66.708 46.8312 66.6331 46.7563 66.6331 46.7563C66.5582 46.7563 66.5582 46.7563 66.4832 46.6814L66.2585 46.6064C66.1835 46.6064 66.1835 46.6064 66.1086 46.5315L65.8838 46.4566H65.8089L65.5092 46.3816H65.3593C65.2844 46.3816 65.2094 46.3816 65.1345 46.3067H63.4111C62.9615 36.341 63.8607 26.2255 61.3131 16.6344C70.979 13.1877 63.4111 -0.0749299 55.019 5.84454C49.4742 1.04902 41.8313 0 33.8138 0C25.9461 0.52451 18.5281 2.17297 13.283 6.29411C11.185 5.2451 9.16184 4.94538 7.36352 5.46989V5.54482C7.28859 5.54482 7.13873 5.61975 7.0638 5.69467C6.98887 5.69467 6.83902 5.76961 6.76408 5.84454H6.68915C6.61422 5.84454 6.5393 5.91947 6.38944 5.9944H6.31451L6.08972 6.14426H6.01479L5.79 6.29411H5.71507L5.49028 6.44397C5.49028 6.44397 5.41535 6.44397 5.41535 6.5189L5.19056 6.66876C5.19056 6.66876 5.11563 6.66876 5.11563 6.74369L4.89084 6.89355C4.89084 6.89355 4.81591 6.89355 4.81591 6.96848L4.59112 7.11834L4.51619 7.19327C4.44126 7.2682 4.36633 7.2682 4.36633 7.34313L4.2914 7.41806L4.14154 7.56792L4.06661 7.64285C3.99168 7.71778 3.99168 7.79271 3.91675 7.79271L3.84182 7.86764C3.76689 7.94257 3.76689 8.0175 3.69196 8.0175L3.61703 8.09243C3.5421 8.16736 3.5421 8.24229 3.46717 8.24229L3.39224 8.31722C3.31731 8.39215 3.31731 8.46708 3.24238 8.46708L3.16745 8.54201C3.09252 8.61694 3.09252 8.69187 3.01759 8.69187L2.94266 8.7668L2.86773 8.99159C2.86773 8.99159 2.86773 9.06652 2.7928 9.06652L2.71787 9.29131C2.71787 9.29131 2.71787 9.36624 2.64294 9.36624L2.56801 9.59103C2.56801 9.59103 2.56801 9.66596 2.49308 9.66596L2.41815 9.89075C2.41815 9.89075 2.41815 9.96568 2.34322 9.96568C2.64294 10.1905 2.64294 10.2654 2.64294 10.2654V10.3403L2.56801 10.5651V10.6401C2.56801 10.715 2.56801 10.7899 2.49308 10.8648V13.1877C2.49308 13.2626 2.49308 13.3375 2.56801 13.4125V13.4874L2.64294 13.7122V13.7871L2.71787 14.0119C2.71787 14.0119 2.71787 14.0868 2.7928 14.0868L2.86773 14.3116C2.86773 14.3116 2.86773 14.3865 2.94266 14.3865L3.01759 14.6113C3.01759 14.6113 3.01759 14.6863 3.09252 14.6863L3.24238 14.9111C3.24238 14.9111 3.24238 14.986 3.31731 14.986L3.46717 15.2108C3.46717 15.2108 3.46717 15.2857 3.5421 15.2857L3.69196 15.5105L3.76689 15.5854L3.99168 15.8102L4.21647 16.035H4.2914C5.0407 16.7094 5.79 17.2339 7.2886 17.6835V17.5336C4.14154 26.9748 6.76409 36.4909 6.91395 46.2318C6.46437 46.2318 6.38944 46.5315 5.64014 46.6064H5.26549C5.19056 46.6064 5.0407 46.6064 4.89084 46.6814C4.81591 46.6814 4.66605 46.6814 4.59112 46.7563L4.2914 46.8312H4.21647L3.91675 46.9061H3.84182L3.61703 46.9811H3.5421L3.31731 47.056C3.31731 47.056 3.24238 47.056 3.24238 47.1309L3.01759 47.2059L2.86773 47.2808C2.7928 47.2808 2.71787 47.3557 2.71787 47.3557L2.56801 47.4307L2.41815 47.5056C2.34322 47.5056 2.26829 47.5805 2.26829 47.5805L2.11843 47.6554L1.81871 47.8802C1.74378 47.9552 1.66885 48.0301 1.59392 48.0301L1.2942 48.3298L1.21927 48.4047C1.14434 48.5546 0.994481 48.7045 0.919551 48.7794L0.76969 49.0042L0.544901 49.4538L0.469971 49.6785V49.9033C0.469971 50.278 0.61983 50.5777 1.14434 50.8025C1.2942 53.5749 4.06661 52.3011 5.34042 51.4019L5.41535 51.327C5.56521 51.1772 5.79 51.1022 5.86493 51.1022H5.93986L6.08972 51.0273C6.16465 51.0273 6.16464 51.0273 6.23957 50.9524C6.38943 50.8774 6.53929 50.8774 6.61422 50.8025C6.68915 50.8025 6.68915 50.7276 6.68915 50.6526L6.76408 50.5777C6.83902 50.4278 6.91395 50.1281 6.91395 49.6785L6.98887 48.7045V50.0532C6.61422 59.869 3.99168 73.0567 9.46156 81.8984C10.4357 83.4719 11.6345 84.8207 12.9833 85.9446H12.6086C12.4588 86.0945 12.234 86.2444 12.0092 86.3942L11.3348 86.8438L11.11 86.9937L10.6604 87.2934L9.98607 87.8179L9.16184 88.5672C9.01198 88.717 8.93705 88.8669 8.86212 88.9418L8.5624 89.3914L8.41254 89.6162C8.33761 89.7661 8.26268 89.9159 8.26268 90.0658L8.18775 90.2906C8.03789 90.89 8.18775 91.5644 8.63733 92.3137L8.93705 92.6134H9.08691C9.16184 92.6134 9.23677 92.6134 9.38663 92.6883C9.53649 92.9881 10.2858 94.5616 12.3089 93.3627C14.4069 92.2388 15.8306 89.9159 18.3782 89.5413L18.0036 89.0917C22.4244 91.1897 27.5946 92.0889 32.2403 92.2388C38.7592 92.4635 46.1772 91.5644 52.0967 88.3424C53.7452 88.8669 55.019 91.2647 56.4426 92.3886L56.5176 92.4635L56.5925 92.5385L56.6674 92.6134L56.7424 92.6883C56.7424 92.6883 56.8173 92.6883 56.8173 92.7633C56.8173 92.7633 56.8922 92.7633 56.8922 92.8382C56.8922 92.8382 56.9671 92.8382 56.9671 92.9131H58.5407C58.5407 92.9131 58.6156 92.9131 58.6156 92.8382H58.6905C58.6905 92.8382 58.7655 92.8382 58.7655 92.7633H58.8404C58.8404 92.7633 58.9153 92.7633 58.9153 92.6883C58.9153 92.6883 58.9902 92.6883 58.9902 92.6134L59.0652 92.5385C59.0652 92.5385 59.1401 92.5385 59.1401 92.4635L59.215 92.3886H59.29L59.4398 92.2388L59.5897 92.1638H59.6646L59.7395 92.0889H59.8145L59.8894 92.014L59.9643 91.939L60.0393 91.8641L60.1142 91.7892L60.1891 91.7142L60.2641 91.6393L60.339 91.5644V91.4895C60.339 91.4895 60.339 91.4145 60.4139 91.4145V91.3396C60.4139 91.3396 60.4139 91.2647 60.4888 91.2647V91.1897C60.4888 91.1897 60.4889 91.1148 60.5638 91.1148V90.0658C60.5638 90.0658 60.339 90.0658 60.339 89.9909L60.1142 89.9159V89.841L60.339 89.7661C60.339 89.7661 60.4888 89.7661 60.4888 89.6911L60.5638 89.6162V88.0427C60.5638 88.0427 60.5638 87.9677 60.4888 87.9677V87.8928C60.4888 87.8928 60.4888 87.8179 60.4139 87.8179V87.743C60.4139 87.743 60.4139 87.668 60.339 87.668C60.339 87.668 60.339 87.5931 60.2641 87.5931C60.2641 87.5931 60.2641 87.5182 60.1891 87.5182C60.1891 87.5182 60.1891 87.4432 60.1142 87.4432C60.1142 87.4432 60.1142 87.3683 60.0393 87.3683C60.0393 87.3683 60.0393 87.2934 59.9643 87.2934C59.9643 87.2934 59.9643 87.2184 59.8894 87.2184C59.8894 87.2184 59.8894 87.1435 59.8145 87.1435C59.8145 87.1435 59.8145 87.0686 59.7395 87.0686C59.7395 87.0686 59.7395 86.9937 59.6646 86.9937C59.6646 86.9937 59.6646 86.9187 59.5897 86.9187C59.5897 86.9187 59.5897 86.8438 59.5148 86.8438C59.5148 86.8438 59.5148 86.7689 59.4398 86.7689C59.4398 86.7689 59.4398 86.6939 59.3649 86.6939L59.29 86.619L59.215 86.5441L59.1401 86.4691L59.0652 86.3942L58.9902 86.3193L58.9153 86.2444L58.8404 86.1694L58.7655 86.0945L58.6905 86.0196L58.6156 85.9446L58.5407 85.8697L58.4657 85.7948V85.7198L58.3908 85.6449L58.3159 85.57L58.2409 85.4951L58.166 85.4201L58.0911 85.3452L58.0162 85.2703L57.9412 85.1953L57.8663 85.1204L57.7914 85.0455L57.7164 84.9706L57.6415 84.8956L57.5666 84.8207L57.4916 84.7458L57.4167 84.6708L57.3418 84.5959L57.2669 84.521L57.1919 84.446L57.117 84.3711L57.0421 84.2962C58.5407 82.8725 59.8894 81.1491 60.8635 79.126C65.2844 70.2843 64.5351 59.4944 63.9356 49.7535H64.0106C64.0855 49.7535 64.1604 49.8284 64.1604 49.8284H64.3852C64.3852 49.8284 64.4601 49.8284 64.4601 49.9033H64.5351C64.5351 49.9033 64.61 49.9033 64.61 49.9783L64.7599 50.0532C66.0337 50.9524 68.8061 52.2262 68.9559 49.4538C70.1548 49.9033 68.7311 48.105 67.9818 47.5805ZM13.8824 16.2598C11.4847 4.27101 30.6667 2.02311 31.3411 13.7122C31.9405 23.4531 16.3551 25.9258 13.8824 16.2598ZM40.9321 27.4993C39.958 28.5483 38.909 28.3984 37.86 28.0238C37.86 29.4475 38.1597 30.9461 37.9349 32.4447C37.5603 33.119 36.811 33.194 36.2116 33.4937C35.3124 33.3438 34.638 32.8193 34.2634 31.9951L34.1135 31.9202C31.1912 35.8165 29.3929 31.0959 30.2172 28.1737C29.318 28.2486 28.5687 28.0238 27.9693 27.0497C26.9202 25.1015 28.4938 22.7038 30.5169 22.3291C31.0414 24.577 37.0358 24.2773 38.0848 22.1793C40.4076 23.3032 42.9552 25.4013 40.9321 27.4993ZM35.687 14.3865C35.0127 4.04622 50.8978 1.27381 53.2206 11.3894C55.8432 22.6288 37.6352 25.5511 35.687 14.3865ZM18.1534 11.764C16.7298 11.764 15.5309 13.0378 15.5309 14.6113C15.5309 16.1849 16.7298 17.4587 18.1534 17.4587C19.5771 17.4587 20.776 16.1849 20.776 14.6113C20.776 13.0378 19.652 11.764 18.1534 11.764ZM19.3523 16.035C18.9777 16.035 18.7529 15.7353 18.7529 15.2857C18.7529 14.9111 19.0526 14.5364 19.3523 14.5364C19.727 14.5364 19.9518 14.8361 19.9518 15.2857C19.9518 15.6604 19.727 16.035 19.3523 16.035ZM40.1828 11.0896C38.7592 11.0896 37.6352 12.3634 37.6352 13.937C37.6352 15.5105 38.7592 16.7843 40.1828 16.7843C41.6065 16.7843 42.7305 15.5105 42.7305 13.937C42.7305 12.3634 41.6065 11.0896 40.1828 11.0896ZM41.3817 15.2857C41.082 15.2857 40.7823 14.986 40.7823 14.5364C40.7823 14.1618 41.082 13.7871 41.3817 13.7871C41.6814 13.7871 41.9812 14.0868 41.9812 14.5364C41.9812 14.986 41.6814 15.2857 41.3817 15.2857Z" fill="white"/>
</svg>
