<svg width="100" height="100" viewBox="0 0 100 100" fill="none" xmlns="http://www.w3.org/2000/svg">
<path d="M39.0015 68.8683C39.0015 68.8683 35.9445 70.6461 41.1771 71.2477C47.5163 71.971 50.7562 71.8672 57.7421 70.545C57.7421 70.545 59.5787 71.6967 62.1437 72.6942C46.4833 79.4061 26.7011 72.3054 39.0015 68.8683Z" fill="white"/>
<path d="M37.0879 60.1096C37.0879 60.1096 33.6592 62.6477 38.8957 63.1893C45.6674 63.888 51.0152 63.9451 60.269 62.1632C60.269 62.1632 61.5489 63.4608 63.5615 64.1704C44.6271 69.7073 23.5376 64.6071 37.0879 60.1096Z" fill="white"/>
<path d="M53.2205 45.2518C57.0792 49.6946 52.2067 53.6925 52.2067 53.6925C52.2067 53.6925 62.0046 48.6343 57.5049 42.3003C53.3022 36.3935 50.0794 33.4586 67.5266 23.3395C67.5266 23.3395 40.1402 30.1796 53.2205 45.2518Z" fill="white"/>
<path d="M73.9326 75.3467C73.9326 75.3467 76.1949 77.2108 71.4411 78.6529C62.4017 81.3913 33.8181 82.2182 25.8777 78.762C23.0234 77.5202 28.3761 75.7969 30.0599 75.4353C31.8159 75.0545 32.8194 75.1255 32.8194 75.1255C29.645 72.8892 12.3017 79.5164 24.0098 81.4144C55.9396 86.5926 82.2148 79.0826 73.9326 75.3467Z" fill="white"/>
<path d="M40.4716 51.0347C40.4716 51.0347 25.9321 54.4881 35.3228 55.7422C39.2878 56.2731 47.192 56.153 54.5545 55.5361C60.5716 55.0285 66.6135 53.9493 66.6135 53.9493C66.6135 53.9493 64.4918 54.8579 62.9568 55.9061C48.1923 59.7893 19.6699 57.9828 27.8811 54.0107C34.8254 50.6539 40.4716 51.0347 40.4716 51.0347Z" fill="white"/>
<path d="M66.5536 65.6139C81.5624 57.8145 74.6229 50.3194 69.7793 51.3291C68.5921 51.5762 68.0627 51.7904 68.0627 51.7904C68.0627 51.7904 68.5034 51.0999 69.3452 50.8011C78.9276 47.4321 86.297 60.7373 66.2519 66.007C66.2519 66.007 66.4842 65.7995 66.5536 65.6139Z" fill="white"/>
<path d="M57.5046 7C57.5046 7 65.8168 15.3152 49.6209 28.1015C36.6335 38.3584 46.6594 44.2066 49.6155 50.8884C42.0346 44.0483 36.4712 38.027 40.2035 32.4229C45.6818 24.1966 60.8584 20.2081 57.5046 7Z" fill="white"/>
<path d="M41.9465 86.7485C56.3531 87.6707 78.476 86.2368 79 79.4198C79 79.4198 77.9928 82.0041 67.0937 84.0564C54.7974 86.3705 39.6316 86.1003 30.6366 84.6173C30.6366 84.6173 32.478 86.1413 41.9465 86.7485Z" fill="white"/>
<rect width="100" height="100" stroke="white"/>
</svg>
