<svg width="98" height="100" viewBox="0 0 98 100" fill="none" xmlns="http://www.w3.org/2000/svg">
<path d="M87 12V88H11V12H87ZM68.8444 46.4883C62.4665 46.4883 58.3854 50.5658 58.3854 55.922C58.3854 61.7366 61.809 64.487 66.9625 66.6826L68.7479 67.4486C72.0051 68.8733 73.9473 69.7407 73.9473 72.1896C73.9473 74.2331 72.057 75.7121 69.0978 75.7121C65.5752 75.7121 63.5836 73.8749 62.0527 71.3753L56.249 74.7471C58.3456 78.8897 62.6305 82.0503 69.263 82.0503C76.0463 82.0503 81.0973 78.5277 81.0973 72.0979C81.0973 66.1337 77.6713 63.481 71.6034 60.8789L69.818 60.114C66.7538 58.787 65.4269 57.9197 65.4269 55.7772C65.4269 54.0437 66.7526 52.7167 68.8444 52.7167C70.8952 52.7167 72.2162 53.5817 73.4406 55.7772L79.0019 52.2064C76.6495 48.0686 73.3851 46.4883 68.8444 46.4883ZM52.3886 46.8961H45.2471V71.1799C45.2471 74.7495 43.7669 75.6675 41.4205 75.6675C38.9668 75.6675 37.9462 73.9846 36.8243 71.9942L31.0109 75.5137C32.695 79.0778 36.0064 82.037 41.7245 82.037C48.053 82.037 52.3886 78.6713 52.3886 71.2764V46.8961Z" fill="#A0AEC0"/>
</svg>
