<svg width="84" height="112" viewBox="0 0 84 112" fill="none" xmlns="http://www.w3.org/2000/svg">
<path d="M26.8701 86.6156C26.8701 86.6156 22.5707 89.1046 29.9299 89.9468C38.8453 90.9593 43.4019 90.8141 53.2267 88.963C53.2267 88.963 55.8098 90.5753 59.4172 91.9718C37.3924 101.369 9.57084 91.4275 26.8701 86.6156Z" fill="#A0AEC0"/>
<path d="M24.1789 74.3534C24.1789 74.3534 19.3567 77.9068 26.7213 78.6651C36.245 79.6432 43.7661 79.7232 56.7805 77.2285C56.7805 77.2285 58.5806 79.0451 61.4111 80.0386C34.7819 87.7902 5.12169 80.6499 24.1789 74.3534Z" fill="#A0AEC0"/>
<path d="M46.8676 53.5526C52.2945 59.7724 45.4418 65.3695 45.4418 65.3695C45.4418 65.3695 59.2216 58.2881 52.8931 49.4205C46.9826 41.1509 42.4499 37.0421 66.9877 22.8754C66.9877 22.8754 28.4715 32.4515 46.8676 53.5526Z" fill="#A0AEC0"/>
<path d="M75.997 95.6854C75.997 95.6854 79.1787 98.2951 72.493 100.314C59.78 104.148 19.5802 105.306 8.4129 100.467C4.39853 98.7283 11.9266 96.3157 14.2947 95.8094C16.7643 95.2763 18.1756 95.3756 18.1756 95.3756C13.7112 92.2449 -10.6804 101.523 5.78588 104.18C50.6917 111.43 87.645 100.916 75.997 95.6854Z" fill="#A0AEC0"/>
<path d="M28.9376 61.6485C28.9376 61.6485 8.48943 66.4834 21.6964 68.2391C27.2728 68.9823 38.3892 68.8141 48.7438 67.9505C57.2062 67.2399 65.7034 65.729 65.7034 65.729C65.7034 65.729 62.7195 67.0011 60.5607 68.4685C39.7959 73.905 -0.317742 71.3759 11.2305 65.815C20.9968 61.1154 28.9376 61.6485 28.9376 61.6485Z" fill="#A0AEC0"/>
<path d="M65.6192 82.0594C86.7275 71.1403 76.9679 60.6471 70.1558 62.0608C68.4861 62.4067 67.7416 62.7065 67.7416 62.7065C67.7416 62.7065 68.3615 61.7399 69.5453 61.3215C83.0219 56.605 93.3862 75.2322 65.195 82.6098C65.195 82.6098 65.5216 82.3194 65.6192 82.0594Z" fill="#A0AEC0"/>
<path d="M52.8928 0C52.8928 0 64.5829 11.6412 41.8052 29.5421C23.5398 43.9018 37.6401 52.0892 41.7976 61.4437C31.1358 51.8676 23.3115 43.4378 28.5606 35.592C36.2652 24.0752 57.6095 18.4914 52.8928 0Z" fill="#A0AEC0"/>
<path d="M31.0119 111.648C51.2732 112.939 82.3869 110.932 83.1238 101.388C83.1238 101.388 81.7073 105.006 66.3788 107.879C49.0853 111.119 27.7562 110.74 15.1057 108.664C15.1057 108.664 17.6954 110.798 31.0119 111.648Z" fill="#A0AEC0"/>
</svg>
