<svg width="100" height="100" viewBox="0 0 100 100" fill="none" xmlns="http://www.w3.org/2000/svg">
<path d="M82 18V82H18V18H82ZM66.7111 47.0428C61.3402 47.0428 57.9035 50.4764 57.9035 54.9869C57.9035 59.8834 60.7865 62.1996 65.1264 64.0485L66.6298 64.6936C69.3727 65.8933 71.0083 66.6237 71.0083 68.686C71.0083 70.4069 69.4164 71.6523 66.9244 71.6523C63.9581 71.6523 62.2809 70.1051 60.9917 68.0003L56.1044 70.8396C57.87 74.3281 61.4784 76.9897 67.0636 76.9897C72.7759 76.9897 77.0293 74.0234 77.0293 68.6088C77.0293 63.5863 74.1443 61.3524 69.0344 59.1611L67.5309 58.5171C64.9506 57.3996 63.8331 56.6692 63.8331 54.865C63.8331 53.4052 64.9496 52.2877 66.7111 52.2877C68.4381 52.2877 69.5505 53.0161 70.5816 54.865L75.2648 51.858C73.2838 48.3736 70.5349 47.0428 66.7111 47.0428ZM52.8536 47.3862H46.8396V67.8357C46.8396 70.8417 45.5931 71.6147 43.6173 71.6147C41.551 71.6147 40.6916 70.1976 39.7468 68.5214L34.8513 71.4852C36.2695 74.4866 39.058 76.9785 43.8733 76.9785C49.2025 76.9785 52.8536 74.1443 52.8536 67.917V47.3862Z" fill="#38B2AC"/>
<rect width="100" height="100" stroke="#38B2AC"/>
</svg>
