<svg width="100" height="100" viewBox="0 0 100 100" fill="none" xmlns="http://www.w3.org/2000/svg">
<path d="M76 24V76H24V24H76ZM63.5778 47.5973C59.2139 47.5973 56.4216 50.3871 56.4216 54.0519C56.4216 58.0303 58.7641 59.9122 62.2902 61.4144L63.5117 61.9385C65.7403 62.9133 67.0692 63.5068 67.0692 65.1823C67.0692 66.5806 65.7758 67.5925 63.7511 67.5925C61.341 67.5925 59.9782 66.3354 58.9308 64.6252L54.9598 66.9322C56.3943 69.7666 59.3262 71.9291 63.8642 71.9291C68.5054 71.9291 71.9613 69.519 71.9613 65.1196C71.9613 61.0389 69.6172 59.2238 65.4655 57.4434L64.2439 56.9201C62.1474 56.0122 61.2394 55.4187 61.2394 53.9528C61.2394 52.7667 62.1465 51.8588 63.5778 51.8588C64.9809 51.8588 65.8848 52.4506 66.7225 53.9528L70.5276 51.5096C68.9181 48.6785 66.6846 47.5973 63.5778 47.5973ZM52.3185 47.8763H47.4322V64.4915C47.4322 66.9338 46.4194 67.562 44.814 67.562C43.1352 67.562 42.4369 66.4105 41.6693 65.0486L37.6917 67.4567C38.8439 69.8954 41.1096 71.9201 45.022 71.9201C49.3521 71.9201 52.3185 69.6172 52.3185 64.5575V47.8763Z" fill="white"/>
</svg>
