<svg width="70" height="100" viewBox="0 0 70 100" fill="none" xmlns="http://www.w3.org/2000/svg">
<path d="M24.0884 69.8684C24.0884 69.8684 21.0174 71.6462 26.274 72.2478C32.6421 72.971 35.8968 72.8673 42.9146 71.5451C42.9146 71.5451 44.7597 72.6968 47.3364 73.6943C31.6044 80.4063 11.7318 73.3055 24.0884 69.8684Z" fill="#38B2AC"/>
<path d="M22.1661 61.1096C22.1661 61.1096 18.7216 63.6477 23.9821 64.1894C30.7847 64.888 36.157 64.9452 45.453 63.1632C45.453 63.1632 46.7388 64.4609 48.7605 65.1705C29.7396 70.7073 8.55376 65.6071 22.1661 61.1096Z" fill="#38B2AC"/>
<path d="M38.3722 46.2519C42.2486 50.6947 37.3537 54.6926 37.3537 54.6926C37.3537 54.6926 47.1965 49.6344 42.6762 43.3004C38.4543 37.3936 35.2167 34.4587 52.7437 24.3396C52.7437 24.3396 25.2321 31.1797 38.3722 46.2519Z" fill="#38B2AC"/>
<path d="M59.179 76.3468C59.179 76.3468 61.4517 78.2109 56.6762 79.653C47.5955 82.3914 18.8813 83.2184 10.9046 79.7621C8.03718 78.5203 13.4144 76.797 15.1059 76.4354C16.8699 76.0546 17.878 76.1256 17.878 76.1256C14.6891 73.8893 -2.73349 80.5166 9.02814 82.4145C41.1038 87.5928 67.499 80.0827 59.179 76.3468Z" fill="#38B2AC"/>
<path d="M25.5653 52.0348C25.5653 52.0348 10.9594 55.4882 20.3929 56.7423C24.3761 57.2732 32.3164 57.1531 39.7126 56.5362C45.7571 56.0286 51.8266 54.9494 51.8266 54.9494C51.8266 54.9494 49.6952 55.858 48.1532 56.9062C33.3212 60.7894 4.66854 58.9829 12.9173 55.0108C19.8932 51.654 25.5653 52.0348 25.5653 52.0348Z" fill="#38B2AC"/>
<path d="M51.7664 66.6139C66.8438 58.8145 59.8726 51.3194 55.0068 52.3292C53.8142 52.5763 53.2824 52.7904 53.2824 52.7904C53.2824 52.7904 53.7252 52.0999 54.5708 51.8011C64.1969 48.4321 71.6 61.7373 51.4634 67.007C51.4634 67.0072 51.6967 66.7996 51.7664 66.6139Z" fill="#38B2AC"/>
<path d="M42.6762 8C42.6762 8 51.0263 16.3152 34.7565 29.1016C21.7097 39.3584 31.7814 45.2066 34.7511 51.8885C27.1355 45.0484 21.5466 39.027 25.296 33.4229C30.7993 25.1966 46.0453 21.2082 42.6762 8Z" fill="#38B2AC"/>
<path d="M27.0469 87.7486C41.5193 88.6708 63.7434 87.2369 64.2697 80.4199C64.2697 80.4199 63.2579 83.0042 52.309 85.0565C39.9565 87.3706 24.7214 87.1004 15.6853 85.6174C15.6855 85.6172 17.5351 87.1414 27.0469 87.7486Z" fill="#38B2AC"/>
</svg>
