<svg width="80" height="80" viewBox="0 0 80 80" fill="none" xmlns="http://www.w3.org/2000/svg">
<path d="M80 0V80H0V0H80ZM60.8889 36.3035C54.1752 36.3035 49.8794 40.5956 49.8794 46.2337C49.8794 52.3543 53.4832 55.2495 58.9079 57.5606L60.7873 58.367C64.2159 59.8667 66.2603 60.7797 66.2603 63.3575C66.2603 65.5086 64.2705 67.0654 61.1556 67.0654C57.4476 67.0654 55.3511 65.1314 53.7397 62.5003L47.6305 66.0495C49.8375 70.4102 54.3479 73.7371 61.3295 73.7371C68.4698 73.7371 73.7867 70.0292 73.7867 63.261C73.7867 56.9829 70.1803 54.1905 63.793 51.4514L61.9137 50.6464C58.6883 49.2495 57.2914 48.3365 57.2914 46.0813C57.2914 44.2565 58.687 42.8597 60.8889 42.8597C63.0476 42.8597 64.4381 43.7702 65.727 46.0813L71.581 42.3225C69.1048 37.967 65.6686 36.3035 60.8889 36.3035ZM43.567 36.7327H36.0495V62.2946C36.0495 66.0521 34.4914 67.0184 32.0216 67.0184C29.4387 67.0184 28.3644 65.247 27.1835 63.1518L21.0641 66.8565C22.8368 70.6083 26.3225 73.7232 32.3416 73.7232C39.0032 73.7232 43.567 70.1803 43.567 62.3962V36.7327Z" fill="black"/>
</svg>
