<svg width="83" height="112" viewBox="0 0 83 112" fill="none" xmlns="http://www.w3.org/2000/svg">
<path d="M26.7309 86.6156C26.7309 86.6156 22.4303 89.1046 29.7915 89.9468C38.7094 90.9593 43.2672 90.8141 53.0948 88.963C53.0948 88.963 55.6785 90.5753 59.2869 91.9718C37.2562 101.369 9.42694 91.4275 26.7309 86.6156Z" fill="black"/>
<path d="M24.039 74.3534C24.039 74.3534 19.2154 77.9068 26.5821 78.6651C36.1084 79.6432 43.6316 79.7232 56.6496 77.2285C56.6496 77.2285 58.4501 79.0451 61.2814 80.0386C34.6449 87.7902 4.97656 80.6499 24.039 74.3534Z" fill="black"/>
<path d="M46.7339 53.5526C52.1623 59.7724 45.3077 65.3695 45.3077 65.3695C45.3077 65.3695 59.0913 58.2881 52.7611 49.4205C46.8489 41.1509 42.315 37.0421 66.8595 22.8754C66.8595 22.8754 28.3328 32.4515 46.7339 53.5526Z" fill="black"/>
<path d="M75.8713 95.6854C75.8713 95.6854 79.0538 98.2951 72.3663 100.314C59.6499 104.148 19.4391 105.306 8.26867 100.467C4.25321 98.7283 11.7833 96.3157 14.152 95.8094C16.6224 95.2763 18.034 95.3756 18.034 95.3756C13.5684 92.2449 -10.8298 101.523 5.64094 104.18C50.5591 111.43 87.5225 100.916 75.8713 95.6854Z" fill="black"/>
<path d="M28.799 61.6485C28.799 61.6485 8.34523 66.4834 21.5558 68.2391C27.1337 68.9823 38.2532 68.8141 48.6106 67.9505C57.0753 67.2399 65.5749 65.729 65.5749 65.729C65.5749 65.729 62.5901 67.0011 60.4307 68.4685C39.6603 73.905 -0.464354 71.3759 11.087 65.815C20.856 61.1154 28.799 61.6485 28.799 61.6485Z" fill="black"/>
<path d="M65.4906 82.0594C86.6048 71.1403 76.8424 60.6471 70.0285 62.0608C68.3583 62.4067 67.6136 62.7065 67.6136 62.7065C67.6136 62.7065 68.2337 61.7399 69.4178 61.3215C82.8981 56.605 93.2653 75.2322 65.0663 82.6098C65.0663 82.6098 65.393 82.3194 65.4906 82.0594Z" fill="black"/>
<path d="M52.7607 0C52.7607 0 64.4541 11.6412 41.6701 29.5421C23.3997 43.9018 37.5039 52.0892 41.6625 61.4437C30.9978 51.8676 23.1713 43.4378 28.4219 35.592C36.1286 24.0752 57.4787 18.4914 52.7607 0Z" fill="black"/>
<path d="M30.8738 111.648C51.1408 112.939 82.2629 110.932 83 101.388C83 101.388 81.5832 105.006 66.2505 107.879C48.9522 111.119 27.6173 110.74 14.9633 108.664C14.9633 108.664 17.5538 110.798 30.8738 111.648Z" fill="black"/>
</svg>
