<svg width="70" height="100" viewBox="0 0 70 100" fill="none" xmlns="http://www.w3.org/2000/svg">
<path d="M24.0884 71.8684C24.0884 71.8684 21.0174 73.6462 26.274 74.2478C32.6421 74.971 35.8968 74.8673 42.9146 73.5451C42.9146 73.5451 44.7597 74.6968 47.3364 75.6943C31.6044 82.4063 11.7318 75.3055 24.0884 71.8684Z" fill="#A0AEC0"/>
<path d="M22.1661 63.1096C22.1661 63.1096 18.7216 65.6477 23.9821 66.1894C30.7847 66.888 36.157 66.9452 45.453 65.1632C45.453 65.1632 46.7388 66.4609 48.7605 67.1705C29.7396 72.7073 8.55376 67.6071 22.1661 63.1096Z" fill="#A0AEC0"/>
<path d="M38.3722 48.2519C42.2486 52.6947 37.3537 56.6926 37.3537 56.6926C37.3537 56.6926 47.1965 51.6344 42.6762 45.3004C38.4543 39.3936 35.2167 36.4587 52.7437 26.3396C52.7437 26.3396 25.2321 33.1797 38.3722 48.2519Z" fill="#A0AEC0"/>
<path d="M59.179 78.3468C59.179 78.3468 61.4517 80.2109 56.6762 81.653C47.5955 84.3914 18.8813 85.2184 10.9046 81.7621C8.03718 80.5203 13.4144 78.797 15.1059 78.4354C16.8699 78.0546 17.878 78.1256 17.878 78.1256C14.6891 75.8893 -2.73349 82.5166 9.02814 84.4145C41.1038 89.5928 67.499 82.0827 59.179 78.3468Z" fill="#A0AEC0"/>
<path d="M25.5653 54.0348C25.5653 54.0348 10.9594 57.4882 20.3929 58.7423C24.3761 59.2732 32.3164 59.1531 39.7126 58.5362C45.7571 58.0286 51.8266 56.9494 51.8266 56.9494C51.8266 56.9494 49.6952 57.858 48.1532 58.9062C33.3212 62.7894 4.66854 60.9829 12.9173 57.0108C19.8932 53.654 25.5653 54.0348 25.5653 54.0348Z" fill="#A0AEC0"/>
<path d="M51.7664 68.6139C66.8438 60.8145 59.8726 53.3194 55.0068 54.3292C53.8142 54.5763 53.2824 54.7904 53.2824 54.7904C53.2824 54.7904 53.7252 54.0999 54.5708 53.8011C64.1969 50.4321 71.6 63.7373 51.4634 69.007C51.4634 69.0072 51.6967 68.7996 51.7664 68.6139Z" fill="#A0AEC0"/>
<path d="M42.6762 10C42.6762 10 51.0263 18.3152 34.7565 31.1016C21.7097 41.3584 31.7814 47.2066 34.7511 53.8885C27.1355 47.0484 21.5466 41.027 25.296 35.4229C30.7993 27.1966 46.0453 23.2082 42.6762 10Z" fill="#A0AEC0"/>
<path d="M27.0469 89.7486C41.5193 90.6708 63.7434 89.2369 64.2697 82.4199C64.2697 82.4199 63.2579 85.0042 52.309 87.0565C39.9565 89.3706 24.7214 89.1004 15.6853 87.6174C15.6855 87.6172 17.5351 89.1414 27.0469 89.7486Z" fill="#A0AEC0"/>
</svg>
