<svg width="100" height="100" viewBox="0 0 100 100" fill="none" xmlns="http://www.w3.org/2000/svg">
<path d="M40.425 67.1348C40.425 67.1348 37.7825 68.6904 42.3056 69.2168C47.7853 69.8496 50.5859 69.7588 56.6245 68.6019C56.6245 68.6019 58.2121 69.6096 60.4293 70.4824C46.8923 76.3554 29.7925 70.1422 40.425 67.1348Z" fill="#A0AEC0"/>
<path d="M38.7709 59.4709C38.7709 59.4709 35.8071 61.6917 40.3336 62.1657C46.1871 62.777 50.8098 62.827 58.8088 61.2678C58.8088 61.2678 59.9151 62.4032 61.6548 63.0241C45.2878 67.8689 27.0579 63.4062 38.7709 59.4709Z" fill="#A0AEC0"/>
<path d="M52.716 46.4703C56.0515 50.3577 51.8397 53.8559 51.8397 53.8559C51.8397 53.8559 60.3091 49.43 56.4195 43.8878C52.7867 38.7193 50.0008 36.1513 65.0824 27.2971C65.0824 27.2971 41.4093 33.2822 52.716 46.4703Z" fill="#A0AEC0"/>
<path d="M70.6197 72.8034C70.6197 72.8034 72.5752 74.4344 68.4661 75.6963C60.6523 78.0924 35.9445 78.816 29.0808 75.7917C26.6134 74.7052 31.2404 73.1973 32.6958 72.8809C34.2137 72.5477 35.0812 72.6098 35.0812 72.6098C32.3372 70.6531 17.3455 76.4519 27.4661 78.1126C55.0664 82.6435 77.7789 76.0723 70.6197 72.8034Z" fill="#A0AEC0"/>
<path d="M41.6958 51.5303C41.6958 51.5303 29.1278 54.5521 37.2451 55.6494C40.6725 56.1139 47.505 56.0088 53.8692 55.4691C59.0704 55.0249 64.293 54.0806 64.293 54.0806C64.293 54.0806 62.459 54.8757 61.1321 55.7928C48.3696 59.1906 23.7147 57.6099 30.8125 54.1344C36.8151 51.1971 41.6958 51.5303 41.6958 51.5303Z" fill="#A0AEC0"/>
<path d="M64.2412 64.2871C77.215 57.4627 71.2164 50.9044 67.0295 51.788C66.0033 52.0042 65.5457 52.1916 65.5457 52.1916C65.5457 52.1916 65.9267 51.5874 66.6543 51.3259C74.9374 48.3781 81.3076 60.0201 63.9805 64.6311C63.9805 64.6311 64.1812 64.4496 64.2412 64.2871Z" fill="#A0AEC0"/>
<path d="M56.4193 13C56.4193 13 63.6043 20.2758 49.6045 31.4638C38.3781 40.4386 47.0446 45.5558 49.5999 51.4023C43.0468 45.4173 38.2378 40.1486 41.4641 35.245C46.1995 28.047 59.3183 24.5571 56.4193 13Z" fill="#A0AEC0"/>
<path d="M42.9707 82.78C55.4238 83.5869 74.5471 82.3322 75 76.3674C75 76.3674 74.1294 78.6286 64.7081 80.4244C54.0791 82.4492 40.9697 82.2128 33.1943 80.9151C33.1943 80.9151 34.786 82.2486 42.9707 82.78Z" fill="#A0AEC0"/>
</svg>
