<svg width="100" height="100" viewBox="0 0 100 100" fill="none" xmlns="http://www.w3.org/2000/svg">
<path d="M79.1404 51.3741C76.7828 43.5657 64.5782 36.7333 50 36.7333C35.1296 36.7333 23.2172 43.5657 20.8596 51.3741L18.0478 53.7778L14.0674 46.1296L11 33.237L16.2584 35.4222C17.6963 33.9711 18.7216 32.8414 22.3933 30.8333L25.8989 23.6222L31.8146 28.2111C35.7958 27.2659 39.7542 26.2753 44.3034 26.463L50 21L55.6966 26.463C60.2458 26.2753 64.2042 27.2659 68.1854 28.2111L74.1011 23.6222L77.6067 30.8333C81.2784 32.8414 82.3037 33.9711 83.7416 35.4222L89 33.237L85.9326 46.1296L81.9522 53.7778L79.1404 51.3741Z" fill="#A0AEC0"/>
<path d="M82.427 52.0296L79.1405 51.1555L73.2247 58.8037L65.118 61.2074L50 52.6852L34.882 61.2074L26.7753 58.8037L20.8595 51.1555L17.573 52.0296L14.0674 45.9111L20.8595 65.1407C25.6582 75.1026 40.4387 80 50 80C59.5613 80 74.3418 75.1026 79.1405 65.1407L85.9326 45.9111L82.427 52.0296Z" fill="#A0AEC0"/>
</svg>
