<svg width="106" height="81" viewBox="0 0 106 81" fill="none" xmlns="http://www.w3.org/2000/svg">
<path d="M92.6011 41.7C89.3971 30.9801 72.8114 21.6 53 21.6C32.7916 21.6 16.6029 30.9801 13.3989 41.7L9.57771 45L4.16854 34.5L0 16.8L7.14607 19.8C9.10013 17.8078 10.4934 16.2569 15.4831 13.5L20.2472 3.6L28.2865 9.90001C33.6969 8.60236 39.0762 7.2423 45.2584 7.5L53 0L60.7416 7.5C66.9238 7.2423 72.3031 8.60236 77.7135 9.90001L85.7528 3.6L90.5169 13.5C95.5066 16.2569 96.8999 17.8078 98.8539 19.8L106 16.8L101.831 34.5L96.4223 45L92.6011 41.7Z" fill="black"/>
<path d="M97.0674 42.6L92.6011 41.4L84.5618 51.9L73.545 55.2L53 43.5L32.4551 55.2L21.4382 51.9L13.3989 41.4L8.93257 42.6L4.16853 34.2L13.3989 60.6C19.9201 74.2764 40.0065 81 53 81C65.9935 81 86.0799 74.2764 92.6011 60.6L101.831 34.2L97.0674 42.6Z" fill="black"/>
</svg>
