<svg width="106" height="81" viewBox="0 0 106 81" fill="none" xmlns="http://www.w3.org/2000/svg">
<path d="M92.6011 41.6919C89.3971 31.0452 72.8114 21.7292 53 21.7292C32.7916 21.7292 16.6029 31.0452 13.3989 41.6919L9.57771 44.9693L4.16854 34.5411L0 16.962L7.14607 19.9415C9.10013 17.963 10.4934 16.4226 15.4831 13.6846L20.2472 3.85225L28.2865 10.1092C33.6969 8.82043 39.0762 7.46965 45.2584 7.7256L53 0.276855L60.7416 7.7256C66.9238 7.46965 72.3031 8.82043 77.7135 10.1092L85.7528 3.85225L90.5169 13.6846C95.5066 16.4226 96.8999 17.963 98.8539 19.9415L106 16.962L101.831 34.5411L96.4223 44.9693L92.6011 41.6919Z" fill="#A0AEC0"/>
<path d="M97.0674 42.5857L92.6011 41.3939L84.5618 51.8221L73.5449 55.0996L53 43.4795L32.455 55.0996L21.4382 51.8221L13.3989 41.3939L8.93257 42.5857L4.16853 34.2431L13.3989 60.4627C19.9201 74.0456 40.0065 80.7232 53 80.7232C65.9935 80.7232 86.0799 74.0456 92.6011 60.4627L101.831 34.2431L97.0674 42.5857Z" fill="#A0AEC0"/>
</svg>
