<svg width="100" height="100" viewBox="0 0 100 100" fill="none" xmlns="http://www.w3.org/2000/svg">
<path d="M76.8989 51.3148C74.7226 44.0359 63.4568 37.6667 50 37.6667C36.2735 37.6667 25.2774 44.0359 23.1011 51.3148L20.5056 53.5556L16.8315 46.4259L14 34.4074L18.8539 36.4445C20.1812 35.0917 21.1276 34.0386 24.5169 32.1667L27.7528 25.4444L33.2135 29.7222C36.8884 28.8411 40.5423 27.9176 44.7416 28.0926L50 23L55.2584 28.0926C59.4577 27.9176 63.1116 28.8411 66.7865 29.7222L72.2472 25.4444L75.4832 32.1667C78.8724 34.0386 79.8188 35.0917 81.1461 36.4445L86 34.4074L83.1685 46.4259L79.4944 53.5556L76.8989 51.3148Z" fill="#38B2AC"/>
<path d="M79.9326 51.9259L76.8989 51.1111L71.4382 58.2407L63.9551 60.4815L50 52.537L36.0449 60.4815L28.5618 58.2407L23.1011 51.1111L20.0674 51.9259L16.8315 46.2222L23.1011 64.1481C27.5306 73.4346 41.1742 78 50 78C58.8258 78 72.4694 73.4346 76.8989 64.1481L83.1685 46.2222L79.9326 51.9259Z" fill="#38B2AC"/>
</svg>
