<svg width="125" height="100" viewBox="0 0 125 100" fill="none" xmlns="http://www.w3.org/2000/svg">
<path d="M62.5003 8.00009C62.5003 8.00009 57.7482 11.7553 52.9038 15.4852C47.9202 15.3269 38.1458 16.4428 32.8496 18.3689C27.9707 15.278 23.6837 11.8653 23.6837 11.8653C23.6837 11.8653 20.0203 18.1677 17.7165 21.8661C14.3 23.6832 10.8698 25.727 7.81251 28.4311C4.25662 27.019 0.134537 25.2975 0 25.2406C4.70907 34.7389 7.87472 44.2499 16.4862 49.9664C30.1963 28.3136 93.9057 30.3093 107.899 49.8436C116.943 45.1266 120.46 34.9782 124.016 25.6087C123.626 25.7372 118.787 27.3573 115.65 28.5537C113.777 26.5146 109.362 23.3794 106.853 21.866C104.473 17.5078 101.009 11.6199 101.009 11.6199C101.009 11.6199 96.9065 14.6714 92.151 18.0007C85.7264 16.8148 77.9557 15.3738 71.42 15.7306C66.971 12.0737 62.5003 8.00009 62.5003 8.00009Z" fill="#F3D400"/>
<path d="M4.86884 45.4261C4.86884 45.4261 11.5433 61.587 16.1787 72.8167C35.821 98.731 85.9795 100.532 107.846 73.3185C113.021 61.6571 120.001 45.2688 120.001 45.2688C114.392 53.5794 105.262 59.3163 99.6391 62.4065C95.6437 64.5954 86.4246 65.9184 86.4246 65.9184L62.221 53.3759L37.8785 65.6675C37.8785 65.6675 28.782 64.2061 24.6639 62.2811C16.3524 57.8442 10.7623 52.6023 4.86884 45.4261Z" fill="#FFE953"/>
</svg>
