<svg width="125" height="100" viewBox="0 0 125 100" fill="none" xmlns="http://www.w3.org/2000/svg">
<path d="M103.843 51.7593C100.457 40.51 82.9328 30.6667 62 30.6667C40.6477 30.6667 23.5427 40.51 20.1573 51.7593L16.1198 55.2222L10.4045 44.2037L6 25.6296L13.5506 28.7778C15.6152 26.6872 17.0874 25.0597 22.3596 22.1667L27.3933 11.7778L35.8876 18.3889C41.6042 17.0272 47.2881 15.5999 53.8202 15.8704L62 8L70.1798 15.8704C76.7119 15.5999 82.3958 17.0272 88.1124 18.3889L96.6067 11.7778L101.64 22.1667C106.913 25.0597 108.385 26.6872 110.449 28.7778L118 25.6296L113.596 44.2037L107.88 55.2222L103.843 51.7593Z" fill="#38B2AC"/>
<path d="M108.562 52.7037L103.843 51.4445L95.3483 62.463L83.7079 65.926L62 53.6482L40.2921 65.926L28.6517 62.463L20.1573 51.4445L15.4382 52.7037L10.4045 43.8889L20.1573 71.5926C27.0476 85.9444 48.271 93 62 93C75.729 93 96.9524 85.9444 103.843 71.5926L113.596 43.8889L108.562 52.7037Z" fill="#38B2AC"/>
</svg>
