<svg width="101" height="100" viewBox="0 0 101 100" fill="none" xmlns="http://www.w3.org/2000/svg">
<path d="M51.505 76.3031C51.3466 75.6694 51.6633 74.8773 51.3466 74.2438C51.1881 73.61 50.7128 73.61 50.5545 73.1348C49.9208 71.8674 49.1287 70.4418 49.1287 68.8575C49.1287 67.5902 48.6534 66.3229 48.4951 65.0556C48.4951 64.4218 48.4951 63.7883 48.4951 63.1545C48.4951 62.8377 48.4951 62.521 48.3367 62.2042C48.3367 62.0457 48.3367 61.7289 48.1782 61.7289L48.3367 61.2536C48.3367 61.0952 49.7625 61.0952 50.2377 61.0952C51.0298 61.0952 51.6633 61.0952 52.4554 61.2536C54.0397 61.2536 55.307 61.2536 56.8911 61.0952C60.2178 60.6199 61.6436 59.1943 62.4356 58.719C65.4455 56.6596 66.8713 53.016 66.8713 53.016C67.3466 51.9072 67.3466 49.8476 68.4554 49.0556C69.7227 47.9467 71.7823 48.105 73.2079 47.4715C74 47.1547 74.6337 46.8377 75.5842 46.9962C76.2178 47.1547 77.3268 47.9467 77.6436 46.8377C77.4851 46.6794 77.3268 46.5209 77.1684 46.3624C78.4357 46.2041 77.1683 43.511 76.6931 42.8775C75.901 42.0852 74.7922 41.61 73.5247 41.2932C71.9406 40.8179 70.515 40.3426 69.0892 40.6596C66.5545 41.1349 66.7128 39.7091 65.2872 39.7091C63.5446 39.7091 60.3763 39.8676 59.7425 41.61C59.4257 42.4022 59.2674 42.4022 58.7922 43.0358C58.4752 43.511 58.7922 43.9863 58.6337 44.6199C58.4752 45.2536 58.1584 47.4715 57.8416 48.2635C57.3664 49.5308 56.7326 51.1149 55.6238 51.1149C54.0397 51.2734 52.7724 51.4319 51.505 50.9566C50.7128 50.6398 49.4455 50.1646 48.8119 50.0061C45.802 48.7388 45.3268 47.4715 45.3268 47.4715C45.01 46.9962 44.2179 46.0457 43.901 44.9368C43.5842 43.6695 42.9504 42.719 42.7921 42.0852C42.4753 41.4517 42.0001 40.3426 41.5248 39.2338C40.8911 37.808 40.099 36.6992 39.4654 36.2239C38.5149 35.4319 37.7229 34.1645 35.8218 34.4813C35.505 34.4813 34.2377 34.6398 33.2872 35.4319C32.6534 35.9071 32.4951 37.016 31.8614 37.9665C31.5446 38.4418 30.9108 40.0259 30.4357 41.2932C30.1188 42.2437 29.9605 42.8775 29.4852 43.1942C29.1682 43.511 28.8515 43.8278 28.3762 43.6695C28.0594 43.511 27.7426 43.3525 27.4258 43.1942C26.9505 42.8775 26 41.1349 25.3663 40.0259C24.8911 38.917 23.7822 37.3327 23.1485 36.5407C22.198 35.2734 21.7228 34.9566 20.297 34.9566C17.4455 34.9566 17.1287 36.5407 15.8614 38.917C15.2277 40.0259 15.0693 41.61 13.9604 42.8775C13.4851 43.511 11.4257 46.5209 10 46.9962V68.8575V68.6992C10.1584 68.3823 10.1584 68.0655 10.3168 67.907C10.9505 66.7982 12.2178 65.6893 12.8515 64.4218C13.1683 63.7883 13.6436 63.1545 13.9604 62.3625C14.1188 61.8872 14.2772 60.9369 14.5941 60.4616C14.9109 59.8278 15.5446 59.6695 16.1782 59.5111C17.2871 59.3526 18.0792 60.9369 19.3465 61.5704C19.8218 61.8872 22.3564 62.6794 23.1485 62.8377C24.4158 63.1545 25.6832 63.313 26.9505 63.6298C27.5841 63.7883 28.2179 63.7883 29.0099 63.9468C29.6435 63.9468 32.0198 64.1051 32.0198 64.2635C30.9108 64.8971 30.1188 66.4814 29.6435 67.7487C29.1682 69.016 28.8515 70.4418 28.3762 71.5507C27.7426 72.818 26.4752 73.4517 26.6337 75.0358C26.6337 75.6694 26.7921 76.3031 26.6337 76.9367C26.4752 77.7289 26.1584 78.2042 26 78.9963C25.6832 79.9466 25.3663 82.9565 25.0495 83.7487L27.5841 83.4318C27.9009 82.7982 28.0594 79.9466 28.2179 79.6298C28.6931 78.204 29.3267 77.0952 30.2773 75.9864C31.2278 74.8773 31.2278 73.61 31.7031 72.3427C32.3366 70.9169 33.1287 69.9666 33.9207 68.6992C35.3465 66.4814 36.2971 63.4715 39.1485 62.8377C39.4654 62.8377 41.208 64.1051 42.0001 64.8971C42.9504 65.8476 43.901 66.7982 44.5347 68.0655C45.6435 70.4418 46.7526 73.9268 47.0693 75.6694C47.2278 76.7784 47.3861 76.7784 48.1782 77.7289C48.4951 78.0457 49.1287 79.313 49.4455 79.7883C49.604 80.2636 50.0792 81.3724 50.2377 82.0062C50.396 82.3229 50.8713 83.4318 51.1881 84.3823H53.5644C52.6139 81.6892 51.8218 78.9963 51.505 76.3031Z" fill="white"/>
<path d="M50.2379 81.8495C49.9211 81.2159 49.6043 80.1069 49.4458 79.6317C49.2875 79.1566 48.4953 77.8891 48.1785 77.5723C47.3865 76.7802 47.228 76.6218 47.0697 75.5129C46.7527 73.6119 45.6439 70.1269 44.535 67.909C43.9013 66.6417 42.9508 65.6912 42.0002 64.7406C41.2082 63.9486 39.4656 62.6813 39.1488 62.6813C36.1389 63.3148 35.3469 66.1664 33.9211 68.5426C33.129 69.8099 32.337 70.9189 31.7032 72.1862C31.0696 73.4536 31.2279 74.8792 30.2776 75.8297C29.3271 76.9387 28.6933 78.0476 28.218 79.4734C28.0597 79.7901 27.9013 82.6416 27.5845 83.2753L32.0202 82.9585C36.1389 83.2753 34.8716 84.8594 41.3667 84.5426L51.5052 84.2258C50.8716 83.2753 50.3964 82.1665 50.2379 81.8495Z" fill="url(#paint0_linear_1552_820)"/>
<path d="M79.703 15H19.9802C14.4356 15 10 19.5941 10 25.1386V47.1585C11.4257 46.5247 13.4851 43.5148 14.1188 42.7228C15.2277 41.4555 15.3861 39.7129 16.0198 38.7623C17.2871 36.3862 17.604 34.8019 20.4554 34.8019C21.8812 34.8019 22.3564 35.1189 23.3069 36.3862C23.9406 37.1782 25.0495 38.7623 25.5248 39.7129C26.1584 40.9802 27.1089 42.5643 27.5841 42.8813C27.9009 43.198 28.2179 43.3565 28.5347 43.3565C29.0099 43.5148 29.3267 43.198 29.6435 42.8813C30.1188 42.5643 30.2773 41.9307 30.594 40.9802C31.0693 39.7129 31.703 38.1288 32.0198 37.6535C32.6534 36.703 32.8119 35.5941 33.4456 35.1189C34.396 34.3268 35.505 34.3268 35.9803 34.1683C37.8812 33.8516 38.6732 35.1189 39.6237 35.9109C40.2575 36.3862 41.0495 37.495 41.6831 38.9208C42.1584 40.0297 42.7921 41.1387 42.9504 41.7722C43.1089 42.406 43.7427 43.3565 44.0594 44.6238C44.3762 45.7327 45.1683 46.5247 45.4852 47.1585C45.4852 47.1585 45.9605 48.5841 48.9704 49.6931C49.604 50.0099 50.8713 50.3267 51.6633 50.6436C52.9307 51.1189 54.198 51.1189 55.7823 50.8019C56.8911 50.8019 57.5248 49.2178 58.0001 47.9505C58.3169 47.1585 58.6337 44.9406 58.7922 44.3069C58.9505 43.6733 58.4752 43.198 58.9505 42.7228C59.4257 42.0892 59.5842 42.0892 59.901 41.297C60.3763 39.5544 63.7029 39.3961 65.4455 39.3961C66.8713 39.3961 66.7128 40.8219 69.2475 40.3466C70.6733 40.0297 72.0991 40.5049 73.6832 40.9802C74.9505 41.297 76.2178 41.7722 76.8516 42.5643C77.3268 43.0396 78.4357 45.8912 77.3268 46.0495C77.4851 46.2079 77.4851 46.3664 77.8021 46.5247C77.4851 47.6337 76.3763 46.8417 75.7425 46.6832C74.9505 46.5247 74.3169 46.6832 73.3664 47.1585C71.9406 47.792 69.7227 47.792 68.6139 48.7426C67.5049 49.6931 67.5049 51.5942 67.0298 52.703C67.0298 52.703 65.604 56.3465 62.5941 58.406C61.8021 59.0396 60.3763 60.3069 57.0496 60.7822C55.6238 60.9407 54.198 61.099 52.6139 60.9407C51.8218 60.9407 51.1881 60.9407 50.396 60.7822C49.9208 60.7822 48.4951 60.7822 48.4951 60.9407L48.3367 61.4159C48.3367 61.5742 48.3367 61.8912 48.4951 61.8912C48.4951 62.208 48.4951 62.5248 48.6534 62.8415C48.6534 63.4753 48.6534 64.1089 48.6534 64.7426C48.6534 66.0099 49.1287 67.2772 49.2872 68.5446C49.2872 69.9704 50.0792 71.5545 50.7128 72.8218C51.0298 73.297 51.3466 73.297 51.505 73.9308C51.6633 74.5644 51.505 75.1981 51.6633 75.9902C51.9803 78.6833 52.7724 81.3762 54.0397 83.911C55.4653 83.5941 57.0496 83.1188 58.9505 82.802C62.4356 82.3267 67.3466 82.4852 70.5148 82.3267C78.4357 81.5347 82.8714 85.6534 90 83.911V25.1386C89.8417 19.5941 85.406 15 79.703 15Z" fill="url(#paint1_linear_1552_820)"/>
<path d="M28.3762 71.5525C29.0099 70.2852 29.3267 69.0179 29.6435 67.7506C30.1188 66.4832 30.7525 64.8991 32.0198 64.2654C31.8614 64.1069 29.4852 63.9486 29.0099 63.9486C28.3762 63.9486 27.7426 63.7901 26.9505 63.6316C25.6832 63.3149 24.2574 63.1566 23.1485 62.8396C22.3564 62.6813 19.9802 61.7308 19.3465 61.5723C18.0792 60.9387 17.2871 59.3544 16.1782 59.5129C15.5446 59.6714 14.9109 59.8297 14.5941 60.4634C14.2772 60.9387 14.1188 61.8892 13.9604 62.5228C13.6436 63.1566 13.3267 63.9486 12.8515 64.5822C12.0594 65.8495 10.7921 66.9585 10.3168 68.0673C10.1584 68.3841 10.1584 68.5426 10 68.8594V82.4833C10.6337 82.6416 11.2673 82.8001 12.0594 82.9585C17.604 84.3842 19.0297 84.5426 24.5743 83.9089H25.0495C25.5248 82.9585 25.8416 80.1069 26 79.1564C26.1584 78.5228 26.4752 77.8891 26.6337 77.097C26.7921 76.4635 26.6337 75.8297 26.6337 75.1962C26.4752 73.4536 27.7426 72.8198 28.3762 71.5525Z" fill="url(#paint2_linear_1552_820)"/>
<defs>
<linearGradient id="paint0_linear_1552_820" x1="39.2868" y1="62.7286" x2="39.2868" y2="84.5828" gradientUnits="userSpaceOnUse">
<stop stop-color="#F29100"/>
<stop offset="1" stop-color="#EC670F"/>
</linearGradient>
<linearGradient id="paint1_linear_1552_820" x1="49.9081" y1="15.0325" x2="49.9081" y2="84.6271" gradientUnits="userSpaceOnUse">
<stop stop-color="#F29100"/>
<stop offset="1" stop-color="#EC670F"/>
</linearGradient>
<linearGradient id="paint2_linear_1552_820" x1="21.0029" y1="59.4736" x2="21.0029" y2="84.1446" gradientUnits="userSpaceOnUse">
<stop stop-color="#F29100"/>
<stop offset="1" stop-color="#EC670F"/>
</linearGradient>
</defs>
</svg>
