<svg width="136" height="100" viewBox="0 0 136 100" fill="none" xmlns="http://www.w3.org/2000/svg">
<g clip-path="url(#clip0)">
<path d="M68.5 20.2646C35.5508 20.2646 8.83789 33.8018 8.83789 50.5C8.83789 67.1982 35.5508 80.7354 68.5 80.7354C101.449 80.7354 128.162 67.1982 128.162 50.5C128.162 33.8018 101.449 20.2646 68.5 20.2646ZM52.9756 56.3906C51.5518 57.7227 49.9707 58.2725 48.2295 58.8389C46.4883 59.4063 44.2725 59.2891 41.5781 59.2891H35.4717L33.7793 69.0547H26.6494L33.0117 35.8516H46.7227C50.8477 35.8516 53.8564 37.0381 55.7481 39.2031C57.6397 41.3682 58.208 44.4414 57.4541 48.3213C57.1426 49.9199 56.6182 51.4062 55.8779 52.7305C55.1367 54.0557 54.1689 55.293 52.9756 56.3906ZM73.7871 59.2891L76.6006 45.207C76.9209 43.5586 76.8037 42.334 76.248 41.7354C75.6914 41.1357 74.5078 40.7344 72.6982 40.7344H67.0439L63.4004 59.2891H56.3262L62.6885 27.0625H69.7627L68.0713 35.8516H74.373C78.3389 35.8516 81.0732 36.6475 82.5781 38.0303C84.083 39.4131 84.5342 41.3076 83.9326 44.4053L80.9727 59.2891H73.7871ZM113.103 48.373C112.792 49.9717 112.267 51.4326 111.527 52.7559C110.787 54.0811 109.82 55.293 108.626 56.3906C107.202 57.7227 105.62 58.2725 103.88 58.8389C102.14 59.4063 99.9219 59.2891 97.2275 59.2891H91.1211L89.4297 69.0547H82.2998L88.6611 35.8516H102.373C106.498 35.8516 109.507 37.0381 111.397 39.2031C113.287 41.3682 113.856 44.4941 113.103 48.373ZM99.6709 40.7344H94.7871L92.124 54.4062H96.4619C99.335 54.4062 101.478 54.123 102.884 53.0391C104.292 51.957 105.24 50.2773 105.733 47.7451C106.206 45.3125 105.991 43.415 105.089 42.415C104.186 41.415 102.38 40.7344 99.6709 40.7344ZM44.0215 40.7344H39.1367L36.4736 54.4062H40.8105C43.6846 54.4062 45.8262 54.123 47.2334 53.0391C48.6406 51.957 49.5898 50.2773 50.082 47.7451C50.5547 45.3125 50.3398 43.415 49.4375 42.415C48.5352 41.415 46.7305 40.7344 44.0215 40.7344Z" fill="#38B2AC"/>
</g>
<defs>
<clipPath id="clip0">
<rect width="136" height="100" fill="white"/>
</clipPath>
</defs>
</svg>
