<svg width="125" height="64" viewBox="0 0 125 64" fill="none" xmlns="http://www.w3.org/2000/svg">
<path d="M62.5 0.561523C27.9835 0.561523 0 14.7425 0 32.2351C0 49.7276 27.9835 63.9086 62.5 63.9086C97.0165 63.9086 125 49.7276 125 32.2351C125 14.7425 97.0165 0.561523 62.5 0.561523ZM46.2372 38.4059C44.7456 39.8013 43.0893 40.3772 41.2653 40.9706C39.4413 41.5649 37.1201 41.4422 34.2976 41.4422H27.9007L26.1278 51.6723H18.6587L25.3237 16.8898H39.6868C44.008 16.8898 47.1599 18.1328 49.1415 20.4008C51.1231 22.6688 51.7185 25.8883 50.9287 29.9527C50.6024 31.6274 50.053 33.1844 49.2775 34.5716C48.5011 35.9598 47.4873 37.256 46.2372 38.4059ZM68.0386 41.4422L70.9859 26.6903C71.3214 24.9635 71.1987 23.6806 70.6166 23.0535C70.0335 22.4254 68.7936 22.0049 66.8979 22.0049H60.9747L57.1578 41.4422H49.7471L56.412 7.68272H63.8228L62.0509 16.8898H68.6524C72.8069 16.8898 75.6713 17.7236 77.2478 19.1722C78.8242 20.6208 79.2969 22.6054 78.6667 25.8504L75.5659 41.4422H68.0386ZM109.224 30.0069C108.899 31.6816 108.348 33.212 107.574 34.5982C106.799 35.9864 105.786 37.256 104.535 38.4059C103.043 39.8013 101.386 40.3772 99.5628 40.9706C97.7398 41.5649 95.4165 41.4422 92.594 41.4422H86.1971L84.4252 51.6723H76.9562L83.6201 16.8898H97.9843C102.305 16.8898 105.457 18.1328 107.438 20.4008C109.417 22.6688 110.014 25.9435 109.224 30.0069ZM95.1536 22.0049H90.0375L87.2477 36.3271H91.792C94.8017 36.3271 97.0462 36.0304 98.5193 34.8949C99.9945 33.7614 100.988 32.0018 101.504 29.3491C102 26.8008 101.775 24.8131 100.829 23.7655C99.883 22.718 97.9914 22.0049 95.1536 22.0049ZM36.8571 22.0049H31.74L28.9503 36.3271H33.4935C36.5042 36.3271 38.7477 36.0304 40.2218 34.8949C41.696 33.7614 42.6904 32.0018 43.206 29.3491C43.7011 26.8008 43.476 24.8131 42.5308 23.7655C41.5855 22.718 39.695 22.0049 36.8571 22.0049Z" fill="#38B2AC"/>
</svg>
