<svg width="100" height="100" viewBox="0 0 100 100" fill="none" xmlns="http://www.w3.org/2000/svg">
<path d="M50 26C22.3868 26 0 36.9692 0 50.5C0 64.0307 22.3868 75 50 75C77.6132 75 100 64.0307 100 50.5C100 36.9692 77.6132 26 50 26ZM36.9897 55.2732C35.7965 56.3526 34.4715 56.7981 33.0122 57.2571C31.553 57.7168 29.696 57.6219 27.438 57.6219H22.3205L20.9022 65.535H14.927L20.2589 38.6302H31.7494C35.2064 38.6302 37.7279 39.5917 39.3132 41.346C40.8985 43.1004 41.3748 45.5907 40.743 48.7346C40.4819 50.03 40.0424 51.2343 39.422 52.3074C38.8009 53.3812 37.9898 54.3838 36.9897 55.2732ZM54.4309 57.6219L56.7887 46.2111C57.0572 44.8753 56.9589 43.883 56.4933 43.3979C56.0268 42.9121 55.0349 42.5868 53.5183 42.5868H48.7797L45.7263 57.6219H39.7977L45.1296 31.5084H51.0582L49.6407 38.6302H54.9219C58.2455 38.6302 60.537 39.2752 61.7982 40.3957C63.0594 41.5162 63.4375 43.0513 62.9333 45.5614L60.4527 57.6219H54.4309ZM87.3793 48.7765C87.119 50.0719 86.6787 51.2557 86.0592 52.3279C85.4388 53.4018 84.6286 54.3838 83.6277 55.2732C82.4344 56.3526 81.1086 56.7981 79.6502 57.2571C78.1918 57.7168 76.3332 57.6219 74.0752 57.6219H68.9577L67.5402 65.535H61.565L66.8961 38.6302H78.3874C81.8444 38.6302 84.3659 39.5917 85.9503 41.346C87.534 43.1004 88.0111 45.6334 87.3793 48.7765ZM76.1229 42.5868H72.03L69.7982 53.6653H73.4336C75.8413 53.6653 77.6369 53.4358 78.8154 52.5574C79.9956 51.6806 80.7903 50.3196 81.2036 48.2677C81.5997 46.2965 81.4196 44.759 80.6634 43.9487C79.9064 43.1384 78.3931 42.5868 76.1229 42.5868ZM29.4857 42.5868H25.392L23.1602 53.6653H26.7948C29.2034 53.6653 30.9981 53.4358 32.1775 52.5574C33.3568 51.6806 34.1523 50.3196 34.5648 48.2677C34.9609 46.2965 34.7808 44.759 34.0246 43.9487C33.2684 43.1384 31.756 42.5868 29.4857 42.5868Z" fill="white"/>
<rect width="100" height="100" stroke="white"/>
</svg>
