<svg width="125" height="63" viewBox="0 0 125 63" fill="none" xmlns="http://www.w3.org/2000/svg">
<path d="M62.5 0C27.9835 0 0 14.1033 0 31.5C0 48.8967 27.9835 63 62.5 63C97.0165 63 125 48.8967 125 31.5C125 14.1033 97.0165 0 62.5 0ZM46.2372 37.637C44.7456 39.0248 43.0893 39.5976 41.2653 40.1877C39.4413 40.7788 37.1201 40.6567 34.2976 40.6567H27.9007L26.1278 50.8308H18.6587L25.3237 16.2389H39.6868C44.008 16.2389 47.1599 17.475 49.1415 19.7306C51.1231 21.9862 51.7185 25.188 50.9287 29.2302C50.6024 30.8957 50.053 32.4442 49.2775 33.8238C48.5011 35.2044 47.4873 36.4934 46.2372 37.637ZM68.0386 40.6567L70.9859 25.9856C71.3214 24.2683 71.1987 22.9924 70.6166 22.3688C70.0335 21.7441 68.7936 21.3259 66.8979 21.3259H60.9747L57.1578 40.6567H49.7471L56.412 7.08218H63.8228L62.0509 16.2389H68.6524C72.8069 16.2389 75.6713 17.0681 77.2478 18.5087C78.8242 19.9494 79.2969 21.9231 78.6667 25.1504L75.5659 40.6567H68.0386ZM109.224 29.2841C108.899 30.9496 108.348 32.4716 107.574 33.8502C106.799 35.2308 105.786 36.4934 104.535 37.637C103.043 39.0248 101.386 39.5976 99.5628 40.1877C97.7398 40.7788 95.4165 40.6567 92.594 40.6567H86.1971L84.4252 50.8308H76.9562L83.6201 16.2389H97.9843C102.305 16.2389 105.457 17.475 107.438 19.7306C109.417 21.9862 110.014 25.2429 109.224 29.2841ZM95.1536 21.3259H90.0375L87.2477 35.5696H91.792C94.8017 35.5696 97.0462 35.2746 98.5193 34.1453C99.9945 33.018 100.988 31.268 101.504 28.6299C102 26.0955 101.775 24.1187 100.829 23.0769C99.883 22.035 97.9914 21.3259 95.1536 21.3259ZM36.8571 21.3259H31.74L28.9503 35.5696H33.4935C36.5042 35.5696 38.7477 35.2746 40.2218 34.1453C41.696 33.018 42.6904 31.268 43.206 28.6299C43.7011 26.0955 43.476 24.1187 42.5308 23.0769C41.5855 22.035 39.695 21.3259 36.8571 21.3259Z" fill="black"/>
</svg>
