<svg width="100" height="100" viewBox="0 0 100 100" fill="none" xmlns="http://www.w3.org/2000/svg">
<path d="M49.5 29C25.4765 29 6 38.6261 6 50.5C6 62.3739 25.4765 72 49.5 72C73.5235 72 93 62.3739 93 50.5C93 38.6261 73.5235 29 49.5 29ZM38.1811 54.6888C37.1429 55.6359 35.9902 56.0269 34.7207 56.4297C33.4511 56.8331 31.8356 56.7498 29.8711 56.7498H25.4189L24.1849 63.694H18.9865L23.6253 40.0837H33.622C36.6296 40.0837 38.8233 40.9274 40.2025 42.4669C41.5817 44.0065 41.996 46.1918 41.4464 48.9507C41.2192 50.0875 40.8369 51.1444 40.2972 52.0861C39.7568 53.0284 39.0511 53.9082 38.1811 54.6888ZM53.3549 56.7498L55.4062 46.7362C55.6397 45.5641 55.5543 44.6932 55.1491 44.2676C54.7433 43.8412 53.8803 43.5558 52.561 43.5558H48.4384L45.7818 56.7498H40.624L45.2628 33.8339H50.4206L49.1874 40.0837H53.7821C56.6736 40.0837 58.6672 40.6496 59.7644 41.6329C60.8617 42.6162 61.1906 43.9634 60.752 46.1661L58.5939 56.7498H53.3549ZM82.02 48.9875C81.7936 50.1243 81.4105 51.1632 80.8715 52.1041C80.3318 53.0464 79.6269 53.9082 78.7561 54.6888C77.718 55.6359 76.5645 56.0269 75.2957 56.4297C74.0269 56.8331 72.4099 56.7498 70.4454 56.7498H65.9932L64.76 63.694H59.5615L64.1996 40.0837H74.197C77.2046 40.0837 79.3983 40.9274 80.7768 42.4669C82.1545 44.0065 82.5697 46.2293 82.02 48.9875ZM72.2269 43.5558H68.6661L66.7244 53.2777H69.8872C71.982 53.2777 73.5441 53.0763 74.5694 52.3055C75.5962 51.5361 76.2875 50.3417 76.6471 48.541C76.9917 46.8112 76.8351 45.462 76.1772 44.7509C75.5185 44.0398 74.202 43.5558 72.2269 43.5558ZM31.6526 43.5558H28.0911L26.1494 53.2777H29.3115C31.4069 53.2777 32.9684 53.0763 33.9944 52.3055C35.0204 51.5361 35.7125 50.3417 36.0714 48.541C36.416 46.8112 36.2593 45.462 35.6014 44.7509C34.9435 44.0398 33.6277 43.5558 31.6526 43.5558Z" fill="white"/>
</svg>
