<svg width="100" height="100" viewBox="0 0 100 100" fill="none" xmlns="http://www.w3.org/2000/svg">
<path d="M43.4547 49.1173H56.4642C60.0856 49.1173 62.9383 46.0866 62.9383 42.4897V30.2229C62.9383 26.7315 59.9794 24.1085 56.4445 23.526C54.2075 23.1576 51.896 22.9899 49.6688 23.0005C47.4425 23.0106 45.3803 23.1982 43.5096 23.526C37.9973 24.4885 37.0613 26.5051 37.0613 30.2229V34.9963H49.9998V36.7614H32.0537C28.2685 36.7614 24.9535 39.0155 23.9171 43.2972C22.721 48.2043 22.6679 51.2046 23.9171 56.3283C24.8429 60.1418 27.0536 62.797 30.8392 62.797H35.2767V57.0392C35.2767 52.7866 39.0369 49.1173 43.4547 49.1173ZM42.6347 31.8588C41.2846 31.8588 40.1907 30.7648 40.1907 29.4119C40.1907 28.0531 41.2842 26.9491 42.6347 26.9491C43.9799 26.9491 45.0792 28.0531 45.0792 29.4119C45.0787 30.7648 43.9794 31.8588 42.6347 31.8588ZM76.0022 43.2972C75.0662 39.5693 73.2793 36.7614 69.4888 36.7614H64.723V42.4897C64.723 46.9246 60.7995 50.4411 56.4642 50.4411H43.4547C39.8908 50.4411 37.0613 53.674 37.0613 57.2042V69.4719C37.0613 72.9624 40.0706 75.0161 43.5136 76.0178C47.637 77.2168 51.5417 77.4335 56.4749 76.0178C59.7537 75.0784 62.9383 73.1888 62.9383 69.4719V64.5622H49.9998V62.797H69.4888C73.274 62.797 74.6852 60.2482 76.0022 56.3278C77.3617 52.2923 77.3032 48.4735 76.0022 43.2972ZM57.2838 67.8352C58.6343 67.8352 59.7282 68.9291 59.7282 70.2829C59.7282 71.6403 58.6347 72.7449 57.2838 72.7449C55.9386 72.7449 54.8397 71.6408 54.8397 70.2829C54.8397 68.9291 55.9386 67.8352 57.2838 67.8352Z" fill="#A0AEC0"/>
</svg>
