<svg width="98" height="100" viewBox="0 0 98 100" fill="none" xmlns="http://www.w3.org/2000/svg">
<path d="M37.7683 48.4688H60.0932C66.3078 48.4688 71.2032 43.2105 71.2032 36.9699V15.6871C71.2032 9.62945 66.1255 5.07858 60.0595 4.06795C56.2206 3.42865 52.2539 3.13772 48.4319 3.15609C44.6115 3.1737 41.0727 3.49909 37.8625 4.06795C28.4032 5.73778 26.7969 9.23669 26.7969 15.6871V23.9688H49V27.0313H18.2035C11.708 27.0313 6.01937 30.9422 4.24082 38.371C2.18818 46.8848 2.09707 52.0902 4.24082 60.9799C5.8295 67.5965 9.62317 72.2032 16.1195 72.2032H23.7344V62.2133C23.7344 54.835 30.1871 48.4688 37.7683 48.4688ZM36.3611 18.5252C34.0443 18.5252 32.167 16.6273 32.167 14.2799C32.167 11.9225 34.0435 10.0069 36.3611 10.0069C38.6695 10.0069 40.556 11.9225 40.556 14.2799C40.5552 16.6273 38.6687 18.5252 36.3611 18.5252ZM93.6214 38.371C92.0151 31.903 88.9488 27.0313 82.4441 27.0313H74.2657V36.9699C74.2657 44.6644 67.5328 50.7657 60.0932 50.7657H37.7683C31.6525 50.7657 26.7969 56.3747 26.7969 62.4997V83.7841C26.7969 89.8401 31.961 93.4034 37.8694 95.1413C44.9453 97.2215 51.646 97.5975 60.1115 95.1413C65.7381 93.5113 71.2032 90.2329 71.2032 83.7841V75.2657H49V72.2032H82.4441C88.9396 72.2032 91.3613 67.781 93.6214 60.9791C95.9543 53.9775 95.854 47.3518 93.6214 38.371ZM61.4996 80.9444C63.8172 80.9444 65.6945 82.8423 65.6945 85.1913C65.6945 87.5463 63.8179 89.4627 61.4996 89.4627C59.1913 89.4627 57.3055 87.5471 57.3055 85.1913C57.3055 82.8423 59.1913 80.9444 61.4996 80.9444Z" fill="#A0AEC0"/>
</svg>
