<svg width="100" height="100" viewBox="0 0 100 100" fill="none" xmlns="http://www.w3.org/2000/svg">
<path d="M42.0002 48.9211H57.9007C62.3269 48.9211 65.8135 45.2169 65.8135 40.8207V25.828C65.8135 21.5607 62.1971 18.3549 57.8767 17.6429C55.1425 17.1926 52.3173 16.9876 49.5952 17.0006C46.8741 17.013 44.3537 17.2422 42.0673 17.6429C35.3301 18.8192 34.1861 21.2841 34.1861 25.828V31.6621H49.9998V33.8195H28.0656C23.4393 33.8195 19.3877 36.5745 18.1209 41.8077C16.659 47.8052 16.5941 51.4722 18.1209 57.7346C19.2524 62.3956 21.9544 65.6408 26.5813 65.6408H32.0048V58.6035C32.0048 53.4058 36.6006 48.9211 42.0002 48.9211ZM40.998 27.8274C39.3479 27.8274 38.0108 26.4903 38.0108 24.8367C38.0108 23.1761 39.3473 21.8266 40.998 21.8266C42.642 21.8266 43.9857 23.1761 43.9857 24.8367C43.9851 26.4903 42.6415 27.8274 40.998 27.8274ZM81.7805 41.8077C80.6365 37.2513 78.4525 33.8195 73.8196 33.8195H67.9947V40.8207C67.9947 46.2411 63.1994 50.5392 57.9007 50.5392H42.0002C37.6444 50.5392 34.1861 54.4904 34.1861 58.8052V73.799C34.1861 78.0652 37.8641 80.5753 42.0722 81.7996C47.1119 83.265 51.8843 83.5298 57.9137 81.7996C61.9212 80.6513 65.8135 78.3419 65.8135 73.799V67.7982H49.9998V65.6408H73.8196C78.446 65.6408 80.1708 62.5256 81.7805 57.734C83.442 52.8017 83.3706 48.1342 81.7805 41.8077ZM58.9024 71.7985C60.553 71.7985 61.8901 73.1356 61.8901 74.7903C61.8901 76.4493 60.5535 77.7993 58.9024 77.7993C57.2583 77.7993 55.9152 76.4498 55.9152 74.7903C55.9152 73.1356 57.2583 71.7985 58.9024 71.7985Z" fill="black"/>
<rect width="100" height="100" stroke="black"/>
</svg>
