<svg width="90" height="92" viewBox="0 0 90 92" fill="none" xmlns="http://www.w3.org/2000/svg">
<path d="M34.0917 44.5131H55.7739C61.8096 44.5131 66.5641 39.4062 66.5641 33.3452V12.675C66.5641 6.79173 61.6327 2.37185 55.7412 1.39031C52.0129 0.769417 48.1603 0.486854 44.4484 0.5047C40.7379 0.521803 37.301 0.837827 34.1831 1.39031C24.9961 3.01208 23.4361 6.41027 23.4361 12.675V20.7184H45.0001V23.6927H15.0901C8.78147 23.6927 3.25662 27.491 1.52926 34.706C-0.464294 42.9747 -0.552781 48.0303 1.52926 56.6641C3.07221 63.0902 6.75668 67.5643 13.066 67.5643H20.4617V57.862C20.4617 50.6961 26.7287 44.5131 34.0917 44.5131ZM32.725 15.4315C30.4749 15.4315 28.6516 13.5881 28.6516 11.3083C28.6516 9.01877 30.4741 7.15832 32.725 7.15832C34.9669 7.15832 36.7991 9.01877 36.7991 11.3083C36.7983 13.5881 34.9661 15.4315 32.725 15.4315ZM88.3371 34.706C86.777 28.4242 83.799 23.6927 77.4815 23.6927H69.5385V33.3452C69.5385 40.8183 62.9994 46.7439 55.7739 46.7439H34.0917C28.1519 46.7439 23.4361 52.1914 23.4361 58.1401V78.8118C23.4361 84.6936 28.4516 88.1543 34.1898 89.8422C41.0621 91.8625 47.5699 92.2276 55.7918 89.8422C61.2564 88.2591 66.5641 85.0751 66.5641 78.8118V70.5387H45.0001V67.5643H77.4815C83.7901 67.5643 86.142 63.2694 88.3371 56.6634C90.6028 49.8633 90.5054 43.4283 88.3371 34.706ZM57.1399 76.0539C59.3907 76.0539 61.214 77.8972 61.214 80.1785C61.214 82.4658 59.3915 84.327 57.1399 84.327C54.898 84.327 53.0665 82.4666 53.0665 80.1785C53.0665 77.8972 54.898 76.0539 57.1399 76.0539Z" fill="#38B2AC"/>
</svg>
