<svg width="90" height="90" viewBox="0 0 90 90" fill="none" xmlns="http://www.w3.org/2000/svg">
<path d="M34.0912 43.5288H55.7736C61.8094 43.5288 66.5639 38.4776 66.5639 32.4828V12.0382C66.5639 6.21918 61.6324 1.84755 55.7409 0.87673C52.0125 0.262613 48.16 -0.0168658 44.448 0.000785463C40.7374 0.0177013 37.3006 0.330276 34.1827 0.87673C24.9956 2.48079 23.4355 5.84189 23.4355 12.0382V19.9938H44.9997V22.9357H15.0894C8.7808 22.9357 3.25591 26.6925 1.52854 33.8287C-0.46503 42.0071 -0.553518 47.0076 1.52854 55.5472C3.0715 61.9031 6.756 66.3284 13.0654 66.3284H20.4612V56.732C20.4612 49.6443 26.7282 43.5288 34.0912 43.5288ZM32.7245 14.7646C30.4744 14.7646 28.6511 12.9414 28.6511 10.6864C28.6511 8.42192 30.4736 6.58177 32.7245 6.58177C34.9664 6.58177 36.7986 8.42192 36.7986 10.6864C36.7979 12.9414 34.9657 14.7646 32.7245 14.7646ZM88.337 33.8287C86.777 27.6155 83.7989 22.9357 77.4813 22.9357H69.5383V32.4828C69.5383 39.8743 62.9991 45.7352 55.7736 45.7352H34.0912C28.1514 45.7352 23.4355 51.1233 23.4355 57.0071V77.4531C23.4355 83.2707 28.4511 86.6936 34.1894 88.3631C41.0616 90.3614 47.5696 90.7225 55.7915 88.3631C61.2561 86.7973 66.5639 83.648 66.5639 77.4531V69.2703H44.9997V66.3284H77.4813C83.79 66.3284 86.142 62.0803 88.337 55.5464C90.6028 48.8205 90.5054 42.4558 88.337 33.8287ZM57.1396 74.7253C59.3905 74.7253 61.2137 76.5485 61.2137 78.8049C61.2137 81.0672 59.3912 82.9081 57.1396 82.9081C54.8977 82.9081 53.0662 81.068 53.0662 78.8049C53.0662 76.5485 54.8977 74.7253 57.1396 74.7253Z" fill="black"/>
</svg>
