<svg width="98" height="100" viewBox="0 0 98 100" fill="none" xmlns="http://www.w3.org/2000/svg">
<path d="M11 12H87V88H11V12Z" fill="#A0AEC0"/>
<path d="M54.3495 82H45.6646L41.3847 73.9744H35.6782V82H28V53H41.2169C49.0212 53 53.4684 56.7235 53.4684 63.1771C53.4684 67.5623 51.6223 70.7891 48.224 72.5266L54.3495 82ZM35.6782 59.04V67.9344H41.2587C44.3636 67.9344 46.1679 66.3623 46.1679 63.4252C46.1679 60.5709 44.3636 59.04 41.2587 59.04H35.6782ZM58.3777 53.0004H81.5805V59.04H66.0559V64.4594H80.07V70.4579L66.0559 70.4994V75.96H82V82H58.3777V53V53.0004Z" fill="white"/>
</svg>
