<svg width="80" height="80" viewBox="0 0 80 80" fill="none" xmlns="http://www.w3.org/2000/svg">
<path fill-rule="evenodd" clip-rule="evenodd" d="M80 0H0V80H80V0ZM36.489 73.684H45.6311L39.1832 63.712C42.7604 61.8831 44.7036 58.4865 44.7036 53.8704C44.7036 47.0772 40.0223 43.1577 31.8073 43.1577H17.8948V73.684H25.9771V65.236H31.9839L36.489 73.684ZM25.9771 58.8781V49.5156H31.8512C35.1196 49.5156 37.0189 51.1271 37.0189 54.1317C37.0189 57.2233 35.1196 58.8781 31.8512 58.8781H25.9771ZM74.2953 43.1581H49.8713V73.684H74.7369V67.3261H57.9536V61.5782L72.7053 61.5344V55.2203H57.9536V49.5156H74.2953V43.1581Z" fill="#A0AEC0"/>
</svg>
