<svg width="100" height="100" viewBox="0 0 100 100" fill="none" xmlns="http://www.w3.org/2000/svg">
<path fill-rule="evenodd" clip-rule="evenodd" d="M76 24H24V76H76V24ZM47.7179 71.8946H53.6602L49.469 65.4128C51.7942 64.224 53.0574 62.0162 53.0574 59.0158C53.0574 54.6002 50.0145 52.0525 44.6747 52.0525H35.6316V71.8946H40.8851V66.4034H44.7896L47.7179 71.8946ZM40.8851 62.2708V56.1851H44.7033C46.8277 56.1851 48.0623 57.2326 48.0623 59.1856C48.0623 61.1952 46.8277 62.2708 44.7033 62.2708H40.8851ZM72.292 52.0528H56.4163V71.8946H72.579V67.762H61.6699V64.0258L71.2585 63.9974V59.8932H61.6699V56.1851H72.292V52.0528Z" fill="black"/>
</svg>
