<svg width="100" height="100" viewBox="0 0 100 100" fill="none" xmlns="http://www.w3.org/2000/svg">
<path fill-rule="evenodd" clip-rule="evenodd" d="M82 18H18V82H82V18ZM47.1912 76.9476H54.5049L49.3465 68.97C52.2083 67.5068 53.7629 64.7895 53.7629 61.0967C53.7629 55.6621 50.0178 52.5265 43.4458 52.5265H32.3158V76.9476H38.7817V70.1891H43.5871L47.1912 76.9476ZM38.7817 65.1028V57.6128H43.481C46.0957 57.6128 47.6151 58.902 47.6151 61.3057C47.6151 63.779 46.0957 65.1028 43.481 65.1028H38.7817ZM77.4363 52.5268H57.897V76.9476H77.7895V71.8613H64.3629V67.2629L76.1642 67.2279V62.1766H64.3629V57.6128H77.4363V52.5268Z" fill="#38B2AC"/>
<rect width="100" height="100" stroke="#38B2AC"/>
</svg>
