<svg width="100" height="100" viewBox="0 0 100 100" fill="none" xmlns="http://www.w3.org/2000/svg">
<path fill-rule="evenodd" clip-rule="evenodd" d="M37.8012 70.0007C49.7552 71.6158 61.4968 73.2021 73.4716 74.8194C69.3918 68.0978 65.4169 61.548 61.4101 54.9448L37.8012 70.0007ZM76.8455 32.7947C75.7918 34.3607 74.7359 35.9255 73.6836 37.4924C70.0694 42.8733 66.4557 48.2541 62.8451 53.6376C62.644 53.9373 62.3833 54.1751 62.6666 54.6372C66.1554 60.3386 69.6168 66.0567 73.0869 71.7696C73.6344 72.6719 74.188 73.5708 74.8961 74.4365C75.5977 60.5707 76.2988 46.7044 77 32.8386L76.8455 32.7947ZM29.219 50.5713C29.3822 50.7242 29.7896 50.8134 29.9793 50.7208C33.3258 49.0932 36.6936 47.5017 39.9669 45.7401C41.0345 45.1659 41.8554 44.1365 42.775 43.3018C45.8203 40.538 48.8608 37.7685 51.9 34.9986C52.0858 34.8285 52.3061 34.6639 52.417 34.4494C53.5086 32.3381 54.5814 30.216 55.6921 28.0327C54.3677 27.54 53.1121 27.058 51.8408 26.6196C51.6684 26.5601 51.3969 26.6782 51.2101 26.7811C48.2676 28.4079 45.2697 29.9481 42.4207 31.7222C40.9954 32.6099 39.8342 33.918 38.572 35.0572C36.5378 36.8946 34.5061 38.7363 32.5015 40.6056C31.9696 41.1018 31.4848 41.6686 31.0704 42.2655C29.6995 44.2412 28.3694 46.2453 26.9784 48.3062C27.7557 49.1018 28.4625 49.8624 29.219 50.5713ZM41.4497 47.8704C39.785 54.8302 38.1303 61.7509 36.4202 68.8989C44.4384 63.786 52.2717 58.791 60.0531 53.8297C53.8607 51.8462 47.6883 49.8689 41.4497 47.8704ZM74.8017 32.8619C68.0269 33.9821 61.4141 35.0753 54.7159 36.1826C56.9974 41.6746 59.2331 47.0563 61.5324 52.5909C65.9809 45.9757 70.3415 39.4931 74.8017 32.8619ZM41.7291 46.4469C47.8297 48.4066 53.8089 50.3276 59.9617 52.3045C57.6768 46.7957 55.4702 41.4795 53.2179 36.0508C49.3813 39.5219 45.6022 42.9418 41.7291 46.4469ZM29.471 54.6299C27.3074 59.748 25.2175 64.6922 23.0897 69.7254C27.1791 69.6057 31.1431 69.4898 35.2434 69.3701C33.3184 64.4548 31.4312 59.6361 29.471 54.6299ZM35.387 65.8697L35.5376 65.837C36.9969 59.8325 38.4771 53.8693 39.9669 47.63C36.6435 49.3395 33.4733 50.9698 30.2165 52.6452C31.8786 56.9204 33.6509 61.4304 35.387 65.8697ZM72.3496 31.888C70.4089 31.3793 68.4682 30.869 66.5267 30.3637C63.736 29.6376 60.9431 28.9204 58.1542 28.1878C57.8056 28.096 57.5536 28.0362 57.3486 28.4518C56.3628 30.4503 55.3466 32.4337 54.3451 34.4249C54.3142 34.4865 54.3207 34.5662 54.2968 34.7208C60.3404 33.8146 66.3435 32.914 72.3457 32.0138L72.3496 31.888ZM61.0907 27.3423L76.9082 31.6727C76.0012 29.1147 75.1599 26.7428 74.2946 24.3032L61.1138 27.1954L61.0907 27.3423ZM36.728 71.1537C34.769 70.9301 32.7578 71.1356 30.771 71.1696C29.1389 71.1967 27.5068 71.2583 25.8747 71.3087C25.7067 71.3139 25.5391 71.3475 25.3716 71.5267C38.8649 72.7611 52.3578 73.9955 65.8508 75.2308L65.8782 75.0525C61.5529 74.468 57.2272 73.8835 52.9019 73.2995C47.512 72.5711 42.1313 71.77 36.728 71.1537ZM23.3565 65.1181C25.0952 61.1255 26.8265 57.1302 28.5722 53.1405C28.7467 52.7404 28.7333 52.4686 28.3916 52.1465C27.6613 51.4586 26.9828 50.7174 26.1846 49.8956C25.1056 55.1674 24.0533 60.3088 23 65.4498L23.1179 65.5045C23.1985 65.3766 23.2968 65.2555 23.3565 65.1181ZM57.6263 26.2884C60.5584 25.5398 63.5332 24.9545 66.4906 24.3015C66.6821 24.2589 66.8692 24.1964 67.0577 24.143L67.0285 24C62.8629 24.5543 58.6978 25.1091 54.3225 25.6918C55.5154 26.2074 56.4346 26.5924 57.6263 26.2884Z" fill="#A0AEC0"/>
</svg>
