<svg width="100" height="100" viewBox="0 0 100 100" fill="none" xmlns="http://www.w3.org/2000/svg">
<path fill-rule="evenodd" clip-rule="evenodd" d="M35.5422 73.7726C49.7098 75.6957 63.6258 77.5845 77.8182 79.5102C72.9829 71.5068 68.2718 63.708 63.5231 55.8456L35.5422 73.7726ZM81.8169 29.4717C80.5681 31.3364 79.3167 33.1996 78.0694 35.0653C73.786 41.4722 69.5031 47.8792 65.2238 54.2892C64.9855 54.6461 64.6765 54.9292 65.0123 55.4795C69.1472 62.268 73.2495 69.0765 77.3622 75.8788C78.0111 76.9532 78.6673 78.0235 79.5065 79.0543C80.338 62.5444 81.169 46.034 82 29.524L81.8169 29.4717ZM25.3706 50.6383C25.5641 50.8203 26.0469 50.9265 26.2718 50.8162C30.238 48.8782 34.2294 46.9832 38.1089 44.8857C39.3743 44.2021 40.3471 42.9764 41.437 41.9825C45.0463 38.6916 48.6498 35.394 52.2518 32.0959C52.4721 31.8934 52.7331 31.6975 52.8646 31.4421C54.1583 28.9281 55.4298 26.4013 56.7462 23.8017C55.1766 23.215 53.6884 22.6412 52.1817 22.1191C51.9774 22.0483 51.6555 22.1889 51.4342 22.3114C47.9468 24.2484 44.3937 26.0823 41.0172 28.1947C39.3278 29.2517 37.9516 30.8092 36.4557 32.1657C34.0447 34.3535 31.6369 36.5464 29.261 38.7721C28.6306 39.3629 28.056 40.0378 27.5649 40.7486C25.9401 43.101 24.3637 45.4873 22.7152 47.9412C23.6364 48.8884 24.4741 49.7941 25.3706 50.6383ZM39.8664 47.4222C37.8933 55.7092 35.9322 63.9496 33.9055 72.4607C43.4085 66.3728 52.6923 60.4253 61.9148 54.5179C54.5756 52.1563 47.2602 49.8018 39.8664 47.4222ZM79.3946 29.5517C71.3652 30.8856 63.5278 32.1872 55.5892 33.5057C58.2932 40.045 60.943 46.4529 63.6681 53.043C68.9403 45.1662 74.1084 37.4474 79.3946 29.5517ZM40.1975 45.7273C47.4278 48.0607 54.5142 50.348 61.8065 52.7019C59.0984 46.1427 56.4832 39.8127 53.8138 33.3488C49.2668 37.4818 44.7878 41.5538 40.1975 45.7273ZM25.6693 55.4708C23.1051 61.5649 20.6281 67.4518 18.1063 73.4449C22.953 73.3023 27.6511 73.1643 32.5107 73.0218C30.2292 67.1692 27.9926 61.4315 25.6693 55.4708ZM32.6809 68.8539L32.8594 68.8149C34.5889 61.6654 36.3433 54.5651 38.1089 47.1361C34.1701 49.1715 30.4128 51.1126 26.5529 53.1076C28.5228 58.1981 30.6233 63.568 32.6809 68.8539ZM76.4884 28.3922C74.1883 27.7865 71.8883 27.1788 69.5872 26.5772C66.2797 25.7126 62.9697 24.8587 59.6642 23.9864C59.2511 23.8771 58.9524 23.8058 58.7095 24.3007C57.5411 26.6803 56.3367 29.042 55.1497 31.4128C55.1131 31.4862 55.1209 31.581 55.0925 31.7652C62.2552 30.6861 69.37 29.6138 76.4838 28.5419L76.4884 28.3922ZM63.1445 22.9797L81.8912 28.1358C80.8162 25.09 79.8191 22.2658 78.7936 19.361L63.1719 22.8048L63.1445 22.9797ZM34.2702 75.1454C31.9484 74.8793 29.5648 75.1239 27.2101 75.1644C25.2757 75.1967 23.3414 75.2701 21.407 75.3301C21.2079 75.3362 21.0093 75.3762 20.8107 75.5896C36.8029 77.0594 52.7945 78.5292 68.7861 80L68.8186 79.7877C63.6923 79.0918 58.5655 78.3958 53.4393 77.7004C47.0513 76.8332 40.6741 75.8793 34.2702 75.1454ZM18.4225 67.959C20.4832 63.2049 22.5351 58.4478 24.6041 53.6974C24.811 53.2209 24.795 52.8973 24.39 52.5137C23.5245 51.6947 22.7203 50.8121 21.7743 49.8336C20.4956 56.1108 19.2483 62.2326 18 68.3539L18.1398 68.419C18.2352 68.2667 18.3518 68.1226 18.4225 67.959ZM59.0386 21.7247C62.5137 20.8334 66.0393 20.1365 69.5444 19.359C69.7713 19.3082 69.9931 19.2339 70.2165 19.1703L70.1819 19C65.245 19.66 60.3085 20.3206 55.1229 21.0144C56.5368 21.6283 57.6262 22.0868 59.0386 21.7247Z" fill="black"/>
<rect width="100" height="100" stroke="black"/>
</svg>
