<svg width="78" height="74" viewBox="0 0 78 74" fill="none" xmlns="http://www.w3.org/2000/svg">
<path fill-rule="evenodd" clip-rule="evenodd" d="M21.3795 66.4454C38.6464 68.7784 55.6064 71.0697 72.9034 73.4059C67.0104 63.6968 61.2688 54.236 55.4813 44.698L21.3795 66.4454ZM77.7768 12.7034C76.2548 14.9655 74.7297 17.2257 73.2096 19.489C67.9892 27.2614 62.7694 35.0337 57.554 42.8098C57.2636 43.2428 56.887 43.5863 57.2963 44.2538C62.3356 52.489 67.3354 60.7485 72.3477 69.0005C73.1385 70.3039 73.9382 71.6023 74.961 72.8528C75.9744 52.8243 76.9872 32.7953 78 12.7669L77.7768 12.7034ZM8.98295 38.3808C9.2187 38.6017 9.80713 38.7305 10.0812 38.5967C14.915 36.2457 19.7796 33.9469 24.5078 31.4023C26.0499 30.573 27.2355 29.0861 28.5639 27.8804C32.9626 23.8882 37.3545 19.8878 41.7444 15.8869C42.0129 15.6411 42.331 15.4035 42.4913 15.0936C44.068 12.0439 45.6176 8.97867 47.222 5.82506C45.3089 5.11334 43.4952 4.41717 41.6589 3.78383C41.41 3.69798 41.0177 3.86844 40.748 4.01713C36.4976 6.36694 32.1674 8.5917 28.0522 11.1543C25.9933 12.4365 24.316 14.3259 22.4929 15.9715C19.5545 18.6255 16.6199 21.2858 13.7243 23.9858C12.9561 24.7025 12.2558 25.5213 11.6573 26.3836C9.677 29.2373 7.7558 32.1321 5.7466 35.109C6.86939 36.2581 7.89034 37.3568 8.98295 38.3808ZM26.6496 34.4794C24.245 44.5325 21.8548 54.529 19.3848 64.854C30.9666 57.4686 42.2813 50.2537 53.5211 43.0873C44.5765 40.2224 35.6609 37.3661 26.6496 34.4794ZM74.8246 12.8005C65.0389 14.4186 55.487 15.9976 45.8119 17.5971C49.1073 25.53 52.3368 33.3036 55.658 41.298C62.0835 31.7426 68.3821 22.3789 74.8246 12.8005ZM27.0532 32.4233C35.8652 35.254 44.5017 38.0287 53.3891 40.8843C50.0887 32.9272 46.9013 25.2482 43.648 17.4068C38.1064 22.4205 32.6477 27.3603 27.0532 32.4233ZM9.34695 44.2432C6.22187 51.6361 3.20303 58.7776 0.129504 66.0479C6.03641 65.8749 11.7623 65.7075 17.6849 65.5346C14.9043 58.4348 12.1784 51.4743 9.34695 44.2432ZM17.8924 60.4785L18.1099 60.4312C20.2178 51.758 22.3559 43.1445 24.5078 34.1323C19.7073 36.6015 15.1281 38.9563 10.4238 41.3764C12.8247 47.5517 15.3846 54.0661 17.8924 60.4785ZM71.2827 11.3938C68.4795 10.6591 65.6763 9.92183 62.8719 9.19206C58.8409 8.14314 54.8068 7.10729 50.7783 6.04903C50.2747 5.91652 49.9107 5.83004 49.6146 6.4304C48.1907 9.31711 46.7228 12.1821 45.2762 15.0582C45.2316 15.1472 45.241 15.2622 45.2065 15.4856C53.9361 14.1766 62.6072 12.8757 71.2771 11.5755L71.2827 11.3938ZM55.0199 4.82778L77.8673 11.0827C76.5572 7.38787 75.342 3.96176 74.0922 0.437984L55.0532 4.61563L55.0199 4.82778ZM19.8293 68.1109C16.9997 67.788 14.0946 68.0847 11.2248 68.1339C8.86728 68.1731 6.5098 68.262 4.15231 68.3348C3.90965 68.3423 3.66761 68.3908 3.42558 68.6496C22.916 70.4327 42.4058 72.2157 61.8956 74L61.9352 73.7424C55.6875 72.8982 49.4392 72.054 43.1916 71.2103C35.4062 70.1583 27.6341 69.0011 19.8293 68.1109ZM0.514874 59.3929C3.02638 53.6257 5.5272 47.8547 8.04876 42.0919C8.30085 41.5139 8.28137 41.1213 7.78787 40.656C6.73297 39.6624 5.75289 38.5917 4.59992 37.4047C3.04147 45.0196 1.52136 52.4461 0 59.8719L0.170367 59.9509C0.28667 59.7661 0.428748 59.5913 0.514874 59.3929ZM50.0157 3.30541C54.251 2.22414 58.5479 1.37865 62.8197 0.435496C63.0963 0.373904 63.3666 0.283694 63.6388 0.206549L63.5967 0C57.5798 0.800689 51.5635 1.602 45.2436 2.44375C46.9667 3.18845 48.2945 3.74464 50.0157 3.30541Z" fill="black"/>
</svg>
