<svg width="98" height="100" viewBox="0 0 98 100" fill="none" xmlns="http://www.w3.org/2000/svg">
<path fill-rule="evenodd" clip-rule="evenodd" d="M31.4819 79.5813C48.6482 81.9251 65.5094 84.227 82.7057 86.5738C76.8469 76.8201 71.1388 67.3157 65.3851 57.7338L31.4819 79.5813ZM87.5507 25.592C86.0376 27.8645 84.5213 30.1351 83.0101 32.4088C77.8201 40.217 72.6307 48.0251 67.4457 55.837C67.1569 56.272 66.7826 56.617 67.1894 57.2876C72.1994 65.5607 77.1701 73.8582 82.1532 82.1482C82.9394 83.4576 83.7344 84.762 84.7513 86.0182C85.7588 65.8976 86.7657 45.7763 87.7726 25.6557L87.5507 25.592ZM19.1576 51.3876C19.3919 51.6095 19.9769 51.7388 20.2494 51.6045C25.0551 49.2426 29.8913 46.9332 34.5919 44.377C36.1251 43.5438 37.3038 42.0501 38.6244 40.8388C42.9976 36.8282 47.3638 32.8095 51.7282 28.7901C51.9951 28.5432 52.3113 28.3045 52.4707 27.9932C54.0382 24.9295 55.5788 21.8501 57.1738 18.682C55.2719 17.967 53.4688 17.2676 51.6432 16.6313C51.3957 16.5451 51.0057 16.7163 50.7376 16.8657C46.5119 19.2263 42.2069 21.4613 38.1157 24.0357C36.0688 25.3238 34.4013 27.222 32.5888 28.8751C29.6676 31.5413 26.7501 34.2138 23.8713 36.9263C23.1076 37.6463 22.4113 38.4688 21.8163 39.3351C19.8476 42.202 17.9376 45.1101 15.9401 48.1007C17.0563 49.2551 18.0713 50.3588 19.1576 51.3876ZM36.7213 47.4682C34.3307 57.5676 31.9544 67.6101 29.4988 77.9826C41.0132 70.5632 52.2619 63.3151 63.4363 56.1157C54.5438 53.2376 45.6801 50.3682 36.7213 47.4682ZM84.6157 25.6895C74.8869 27.3151 65.3907 28.9013 55.7719 30.5082C59.0482 38.4776 62.2588 46.287 65.5607 54.3182C71.9488 44.7188 78.2107 35.312 84.6157 25.6895ZM37.1226 45.4026C45.8832 48.2463 54.4694 51.0338 63.3051 53.9026C60.0238 45.9088 56.8551 38.1945 53.6207 30.317C48.1113 35.3538 42.6844 40.3163 37.1226 45.4026ZM19.5194 57.277C16.4126 64.7038 13.4113 71.8782 10.3557 79.182C16.2282 79.0082 21.9207 78.8401 27.8088 78.6663C25.0444 71.5338 22.3344 64.5413 19.5194 57.277ZM28.0151 73.587L28.2313 73.5395C30.3269 64.8263 32.4526 56.1732 34.5919 47.1195C29.8194 49.6001 25.2669 51.9657 20.5901 54.397C22.9769 60.6007 25.5219 67.1451 28.0151 73.587ZM81.0944 24.2763C78.3076 23.5382 75.5207 22.7976 72.7326 22.0645C68.7251 21.0107 64.7144 19.9701 60.7094 18.907C60.2088 18.7738 59.8469 18.687 59.5526 19.2901C58.1369 22.1901 56.6776 25.0682 55.2394 27.9576C55.1951 28.047 55.2044 28.1626 55.1701 28.387C63.8488 27.072 72.4694 25.7651 81.0888 24.4588L81.0944 24.2763ZM64.9263 17.6801L87.6407 23.9638C86.3382 20.252 85.1301 16.8101 83.8876 13.2701L64.9594 17.467L64.9263 17.6801ZM29.9407 81.2545C27.1276 80.9301 24.2394 81.2282 21.3863 81.2776C19.0426 81.317 16.6988 81.4063 14.3551 81.4795C14.1138 81.487 13.8732 81.5357 13.6326 81.7957C33.0094 83.587 52.3857 85.3782 71.7619 87.1707L71.8013 86.912C65.5901 86.0638 59.3782 85.2157 53.1669 84.3682C45.4269 83.3113 37.7001 82.1488 29.9407 81.2545ZM10.7388 72.4963C13.2357 66.7026 15.7219 60.9051 18.2288 55.1157C18.4794 54.5351 18.4601 54.1407 17.9694 53.6732C16.9207 52.6751 15.9463 51.5995 14.8001 50.407C13.2507 58.057 11.7394 65.5176 10.2269 72.9776L10.3963 73.057C10.5119 72.8713 10.6532 72.6957 10.7388 72.4963ZM59.9513 16.1507C64.1619 15.0645 68.4338 14.2151 72.6807 13.2676C72.9557 13.2057 73.2244 13.1151 73.4951 13.0376L73.4532 12.8301C67.4713 13.6345 61.4901 14.4395 55.2069 15.2851C56.9201 16.0332 58.2401 16.592 59.9513 16.1507Z" fill="#A0AEC0"/>
</svg>
