<svg width="78" height="75" viewBox="0 0 78 75" fill="none" xmlns="http://www.w3.org/2000/svg">
<path fill-rule="evenodd" clip-rule="evenodd" d="M21.255 66.7513C38.4212 69.095 55.2825 71.3969 72.4788 73.7438C66.62 63.99 60.9119 54.4856 55.1581 44.9038L21.255 66.7513ZM77.3238 12.7619C75.8106 15.0344 74.2944 17.305 72.7831 19.5788C67.5931 27.3869 62.4038 35.195 57.2188 43.0069C56.93 43.4419 56.5556 43.7869 56.9625 44.4575C61.9725 52.7306 66.9431 61.0281 71.9263 69.3181C72.7125 70.6275 73.5075 71.9319 74.5244 73.1881C75.5319 53.0675 76.5388 32.9463 77.5456 12.8256L77.3238 12.7619ZM8.93062 38.5575C9.165 38.7794 9.75 38.9088 10.0225 38.7744C14.8281 36.4125 19.6644 34.1031 24.365 31.5469C25.8981 30.7138 27.0769 29.22 28.3975 28.0088C32.7706 23.9981 37.1369 19.9794 41.5013 15.96C41.7681 15.7131 42.0844 15.4744 42.2438 15.1631C43.8113 12.0994 45.3519 9.02 46.9469 5.85188C45.045 5.13688 43.2419 4.4375 41.4162 3.80125C41.1688 3.715 40.7788 3.88625 40.5106 4.03563C36.285 6.39625 31.98 8.63125 27.8887 11.2056C25.8419 12.4938 24.1744 14.3919 22.3619 16.045C19.4406 18.7113 16.5231 21.3838 13.6444 24.0963C12.8806 24.8163 12.1844 25.6388 11.5894 26.505C9.62063 29.3719 7.71062 32.28 5.71312 35.2706C6.82937 36.425 7.84438 37.5288 8.93062 38.5575ZM26.4944 34.6381C24.1037 44.7375 21.7275 54.78 19.2719 65.1525C30.7863 57.7331 42.035 50.485 53.2094 43.2856C44.3169 40.4075 35.4531 37.5381 26.4944 34.6381ZM74.3887 12.8594C64.66 14.485 55.1637 16.0713 45.545 17.6781C48.8213 25.6475 52.0319 33.4569 55.3338 41.4881C61.7219 31.8888 67.9837 22.4819 74.3887 12.8594ZM26.8956 32.5725C35.6562 35.4163 44.2425 38.2038 53.0781 41.0725C49.7969 33.0788 46.6281 25.3644 43.3937 17.4869C37.8844 22.5238 32.4575 27.4863 26.8956 32.5725ZM9.2925 44.4469C6.18562 51.8738 3.18437 59.0481 0.12875 66.3519C6.00125 66.1781 11.6938 66.01 17.5819 65.8363C14.8175 58.7038 12.1075 51.7113 9.2925 44.4469ZM17.7881 60.7569L18.0044 60.7094C20.1 51.9963 22.2256 43.3431 24.365 34.2894C19.5925 36.77 15.04 39.1356 10.3631 41.5669C12.75 47.7706 15.295 54.315 17.7881 60.7569ZM70.8675 11.4463C68.0806 10.7081 65.2938 9.9675 62.5056 9.23438C58.4981 8.18063 54.4875 7.14 50.4825 6.07688C49.9819 5.94375 49.62 5.85688 49.3256 6.46C47.91 9.36 46.4506 12.2381 45.0125 15.1275C44.9681 15.2169 44.9775 15.3325 44.9431 15.5569C53.6219 14.2419 62.2425 12.935 70.8619 11.6288L70.8675 11.4463ZM54.6994 4.85L77.4137 11.1338C76.1113 7.42188 74.9031 3.98 73.6606 0.44L54.7325 4.63688L54.6994 4.85ZM19.7138 68.4244C16.9006 68.1 14.0125 68.3981 11.1594 68.4475C8.81563 68.4869 6.47187 68.5763 4.12812 68.6494C3.88687 68.6569 3.64625 68.7056 3.40563 68.9656C22.7825 70.7569 42.1587 72.5481 61.535 74.3406L61.5744 74.0819C55.3631 73.2338 49.1513 72.3856 42.94 71.5381C35.2 70.4813 27.4731 69.3188 19.7138 68.4244ZM0.511875 59.6663C3.00875 53.8725 5.495 48.075 8.00187 42.2856C8.2525 41.705 8.23312 41.3106 7.7425 40.8431C6.69375 39.845 5.71937 38.7694 4.57312 37.5769C3.02375 45.2269 1.5125 52.6875 0 60.1475L0.169375 60.2269C0.285 60.0413 0.42625 59.8656 0.511875 59.6663ZM49.7244 3.32063C53.935 2.23438 58.2069 1.385 62.4538 0.4375C62.7288 0.375625 62.9975 0.285 63.2681 0.2075L63.2262 0C57.2444 0.804375 51.2631 1.60938 44.98 2.455C46.6931 3.20313 48.0131 3.76188 49.7244 3.32063Z" fill="#38B2AC"/>
</svg>
