<svg width="94" height="95" viewBox="0 0 94 95" fill="none" xmlns="http://www.w3.org/2000/svg">
<path d="M93.3637 46.2912L89.4537 43.8708C89.4208 43.49 89.3834 43.11 89.3425 42.7318L92.7026 39.5978C93.0443 39.2792 93.1973 38.8076 93.1048 38.3511C93.0149 37.8929 92.6937 37.5156 92.2567 37.3527L87.9615 35.7466C87.8538 35.3746 87.7408 35.0053 87.6251 34.6378L90.3044 30.9165C90.5776 30.5383 90.6337 30.0462 90.4557 29.6147C90.2777 29.1849 89.8889 28.877 89.4288 28.8014L84.8995 28.0646C84.7234 27.7211 84.54 27.383 84.355 27.0475L86.2583 22.8697C86.4532 22.4443 86.4132 21.9496 86.1533 21.5634C85.8944 21.1754 85.4557 20.9485 84.9876 20.9663L80.3907 21.1265C80.1531 20.8293 79.9111 20.5347 79.6646 20.2455L80.7209 15.7679C80.8276 15.3132 80.6933 14.8371 80.3622 14.507C80.0339 14.1777 79.5569 14.0416 79.1022 14.1484L74.6255 15.2037C74.3354 14.9581 74.0408 14.7152 73.7427 14.4776L73.9038 9.88069C73.9216 9.4153 73.6947 8.97305 73.3067 8.715C72.9179 8.45517 72.4258 8.41601 72.0013 8.60911L67.8244 10.5134C67.4872 10.3283 67.149 10.145 66.8073 9.9679L66.0687 5.43772C65.994 4.97856 65.6861 4.58881 65.2554 4.41084C64.8256 4.23199 64.3327 4.28983 63.9545 4.56212L60.2305 7.24143C59.8639 7.12486 59.4955 7.01274 59.1236 6.90596L57.5174 2.60981C57.3545 2.17201 56.9773 1.85077 56.519 1.76001C56.0616 1.67014 55.5909 1.8223 55.2732 2.16222L52.1392 5.52492C51.761 5.4831 51.3802 5.44484 51.0002 5.41369L48.5798 1.50285C48.3351 1.10687 47.9018 0.865723 47.4355 0.865723C46.9692 0.865723 46.5359 1.10687 46.2921 1.50285L43.8717 5.41369C43.4908 5.44484 43.11 5.4831 42.7318 5.52492L39.5969 2.16222C39.2792 1.8223 38.8076 1.67014 38.3511 1.76001C37.8929 1.85166 37.5156 2.17201 37.3527 2.60981L35.7466 6.90596C35.3746 7.01274 35.0062 7.12575 34.6387 7.24143L30.9156 4.56212C30.5374 4.28894 30.0445 4.2311 29.6138 4.41084C29.184 4.58881 28.8752 4.97856 28.8005 5.43772L28.0619 9.9679C27.7202 10.145 27.3821 10.3274 27.0448 10.5134L22.8679 8.60911C22.4435 8.41512 21.9487 8.45517 21.5625 8.715C21.1745 8.97305 20.9476 9.4153 20.9654 9.88069L21.1256 14.4776C20.8284 14.7152 20.5339 14.9581 20.2429 15.2037L15.7661 14.1484C15.3114 14.0425 14.8344 14.1777 14.5052 14.507C14.1742 14.8371 14.0398 15.3132 14.1466 15.7679L15.201 20.2455C14.9563 20.5356 14.7143 20.8293 14.4767 21.1265L9.8798 20.9663C9.41619 20.953 8.97305 21.1754 8.71411 21.5634C8.45428 21.9496 8.41513 22.4443 8.60822 22.8697L10.5125 27.0475C10.3274 27.383 10.1441 27.7211 9.96701 28.0646L5.43772 28.8014C4.97767 28.8761 4.5897 29.184 4.41084 29.6147C4.23288 30.0462 4.29072 30.5383 4.56212 30.9165L7.24143 34.6378C7.12486 35.0053 7.01185 35.3746 6.90507 35.7466L2.60892 37.3527C2.1729 37.5156 1.85167 37.8929 1.7609 38.3511C1.67014 38.8085 1.8223 39.2792 2.16311 39.5978L5.52404 42.7318C5.48221 43.11 5.44484 43.4908 5.41281 43.8708L1.50285 46.2912C1.10687 46.5359 0.865723 46.9683 0.865723 47.4355C0.865723 47.9027 1.10687 48.3351 1.50285 48.5789L5.41281 50.9993C5.44484 51.3802 5.48221 51.7601 5.52404 52.1383L2.16311 55.2732C1.8223 55.5909 1.67014 56.0625 1.7609 56.519C1.85167 56.9773 2.1729 57.3537 2.60892 57.5174L6.90507 59.1236C7.01185 59.4955 7.12486 59.8648 7.24143 60.2323L4.56212 63.9545C4.28983 64.3336 4.23199 64.8256 4.41084 65.2554C4.5897 65.687 4.97856 65.9949 5.43861 66.0687L9.96701 66.8055C10.1441 67.149 10.3256 67.4872 10.5125 67.8244L8.60822 72.0004C8.41424 72.4249 8.45428 72.9187 8.71411 73.3067C8.97394 73.6956 9.41619 73.9225 9.8798 73.9038L14.4749 73.7427C14.7143 74.0417 14.9555 74.3345 15.201 74.6255L14.1466 79.104C14.0398 79.5578 14.1742 80.0321 14.5052 80.3622C14.8335 80.6942 15.3114 80.8267 15.7661 80.72L20.2429 79.6655C20.5339 79.9129 20.8284 80.1531 21.1256 80.3898L20.9654 84.9876C20.9476 85.453 21.1745 85.8944 21.5625 86.1542C21.9487 86.4132 22.4435 86.4523 22.8679 86.2583L27.0448 84.355C27.3812 84.5418 27.7193 84.7234 28.0619 84.9004L28.8005 89.4279C28.8752 89.8889 29.1831 90.2786 29.6138 90.4557C30.0436 90.6346 30.5374 90.5767 30.9156 90.3053L34.6369 87.6242C35.0044 87.7408 35.3737 87.8547 35.7457 87.9615L37.3518 92.2559C37.5147 92.6919 37.892 93.0149 38.3502 93.1039C38.8076 93.1964 39.2783 93.0434 39.596 92.7017L42.7309 89.3407C43.1091 89.3843 43.49 89.4208 43.8708 89.4546L46.2912 93.3646C46.535 93.7588 46.9683 94.0017 47.4346 94.0017C47.9009 94.0017 48.3342 93.7597 48.5789 93.3646L50.9993 89.4546C51.3802 89.4208 51.7601 89.3843 52.1383 89.3407L55.2723 92.7017C55.59 93.0434 56.0616 93.1964 56.5181 93.1039C56.9764 93.014 57.3537 92.6919 57.5165 92.2559L59.1227 87.9615C59.4946 87.8547 59.8639 87.7408 60.2314 87.6242L63.9536 90.3053C64.3318 90.5767 64.8248 90.6346 65.2545 90.4557C65.6852 90.2786 65.9931 89.888 66.0679 89.4279L66.8064 84.9004C67.1481 84.7234 67.4863 84.5392 67.8235 84.355L72.0004 86.2583C72.4249 86.4523 72.9187 86.4132 73.3058 86.1542C73.6938 85.8944 73.9198 85.4539 73.9029 84.9876L73.7427 80.3898C74.0399 80.1523 74.3345 79.9129 74.6246 79.6655L79.1013 80.72C79.5561 80.8267 80.033 80.6942 80.3614 80.3622C80.6924 80.0321 80.8267 79.5578 80.72 79.104L79.6655 74.6255C79.9111 74.3345 80.1531 74.0417 80.3898 73.7427L84.9867 73.9038C85.4504 73.9225 85.8935 73.6956 86.1524 73.3067C86.4123 72.9187 86.4523 72.4249 86.2574 72.0004L84.3541 67.8244C84.54 67.4872 84.7225 67.149 84.8987 66.8055L89.4279 66.0687C89.8889 65.9949 90.2768 65.687 90.4548 65.2554C90.6328 64.8256 90.5767 64.3336 90.3035 63.9545L87.6242 60.2323C87.7399 59.8648 87.8529 59.4955 87.9606 59.1236L92.2559 57.5174C92.6928 57.3537 93.0149 56.9773 93.1039 56.519C93.1964 56.0616 93.0434 55.5909 92.7017 55.2732L89.3416 52.1383C89.3826 51.7601 89.4199 51.3793 89.4529 50.9993L93.3628 48.5789C93.7588 48.3351 93.9999 47.9018 93.9999 47.4355C93.9999 46.9692 93.7597 46.5359 93.3637 46.2912ZM67.1944 78.7267C65.7012 78.4046 64.7518 76.9328 65.0721 75.4352C65.3916 73.9394 66.8625 72.9873 68.3548 73.3094C69.8479 73.6288 70.7991 75.1033 70.4788 76.5982C70.1585 78.0932 68.6867 79.0462 67.1944 78.7267ZM65.8659 69.7411C64.5035 69.4492 63.1634 70.316 62.8716 71.681L61.4834 78.159C57.1997 80.1033 52.4426 81.1836 47.4328 81.1836C42.3082 81.1836 37.4479 80.0499 33.0877 78.0229L31.7005 71.5448C31.4086 70.1816 30.0685 69.3131 28.707 69.6059L22.988 70.8338C21.9265 69.7411 20.9387 68.5772 20.0311 67.3483H47.8582C48.1732 67.3483 48.3832 67.2914 48.3832 67.0049V57.1614C48.3832 56.8749 48.1732 56.818 47.8582 56.818H39.7197V50.5784H48.522C49.3255 50.5784 52.8181 50.808 53.9349 55.2723C54.2846 56.6453 55.0525 61.1114 55.5775 62.5414C56.1008 64.1449 58.231 67.3483 60.501 67.3483H74.3674C74.5249 67.3483 74.6931 67.3305 74.8702 67.2985C73.9082 68.6057 72.8529 69.8426 71.7166 70.9985L65.8659 69.7411ZM27.3785 78.5915C25.8854 78.9136 24.4153 77.9615 24.0941 76.4656C23.7747 74.9671 24.7241 73.4962 26.2173 73.1741C27.7104 72.8547 29.1813 73.8068 29.5017 75.3026C29.8211 76.7976 28.8708 78.2711 27.3785 78.5915ZM16.8223 35.7857C17.4417 37.1837 16.8117 38.8218 15.4155 39.4403C14.0193 40.0605 12.3856 39.4296 11.7663 38.0308C11.1469 36.632 11.7769 34.9964 13.1731 34.3762C14.5701 33.7569 16.203 34.3869 16.8223 35.7857ZM13.578 43.4766L19.5355 40.8293C20.8079 40.2643 21.3828 38.7729 20.8177 37.4978L19.5906 34.7232H24.4162V56.4745H14.6805C13.836 53.506 13.3831 50.3729 13.3831 47.1347C13.3831 45.8987 13.4498 44.677 13.578 43.4766ZM39.7215 41.3641V34.9528H51.2129C51.8064 34.9528 55.404 35.6389 55.404 38.3289C55.404 40.5624 52.6446 41.3632 50.3755 41.3632H39.7215V41.3641ZM81.4834 47.1347C81.4834 47.9854 81.4523 48.8272 81.39 49.6628H77.8965C77.5468 49.6628 77.4062 49.8923 77.4062 50.2349V51.8393C77.4062 55.6158 75.2768 56.4371 73.4108 56.6462C71.6338 56.8464 69.6637 55.9023 69.4208 54.8149C68.3725 48.9189 66.6258 47.6597 63.8673 45.4841C67.2905 43.3102 70.8525 40.1032 70.8525 35.8106C70.8525 31.1755 67.6749 28.2559 65.509 26.8241C62.4702 24.8211 59.1058 24.4198 58.1981 24.4198H22.0679C26.9674 18.9517 33.6074 15.0782 41.1176 13.6687L45.3764 18.1366C46.3392 19.1448 47.9338 19.1822 48.9411 18.2185L53.7062 13.6607C63.6911 15.5196 72.1446 21.7351 77.0165 30.2625L73.7543 37.6304C73.191 38.9055 73.7659 40.3969 75.0375 40.9619L81.3179 43.7516C81.4265 44.8665 81.4834 45.9931 81.4834 47.1347ZM45.3782 9.86823C46.4816 8.8111 48.2319 8.85293 49.2881 9.95811C50.3426 11.066 50.3026 12.8181 49.1965 13.8743C48.0931 14.9314 46.3428 14.8905 45.2865 13.7835C44.233 12.6775 44.273 10.9254 45.3782 9.86823ZM77.7506 35.9201C78.369 34.5221 80.0028 33.8912 81.3989 34.5115C82.7951 35.1308 83.4251 36.7681 82.8057 38.166C82.1873 39.5649 80.5536 40.1958 79.1565 39.5755C77.7621 38.9562 77.1321 37.3198 77.7506 35.9201Z" fill="white"/>
</svg>
