<svg width="100" height="100" viewBox="0 0 100 100" fill="none" xmlns="http://www.w3.org/2000/svg">
<path d="M79.5901 49.2639L77.0712 47.7047C77.05 47.4593 77.0259 47.2146 76.9995 46.9709L79.1642 44.9519C79.3843 44.7467 79.4829 44.4429 79.4233 44.1488C79.3654 43.8536 79.1584 43.6105 78.877 43.5056L76.1098 42.4709C76.0405 42.2313 75.9677 41.9934 75.8931 41.7566L77.6192 39.3593C77.7952 39.1157 77.8313 38.7987 77.7167 38.5206C77.602 38.2437 77.3515 38.0454 77.0551 37.9967L74.1372 37.522C74.0237 37.3007 73.9056 37.0829 73.7864 36.8668L75.0126 34.1754C75.1382 33.9014 75.1124 33.5826 74.945 33.3338C74.7781 33.0839 74.4955 32.9377 74.194 32.9492L71.2325 33.0524C71.0795 32.8609 70.9235 32.6712 70.7647 32.4849L71.4452 29.6003C71.514 29.3073 71.4274 29.0006 71.2142 28.788C71.0026 28.5758 70.6954 28.4881 70.4024 28.5569L67.5183 29.2368C67.3315 29.0786 67.1417 28.9221 66.9497 28.769L67.0534 25.8076C67.0649 25.5078 66.9187 25.2229 66.6688 25.0567C66.4183 24.8893 66.1012 24.864 65.8278 24.9884L63.1369 26.2152C62.9196 26.096 62.7018 25.9779 62.4817 25.8638L62.0058 22.9454C61.9577 22.6496 61.7593 22.3985 61.4819 22.2838C61.205 22.1686 60.8874 22.2059 60.6438 22.3813L58.2447 24.1074C58.0085 24.0323 57.7712 23.96 57.5315 23.8912L56.4968 21.1236C56.3919 20.8415 56.1488 20.6346 55.8536 20.5761C55.5589 20.5182 55.2557 20.6162 55.051 20.8352L53.032 23.0015C52.7884 22.9746 52.543 22.95 52.2982 22.9299L50.7389 20.4104C50.5813 20.1554 50.3021 20 50.0017 20C49.7013 20 49.4222 20.1554 49.2651 20.4104L47.7058 22.9299C47.4604 22.95 47.2151 22.9746 46.9714 23.0015L44.9518 20.8352C44.7472 20.6162 44.4434 20.5182 44.1493 20.5761C43.854 20.6352 43.611 20.8415 43.5061 21.1236L42.4713 23.8912C42.2317 23.96 41.9944 24.0328 41.7576 24.1074L39.3591 22.3813C39.1155 22.2053 38.7979 22.168 38.5204 22.2838C38.2435 22.3985 38.0446 22.6496 37.9964 22.9454L37.5206 25.8638C37.3005 25.9779 37.0827 26.0954 36.8654 26.2152L34.1745 24.9884C33.9011 24.8635 33.5823 24.8893 33.3335 25.0567C33.0836 25.2229 32.9374 25.5078 32.9489 25.8076L33.0521 28.769C32.8606 28.9221 32.6708 29.0786 32.4834 29.2368L29.5993 28.5569C29.3064 28.4887 28.9991 28.5758 28.787 28.788C28.5737 29.0006 28.4872 29.3073 28.5559 29.6003L29.2353 32.4849C29.0776 32.6717 28.9217 32.8609 28.7686 33.0524L25.8072 32.9492C25.5085 32.9406 25.223 33.0839 25.0562 33.3338C24.8888 33.5826 24.8636 33.9014 24.988 34.1754L26.2147 36.8668C26.0955 37.0829 25.9774 37.3007 25.8633 37.522L22.9454 37.9967C22.649 38.0448 22.3991 38.2432 22.2839 38.5206C22.1692 38.7987 22.2065 39.1157 22.3813 39.3593L24.1074 41.7566C24.0323 41.9934 23.9595 42.2313 23.8907 42.4709L21.123 43.5056C20.8421 43.6105 20.6352 43.8536 20.5767 44.1488C20.5182 44.4435 20.6163 44.7467 20.8358 44.9519L23.001 46.9709C22.9741 47.2146 22.95 47.4599 22.9294 47.7047L20.4105 49.2639C20.1554 49.4216 20 49.7002 20 50.0011C20 50.3021 20.1554 50.5807 20.4105 50.7378L22.9294 52.297C22.95 52.5424 22.9741 52.7872 23.001 53.0308L20.8358 55.0504C20.6163 55.255 20.5182 55.5588 20.5767 55.8529C20.6352 56.1481 20.8421 56.3906 21.123 56.4961L23.8907 57.5308C23.9595 57.7704 24.0323 58.0083 24.1074 58.2451L22.3813 60.643C22.2059 60.8872 22.1687 61.2042 22.2839 61.4811C22.3991 61.7591 22.6496 61.9575 22.946 62.005L25.8633 62.4797C25.9774 62.701 26.0944 62.9188 26.2147 63.1361L24.988 65.8263C24.863 66.0998 24.8888 66.4179 25.0562 66.6679C25.2236 66.9184 25.5085 67.0646 25.8072 67.0525L28.7675 66.9488C28.9217 67.1414 29.077 67.33 29.2353 67.5174L28.5559 70.4026C28.4872 70.695 28.5737 71.0005 28.787 71.2132C28.9985 71.427 29.3064 71.5124 29.5993 71.4436L32.4834 70.7643C32.6708 70.9237 32.8606 71.0785 33.0521 71.231L32.9489 74.193C32.9374 74.4928 33.0836 74.7771 33.3335 74.9445C33.5823 75.1113 33.9011 75.1365 34.1745 75.0116L36.8654 73.7854C37.0821 73.9058 37.2999 74.0227 37.5206 74.1368L37.9964 77.0535C38.0446 77.3504 38.2429 77.6015 38.5204 77.7156C38.7973 77.8308 39.1155 77.7936 39.3591 77.6187L41.7565 75.8915C41.9932 75.9666 42.2311 76.04 42.4708 76.1088L43.5055 78.8753C43.6104 79.1562 43.8535 79.3643 44.1487 79.4216C44.4434 79.4812 44.7466 79.3826 44.9513 79.1625L46.9709 76.9973C47.2145 77.0254 47.4599 77.0489 47.7052 77.0707L49.2645 79.5896C49.4216 79.8435 49.7008 80 50.0011 80C50.3015 80 50.5807 79.8441 50.7384 79.5896L52.2976 77.0707C52.543 77.0489 52.7878 77.0254 53.0314 76.9973L55.0504 79.1625C55.2551 79.3826 55.5589 79.4812 55.853 79.4216C56.1482 79.3637 56.3913 79.1562 56.4962 78.8753L57.531 76.1088C57.7706 76.04 58.0085 75.9666 58.2452 75.8915L60.6432 77.6187C60.8868 77.7936 61.2044 77.8308 61.4813 77.7156C61.7588 77.6015 61.9571 77.3499 62.0053 77.0535L62.4811 74.1368C62.7012 74.0227 62.9191 73.904 63.1363 73.7854L65.8272 75.0116C66.1007 75.1365 66.4188 75.1113 66.6682 74.9445C66.9181 74.7771 67.0637 74.4933 67.0529 74.193L66.9497 71.231C67.1411 71.0779 67.3309 70.9237 67.5178 70.7643L70.4019 71.4436C70.6948 71.5124 71.0021 71.427 71.2136 71.2132C71.4268 71.0005 71.5134 70.695 71.4446 70.4026L70.7653 67.5174C70.9235 67.33 71.0795 67.1414 71.2319 66.9488L74.1934 67.0525C74.4921 67.0646 74.7776 66.9184 74.9444 66.6679C75.1118 66.4179 75.1376 66.0998 75.012 65.8263L73.7858 63.1361C73.9056 62.9188 74.0232 62.701 74.1367 62.4797L77.0546 62.005C77.3515 61.9575 77.6015 61.7591 77.7161 61.4811C77.8308 61.2042 77.7947 60.8872 77.6187 60.643L75.8926 58.2451C75.9671 58.0083 76.0399 57.7704 76.1093 57.5308L78.8764 56.4961C79.1579 56.3906 79.3654 56.1481 79.4227 55.8529C79.4823 55.5583 79.3837 55.255 79.1636 55.0504L76.999 53.0308C77.0253 52.7872 77.0494 52.5418 77.0706 52.297L79.5895 50.7378C79.8446 50.5807 80 50.3015 80 50.0011C80 49.7008 79.8452 49.4216 79.5901 49.2639ZM62.731 70.1596C61.7691 69.952 61.1574 69.0039 61.3638 68.0391C61.5696 67.0755 62.5172 66.4621 63.4786 66.6696C64.4405 66.8754 65.0533 67.8253 64.8469 68.7883C64.6406 69.7514 63.6924 70.3654 62.731 70.1596ZM61.8751 64.3709C60.9975 64.1828 60.1341 64.7412 59.9461 65.6205L59.0518 69.7938C56.2921 71.0464 53.2275 71.7423 50 71.7423C46.6986 71.7423 43.5674 71.012 40.7584 69.7061L39.8647 65.5328C39.6767 64.6546 38.8133 64.0951 37.9363 64.2837L34.2519 65.0748C33.568 64.3709 32.9317 63.621 32.3469 62.8294H50.274C50.477 62.8294 50.6122 62.7927 50.6122 62.6081V56.2668C50.6122 56.0822 50.477 56.0455 50.274 56.0455H45.031V52.0259H50.7017C51.2193 52.0259 53.4694 52.1738 54.1888 55.0498C54.4141 55.9343 54.9089 58.8115 55.2471 59.7327C55.5842 60.7657 56.9565 62.8294 58.4189 62.8294H67.3521C67.4536 62.8294 67.5619 62.8179 67.676 62.7973C67.0563 63.6394 66.3764 64.4362 65.6443 65.1809L61.8751 64.3709ZM37.0804 70.0724C36.1184 70.2799 35.1714 69.6666 34.9645 68.7029C34.7587 67.7376 35.3703 66.79 36.3323 66.5825C37.2942 66.3767 38.2418 66.99 38.4482 67.9537C38.654 68.9167 38.0417 69.8661 37.0804 70.0724ZM30.2798 42.4961C30.6787 43.3967 30.2729 44.4521 29.3734 44.8505C28.474 45.25 27.4215 44.8436 27.0225 43.9424C26.6235 43.0413 27.0294 41.9877 27.9288 41.5881C28.8288 41.1891 29.8808 41.595 30.2798 42.4961ZM28.1896 47.4508L32.0276 45.7453C32.8474 45.3813 33.2177 44.4205 32.8537 43.5991L32.0632 41.8117H35.172V55.8242H28.8999C28.3559 53.9119 28.0641 51.8935 28.0641 49.8074C28.0641 49.0111 28.1071 48.2241 28.1896 47.4508ZM45.0321 46.0898V41.9596H52.4352C52.8176 41.9596 55.1353 42.4015 55.1353 44.1345C55.1353 45.5733 53.3576 46.0893 51.8958 46.0893H45.0321V46.0898ZM71.9365 49.8074C71.9365 50.3554 71.9164 50.8977 71.8763 51.436H69.6257C69.4004 51.436 69.3098 51.5839 69.3098 51.8046V52.8382C69.3098 55.2711 67.938 55.8002 66.7358 55.9349C65.591 56.0639 64.3218 55.4556 64.1653 54.7551C63.49 50.9568 62.3647 50.1456 60.5876 48.744C62.7929 47.3435 65.0877 45.2775 65.0877 42.5122C65.0877 39.5261 63.0406 37.6453 61.6453 36.7229C59.6876 35.4325 57.5201 35.174 56.9353 35.174H33.6591C36.8155 31.6513 41.0932 29.156 45.9316 28.248L48.6752 31.1263C49.2955 31.7757 50.3227 31.7998 50.9717 31.179L54.0415 28.2428C60.4741 29.4403 65.9201 33.4445 69.0587 38.938L66.9571 43.6845C66.5942 44.506 66.9646 45.4667 67.7838 45.8307L71.8299 47.6279C71.8998 48.3462 71.9365 49.0719 71.9365 49.8074ZM48.6763 25.7996C49.3872 25.1186 50.5148 25.1455 51.1953 25.8575C51.8746 26.5712 51.8488 27.6999 51.1362 28.3804C50.4254 29.0614 49.2978 29.035 48.6173 28.3219C47.9385 27.6093 47.9643 26.4806 48.6763 25.7996ZM69.5316 42.5827C69.9301 41.6821 70.9826 41.2757 71.882 41.6752C72.7815 42.0742 73.1873 43.129 72.7883 44.0296C72.3899 44.9307 71.3374 45.3372 70.4374 44.9376C69.5391 44.5386 69.1332 43.4844 69.5316 42.5827Z" fill="#A0AEC0"/>
</svg>
