<svg width="98" height="100" viewBox="0 0 98 100" fill="none" xmlns="http://www.w3.org/2000/svg">
<path d="M92 54.61L94.27 53.21C95.25 52.61 95.83 51.56 95.83 50.42C95.83 49.28 95.25 48.23 94.28 47.63L92.01 46.23L93.96 44.41C94.79 43.64 95.16 42.47 94.94 41.37C94.72 40.24 93.94 39.33 92.87 38.93L90.37 38L91.93 35.84C92.6 34.91 92.74 33.72 92.3 32.66C91.86 31.6 90.93 30.86 89.79 30.67L87.16 30.24L88.26 27.82C88.73 26.79 88.63 25.56 88.01 24.63C87.4 23.72 86.38 23.17 85.28 23.17C85.26 23.17 82.49 23.27 82.49 23.27L83.1 20.67C83.36 19.55 83.04 18.4 82.23 17.6C81.62 16.99 80.77 16.64 79.91 16.64C79.66 16.64 79.4 16.67 79.16 16.73L76.56 17.34L76.65 14.68C76.69 13.55 76.13 12.45 75.19 11.83C74.65 11.47 74.02 11.28 73.37 11.28C72.9 11.28 72.44 11.38 72.01 11.58L69.58 12.69L69.15 10.06C68.97 8.95 68.21 7.98 67.17 7.55C66.77 7.38 66.35 7.3 65.91 7.3C65.22 7.3 64.55 7.51 63.99 7.92L61.82 9.48L60.89 6.98C60.49 5.9 59.58 5.13 58.45 4.9C58.24 4.86 58.03 4.84 57.82 4.84C56.91 4.84 56.04 5.22 55.42 5.88L53.6 7.83L52.2 5.56C51.61 4.6 50.54 4 49.41 4C48.28 4 47.21 4.6 46.62 5.56L45.22 7.83L43.4 5.88C42.78 5.22 41.91 4.84 41 4.84C40.79 4.84 40.58 4.86 40.36 4.9C39.23 5.13 38.32 5.9 37.93 6.97L37 9.47L34.84 7.91C34.28 7.5 33.61 7.29 32.92 7.29C32.48 7.29 32.06 7.37 31.66 7.54C30.62 7.97 29.86 8.93 29.68 10.05L29.25 12.68L26.82 11.57C26.39 11.37 25.93 11.27 25.46 11.27C24.81 11.27 24.17 11.46 23.64 11.82C22.7 12.45 22.14 13.54 22.18 14.67L22.27 17.34L19.67 16.73C19.43 16.67 19.17 16.64 18.92 16.64C18.04 16.64 17.22 16.98 16.6 17.6C15.79 18.41 15.46 19.56 15.72 20.68L16.33 23.28C16.33 23.28 13.58 23.19 13.56 23.19C12.46 23.19 11.43 23.74 10.83 24.64C10.2 25.58 10.1 26.8 10.57 27.83L11.68 30.26L9.05 30.69C7.92 30.87 6.98 31.61 6.54 32.68C6.1 33.74 6.24 34.92 6.91 35.85L8.47 38.02L5.97 38.95C4.9 39.35 4.12 40.26 3.9 41.39C3.68 42.51 4.04 43.65 4.88 44.43L6.83 46.25L4.56 47.65C3.58 48.25 3 49.3 3 50.44C3 51.58 3.58 52.63 4.56 53.23L6.83 54.63L4.88 56.45C4.04 57.23 3.68 58.37 3.9 59.49C4.12 60.61 4.9 61.52 5.97 61.93L8.47 62.86L6.91 65.03C6.24 65.96 6.1 67.15 6.54 68.21C6.98 69.27 7.92 70.01 9.05 70.19L11.68 70.62L10.57 73.05C10.09 74.09 10.19 75.29 10.83 76.24C11.44 77.15 12.46 77.7 13.55 77.7C13.57 77.7 16.34 77.6 16.34 77.6L15.73 80.2C15.47 81.32 15.8 82.47 16.6 83.26C17.22 83.88 18.04 84.23 18.93 84.23C19.18 84.23 19.44 84.2 19.69 84.14L22.29 83.53L22.2 86.19C22.16 87.32 22.71 88.41 23.66 89.04C24.2 89.4 24.83 89.59 25.48 89.59C25.95 89.59 26.41 89.49 26.84 89.29L29.27 88.18L29.7 90.81C29.88 91.93 30.64 92.89 31.68 93.32C32.08 93.49 32.5 93.57 32.94 93.57C33.63 93.57 34.29 93.36 34.86 92.95L37.02 91.39L37.95 93.89C38.35 94.95 39.29 95.75 40.38 95.96C40.6 96 40.81 96.02 41.03 96.02C41.94 96.02 42.81 95.64 43.43 94.98L45.25 93.03L46.66 95.3C47.25 96.26 48.32 96.86 49.45 96.86C50.58 96.86 51.64 96.28 52.24 95.3L53.65 93.03L55.47 94.98C56.09 95.64 56.96 96.03 57.87 96.03C58.09 96.03 58.3 96.01 58.51 95.97C59.62 95.75 60.56 94.96 60.95 93.9L61.88 91.4L64.05 92.96C64.61 93.36 65.27 93.58 65.97 93.58C66.4 93.58 66.83 93.5 67.22 93.33C68.27 92.9 69.03 91.94 69.21 90.82L69.64 88.19L72.07 89.3C72.5 89.5 72.96 89.6 73.44 89.6C74.09 89.6 74.72 89.41 75.26 89.05C76.21 88.41 76.76 87.35 76.72 86.2L76.63 83.53L79.23 84.14C79.48 84.2 79.73 84.23 79.98 84.23C80.86 84.23 81.69 83.89 82.3 83.27C83.11 82.46 83.44 81.31 83.18 80.19L82.57 77.59L85.36 77.69C86.46 77.69 87.48 77.14 88.08 76.23C88.72 75.28 88.82 74.08 88.34 73.04L87.23 70.61L89.86 70.18C90.99 70 91.93 69.26 92.37 68.19C92.81 67.13 92.67 65.94 92 65.01L90.44 62.84L92.94 61.91C94.02 61.51 94.79 60.59 95.01 59.48C95.24 58.35 94.87 57.21 94.03 56.43L92.08 54.61H92Z" fill="white"/>
<path d="M93.22 49.32L89.49 47.01C89.46 46.65 89.42 46.28 89.38 45.92L92.59 42.93C92.92 42.63 93.06 42.18 92.97 41.74C92.88 41.3 92.58 40.94 92.16 40.79L88.06 39.26C87.96 38.91 87.85 38.55 87.74 38.2L90.3 34.65C90.56 34.29 90.61 33.82 90.44 33.41C90.27 33 89.9 32.71 89.46 32.63L85.14 31.93C84.97 31.6 84.8 31.28 84.62 30.96L86.44 26.97C86.63 26.56 86.59 26.09 86.34 25.72C86.09 25.35 85.67 25.13 85.23 25.15L80.84 25.3C80.61 25.02 80.38 24.74 80.15 24.46L81.16 20.19C81.26 19.76 81.13 19.3 80.82 18.99C80.51 18.68 80.05 18.55 79.62 18.65L75.35 19.66C75.07 19.43 74.79 19.19 74.51 18.97L74.66 14.58C74.68 14.14 74.46 13.71 74.09 13.47C73.72 13.22 73.25 13.18 72.84 13.37L68.85 15.19C68.53 15.01 68.21 14.84 67.88 14.67L67.18 10.35C67.11 9.90998 66.81 9.53998 66.4 9.36998C65.99 9.19998 65.52 9.24998 65.16 9.50998L61.61 12.07C61.26 11.96 60.91 11.85 60.55 11.75L59.02 7.64998C58.86 7.22998 58.5 6.92998 58.07 6.83998C57.63 6.74998 57.18 6.89998 56.88 7.21998L53.89 10.43C53.53 10.39 53.17 10.35 52.8 10.32L50.49 6.58998C50.26 6.20998 49.84 5.97998 49.4 5.97998C48.96 5.97998 48.54 6.20998 48.31 6.58998L46 10.32C45.64 10.35 45.27 10.39 44.91 10.43L41.92 7.21998C41.62 6.89998 41.17 6.74998 40.73 6.83998C40.29 6.92998 39.93 7.22998 39.78 7.64998L38.25 11.75C37.9 11.85 37.54 11.96 37.19 12.07L33.64 9.50998C33.28 9.24998 32.81 9.18998 32.4 9.36998C31.99 9.53998 31.7 9.90998 31.62 10.35L30.92 14.67C30.59 14.84 30.27 15.01 29.95 15.19L25.96 13.37C25.55 13.18 25.08 13.22 24.71 13.47C24.34 13.72 24.12 14.14 24.14 14.58L24.29 18.97C24.01 19.2 23.73 19.43 23.45 19.66L19.18 18.65C18.75 18.55 18.29 18.68 17.98 18.99C17.66 19.31 17.54 19.76 17.64 20.19L18.65 24.46C18.42 24.74 18.19 25.02 17.96 25.3L13.57 25.15C13.13 25.14 12.7 25.35 12.46 25.72C12.21 26.09 12.17 26.56 12.36 26.97L14.18 30.96C14 31.28 13.83 31.6 13.66 31.93L9.33997 32.63C8.89997 32.7 8.52997 33 8.35997 33.41C8.18997 33.82 8.24997 34.29 8.49997 34.65L11.06 38.2C10.95 38.55 10.84 38.9 10.74 39.26L6.63997 40.79C6.21997 40.95 5.91997 41.31 5.82997 41.74C5.73997 42.18 5.88997 42.63 6.20997 42.93L9.41997 45.92C9.37997 46.28 9.33997 46.64 9.30997 47.01L5.57997 49.32C5.19997 49.55 4.96997 49.97 4.96997 50.41C4.96997 50.85 5.19997 51.27 5.57997 51.5L9.30997 53.81C9.33997 54.17 9.37997 54.54 9.41997 54.9L6.20997 57.89C5.87997 58.19 5.73997 58.64 5.82997 59.08C5.91997 59.52 6.21997 59.88 6.63997 60.03L10.74 61.56C10.84 61.91 10.95 62.27 11.06 62.62L8.49997 66.17C8.23997 66.53 8.18997 67 8.35997 67.41C8.52997 67.82 8.89997 68.12 9.33997 68.19L13.66 68.89C13.83 69.22 14 69.54 14.18 69.86L12.36 73.84C12.17 74.25 12.21 74.72 12.46 75.09C12.71 75.46 13.13 75.68 13.57 75.66L17.95 75.51C18.18 75.8 18.41 76.07 18.64 76.35L17.63 80.62C17.53 81.05 17.66 81.51 17.97 81.82C18.28 82.14 18.74 82.26 19.17 82.16L23.44 81.15C23.72 81.39 24 81.62 24.28 81.84L24.13 86.23C24.11 86.67 24.33 87.1 24.7 87.34C25.07 87.59 25.54 87.62 25.95 87.44L29.94 85.62C30.26 85.8 30.58 85.97 30.91 86.14L31.61 90.46C31.68 90.9 31.98 91.27 32.39 91.44C32.8 91.61 33.27 91.56 33.63 91.3L37.18 88.74C37.53 88.85 37.88 88.96 38.24 89.06L39.77 93.16C39.93 93.58 40.29 93.88 40.72 93.97C41.16 94.06 41.61 93.91 41.91 93.59L44.9 90.38C45.26 90.42 45.62 90.46 45.99 90.49L48.3 94.22C48.53 94.6 48.95 94.83 49.39 94.83C49.83 94.83 50.25 94.6 50.48 94.22L52.79 90.49C53.15 90.46 53.52 90.42 53.88 90.38L56.87 93.59C57.17 93.92 57.62 94.06 58.06 93.97C58.5 93.88 58.86 93.58 59.01 93.16L60.54 89.06C60.89 88.96 61.25 88.85 61.6 88.74L65.15 91.3C65.51 91.56 65.98 91.61 66.39 91.44C66.8 91.27 67.09 90.9 67.17 90.46L67.87 86.14C68.2 85.97 68.52 85.8 68.84 85.62L72.83 87.44C73.24 87.63 73.71 87.59 74.08 87.34C74.45 87.09 74.67 86.67 74.65 86.23L74.5 81.84C74.78 81.61 75.06 81.38 75.34 81.15L79.61 82.16C80.04 82.26 80.5 82.14 80.81 81.82C81.13 81.51 81.25 81.05 81.15 80.62L80.14 76.35C80.37 76.07 80.61 75.79 80.83 75.51L85.22 75.66C85.66 75.68 86.09 75.46 86.33 75.09C86.58 74.72 86.62 74.25 86.43 73.84L84.61 69.86C84.79 69.54 84.96 69.22 85.13 68.89L89.45 68.19C89.89 68.12 90.26 67.83 90.43 67.41C90.6 67 90.55 66.53 90.29 66.17L87.73 62.62C87.84 62.27 87.95 61.92 88.05 61.56L92.15 60.03C92.57 59.87 92.87 59.51 92.96 59.08C93.05 58.64 92.9 58.19 92.58 57.89L89.37 54.9C89.41 54.54 89.44 54.18 89.48 53.81L93.21 51.5C93.59 51.27 93.82 50.85 93.82 50.41C93.82 49.97 93.59 49.55 93.21 49.32H93.22ZM68.25 80.27C66.83 79.96 65.92 78.56 66.22 77.13C66.52 75.7 67.93 74.79 69.35 75.1C70.77 75.4 71.68 76.81 71.38 78.24C71.07 79.67 69.67 80.58 68.25 80.27ZM66.98 71.7C65.68 71.42 64.4 72.25 64.12 73.55L62.8 79.73C58.71 81.59 54.17 82.62 49.39 82.62C44.61 82.62 39.86 81.54 35.7 79.6L34.38 73.42C34.1 72.12 32.82 71.29 31.52 71.57L26.06 72.74C25.05 71.7 24.1 70.59 23.24 69.41H49.79C50.09 69.41 50.29 69.36 50.29 69.08V59.69C50.29 59.42 50.09 59.36 49.79 59.36H42.02V53.41H50.42C51.19 53.41 54.52 53.63 55.58 57.89C55.91 59.2 56.65 63.46 57.15 64.83C57.65 66.36 59.68 69.42 61.85 69.42H75.08C75.23 69.42 75.39 69.4 75.56 69.37C74.64 70.62 73.64 71.8 72.55 72.9L66.97 71.7H66.98ZM30.26 80.14C28.84 80.45 27.43 79.54 27.13 78.11C26.83 76.68 27.73 75.28 29.16 74.97C30.58 74.67 31.99 75.57 32.29 77C32.59 78.43 31.69 79.83 30.26 80.14ZM20.19 39.3C20.78 40.63 20.18 42.2 18.85 42.79C17.52 43.38 15.96 42.78 15.37 41.45C14.78 40.12 15.38 38.55 16.71 37.96C18.04 37.37 19.6 37.97 20.19 39.3ZM17.09 46.64L22.77 44.11C23.98 43.57 24.53 42.15 23.99 40.93L22.82 38.28H27.42V59.03H18.13C17.32 56.2 16.89 53.21 16.89 50.12C16.89 48.94 16.95 47.77 17.08 46.63L17.09 46.64ZM42.03 44.62V38.5H52.99C53.56 38.5 56.99 39.15 56.99 41.72C56.99 43.85 54.36 44.62 52.19 44.62H42.02H42.03ZM81.88 50.13C81.88 50.94 81.85 51.74 81.79 52.54H78.46C78.13 52.54 77.99 52.76 77.99 53.09V54.62C77.99 58.22 75.96 59.01 74.18 59.21C72.48 59.4 70.6 58.5 70.37 57.46C69.37 51.83 67.7 50.63 65.07 48.56C68.34 46.49 71.74 43.43 71.74 39.33C71.74 34.91 68.71 32.12 66.64 30.76C63.74 28.85 60.53 28.47 59.66 28.47H25.19C29.86 23.25 36.2 19.56 43.37 18.21L47.43 22.47C48.35 23.43 49.87 23.47 50.83 22.55L55.38 18.2C64.91 19.97 72.97 25.9 77.62 34.04L74.51 41.07C73.97 42.29 74.52 43.71 75.73 44.25L81.72 46.91C81.82 47.97 81.88 49.05 81.88 50.14V50.13ZM47.43 14.57C48.48 13.56 50.15 13.6 51.16 14.66C52.17 15.72 52.13 17.39 51.07 18.4C50.02 19.41 48.35 19.37 47.34 18.31C46.33 17.25 46.37 15.58 47.43 14.57ZM78.32 39.43C78.91 38.1 80.47 37.49 81.8 38.09C83.13 38.68 83.73 40.24 83.14 41.58C82.55 42.91 80.99 43.52 79.66 42.92C78.33 42.33 77.73 40.77 78.32 39.43Z" fill="black"/>
</svg>
