<svg width="100" height="100" viewBox="0 0 100 100" fill="none" xmlns="http://www.w3.org/2000/svg">
<path d="M86.4945 49.0922L83.3878 47.1691C83.3617 46.8665 83.332 46.5646 83.2994 46.2642L85.9692 43.7741C86.2407 43.521 86.3623 43.1462 86.2887 42.7835C86.2173 42.4194 85.9621 42.1197 85.6149 41.9903L82.2021 40.7141C82.1166 40.4186 82.0268 40.1252 81.9349 39.8332L84.0637 36.8765C84.2808 36.576 84.3253 36.185 84.1839 35.8421C84.0425 35.5006 83.7336 35.256 83.368 35.1959L79.7693 34.6105C79.6293 34.3376 79.4836 34.0689 79.3366 33.8024L80.8489 30.483C81.0037 30.145 80.9719 29.7519 80.7655 29.4451C80.5597 29.1368 80.2112 28.9565 79.8393 28.9707L76.1868 29.0979C75.998 28.8618 75.8057 28.6278 75.6098 28.398L76.4491 24.8403C76.5339 24.479 76.4272 24.1008 76.1641 23.8385C75.9033 23.5769 75.5243 23.4687 75.163 23.5535L71.606 24.3921C71.3755 24.1969 71.1414 24.0039 70.9046 23.8151L71.0326 20.1627C71.0467 19.793 70.8664 19.4416 70.5582 19.2365C70.2492 19.0301 69.8582 18.999 69.5209 19.1524L66.2022 20.6654C65.9342 20.5184 65.6655 20.3727 65.394 20.232L64.8072 16.6326C64.7478 16.2678 64.5032 15.9581 64.161 15.8167C63.8195 15.6746 63.4278 15.7206 63.1273 15.9369L60.1684 18.0657C59.8771 17.9731 59.5844 17.884 59.2889 17.7992L58.0127 14.3857C57.8833 14.0379 57.5835 13.7827 57.2194 13.7105C56.856 13.6391 56.482 13.76 56.2296 14.0301L53.7395 16.7019C53.439 16.6687 53.1364 16.6383 52.8345 16.6135L50.9114 13.5062C50.7169 13.1916 50.3726 13 50.0021 13C49.6316 13 49.2873 13.1916 49.0936 13.5062L47.1705 16.6135C46.8679 16.6383 46.5653 16.6687 46.2648 16.7019L43.7739 14.0301C43.5215 13.76 43.1468 13.6391 42.7841 13.7105C42.42 13.7834 42.1202 14.0379 41.9908 14.3857L40.7147 17.7992C40.4191 17.884 40.1264 17.9738 39.8344 18.0657L36.8762 15.9369C36.5757 15.7199 36.184 15.6739 35.8418 15.8167C35.5003 15.9581 35.255 16.2678 35.1956 16.6326L34.6088 20.232C34.3373 20.3727 34.0686 20.5176 33.8007 20.6654L30.4819 19.1524C30.1446 18.9983 29.7515 19.0301 29.4447 19.2365C29.1364 19.4416 28.9561 19.793 28.9703 20.1627L29.0975 23.8151C28.8614 24.0039 28.6274 24.1969 28.3962 24.3921L24.8391 23.5535C24.4778 23.4694 24.0989 23.5769 23.8373 23.8385C23.5743 24.1008 23.4675 24.479 23.5523 24.8403L24.3902 28.398C24.1957 28.6285 24.0034 28.8618 23.8146 29.0979L20.1622 28.9707C19.7938 28.9601 19.4417 29.1368 19.236 29.4451C19.0295 29.7519 18.9984 30.145 19.1518 30.483L20.6649 33.8024C20.5178 34.0689 20.3721 34.3376 20.2314 34.6105L16.6327 35.1959C16.2672 35.2553 15.9589 35.4999 15.8168 35.8421C15.6754 36.185 15.7213 36.576 15.937 36.8765L18.0658 39.8332C17.9732 40.1252 17.8834 40.4186 17.7986 40.7141L14.3851 41.9903C14.0386 42.1197 13.7834 42.4194 13.7113 42.7835C13.6392 43.1469 13.7601 43.521 14.0308 43.7741L16.7013 46.2642C16.668 46.5646 16.6383 46.8672 16.6129 47.1691L13.5062 49.0922C13.1916 49.2866 13 49.6302 13 50.0014C13 50.3726 13.1916 50.7162 13.5062 50.9099L16.6129 52.833C16.6383 53.1356 16.668 53.4375 16.7013 53.738L14.0308 56.2288C13.7601 56.4812 13.6392 56.8559 13.7113 57.2186C13.7834 57.5827 14.0386 57.8818 14.3851 58.0118L17.7986 59.288C17.8834 59.5835 17.9732 59.8769 18.0658 60.1689L15.937 63.1264C15.7206 63.4276 15.6747 63.8185 15.8168 64.16C15.9589 64.5029 16.2679 64.7475 16.6334 64.8062L20.2314 65.3916C20.3721 65.6645 20.5164 65.9332 20.6649 66.2012L19.1518 69.5192C18.9977 69.8564 19.0295 70.2488 19.236 70.557C19.4424 70.866 19.7938 71.0463 20.1622 71.0315L23.8132 70.9035C24.0034 71.141 24.195 71.3736 24.3902 71.6048L23.5523 75.1632C23.4675 75.5238 23.5743 75.9006 23.8373 76.1629C24.0982 76.4267 24.4778 76.532 24.8391 76.4472L28.3962 75.6093C28.6274 75.8059 28.8614 75.9968 29.0975 76.1849L28.9703 79.838C28.9561 80.2077 29.1364 80.5584 29.4447 80.7649C29.7515 80.9706 30.1446 81.0017 30.4819 80.8476L33.8007 79.3353C34.0679 79.4838 34.3366 79.628 34.6088 79.7687L35.1956 83.366C35.255 83.7322 35.4996 84.0419 35.8418 84.1826C36.1833 84.3247 36.5757 84.2787 36.8762 84.0631L39.833 81.9329C40.125 82.0255 40.4184 82.116 40.7139 82.2008L41.9901 85.6128C42.1195 85.9593 42.4193 86.2159 42.7834 86.2866C43.1468 86.3602 43.5208 86.2385 43.7732 85.9671L46.2641 83.2967C46.5646 83.3313 46.8672 83.3603 47.1698 83.3872L49.0929 86.4938C49.2866 86.807 49.6309 87 50.0014 87C50.3719 87 50.7162 86.8077 50.9106 86.4938L52.8338 83.3872C53.1364 83.3603 53.4383 83.3313 53.7387 83.2967L56.2289 85.9671C56.4813 86.2385 56.856 86.3602 57.2187 86.2866C57.5828 86.2152 57.8826 85.9593 58.012 85.6128L59.2882 82.2008C59.5837 82.116 59.8771 82.0255 60.1691 81.9329L63.1266 84.0631C63.4271 84.2787 63.8188 84.3247 64.1603 84.1826C64.5025 84.0419 64.7471 83.7315 64.8065 83.366L65.3933 79.7687C65.6648 79.628 65.9335 79.4816 66.2015 79.3353L69.5202 80.8476C69.8575 81.0017 70.2499 80.9706 70.5574 80.7649C70.8657 80.5584 71.0453 80.2085 71.0319 79.838L70.9046 76.1849C71.1407 75.9961 71.3748 75.8059 71.6053 75.6093L75.1623 76.4472C75.5236 76.532 75.9025 76.4267 76.1634 76.1629C76.4264 75.9006 76.5332 75.5238 76.4484 75.1632L75.6105 71.6048C75.8057 71.3736 75.998 71.141 76.1861 70.9035L79.8386 71.0315C80.2069 71.0463 80.559 70.866 80.7648 70.557C80.9712 70.2488 81.003 69.8564 80.8482 69.5192L79.3359 66.2012C79.4836 65.9332 79.6286 65.6645 79.7686 65.3916L83.3673 64.8062C83.7336 64.7475 84.0418 64.5029 84.1832 64.16C84.3246 63.8185 84.2801 63.4276 84.063 63.1264L81.9342 60.1689C82.0261 59.8769 82.1159 59.5835 82.2014 59.288L85.6142 58.0118C85.9614 57.8818 86.2173 57.5827 86.288 57.2186C86.3616 56.8552 86.24 56.4812 85.9685 56.2288L83.2987 53.738C83.3313 53.4375 83.3609 53.1349 83.3871 52.833L86.4938 50.9099C86.8084 50.7162 87 50.3719 87 50.0014C87 49.6309 86.8091 49.2866 86.4945 49.0922ZM65.7016 74.8634C64.5152 74.6075 63.7608 73.4381 64.0153 72.2482C64.2692 71.0597 65.4379 70.3032 66.6236 70.5592C67.8099 70.813 68.5658 71.9845 68.3112 73.1723C68.0567 74.3601 66.8873 75.1173 65.7016 74.8634ZM64.646 67.7241C63.5636 67.4922 62.4988 68.1808 62.2669 69.2653L61.1639 74.4124C57.7603 75.9572 53.9805 76.8155 50 76.8155C45.9282 76.8155 42.0665 75.9148 38.6021 74.3042L37.4998 69.1572C37.2679 68.074 36.2031 67.384 35.1214 67.6166L30.5773 68.5923C29.7339 67.7241 28.9491 66.7993 28.2279 65.8229H50.338C50.5882 65.8229 50.7551 65.7777 50.7551 65.55V57.729C50.7551 57.5014 50.5882 57.4561 50.338 57.4561H43.8715V52.4986H50.8654C51.5038 52.4986 54.2789 52.681 55.1662 56.2281C55.4441 57.319 56.0543 60.8675 56.4714 62.0036C56.8871 63.2777 58.5797 65.8229 60.3834 65.8229H71.4009C71.5261 65.8229 71.6597 65.8088 71.8004 65.7833C71.0361 66.8219 70.1976 67.8047 69.2947 68.7231L64.646 67.7241ZM34.0658 74.756C32.8794 75.0119 31.7114 74.2554 31.4562 73.0669C31.2023 71.8763 31.9567 70.7076 33.1431 70.4517C34.3295 70.1979 35.4982 70.9544 35.7528 72.1429C36.0066 73.3307 35.2515 74.5015 34.0658 74.756ZM25.6784 40.7452C26.1705 41.8559 25.6699 43.1575 24.5606 43.6489C23.4512 44.1417 22.1531 43.6404 21.661 42.529C21.169 41.4176 21.6695 40.1181 22.7789 39.6253C23.8889 39.1332 25.1863 39.6338 25.6784 40.7452ZM23.1005 46.8559L27.8341 44.7526C28.8451 44.3036 29.3019 43.1187 28.8529 42.1055L27.8779 39.9011H31.7121V57.1832H23.9766C23.3056 54.8246 22.9457 52.3353 22.9457 49.7624C22.9457 48.7804 22.9987 47.8097 23.1005 46.8559ZM43.8729 45.1775V40.0835H53.0034C53.475 40.0835 56.3335 40.6286 56.3335 42.7659C56.3335 44.5405 54.141 45.1768 52.3381 45.1768H43.8729V45.1775ZM77.055 49.7624C77.055 50.4383 77.0303 51.1072 76.9808 51.7711H74.205C73.9271 51.7711 73.8154 51.9535 73.8154 52.2257V53.5004C73.8154 56.501 72.1235 57.1535 70.6409 57.3197C69.2289 57.4788 67.6636 56.7286 67.4706 55.8647C66.6377 51.18 65.2498 50.1796 63.058 48.4509C65.778 46.7237 68.6082 44.1756 68.6082 40.765C68.6082 37.0822 66.0834 34.7625 64.3625 33.6249C61.948 32.0334 59.2747 31.7146 58.5536 31.7146H29.8463C33.7391 27.37 39.015 24.2924 44.9822 23.1725L48.3661 26.7224C49.1311 27.5234 50.3981 27.5531 51.1984 26.7874L54.9845 23.1661C62.918 24.6431 69.6348 29.5815 73.5057 36.3568L70.9138 42.2109C70.4662 43.224 70.923 44.409 71.9333 44.8579L76.9235 47.0744C77.0098 47.9603 77.055 48.8554 77.055 49.7624ZM48.3675 20.1528C49.2442 19.3129 50.6349 19.3461 51.4741 20.2242C52.312 21.1045 52.2802 22.4966 51.4013 23.3358C50.5246 24.1757 49.1339 24.1432 48.2947 23.2637C47.4575 22.3849 47.4894 20.9928 48.3675 20.1528ZM74.089 40.852C74.5804 39.7413 75.8785 39.24 76.9878 39.7328C78.0972 40.2249 78.5977 41.5258 78.1056 42.6365C77.6143 43.7479 76.3162 44.2492 75.2061 43.7564C74.0982 43.2643 73.5976 41.9641 74.089 40.852Z" fill="white"/>
<rect width="100" height="100" stroke="white"/>
</svg>
