<svg width="93" height="93" viewBox="0 0 93 93" fill="none" xmlns="http://www.w3.org/2000/svg">
<path d="M92.3647 45.3591L88.4604 42.9423C88.4275 42.562 88.3902 42.1826 88.3493 41.8049L91.7045 38.6755C92.0457 38.3574 92.1985 37.8865 92.1061 37.4307C92.0164 36.9731 91.6956 36.5963 91.2593 36.4337L86.9702 34.8299C86.8627 34.4585 86.7499 34.0898 86.6344 33.7228L89.3098 30.0069C89.5826 29.6293 89.6386 29.1379 89.4609 28.707C89.2832 28.2778 88.8949 27.9704 88.4355 27.8948L83.9127 27.1591C83.7368 26.8162 83.5537 26.4785 83.3689 26.1435L85.2696 21.9718C85.4641 21.5471 85.4242 21.0531 85.1647 20.6675C84.9061 20.2801 84.4681 20.0535 84.0007 20.0712L79.4104 20.2312C79.1732 19.9344 78.9315 19.6403 78.6853 19.3515L79.7401 14.8804C79.8467 14.4263 79.7125 13.951 79.382 13.6213C79.0541 13.2926 78.5778 13.1566 78.1238 13.2632L73.6534 14.3171C73.3638 14.0718 73.0697 13.8292 72.772 13.592L72.9328 9.0018C72.9506 8.5371 72.724 8.09549 72.3366 7.83782C71.9483 7.57836 71.4569 7.53927 71.0331 7.73208L66.8622 9.63356C66.5254 9.44874 66.1878 9.2657 65.8466 9.08888L65.1091 4.56532C65.0344 4.10683 64.727 3.71765 64.2969 3.53995C63.8677 3.36135 63.3755 3.4191 62.9979 3.691L59.2792 6.36639C58.9131 6.24999 58.5453 6.13804 58.1739 6.03141L56.57 1.74154C56.4074 1.30438 56.0307 0.983614 55.5731 0.892983C55.1163 0.80324 54.6463 0.95518 54.3291 1.2946L51.1996 4.6524C50.8219 4.61064 50.4416 4.57243 50.0622 4.54133L47.6454 0.636195C47.401 0.240794 46.9683 0 46.5027 0C46.0371 0 45.6043 0.240794 45.3609 0.636195L42.944 4.54133C42.5637 4.57243 42.1834 4.61064 41.8057 4.6524L38.6754 1.2946C38.3581 0.95518 37.8872 0.80324 37.4314 0.892983C36.9738 0.984502 36.597 1.30438 36.4344 1.74154L34.8306 6.03141C34.4592 6.13804 34.0913 6.25088 33.7243 6.36639L30.0066 3.691C29.629 3.41822 29.1367 3.36046 28.7066 3.53995C28.2775 3.71765 27.9691 4.10683 27.8945 4.56532L27.157 9.08888C26.8158 9.2657 26.4781 9.44785 26.1414 9.63356L21.9705 7.73208C21.5466 7.53838 21.0526 7.57836 20.667 7.83782C20.2796 8.09549 20.053 8.5371 20.0707 9.0018L20.2307 13.592C19.9339 13.8292 19.6398 14.0718 19.3492 14.3171L14.8789 13.2632C14.4248 13.1575 13.9486 13.2926 13.6198 13.6213C13.2893 13.951 13.1551 14.4263 13.2617 14.8804L14.3147 19.3515C14.0703 19.6412 13.8286 19.9344 13.5914 20.2312L9.00109 20.0712C8.53815 20.0579 8.09565 20.2801 7.83708 20.6675C7.57762 21.0531 7.53852 21.5471 7.73134 21.9718L9.63285 26.1435C9.44803 26.4785 9.26499 26.8162 9.08817 27.1591L4.56541 27.8948C4.10603 27.9695 3.71861 28.2769 3.54001 28.707C3.3623 29.1379 3.42006 29.6293 3.69107 30.0069L6.36651 33.7228C6.25011 34.0898 6.13727 34.4585 6.03064 34.8299L1.74068 36.4337C1.30529 36.5963 0.984522 36.9731 0.893889 37.4307C0.803257 37.8874 0.9552 38.3574 1.29552 38.6755L4.6516 41.8049C4.60984 42.1826 4.57252 42.5629 4.54053 42.9423L0.636207 45.3591C0.240799 45.6035 0 46.0353 0 46.5018C0 46.9683 0.240799 47.4001 0.636207 47.6436L4.54053 50.0604C4.57252 50.4407 4.60984 50.8201 4.6516 51.1977L1.29552 54.328C0.9552 54.6452 0.803257 55.1162 0.893889 55.572C0.984522 56.0296 1.30529 56.4055 1.74068 56.5689L6.03064 58.1728C6.13727 58.5442 6.25011 58.9129 6.36651 59.2799L3.69107 62.9966C3.41917 63.3752 3.36141 63.8665 3.54001 64.2957C3.71861 64.7266 4.10691 65.0341 4.5663 65.1078L9.08817 65.8435C9.26499 66.1865 9.44626 66.5242 9.63285 66.8609L7.73134 71.0308C7.53763 71.4547 7.57762 71.9478 7.83708 72.3352C8.09654 72.7235 8.53815 72.9501 9.00109 72.9314L13.5896 72.7706C13.8286 73.0691 14.0694 73.3615 14.3147 73.652L13.2617 78.1241C13.1551 78.5772 13.2893 79.0508 13.6198 79.3804C13.9477 79.7119 14.4248 79.8443 14.8789 79.7376L19.3492 78.6847C19.6398 78.9317 19.9339 79.1716 20.2307 79.408L20.0707 83.9991C20.053 84.4638 20.2796 84.9045 20.667 85.164C21.0526 85.4225 21.5466 85.4616 21.9705 85.2679L26.1414 83.3673C26.4772 83.5539 26.8149 83.7352 27.157 83.912L27.8945 88.4329C27.9691 88.8932 28.2766 89.2823 28.7066 89.4592C29.1358 89.6378 29.629 89.58 30.0066 89.309L33.7225 86.6318C34.0895 86.7482 34.4583 86.862 34.8297 86.9686L36.4335 91.2567C36.5961 91.6921 36.9729 92.0146 37.4305 92.1035C37.8872 92.1959 38.3573 92.043 38.6745 91.7018L41.8049 88.3458C42.1825 88.3894 42.5628 88.4258 42.9431 88.4596L45.36 92.3638C45.6034 92.7574 46.0362 93 46.5018 93C46.9674 93 47.4001 92.7583 47.6445 92.3638L50.0613 88.4596C50.4416 88.4258 50.8211 88.3894 51.1987 88.3458L54.3282 91.7018C54.6454 92.043 55.1163 92.1959 55.5722 92.1035C56.0298 92.0137 56.4065 91.6921 56.5691 91.2567L58.173 86.9686C58.5444 86.862 58.9131 86.7482 59.2801 86.6318L62.997 89.309C63.3746 89.58 63.8669 89.6378 64.296 89.4592C64.7261 89.2823 65.0335 88.8923 65.1082 88.4329L65.8457 83.912C66.1869 83.7352 66.5245 83.5513 66.8613 83.3673L71.0322 85.2679C71.456 85.4616 71.9492 85.4225 72.3357 85.164C72.7231 84.9045 72.9488 84.4647 72.9319 83.9991L72.772 79.408C73.0688 79.1708 73.3629 78.9317 73.6525 78.6847L78.1229 79.7376C78.5769 79.8443 79.0532 79.7119 79.3811 79.3804C79.7116 79.0508 79.8458 78.5772 79.7392 78.1241L78.6862 73.652C78.9315 73.3615 79.1732 73.0691 79.4095 72.7706L83.9998 72.9314C84.4627 72.9501 84.9052 72.7235 85.1638 72.3352C85.4233 71.9478 85.4632 71.4547 85.2687 71.0308L83.368 66.8609C83.5537 66.5242 83.7359 66.1865 83.9118 65.8435L88.4346 65.1078C88.8949 65.0341 89.2823 64.7266 89.46 64.2957C89.6377 63.8665 89.5817 63.3752 89.3089 62.9966L86.6335 59.2799C86.749 58.9129 86.8618 58.5442 86.9694 58.1728L91.2584 56.5689C91.6947 56.4055 92.0164 56.0296 92.1052 55.572C92.1976 55.1153 92.0448 54.6452 91.7036 54.328L88.3484 51.1977C88.3893 50.8201 88.4266 50.4398 88.4595 50.0604L92.3638 47.6436C92.7592 47.4001 93 46.9674 93 46.5018C93 46.0362 92.7601 45.6035 92.3647 45.3591ZM66.2331 77.7473C64.7421 77.4257 63.794 75.956 64.1139 74.4606C64.4329 72.967 65.9017 72.0162 67.3918 72.3379C68.8828 72.6569 69.8326 74.1292 69.5128 75.6219C69.1929 77.1147 67.7232 78.0663 66.2331 77.7473ZM64.9065 68.7748C63.5461 68.4834 62.2079 69.3488 61.9165 70.7118L60.5303 77.1804C56.2528 79.1219 51.5026 80.2006 46.5 80.2006C41.3828 80.2006 36.5295 79.0686 32.1756 77.0445L30.7903 70.5759C30.4989 69.2147 29.1607 68.3474 27.8012 68.6398L22.0904 69.866C21.0304 68.7748 20.0441 67.6126 19.1378 66.3855H46.9247C47.2393 66.3855 47.449 66.3287 47.449 66.0426V56.2135C47.449 55.9274 47.2393 55.8705 46.9247 55.8705H38.798V49.6401H47.5876C48.39 49.6401 51.8776 49.8693 52.9927 54.3272C53.3419 55.6982 54.1087 60.1578 54.633 61.5856C55.1554 63.1868 57.2826 66.3855 59.5494 66.3855H73.3958C73.553 66.3855 73.721 66.3678 73.8978 66.3358C72.9373 67.641 71.8834 68.8761 70.7487 70.0303L64.9065 68.7748ZM26.4746 77.6123C24.9836 77.9339 23.5157 76.9832 23.1949 75.4895C22.8759 73.9932 23.824 72.5245 25.315 72.2028C26.806 71.8838 28.2748 72.8346 28.5947 74.3282C28.9137 75.821 27.9647 77.2924 26.4746 77.6123ZM15.9336 34.869C16.5521 36.2649 15.923 37.9007 14.5288 38.5182C13.1347 39.1376 11.5033 38.5076 10.8848 37.1108C10.2664 35.714 10.8955 34.0809 12.2896 33.4616C13.6847 32.8431 15.3152 33.4722 15.9336 34.869ZM12.6939 42.5487L18.6428 39.9052C19.9135 39.341 20.4875 37.8518 19.9232 36.5786L18.6979 33.8081H23.5166V55.5276H13.7949C12.9516 52.5634 12.4993 49.4349 12.4993 46.2015C12.4993 44.9673 12.566 43.7473 12.6939 42.5487ZM38.7998 40.4393V34.0373H50.2746C50.8673 34.0373 54.4597 34.7224 54.4597 37.4085C54.4597 39.6387 51.7043 40.4384 49.4385 40.4384H38.7998V40.4393ZM80.5015 46.2015C80.5015 47.0509 80.4705 47.8915 80.4083 48.7258H76.9198C76.5706 48.7258 76.4302 48.955 76.4302 49.2971V50.8992C76.4302 54.6701 74.3039 55.4903 72.4406 55.6991C70.6661 55.899 68.6988 54.9562 68.4563 53.8704C67.4095 47.983 65.6653 46.7257 62.9108 44.5532C66.3291 42.3825 69.8859 39.1802 69.8859 34.8939C69.8859 30.2655 66.7129 27.3502 64.5502 25.9205C61.5157 23.9204 58.1561 23.5197 57.2498 23.5197H21.1717C26.0641 18.0596 32.6945 14.1918 40.1939 12.7843L44.4465 17.2457C45.408 18.2524 47.0003 18.2897 48.0061 17.3274L52.7643 12.7763C62.7348 14.6325 71.1761 20.8389 76.041 29.3538L72.7835 36.7109C72.2211 37.9842 72.7951 39.4734 74.0648 40.0376L80.3363 42.8232C80.4447 43.9366 80.5015 45.0615 80.5015 46.2015ZM44.4483 8.98936C45.5501 7.93378 47.2979 7.97554 48.3526 9.07911C49.4056 10.1853 49.3656 11.9349 48.2611 12.9896C47.1593 14.0452 45.4115 14.0043 44.3568 12.8989C43.3047 11.7945 43.3447 10.045 44.4483 8.98936ZM76.774 35.0032C77.3916 33.6073 79.023 32.9773 80.4171 33.5966C81.8113 34.215 82.4404 35.8499 81.8219 37.2458C81.2044 38.6426 79.573 39.2726 78.178 38.6533C76.7856 38.0349 76.1565 36.4008 76.774 35.0032Z" fill="black"/>
</svg>
