<svg width="98" height="100" viewBox="0 0 98 100" fill="none" xmlns="http://www.w3.org/2000/svg">
<path d="M92.8257 48.9099L89.095 46.6005C89.0636 46.2371 89.0279 45.8745 88.9888 45.5137L92.1949 42.5233C92.5209 42.2193 92.6669 41.7693 92.5786 41.3338C92.4929 40.8965 92.1864 40.5365 91.7695 40.3811L87.6711 38.8486C87.5684 38.4937 87.4605 38.1413 87.3502 37.7906L89.9067 34.2399C90.1673 33.879 90.2208 33.4095 90.051 32.9977C89.8812 32.5876 89.5102 32.2939 89.0712 32.2217L84.7495 31.5187C84.5814 31.1909 84.4065 30.8683 84.2299 30.5482L86.046 26.5619C86.232 26.156 86.1937 25.684 85.9458 25.3155C85.6987 24.9453 85.2802 24.7288 84.8336 24.7457L80.4473 24.8986C80.2206 24.615 79.9897 24.334 79.7545 24.058L80.7623 19.7856C80.8642 19.3517 80.736 18.8974 80.4202 18.5824C80.1068 18.2683 79.6518 18.1384 79.2179 18.2403L74.9463 19.2473C74.6695 19.0129 74.3885 18.7811 74.104 18.5544L74.2577 14.1682C74.2747 13.7241 74.0582 13.3022 73.688 13.0559C73.317 12.808 72.8474 12.7707 72.4424 12.9549L68.457 14.7719C68.1352 14.5953 67.8125 14.4204 67.4865 14.2514L66.7818 9.92886C66.7104 9.49074 66.4167 9.11886 66.0057 8.94905C65.5956 8.77839 65.1253 8.83358 64.7644 9.09339L61.2111 11.6499C60.8613 11.5387 60.5098 11.4317 60.1549 11.3298L58.6223 7.23056C58.4669 6.81282 58.1069 6.50631 57.6697 6.41971C57.2333 6.33395 56.7841 6.47914 56.481 6.80348L53.4906 10.0121C53.1298 9.97216 52.7664 9.93565 52.4038 9.90593L50.0944 6.17433C49.8609 5.7965 49.4474 5.56641 49.0025 5.56641C48.5576 5.56641 48.1441 5.7965 47.9115 6.17433L45.602 9.90593C45.2387 9.93565 44.8752 9.97216 44.5144 10.0121L41.5232 6.80348C41.2201 6.47914 40.7701 6.33395 40.3345 6.41971C39.8972 6.50716 39.5372 6.81282 39.3819 7.23056L37.8493 11.3298C37.4944 11.4317 37.1429 11.5395 36.7922 11.6499L33.2398 9.09339C32.8789 8.83273 32.4086 8.77754 31.9976 8.94905C31.5875 9.11886 31.2929 9.49074 31.2216 9.92886L30.5169 14.2514C30.1908 14.4204 29.8682 14.5944 29.5464 14.7719L25.5609 12.9549C25.1559 12.7698 24.6838 12.808 24.3153 13.0559C23.9452 13.3022 23.7286 13.7241 23.7456 14.1682L23.8985 18.5544C23.6149 18.7811 23.3338 19.0129 23.0562 19.2473L18.7846 18.2403C18.3507 18.1392 17.8956 18.2683 17.5815 18.5824C17.2656 18.8974 17.1374 19.3517 17.2393 19.7856L18.2454 24.058C18.012 24.3348 17.781 24.615 17.5543 24.8986L13.1681 24.7457C12.7257 24.733 12.3029 24.9453 12.0558 25.3155C11.8079 25.684 11.7705 26.156 11.9548 26.5619L13.7718 30.5482C13.5952 30.8683 13.4203 31.1909 13.2513 31.5187L8.92959 32.2217C8.49063 32.293 8.12044 32.5868 7.94978 32.9977C7.77997 33.4095 7.83516 33.879 8.09412 34.2399L10.6506 37.7906C10.5394 38.1413 10.4316 38.4937 10.3297 38.8486L6.23044 40.3811C5.8144 40.5365 5.50789 40.8965 5.42129 41.3338C5.33469 41.7702 5.47987 42.2193 5.80506 42.5233L9.01195 45.5137C8.97204 45.8745 8.93638 46.2379 8.90582 46.6005L5.17506 48.9099C4.79723 49.1434 4.56714 49.556 4.56714 50.0018C4.56714 50.4475 4.79723 50.8602 5.17506 51.0928L8.90582 53.4022C8.93638 53.7656 8.97204 54.1282 9.01195 54.489L5.80506 57.4803C5.47987 57.7834 5.33469 58.2334 5.42129 58.6689C5.50789 59.1062 5.8144 59.4654 6.23044 59.6216L10.3297 61.1541C10.4316 61.509 10.5394 61.8614 10.6506 62.2121L8.09412 65.7637C7.83431 66.1254 7.77912 66.5949 7.94978 67.005C8.12044 67.4168 8.49148 67.7106 8.93044 67.781L13.2513 68.484C13.4203 68.8118 13.5935 69.1344 13.7718 69.4562L11.9548 73.4408C11.7697 73.8458 11.8079 74.3171 12.0558 74.6872C12.3037 75.0583 12.7257 75.2748 13.1681 75.257L17.5526 75.1033C17.781 75.3886 18.0111 75.6679 18.2454 75.9455L17.2393 80.2189C17.1374 80.6519 17.2656 81.1044 17.5815 81.4194C17.8948 81.7361 18.3507 81.8626 18.7846 81.7607L23.0562 80.7546C23.3338 80.9906 23.6149 81.2199 23.8985 81.4457L23.7456 85.8328C23.7286 86.2769 23.9452 86.698 24.3153 86.9459C24.6838 87.193 25.1559 87.2304 25.5609 87.0453L29.5464 85.2291C29.8673 85.4074 30.19 85.5807 30.5169 85.7496L31.2216 90.0696C31.2929 90.5094 31.5867 90.8813 31.9976 91.0503C32.4077 91.2209 32.8789 91.1657 33.2398 90.9068L36.7905 88.3486C37.1412 88.4598 37.4936 88.5685 37.8485 88.6704L39.381 92.7679C39.5364 93.184 39.8964 93.4921 40.3336 93.5771C40.7701 93.6654 41.2192 93.5193 41.5223 93.1933L44.5135 89.9864C44.8744 90.028 45.2378 90.0628 45.6012 90.0951L47.9106 93.8258C48.1433 94.202 48.5568 94.4338 49.0017 94.4338C49.4466 94.4338 49.8601 94.2028 50.0936 93.8258L52.403 90.0951C52.7664 90.0628 53.1289 90.028 53.4898 89.9864L56.4802 93.1933C56.7833 93.5193 57.2333 93.6654 57.6688 93.5771C58.1061 93.4913 58.4661 93.184 58.6215 92.7679L60.154 88.6704C60.5089 88.5685 60.8613 88.4598 61.2119 88.3486L64.7636 90.9068C65.1244 91.1657 65.5948 91.2209 66.0049 91.0503C66.4158 90.8813 66.7096 90.5086 66.7809 90.0696L67.4856 85.7496C67.8117 85.5807 68.1343 85.4049 68.4561 85.2291L72.4416 87.0453C72.8466 87.2304 73.3178 87.193 73.6871 86.9459C74.0573 86.698 74.273 86.2777 74.2569 85.8328L74.104 81.4457C74.3876 81.219 74.6686 80.9906 74.9454 80.7546L79.217 81.7607C79.6509 81.8626 80.106 81.7361 80.4193 81.4194C80.7352 81.1044 80.8634 80.6519 80.7615 80.2189L79.7553 75.9455C79.9897 75.6679 80.2206 75.3886 80.4465 75.1033L84.8327 75.257C85.2751 75.2748 85.6979 75.0583 85.945 74.6872C86.1929 74.3171 86.2311 73.8458 86.0452 73.4408L84.229 69.4562C84.4065 69.1344 84.5805 68.8118 84.7486 68.484L89.0703 67.781C89.5102 67.7106 89.8803 67.4168 90.0502 67.005C90.22 66.5949 90.1665 66.1254 89.9058 65.7637L87.3493 62.2121C87.4597 61.8614 87.5675 61.509 87.6702 61.1541L91.7686 59.6216C92.1855 59.4654 92.4929 59.1062 92.5778 58.6689C92.6661 58.2325 92.5201 57.7834 92.194 57.4803L88.988 54.489C89.027 54.1282 89.0627 53.7648 89.0941 53.4022L92.8249 51.0928C93.2027 50.8602 93.4328 50.4467 93.4328 50.0018C93.4328 49.5569 93.2036 49.1434 92.8257 48.9099ZM67.8558 79.8589C66.4311 79.5515 65.5252 78.1472 65.8308 76.7182C66.1356 75.2909 67.5391 74.3824 68.963 74.6898C70.3877 74.9946 71.2953 76.4015 70.9897 77.8279C70.684 79.2543 69.2797 80.1637 67.8558 79.8589ZM66.5882 71.2851C65.2883 71.0066 64.0096 71.8336 63.7311 73.136L62.4066 79.3172C58.3192 81.1723 53.7802 82.2031 49 82.2031C44.1103 82.2031 39.4727 81.1214 35.3123 79.1872L33.9886 73.0061C33.7102 71.7054 32.4315 70.8767 31.1324 71.156L25.6755 72.3277C24.6626 71.2851 23.7202 70.1745 22.8541 69.002H49.4058C49.7064 69.002 49.9068 68.9476 49.9068 68.6742V59.282C49.9068 59.0086 49.7064 58.9542 49.4058 58.9542H41.6403V53.0006H50.0392C50.8059 53.0006 54.1385 53.2197 55.204 57.4794C55.5377 58.7895 56.2704 63.0509 56.7714 64.4154C57.2706 65.9454 59.3033 69.002 61.4692 69.002H74.7001C74.8503 69.002 75.0108 68.985 75.1798 68.9544C74.2619 70.2017 73.255 71.3819 72.1707 72.4848L66.5882 71.2851ZM29.8648 79.7298C28.4401 80.0372 27.0374 79.1287 26.7309 77.7014C26.4261 76.2716 27.332 74.8681 28.7568 74.5607C30.1815 74.2559 31.585 75.1644 31.8906 76.5917C32.1954 78.0181 31.2886 79.4241 29.8648 79.7298ZM19.7924 38.8859C20.3834 40.2198 19.7822 41.7829 18.4501 42.373C17.1179 42.9648 15.559 42.3628 14.9681 41.0281C14.3771 39.6934 14.9783 38.1328 16.3104 37.541C17.6435 36.9501 19.2015 37.5512 19.7924 38.8859ZM16.6968 46.2243L22.3812 43.6984C23.5953 43.1592 24.1438 41.7362 23.6047 40.5195L22.4338 37.8722H27.0383V58.6265H17.7487C16.943 55.794 16.5108 52.8045 16.5108 49.7148C16.5108 48.5355 16.5745 47.3697 16.6968 46.2243ZM41.642 44.2087V38.0912H52.6068C53.1731 38.0912 56.6058 38.7458 56.6058 41.3125C56.6058 43.4437 53.9729 44.2078 51.8078 44.2078H41.642V44.2087ZM81.49 49.7148C81.49 50.5265 81.4603 51.3297 81.4008 52.127H78.0674C77.7337 52.127 77.5996 52.346 77.5996 52.6729V54.2038C77.5996 57.8072 75.5678 58.5908 73.7873 58.7904C72.0918 58.9814 70.212 58.0806 69.9802 57.043C68.98 51.4172 67.3133 50.2157 64.6812 48.1398C67.9475 46.0656 71.3463 43.0056 71.3463 38.9097C71.3463 34.487 68.3143 31.7012 66.2477 30.3351C63.3482 28.4239 60.1379 28.0409 59.2719 28.0409H24.7976C29.4725 22.8235 35.8082 19.1275 42.9742 17.7826L47.0378 22.0457C47.9565 23.0077 49.478 23.0434 50.4391 22.1239L54.9858 17.775C64.5131 19.5487 72.5791 25.4793 77.2277 33.6158L74.1151 40.646C73.5776 41.8627 74.1261 43.2857 75.3394 43.8249L81.332 46.4867C81.4356 47.5506 81.49 48.6255 81.49 49.7148ZM47.0395 14.1563C48.0923 13.1476 49.7624 13.1875 50.7703 14.2421C51.7764 15.2991 51.7382 16.9709 50.6828 17.9788C49.63 18.9874 47.9599 18.9484 46.952 17.8922C45.9468 16.8368 45.985 15.165 47.0395 14.1563ZM77.9282 39.0141C78.5183 37.6803 80.0771 37.0783 81.4093 37.6701C82.7415 38.261 83.3426 39.8233 82.7517 41.1572C82.1616 42.4919 80.6027 43.0939 79.2697 42.5021C77.9392 41.9111 77.3381 40.3497 77.9282 39.0141Z" fill="#38B2AC"/>
</svg>
