<svg width="91" height="100" viewBox="0 0 91 100" fill="none" xmlns="http://www.w3.org/2000/svg">
<path fill-rule="evenodd" clip-rule="evenodd" d="M19.5167 36.2904C20.2502 37.3014 26.4353 39.2085 35.6615 41.1949C44.8876 42.9632 54.4825 49.9453 61.9443 47.7924C66.9915 46.3333 72.467 33.3326 72.467 31.4018V31.2035C72.467 29.8555 71.4559 28.7731 69.7392 27.8731C62.7016 24.277 61.3694 22.9527 58.7606 23.6704C45.2167 27.4092 21.3049 25.4981 19.5167 36.2904Z" fill="#6FBFBB"/>
<path fill-rule="evenodd" clip-rule="evenodd" d="M19.5167 62.6882C20.2502 63.7151 26.4353 65.6063 35.6615 67.5967C45.97 69.476 54.9345 75.6017 62.4003 73.4448C67.4475 71.9857 72.467 59.7344 72.467 57.7996V57.6093C72.467 56.2652 71.4559 55.1788 69.7392 54.2828C64.3708 51.4281 57.2777 48.284 54.6728 49.0016C41.1052 52.7325 22.9701 53.5533 19.5167 62.6882Z" fill="#6FBFBB"/>
<path fill-rule="evenodd" clip-rule="evenodd" d="M19.4413 41.9641V42.1544C19.4372 42.091 19.4372 42.0275 19.4413 41.9641Z" fill="#38B2AC"/>
<path fill-rule="evenodd" clip-rule="evenodd" d="M62.3804 10.1027C49.907 13.7068 30.1186 15.7407 19.4572 15.7407V36.1001C19.4605 36.1701 19.487 36.237 19.5325 36.2904C26.8079 36.2904 49.2687 33.9115 62.8205 30.1846C65.1839 29.583 67.5013 28.8132 69.7549 27.881C71.4122 27.1356 72.4827 26.3506 72.4827 25.5338V5C72.4669 6.93484 67.4276 8.64764 62.3804 10.1027Z" fill="#38B2AC"/>
<path fill-rule="evenodd" clip-rule="evenodd" d="M62.3804 36.5045C54.9146 38.6574 44.84 40.2592 35.6614 41.1949C29.5001 41.8253 23.7431 42.1544 19.4572 42.1544V62.4979C19.4605 62.5679 19.487 62.6348 19.5325 62.6882C26.8079 62.6882 49.2687 60.3093 62.8205 56.5863C65.1834 55.983 67.5007 55.2133 69.7549 54.2828C71.4122 53.5334 72.4827 52.7524 72.4827 51.9356V31.4018C72.4669 33.3326 67.4276 35.0454 62.3804 36.5045Z" fill="#38B2AC"/>
<path fill-rule="evenodd" clip-rule="evenodd" d="M62.3803 62.9221C54.9146 65.075 44.84 66.6729 35.6614 67.6125C29.4921 68.2429 23.7273 68.572 19.4413 68.572V89.09C26.6414 89.09 49.2171 86.7309 62.8046 82.9881C67.8122 81.6084 72.4669 80.0383 72.4669 78.3334V57.7996C72.4669 59.7503 67.4276 61.4472 62.3803 62.9221Z" fill="#38B2AC"/>
</svg>
