<svg width="90" height="100" viewBox="0 0 90 100" fill="none" xmlns="http://www.w3.org/2000/svg">
<path d="M78.3301 64.6533C78.3276 64.65 78.3253 64.6477 78.3226 64.6446C78.4398 64.2434 78.5608 63.8446 78.6634 63.4333C83.0615 45.8086 72.3274 24.9714 54.1631 14C62.1231 24.8536 65.6427 37.9999 62.5156 49.4965C62.2367 50.5219 61.9015 51.5061 61.5309 52.4626C61.1287 52.1969 60.622 51.8952 59.9415 51.5178C59.9415 51.5178 41.8728 40.2966 22.2893 20.4491C21.7755 19.9281 32.7321 36.2004 45.1665 49.414C39.3082 46.107 22.9818 34.159 12.6461 24.6442C13.916 26.7742 15.4263 28.8253 17.0865 30.7999C25.7177 41.8096 36.9739 55.394 50.4592 65.8251C40.9843 71.6573 27.596 72.1108 14.2658 65.8312C10.9688 64.2771 7.86921 62.4019 5 60.2714C10.6426 69.3494 19.333 77.1818 29.9101 81.7543C42.5237 87.2065 55.067 86.8368 64.4092 81.8436L64.4019 81.8544C64.4445 81.8273 64.4988 81.7977 64.543 81.7702C64.9266 81.5628 65.3074 81.3516 65.6798 81.1285C70.1683 78.7851 79.0342 76.4076 83.7929 85.7205C84.9583 87.9997 87.4348 75.9213 78.3301 64.6533Z" fill="#A0AEC0"/>
</svg>
