<svg width="98" height="100" viewBox="0 0 98 100" fill="none" xmlns="http://www.w3.org/2000/svg">
<path fill-rule="evenodd" clip-rule="evenodd" d="M12.8122 13H82.1787C83.7318 13 84.9909 14.2424 84.9909 15.775V84.225C84.9909 85.7576 83.7318 87 82.1787 87H12.8122C11.259 87 10 85.7576 10 84.225V15.775C10 14.2424 11.259 13 12.8122 13V13ZM51.6869 52.3691V46.3H24.9981V52.3691H34.5265V79.3922H42.1119V52.3691H51.6869ZM54.711 78.6787C55.9342 79.294 57.3809 79.7557 59.051 80.0633C60.7213 80.371 62.4815 80.525 64.3321 80.525C66.1356 80.525 67.8487 80.3557 69.4719 80.0172C71.0949 79.6788 72.518 79.121 73.7412 78.344C74.9643 77.567 75.9328 76.5518 76.6463 75.2977C77.3599 74.0437 77.7166 72.4937 77.7166 70.6474C77.7166 69.3089 77.5127 68.136 77.1049 67.1282C76.6974 66.1203 76.1093 65.2241 75.3408 64.4394C74.5725 63.6547 73.651 62.9509 72.5768 62.3278C71.5025 61.7048 70.2913 61.1162 68.9426 60.5624C67.9545 60.1622 67.0684 59.7737 66.2844 59.3969C65.5002 59.02 64.8337 58.6352 64.285 58.243C63.736 57.8505 63.3128 57.4353 63.0148 56.9967C62.7168 56.5584 62.5679 56.062 62.5679 55.5082C62.5679 55.0004 62.7011 54.5427 62.9677 54.1352C63.2344 53.7273 63.6105 53.3772 64.0968 53.0849C64.583 52.7926 65.1788 52.5658 65.8846 52.4041C66.5901 52.2428 67.3744 52.1619 68.2368 52.1619C68.8642 52.1619 69.5267 52.208 70.2246 52.3003C70.9224 52.3928 71.6242 52.5351 72.3298 52.7272C73.0356 52.9196 73.7218 53.1618 74.3883 53.4544C75.0547 53.7467 75.6702 54.0851 76.2348 54.4696V47.5694C75.0898 47.1385 73.8393 46.8191 72.4826 46.6117C71.1263 46.4039 69.5698 46.3 67.8133 46.3C66.0258 46.3 64.3321 46.4884 62.7325 46.8655C61.1328 47.2424 59.7255 47.8309 58.51 48.631C57.2945 49.4311 56.334 50.4503 55.6285 51.6886C54.9227 52.9273 54.5699 54.4081 54.5699 56.1312C54.5699 58.3315 55.2167 60.2086 56.5106 61.7623C57.8045 63.3163 59.7685 64.6318 62.4031 65.7088C63.4383 66.1243 64.4025 66.5319 65.2965 66.9321C66.1903 67.3319 66.9626 67.7475 67.6134 68.1781C68.2642 68.609 68.7778 69.0781 69.1542 69.5858C69.5307 70.0936 69.7189 70.6705 69.7189 71.3168C69.7189 71.7939 69.6011 72.2361 69.3659 72.6437C69.1306 73.0516 68.7738 73.4053 68.2956 73.7053C67.8173 74.0053 67.2216 74.2401 66.508 74.4092C65.7945 74.5785 64.9592 74.6631 64.0027 74.6631C62.3717 74.6631 60.7564 74.3824 59.1568 73.8209C57.5575 73.2593 56.0754 72.4169 54.711 71.2938V78.6787Z" fill="#38B2AC"/>
</svg>
