<svg width="100" height="100" viewBox="0 0 100 100" fill="none" xmlns="http://www.w3.org/2000/svg">
<path fill-rule="evenodd" clip-rule="evenodd" d="M25.9744 24H74.6756C75.766 24 76.65 24.873 76.65 25.95V74.05C76.65 75.127 75.766 76 74.6756 76H25.9744C24.884 76 24 75.127 24 74.05V25.95C24 24.873 24.884 24 25.9744 24ZM53.2678 51.6648V47.4H34.53V51.6648H41.2197V70.654H46.5453V51.6648H53.2678ZM55.391 70.1526C56.2497 70.585 57.2655 70.9094 58.438 71.1256C59.6107 71.3418 60.8465 71.45 62.1457 71.45C63.412 71.45 64.6147 71.331 65.7544 71.0932C66.8939 70.8554 67.893 70.4634 68.7518 69.9174C69.6105 69.3714 70.2905 68.658 70.7914 67.7768C71.2924 66.8956 71.5429 65.8064 71.5429 64.509C71.5429 63.5684 71.3997 62.7442 71.1134 62.036C70.8273 61.3278 70.4144 60.698 69.8748 60.1466C69.3354 59.5952 68.6885 59.1006 67.9342 58.6628C67.18 58.225 66.3296 57.8114 65.3828 57.4222C64.689 57.141 64.0669 56.868 63.5165 56.6032C62.9659 56.3384 62.4979 56.068 62.1127 55.7924C61.7273 55.5166 61.4301 55.2248 61.2209 54.9166C61.0117 54.6086 60.9072 54.2598 60.9072 53.8706C60.9072 53.5138 61.0007 53.1922 61.1879 52.9058C61.3751 52.6192 61.6392 52.3732 61.9806 52.1678C62.3219 51.9624 62.7402 51.803 63.2358 51.6894C63.7311 51.576 64.2817 51.5192 64.8872 51.5192C65.3277 51.5192 65.7928 51.5516 66.2828 51.6164C66.7727 51.6814 67.2655 51.7814 67.7608 51.9164C68.2564 52.0516 68.7381 52.2218 69.2061 52.4274C69.674 52.6328 70.1061 52.8706 70.5025 53.1408V48.292C69.6986 47.9892 68.8206 47.7648 67.8682 47.619C66.9159 47.473 65.8231 47.4 64.5899 47.4C63.3349 47.4 62.1458 47.5324 61.0227 47.7974C59.8996 48.0622 58.9115 48.4758 58.0582 49.038C57.2048 49.6002 56.5305 50.3164 56.0351 51.1866C55.5395 52.057 55.2919 53.0976 55.2919 54.3084C55.2919 55.8546 55.746 57.1736 56.6544 58.2654C57.5628 59.3574 58.9418 60.2818 60.7914 61.0386C61.5182 61.3306 62.1952 61.617 62.8229 61.8982C63.4504 62.1792 63.9926 62.4712 64.4495 62.7738C64.9064 63.0766 65.267 63.4062 65.5313 63.763C65.7956 64.1198 65.9278 64.5252 65.9278 64.9794C65.9278 65.3146 65.8451 65.6254 65.6799 65.9118C65.5147 66.1984 65.2642 66.447 64.9285 66.6578C64.5927 66.8686 64.1744 67.0336 63.6735 67.1524C63.1725 67.2714 62.586 67.3308 61.9145 67.3308C60.7694 67.3308 59.6353 67.1336 58.5123 66.739C57.3894 66.3444 56.3489 65.7524 55.391 64.9632V70.1526Z" fill="#38B2AC"/>
</svg>
