<svg width="82" height="80" viewBox="0 0 82 80" fill="none" xmlns="http://www.w3.org/2000/svg">
<path fill-rule="evenodd" clip-rule="evenodd" d="M3.04017 0H78.031C79.71 0 81.0712 1.34314 81.0712 3V77C81.0712 78.6569 79.71 80 78.031 80H3.04017C1.36113 80 0 78.6569 0 77V3C0 1.34314 1.36113 0 3.04017 0ZM45.067 42.5612V36H16.2142V42.5612H26.5151V71.7754H34.7155V42.5612H45.067ZM48.3363 71.004C49.6586 71.6692 51.2226 72.1683 53.0281 72.5009C54.8339 72.8335 56.7367 73 58.7374 73C60.6871 73 62.5391 72.8169 64.294 72.4511C66.0486 72.0852 67.587 71.4822 68.9094 70.6422C70.2317 69.8022 71.2787 68.7046 72.0501 67.3489C72.8215 65.9932 73.2072 64.3175 73.2072 62.3215C73.2072 60.8745 72.9867 59.6065 72.5459 58.5169C72.1053 57.4274 71.4696 56.4585 70.6387 55.6102C69.8081 54.7618 68.8119 54.0009 67.6505 53.3274C66.4891 52.6538 65.1798 52.0175 63.7218 51.4188C62.6535 50.9862 61.6956 50.5662 60.848 50.1588C60.0002 49.7514 59.2797 49.3354 58.6865 48.9114C58.093 48.4871 57.6355 48.0382 57.3133 47.564C56.9911 47.0902 56.8302 46.5535 56.8302 45.9548C56.8302 45.4058 56.9741 44.9111 57.2624 44.4705C57.5507 44.0295 57.9573 43.6511 58.483 43.3351C59.0087 43.0191 59.6527 42.7738 60.4158 42.5991C61.1785 42.4246 62.0264 42.3372 62.9587 42.3372C63.637 42.3372 64.3532 42.3871 65.1076 42.4868C65.8621 42.5868 66.6208 42.7406 67.3836 42.9483C68.1466 43.1563 68.8884 43.4182 69.6089 43.7345C70.3294 44.0505 70.9948 44.4163 71.6052 44.832V37.3723C70.3674 36.9065 69.0154 36.5612 67.5488 36.3369C66.0825 36.1123 64.3997 36 62.5009 36C60.5684 36 58.7374 36.2037 57.0081 36.6114C55.2788 37.0188 53.7573 37.6551 52.4432 38.52C51.1292 39.3849 50.0909 40.4868 49.3281 41.8255C48.565 43.1646 48.1837 44.7655 48.1837 46.6283C48.1837 49.0071 48.8829 51.0363 50.2817 52.716C51.6805 54.396 53.8038 55.8182 56.652 56.9825C57.7711 57.4317 58.8135 57.8723 59.7801 58.3049C60.7463 58.7372 61.5812 59.1865 62.2848 59.652C62.9883 60.1178 63.5436 60.6249 63.9505 61.1738C64.3575 61.7228 64.561 62.3465 64.561 63.0452C64.561 63.5609 64.4337 64.0391 64.1793 64.4797C63.925 64.9206 63.5393 65.3031 63.0222 65.6274C62.5052 65.9517 61.8611 66.2055 61.0897 66.3883C60.3184 66.5714 59.4153 66.6628 58.3813 66.6628C56.618 66.6628 54.8718 66.3594 53.1425 65.7523C51.4135 65.1452 49.8112 64.2345 48.3363 63.0203V71.004Z" fill="#A0AEC0"/>
</svg>
