<svg width="81" height="80" viewBox="0 0 81 80" fill="none" xmlns="http://www.w3.org/2000/svg">
<path fill-rule="evenodd" clip-rule="evenodd" d="M3.0375 0H77.9624C79.64 0 81 1.34314 81 3V77C81 78.6569 79.64 80 77.9624 80H3.0375C1.35993 80 0 78.6569 0 77V3C0 1.34314 1.35993 0 3.0375 0ZM45.0274 42.5612V36H16.2V42.5612H26.4918V71.7754H34.685V42.5612H45.0274ZM48.2938 71.004C49.615 71.6692 51.1777 72.1683 52.9815 72.5009C54.7857 72.8335 56.6869 73 58.6858 73C60.6338 73 62.4842 72.8169 64.2375 72.4511C65.9906 72.0852 67.5277 71.4822 68.8488 70.6422C70.17 69.8022 71.2161 68.7046 71.9868 67.3489C72.7575 65.9932 73.1429 64.3175 73.1429 62.3215C73.1429 60.8745 72.9226 59.6065 72.4822 58.5169C72.042 57.4274 71.4068 56.4585 70.5766 55.6102C69.7468 54.7618 68.7515 54.0009 67.5911 53.3274C66.4307 52.6538 65.1225 52.0175 63.6658 51.4188C62.5985 50.9862 61.6414 50.5662 60.7946 50.1588C59.9475 49.7514 59.2276 49.3354 58.6349 48.9114C58.042 48.4871 57.5848 48.0382 57.2629 47.564C56.941 47.0902 56.7802 46.5535 56.7802 45.9548C56.7802 45.4058 56.9241 44.9111 57.2121 44.4705C57.5001 44.0295 57.9064 43.6511 58.4316 43.3351C58.9568 43.0191 59.6003 42.7738 60.3627 42.5991C61.1248 42.4246 61.9719 42.3372 62.9034 42.3372C63.5811 42.3372 64.2967 42.3871 65.0504 42.4868C65.8042 42.5868 66.5623 42.7406 67.3244 42.9483C68.0868 43.1563 68.8279 43.4182 69.5478 43.7345C70.2677 44.0505 70.9324 44.4163 71.5423 44.832V37.3723C70.3056 36.9065 68.9548 36.5612 67.4895 36.3369C66.0245 36.1123 64.3432 36 62.446 36C60.5152 36 58.6858 36.2037 56.958 36.6114C55.2302 37.0188 53.71 37.6551 52.3972 38.52C51.0843 39.3849 50.0469 40.4868 49.2848 41.8255C48.5224 43.1646 48.1413 44.7655 48.1413 46.6283C48.1413 49.0071 48.84 51.0363 50.2375 52.716C51.6351 54.396 53.7565 55.8182 56.6022 56.9825C57.7204 57.4317 58.7619 57.8723 59.7276 58.3049C60.6929 58.7372 61.5271 59.1865 62.23 59.652C62.933 60.1178 63.4878 60.6249 63.8944 61.1738C64.301 61.7228 64.5043 62.3465 64.5043 63.0452C64.5043 63.5609 64.3771 64.0391 64.1229 64.4797C63.8688 64.9206 63.4834 65.3031 62.9669 65.6274C62.4503 65.9517 61.8068 66.2055 61.0361 66.3883C60.2654 66.5714 59.3631 66.6628 58.33 66.6628C56.5683 66.6628 54.8236 66.3594 53.0958 65.7523C51.3683 65.1452 49.7675 64.2345 48.2938 63.0203V71.004Z" fill="black"/>
</svg>
