<svg width="99" height="100" viewBox="0 0 99 100" fill="none" xmlns="http://www.w3.org/2000/svg">
<path d="M79.5781 12H18.4219C14.3229 12 11 15.3229 11 19.4219V80.5781C11 84.6771 14.3229 88 18.4219 88H79.5781C83.6771 88 87 84.6771 87 80.5781V19.4219C87 15.3229 83.6771 12 79.5781 12Z" fill="#3178C6"/>
<path fill-rule="evenodd" clip-rule="evenodd" d="M58.0456 72.477V79.9079C59.2536 80.5272 60.6823 80.9915 62.3318 81.3012C63.9812 81.6108 65.7196 81.7656 67.5471 81.7656C69.3282 81.7656 71.0201 81.5954 72.6231 81.2547C74.2261 80.9142 75.6316 80.3529 76.8396 79.5711C78.0476 78.7895 79.004 77.7676 79.7086 76.5059C80.4132 75.2442 80.7656 73.6845 80.7656 71.8268C80.7656 70.4799 80.5643 69.2995 80.1616 68.2856C79.7589 67.2716 79.1782 66.3698 78.4193 65.5803C77.6605 64.7908 76.7505 64.0824 75.6897 63.4554C74.6288 62.8284 73.4324 62.2363 72.1004 61.6791C71.1248 61.2765 70.2497 60.8857 69.4753 60.5064C68.7009 60.127 68.0427 59.74 67.5007 59.3453C66.9586 58.9505 66.5404 58.5325 66.2462 58.0913C65.952 57.65 65.8048 57.1508 65.8048 56.5934C65.8048 56.0827 65.9364 55.6221 66.1998 55.2118C66.4631 54.8015 66.8348 54.4494 67.3148 54.1552C67.795 53.8612 68.3834 53.6327 69.0803 53.4702C69.7774 53.3076 70.5516 53.2264 71.4035 53.2264C72.0229 53.2264 72.6773 53.2729 73.3665 53.3657C74.0557 53.4586 74.7487 53.6018 75.4458 53.7952C76.1427 53.9888 76.8202 54.2327 77.4785 54.5268C78.1367 54.821 78.7445 55.1615 79.302 55.5486V48.6053C78.1715 48.1718 76.9364 47.8506 75.5967 47.6416C74.2571 47.4326 72.7199 47.3281 70.9854 47.3281C69.2197 47.3281 67.5471 47.5178 65.9674 47.8971C64.3878 48.2763 62.9978 48.8685 61.7974 49.6734C60.5971 50.4786 59.6486 51.5041 58.9517 52.7504C58.2548 53.9965 57.9062 55.4865 57.9062 57.2204C57.9062 59.4342 58.5451 61.323 59.8229 62.8866C61.1005 64.4501 63.0403 65.7737 65.6422 66.8575C66.6644 67.2755 67.6169 67.6856 68.4996 68.0881C69.3824 68.4907 70.1452 68.9087 70.7878 69.3421C71.4305 69.7756 71.9377 70.2478 72.3096 70.7587C72.6813 71.2695 72.8671 71.85 72.8671 72.5003C72.8671 72.9802 72.7509 73.4252 72.5186 73.8355C72.2863 74.2458 71.9339 74.6017 71.4616 74.9037C70.9892 75.2056 70.4007 75.4416 69.696 75.6119C68.9913 75.7823 68.1667 75.8673 67.2219 75.8673C65.6112 75.8673 64.0161 75.5848 62.4363 75.0197C60.8566 74.4548 59.393 73.6072 58.0456 72.477ZM45.5533 54.1684H55.0859V48.0703H28.5156V54.1684H38.0017V81.3203H45.5533V54.1684Z" fill="white"/>
</svg>
