<svg width="90" height="100" viewBox="0 0 90 100" fill="none" xmlns="http://www.w3.org/2000/svg">
<g clip-path="url(#clip0_1438_3)">
<path d="M29.2987 26.1571L20.1819 37.3143L15.6234 30.2143L29.2987 26.1571Z" fill="#38B2AC"/>
<path d="M29.2987 26.1571L22.7143 31.7357L20.1818 37.3143H17.1429V63.1786H21.7013L16.1299 65.7143L12.0779 74.3357H6V26.1571H29.2987Z" fill="#38B2AC"/>
<path d="M21.7013 63.1786L12.0779 74.3357L8.026 68.7571L21.7013 63.1786Z" fill="#38B2AC"/>
<path d="M34.3637 26.1571L37.4027 33.2571L24.7404 37.3143L34.3637 26.1571Z" fill="#38B2AC"/>
<path d="M34.3637 26.1571H62.2209V37.3143H24.7404L34.3637 31.2286V26.1571Z" fill="#38B2AC"/>
<path d="M64.7533 63.1786L55.1299 74.3357L51.5845 67.7429L64.7533 63.1786Z" fill="#38B2AC"/>
<path d="M64.7533 63.1786L56.6495 67.7429L55.13 74.3357H27.2728V63.1786H64.7533Z" fill="#38B2AC"/>
<path d="M81.9741 15L32.3377 74.3357L7.51953 86L57.1559 26.1571L81.9741 15Z" fill="#38B2AC"/>
<path d="M77.4156 26.1571L76.9091 35.2857L67.7922 37.8214L77.4156 26.1571Z" fill="#38B2AC"/>
<path d="M83.4935 26.1571V74.3357H59.6884L66.7793 68.25L69.3117 63.1786H72.3507V37.8214H67.7923L72.8572 33.2571L77.4156 26.1571H83.4935Z" fill="#38B2AC"/>
<path d="M69.3117 63.1786L71.8442 70.7857L59.6884 74.3357L69.3117 63.1786Z" fill="#38B2AC"/>
</g>
<defs>
<clipPath id="clip0_1438_3">
<rect width="78" height="71" fill="white" transform="translate(6 15)"/>
</clipPath>
</defs>
</svg>
