<svg width="98" height="100" viewBox="0 0 98 100" fill="none" xmlns="http://www.w3.org/2000/svg">
<path d="M84.1761 33.52C84.1755 32.1749 83.8878 30.9862 83.306 29.9661C82.7346 28.9629 81.8787 28.1221 80.7308 27.4573C71.2548 21.9934 61.7696 16.5463 52.2967 11.0768C49.7428 9.60241 47.2667 9.65616 44.7318 11.1517C40.9601 13.3761 22.0763 24.195 16.4492 27.4543C14.1318 28.7958 13.0042 30.8489 13.0036 33.5175C13 44.5058 13.0036 55.4937 13 66.4822C13 67.7979 13.276 68.9634 13.8322 69.9682C14.4039 71.0017 15.2717 71.8656 16.4462 72.5455C22.0735 75.8047 40.9598 86.6228 44.7307 88.8478C47.2667 90.3441 49.7428 90.3976 52.2975 88.9227C61.7707 83.4529 71.2564 78.006 80.7338 72.5421C81.9082 71.8626 82.7761 70.9981 83.3478 69.9654C83.9031 68.9606 84.1797 67.7951 84.1797 66.4792C84.1797 66.4792 84.1797 44.5085 84.1761 33.52Z" fill="#A179DC"/>
<path d="M48.6987 49.8928L13.8322 69.9682C14.4039 71.0018 15.2717 71.8657 16.4462 72.5455C22.0735 75.8048 40.9598 86.6229 44.7307 88.8478C47.2667 90.3442 49.7428 90.3976 52.2975 88.9227C61.7707 83.453 71.2564 78.0061 80.7338 72.5422C81.9082 71.8626 82.7761 70.9981 83.3478 69.9655L48.6987 49.8928Z" fill="#280068"/>
<path d="M84.1761 33.52C84.1755 32.1749 83.8878 30.9862 83.306 29.9661L48.6987 49.8928L83.3478 69.9654C83.9031 68.9606 84.1791 67.7951 84.1797 66.4791C84.1797 66.4791 84.1797 44.5085 84.1761 33.52Z" fill="#390091"/>
<path d="M69.2272 42.3879V46.1404H72.9796V42.3879H74.8558V46.1404H78.6082V48.0166H74.8558V51.769H78.6082V53.6452H74.8558V57.3976H72.9796V53.6452H69.2272V57.3976H67.3509V53.6452H63.5985V51.769H67.3509V48.0166H63.5985V46.1404H67.3509V42.3879H69.2272ZM72.9796 48.0166H69.2272V51.769H72.9796V48.0166Z" fill="white"/>
<path d="M48.7753 23.5424C58.5628 23.5424 67.1082 28.8579 71.6852 36.7589L71.6406 36.6828L60.125 43.3135C57.8561 39.4719 53.6968 36.8795 48.9256 36.8261L48.7753 36.8253C41.4993 36.8253 35.6005 42.7238 35.6005 49.9997C35.6005 52.3791 36.2349 54.6095 37.3381 56.536C39.609 60.5005 43.8781 63.1745 48.7753 63.1745C53.7027 63.1745 57.9961 60.4665 60.2555 56.4596L60.2006 56.5558L71.6989 63.217C67.172 71.0511 58.7438 76.3502 49.07 76.4558L48.7753 76.4574C38.9569 76.4574 30.3872 71.1092 25.8217 63.1664C23.5928 59.2889 22.3176 54.7935 22.3176 49.9997C22.3176 35.3879 34.1628 23.5424 48.7753 23.5424Z" fill="white"/>
</svg>
