<svg width="101" height="100" viewBox="0 0 101 100" fill="none" xmlns="http://www.w3.org/2000/svg">
<path d="M28.6309 71.9735L15.9335 59.2761C14.4275 57.7319 13.4944 55.5493 13.4944 53.4158C13.4944 52.4281 14.051 50.8839 14.4711 50L26.1918 25.5874L28.6309 71.9735Z" fill="#A0AEC0"/>
<path d="M72.0923 28.0265L59.3949 15.3291C58.2872 14.2159 55.9791 12.89 54.0257 12.89C52.3451 12.89 50.6972 13.2283 49.6332 13.8667L26.1973 25.5874L72.0923 28.0265Z" fill="#CAD4E0"/>
<path d="M43.7673 87.11H74.5313V73.927L51.581 66.5988L30.5842 73.927L43.7673 87.11Z" fill="#CAD4E0"/>
<path d="M26.1918 65.1365C26.1918 69.0543 26.6829 70.0146 28.6309 71.9735L30.5843 73.927H74.5314L53.0489 49.5143L26.1918 25.5874V65.1365Z" fill="#ADBDCE"/>
<path d="M65.2552 25.5819H26.1918L74.5314 73.9215H87.7144V43.6486L72.0868 28.021C69.8933 25.822 67.9453 25.5819 65.2552 25.5819Z" fill="#A0AEC0"/>
<path opacity="0.2" d="M29.1219 72.4592C27.1685 70.5003 26.6829 68.5686 26.6829 65.1365V26.073L26.1972 25.5874V65.1365C26.1918 68.5686 26.1918 69.5181 29.1219 72.4592Z" fill="white"/>
<path opacity="0.2" d="M87.2287 43.1629V73.4359H74.0457L74.5313 73.927H87.7143V43.6486L87.2287 43.1629Z" fill="#CAD4E0"/>
<path opacity="0.2" d="M72.0923 28.0264C69.6696 25.6037 67.6889 25.5874 64.7696 25.5874H26.1973L26.6829 26.073H64.7696C66.2265 26.073 69.9042 25.8275 72.0923 28.0264Z" fill="white"/>
</svg>
