<svg width="101" height="100" viewBox="0 0 101 100" fill="none" xmlns="http://www.w3.org/2000/svg">
<g clip-path="url(#clip0_1521_19)">
<path d="M49.7349 80.0332C49.5131 79.5587 48.8395 78.3235 48.5012 77.9276C47.7666 77.0644 47.5951 76.9994 47.3791 75.9097C47.0036 74.0122 46.0095 70.5708 44.8381 68.1959C44.233 66.9703 43.2269 65.9408 42.3058 65.0519C41.5017 64.2722 39.6895 62.9603 39.3734 63.0253C36.4134 63.6187 35.4953 66.5332 34.103 68.8421C33.3327 70.1191 32.5165 71.2054 31.9095 72.5639C31.3489 73.8133 31.3987 75.1965 30.4389 76.2692C29.4545 77.3706 28.8147 78.5418 28.3324 79.9648C28.2411 80.2356 27.9811 83.0782 27.6989 83.7482L32.098 83.4372C36.1974 83.7177 35.0134 85.295 41.4118 84.9515L51.5148 84.6376C51.2016 83.708 50.7701 82.6314 50.6038 82.2815C50.3221 81.6925 49.9679 80.5398 49.7349 80.0332Z" fill="url(#paint0_linear_1521_19)" fill-opacity="0.8"/>
<path d="M62.5422 59.0299C61.7656 59.5927 60.2477 60.9463 56.9461 61.4582C55.4644 61.6882 54.0785 61.7071 52.5572 61.6309C51.8125 61.595 51.1103 61.5567 50.3637 61.547C49.9239 61.5436 48.4485 61.4965 48.5215 61.6382L48.3572 62.0496C48.3828 62.185 48.4364 62.5232 48.4514 62.6052C48.5118 62.9375 48.5287 63.2019 48.5413 63.5076C48.564 64.1359 48.4896 64.7909 48.5215 65.425C48.5877 66.7403 49.0738 67.9392 49.1352 69.2662C49.2024 70.7435 49.9302 72.3068 50.6343 73.5134C50.9015 73.9729 51.3084 74.0253 51.4858 74.591C51.6936 75.2392 51.4969 75.9267 51.5979 76.6176C51.9942 79.2963 52.7626 82.0962 53.9639 84.5139C53.9726 84.5342 53.9818 84.5561 53.9924 84.5745C55.476 84.3242 56.9625 83.7885 58.8903 83.5023C62.4248 82.9758 67.3405 83.2471 70.4981 82.9501C78.4878 82.1962 82.8241 86.2401 90 84.5828V25.1194C90 19.5311 85.4893 15 79.9217 15H20.0788C14.5132 15 10.0005 19.5311 10.0005 25.1194V47.1983C11.4425 46.6748 13.5167 43.5944 14.1667 42.8453C15.3038 41.5353 15.5101 39.8644 16.0765 38.812C17.3663 36.4153 17.5881 34.7671 20.5201 34.7671C21.8867 34.7671 22.4294 35.0835 23.3539 36.3289C23.9971 37.1949 25.1081 38.7951 25.6281 39.8649C26.2283 41.0992 27.2064 42.7692 27.6365 43.1064C27.955 43.3567 28.271 43.5445 28.5658 43.6556C29.0413 43.8346 29.4347 43.5061 29.7527 43.2519C30.1586 42.9273 30.3336 42.266 30.7095 41.384C31.2513 40.1114 31.8418 38.5864 32.1777 38.0542C32.759 37.1343 32.9572 36.0426 33.5849 35.5138C34.5109 34.7341 35.719 34.6793 36.0515 34.6133C37.9115 34.2446 38.7572 35.5133 39.6735 36.3338C40.2732 36.8713 41.0928 37.9542 41.6747 39.4054C42.1294 40.5388 42.7084 41.5873 42.9505 42.2418C43.1844 42.8735 43.7619 43.886 44.104 45.1C44.4147 46.2023 45.2464 47.047 45.5625 47.571C45.5625 47.571 46.0462 48.9314 48.9878 50.1749C49.6257 50.4447 50.9151 50.8833 51.6844 51.1642C52.9626 51.6304 54.2007 51.5698 55.7771 51.3801C56.9012 51.3801 57.5101 49.746 58.0209 48.4375C58.3229 47.6641 58.6124 45.4478 58.8096 44.8185C59.0004 44.2063 58.5539 43.7327 58.9342 43.1961C59.3788 42.5697 59.6432 42.5358 59.8998 41.7192C60.4512 39.9706 63.6383 39.8823 65.4297 39.8823C66.923 39.8823 66.7331 41.3379 69.2663 40.8401C70.717 40.5543 72.1151 41.0279 73.6552 41.4373C74.9523 41.7828 76.1716 42.1763 76.9023 43.035C77.3749 43.591 78.5482 46.3769 77.3527 46.4958C77.4677 46.637 77.5518 46.8917 77.7668 47.0314C77.5005 48.0823 76.3417 47.3337 75.698 47.1988C74.8305 47.0183 74.2182 47.226 73.3696 47.603C71.9189 48.2517 69.7969 48.176 68.5332 49.2327C67.4608 50.1283 67.4628 52.1278 66.9626 53.248C66.9626 53.248 65.5737 56.8354 62.5422 59.0299Z" fill="url(#paint1_linear_1521_19)" fill-opacity="0.8"/>
<path d="M29.0162 64.1247C28.3261 64.0544 27.6853 63.9753 27.015 63.8395C25.7634 63.5862 24.3958 63.3392 23.163 63.0428C22.4144 62.8608 19.9208 61.9744 19.3791 61.7246C18.1086 61.1365 17.2648 59.5388 16.2717 59.7033C15.6377 59.8071 15.0201 60.0255 14.6257 60.6674C14.3039 61.1909 14.1947 62.0909 13.9719 62.6944C13.7134 63.395 13.2668 64.049 12.8759 64.7167C12.1568 65.9412 10.8626 67.0489 10.3049 68.242C10.1928 68.4875 10.0933 68.7621 10 69.0483V73.6255V81.5441V82.6881C10.6505 82.7997 11.3309 82.937 12.0925 83.1413C17.7133 84.6468 19.0848 84.7744 24.5978 84.1412L25.1149 84.0723C25.5367 83.1913 25.8625 80.189 26.136 79.2599C26.3491 78.5476 26.642 77.98 26.7531 77.2527C26.858 76.5618 26.7434 75.9034 26.6845 75.2756C26.5298 73.7026 27.8255 73.1408 28.444 71.7901C29.0017 70.5679 29.3236 69.1774 29.7851 67.928C30.2277 66.7292 30.9188 65.0349 32.0975 64.4314C31.9544 64.264 29.6353 64.1868 29.0162 64.1247Z" fill="url(#paint2_linear_1521_19)" fill-opacity="0.8"/>
</g>
<defs>
<linearGradient id="paint0_linear_1521_19" x1="39.6068" y1="63.0229" x2="39.6068" y2="85" gradientUnits="userSpaceOnUse">
<stop stop-color="#94A3B8"/>
<stop offset="1" stop-color="#64748B"/>
</linearGradient>
<linearGradient id="paint1_linear_1521_19" x1="50.0002" y1="14.9999" x2="50.0002" y2="84.9853" gradientUnits="userSpaceOnUse">
<stop stop-color="#94A3B8"/>
<stop offset="1" stop-color="#64748B"/>
</linearGradient>
<linearGradient id="paint2_linear_1521_19" x1="21.0487" y1="59.6914" x2="21.0487" y2="84.5004" gradientUnits="userSpaceOnUse">
<stop stop-color="#94A3B8"/>
<stop offset="1" stop-color="#64748B"/>
</linearGradient>
<clipPath id="clip0_1521_19">
<rect width="80" height="70" fill="white" transform="translate(10 15)"/>
</clipPath>
</defs>
</svg>
