<svg height="512" viewBox="0 0 64 64" width="512" xmlns="http://www.w3.org/2000/svg"><path d="m24 53h16a0 0 0 0 1 0 0 8 8 0 0 1 -8 8 8 8 0 0 1 -8-8 0 0 0 0 1 0 0z" fill="#a8dba8"/><path d="m32 8a18.052 18.052 0 0 1 4 .461v-.461a4.992 4.992 0 0 1 -4.986-4.863 3.991 3.991 0 0 0 -3.014 3.863v1.461a18.052 18.052 0 0 1 4-.461z" fill="#cff09e"/><path d="m54 47a4 4 0 0 1 -4-4h-11a18 18 0 0 1 -18-18v-13.226a17.95 17.95 0 0 0 -7 14.226v17a4 4 0 0 1 -4 4 4 4 0 0 0 -4 4v2h52v-2a4 4 0 0 0 -4-4z" fill="#cff09e"/><g fill="#3b8686"><path d="m54 46a3 3 0 0 1 -3-3v-17a19.017 19.017 0 0 0 -14-18.31v-.69a5 5 0 0 0 -10 0v.69a19.017 19.017 0 0 0 -14 18.31v17a3 3 0 0 1 -3 3 5.006 5.006 0 0 0 -5 5v2a1 1 0 0 0 1 1h17.059a9 9 0 0 0 17.882 0h17.059a1 1 0 0 0 1-1v-2a5.006 5.006 0 0 0 -5-5zm-25-39a3 3 0 0 1 6 0v.261a17.372 17.372 0 0 0 -6 0zm3 53a7.011 7.011 0 0 1 -6.929-6h13.858a7.011 7.011 0 0 1 -6.929 6zm25-8h-50v-1a3 3 0 0 1 3-3 5.006 5.006 0 0 0 5-5v-17a17 17 0 0 1 34 0v17a5.006 5.006 0 0 0 5 5 3 3 0 0 1 3 3z"/><path d="m33.414 31.586a1 1 0 0 0 1.414-1.414 4.093 4.093 0 0 0 -5.656 0 1 1 0 0 0 1.414 1.414 2.047 2.047 0 0 1 2.828 0z"/><path d="m26.343 27.343a1 1 0 0 0 1.414 1.414 6.008 6.008 0 0 1 8.486 0 1 1 0 1 0 1.414-1.414 8.01 8.01 0 0 0 -11.314 0z"/><path d="m24.929 25.929a10.011 10.011 0 0 1 14.142 0 1 1 0 1 0 1.414-1.414 12.013 12.013 0 0 0 -16.97 0 1 1 0 0 0 1.414 1.414z"/><path d="m24 41h-3v-5a1 1 0 0 0 -2 0v6a1 1 0 0 0 1 1h4a1 1 0 0 0 0-2z"/><path d="m28 35a1 1 0 0 0 -1 1v6a1 1 0 0 0 2 0v-6a1 1 0 0 0 -1-1z"/><path d="m36.316 35.051a1 1 0 0 0 -1.264.633l-1.052 3.154-1.052-3.154a1 1 0 1 0 -1.9.632l2 6a1 1 0 0 0 1.9 0l2-6a1 1 0 0 0 -.632-1.265z"/><path d="m44 37a1 1 0 0 0 0-2h-4a1 1 0 0 0 -1 1v6a1 1 0 0 0 1 1h4a1 1 0 0 0 0-2h-3v-1h2a1 1 0 0 0 0-2h-2v-1z"/></g></svg>