<?xml version="1.0" encoding="iso-8859-1"?>
<!-- Generator: Adobe Illustrator 19.0.0, SVG Export Plug-In . SVG Version: 6.00 Build 0)  -->
<svg version="1.1" id="Layer_1" xmlns="http://www.w3.org/2000/svg" xmlns:xlink="http://www.w3.org/1999/xlink" x="0px" y="0px"
	 viewBox="0 0 512.001 512.001" style="enable-background:new 0 0 512.001 512.001;" xml:space="preserve">
<path style="fill:#C7CFE2;" d="M361.933,282.872c-18.241,0-33.029-14.788-33.029-33.029V147.219
	c0-40.199-32.704-72.902-72.902-72.902c-40.199,0-72.903,32.704-72.903,72.902v102.623c0,18.241-14.788,33.029-33.029,33.029
	s-33.029-14.788-33.029-33.029V147.219C117.039,70.596,179.377,8.257,256,8.257s138.961,62.338,138.961,138.961v102.623
	C394.962,268.083,380.174,282.872,361.933,282.872z"/>
<g style="opacity:0.1;">
	<path d="M150.069,282.872c18.241,0,33.029-14.788,33.029-33.029v-73.571h-66.059v73.571
		C117.039,268.083,131.826,282.872,150.069,282.872z"/>
	<path d="M328.903,176.272v73.57c0,18.241,14.788,33.029,33.029,33.029s33.029-14.788,33.029-33.029v-73.571L328.903,176.272
		L328.903,176.272z"/>
</g>
<path style="fill:#FFD782;" d="M399.28,209.301H112.72c-17.01,0-30.799,13.79-30.799,30.799v232.844
	c0,17.01,13.789,30.799,30.799,30.799h286.56c17.01,0,30.799-13.789,30.799-30.799V240.1
	C430.08,223.09,416.29,209.301,399.28,209.301z"/>
<path d="M403.219,201.242v-54.023C403.219,66.042,337.177,0,256,0S108.782,66.042,108.782,147.218v54.023
	c-19.693,1.981-35.118,18.652-35.118,38.858v20.724c0,4.56,3.697,8.257,8.257,8.257s8.257-3.697,8.257-8.257v-20.724
	c0-12.43,10.112-22.542,22.541-22.542h286.56c12.43,0,22.543,10.112,22.543,22.542v168.999c0,4.56,3.697,8.257,8.257,8.257
	c4.56,0,8.257-3.697,8.257-8.257V240.1C438.337,219.894,422.912,203.223,403.219,201.242z M320.646,201.043H191.355v-53.825
	c0-35.645,29-64.645,64.646-64.645s64.645,29,64.645,64.645L320.646,201.043L320.646,201.043z M337.161,201.043v-53.825
	c0-44.751-36.408-81.16-81.16-81.16s-81.161,36.408-81.161,81.16v53.825h-49.544v-53.825c0-72.07,58.634-130.703,130.703-130.703
	s130.703,58.634,130.703,130.703v53.825H337.161z"/>
<path d="M430.08,433.87c-4.56,0-8.257,3.697-8.257,8.257v30.817c0,12.43-10.112,22.541-22.543,22.541H112.72
	c-12.43,0-22.541-10.112-22.541-22.541V293.853c0-4.56-3.697-8.257-8.257-8.257s-8.257,3.697-8.257,8.257v179.092
	c0,21.536,17.521,39.056,39.056,39.056h286.56c21.536,0,39.057-17.521,39.057-39.056v-30.817
	C438.337,437.567,434.64,433.87,430.08,433.87z"/>
<g>
</g>
<g>
</g>
<g>
</g>
<g>
</g>
<g>
</g>
<g>
</g>
<g>
</g>
<g>
</g>
<g>
</g>
<g>
</g>
<g>
</g>
<g>
</g>
<g>
</g>
<g>
</g>
<g>
</g>
</svg>
