<svg width="290" height="290" viewBox="0 0 290 290" fill="none" xmlns="http://www.w3.org/2000/svg">
  <rect x="8.05556" y="8.05556" width="273.889" height="273.889" rx="136.944" fill="url(#paint0_linear_233_8)"/>
  <g opacity="0.99">
    <path d="M118.713 211.78C117.823 211.78 117.179 210.93 117.42 210.073L154.288 79.1174C154.451 78.5386 154.979 78.1387 155.581 78.1387H171.601C172.492 78.1387 173.136 78.9896 172.893 79.8465L135.878 210.802C135.714 211.381 135.187 211.78 134.586 211.78H118.713Z" fill="white"/>
    <path d="M92.7935 178.772C92.4343 178.772 92.0901 178.629 91.8378 178.373L59.6039 145.705C59.0872 145.182 59.0881 144.34 59.606 143.817L91.8381 111.296C92.0903 111.042 92.4336 110.898 92.7917 110.898H113.371C114.567 110.898 115.166 112.345 114.321 113.19L83.6981 143.813C83.1746 144.336 83.1736 145.185 83.696 145.71L114.333 176.483C115.176 177.329 114.576 178.772 113.381 178.772H92.7935Z" fill="white"/>
    <path d="M176.818 178.772C175.625 178.772 175.025 177.332 175.865 176.485L206.37 145.707C206.889 145.183 206.888 144.338 206.368 143.815L175.877 113.188C175.034 112.342 175.634 110.898 176.828 110.898H197.269C197.626 110.898 197.969 111.041 198.221 111.294L230.598 143.815C231.118 144.338 231.119 145.183 230.6 145.707L198.221 178.375C197.969 178.629 197.626 178.772 197.268 178.772H176.818Z" fill="white"/>
  </g>
  <rect x="8.05556" y="8.05556" width="273.889" height="273.889" rx="136.944" stroke="url(#paint1_linear_233_8)" stroke-width="16.1111"/>
  <defs>
    <linearGradient id="paint0_linear_233_8" x1="46.0509" y1="40.5463" x2="251.736" y2="246.231" gradientUnits="userSpaceOnUse">
      <stop stop-color="#171920"/>
      <stop offset="1" stop-color="#0C0C11"/>
    </linearGradient>
    <linearGradient id="paint1_linear_233_8" x1="39.4722" y1="45.2454" x2="246.5" y2="252.273" gradientUnits="userSpaceOnUse">
      <stop stop-color="#00E0EE"/>
      <stop offset="1" stop-color="#6809E1"/>
    </linearGradient>
  </defs>
</svg>
