<svg width="70" height="100" viewBox="0 0 70 100" fill="none" xmlns="http://www.w3.org/2000/svg">
<g clip-path="url(#clip0_1552_755)">
<path fill-rule="evenodd" clip-rule="evenodd" d="M36.7656 7.33203C18.3711 16.2305 -4.73829 62.3828 14.5195 82.6367C32.3164 104.883 71.2305 83.5 59.9414 55.7422C45.6641 31.8359 36.6992 30.5742 36.7656 7.33203Z" fill="url(#paint0_linear_1552_755)"/>
<path fill-rule="evenodd" clip-rule="evenodd" d="M36.7657 7.13281C18.4375 16.0312 -4.73823 62.0508 14.586 82.3711C21.6915 90.6055 33.1797 93.3281 39.6211 88.4141C57.1524 75.9297 44.5352 53.1523 46.5274 36.2852C39.2227 29.5117 36.6329 14.5039 36.7657 7.13281Z" fill="url(#paint1_linear_1552_755)"/>
<path fill-rule="evenodd" clip-rule="evenodd" d="M31.6523 9.85547C16.8437 20.4141 12.9257 59.6601 15.6484 72.4101C21.0937 104.352 65.5859 91.2031 61.8671 61.4531C57.8828 42.0625 29.4609 35.4219 31.6523 9.85547Z" fill="url(#paint2_linear_1552_755)"/>
<path fill-rule="evenodd" clip-rule="evenodd" d="M46.3281 40.0703C53.2344 48.9687 54.7617 55.0781 50.8438 58.5977C32.4492 71.4805 10.1367 63.5117 14.9844 33.8281C8.6758 48.8359 -3.0117 71.2812 22.7539 74.4687C36.5664 76.8594 58.6133 75.7969 61.8672 63.7773C61.7344 53.2188 54.6953 48.5703 46.3281 40.0703Z" fill="url(#paint3_linear_1552_755)"/>
<path fill-rule="evenodd" clip-rule="evenodd" d="M19.3008 31.1719C17.375 45.25 42.6094 82.9023 58.0156 78.3203C46.2617 101.961 20.2305 64.2422 15.5156 50.6289C16.5117 43.3242 16.9766 39.7383 19.3008 31.1719Z" fill="url(#paint4_linear_1552_755)"/>
<path fill-rule="evenodd" clip-rule="evenodd" d="M34.1093 40.0039C34.6406 45.25 36.6992 53.6172 34.1093 59.1289C31.5195 64.6406 19.6992 74.7344 22.9531 83.5664C30.5234 100.035 47.5898 80.6445 47.457 70.9492C48.1875 63.1133 43.0742 45.25 46.2617 36.0859L44.8007 34.2266L35.7695 31.5703C34.3085 33.6953 33.7773 36.5508 34.1093 40.0039Z" fill="url(#paint5_linear_1552_755)"/>
<path fill-rule="evenodd" clip-rule="evenodd" d="M37.3633 14.1719C17.9063 25.1953 25.8751 42.4609 26.7383 61.1875L39.4219 24.3984C38.4922 20.6133 37.8946 18.0898 37.3633 14.1719Z" fill="url(#paint6_linear_1552_755)"/>
<path fill-rule="evenodd" clip-rule="evenodd" d="M39.3555 24.332C29.5273 32.1016 29.9922 45.1172 27.0039 60.1914C32.3828 46.0469 29.7266 34.8242 39.3555 24.332Z" fill="#330A4C" fill-opacity="0.316"/>
<path fill-rule="evenodd" clip-rule="evenodd" d="M24.4141 86.4883C29.7266 87.2188 32.4492 87.9492 32.7148 88.4805C32.9141 91.2695 25.3437 89.2773 24.4141 86.4883Z" fill="white"/>
<path fill-rule="evenodd" clip-rule="evenodd" d="M27.0703 14.1719C22.4882 19.2852 17.5078 28.6484 14.9843 33.8945C14.3203 38.2109 14.6523 44.3203 15.3828 49.5C15.9804 37.4141 20.3632 23.4688 27.0703 14.1719Z" fill="#EDEDED" fill-opacity="0.603"/>
</g>
<defs>
<linearGradient id="paint0_linear_1552_755" x1="35.4018" y1="13.5668" x2="32.459" y2="91.8568" gradientUnits="userSpaceOnUse">
<stop stop-color="#D9D8DC"/>
<stop offset="1" stop-color="white" stop-opacity="0.385"/>
</linearGradient>
<linearGradient id="paint1_linear_1552_755" x1="34.2184" y1="12.3194" x2="3.4735" y2="79.7029" gradientUnits="userSpaceOnUse">
<stop stop-color="#8D67AF" stop-opacity="0.672"/>
<stop offset="1" stop-color="#9F8DAF"/>
</linearGradient>
<linearGradient id="paint2_linear_1552_755" x1="38.4663" y1="35.3518" x2="38.4663" y2="89.4722" gradientUnits="userSpaceOnUse">
<stop stop-color="#26053D" stop-opacity="0.762"/>
<stop offset="1" stop-color="#B7B4B4" stop-opacity="0.278"/>
</linearGradient>
<linearGradient id="paint3_linear_1552_755" x1="18.3755" y1="36.8829" x2="32.2359" y2="73.5963" gradientUnits="userSpaceOnUse">
<stop stop-color="#91739F" stop-opacity="0.46"/>
<stop offset="1" stop-color="#32054F" stop-opacity="0.54"/>
</linearGradient>
<linearGradient id="paint4_linear_1552_755" x1="49.4555" y1="84.0726" x2="11.4665" y2="52.6081" gradientUnits="userSpaceOnUse">
<stop stop-color="#463D49" stop-opacity="0.331"/>
<stop offset="1" stop-color="#340A50" stop-opacity="0.821"/>
</linearGradient>
<linearGradient id="paint5_linear_1552_755" x1="39.9853" y1="34.7941" x2="13.2802" y2="75.4276" gradientUnits="userSpaceOnUse">
<stop stop-color="#715383" stop-opacity="0.145"/>
<stop offset="1" stop-color="#F4F4F4" stop-opacity="0.234"/>
</linearGradient>
<linearGradient id="paint6_linear_1552_755" x1="44.2877" y1="44.7778" x2="25.7236" y2="43.6447" gradientUnits="userSpaceOnUse">
<stop stop-color="#A5A1A8" stop-opacity="0.356"/>
<stop offset="1" stop-color="#370C50" stop-opacity="0.582"/>
</linearGradient>
<clipPath id="clip0_1552_755">
<rect width="57" height="85" fill="white" transform="translate(6 7)"/>
</clipPath>
</defs>
</svg>
