<svg width="98" height="100" viewBox="0 0 98 100" fill="none" xmlns="http://www.w3.org/2000/svg">
<path d="M40.4009 15.9979C41.4817 12.9184 45.4997 12.2061 47.5629 14.7281L58.3765 27.9472C59.7145 29.5829 61.6947 30.5521 63.801 30.6037L80.8337 31.0204C84.0857 31.0999 85.9954 34.7152 84.2457 37.4636L75.0652 51.8823C74.5038 52.7637 74.1379 53.7565 73.9928 54.793C73.8473 55.8291 73.9262 56.885 74.2237 57.8878L79.0852 74.286C80.0118 77.4103 77.182 80.3608 74.0324 79.5379L57.5446 75.2304C56.5368 74.967 55.4844 74.9248 54.4589 75.1066C53.4338 75.2881 52.4591 75.6897 51.6018 76.284L37.5739 86.0019C34.894 87.8579 31.2313 86.0588 31.0388 82.8041L30.0297 65.723C29.9048 63.609 28.8703 61.6551 27.1962 60.3694L13.6643 49.9772C11.0851 47.9965 11.6501 43.9422 14.6787 42.7492L30.5427 36.5001C32.5044 35.7274 34.0353 34.1356 34.7362 32.1385L40.4009 15.9979Z" fill="#FFAFF3"/>
<path d="M43.3595 11.7888C41.4378 12.1295 39.6812 13.4124 38.9539 15.4844L33.2884 31.6247C32.736 33.1983 31.5312 34.4512 29.9846 35.0605L14.12 41.3099C10.0491 42.9136 9.26183 48.5435 12.7323 51.2087L26.2642 61.5998C26.9158 62.0997 27.4524 62.735 27.8374 63.4627C28.2225 64.1901 28.4469 64.9925 28.4953 65.8151L29.5039 82.8958C29.7626 87.2779 34.8461 89.7707 38.4486 87.2759L38.4487 87.2756L52.4777 77.5577V77.5573C53.153 77.0891 53.921 76.7726 54.7287 76.6295C55.5368 76.4863 56.3661 76.5196 57.1599 76.7274L73.6481 81.034C77.8817 82.1402 81.8108 78.049 80.5633 73.8418V73.8422L75.7022 57.4444C75.4678 56.6547 75.4059 55.8237 75.5201 55.0073C75.6344 54.1913 75.9226 53.4098 76.3652 52.7161V52.7157L85.5464 38.2966L85.5461 38.2965C87.901 34.5986 85.2467 29.579 80.8758 29.4721L63.8423 29.0561C62.1819 29.0155 60.6235 28.2526 59.5695 26.964L48.7559 13.7453C47.3679 12.0486 45.2808 11.4472 43.359 11.788M43.8763 14.738C44.7496 14.5832 45.7033 14.8865 46.3784 15.7117L57.1918 28.93C58.8134 30.9125 61.2157 32.0879 63.7673 32.1503L80.8007 32.5664C82.9337 32.6184 84.0988 34.8293 82.9533 36.6279L73.7724 51.047C72.3952 53.2086 72.0227 55.8689 72.7515 58.3285L77.6131 74.7259C78.2183 76.768 76.4875 78.5775 74.4219 78.0382L57.9337 73.7312C55.4629 73.0854 52.8325 73.552 50.7303 75.0087L36.7015 84.7266C34.9438 85.9442 32.7019 84.8388 32.5761 82.712L31.5677 65.6313C31.4164 63.0689 30.1611 60.6979 28.1321 59.1394L14.6002 48.7484C12.9124 47.4523 13.2556 44.9741 15.242 44.1913L31.1066 37.9418C33.4835 37.0054 35.3409 35.0747 36.1906 32.6539V32.6538L41.8562 16.5135C42.2099 15.506 43.0028 14.8929 43.8761 14.7381" fill="#151515"/>
<path d="M38.4233 55.2649C40.0678 54.9732 41.1659 53.3966 40.8759 51.7433C40.586 50.0897 39.0179 48.986 37.3735 49.2775C35.729 49.5692 34.6309 51.1459 34.9208 52.7992C35.2107 54.4524 36.7788 55.5567 38.4233 55.2649Z" fill="#151515"/>
<path d="M62.7837 50.9459C64.4279 50.6546 65.5261 49.0777 65.236 47.4244C64.9463 45.771 63.3782 44.6671 61.7336 44.9587C60.0893 45.2503 58.9911 46.827 59.2809 48.4803C59.571 50.1338 61.1391 51.2377 62.7837 50.9459Z" fill="#151515"/>
<path d="M48.0994 54.5875C47.9109 54.6606 47.7385 54.7705 47.5919 54.9105C47.4457 55.0506 47.3279 55.2185 47.2463 55.4042C47.1644 55.5903 47.1197 55.7904 47.1147 55.9935C47.1097 56.1966 47.1447 56.399 47.2175 56.5885C47.4076 57.0826 47.6923 57.5345 48.0559 57.9183C48.4196 58.3021 48.8548 58.6097 49.3369 58.8241L49.3373 58.8245C49.8187 59.0388 50.3374 59.1557 50.8642 59.1684H50.8646H50.8654C51.3918 59.1808 51.9155 59.0891 52.4069 58.8984H52.4072C52.8986 58.7076 53.3481 58.4213 53.7294 58.0557H53.7298V58.0553C54.1111 57.6901 54.417 57.2525 54.6302 56.7685C54.8442 56.2837 54.9604 55.761 54.9727 55.2309C54.9823 54.8208 54.8295 54.4234 54.5479 54.1263C54.2658 53.8295 53.8783 53.6574 53.4701 53.6477C53.268 53.6427 53.0672 53.6782 52.8786 53.7514C52.6901 53.8249 52.5177 53.9348 52.3715 54.0752C52.2252 54.2153 52.1079 54.3832 52.0263 54.5693C51.9447 54.755 51.9001 54.9554 51.8955 55.1585C51.8924 55.2812 51.8654 55.4023 51.8158 55.5145V55.5149L51.8154 55.5157C51.7658 55.6283 51.6946 55.73 51.6061 55.8151C51.5172 55.9002 51.4129 55.9668 51.2986 56.0109L51.2979 56.0113C51.1832 56.0558 51.0612 56.0771 50.9385 56.0744C50.8161 56.0713 50.6953 56.0438 50.5833 55.9939H50.5825L50.5821 55.9935C50.4702 55.9436 50.3693 55.8724 50.2847 55.7834V55.783C50.2 55.6936 50.1339 55.5888 50.0896 55.4735C50.0169 55.2839 49.9076 55.1106 49.7683 54.9635C49.6286 54.8165 49.462 54.6981 49.2769 54.6161C49.0922 54.5337 48.8929 54.4888 48.6909 54.4838C48.4888 54.4788 48.288 54.514 48.0994 54.5875Z" fill="#151515"/>
</svg>
