<svg width="98" height="100" viewBox="0 0 98 100" fill="none" xmlns="http://www.w3.org/2000/svg">
<path fill-rule="evenodd" clip-rule="evenodd" d="M46.615 13.6446C44.4849 11.0582 40.3361 11.7898 39.2194 14.9487L33.3666 31.5053C32.6425 33.554 31.0614 35.1869 29.0356 35.98L12.654 42.3932C9.52648 43.6176 8.94222 47.7762 11.6049 49.8072L25.5749 60.4633C27.3033 61.7817 28.371 63.7859 28.4994 65.9541L29.5376 83.4741C29.7356 86.8123 33.5171 88.6567 36.2847 86.7524L50.7713 76.7816C51.6567 76.172 52.663 75.7599 53.7219 75.5732C54.7807 75.3865 55.8673 75.4296 56.9077 75.6996L73.9314 80.1142C77.1832 80.9576 80.1059 77.9307 79.1499 74.7261L74.1335 57.9076C73.8268 56.8789 73.7457 55.7961 73.8959 54.7331C74.0461 53.6701 74.4239 52.6518 75.0038 51.7477L84.4864 36.9562C86.2938 34.1368 84.3227 30.429 80.9649 30.3482L63.3777 29.9246C61.2031 29.8721 59.1586 28.8785 57.7775 27.201L46.615 13.6446ZM37.1653 55.2252C38.8632 54.9258 39.9973 53.3084 39.6983 51.6125C39.3993 49.9167 37.7804 48.7847 36.0824 49.0841C34.3844 49.3835 33.2503 51.0009 33.5493 52.6968C33.8484 54.3926 35.4673 55.5246 37.1653 55.2252ZM62.3193 50.7899C64.0173 50.4905 65.1514 48.873 64.8523 47.1772C64.5533 45.4814 62.9344 44.3493 61.2364 44.6487C59.5384 44.9481 58.4043 46.5656 58.7034 48.2614C59.0024 49.9573 60.6213 51.0893 62.3193 50.7899ZM46.6322 54.8593C46.7833 54.7155 46.9614 54.6028 47.1561 54.5277C47.3508 54.4526 47.5584 54.4165 47.7671 54.4215C47.9757 54.4265 48.1813 54.4725 48.3722 54.5569C48.563 54.6413 48.7353 54.7624 48.8792 54.9133C49.0231 55.0642 49.1359 55.242 49.211 55.4364C49.2566 55.5544 49.3252 55.6625 49.4126 55.7541C49.4997 55.8454 49.604 55.9187 49.7195 55.9697L49.7206 55.9702C49.8363 56.0214 49.961 56.0493 50.0875 56.0524C50.2142 56.0553 50.3409 56.033 50.4591 55.9874C50.5772 55.9419 50.6851 55.8737 50.7767 55.7865C50.8683 55.6993 50.9418 55.5949 50.9929 55.4794L50.9936 55.478C51.0447 55.3628 51.0725 55.2388 51.0755 55.1129C51.0805 54.9045 51.1264 54.6991 51.2109 54.5084C51.2953 54.3177 51.4164 54.1455 51.5675 54.0016C51.7185 53.8576 51.8964 53.7448 52.0911 53.6695C52.2857 53.5942 52.4933 53.558 52.702 53.5628C53.1233 53.5726 53.5235 53.7492 53.8144 54.0537C54.1053 54.3582 54.2631 54.7658 54.2532 55.1866C54.2403 55.7304 54.12 56.2663 53.8992 56.7637C53.679 57.2605 53.3626 57.7095 52.9689 58.0845C52.5748 58.4593 52.1107 58.7531 51.6031 58.949C51.0958 59.1447 50.5549 59.239 50.0113 59.2263L50.01 59.2263C49.4664 59.2132 48.9304 59.0932 48.4332 58.8734C47.9355 58.6537 47.486 58.3379 47.1107 57.9445C46.7354 57.551 46.4414 57.0876 46.2454 56.5806C46.1703 56.3861 46.1342 56.1788 46.1393 55.9703C46.1444 55.7619 46.1906 55.5566 46.2752 55.3659C46.3597 55.1753 46.481 55.0032 46.6322 54.8593Z" fill="#A0AEC0"/>
</svg>
