<svg width="70" height="100" viewBox="0 0 70 100" fill="none" xmlns="http://www.w3.org/2000/svg">
<path d="M24.0885 69.8684C24.0885 69.8684 21.0175 71.6462 26.274 72.2478C32.6422 72.971 35.8969 72.8673 42.9147 71.5451C42.9147 71.5451 44.7597 72.6968 47.3364 73.6943C31.6045 80.4063 11.7319 73.3055 24.0885 69.8684Z" fill="#5382A1"/>
<path d="M22.1661 61.1097C22.1661 61.1097 18.7217 63.6479 23.9821 64.1895C30.7848 64.8881 36.157 64.9453 45.4531 63.1634C45.4531 63.1634 46.7388 64.461 48.7606 65.1706C29.7397 70.7074 8.55382 65.6073 22.1661 61.1097Z" fill="#5382A1"/>
<path d="M59.179 76.3469C59.179 76.3469 61.4517 78.211 56.6762 79.6531C47.5955 82.3916 18.8813 83.2185 10.9046 79.7622C8.03718 78.5204 13.4144 76.7971 15.1059 76.4355C16.8699 76.0547 17.878 76.1257 17.878 76.1257C14.6891 73.8894 -2.73349 80.5167 9.02814 82.4146C41.1038 87.5929 67.499 80.0828 59.179 76.3469Z" fill="#5382A1"/>
<path d="M25.5653 52.0346C25.5653 52.0346 10.9594 55.4881 20.3929 56.7422C24.3761 57.273 32.3164 57.1529 39.7126 56.536C45.7571 56.0284 51.8266 54.9492 51.8266 54.9492C51.8266 54.9492 49.6952 55.8579 48.1532 56.906C33.3212 60.7892 4.66854 58.9827 12.9173 55.0107C19.8932 51.6538 25.5653 52.0346 25.5653 52.0346Z" fill="#5382A1"/>
<path d="M51.7664 66.6139C66.8438 58.8145 59.8726 51.3194 55.0068 52.3292C53.8142 52.5763 53.2824 52.7904 53.2824 52.7904C53.2824 52.7904 53.7252 52.0999 54.5708 51.8011C64.1969 48.4321 71.6 61.7373 51.4634 67.007C51.4634 67.0072 51.6967 66.7996 51.7664 66.6139Z" fill="#5382A1"/>
<path d="M27.0468 87.7485C41.5192 88.6707 63.7433 87.2368 64.2696 80.4198C64.2696 80.4198 63.2579 83.0041 52.309 85.0564C39.9564 87.3705 24.7213 87.1003 15.6852 85.6172C15.6855 85.617 17.535 87.1413 27.0468 87.7485Z" fill="#5382A1"/>
<path d="M38.3722 46.252C42.2486 50.6948 37.3537 54.6927 37.3537 54.6927C37.3537 54.6927 47.1965 49.6346 42.6762 43.3006C38.4543 37.3937 35.2167 34.4588 52.7437 24.3397C52.7437 24.3397 25.2321 31.1798 38.3722 46.252Z" fill="#F8981D"/>
<path d="M42.6761 8C42.6761 8 51.0262 16.3152 34.7564 29.1016C21.7097 39.3584 31.7813 45.2066 34.751 51.8885C27.1354 45.0484 21.5466 39.027 25.296 33.4229C30.7993 25.1966 46.0452 21.2082 42.6761 8Z" fill="#F8981D"/>
</svg>
