<svg width="98" height="100" viewBox="0 0 98 100" fill="none" xmlns="http://www.w3.org/2000/svg">
<path fill-rule="evenodd" clip-rule="evenodd" d="M87 19.6C87 15.4054 83.5946 12 79.4001 12H18.6C14.4055 12 11 15.4054 11 19.6V80.3997C11 84.5945 14.4055 87.9999 18.6 87.9999H79.4001C83.5946 87.9999 87 84.5945 87 80.3997V19.6Z" fill="url(#paint0_radial_1661_46)"/>
<path fill-rule="evenodd" clip-rule="evenodd" d="M32.1548 73.8246C31.0341 73.0551 30.1482 72.31 30.1482 72.31L58.971 22.3873C58.971 22.3873 60.1575 22.8274 61.1375 23.2972C62.3728 23.8893 63.396 24.4665 63.396 24.4665C77.367 32.5329 82.1615 50.4247 74.0952 64.3958C66.0287 78.3676 48.137 83.1614 34.1657 75.0951C34.1657 75.0951 33.1871 74.5325 32.1548 73.8246ZM60.9601 28.6856L36.6015 70.8759C48.2443 77.5981 63.154 73.6028 69.876 61.9603C76.5976 50.3172 72.603 35.4076 60.9601 28.6856ZM24.7946 66.4952C23.8151 65.0767 23.4664 64.3965 23.4664 64.3965C18.4309 55.6499 18.0615 44.5274 23.4666 35.1656C28.8716 25.8037 38.6883 20.5625 48.781 20.5501C48.781 20.5501 50.1436 20.5465 51.2782 20.6552C52.9874 20.819 54.1238 21.0395 54.1238 21.0395L26.5601 68.7813C26.5601 68.7813 25.9062 68.1044 24.7946 66.4952ZM45.8652 25.6004C38.5198 26.4931 31.6667 30.706 27.6856 37.6017C23.7045 44.497 23.4826 52.5383 26.3822 59.3464L45.8652 25.6004Z" fill="white"/>
<defs>
<radialGradient id="paint0_radial_1661_46" cx="0" cy="0" r="1" gradientUnits="userSpaceOnUse" gradientTransform="translate(11 12) scale(76 75.9996)">
<stop stop-color="#189CFF"/>
<stop offset="0.58" stop-color="#138EEB"/>
<stop offset="0.8" stop-color="#0971BF"/>
<stop offset="1" stop-color="#005493"/>
</radialGradient>
</defs>
</svg>
