<svg width="98" height="100" viewBox="0 0 98 100" fill="none" xmlns="http://www.w3.org/2000/svg">
<path d="M79.4004 12C83.5946 12.0001 86.9998 15.4053 87 19.5996V80.3994C87 84.5941 83.5947 87.9999 79.4004 88H18.5996C14.4052 87.9998 11 84.5941 11 80.3994V19.5996C11.0002 15.4054 14.4054 12.0002 18.5996 12H79.4004ZM30.1484 72.3096C30.1484 72.3096 31.0338 73.0549 32.1543 73.8242C33.1866 74.5321 34.166 75.0947 34.166 75.0947C48.1373 83.1609 66.0282 78.3672 74.0947 64.3955C82.161 50.4244 77.3666 32.5332 63.3955 24.4668C63.3805 24.4583 62.3638 23.8846 61.1377 23.2969C60.1577 22.827 58.9707 22.3877 58.9707 22.3877L30.1484 72.3096ZM60.96 28.6855C72.6028 35.4075 76.5974 50.3169 69.876 61.96C63.154 73.6024 48.2443 77.5981 36.6016 70.876L60.96 28.6855ZM48.7812 20.5498C38.6886 20.5622 28.8718 25.8042 23.4668 35.166C18.0619 44.5278 18.4313 55.65 23.4668 64.3965C23.4742 64.4109 23.8259 65.0917 24.7949 66.4951C25.9065 68.1042 26.5605 68.7812 26.5605 68.7812L54.124 21.0391C54.124 21.0391 52.9875 20.819 51.2783 20.6553C50.154 20.5476 48.8054 20.5498 48.7812 20.5498ZM26.3818 59.3467C23.4823 52.5386 23.7044 44.4968 27.6855 37.6016C31.6667 30.7059 38.5198 26.4933 45.8652 25.6006L26.3818 59.3467Z" fill="white"/>
</svg>
