<svg width="98" height="100" viewBox="0 0 98 100" fill="none" xmlns="http://www.w3.org/2000/svg">
<path d="M48.7815 3.00077C44.9605 3.01852 41.3115 3.3444 38.1007 3.91254C28.6423 5.58354 26.925 9.08109 26.925 15.5312V24.0497H49.2765V26.8893H26.925H18.5367C12.0407 26.8893 6.35264 30.7937 4.57349 38.2213C2.52126 46.7351 2.43024 52.0478 4.57349 60.9375C6.16232 67.5547 9.95665 72.2696 16.4526 72.2696H24.1376V62.0577C24.1376 54.6802 30.5207 48.1727 38.1007 48.1727H60.4262C66.6408 48.1727 71.602 43.0558 71.602 36.8146V15.5312C71.602 9.47377 66.4919 4.92349 60.4262 3.91254C56.5865 3.27338 52.6026 2.98301 48.7815 3.00077ZM36.694 9.8521C39.0028 9.8521 40.8882 11.7683 40.8882 14.1244C40.8882 16.4722 39.0028 18.3707 36.694 18.3707C34.377 18.3707 32.4998 16.4722 32.4998 14.1244C32.4998 11.7683 34.377 9.8521 36.694 9.8521Z" fill="url(#paint0_linear_1552_667)"/>
<path d="M74.3894 26.8893V36.8146C74.3894 44.5096 67.8656 50.9862 60.4262 50.9862H38.1008C31.9855 50.9862 26.925 56.2201 26.925 62.3443V83.6277C26.925 89.6851 32.1923 93.248 38.1008 94.9858C45.176 97.0662 51.9608 97.4422 60.4262 94.9858C66.0533 93.3566 71.602 90.0778 71.602 83.6277V75.1091H49.2765V72.2696H71.602H82.7777C89.2737 72.2696 91.6944 67.7385 93.9535 60.9375C96.2871 53.936 96.1878 47.203 93.9535 38.2213C92.3481 31.7546 89.282 26.8893 82.7777 26.8893H74.3894ZM61.833 80.7882C64.15 80.7882 66.0271 82.6867 66.0271 85.0345C66.0271 87.3906 64.15 89.3068 61.833 89.3068C59.5242 89.3068 57.6388 87.3906 57.6388 85.0345C57.6388 82.6867 59.5242 80.7882 61.833 80.7882Z" fill="url(#paint1_linear_1552_667)"/>
<defs>
<linearGradient id="paint0_linear_1552_667" x1="3" y1="3" x2="54.5401" y2="46.9193" gradientUnits="userSpaceOnUse">
<stop stop-color="#5A9FD4"/>
<stop offset="1" stop-color="#306998"/>
</linearGradient>
<linearGradient id="paint1_linear_1552_667" x1="61.2958" y1="84.3183" x2="42.8052" y2="58.4074" gradientUnits="userSpaceOnUse">
<stop stop-color="#FFD43B"/>
<stop offset="1" stop-color="#FFE873"/>
</linearGradient>
</defs>
</svg>
