<svg width="100" height="100" viewBox="0 0 100 100" fill="none" xmlns="http://www.w3.org/2000/svg">
<path fill-rule="evenodd" clip-rule="evenodd" d="M81.1861 31.9999C80.6837 31.1301 79.9908 30.3705 79.2288 29.9306L52.7713 14.6599C51.2472 13.78 48.7529 13.78 47.2288 14.6599L20.7712 29.9306C19.247 30.8102 18 32.9697 18 34.7292V65.2708C18 66.1506 18.3118 67.1304 18.8142 68C19.3164 68.8697 20.0094 69.6297 20.7713 70.0694L47.2289 85.3401C48.7529 86.22 51.2473 86.22 52.7714 85.3401L79.2289 70.0694C79.991 69.6295 80.6838 68.8699 81.1859 68C81.6881 67.1304 82 66.1505 82 65.2707V34.7291C82 33.8492 81.6885 32.8696 81.1861 31.9999ZM40.7643 55.3309L31.5285 60.6616C35.2223 67.0326 42.1189 71.3271 50 71.3271C57.5909 71.3271 64.6702 67.2434 68.4751 60.6693L59.2425 55.3286C57.338 58.6194 53.7964 60.6635 50 60.6635C46.0594 60.6635 42.6112 58.5163 40.7643 55.3309ZM40.7643 55.3309L59.2398 44.667L59.2419 44.6706L62.8845 42.5634L59.2398 44.667L68.4744 39.3296C64.6696 32.7562 57.5904 28.6727 50 28.6727C38.2367 28.6727 28.6666 38.24 28.6666 49.9999C28.6666 53.881 29.7089 57.5232 31.5285 60.6616L40.7643 55.3309ZM40.7643 55.3309L59.2398 44.667C57.335 41.3789 53.7946 39.3363 50 39.3363C44.1182 39.3363 39.3333 44.1199 39.3333 49.9999C39.3333 51.9405 39.8545 53.7617 40.7643 55.3309ZM71.3334 48.815H68.9629V46.4454H66.5928V48.815H64.2223V51.1846H66.5928V53.5545H68.9629V51.1846H71.3334V48.815ZM77.8518 48.815H80.2223V51.1846H77.8518V53.5545H75.4817V51.1846H73.1112V48.815H75.4817V46.4454H77.8518V48.815Z" fill="#38B2AC"/>
</svg>
