<svg width="101" height="100" viewBox="0 0 101 100" fill="none" xmlns="http://www.w3.org/2000/svg">
<path d="M28.1365 72.0835L15.4391 59.3861C13.9331 57.8419 13 55.6593 13 53.5258C13 52.5382 13.5566 50.994 13.9767 50.11L25.6974 25.6974L28.1365 72.0835Z" fill="#01579B"/>
<path d="M71.5979 28.1365L58.9005 15.4391C57.7929 14.3259 55.4847 13 53.5313 13C51.8507 13 50.2028 13.3383 49.1388 13.9767L25.7029 25.6974L71.5979 28.1365Z" fill="#40C4FF"/>
<path d="M43.2729 87.2199H74.0369V74.0369L51.0867 66.7087L30.0898 74.0369L43.2729 87.2199Z" fill="#40C4FF"/>
<path d="M25.6974 65.2465C25.6974 69.1643 26.1885 70.1246 28.1365 72.0835L30.0899 74.037H74.037L52.5545 49.6244L25.6974 25.6974V65.2465Z" fill="#29B6F6"/>
<path d="M64.7608 25.6919H25.6974L74.037 74.0315H87.22V43.7585L71.5924 28.131C69.3989 25.932 67.4509 25.6919 64.7608 25.6919Z" fill="#01579B"/>
<path opacity="0.2" d="M28.6275 72.5692C26.6741 70.6103 26.1885 68.6786 26.1885 65.2465V26.183L25.7028 25.6974V65.2465C25.6974 68.6786 25.6974 69.6281 28.6275 72.5692Z" fill="white"/>
<path opacity="0.2" d="M86.7343 43.2729V73.5459H73.5513L74.0369 74.037H87.2199V43.7586L86.7343 43.2729Z" fill="#263238"/>
<path opacity="0.2" d="M71.5979 28.1365C69.1752 25.7138 67.1945 25.6974 64.2752 25.6974H25.7029L26.1885 26.183H64.2752C65.7321 26.183 69.4099 25.9375 71.5979 28.1365Z" fill="white"/>
<path opacity="0.2" d="M86.7344 43.2729L71.5979 28.1365L58.9005 15.4391C57.7929 14.3259 55.4847 13 53.5313 13C51.8507 13 50.2028 13.3383 49.1388 13.9767L25.7029 25.6974L13.9822 50.11C13.5621 50.9994 13.0055 52.5436 13.0055 53.5258C13.0055 55.6593 13.944 57.8365 15.4446 59.3861L27.1434 71.0031C27.4217 71.3469 27.7491 71.6961 28.1365 72.0835L28.6221 72.5692L30.0845 74.0315L42.7819 86.7289L43.2675 87.2145H73.5405H74.0261V74.0315H87.2091V73.9988V43.7586L86.7344 43.2729Z" fill="url(#paint0_radial_1552_809)"/>
<defs>
<radialGradient id="paint0_radial_1552_809" cx="0" cy="0" r="1" gradientUnits="userSpaceOnUse" gradientTransform="translate(50.1073 50.1085) scale(37.1045 37.1045)">
<stop stop-color="white" stop-opacity="0.1"/>
<stop offset="1" stop-color="white" stop-opacity="0"/>
</radialGradient>
</defs>
</svg>
