<svg width="91" height="100" viewBox="0 0 91 100" fill="none" xmlns="http://www.w3.org/2000/svg">
<path fill-rule="evenodd" clip-rule="evenodd" d="M19.5166 36.2904C20.2501 37.3014 26.4352 39.2085 35.6614 41.1949C44.8875 42.9632 54.4824 49.9453 61.9442 47.7924C66.9914 46.3333 72.4669 33.3326 72.4669 31.4018V31.2035C72.4669 29.8555 71.4558 28.7731 69.7391 27.8731C62.7015 24.277 61.3693 22.9527 58.7604 23.6704C45.2166 27.4092 21.3047 25.4981 19.5166 36.2904Z" fill="#7F0C1D"/>
<path fill-rule="evenodd" clip-rule="evenodd" d="M19.5166 62.6882C20.2501 63.715 26.4352 65.6063 35.6614 67.5966C45.9699 69.4759 54.9344 75.6016 62.4002 73.4447C67.4474 71.9857 72.4669 59.7344 72.4669 57.7995V57.6092C72.4669 56.2651 71.4558 55.1788 69.7391 54.2827C64.3707 51.4281 57.2776 48.2839 54.6727 49.0016C41.1051 52.7325 22.97 53.5532 19.5166 62.6882Z" fill="#7F0C1D"/>
<path fill-rule="evenodd" clip-rule="evenodd" d="M62.3804 10.1027C49.907 13.7068 30.1186 15.7407 19.4572 15.7407V36.1001C19.4605 36.1701 19.487 36.237 19.5325 36.2904C26.8079 36.2904 49.2687 33.9115 62.8205 30.1846C65.1839 29.583 67.5013 28.8132 69.7549 27.881C71.4122 27.1356 72.4827 26.3506 72.4827 25.5338V5C72.4669 6.93484 67.4276 8.64764 62.3804 10.1027Z" fill="#DC3330"/>
<path fill-rule="evenodd" clip-rule="evenodd" d="M62.3804 36.5045C54.9146 38.6574 44.84 40.2592 35.6614 41.1949C29.5001 41.8253 23.7431 42.1543 19.4572 42.1543V62.4979C19.4605 62.5679 19.487 62.6348 19.5325 62.6882C26.8079 62.6882 49.2687 60.3093 62.8205 56.5863C65.1834 55.983 67.5007 55.2132 69.7549 54.2827C71.4122 53.5334 72.4827 52.7523 72.4827 51.9356V31.4017C72.4669 33.3326 67.4276 35.0454 62.3804 36.5045Z" fill="#DC3330"/>
<path fill-rule="evenodd" clip-rule="evenodd" d="M62.3803 62.9221C54.9146 65.075 44.84 66.6728 35.6614 67.6125C29.4921 68.2429 23.7273 68.572 19.4413 68.572V89.09C26.6414 89.09 49.2171 86.7309 62.8046 82.9881C67.8122 81.6083 72.4669 80.0383 72.4669 78.3334V57.7996C72.4669 59.7503 67.4276 61.4472 62.3803 62.9221Z" fill="#DC3330"/>
</svg>
