<svg width="100" height="100" viewBox="0 0 100 100" fill="none" xmlns="http://www.w3.org/2000/svg">
<path fill-rule="evenodd" clip-rule="evenodd" d="M20.4375 18H80.5625C81.9087 18 83 19.0745 83 20.4V79.6C83 80.9255 81.9087 82 80.5625 82H20.4375C19.0913 82 18 80.9255 18 79.6V20.4C18 19.0745 19.0913 18 20.4375 18ZM54.1331 52.049V46.8H31V52.049H39.2589V75.4203H45.8337V52.049H54.1331ZM56.7543 74.8032C57.8145 75.3354 59.0685 75.7346 60.516 76.0007C61.9638 76.2668 63.4895 76.4 65.0935 76.4C66.6567 76.4 68.1416 76.2535 69.5486 75.9609C70.9554 75.6682 72.1889 75.1857 73.2491 74.5137C74.3093 73.8417 75.1487 72.9637 75.7672 71.8791C76.3857 70.7946 76.6949 69.454 76.6949 67.8572C76.6949 66.6996 76.5182 65.6852 76.1647 64.8135C75.8115 63.9419 75.3017 63.1668 74.6356 62.4881C73.9696 61.8095 73.171 61.2007 72.2398 60.6619C71.3086 60.1231 70.2588 59.614 69.0898 59.135C68.2333 58.7889 67.4653 58.4529 66.7858 58.127C66.106 57.8011 65.5283 57.4683 65.0527 57.1291C64.5769 56.7897 64.2101 56.4305 63.9517 56.0512C63.6934 55.6721 63.5644 55.2428 63.5644 54.7638C63.5644 54.3247 63.6798 53.9289 63.911 53.5764C64.1421 53.2236 64.4681 52.9209 64.8896 52.6681C65.311 52.4153 65.8274 52.2191 66.4392 52.0793C67.0508 51.9397 67.7305 51.8698 68.478 51.8698C69.0219 51.8698 69.5961 51.9097 70.201 51.9894C70.8058 52.0694 71.4142 52.1925 72.0257 52.3586C72.6375 52.525 73.2323 52.7345 73.8099 52.9876C74.3876 53.2404 74.9211 53.533 75.4105 53.8656V47.8978C74.418 47.5252 73.3341 47.249 72.1582 47.0695C70.9826 46.8898 69.6334 46.8 68.111 46.8C66.5616 46.8 65.0935 46.963 63.707 47.2891C62.3205 47.615 61.1006 48.1241 60.0471 48.816C58.9936 49.5079 58.1611 50.3894 57.5495 51.4604C56.9377 52.5317 56.6319 53.8124 56.6319 55.3026C56.6319 57.2057 57.1926 58.829 58.3141 60.1728C59.4356 61.5168 61.138 62.6545 63.4215 63.586C64.3188 63.9454 65.1546 64.2978 65.9295 64.6439C66.7042 64.9898 67.3736 65.3492 67.9377 65.7216C68.5018 66.0943 68.947 66.4999 69.2733 66.9391C69.5995 67.3782 69.7627 67.8772 69.7627 68.4362C69.7627 68.8487 69.6606 69.2313 69.4567 69.5838C69.2527 69.9365 68.9435 70.2425 68.529 70.5019C68.1144 70.7614 67.5981 70.9644 66.9796 71.1107C66.3611 71.2571 65.6371 71.3302 64.808 71.3302C63.3943 71.3302 61.9942 71.0875 60.6077 70.6018C59.2215 70.1162 57.9369 69.3876 56.7543 68.4162V74.8032Z" fill="#A0AEC0"/>
</svg>
