<svg id="Layer_1" enable-background="new 0 0 500 500" viewBox="0 0 500 500" xmlns="http://www.w3.org/2000/svg"><g><g><circle cx="250.001" cy="250.001" fill="#ffae3b" r="222.071"/></g><path d="m248.048 25.976c-16.526 0-32.614 1.871-48.119 5.311 8.109-.901 16.336-1.405 24.682-1.405 122.451 0 222.071 99.62 222.071 222.071 0 105.925-74.568 194.71-173.952 216.76 110.873-12.322 197.389-106.561 197.389-220.666 0-122.45-99.621-222.071-222.071-222.071z" opacity=".2"/><g><path d="m250 30.859c121.028 0 219.141 98.113 219.141 219.141s-98.113 219.141-219.141 219.141-219.141-98.113-219.141-219.141 98.113-219.141 219.141-219.141zm0-5.859c-124.065 0-225 100.935-225 225s100.935 225 225 225 225-100.935 225-225-100.935-225-225-225z" fill="#4e092f"/></g><g><path d="m250.001 423.034c-95.412 0-173.036-77.625-173.036-173.034 0-95.414 77.624-173.039 173.036-173.039s173.036 77.625 173.036 173.039c0 95.409-77.625 173.034-173.036 173.034z" fill="#ffd233"/></g><path d="m250.001 78.915c-12.609 0-24.894 1.392-36.743 3.965 94.342 1.251 170.717 78.344 170.717 172.98 0 82.799-58.475 152.17-136.291 169.069.775.011 1.54.059 2.317.059 95.412 0 173.036-77.625 173.036-173.034 0-95.414-77.625-173.039-173.036-173.039z" opacity=".2"/><g><path d="m250 79.894c93.947 0 170.106 76.159 170.106 170.106s-76.159 170.106-170.106 170.106-170.106-76.159-170.106-170.106 76.159-170.106 170.106-170.106zm0-5.859c-97.028 0-175.965 78.937-175.965 175.965s78.937 175.965 175.965 175.965 175.965-78.937 175.965-175.965-78.937-175.965-175.965-175.965z" fill="#4e092f"/></g><g><path d="m319.428 270.201c-3.877-5.83-9.038-10.816-15.344-14.821-6.235-3.957-13.401-7.298-21.293-9.932-7.478-2.497-15.119-4.825-22.722-6.927v-70.004c4.835.273 9.467 1.148 13.79 2.609 4.734 1.602 8.863 3.709 12.273 6.262 3.382 2.535 6.097 5.54 8.073 8.932 1.947 3.344 2.933 6.936 2.933 10.676v9.096l26.369-3.057v-6.039c0-6.487-1.764-12.677-5.241-18.396-3.439-5.655-8.16-10.663-14.026-14.889-5.845-4.202-12.756-7.604-20.545-10.112-7.391-2.38-15.334-3.689-23.626-3.893v-24.044h-21.418v24.043c-8.407.202-16.469 1.487-23.982 3.826-7.929 2.47-14.91 5.875-20.747 10.12-5.863 4.263-10.581 9.293-14.018 14.949-3.479 5.718-5.243 11.907-5.243 18.396v3.524c0 8.412 1.928 15.605 5.726 21.374 3.752 5.702 8.759 10.579 14.886 14.497 6.051 3.871 13.035 7.105 20.757 9.612 7.282 2.365 14.888 4.588 22.622 6.613v73.515c-4.957-.265-9.656-1.121-13.987-2.551-4.731-1.556-8.921-3.665-12.454-6.265-3.498-2.572-6.272-5.597-8.251-8.99-1.944-3.337-2.93-6.974-2.93-10.805v-11.708l-26.369 3.057v8.651c0 6.577 1.764 12.831 5.24 18.587 3.44 5.706 8.16 10.738 14.027 14.957 5.84 4.204 12.82 7.564 20.747 9.987 7.511 2.298 15.57 3.561 23.977 3.758v29.527h21.418v-29.506c8.783-.056 17.155-1.282 24.892-3.647 7.929-2.427 14.968-5.808 20.924-10.05 5.991-4.263 10.772-9.318 14.217-15.026 3.477-5.757 5.238-12.011 5.238-18.587v-5.614c-.001-8.498-1.99-15.8-5.913-21.705zm-94.673-42.868c-4.768-1.951-8.993-4.228-12.56-6.768-3.501-2.493-6.275-5.41-8.245-8.671-1.938-3.203-2.92-7.029-2.92-11.373v-3.524c0-3.743.987-7.336 2.93-10.674 1.973-3.388 4.747-6.389 8.243-8.92 3.537-2.559 7.733-4.671 12.472-6.275 4.331-1.464 9.024-2.34 13.976-2.61v63.836c-4.914-1.567-9.582-3.252-13.896-5.021zm35.314 31.138c5.047 1.502 9.873 3.159 14.368 4.933 4.941 1.951 9.279 4.287 12.897 6.946 3.564 2.621 6.434 5.737 8.529 9.261 2.063 3.472 3.111 7.609 3.111 12.296v5.614c0 3.906-1.045 7.601-3.103 10.98-2.095 3.44-4.967 6.516-8.536 9.141-3.591 2.64-7.898 4.746-12.798 6.259-4.519 1.396-9.38 2.16-14.467 2.274v-67.704z" fill="#4e092f"/></g><g><path d="m106.293 309.92c-3.994 0-7.605-2.649-8.555-6.575-28.393-117.75 41.679-164.836 44.677-166.783 4.028-2.613 9.487-1.583 12.194 2.32 2.701 3.889 1.637 9.155-2.369 11.779-2.598 1.722-62.885 43.056-37.382 148.82 1.104 4.573-1.837 9.146-6.563 10.215-.669.149-1.344.224-2.002.224z" fill="#fff"/></g><g><path d="m94.574 120.469c-1.311 0-2.632-.438-3.725-1.342-2.494-2.06-2.849-5.75-.789-8.248 51.692-62.622 119.16-71.096 122.01-71.425 3.233-.401 6.117 1.928 6.489 5.138.378 3.21-1.922 6.119-5.132 6.5-.653.077-65.752 8.4-114.326 67.247-1.162 1.403-2.839 2.13-4.527 2.13z" fill="#fff"/></g></g></svg>