<svg width="64" height="64" viewBox="0 0 64 64" fill="none" xmlns="http://www.w3.org/2000/svg">
<g clip-path="url(#clip0_1444_2070)">
<path d="M56.9892 35.0309C57.034 35.2481 56.9355 35.4708 56.7493 35.5812L34.1296 49.0085C32.8137 49.7889 31.1916 49.7889 29.8739 49.0085L7.25062 35.5794C7.06442 35.4689 6.96595 35.2462 7.01071 35.029C7.21303 34.0461 7.47084 33.0853 7.77879 32.1466C7.87905 31.8392 8.22996 31.703 8.50389 31.865L31.3742 45.4395C31.761 45.6696 32.239 45.6696 32.6257 45.4395L55.4943 31.865C55.7682 31.703 56.1191 31.8374 56.2194 32.1466C56.5273 33.0853 56.7851 34.0461 56.9874 35.029L56.9892 35.0309Z" fill="#E7E4E6"/>
<path d="M53.7889 27.8226L36.0051 38.3785C35.1707 38.8736 34.127 38.2552 34.127 37.2649V14.9217C34.127 14.6143 34.3866 14.3787 34.682 14.41C35.6345 14.5113 36.5726 14.6677 37.4911 14.8739C37.7202 14.9254 37.8814 15.1352 37.8814 15.3763V32.807L51.7461 24.5776C51.9627 24.4487 52.242 24.5039 52.3942 24.7101C52.96 25.4795 53.4846 26.2801 53.9662 27.1121C54.1094 27.3606 54.0306 27.6808 53.7889 27.8244V27.8226Z" fill="#E7E4E6"/>
<path d="M26.117 15.408V32.8091L12.2505 24.5779C12.0339 24.4491 11.7546 24.5043 11.6024 24.7104C11.0366 25.4798 10.512 26.2805 10.0304 27.1124C9.88718 27.3609 9.96596 27.6812 10.2077 27.8247L27.9933 38.3807C28.8276 38.8758 29.8714 38.2573 29.8714 37.2671V14.9589C29.8714 14.6423 29.5957 14.4011 29.2931 14.4508L26.5395 14.8981C26.296 14.9368 26.117 15.154 26.117 15.4061V15.408Z" fill="#E7E4E6"/>
</g>
<defs>
<clipPath id="clip0_1444_2070">
<rect width="50" height="35.1852" fill="white" transform="translate(7 14.4072)"/>
</clipPath>
</defs>
</svg>
