<svg preserveAspectRatio="none" width="100%" height="100%" overflow="visible" style="display: block;" viewBox="0 0 939.6 663.6" fill="none" xmlns="http://www.w3.org/2000/svg">
<path id="Vector" opacity="0.04" d="M909.154 328.464C914.791 325.124 921.992 327.907 924.043 334.24L925.114 337.552C930.392 354.056 934.844 370.922 938.393 388.15L938.428 388.186L938.481 388.442C939.395 392.886 937.389 397.451 933.569 399.721L933.568 399.72L510.127 651.594C485.209 666.402 454.491 666.402 429.54 651.594H429.539L6.0314 399.686C2.21123 397.416 0.205361 392.852 1.11929 388.408C4.91367 369.936 9.74857 351.88 15.5236 334.24C17.5733 327.946 24.7708 325.122 30.4113 328.464H30.4132L458.546 583.099L458.547 583.1C465.502 587.247 474.097 587.247 481.053 583.1L481.054 583.099L909.153 328.464H909.154ZM419 1.71353C425.244 0.685955 430.872 5.6687 430.872 12.1305V430.596C430.872 449.674 410.927 461.737 394.736 452.481L394.354 452.258L61.4064 254.247H61.4054C56.4391 251.291 54.8527 244.73 57.7677 239.663L57.7687 239.661C66.801 224.026 76.6389 208.98 87.2492 194.521L87.2502 194.52C90.3728 190.282 96.114 189.14 100.569 191.795H100.568L358.789 345.389V20.5202C358.789 15.3717 362.439 10.9006 367.457 10.1022L419 1.71353ZM508.735 11.4508C508.735 5.16991 514.038 0.312265 520.119 0.957672L523.466 1.32681C540.183 3.23184 556.658 6.04324 572.808 9.67545H572.809C577.534 10.7403 580.817 15.0615 580.818 19.9792V345.366L839.005 191.805C843.459 189.151 849.2 190.293 852.322 194.531L852.323 194.533C862.934 208.991 872.772 224.038 881.804 239.673L881.805 239.674C884.72 244.742 883.134 251.302 878.167 254.258L876.807 255.068V255.032L545.252 452.235C528.995 461.903 508.735 449.8 508.735 430.573V11.4508Z" fill="url(#paint0_linear_0_4)" fill-opacity="0.5" stroke="url(#paint1_linear_0_4)" stroke-width="1.8"/>
<defs>
<linearGradient id="paint0_linear_0_4" x1="243.592" y1="2.47892" x2="243.592" y2="454.755" gradientUnits="userSpaceOnUse">
<stop stop-color="white"/>
<stop offset="1" stop-color="white" stop-opacity="0"/>
</linearGradient>
<linearGradient id="paint1_linear_0_4" x1="469.8" y1="1.80045" x2="469.8" y2="661.8" gradientUnits="userSpaceOnUse">
<stop stop-color="white"/>
<stop offset="1" stop-color="white" stop-opacity="0"/>
</linearGradient>
</defs>
</svg>
