<svg width="183" height="48" viewBox="0 0 183 48" fill="none" xmlns="http://www.w3.org/2000/svg">
<path d="M21.2087 12.7649L10.6044 19.5297L21.2087 26.2946L10.6044 33.0594L0 26.258L10.6044 19.4931L0 12.7649L10.6044 6L21.2087 12.7649ZM10.5495 35.2351L21.1539 28.4703L31.7583 35.2351L21.1539 42L10.5495 35.2351ZM21.2087 26.258L31.8131 19.4931L21.2087 12.7649L31.7583 6L42.3626 12.7649L31.7583 19.5297L42.3626 26.2946L31.7583 33.0594L21.2087 26.258Z" fill="#0061FF"/>
<path d="M50.6815 12.7649H59.2564C64.7232 12.7649 69.2392 15.9279 69.2392 23.1499V24.6674C69.2392 31.9442 65.0157 35.2169 59.421 35.2169H50.6815V12.7649ZM55.4718 16.8421V31.1214H59.1467C62.2549 31.1214 64.3392 29.092 64.3392 24.576V23.3876C64.3392 18.8716 62.1452 16.8421 58.9822 16.8421H55.4718ZM71.7806 17.0615H75.6201L76.2417 21.285C76.973 18.4145 78.8379 16.8787 82.2204 16.8787H83.4088V21.7238H81.4342C77.5398 21.7238 76.5891 23.0768 76.5891 26.9163V35.2718H71.8537V17.0615H71.7806ZM84.3595 26.5323V26.0204C84.3595 19.932 88.2539 16.6044 93.5561 16.6044C98.968 16.6044 102.753 19.932 102.753 26.0204V26.5323C102.753 32.511 99.0777 35.7289 93.5561 35.7289C87.6871 35.674 84.3595 32.5293 84.3595 26.5323ZM97.9075 26.4775V26.0204C97.9075 22.638 96.2072 20.6085 93.5012 20.6085C90.8501 20.6085 89.0949 22.4734 89.0949 26.0204V26.4775C89.0949 29.7502 90.7953 31.6151 93.5012 31.6151C96.2072 31.5602 97.9075 29.7502 97.9075 26.4775ZM105.239 17.0615H109.188L109.645 20.4988C110.596 18.1951 112.626 16.6044 115.624 16.6044C120.25 16.6044 123.303 19.932 123.303 26.0935V26.6054C123.303 32.5841 119.921 35.7471 115.624 35.7471C112.754 35.7471 110.779 34.449 109.81 32.3647V41.5613H105.184L105.239 17.0615ZM118.495 26.4775V26.0752C118.495 22.4551 116.63 20.6633 114.143 20.6633C111.492 20.6633 109.737 22.6928 109.737 26.0752V26.4226C109.737 29.6405 111.437 31.6699 114.088 31.6699C116.813 31.6151 118.495 29.8782 118.495 26.4775ZM130.306 31.9076L129.903 35.2352H125.845V10.9731H130.47V20.2794C131.494 17.9026 133.524 16.6044 136.394 16.6044C140.746 16.6593 143.963 19.6578 143.963 25.6913V26.2581C143.963 32.2916 140.91 35.7471 136.284 35.7471C133.231 35.674 131.256 34.2662 130.306 31.9076ZM139.1 26.2581V25.801C139.1 22.4734 137.29 20.6085 134.749 20.6085C132.152 20.6085 130.342 22.6928 130.342 25.8558V26.2581C130.342 29.6405 132.097 31.6151 134.694 31.6151C137.473 31.6151 139.1 29.8782 139.1 26.2581ZM145.993 26.5323V26.0204C145.993 19.932 149.887 16.6044 155.189 16.6044C160.601 16.6044 164.386 19.932 164.386 26.0204V26.5323C164.386 32.511 160.656 35.7289 155.189 35.7289C149.32 35.674 145.993 32.5293 145.993 26.5323ZM159.577 26.4775V26.0204C159.577 22.638 157.877 20.6085 155.171 20.6085C152.52 20.6085 150.765 22.4734 150.765 26.0204V26.4775C150.765 29.7502 152.465 31.6151 155.171 31.6151C157.895 31.5602 159.577 29.7502 159.577 26.4775ZM170.584 25.801L164.203 17.0615H169.67L173.345 22.5282L177.075 17.0615H182.486L176.014 25.7461L182.834 35.2352H177.477L173.308 29.2017L169.249 35.2352H163.655L170.584 25.801Z" fill="black"/>
</svg>
