<svg width="70" height="48" viewBox="0 0 70 48" fill="none" xmlns="http://www.w3.org/2000/svg">
<path d="M43.6904 20.1807C44.2092 20.1808 44.5788 20.3601 44.8232 20.7275C45.0706 21.0993 45.1943 21.6283 45.1943 22.3018L45.1885 22.5449C45.1611 23.103 45.0383 23.5512 44.8232 23.8809C44.5778 24.2525 44.2067 24.4355 43.6904 24.4355C43.174 24.4355 42.8045 24.2545 42.5625 23.8838C42.3187 23.5095 42.1953 22.9754 42.1953 22.3018C42.1953 21.6282 42.3195 21.0993 42.5625 20.7275C42.804 20.3583 43.1715 20.1807 43.6904 20.1807Z" fill="#00A1E0"/>
<path d="M27.877 20.1514C28.3934 20.1514 28.735 20.3544 28.9795 20.7227C29.1414 20.9659 29.2125 21.2887 29.2393 21.6504H26.4326C26.4883 21.2763 26.5911 20.9646 26.752 20.7227C26.9935 20.3534 27.3605 20.1514 27.877 20.1514Z" fill="#00A1E0"/>
<path d="M59.3906 20.1514C59.907 20.1514 60.2487 20.3544 60.4932 20.7227C60.6553 20.9659 60.7265 21.2888 60.7529 21.6504H57.9453C58.0009 21.2764 58.1036 20.9646 58.2646 20.7227C58.5059 20.3534 58.8741 20.1514 59.3906 20.1514Z" fill="#00A1E0"/>
<path d="M19.0732 22.4307C19.4309 22.4371 19.7881 22.4672 20.1416 22.5215V24.3105C20.1416 24.3105 19.6429 24.4182 19.0791 24.4521C18.2803 24.5002 17.9258 24.2217 17.9258 24.2217L17.9238 24.2207C17.7696 24.0976 17.7483 24.0671 17.6973 23.9873C17.6192 23.8668 17.5791 23.6952 17.5791 23.4756C17.5791 23.1313 17.6937 22.882 17.9307 22.7148C17.9282 22.7153 18.2699 22.4207 19.0732 22.4307Z" fill="#00A1E0"/>
<path fill-rule="evenodd" clip-rule="evenodd" d="M18.7773 0C23.0438 0 26.8615 2.0334 29.2568 5.18945L29.6758 4.75977C31.8282 2.72554 34.7054 1.48438 37.8633 1.48438C42.3544 1.48448 46.2469 3.9796 48.3428 7.69727C50.2032 6.86562 52.2181 6.43551 54.2559 6.43652C62.34 6.43652 68.9023 13.049 68.9023 21.208C68.9023 29.3671 62.3401 35.9795 54.2559 35.9795C53.2678 35.9795 52.3044 35.88 51.3613 35.6924C49.5274 38.9608 46.0222 41.1815 42.0303 41.1816C40.4049 41.1849 38.7998 40.8159 37.3389 40.1035C35.48 44.4699 31.1513 47.5389 26.1113 47.5391C20.8466 47.5391 16.3798 44.2206 14.6582 39.5547C13.8921 39.7164 13.1111 39.7973 12.3281 39.7969C6.06539 39.7969 1.00005 34.6574 1 28.3447C1 24.103 3.28067 20.4102 6.66406 18.4141C5.94627 16.7605 5.57625 14.9764 5.57812 13.1738C5.57836 5.88841 11.4919 0.000234312 18.7773 0ZM40.6074 16.583C39.8958 16.583 39.3344 16.7837 38.9404 17.1807C38.5492 17.5749 38.2829 18.1757 38.1494 18.9658L38.1006 19.2324H37.207C37.1992 19.2323 37.0973 19.2332 37.0752 19.3477L36.9287 20.166C36.9186 20.2441 36.9523 20.2924 37.0566 20.292H37.9268L37.0439 25.2188C36.9749 25.6151 36.8961 25.9413 36.8086 26.1885C36.7223 26.4325 36.638 26.6163 36.5342 26.749C36.4337 26.8774 36.3381 26.9712 36.1738 27.0264C36.0382 27.072 35.882 27.0937 35.7109 27.0938C35.6158 27.0938 35.489 27.0773 35.3955 27.0586C35.302 27.0401 35.2527 27.0197 35.1826 26.9902C35.1826 26.9902 35.0802 26.9514 35.04 27.0537C35.0066 27.1395 34.7764 27.7748 34.749 27.8535C34.7212 27.9313 34.7602 27.9921 34.8096 28.0098C34.9252 28.0511 35.0114 28.0781 35.1689 28.1152C35.3878 28.1668 35.5723 28.1699 35.7451 28.1699C36.1074 28.1699 36.4382 28.1193 36.7119 28.0205C36.9871 27.921 37.2265 27.7473 37.4385 27.5127C37.6678 27.2594 37.8122 26.9936 37.9502 26.6318C38.0866 26.2734 38.2029 25.8281 38.2959 25.3096L39.1826 20.292H40.4795C40.4836 20.2921 40.5891 20.2939 40.6113 20.1777L40.7578 19.3594C40.768 19.2812 40.7349 19.232 40.6299 19.2324H39.3711C39.3777 19.2013 39.4351 18.76 39.5791 18.3447C39.6408 18.1669 39.7572 18.0233 39.8555 17.9248C39.9472 17.8311 40.06 17.7606 40.1846 17.7197C40.3213 17.6774 40.4643 17.6572 40.6074 17.6592C40.7258 17.6592 40.8422 17.673 40.9307 17.6914C41.0526 17.7173 41.0999 17.7317 41.1318 17.7412C41.26 17.7803 41.2775 17.7418 41.3027 17.6797L41.6035 16.8535C41.6342 16.7651 41.5594 16.7279 41.5312 16.7168C41.4036 16.6782 41.273 16.6469 41.1416 16.624C40.9651 16.5946 40.7864 16.5811 40.6074 16.583ZM13.2207 19.0938C11.9457 19.0938 11.0547 19.8649 11.0547 20.9678V20.9912C11.0547 22.1539 12.0379 22.5329 12.9561 22.7949L13.1035 22.8408C13.7722 23.0464 14.3515 23.2253 14.3516 23.6943V23.7178C14.3516 24.1493 13.9747 24.4716 13.3711 24.4717C13.1363 24.4717 12.3879 24.4674 11.5771 23.9551C11.4792 23.898 11.4231 23.8566 11.3477 23.8105C11.3078 23.7864 11.2075 23.7427 11.1641 23.873L10.8896 24.6367L10.875 24.707C10.8739 24.7615 10.9096 24.7782 10.9199 24.793C11.0474 24.8852 11.177 24.9523 11.3066 25.0273C12 25.3939 12.6535 25.5009 13.3369 25.501C14.7292 25.501 15.5957 24.7601 15.5957 23.5674V23.5439C15.5955 22.4414 14.6172 22.0398 13.7041 21.7529L13.585 21.7139C12.8938 21.4898 12.2969 21.2949 12.2969 20.8408V20.8174C12.297 20.4282 12.6467 20.1416 13.1855 20.1416C13.7842 20.1416 14.4975 20.3406 14.9541 20.5928C14.9541 20.5928 15.0895 20.6803 15.1387 20.5498C15.1654 20.4792 15.3979 19.856 15.4229 19.7861C15.4493 19.7131 15.4031 19.6583 15.3555 19.6299C14.8315 19.3105 14.1079 19.0928 13.3594 19.0928L13.2207 19.0938ZM33.6025 19.0918C32.3278 19.092 31.4375 19.8631 31.4375 20.9658V20.9893C31.4375 22.152 32.4207 22.531 33.3389 22.793L33.4863 22.8389C34.1574 23.0444 34.7333 23.2234 34.7334 23.6924V23.7158C34.7334 24.1475 34.3568 24.4697 33.7529 24.4697C33.5177 24.4697 32.7674 24.4656 31.959 23.9531C31.8611 23.8961 31.8037 23.8564 31.7295 23.8086C31.7043 23.7926 31.5861 23.7465 31.5459 23.8711L31.2715 24.6348L31.2598 24.7051C31.2587 24.7595 31.294 24.7762 31.3047 24.791C31.4316 24.8832 31.5618 24.9503 31.6914 25.0254C32.3848 25.392 33.0382 25.499 33.7217 25.499C35.114 25.499 35.9805 24.7581 35.9805 23.5654V23.542C35.9803 22.4394 35.0045 22.0379 34.0889 21.751L33.9697 21.7119C33.2786 21.4879 32.6817 21.2929 32.6816 20.8389V20.8154C32.6817 20.4263 33.0314 20.1396 33.5703 20.1396C34.169 20.1397 34.8798 20.3387 35.3389 20.5908C35.3389 20.5908 35.474 20.6782 35.5234 20.5479C35.5499 20.4772 35.7832 19.854 35.8057 19.7842C35.8322 19.7112 35.7856 19.6564 35.7383 19.6279C35.2143 19.3086 34.4907 19.0908 33.7422 19.0908L33.6025 19.0918ZM43.6875 19.1133C43.2137 19.1133 42.7971 19.197 42.4404 19.3623C42.0862 19.5279 41.7839 19.7567 41.5469 20.041C41.3103 20.3254 41.1324 20.665 41.0176 21.0518C40.9041 21.436 40.8467 21.8552 40.8467 22.3018C40.8467 22.7483 40.9041 23.1676 41.0176 23.5518C41.1316 23.9385 41.3098 24.2781 41.5469 24.5625C41.7842 24.8469 42.0862 25.0742 42.4404 25.2363C42.7971 25.3979 43.2161 25.4805 43.6875 25.4805C44.1591 25.4805 44.5783 25.398 44.9326 25.2363C45.2869 25.0746 45.5891 24.8469 45.8262 24.5625C46.0629 24.2781 46.2397 23.9384 46.3545 23.5518C46.4677 23.1675 46.5254 22.7483 46.5254 22.3018C46.5254 21.8577 46.4678 21.436 46.3545 21.0518L46.2598 20.7705C46.1505 20.4987 46.0059 20.2543 45.8281 20.041C45.5909 19.7568 45.2921 19.5269 44.9355 19.3623C44.5812 19.1964 44.1616 19.1133 43.6875 19.1133ZM27.9688 19.1094C27.4774 19.1094 27.0306 19.1925 26.6689 19.3613C26.3074 19.5314 26.0031 19.7626 25.7637 20.0518C25.5249 20.3412 25.3443 20.6835 25.2295 21.0752C25.115 21.4619 25.0576 21.886 25.0576 22.3301C25.0576 22.7842 25.1173 23.2061 25.2363 23.5879C25.3556 23.9719 25.5479 24.3086 25.8047 24.5879C26.0642 24.8698 26.3967 25.0894 26.7959 25.2441C27.1926 25.3975 27.6718 25.4773 28.2256 25.4756C29.3631 25.4718 29.9615 25.2183 30.2061 25.0811C30.2495 25.0566 30.2909 25.015 30.2393 24.8936L29.9824 24.1719C29.9426 24.0648 29.834 24.1035 29.834 24.1035C29.552 24.2088 29.1524 24.398 28.2168 24.3955C27.6084 24.3944 27.1545 24.2142 26.8701 23.9316C26.5807 23.6422 26.4355 23.2199 26.4131 22.6211L30.3555 22.625C30.3555 22.625 30.4589 22.6235 30.4697 22.5225C30.474 22.4805 30.6053 21.7138 30.3525 20.8281L30.3496 20.8271C30.2508 20.4554 30.0054 20.0784 29.8457 19.9062C29.5912 19.6343 29.3437 19.4427 29.0967 19.3379C28.7401 19.1863 28.3562 19.1087 27.9688 19.1094ZM59.4824 19.1094C58.991 19.1094 58.5443 19.1924 58.1826 19.3613C57.8211 19.5314 57.5168 19.7626 57.2773 20.0518C57.0381 20.3412 56.8579 20.6835 56.7432 21.0752C56.6284 21.4619 56.5703 21.886 56.5703 22.3301C56.5703 22.7842 56.6308 23.2061 56.749 23.5879C56.8685 23.972 57.0609 24.3085 57.3203 24.5879C57.5798 24.8698 57.9114 25.0894 58.3105 25.2441C58.7072 25.3976 59.1889 25.4773 59.7402 25.4756C60.878 25.4718 61.4772 25.2183 61.7217 25.0811C61.7652 25.0566 61.8061 25.0147 61.7549 24.8936L61.498 24.1719C61.4585 24.0648 61.3496 24.1035 61.3496 24.1035C61.0677 24.2088 60.6686 24.3979 59.7334 24.3955C59.1222 24.3945 58.6702 24.2142 58.3857 23.9316C58.0963 23.6422 57.9512 23.2199 57.9287 22.6211L61.8711 22.625C61.8711 22.625 61.9745 22.6235 61.9854 22.5225C61.9896 22.4805 62.1207 21.7139 61.8682 20.8281L61.8633 20.8271C61.7642 20.4554 61.5191 20.0784 61.3594 19.9062C61.1049 19.6343 60.8574 19.4427 60.6104 19.3379C60.2537 19.1863 59.8699 19.1087 59.4824 19.1094ZM54.4229 19.0967C53.9339 19.0967 53.4997 19.181 53.1279 19.3467C52.7564 19.512 52.4418 19.7402 52.1924 20.0244C51.9429 20.3088 51.7532 20.6486 51.626 21.0352C51.5 21.4194 51.4355 21.8415 51.4355 22.2881C51.4356 23.2511 51.6951 24.0322 52.209 24.6035C52.723 25.1774 53.4969 25.4668 54.5049 25.4668C55.1012 25.4668 55.7122 25.3458 56.1514 25.1719C56.1514 25.1719 56.2355 25.1319 56.1992 25.0342L55.9111 24.2461C55.8738 24.1355 55.7673 24.1731 55.7627 24.1748C55.5939 24.2394 55.4137 24.3001 55.2217 24.3301C55.0281 24.3605 54.812 24.375 54.585 24.375C54.0236 24.375 53.5743 24.2076 53.2549 23.876C52.9332 23.5441 52.7534 23.0104 52.7559 22.2871C52.7576 21.6284 52.9174 21.1341 53.2031 20.7549C53.4851 20.3808 53.9194 20.1865 54.4932 20.1865C54.972 20.1866 55.3385 20.2421 55.7227 20.3623C55.7227 20.3623 55.8142 20.4001 55.8574 20.2812C55.9594 19.9995 56.035 19.7975 56.1445 19.4883C56.1753 19.4001 56.1003 19.3625 56.0723 19.3516C55.9216 19.2927 55.5654 19.1959 55.2959 19.1553C55.044 19.1169 54.7521 19.0967 54.4229 19.0967ZM18.9619 19.0996C18.6675 19.0996 18.1907 19.1401 17.9062 19.1973C17.8922 19.2 17.0447 19.3665 16.6934 19.6416C16.6868 19.6459 16.6178 19.6944 16.6582 19.7979L16.9375 20.5459C16.9722 20.643 17.0674 20.6104 17.0674 20.6104C17.0699 20.6093 17.0985 20.5969 17.1318 20.5771C17.8836 20.1679 18.8352 20.1786 18.8457 20.1787C19.2699 20.1787 19.5998 20.2642 19.8193 20.4326C20.0341 20.5975 20.1436 20.8473 20.1436 21.3711V21.5371C19.8067 21.4882 19.4941 21.46 19.4941 21.46L19.4912 21.4512C19.3315 21.4394 19.124 21.4336 18.877 21.4336C18.5403 21.4336 18.2135 21.4753 17.9092 21.5576C17.6023 21.6405 17.3249 21.7688 17.0879 21.9395C16.8503 22.1089 16.6548 22.3309 16.5166 22.5879C16.3771 22.8474 16.3057 23.1527 16.3057 23.4971C16.3057 23.8461 16.3667 24.1477 16.4863 24.3945C16.6036 24.6394 16.7802 24.8513 17 25.0107C17.2188 25.1699 17.4899 25.2885 17.8018 25.3584C18.111 25.4289 18.4607 25.4639 18.8447 25.4639C19.2487 25.4638 19.6501 25.4298 20.0391 25.3643C20.3706 25.3071 20.7015 25.2431 21.0303 25.1719C21.1574 25.1426 21.2981 25.1049 21.3066 25.1025C21.4018 25.0784 21.3968 24.9781 21.3965 24.9736L21.3945 21.3809C21.3945 20.5924 21.1842 20.0053 20.7686 19.6436C20.3544 19.2818 19.7478 19.0996 18.9619 19.0996ZM22.79 16.71C22.7242 16.7102 22.6779 16.7628 22.6777 16.8281V25.2295C22.6779 25.295 22.7243 25.3484 22.79 25.3486H23.834C23.8997 25.3486 23.9471 25.2952 23.9473 25.2295V16.8281C23.9471 16.7627 23.8997 16.71 23.834 16.71H22.79ZM50.4609 19.1689C49.967 19.138 49.6923 19.2213 49.4453 19.332C49.2015 19.442 48.9319 19.6189 48.7822 19.8232L48.7812 19.3447C48.7812 19.2789 48.7343 19.2256 48.668 19.2256H47.6602C47.5948 19.2256 47.5479 19.2789 47.5479 19.3447V25.208C47.5479 25.2397 47.5606 25.2696 47.583 25.292C47.6054 25.3144 47.6353 25.3271 47.667 25.3271H48.7002C48.7318 25.327 48.7619 25.3143 48.7842 25.292C48.8065 25.2696 48.8193 25.2396 48.8193 25.208V22.2637C48.8193 21.8695 48.8626 21.4775 48.9492 21.2305C49.0345 20.9863 49.151 20.792 49.2939 20.6523C49.4303 20.5174 49.597 20.4172 49.7803 20.3604C49.9522 20.311 50.1307 20.2851 50.3096 20.2852C50.5153 20.2852 50.7412 20.3389 50.7412 20.3389C50.8167 20.3471 50.8591 20.3006 50.8848 20.2324C50.9524 20.0525 51.1442 19.5135 51.1816 19.4062L51.1875 19.3809C51.1876 19.3665 51.1852 19.3521 51.1797 19.3389C51.1742 19.3257 51.1655 19.3137 51.1553 19.3037C51.1452 19.2939 51.1332 19.2864 51.1201 19.2812C51.053 19.2558 50.7179 19.1849 50.4609 19.1689Z" fill="#00A1E0"/>
</svg>
