<svg width="98" height="100" viewBox="0 0 98 100" fill="none" xmlns="http://www.w3.org/2000/svg">
<path d="M13.9194 53.9797C14.0534 56.8739 16.9475 55.534 18.2338 54.6229C19.4666 53.7653 19.8417 54.4889 19.9489 52.8006C20.0293 51.6751 20.1365 50.5764 20.0829 49.4508C18.207 49.29 16.1704 49.7188 14.6429 50.8443C13.839 51.4339 12.3651 53.283 13.9194 53.9797Z" fill="#F6D2A2"/>
<path d="M71.5084 89.5139C73.7326 90.8806 77.8059 95.0343 74.4561 97.071C71.2672 99.9919 69.4717 93.8552 66.6579 92.9977C67.8638 91.3362 69.3913 89.8087 71.5084 89.5139Z" fill="#F6D2A2"/>
<path d="M31.8473 94.1767C29.2478 94.5787 27.774 96.9369 25.5765 98.1428C23.5399 99.3487 22.7359 97.7408 22.5751 97.4192C22.2536 97.2853 22.3072 97.5532 21.798 97.0441C19.8953 94.0427 23.7543 91.8453 25.7909 90.3714C28.5779 89.8086 30.3466 92.2472 31.8473 94.1767Z" fill="#F6D2A2"/>
<path d="M83.8355 53.6046C83.7015 56.4988 80.8073 55.1589 79.521 54.2477C78.2883 53.3902 77.9131 54.1137 77.8059 52.4255C77.7255 51.2999 77.6183 50.2012 77.6719 49.0757C79.5478 48.9149 81.5844 49.3437 83.1119 50.4692C83.889 51.0588 85.3897 52.9078 83.8355 53.6046Z" fill="#F6D2A2"/>
<path d="M76.1712 18.3651C86.1937 14.8278 78.3686 1.10721 69.6325 7.16356C63.8977 2.25952 56.0191 1.34839 47.7385 1.34839C39.6187 1.99154 31.9008 3.49223 26.5144 8.18189C17.8051 2.5811 9.79247 16.0337 20.0025 19.4371C17.1351 30.5582 20.4045 41.8938 19.9489 53.2026C19.5202 63.359 16.8671 76.9724 22.4947 86.0838C27.2916 93.882 37.6088 96.669 46.1306 96.9637C56.9838 97.3657 70.1416 94.6859 75.4208 84.1811C80.4589 74.1586 79.0654 61.6707 78.4222 50.8711C77.8059 39.9643 79.0118 28.8968 76.1712 18.3651Z" fill="#69D7E2"/>
<path d="M84.5858 51.8895C84.3178 51.2999 83.7818 50.63 83.2727 50.2548C81.9864 49.3168 80.3249 48.8345 78.6098 48.7809C78.5562 47.039 78.5026 45.1364 78.5026 42.7245V40.5271C78.4758 33.6132 78.3954 30.585 77.9935 26.8065C77.6719 23.8319 77.2163 21.0717 76.5464 18.4991C78.8242 17.6416 80.2981 16.1945 80.8877 14.3454C81.4504 12.6303 81.1556 10.7009 80.2177 8.98581C79.2262 7.29754 77.6719 6.03803 75.8496 5.52887C73.8934 4.99291 71.7495 5.39488 69.7129 6.76158C67.8906 5.20729 65.7736 4.02818 63.4153 3.14384C59.2348 1.58956 54.3844 1 47.7921 1V1.26798L47.7653 1C40.7174 1.56276 35.4918 2.66148 31.1773 4.75172C29.4354 5.58246 27.8812 6.60079 26.5413 7.7799C24.4778 6.49359 22.3072 6.17202 20.3241 6.78837C18.475 7.35113 16.8672 8.66423 15.9292 10.3793C14.9645 12.0944 14.7501 14.0506 15.3933 15.7389C16.0364 17.4272 17.5371 18.7403 19.7346 19.5442C19.0378 22.3848 18.6626 25.3862 18.609 28.6824C18.5554 31.8981 18.6894 34.4975 19.1986 40.3395C19.5738 44.6808 19.7078 46.6906 19.7614 49.1025C17.8587 49.0221 15.956 49.5312 14.5089 50.5496C13.9998 50.9247 13.437 51.5679 13.1958 52.1842C12.8207 52.9614 12.9815 53.6581 13.705 54.0869C13.8122 55.4268 14.5625 56.0431 15.7149 55.936C16.5456 55.8556 17.5639 55.4 18.4482 54.7836C18.6358 54.6497 18.8502 54.5425 19.0378 54.4353C19.1182 54.4085 19.1718 54.3817 19.2522 54.3549C19.2522 54.3549 19.413 54.3013 19.4666 54.2745C19.547 54.2477 19.6274 54.2209 19.681 54.1673C19.6274 55.4804 19.5202 56.8739 19.2522 60.0093C18.9842 63.5466 18.8234 65.4761 18.7698 67.6467C18.5286 75.6593 19.4666 81.5013 22.334 86.1373C23.2451 87.5844 24.317 88.8975 25.6301 90.0766C25.3889 90.2374 24.317 91.0414 23.9686 91.2826C22.7895 92.1937 21.9856 92.944 21.5032 93.7748C20.8869 94.8735 20.8869 95.9722 21.5836 97.1245L21.6104 97.1513L21.6372 97.1781C21.9588 97.4997 22.1196 97.5801 22.334 97.5801H22.3608H22.4144C22.4412 97.6337 22.468 97.6605 22.4948 97.7141C22.5751 97.8481 22.6555 97.9553 22.7359 98.0893C23.4327 98.8932 24.4242 99.1076 25.7373 98.3036C26.4341 97.9285 26.9432 97.5265 28.0151 96.6154C28.0419 96.5886 28.0419 96.5886 28.0687 96.5618C29.7838 95.1147 30.6146 94.5787 31.8741 94.3643L32.3296 94.2839C32.4904 94.3643 32.678 94.4179 32.8656 94.4983C36.8585 96.1062 41.4678 96.9637 46.1574 97.1245C52.2138 97.3389 58.0557 96.5886 62.9866 94.7931C64.2997 94.3107 65.5324 93.748 66.7115 93.1316C67.435 93.3996 68.0514 93.9892 69.2305 95.3827C69.2841 95.4363 69.2841 95.4362 69.3109 95.4898C69.3645 95.5434 69.3645 95.5702 69.3913 95.597C69.4449 95.6774 69.5253 95.731 69.5789 95.8114C70.5168 96.9101 71.1332 97.4461 71.8299 97.7409C72.7679 98.1429 73.6522 97.9285 74.5901 97.0977C76.2248 96.0794 76.332 94.5251 75.2601 92.7297C74.5097 91.4701 73.1966 90.157 71.9371 89.2995C73.3842 87.8792 74.6705 86.1641 75.6352 84.2079C78.3418 78.8215 79.3602 72.5239 79.3066 64.4577C79.2798 61.5903 79.1726 59.0981 78.851 54.3281V54.1941C78.985 54.2477 79.119 54.3281 79.2798 54.4353C80.1373 55.0248 81.1556 55.5072 82.0132 55.5876C83.1655 55.6948 83.9158 55.0784 84.023 53.7385C84.827 53.3901 84.961 52.6934 84.5858 51.8895ZM75.662 6.14522C77.3503 6.60079 78.7974 7.7799 79.7085 9.33419C80.6197 10.9153 80.8609 12.6839 80.3517 14.2382C79.8157 15.8997 78.4758 17.2128 76.3588 17.99C75.93 16.4625 75.4209 14.9886 74.8849 13.5683C75.6888 12.8715 76.0908 11.9872 75.4477 10.7545C74.8045 9.52177 73.679 9.38778 72.5267 9.73616C71.8031 8.77143 70.9724 7.94069 70.1416 7.16355C71.9907 5.98443 73.8934 5.66286 75.662 6.14522ZM15.8488 15.6317C15.2593 14.1042 15.4469 12.3088 16.358 10.7545C17.2691 9.1734 18.7162 7.94069 20.4581 7.43153C22.2536 6.89557 24.183 7.16355 26.0857 8.26227C24.987 9.25379 24.0222 10.3793 23.1647 11.612C21.7176 10.8617 20.2169 10.7009 19.3862 12.2552C18.5286 13.9166 19.5202 14.9618 20.9673 15.7389C20.7797 16.2213 20.5653 16.7304 20.4045 17.2128C20.2169 17.8292 20.0025 18.4723 19.8417 19.1155C17.7783 18.3383 16.4384 17.1324 15.8488 15.6317ZM19.2522 53.8725C19.2254 53.8725 19.0646 53.9261 19.0646 53.9529C18.9842 53.9797 18.9038 54.0065 18.8234 54.0601C18.609 54.1405 18.3678 54.2745 18.1535 54.4621C17.3763 55.0248 16.4116 55.4536 15.6881 55.5072C14.8573 55.5876 14.3749 55.2392 14.2946 54.2209C14.8841 54.0333 15.1253 53.8725 15.3665 53.5509L14.9109 53.2026C14.7501 53.4169 14.5625 53.5241 14.0802 53.6849C14.0534 53.6849 14.0534 53.6849 14.0266 53.7117C13.571 53.4705 13.4906 53.0686 13.7586 52.5058C13.973 51.9967 14.4821 51.4071 14.9109 51.1123C16.2508 50.1208 18.0463 49.6652 19.8417 49.7724C19.8417 50.4692 19.8685 51.1659 19.8417 51.8359C19.8417 51.9163 19.8417 51.9698 19.8149 52.0502C19.7881 52.4522 19.7881 52.613 19.7614 52.8006C19.6006 53.6045 19.547 53.7117 19.2522 53.8725ZM27.7204 96.2134C27.6936 96.2402 27.6936 96.2402 27.6668 96.267C26.6216 97.1781 26.1125 97.5265 25.4693 97.9017C24.3974 98.5448 23.6739 98.4108 23.1647 97.7945C23.0843 97.7141 23.0307 97.6069 22.9771 97.5265C22.9503 97.4997 22.9235 97.4461 22.8967 97.4193C22.8967 97.4193 22.8967 97.4193 22.8967 97.3925C22.9503 96.8833 23.1379 96.535 23.6471 95.731C23.6739 95.7042 23.6739 95.7042 23.6739 95.6774C23.9954 95.2219 24.1294 94.9807 24.2634 94.6591L23.7543 94.4447C23.6471 94.6859 23.5131 94.9271 23.2183 95.3827C23.1915 95.4095 23.1915 95.4094 23.1915 95.4362C22.6823 96.1598 22.468 96.6154 22.3608 97.1245H22.334C22.334 97.1245 22.334 97.1245 22.3072 97.1245H22.2536C22.2 97.0977 22.1196 97.0441 22.0124 96.9369C20.9137 95.1951 21.798 93.7212 24.2634 91.8453C24.585 91.6309 25.6033 90.8806 25.8981 90.6662C25.9517 90.6662 26.0053 90.6394 26.0589 90.6126C27.5864 91.8989 29.355 93.0244 31.3113 93.9624C31.3113 93.9892 31.3381 94.016 31.3649 94.0428C30.1858 94.2839 29.3014 94.8735 27.7204 96.2134ZM74.8313 93.1584C75.6888 94.6055 75.662 95.7846 74.5901 96.6154C74.5097 96.4546 74.4561 96.2402 74.3489 95.9722C74.3489 95.9454 74.3489 95.9454 74.3221 95.9186C73.9202 94.8467 73.679 94.3911 73.1966 93.9088L72.7947 94.3107C73.2234 94.7127 73.411 95.1147 73.813 96.1062C73.813 96.133 73.813 96.133 73.8398 96.1598C73.9738 96.535 74.0542 96.7494 74.1614 96.9369C73.4378 97.5533 72.7947 97.6605 72.1247 97.3657C71.5351 97.1245 70.9724 96.5886 70.0881 95.5702C70.0345 95.5166 69.9809 95.4362 69.9273 95.3559C69.9005 95.3291 69.8737 95.3023 69.8469 95.2487C69.7933 95.1951 69.7933 95.1951 69.7665 95.1415C68.7214 93.9356 68.105 93.2924 67.435 92.9172C69.0161 92.0061 70.4096 91.0146 71.6691 89.8355C72.7947 90.6662 74.1078 91.9525 74.8313 93.1584ZM75.2333 84.0471C72.8215 88.8975 68.5606 92.3277 62.8258 94.3911C57.9485 96.1598 52.1602 96.8833 46.1842 96.669C35.8938 96.2938 26.97 92.7029 22.7895 85.923C19.9757 81.3941 19.0646 75.6593 19.3058 67.7271C19.3862 65.5564 19.4934 63.627 19.7881 60.0897C20.1097 56.0967 20.1901 54.9444 20.2705 53.149C20.3241 51.8627 20.3241 50.5496 20.2973 49.1293C20.2437 46.6638 20.1097 44.7076 19.7346 40.2859C19.2254 34.4439 19.0914 31.8981 19.145 28.7092C19.2254 24.5019 19.7881 20.8037 20.9673 17.2932C22.8699 11.5852 26.3805 7.7531 31.4453 5.26089C35.6794 3.19744 40.8246 2.12552 47.7921 1.56276C54.3308 1.56276 59.1009 2.15232 63.2278 3.6798C68.1586 5.50207 71.8299 8.69103 74.3757 13.6219C76.0104 17.6148 76.9483 21.9025 77.4575 26.8333C77.8595 30.585 77.9399 33.6132 77.9667 40.5003V42.6977C77.9935 46.1011 78.0471 48.4861 78.1811 50.8711C78.2347 51.8091 78.2615 52.1842 78.3954 54.4085C78.717 59.1785 78.8242 61.6439 78.851 64.5113C78.9046 72.5507 77.8863 78.7679 75.2333 84.0471ZM83.8086 53.3366C83.7818 53.3366 83.7551 53.3098 83.7283 53.3098C83.2191 53.149 83.0583 53.0418 82.8975 52.8274L82.4419 53.1758C82.6831 53.5241 82.9511 53.6581 83.5139 53.8457C83.4067 54.864 82.9243 55.2124 82.1204 55.132C81.3968 55.0784 80.4321 54.6229 79.655 54.0869C79.4406 53.9261 79.1994 53.8189 78.985 53.6849C78.9582 53.6849 78.9314 53.6581 78.9046 53.6581C78.7974 52.1038 78.7974 51.7287 78.7438 50.8979C78.717 50.3888 78.6902 49.8796 78.6634 49.3704C80.2445 49.3972 81.772 49.8796 82.9511 50.7371C83.3799 51.0587 83.889 51.6483 84.1034 52.1306C84.3446 52.6666 84.291 53.0686 83.8086 53.3366Z" fill="black"/>
<path d="M51.9994 30.2902C52.0262 31.7105 52.321 33.2916 52.053 34.8191C51.651 35.5426 50.9275 35.623 50.2843 35.9178C49.3732 35.7838 48.6228 35.1943 48.2745 34.3367C48.0601 32.6216 48.328 30.987 48.4084 29.2987C48.4084 29.2451 49.4804 29.3255 50.4183 29.6203C51.249 29.8614 51.9994 30.2634 51.9994 30.2902Z" fill="white"/>
<path d="M44.0672 30.4242C43.29 33.3988 45.1123 38.2492 48.1137 34.2563C47.8993 32.568 48.1405 30.9334 48.2208 29.2987C48.2476 29.1647 44.094 30.2098 44.0672 30.4242Z" fill="white"/>
<path d="M52.3477 31.6301C52.2942 30.7994 52.2674 30.451 52.2674 30.0222V29.8347L52.0798 29.7811L48.5424 28.6823V28.4948L48.1673 28.5751H48.1405V28.6019L44.1476 29.6203L44.0136 29.6471L43.96 29.7811C43.3436 31.2549 43.4776 33.506 44.2815 34.8995C45.1927 36.4806 46.6398 36.5074 48.1137 34.7119C48.5424 35.5158 49.3196 36.0786 50.2307 36.2394H50.3111L50.3915 36.2126C50.4987 36.159 50.6059 36.1322 50.8203 36.0518C50.8471 36.0518 50.8471 36.0518 50.8739 36.025C51.6778 35.757 52.0262 35.5158 52.2942 34.9799L52.321 34.9531V34.8995C52.4013 34.3903 52.4281 33.8544 52.4281 33.2648C52.4281 32.8092 52.4013 32.4073 52.3477 31.6301ZM47.8457 30.585C47.8189 31.0942 47.7921 31.2817 47.7653 31.5765C47.7117 32.6216 47.7117 33.3988 47.7921 34.1759C46.479 35.8642 45.4339 35.8642 44.7371 34.6047C44.0672 33.4256 43.9332 31.4425 44.4155 30.1026L47.9529 29.1915C47.9261 29.5667 47.8993 29.9418 47.8457 30.585ZM51.785 34.7387C51.5974 35.0871 51.3294 35.2479 50.6595 35.4622C50.6327 35.4622 50.6327 35.4622 50.6059 35.489C50.4451 35.5426 50.3379 35.5962 50.2307 35.623C49.4804 35.489 48.8372 34.9799 48.5156 34.2831C48.4352 33.5328 48.4352 32.7288 48.4888 31.7105C48.5156 31.4425 48.5156 31.2282 48.5692 30.719C48.6228 30.0758 48.6496 29.6739 48.6496 29.3255L51.7046 30.2634C51.7046 30.6386 51.7314 30.9602 51.785 31.6837C51.8386 32.4341 51.8654 32.836 51.8654 33.2916C51.8922 33.8008 51.8654 34.2831 51.785 34.7387Z" fill="black"/>
<path d="M27.1844 18.0704C29.757 28.1197 45.8358 25.547 45.2195 15.471C44.4959 3.41188 24.719 5.74331 27.1844 18.0704Z" fill="white"/>
<path d="M45.4874 15.4441C45.3267 12.5231 44.0403 10.2453 41.8965 8.82497C39.9938 7.53866 37.4748 7.0295 34.9558 7.35108C32.4636 7.69945 30.159 8.79817 28.6315 10.5668C26.9432 12.5231 26.3001 15.1225 26.8896 18.0971C29.5694 28.4143 46.1038 25.8953 45.4874 15.4441ZM27.4256 18.0167C26.8628 15.1761 27.4792 12.7643 29.0603 10.942C30.4805 9.28054 32.6512 8.18182 35.0362 7.88704C37.4212 7.56546 39.8063 8.04783 41.6017 9.28054C43.5848 10.6204 44.7907 12.7375 44.9783 15.4977C45.5678 25.3058 29.9178 27.664 27.4256 18.0167Z" fill="black"/>
<path d="M31.6061 19.3566C33.1157 19.3566 34.3395 18.0369 34.3395 16.4088C34.3395 14.7808 33.1157 13.4611 31.6061 13.4611C30.0965 13.4611 28.8727 14.7808 28.8727 16.4088C28.8727 18.0369 30.0965 19.3566 31.6061 19.3566Z" fill="black"/>
<path d="M32.8388 17.8559C33.194 17.8559 33.4819 17.52 33.4819 17.1056C33.4819 16.6912 33.194 16.3552 32.8388 16.3552C32.4836 16.3552 32.1956 16.6912 32.1956 17.1056C32.1956 17.52 32.4836 17.8559 32.8388 17.8559Z" fill="white"/>
<path d="M49.7215 16.1945C51.7046 27.7176 70.5704 24.6627 67.837 13.0591C65.3984 2.60789 49.0516 5.50208 49.7215 16.1945Z" fill="white"/>
<path d="M68.105 13.0055C65.6128 2.25946 48.7836 5.20724 49.4536 16.2212V16.248C50.3915 21.688 55.2419 24.475 60.6015 23.5639C63.0402 23.1351 65.2376 21.956 66.6579 20.2141C68.2122 18.3115 68.7749 15.8193 68.105 13.0055ZM66.2291 19.8926C64.8892 21.5272 62.8258 22.6528 60.4944 23.0279C55.4027 23.8587 50.8739 21.2593 49.9627 16.1408C49.3464 5.77 65.2376 2.98301 67.5958 13.0859C68.2122 15.7657 67.703 18.0971 66.2291 19.8926Z" fill="black"/>
<path d="M54.3576 18.6331C55.8228 18.6331 57.0106 17.3133 57.0106 15.6853C57.0106 14.0573 55.8228 12.7375 54.3576 12.7375C52.8924 12.7375 51.7046 14.0573 51.7046 15.6853C51.7046 17.3133 52.8924 18.6331 54.3576 18.6331Z" fill="black"/>
<path d="M55.5903 17.1057C55.9307 17.1057 56.2067 16.7697 56.2067 16.3553C56.2067 15.9409 55.9307 15.605 55.5903 15.605C55.2499 15.605 54.974 15.9409 54.974 16.3553C54.974 16.7697 55.2499 17.1057 55.5903 17.1057Z" fill="white"/>
<path d="M44.6567 24.3411C42.4325 24.5287 40.637 27.1549 41.7894 29.2183C43.3168 31.9785 46.6934 28.9772 48.8104 29.2451C51.2491 29.2987 53.2321 31.8178 55.1884 29.7007C57.359 27.3425 54.2504 25.0379 51.8118 24.0195L44.6567 24.3411Z" fill="#F6D2A2"/>
<path d="M55.4563 26.2438C54.706 25.2791 53.3929 24.4215 51.9458 23.832L51.8922 23.8052H51.8386L44.6567 24.0732C42.1645 24.2875 40.369 27.1817 41.5749 29.3792C42.0573 30.2099 42.7005 30.6387 43.558 30.6923C44.2012 30.7191 44.8711 30.5851 45.9162 30.2099C45.9966 30.1831 46.1038 30.1563 46.2646 30.1027C47.6581 29.6203 48.2209 29.4864 48.7836 29.5668H48.8104C49.4804 29.5668 50.0431 29.7543 51.115 30.1831C52.2942 30.6655 52.6693 30.7995 53.2589 30.8531C54.0628 30.9067 54.7864 30.6387 55.4295 29.9151C56.4747 28.736 56.4211 27.4497 55.4563 26.2438ZM54.974 29.54C54.438 30.1295 53.902 30.3171 53.2589 30.2903C52.7497 30.2635 52.4282 30.1295 51.3026 29.6739C50.1771 29.1916 49.5608 29.0308 48.8372 29.004C48.1405 28.9236 47.5509 29.0576 46.0502 29.5668C45.9162 29.6203 45.809 29.6471 45.7018 29.6739C43.6652 30.3707 42.6737 30.3171 42.0037 29.0844C40.9854 27.2621 42.5397 24.7967 44.6299 24.5823L51.7314 24.3143C53.0713 24.8771 54.2772 25.681 54.974 26.5654C55.8315 27.5837 55.8583 28.602 54.974 29.54Z" fill="#231F20"/>
<path d="M52.3746 23.1352C51.517 19.9462 44.2012 20.4018 44.3887 24.2339C44.7371 27.0745 53.2053 26.3241 52.3746 23.1352Z" fill="black"/>
</svg>
