<svg width="99" height="100" viewBox="0 0 99 100" fill="none" xmlns="http://www.w3.org/2000/svg">
<path d="M87 12H11V88H87V12Z" fill="#F7DF1E"/>
<path d="M62.0526 71.3753C63.5835 73.8748 65.5752 75.7121 69.0977 75.7121C72.0569 75.7121 73.9472 74.2331 73.9472 72.1896C73.9472 69.7407 72.005 68.8733 68.7479 67.4486L66.9625 66.6826C61.809 64.487 58.3853 61.7365 58.3853 55.9219C58.3853 50.5657 62.4664 46.4883 68.8444 46.4883C73.3851 46.4883 76.6495 48.0686 79.0019 52.2064L73.4406 55.7772C72.2161 53.5816 70.8952 52.7167 68.8444 52.7167C66.7526 52.7167 65.4268 54.0436 65.4268 55.7772C65.4268 57.9196 66.7538 58.787 69.8179 60.114L71.6033 60.8788C77.6712 63.4809 81.0973 66.1337 81.0973 72.0979C81.0973 78.5277 76.0463 82.0502 69.263 82.0502C62.6305 82.0502 58.3455 78.8896 56.2489 74.747L62.0526 71.3753ZM36.8243 71.9941C37.9462 73.9846 38.9667 75.6675 41.4205 75.6675C43.7668 75.6675 45.247 74.7494 45.247 71.1798V46.896H52.3886V71.2763C52.3886 78.6713 48.053 82.037 41.7245 82.037C36.0064 82.037 32.6949 79.0778 31.0109 75.5136L36.8243 71.9941Z" fill="black"/>
</svg>
