<svg width="136" height="98" viewBox="0 0 136 98" fill="none" xmlns="http://www.w3.org/2000/svg">
<g clip-path="url(#clip0_1552_628)">
<mask id="mask0_1552_628" style="mask-type:luminance" maskUnits="userSpaceOnUse" x="9" y="18" width="117" height="62">
<path d="M9.68073 49.2351C9.68073 66.1096 35.6863 79.7894 67.7646 79.7894C99.8429 79.7894 125.849 66.1096 125.849 49.2351C125.849 32.3608 99.8429 18.6808 67.7646 18.6808C35.6863 18.6808 9.68073 32.3608 9.68073 49.2351Z" fill="white"/>
</mask>
<g mask="url(#mask0_1552_628)">
<path d="M9.68073 49.2351C9.68073 66.1096 35.6863 79.7894 67.7646 79.7894C99.8429 79.7894 125.849 66.1096 125.849 49.2351C125.849 32.3608 99.8429 18.6808 67.7646 18.6808C35.6863 18.6808 9.68073 32.3608 9.68073 49.2351Z" fill="url(#paint0_radial_1552_628)"/>
</g>
<mask id="mask1_1552_628" style="mask-type:luminance" maskUnits="userSpaceOnUse" x="7" y="15" width="122" height="69">
<path d="M7.2605 15.2015H128.269V83.2686H7.2605V15.2015Z" fill="white"/>
</mask>
<g mask="url(#mask1_1552_628)">
<path d="M67.7646 77.5208C98.5899 77.5208 123.58 64.8567 123.58 49.2349C123.58 33.6133 98.5899 20.949 67.7646 20.949C36.9392 20.949 11.9496 33.6133 11.9496 49.2349C11.9496 64.8567 36.9392 77.5208 67.7646 77.5208Z" fill="#777BB3"/>
</g>
<mask id="mask2_1552_628" style="mask-type:luminance" maskUnits="userSpaceOnUse" x="7" y="15" width="122" height="69">
<path d="M7.2605 15.2015H128.269V83.2686H7.2605V15.2015Z" fill="white"/>
</mask>
<g mask="url(#mask2_1552_628)">
<path d="M41.2383 52.7421C43.7729 52.7421 45.6651 52.2746 46.8624 51.3532C48.0468 50.4412 48.8649 48.8612 49.2937 46.6572C49.6935 44.5971 49.5412 43.1587 48.8412 42.3824C48.1254 41.5896 46.5779 41.1875 44.2418 41.1875H40.1912L37.9456 52.7421H41.2383ZM27.9898 66.9752C27.8017 66.9752 27.6232 66.8912 27.5036 66.7458C27.3839 66.6006 27.3353 66.4095 27.3713 66.2248L33.3225 35.6049C33.3801 35.3089 33.6395 35.095 33.9412 35.095H46.7677C50.7987 35.095 53.7991 36.1896 55.6851 38.3486C57.5811 40.519 58.1666 43.5528 57.4252 47.3656C57.1235 48.919 56.6046 50.3616 55.883 51.6532C55.1605 52.9463 54.2057 54.1427 53.0445 55.2099C51.6546 56.5108 50.0815 57.454 48.3731 58.0091C46.6918 58.5568 44.5326 58.8345 41.9555 58.8345H36.7618L35.2786 66.4651C35.221 66.7614 34.9618 66.9752 34.6601 66.9752H27.9898Z" fill="black"/>
<path d="M40.7108 41.8176H44.2419C47.0614 41.8176 48.0408 42.4363 48.3736 42.805C48.9257 43.4172 49.0299 44.7079 48.675 46.5375C48.2763 48.5859 47.5372 50.0382 46.478 50.8537C45.3935 51.6886 43.6305 52.1117 41.2383 52.1117H38.7101L40.7108 41.8176ZM46.7677 34.4647H33.941C33.3377 34.4647 32.819 34.8924 32.7039 35.4846L26.7526 66.1045C26.6808 66.474 26.7778 66.8562 27.0171 67.1467C27.2566 67.4373 27.6133 67.6053 27.9898 67.6053H34.6599C35.2635 67.6053 35.7822 67.1776 35.8973 66.5854L37.2814 59.4646H41.9555C44.5988 59.4646 46.824 59.1764 48.5687 58.6081C50.3631 58.0251 52.0139 57.0367 53.475 55.6703C54.6834 54.5585 55.6788 53.3106 56.433 51.9608C57.1874 50.6106 57.7294 49.105 58.0439 47.4857C58.8244 43.4722 58.1904 40.2584 56.1597 37.934C54.1488 35.6319 50.9887 34.4647 46.7677 34.4647ZM37.181 53.3722H41.2383C43.9276 53.3722 45.9307 52.8657 47.2469 51.8524C48.5633 50.839 49.4511 49.1476 49.9124 46.7775C50.3538 44.5018 50.1528 42.896 49.3093 41.9605C48.4647 41.025 46.7759 40.5571 44.2419 40.5571H39.6717L37.181 53.3722ZM46.7677 35.7252C50.6263 35.7252 53.4412 36.7378 55.2105 38.7632C56.9796 40.7886 57.5124 43.6157 56.8065 47.2453C56.516 48.7405 56.0246 50.1075 55.3328 51.3459C54.6402 52.5852 53.7357 53.7184 52.6181 54.7459C51.2862 55.9924 49.8066 56.8806 48.1784 57.4096C46.5503 57.94 44.4765 58.2041 41.9555 58.2041H36.2421L34.6599 66.3448H27.9898L33.941 35.7252H46.7677Z" fill="white"/>
<path d="M72.719 58.8345C72.5307 58.8345 72.3524 58.7504 72.2328 58.6051C72.1129 58.4599 72.0644 58.2689 72.1003 58.0841L74.7328 44.536C74.9833 43.2475 74.9215 42.3228 74.5591 41.932C74.3373 41.6931 73.6709 41.2925 71.7005 41.2925H66.9312L63.6213 58.3244C63.5638 58.6206 63.3043 58.8345 63.0026 58.8345H56.385C56.1968 58.8345 56.0184 58.7504 55.8986 58.6051C55.7789 58.4599 55.7304 58.2687 55.7663 58.0841L61.7175 27.4642C61.7751 27.1682 62.0346 26.9543 62.3362 26.9543H68.9539C69.1421 26.9543 69.3205 27.0383 69.4402 27.1835C69.56 27.3289 69.6085 27.5198 69.5726 27.7047L68.1364 35.095H73.2671C77.1757 35.095 79.8261 35.7841 81.3698 37.2018C82.9433 38.648 83.4343 40.9604 82.8292 44.0755L80.0603 58.3244C80.0028 58.6206 79.7435 58.8345 79.4417 58.8345H72.719Z" fill="black"/>
<path d="M68.9539 26.3239H62.3363C61.7327 26.3239 61.214 26.7517 61.0989 27.3439L55.1476 57.9638C55.0758 58.3333 55.1728 58.7154 55.4123 59.006C55.6518 59.2965 56.0086 59.4646 56.385 59.4646H63.0027C63.606 59.4646 64.1249 59.0369 64.24 58.4446L67.4508 41.9226H71.7005C73.6675 41.9226 74.0804 42.3428 74.097 42.3609C74.2163 42.4892 74.3732 43.0838 74.1142 44.4157L71.4816 57.9638C71.4098 58.3333 71.5068 58.7154 71.7463 59.006C71.9858 59.2965 72.3425 59.4646 72.719 59.4646H79.4417C80.045 59.4646 80.564 59.0369 80.6791 58.4446L83.4478 44.1957C84.0976 40.851 83.5417 38.342 81.7963 36.7378C80.1308 35.2082 77.3409 34.4647 73.2671 34.4647H68.9008L70.1913 27.825C70.2629 27.4554 70.1661 27.0731 69.9266 26.7828C69.6871 26.4922 69.3304 26.3239 68.9539 26.3239ZM68.9539 27.5844L67.3718 35.7252H73.2671C76.9766 35.7252 79.5352 36.3726 80.9434 37.6659C82.3516 38.96 82.7734 41.0569 82.2106 43.9554L79.4417 58.2041H72.719L75.3516 44.6562C75.6512 43.1151 75.5411 42.0638 75.0209 41.5033C74.5005 40.9428 73.3936 40.6621 71.7005 40.6621H66.4115L63.0027 58.2041H56.385L62.3363 27.5844H68.9539Z" fill="white"/>
<path d="M93.3002 52.7421C95.8348 52.7421 97.7271 52.2746 98.9243 51.3532C100.109 50.4414 100.927 48.8614 101.356 46.6572C101.756 44.5971 101.603 43.1587 100.903 42.3824C100.187 41.5896 98.6399 41.1875 96.3037 41.1875H92.2531L90.0075 52.7421H93.3002ZM80.0519 66.9752C79.8639 66.9752 79.6853 66.8912 79.5658 66.7458C79.446 66.6006 79.3973 66.4095 79.4332 66.2248L85.3844 35.6049C85.4422 35.3089 85.7015 35.095 86.0033 35.095H98.8296C102.861 35.095 105.861 36.1896 107.747 38.3486C109.643 40.5188 110.228 43.5526 109.487 47.3656C109.185 48.919 108.667 50.3616 107.945 51.6532C107.222 52.9463 106.268 54.1427 105.106 55.2099C103.717 56.5108 102.143 57.454 100.435 58.0091C98.7537 58.5568 96.5945 58.8345 94.0174 58.8345H88.8235L87.341 66.4651C87.2832 66.7614 87.0239 66.9752 86.722 66.9752H80.0519Z" fill="black"/>
<path d="M92.7727 41.8176H96.3038C99.1233 41.8176 100.103 42.4363 100.435 42.805C100.988 43.4172 101.092 44.7079 100.737 46.5373C100.338 48.5859 99.5989 50.0382 98.5399 50.8537C97.4555 51.6886 95.6924 52.1117 93.3002 52.1117H90.7723L92.7727 41.8176ZM98.8296 34.4647H86.0032C85.3998 34.4647 84.8811 34.8924 84.766 35.4846L78.8148 66.1045C78.7429 66.474 78.84 66.8562 79.0792 67.1467C79.3187 67.4373 79.6755 67.6053 80.0519 67.6053H86.7221C87.3254 67.6053 87.8443 67.1776 87.9595 66.5854L89.3433 59.4646H94.0174C96.6607 59.4646 98.8859 59.1764 100.631 58.6081C102.425 58.0251 104.076 57.0365 105.537 55.6699C106.746 54.5583 107.741 53.3106 108.495 51.9608C109.249 50.6106 109.791 49.105 110.106 47.4857C110.886 43.472 110.252 40.2582 108.222 37.9338C106.211 35.6319 103.051 34.4647 98.8296 34.4647ZM89.2431 53.3722H93.3002C95.9895 53.3722 97.9926 52.8657 99.3088 51.8524C100.625 50.839 101.513 49.1476 101.974 46.7775C102.416 44.5018 102.215 42.896 101.371 41.9605C100.527 41.025 98.8378 40.5571 96.3038 40.5571H91.7336L89.2431 53.3722ZM98.8296 35.7252C102.688 35.7252 105.503 36.7378 107.272 38.7632C109.042 40.7886 109.574 43.6157 108.868 47.2453C108.578 48.7405 108.087 50.1075 107.395 51.3459C106.702 52.5852 105.798 53.7184 104.68 54.7459C103.348 55.9924 101.868 56.8806 100.24 57.4096C98.6122 57.94 96.5384 58.2041 94.0174 58.2041H88.304L86.7221 66.3448H80.0519L86.0032 35.7252H98.8296Z" fill="white"/>
</g>
</g>
<defs>
<radialGradient id="paint0_radial_1552_628" cx="0" cy="0" r="1" gradientUnits="userSpaceOnUse" gradientTransform="translate(44.5546 29.4227) scale(76.2725)">
<stop stop-color="#AEB2D5"/>
<stop offset="0.3" stop-color="#AEB2D5"/>
<stop offset="0.75" stop-color="#484C89"/>
<stop offset="1" stop-color="#484C89"/>
</radialGradient>
<clipPath id="clip0_1552_628">
<rect width="119.529" height="64.47" fill="white" transform="translate(8 17)"/>
</clipPath>
</defs>
</svg>
