<svg width="133" height="48" viewBox="0 0 133 48" fill="none" xmlns="http://www.w3.org/2000/svg">
<path d="M14.635 6H0V41L14.635 6Z" fill="#FA0C00"/>
<path d="M24.9316 6H39.5476V41L24.9316 6Z" fill="#FA0C00"/>
<path d="M19.7842 18.8999L29.0991 41.0001H22.9876L20.2037 33.9639H13.3867L19.7842 18.8999Z" fill="#FA0C00"/>
<path d="M63.4236 28.2577L65.1493 33.2059C65.2065 33.3298 65.2923 33.3871 65.4448 33.3871H68.7627C68.9439 33.3871 68.9725 33.3012 68.9439 33.1201L62.0888 14.0803C62.0602 13.9278 62.0316 13.8992 61.879 13.8992H57.7603C57.6459 13.8992 57.5791 13.985 57.5791 14.1089C57.5219 15.11 57.4361 15.4151 57.3122 15.7107L51.2007 33.0915C51.1721 33.3012 51.2389 33.3871 51.4105 33.3871H54.3756C54.5568 33.3871 54.6426 33.3298 54.7093 33.1487L56.3397 28.2577H63.4236ZM57.2836 25.0256C58.1798 22.3179 59.362 18.8474 59.8387 16.8643H59.8673C60.4584 18.9428 61.8504 23.0615 62.4797 25.0256H57.2836Z" fill="#FA0C00"/>
<path d="M77.7572 33.6828C79.5401 33.6828 81.4374 33.3587 83.3633 32.5292C83.5158 32.472 83.5444 32.4052 83.5444 32.2622C83.4872 31.7283 83.4205 30.956 83.4205 30.3649V12.4407C83.4205 12.3262 83.4205 12.269 83.2775 12.269H80.0454C79.9215 12.269 79.8643 12.3262 79.8643 12.4788V18.5521C79.3589 18.4949 79.0062 18.4663 78.5867 18.4663C73.3715 18.4663 70.168 21.9081 70.168 26.208C70.168 31.1944 73.4573 33.6828 77.7572 33.6828V33.6828ZM79.8642 30.3649C79.3303 30.5365 78.7392 30.6033 78.1386 30.6033C75.7741 30.6033 73.8386 29.2685 73.8386 26.0269C73.8386 23.1571 75.8313 21.46 78.4723 21.46C79.0062 21.46 79.4733 21.5172 79.8642 21.6698V30.3649Z" fill="#FA0C00"/>
<path d="M93.8553 18.4661C89.4028 18.4661 86.6475 21.8793 86.6475 26.0934C86.6475 29.8594 88.8403 33.6826 93.7886 33.6826C97.9741 33.6826 100.911 30.6031 100.911 25.9981C100.911 21.9365 98.4222 18.4661 93.8553 18.4661ZM93.6742 21.4598C96.1912 21.4598 97.259 23.6241 97.259 26.0934C97.259 29.1444 95.6859 30.6603 93.8553 30.6603C91.5957 30.6603 90.2609 28.763 90.2609 26.0267C90.2609 23.2141 91.6815 21.4598 93.6742 21.4598V21.4598Z" fill="#FA0C00"/>
<path d="M104.252 12.269C104.128 12.269 104.042 12.3262 104.042 12.4788V32.7675C104.042 32.8534 104.128 33.0059 104.252 33.0345C105.672 33.4731 107.16 33.6828 108.695 33.6828C113.09 33.6828 117.361 30.956 117.361 25.4644C117.361 21.4886 114.634 18.4663 110.363 18.4663C109.381 18.4663 108.466 18.6188 107.665 18.8858L107.627 12.5074C107.627 12.2976 107.57 12.269 107.36 12.269H104.252ZM113.71 25.8267C113.71 29.1159 111.46 30.6605 109.028 30.6605C108.523 30.6605 108.075 30.6319 107.665 30.5079V21.8509C108.132 21.6698 108.695 21.5172 109.734 21.5172C112.079 21.5172 113.71 23.0045 113.71 25.8267Z" fill="#FA0C00"/>
<path d="M129.423 26.8943C130.872 26.8943 132.064 26.8657 132.474 26.7703C132.627 26.7417 132.684 26.6845 132.713 26.5606C132.798 26.2364 132.836 25.5595 132.836 24.73C132.836 21.9079 131.139 18.4661 126.754 18.4661C122.273 18.4661 119.784 22.1177 119.784 26.2364C119.784 29.888 121.71 33.6826 127.106 33.6826C129.128 33.6826 130.434 33.3585 131.559 32.8246C131.673 32.7673 131.73 32.672 131.73 32.5004V30.031C131.73 29.888 131.645 29.8594 131.559 29.9166C130.434 30.3933 129.213 30.6317 127.879 30.6317C124.856 30.6317 123.483 28.9632 123.398 26.8943H129.423ZM123.398 24.3391C123.636 22.8899 124.551 21.3168 126.601 21.3168C128.861 21.3168 129.452 23.2141 129.452 24.0722C129.452 24.1008 129.452 24.2247 129.452 24.3105C129.328 24.3391 128.947 24.3391 127.821 24.3391H123.398Z" fill="#FA0C00"/>
</svg>
