<svg width="82" height="48" viewBox="0 0 82 48" fill="none" xmlns="http://www.w3.org/2000/svg">
<path d="M23.6348 16.7063C23.6348 17.6529 23.7384 18.4204 23.9196 18.9833C24.1268 19.5461 24.3858 20.1601 24.7483 20.8253C24.8778 21.03 24.9296 21.2347 24.9296 21.4138C24.9296 21.6696 24.7742 21.9254 24.4376 22.1813L22.8061 23.2558C22.5731 23.4093 22.34 23.4861 22.1328 23.4861C21.8739 23.4861 21.6149 23.3581 21.3559 23.1279C20.9934 22.7441 20.6826 22.3348 20.4237 21.9254C20.1647 21.4905 19.9058 21.0044 19.6209 20.416C17.601 22.7697 15.0632 23.9466 12.0075 23.9466C9.83225 23.9466 8.09722 23.3326 6.82832 22.1045C5.55942 20.8765 4.91202 19.2391 4.91202 17.1924C4.91202 15.0178 5.6889 13.2525 7.26855 11.9221C8.8482 10.5918 10.9458 9.92657 13.6131 9.92657C14.4935 9.92657 15.3999 10.0033 16.358 10.1312C17.3162 10.2592 18.3002 10.4638 19.3361 10.6941V8.82646C19.3361 6.88208 18.9217 5.52613 18.1189 4.73303C17.2903 3.93993 15.8919 3.55617 13.8979 3.55617C12.9916 3.55617 12.0593 3.6585 11.1011 3.88876C10.143 4.11901 9.21074 4.40044 8.30439 4.75861C7.89005 4.9377 7.5793 5.04004 7.39803 5.0912C7.21676 5.14237 7.08728 5.16796 6.98369 5.16796C6.62115 5.16796 6.43988 4.91212 6.43988 4.37485V3.12124C6.43988 2.7119 6.49167 2.40489 6.62115 2.2258C6.75063 2.04672 6.98369 1.86763 7.34624 1.68854C8.25259 1.22803 9.34022 0.84427 10.6091 0.537263C11.878 0.204672 13.2246 0.0511679 14.6489 0.0511679C17.7305 0.0511679 19.9835 0.741934 21.4336 2.12347C22.8579 3.505 23.583 5.60288 23.583 8.41712V16.7063H23.6348ZM13.121 20.5951C13.9756 20.5951 14.8561 20.4416 15.7883 20.1346C16.7206 19.8276 17.5492 19.2647 18.2484 18.4972C18.6628 18.0111 18.9735 17.4738 19.1289 16.8598C19.2843 16.2458 19.3879 15.5039 19.3879 14.634V13.5595C18.6369 13.3804 17.8341 13.2269 17.0054 13.1246C16.1768 13.0222 15.374 12.9711 14.5712 12.9711C12.8362 12.9711 11.5673 13.3037 10.7127 13.9944C9.85814 14.6852 9.44381 15.6574 9.44381 16.9366C9.44381 18.139 9.75456 19.0345 10.402 19.6485C11.0235 20.2881 11.9298 20.5951 13.121 20.5951ZM33.9155 23.3581C33.4493 23.3581 33.1386 23.2814 32.9314 23.1023C32.7243 22.9488 32.543 22.5906 32.3876 22.1045L26.3021 2.32814C26.1467 1.81646 26.069 1.48387 26.069 1.30478C26.069 0.895438 26.2762 0.665183 26.6905 0.665183H29.2283C29.7203 0.665183 30.057 0.741934 30.2383 0.921022C30.4454 1.07453 30.6008 1.4327 30.7562 1.9188L35.1067 18.8554L39.1465 1.9188C39.2759 1.40712 39.4313 1.07453 39.6385 0.921022C39.8456 0.767518 40.2082 0.665183 40.6743 0.665183H42.746C43.238 0.665183 43.5747 0.741934 43.7818 0.921022C43.989 1.07453 44.1703 1.4327 44.2739 1.9188L48.3654 19.06L52.8454 1.9188C53.0008 1.40712 53.1821 1.07453 53.3633 0.921022C53.5705 0.767518 53.9071 0.665183 54.3733 0.665183H56.7816C57.1959 0.665183 57.429 0.869854 57.429 1.30478C57.429 1.4327 57.4031 1.56062 57.3772 1.71412C57.3513 1.86763 57.2995 2.0723 57.1959 2.35372L50.955 22.1301C50.7996 22.6418 50.6184 22.9744 50.4112 23.1279C50.204 23.2814 49.8674 23.3837 49.4271 23.3837H47.2001C46.7081 23.3837 46.3714 23.307 46.1643 23.1279C45.9571 22.9488 45.7758 22.6162 45.6722 22.1045L41.6584 5.60288L37.6704 22.0789C37.5409 22.5906 37.3855 22.9232 37.1784 23.1023C36.9712 23.2814 36.6087 23.3581 36.1425 23.3581H33.9155ZM67.1918 24.0489C65.8452 24.0489 64.4986 23.8954 63.2038 23.5884C61.909 23.2814 60.899 22.9488 60.2258 22.565C59.8114 22.3348 59.5266 22.0789 59.423 21.8487C59.3194 21.6184 59.2676 21.3626 59.2676 21.1323V19.8276C59.2676 19.2903 59.4748 19.0345 59.8632 19.0345C60.0186 19.0345 60.174 19.06 60.3293 19.1112C60.4847 19.1624 60.7178 19.2647 60.9767 19.367C61.8572 19.7508 62.8153 20.0578 63.8253 20.2625C64.8611 20.4672 65.8711 20.5695 66.9069 20.5695C68.5384 20.5695 69.8073 20.2881 70.6877 19.7252C71.5682 19.1624 72.0343 18.3437 72.0343 17.2947C72.0343 16.5784 71.8012 15.99 71.3351 15.5039C70.869 15.0178 69.9885 14.5828 68.7196 14.1735L64.9647 13.0222C63.0743 12.4338 61.6759 11.5639 60.8214 10.4127C59.9668 9.28697 59.5266 8.03336 59.5266 6.70299C59.5266 5.62847 59.7596 4.68186 60.2258 3.86318C60.6919 3.04449 61.3134 2.32814 62.0903 1.76529C62.8671 1.17686 63.7476 0.741934 64.7834 0.434927C65.8193 0.12792 66.9069 0 68.0463 0C68.616 0 69.2116 0.0255839 69.7814 0.102336C70.377 0.179088 70.9208 0.281423 71.4646 0.383759C71.9825 0.511679 72.4745 0.639599 72.9407 0.793102C73.4068 0.946606 73.7693 1.10011 74.0283 1.25361C74.3908 1.45828 74.6498 1.66296 74.8052 1.89321C74.9605 2.09788 75.0382 2.37931 75.0382 2.73748V3.93993C75.0382 4.47719 74.8311 4.75861 74.4426 4.75861C74.2355 4.75861 73.8988 4.65628 73.4586 4.45161C71.9825 3.78642 70.3252 3.45383 68.4866 3.45383C67.0105 3.45383 65.8452 3.68409 65.0424 4.17018C64.2396 4.65628 63.8253 5.39821 63.8253 6.44715C63.8253 7.1635 64.0843 7.77752 64.6022 8.26361C65.1201 8.74971 66.0782 9.2358 67.4507 9.67073L71.1279 10.822C72.9925 11.4104 74.339 12.2291 75.1418 13.2781C75.9446 14.327 76.333 15.5295 76.333 16.8598C76.333 17.9599 76.1 18.9577 75.6597 19.8276C75.1936 20.6974 74.5721 21.4649 73.7693 22.0789C72.9666 22.7185 72.0084 23.1791 70.8949 23.5116C69.7296 23.8698 68.5125 24.0489 67.1918 24.0489Z" fill="#252F3E"/>
<path fill-rule="evenodd" clip-rule="evenodd" d="M72.0861 36.4828C63.5663 42.6997 51.1881 46 40.5448 46C25.6288 46 12.1888 40.5507 2.03757 31.4939C1.23479 30.7776 1.95988 29.8054 2.91803 30.3683C13.8979 36.6619 27.4415 40.4739 41.4512 40.4739C50.9032 40.4739 61.2875 38.5295 70.8431 34.5384C72.2674 33.8988 73.4845 35.4595 72.0861 36.4828Z" fill="#FF9900"/>
<path fill-rule="evenodd" clip-rule="evenodd" d="M75.6338 32.4917C74.5462 31.1102 68.4348 31.8265 65.6639 32.1591C64.8352 32.2615 64.7058 31.5451 65.4567 31.0079C70.3252 27.6308 78.327 28.603 79.2593 29.7287C80.1915 30.8799 79.0003 38.7854 74.4426 42.5718C73.7434 43.1602 73.0701 42.8532 73.3809 42.0857C74.4167 39.5529 76.7215 33.8477 75.6338 32.4917Z" fill="#FF9900"/>
</svg>
