<svg width="191" height="48" viewBox="0 0 191 48" fill="none" xmlns="http://www.w3.org/2000/svg">
<path d="M42.1547 15.9337C35.6471 15.9337 30.5623 20.8739 30.5623 27.4872C30.5623 34.1005 35.5185 38.9984 42.1547 38.9984C48.7908 38.9984 53.8333 34.016 53.8333 27.4449C53.8333 20.9161 48.8769 15.9337 42.1547 15.9337ZM42.1985 34.2323C38.4927 34.2323 35.7771 31.3541 35.7771 27.4888C35.7771 23.5797 38.4488 20.7032 42.1547 20.7032C45.9044 20.7032 48.6184 23.6236 48.6184 27.4888C48.6184 31.3541 45.9044 34.2323 42.1985 34.2323ZM55.2545 20.96H58.4869V38.5707H63.658V16.3631H55.2545V20.96ZM17.5485 20.7015C20.2641 20.7015 22.4187 22.3764 23.2367 24.8676H28.7101C27.7181 19.5421 23.3228 15.9337 17.5925 15.9337C11.0848 15.9337 6 20.8739 6 27.4888C6 34.1037 10.9563 39 17.5925 39C23.1944 39 27.6759 35.3917 28.6677 30.0223H23.2367C22.4609 32.5135 20.3064 34.2323 17.5909 34.2323C13.8411 34.2323 11.2133 31.3541 11.2133 27.4888C11.2149 23.5797 13.8004 20.7015 17.5485 20.7015ZM153.507 25.3408L149.715 24.7831C147.905 24.5261 146.612 23.9244 146.612 22.5065C146.612 20.96 148.293 20.1876 150.576 20.1876C153.076 20.1876 154.671 21.2609 155.016 23.022H160.015C159.453 18.5551 156.005 15.9355 150.707 15.9355C145.233 15.9355 141.613 18.7275 141.613 22.6788C141.613 26.4579 143.984 28.6499 148.767 29.3361L152.559 29.8939C154.412 30.1508 155.447 30.8825 155.447 32.2565C155.447 34.0176 153.637 34.7477 151.137 34.7477C148.077 34.7477 146.353 33.5021 146.095 31.6127H141.009C141.485 35.9511 144.888 39 151.093 39C156.74 39 160.488 36.4227 160.488 31.998C160.488 28.0465 157.773 25.9847 153.507 25.3408ZM61.0725 7.21467C59.1765 7.21467 57.754 8.58867 57.754 10.4783C57.754 12.3677 59.1749 13.7417 61.0725 13.7417C62.9685 13.7417 64.3915 12.3677 64.3915 10.4783C64.3915 8.58867 62.9685 7.21467 61.0725 7.21467ZM136.959 23.9667C136.959 19.1567 134.029 15.9355 127.824 15.9355C121.963 15.9355 118.689 18.8999 118.041 23.4528H123.17C123.429 21.6919 124.807 20.2316 127.738 20.2316C130.367 20.2316 131.66 21.3909 131.66 22.8089C131.66 24.6563 129.289 25.1277 126.359 25.4287C122.395 25.8579 117.482 27.2319 117.482 32.3867C117.482 36.382 120.456 38.9577 125.197 38.9577C128.902 38.9577 131.229 37.4113 132.393 34.9624C132.566 37.1528 134.203 38.5707 136.488 38.5707H139.504V33.9753H136.961V23.9667H136.959ZM131.874 29.5508C131.874 32.5151 129.289 34.7055 126.143 34.7055C124.203 34.7055 122.565 33.8892 122.565 32.172C122.565 29.9816 125.195 29.38 127.608 29.1231C129.935 28.9084 131.227 28.3929 131.874 27.4043V29.5508ZM104.425 15.9337C101.537 15.9337 99.1235 17.1371 97.4 19.1551V7H92.2289V38.5707H97.3135V35.6503C99.0369 37.7544 101.495 39 104.425 39C110.629 39 115.327 34.1037 115.327 27.4888C115.327 20.8739 110.543 15.9337 104.425 15.9337ZM103.649 34.2323C99.9429 34.2323 97.2275 31.3541 97.2275 27.4888C97.2275 23.6236 99.9855 20.7032 103.691 20.7032C107.441 20.7032 110.069 23.5813 110.069 27.4888C110.069 31.3541 107.355 34.2323 103.649 34.2323ZM79.8605 15.9337C76.4995 15.9337 74.3009 17.3079 73.0085 19.2412V16.3631H67.8795V38.5691H73.0505V26.5003C73.0505 23.1065 75.2049 20.7015 78.394 20.7015C81.368 20.7015 83.22 22.8057 83.22 25.8563V38.5707H88.3909V25.4708C88.3929 19.8852 85.5065 15.9337 79.8605 15.9337ZM185.137 26.7588C185.137 20.4023 180.484 15.9355 174.235 15.9355C167.599 15.9355 162.728 20.9177 162.728 27.4888C162.728 34.4047 167.943 39 174.321 39C179.708 39 183.931 35.8211 185.008 31.3119H179.62C178.844 33.2875 176.948 34.4047 174.405 34.4047C171.087 34.4047 168.587 32.3428 168.028 28.7344H185.136L185.137 26.7588ZM168.329 25.04C169.149 21.9471 171.476 20.4447 174.148 20.4447C177.079 20.4447 179.32 22.1195 179.836 25.04H168.329Z" fill="#0052FF"/>
</svg>
