<svg width="252" height="50" viewBox="0 0 252 50" fill="none" xmlns="http://www.w3.org/2000/svg">
<path d="M32.2783 10.0198L18.1392 19.0396L32.2783 28.0594L18.1392 37.0792L4 28.0107L18.1392 18.9909L4 10.0198L18.1392 1L32.2783 10.0198ZM18.066 39.9802L32.2052 30.9604L46.3443 39.9802L32.2052 49L18.066 39.9802ZM32.2783 28.0107L46.4175 18.9909L32.2783 10.0198L46.3443 1L60.4835 10.0198L46.3443 19.0396L60.4835 28.0594L46.3443 37.0792L32.2783 28.0107Z" fill="#0061FF"/>
<path d="M71.5754 10.0199H83.0087C90.2976 10.0199 96.319 14.2373 96.319 23.8665V25.8899C96.319 35.5923 90.6877 39.9559 83.2281 39.9559H71.5754V10.0199ZM77.9624 15.4562V34.4953H82.8624C87.0066 34.4953 89.7857 31.7893 89.7857 25.768V24.1834C89.7857 18.1621 86.8604 15.4562 82.643 15.4562H77.9624ZM99.7075 15.7487H104.827L105.656 21.38C106.631 17.5526 109.117 15.5049 113.627 15.5049H115.212V21.965H112.579C107.387 21.965 106.119 23.769 106.119 28.8884V40.029H99.805V15.7487H99.7075ZM116.479 28.3764V27.6938C116.479 19.576 121.672 15.1392 128.742 15.1392C135.957 15.1392 141.004 19.576 141.004 27.6938V28.3764C141.004 36.348 136.104 40.6385 128.742 40.6385C120.916 40.5653 116.479 36.3724 116.479 28.3764ZM134.543 28.3033V27.6938C134.543 23.1839 132.276 20.478 128.668 20.478C125.134 20.478 122.793 22.9645 122.793 27.6938V28.3033C122.793 32.6669 125.06 35.1535 128.668 35.1535C132.276 35.0803 134.543 32.6669 134.543 28.3033ZM144.319 15.7487H149.585L150.194 20.3317C151.462 17.2601 154.168 15.1392 158.166 15.1392C164.333 15.1392 168.404 19.576 168.404 27.7913V28.4739C168.404 36.4455 163.894 40.6629 158.166 40.6629C154.338 40.6629 151.705 38.932 150.413 36.153V48.415H144.246L144.319 15.7487ZM161.993 28.3033V27.767C161.993 22.9402 159.506 20.5511 156.191 20.5511C152.656 20.5511 150.316 23.2571 150.316 27.767V28.2301C150.316 32.5207 152.583 35.2266 156.118 35.2266C159.75 35.1535 161.993 32.8376 161.993 28.3033ZM177.741 35.5435L177.205 39.9803H171.793V7.63086H177.96V20.0392C179.326 16.8701 182.032 15.1392 185.859 15.1392C191.661 15.2124 195.951 19.2103 195.951 27.255V28.0107C195.951 36.0554 191.88 40.6629 185.713 40.6629C181.641 40.5653 179.009 38.6882 177.741 35.5435ZM189.467 28.0107V27.4013C189.467 22.9645 187.053 20.478 183.665 20.478C180.203 20.478 177.79 23.2571 177.79 27.4744V28.0107C177.79 32.5207 180.13 35.1535 183.592 35.1535C187.297 35.1535 189.467 32.8376 189.467 28.0107ZM198.657 28.3764V27.6938C198.657 19.576 203.85 15.1392 210.919 15.1392C218.135 15.1392 223.181 19.576 223.181 27.6938V28.3764C223.181 36.348 218.208 40.6385 210.919 40.6385C203.094 40.5653 198.657 36.3724 198.657 28.3764ZM216.77 28.3033V27.6938C216.77 23.1839 214.503 20.478 210.895 20.478C207.36 20.478 205.02 22.9645 205.02 27.6938V28.3033C205.02 32.6669 207.287 35.1535 210.895 35.1535C214.527 35.0803 216.77 32.6669 216.77 28.3033ZM231.445 27.4013L222.938 15.7487H230.227L235.126 23.0377L240.1 15.7487H247.315L238.686 27.3282L247.779 39.9803H240.636L235.078 31.9356L229.666 39.9803H222.206L231.445 27.4013Z" fill="black"/>
</svg>
