<svg width="100" height="48" viewBox="0 0 100 48" fill="none" xmlns="http://www.w3.org/2000/svg">
<g clip-path="url(#clip0_256_290)">
<path d="M7.97917 47.8334C12.3625 47.8334 15.9208 44.2751 15.9208 39.8917V31.9501H7.97917C3.59584 31.9501 0.0375071 35.5084 0.0375071 39.8917C0.0375071 44.2751 3.59584 47.8334 7.97917 47.8334Z" fill="#0ACF83"/>
<path d="M0.0291748 24.0001C0.0291748 19.6167 3.58751 16.0584 7.97084 16.0584H15.9125V31.9501H7.97084C3.58751 31.9501 0.0291748 28.3917 0.0291748 24.0084V24.0001Z" fill="#A259FF"/>
<path d="M0.0291748 8.10841C0.0291748 3.72508 3.58751 0.166748 7.97084 0.166748H15.9125V16.0584H7.97084C3.58751 16.0584 0.0291748 12.5001 0.0291748 8.11675V8.10841Z" fill="#F24E1E"/>
<path d="M15.8458 0.166748H23.7875C28.1708 0.166748 31.7292 3.72508 31.7292 8.10841C31.7292 12.4917 28.1708 16.0501 23.7875 16.0501H15.8458V0.166748Z" fill="#FF7262"/>
<path d="M31.8125 24.0001C31.8125 28.3834 28.2542 31.9417 23.8708 31.9417C19.4875 31.9417 15.8458 28.3834 15.8458 24.0001C15.8458 19.6167 19.4042 16.0584 23.7875 16.0584C28.1708 16.0584 31.7292 19.6167 31.7292 24.0001H31.8125Z" fill="#1ABCFE"/>
<path d="M40.4958 13.3333V29.9832H42.6375V22.0333H47.7875V19.9666H42.6375V15.4166H49.3292V13.3333H40.4958ZM53.2042 16.7166C53.9792 16.7166 54.6042 16.0916 54.6042 15.3166C54.6042 14.5416 53.9709 13.9999 53.2042 13.9999C52.4375 13.9999 51.8042 14.6249 51.8042 15.3999C51.8042 15.7749 51.9542 16.1249 52.2208 16.3999C52.4875 16.6749 52.8375 16.8166 53.2208 16.8166L53.2042 16.7166ZM52.1208 18.8166V29.9832H54.1792V18.8166H52.0542H52.1208ZM62.2208 18.4833C59.3708 18.4833 57.3875 20.9833 57.3875 23.7499C57.3875 26.5166 59.3875 28.9999 62.2208 28.9999C62.8104 29.0102 63.3957 28.8978 63.9394 28.6697C64.4831 28.4415 64.9735 28.1028 65.3792 27.6749V29.1583C65.3732 30.0495 65.0275 30.9049 64.4125 31.5499C64.1018 31.8669 63.731 32.1186 63.3217 32.2903C62.9124 32.462 62.473 32.5503 62.0292 32.5499C61.3477 32.5284 60.6873 32.3083 60.1292 31.9166L59.0459 33.7749C59.8778 34.31 60.8386 34.6107 61.8272 34.6456C62.8157 34.6804 63.7953 34.448 64.6629 33.9729C65.5304 33.4977 66.2538 32.7974 66.7567 31.9457C67.2597 31.094 67.5237 30.1224 67.5208 29.1333V18.7999H65.3792V19.7999C64.9735 19.3721 64.4831 19.0333 63.9394 18.8052C63.3957 18.5771 62.8104 18.4729 62.2208 18.4833ZM59.5375 23.7499C59.4887 23.2081 59.5924 22.6635 59.8368 22.1776C60.0813 21.6916 60.4568 21.2837 60.9208 20.9999C61.8708 20.4166 63.0625 20.4166 64.0042 20.9999C64.9458 21.5833 65.4792 22.6499 65.3875 23.7499C65.4363 24.2917 65.3326 24.8363 65.0882 25.3223C64.8437 25.8082 64.4683 26.2161 64.0042 26.4999C63.0542 27.0833 61.8625 27.0833 60.9208 26.4999C59.9792 25.9166 59.4459 24.8499 59.5375 23.7499Z" fill="black"/>
<path d="M75.2458 20.6666C74.6299 20.6688 74.0398 20.9144 73.6043 21.35C73.1687 21.7855 72.923 22.3756 72.9208 22.9916V30.0583H70.7792V18.8916H72.9208V19.8333C73.5708 18.9666 74.6042 18.4666 75.6875 18.4833C77.0542 18.4499 78.3292 19.1833 79.0042 20.3749C79.8375 19.2083 81.0375 18.4999 82.3375 18.4833C84.7792 18.4833 86.2958 20.4499 86.3042 22.8833V29.9916H84.1625V22.9083C84.2253 22.467 84.1604 22.017 83.9755 21.6115C83.7905 21.206 83.4934 20.8619 83.1191 20.62C82.7448 20.3781 82.309 20.2484 81.8633 20.2463C81.4177 20.2442 80.9807 20.3698 80.6042 20.6083C80.2297 20.8524 79.9333 21.1989 79.7501 21.6067C79.5669 22.0144 79.5047 22.4662 79.5708 22.9083V29.9749H77.5125V22.9166C77.5103 22.3006 77.2647 21.7105 76.8291 21.275C76.3936 20.8394 75.8035 20.5938 75.1875 20.5916L75.2458 20.6666ZM97.7458 20.0833C97.2584 19.5746 96.672 19.171 96.0228 18.8973C95.3737 18.6235 94.6754 18.4855 93.9708 18.4916C90.7792 18.4916 88.5542 21.1916 88.5542 24.3249C88.5542 27.4583 90.8042 30.1583 93.9708 30.1583C94.6754 30.1643 95.3737 30.0263 96.0228 29.7526C96.672 29.4789 97.2584 29.0753 97.7458 28.5666V29.8333H99.8875V18.6666H97.7458V20.0833ZM90.6625 24.4166C90.5542 23.0833 91.2042 21.7999 92.3458 21.0999C93.4875 20.3999 94.8458 20.3999 96.0625 21.0999C96.6197 21.4458 97.0714 21.9379 97.3682 22.5227C97.665 23.1076 97.7956 23.7626 97.7458 24.4166C97.8542 25.7499 97.2042 27.0332 96.0625 27.7332C94.9208 28.4332 93.5625 28.4332 92.3458 27.7332C91.7886 27.3874 91.337 26.8952 91.0402 26.3104C90.7433 25.7256 90.6127 25.0705 90.6625 24.4166Z" fill="black"/>
</g>
<defs>
<clipPath id="clip0_256_290">
<rect width="100" height="48" fill="white"/>
</clipPath>
</defs>
</svg>
