<svg width="139" height="48" viewBox="0 0 139 48" fill="none" xmlns="http://www.w3.org/2000/svg">
<path d="M97.6671 13.0283H94.7227L94.7362 34.976H106.662V32.2612H97.6806L97.6671 13.0283Z" fill="#8C929D"/>
<path d="M118.011 31.1244C117.268 31.8943 116.039 32.6642 114.365 32.6642C112.123 32.6642 111.218 31.5566 111.218 30.1115C111.218 27.937 112.73 26.897 115.945 26.897C116.553 26.897 117.525 26.9645 118.025 27.0591V31.1244H118.011ZM114.959 17.8208C112.582 17.8208 110.394 18.6582 108.692 20.0763L109.732 21.8862C110.934 21.1839 112.406 20.4815 114.527 20.4815C116.944 20.4815 118.011 21.7241 118.011 23.8041V24.8711C117.539 24.7765 116.566 24.709 115.972 24.709C110.812 24.709 108.192 26.5188 108.192 30.3006C108.192 33.6906 110.272 35.3924 113.419 35.3924C115.54 35.3924 117.579 34.42 118.281 32.8397L118.822 34.9872H120.902V23.75C120.888 20.1979 119.348 17.8208 114.959 17.8208Z" fill="#8C929D"/>
<path d="M130.402 32.7648C129.294 32.7648 128.322 32.6298 127.592 32.2921V23.2024V22.1489C128.592 21.3115 129.834 20.7038 131.415 20.7038C134.265 20.7038 135.359 22.7162 135.359 25.9712C135.359 30.5903 133.589 32.7648 130.402 32.7648ZM131.644 17.8269C129.011 17.8269 127.592 19.6233 127.592 19.6233V16.787L127.579 13.0322H126.255H124.702L124.716 34.4396C126.161 35.0474 128.133 35.3715 130.28 35.3715C135.777 35.3715 138.424 31.8599 138.424 25.7956C138.411 21.0009 135.966 17.8269 131.644 17.8269Z" fill="#8C929D"/>
<path d="M65.6091 15.4097C68.2158 15.4097 69.9041 16.2741 70.9981 17.152L72.2677 14.9505C70.5524 13.4378 68.2293 12.6274 65.7442 12.6274C59.4773 12.6274 55.0877 16.4497 55.0877 24.1618C55.0877 32.2385 59.8284 35.3854 65.2444 35.3854C67.9592 35.3854 70.2687 34.7507 71.7814 34.1159L71.7139 25.4854V24.4724V22.7706H63.6777V25.4854H68.8101L68.8776 32.0359C68.2023 32.3736 67.0408 32.6437 65.4605 32.6437C61.1115 32.6437 58.1942 29.9019 58.1942 24.1348C58.1807 18.2595 61.1926 15.4097 65.6091 15.4097Z" fill="#8C929D"/>
<path d="M86.3447 13.0254H83.4679L83.4814 16.7126V18.2253V19.1032V20.6429V29.422V29.449C83.4814 33.0011 85.0211 35.3782 89.4106 35.3782C90.0184 35.3782 90.6127 35.3242 91.18 35.2161V32.6364C90.7613 32.704 90.3156 32.731 89.8428 32.731C87.4252 32.731 86.3582 31.4884 86.3582 29.4085V20.6294H91.18V18.2253H86.3582L86.3447 13.0254Z" fill="#8C929D"/>
<path d="M76.1517 34.9758H79.0285V18.228H76.1517V34.9758Z" fill="#8C929D"/>
<path d="M76.1517 15.9188H79.0285V13.042H76.1517V15.9188Z" fill="#8C929D"/>
<path d="M23.7986 44.9976L32.1994 19.1572H15.41L23.7986 44.9976Z" fill="#E24329"/>
<path d="M3.64341 19.1572L1.0852 27.0079C0.853702 27.7207 1.1037 28.5076 1.71472 28.9519L23.7986 44.9975L3.64341 19.1572Z" fill="#FCA326"/>
<path d="M3.6434 19.1571H15.41L10.346 3.5947C10.0868 2.79851 8.9573 2.79851 8.68879 3.5947L3.6434 19.1571Z" fill="#E24329"/>
<path d="M43.9661 19.1572L46.5151 27.0079C46.7466 27.7207 46.4966 28.5076 45.8856 28.9519L23.7987 44.9976L43.9661 19.1572Z" fill="#FCA326"/>
<path d="M43.966 19.1571H32.1994L37.2541 3.5947C37.5133 2.79851 38.6428 2.79851 38.9113 3.5947L43.966 19.1571Z" fill="#E24329"/>
<path d="M23.7987 44.9976L32.1994 19.1572H43.9661L23.7987 44.9976Z" fill="#FC6D26"/>
<path d="M23.7986 44.9976L3.6434 19.1572H15.41L23.7986 44.9976Z" fill="#FC6D26"/>
</svg>
