<svg width="121" height="48" viewBox="0 0 121 48" fill="none" xmlns="http://www.w3.org/2000/svg">
<path d="M20.9808 43.8283C16.4078 43.4229 12.4055 41.6169 9.36507 38.587C6.49391 35.7257 4.73216 32.094 4.13344 27.8024C3.9863 26.7477 3.95352 24.27 4.07199 23.1574C4.45642 19.5472 5.77485 16.3213 8.00167 13.5424C8.60179 12.7935 9.84875 11.5237 10.5667 10.9304C14.3725 7.78529 19.1764 6.25313 24.3761 6.526C26.8293 6.65474 28.5135 6.95501 30.3983 7.59967C31.7064 8.04707 33.5864 8.9936 34.1663 9.49679L34.3128 9.6239L34.2796 12.4683L33.659 12.0875C30.8119 10.3405 27.2004 9.41595 23.233 9.41829C19.8705 9.42027 16.7669 10.3184 14.1246 12.0542C11.4058 13.8402 9.35731 16.3614 8.15809 19.3975C6.53462 23.5077 6.78582 28.5301 8.81765 32.5843C11.1339 37.2061 15.401 40.1797 20.6951 40.8612C22.2529 41.0618 24.5503 40.9705 26.1821 40.6431C31.522 39.5721 34.8728 35.9312 35.5865 30.4246C35.661 29.8501 35.6874 29.1578 35.692 27.6551L35.6982 25.6516L23.0791 25.6216V22.7938H38.5057L38.5052 25.3423C38.5046 28.216 38.4416 29.7199 38.2717 30.9227C37.7585 34.555 36.4018 37.4463 34.1634 39.6779C31.8948 41.9395 28.9916 43.2663 25.266 43.744C24.3965 43.8555 21.8521 43.9056 20.9808 43.8283ZM92.9421 10.0731V3.87866H95.8383V14.3495L95.588 14.4616C95.0705 14.6933 94.3366 15.1923 93.016 16.2105C92.957 16.256 92.9421 15.0197 92.9421 10.0731ZM88.5683 12.3168V3.87866H91.4645V17.3856L91.0118 17.8652C90.5483 18.3565 89.7149 19.3331 89.0438 20.1716C88.8363 20.4308 88.6444 20.6682 88.6174 20.699C88.5904 20.7297 88.5683 16.9578 88.5683 12.3168Z" fill="#00B14F"/>
<path d="M21.7492 39.434C18.1123 39.1489 15.0498 37.7494 12.6388 35.2708C11.9307 34.5429 11.5226 34.0373 10.9783 33.2141C8.96163 30.1635 8.17741 26.1794 8.86444 22.4745C9.74525 17.7247 13.0334 13.7817 17.6388 11.9524C18.81 11.4873 20.255 11.1442 21.6282 11.0053C22.5192 10.9151 24.9121 10.9656 25.8571 11.0944C28.8995 11.5092 31.6155 12.4463 33.7917 13.832L34.3086 14.1612L34.3089 15.5586C34.3091 16.8321 34.3 16.9609 34.2052 17.0114C34.1238 17.0549 33.9406 16.9655 33.363 16.6004C31.0835 15.1599 28.6568 14.3185 25.7979 13.9773C24.7085 13.8473 22.3547 13.8305 21.5423 13.9471C16.3183 14.6963 12.5969 18.4427 11.9353 23.6187C11.7552 25.0277 11.8777 27.0143 12.2296 28.3917C13.0155 31.4677 14.9146 33.969 17.4571 35.2769C19.1824 36.1644 20.6994 36.5234 22.7244 36.5234C25.5599 36.5234 27.8406 35.7196 29.4049 34.1688C30.4188 33.1637 31.0113 31.9448 31.1462 30.5866L31.1886 30.1594H23.0791V27.1542H34.191V28.356C34.191 30.2097 34.0425 31.3112 33.6248 32.5559C32.7783 35.0782 30.9833 37.0806 28.5168 38.2541C26.9127 39.0173 25.2054 39.3885 23.0878 39.4345C22.5141 39.447 21.9117 39.4468 21.7492 39.434ZM102.204 39.4661C99.9058 39.2628 97.8828 38.2523 96.1558 36.4451C94.9176 35.1495 94.0403 33.6036 93.6587 32.0451C93.4375 31.142 93.3679 31.3184 94.63 29.5837C95.2458 28.7374 95.767 28.0434 95.7883 28.0415C95.8095 28.0396 95.8442 28.3232 95.8654 28.6716C95.9188 29.5531 95.9984 30.0929 96.176 30.7782C96.9645 33.8209 99.1811 36.0197 101.946 36.5016C102.68 36.6296 103.941 36.583 104.645 36.402C107.191 35.7479 108.884 33.8295 109.53 30.8665C109.686 30.1511 109.687 28.0492 109.532 27.3447C109.215 25.9085 108.597 24.6965 107.704 23.7586C106.427 22.4185 104.752 21.7331 102.754 21.7331C100.189 21.7331 98.3237 22.7703 95.863 25.5643C93.4573 28.2959 89.4621 33.3581 87.4535 36.2197L86.736 37.2418V32.487L87.7575 31.1022C88.3194 30.3406 89.3039 29.0413 89.9453 28.2149C90.5868 27.3885 91.4768 26.2351 91.9232 25.6519C93.9743 22.9723 95.2976 21.6279 96.979 20.5156C100.447 18.2213 105.011 18.1635 108.321 20.372C111.699 22.6258 113.322 27.0335 112.417 31.4928C111.686 35.0903 109.375 37.866 106.178 38.9864C105.486 39.2288 104.691 39.3923 103.847 39.4657C103.068 39.5334 102.965 39.5333 102.204 39.4661ZM77.9884 35.6323C77.9884 29.2234 77.9758 28.1159 77.8967 27.5854C77.6075 25.6431 76.7078 24.0248 75.3544 23.0121C74.4768 22.3555 73.4925 21.9475 72.3234 21.7557C71.4858 21.6183 70.2346 21.672 69.4476 21.8791C66.8195 22.5706 64.9298 24.7047 64.3593 27.6256C64.1965 28.459 64.2105 30.0313 64.3882 30.8665C64.9731 33.6159 66.7222 35.601 69.1816 36.3067C71.3463 36.9279 74.3294 36.4625 76.1719 35.2162L76.5127 34.9856L76.4812 38.0233L75.8901 38.3314C74.3948 39.111 72.0509 39.6084 70.3933 39.498C67.22 39.2867 64.6661 37.8505 62.9668 35.3216C61.1578 32.6295 60.6953 28.7225 61.7956 25.4273C63.2492 21.0743 67.3252 18.4155 71.9743 18.7876C74.4953 18.9894 76.3886 19.8325 78.0497 21.4931C79.5853 23.0282 80.4089 24.6858 80.8039 27.0364C80.8987 27.6001 80.9097 28.3397 80.9284 35.3596L80.949 43.0641H77.9884V35.6323ZM44.8309 35.448C44.8318 27.6367 44.8566 26.5899 45.0648 25.5712C45.5996 22.9547 47.1565 20.8736 49.4324 19.7328C49.9712 19.4628 51.0909 19.1064 51.7454 18.9967C53.7183 18.6661 55.7688 18.965 57.225 19.7956L57.5329 19.9712L57.2891 20.366C57.155 20.5831 56.8617 21.1387 56.6373 21.6005C56.4129 22.0623 56.2244 22.4402 56.2186 22.4402C56.2127 22.4402 55.9552 22.3503 55.6464 22.2404C54.325 21.7705 53.1174 21.6943 51.8826 22.003C50.7265 22.2921 49.6733 22.973 48.9914 23.8721C48.611 24.3738 48.1711 25.2989 47.9773 26.0052L47.8155 26.5944L47.7821 43.0641H44.83L44.8309 35.448Z" fill="#00B14F"/>
<path d="M40.5153 34.9471C40.5154 26.8356 40.5294 26.1798 40.7282 24.974C41.341 21.2578 43.2919 18.2253 46.2037 16.4629C48.9716 14.7875 52.6439 14.2143 56.1783 14.9058C57.4371 15.1521 59.002 15.7591 59.9667 16.3752L60.3565 16.6241L59.665 17.3077C59.2846 17.6837 58.8534 18.1327 58.7067 18.3055L58.44 18.6196L58.0923 18.4448C56.9309 17.8608 54.966 17.4315 53.4541 17.4315C48.6992 17.4315 44.9908 20.1837 43.8291 24.5749C43.43 26.0833 43.4485 25.6154 43.4267 34.7704L43.4069 43.0641H40.5153L40.5153 34.9471ZM101.749 43.8526C97.3122 43.4495 93.6368 41.3265 91.3782 37.862C91.0219 37.3155 90.4023 36.0726 90.2801 35.6593L90.2076 35.414L92.2624 32.6275L92.3145 32.8224C92.9794 35.3129 94.4376 37.4314 96.4932 38.8934C97.1324 39.348 98.2938 39.963 99.0633 40.2544C100.995 40.9858 103.135 41.1618 105.22 40.7607C106.576 40.4998 108.187 39.8126 109.314 39.0138C110.008 38.5224 111.294 37.25 111.762 36.5922C112.906 34.9836 113.659 33.0716 113.962 31.0052C114.101 30.0581 114.102 28.1473 113.965 27.2097C113.484 23.938 111.99 21.3056 109.58 19.4837C107.552 17.9504 104.695 17.1547 101.97 17.3643C97.8429 17.6817 94.9992 19.553 90.9084 24.6433C90.4888 25.1655 89.3879 26.6003 88.462 27.8319C87.5362 29.0634 86.7691 30.0821 86.7574 30.0956C86.7456 30.1091 86.736 29.1539 86.736 27.973V25.8258L87.7271 24.4424C89.8279 21.5099 90.737 20.3893 92.1718 18.9636C93.6661 17.4788 94.8618 16.5993 96.459 15.8102C97.8009 15.1472 99.0909 14.7485 100.685 14.5041C101.641 14.3575 103.984 14.3575 104.941 14.5041C108.199 15.0036 110.791 16.3202 112.979 18.5861C115.121 20.8052 116.404 23.5581 116.889 26.9775C116.996 27.7284 116.996 30.466 116.89 31.2201C116.545 33.6654 115.749 35.8595 114.551 37.6724C112.326 41.0374 109.084 43.1168 105.089 43.7427C104.517 43.8322 102.32 43.9045 101.749 43.8526ZM69.6545 43.8218C63.2492 43.2371 58.3045 38.7485 57.0705 32.3986C56.8368 31.1961 56.7989 30.7447 56.7989 29.1577C56.7989 27.2141 56.9304 26.2104 57.3931 24.6194C58.6046 20.4544 61.682 17.0024 65.6057 15.407C67.4799 14.645 69.107 14.3384 71.2503 14.3435C73.329 14.3484 74.8604 14.6169 76.5994 15.2816C78.4553 15.9909 79.9543 16.9764 81.3622 18.4126C83.4099 20.5017 84.6292 23.016 85.1567 26.2369C85.2802 26.9914 85.2831 27.1684 85.3025 35.0355L85.3222 43.0641H82.3622L82.3616 35.6837C82.361 31.1015 82.3378 28.0352 82.2999 27.5962C82.048 24.6828 80.8571 22.1143 78.9032 20.2708C76.7112 18.2026 73.4997 17.1114 70.349 17.3645C64.936 17.7991 60.913 21.4994 59.9617 26.9185C59.6962 28.4309 59.7427 30.448 60.0817 32.1206C60.3261 33.3268 60.9446 34.9151 61.5546 35.9032C62.8301 37.969 64.708 39.4774 67.0136 40.2878C68.9887 40.982 71.25 41.1576 73.1752 40.7663C74.2751 40.5428 75.5842 40.0406 76.2405 39.5904L76.5107 39.4051V42.3318L76.1709 42.5553C75.2035 43.1913 73.7811 43.6569 72.2847 43.8275C71.6667 43.8979 70.4597 43.8953 69.6545 43.8218Z" fill="#00B14F"/>
</svg>
