<?xml version="1.0" encoding="utf-8"?>
<!-- Generator: Adobe Illustrator 25.4.1, SVG Export Plug-In . SVG Version: 6.00 Build 0)  -->
<svg version="1.0" id="Layer_1" xmlns="http://www.w3.org/2000/svg" xmlns:xlink="http://www.w3.org/1999/xlink" x="0px" y="0px"
	 viewBox="0 0 275.9 70.4" enable-background="new 0 0 275.9 70.4" xml:space="preserve">
<path d="M75.2,47.2c0-0.6-0.4-1-1.2-1.2v-0.4c0.4,0,1.9,0.1,2.3,0.1c0.3,0,1.8-0.1,2.2-0.1V46c-0.7,0.2-1.1,0.6-1.1,1.2v7.5
	c0,2.4,1.3,3.7,4,3.7c2.4,0,4.2-1.1,4.2-3.6v-7.7c0-0.6-0.4-1-1.2-1.2v-0.3c0.3,0,1.5,0.1,1.9,0.1s1.6-0.1,1.9-0.1V46
	c-0.9,0.2-1.2,0.6-1.2,1.2v7.3c0,3.3-1.9,5.2-6,5.2c-3.8,0-5.8-1.7-5.8-4.8C75.2,54.9,75.2,47.2,75.2,47.2z M91.6,59.1
	c0.9-0.2,1.2-0.6,1.2-1.2V47.5c0-0.9-0.5-1.3-1.3-1.5v-0.4h2.9l9,10.6v-9c0-0.6-0.4-1-1.2-1.2v-0.4c0.3,0,1.5,0.1,1.9,0.1
	s1.6-0.1,1.9-0.1V46c-0.9,0.2-1.3,0.6-1.3,1.2v12.5h-0.5c-0.3-0.1-1-0.4-2-1.5l-8.1-9.4V58c0,0.6,0.3,1,1.2,1.2v0.4
	c-0.3,0-1.5-0.1-1.9-0.1s-1.6,0.1-1.9,0.1L91.6,59.1L91.6,59.1z M162.8,56.3h0.4c0.2,0.8,0.6,1.5,1.3,1.9c0.6,0.5,1.7,0.7,2.5,0.7
	c1.8,0,3-0.9,3-2.3c0-1.5-1.5-2.2-3.2-3.1c-1.3-0.7-3.9-1.7-3.9-4.2c0-2.3,1.8-3.8,4.6-3.8c1.9,0,2.7,0.5,4,0.4v2.8h-0.4
	c-0.5-1.7-2-2.2-3.7-2.2c-1.9,0-2.5,1.1-2.5,2.1c0,1.5,1.5,2.3,3.2,3.1c1.9,0.8,4,1.9,4,4.3c0,2.3-1.8,3.9-5,3.9
	c-1.9,0-3.1-0.6-4.1-0.7L162.8,56.3L162.8,56.3z M201.5,53.7l-3.7-5.9c-0.6-1-1.1-1.6-1.8-1.8v-0.4c0.5,0,1.9,0.1,2.2,0.1
	c0.4,0,1.8-0.1,2.4-0.1V46c-0.5,0.1-0.7,0.3-0.7,0.7c0,0.3,0.2,0.7,0.4,1.1c0.2,0.3,2.7,4.5,2.7,4.5l2.6-4.5
	c0.3-0.5,0.4-0.9,0.4-1.2s-0.2-0.5-0.6-0.5v-0.5c0.4,0,1.4,0.1,1.7,0.1s1.4-0.1,1.8-0.1V46c-1,0.4-1.6,1.3-2.2,2.3l-3.3,5.6
	 M203.6,53.2v4.7c0,0.5,0.4,1.1,1.2,1.2v0.4c-0.4,0-1.9-0.1-2.3-0.1c-0.4,0-1.8,0.1-2.3,0.1v-0.4c0.8-0.2,1.2-0.7,1.2-1.2v-4.5
	 M133.3,45.6h8.6c0.3,0,0.7,0,1-0.2h0.4l-0.1,2.8h-0.4c-0.3-0.9-0.7-1.6-2.3-1.6h-3.7v5h2.9c0.4,0,0.9,0,1.1-0.1
	c0.6-0.1,0.9-0.5,1.1-1.1h0.4v3.5h-0.4c-0.2-0.6-0.4-1-1.1-1.1c-0.2-0.1-0.7-0.1-1.1-0.1h-2.9v5.7h4.1c1.8,0,2.3-0.7,2.7-1.8h0.4
	l-0.4,2.9c-1.3-0.1-2.1-0.1-3.6-0.1h-4.3c-0.4,0-1.9,0.1-2.4,0.1v-0.4c0.8-0.2,1.2-0.5,1.2-1.3V47.2c0-0.7-0.4-1.1-1.2-1.2V45.6z
	 M111.3,47.3c0-0.7-0.4-1.1-1.2-1.3v-0.4c0.5,0,1.9,0.1,2.4,0.1c0.4,0,1.9-0.1,2.4-0.1V46c-0.8,0.2-1.3,0.5-1.3,1.3v10.5
	c0,0.7,0.4,1.1,1.3,1.3v0.4c-0.5,0-1.9-0.1-2.4-0.1c-0.4,0-1.9,0.1-2.4,0.1v-0.4c0.9-0.2,1.3-0.5,1.3-1.3L111.3,47.3z M176.6,47.3
	c0-0.7-0.4-1.1-1.2-1.3v-0.4c0.5,0,2,0.1,2.4,0.1s1.9-0.1,2.4-0.1V46c-0.8,0.2-1.2,0.5-1.2,1.3v10.5c0,0.7,0.4,1.1,1.2,1.3v0.4
	c-0.5,0-1.9-0.1-2.4-0.1c-0.4,0-1.9,0.1-2.4,0.1v-0.4c0.9-0.2,1.2-0.5,1.2-1.3V47.3z M188.6,45.7c-4.7,0-5.5-0.1-6.4-0.2v2.8h0.4
	c0.4-1.3,1.1-1.6,2-1.6h3v11c0,0.7-0.4,1.1-1.3,1.3v0.4c0.5,0,2-0.1,2.4-0.1s1.9,0.1,2.4,0.1V59c-0.8-0.2-1.3-0.6-1.3-1.3v-11h2.9
	c0.9,0,1.6,0.3,2,1.6h0.4v-2.8C194,45.5,193.3,45.7,188.6,45.7L188.6,45.7z M150.9,57.8c0,0.7,0.4,1.1,1.3,1.3v0.4
	c-0.5,0-2-0.1-2.4-0.1s-1.8,0.1-2.3,0.1v-0.4c0.8-0.2,1.2-0.5,1.2-1.3V47.2c0-0.7-0.4-1.1-1.2-1.2v-0.4c0.5,0,1.9,0.1,2.3,0.1
	c0.7,0,2.6-0.1,3.4-0.1c3.3,0,5.1,1.4,5.1,3.7c0,1.8-1.4,3.1-3.5,3.6c0,0,0.5,0.3,1,0.8c0.6,0.7,2.2,2.9,2.8,3.7s1.5,1.7,2.4,1.7
	v0.3c-0.4,0.1-1.1,0.2-1.6,0.2c-1.1,0-2-0.4-2.9-1.4c-0.8-0.9-2-2.8-2.8-3.8c-0.5-0.6-1.1-1.1-2.1-1.3c-0.2,0-0.4-0.1-0.6-0.1
	L150.9,57.8L150.9,57.8z M150.9,52.2c0.4,0.1,1.1,0.1,1.7,0.1c2.6,0,3.4-1.5,3.4-2.8c0-1.9-1.2-3-3.5-3c-0.5,0-1.1,0.1-1.6,0.2
	L150.9,52.2L150.9,52.2z M118.1,47.3c-0.3-0.7-0.8-1.2-1.6-1.3v-0.4c0.5,0,2.2,0.1,2.6,0.1c0.3,0,1.8-0.1,2.3-0.1V46
	c-0.4,0.1-1,0.3-1,0.8c0,0.3,0.2,0.8,0.6,1.6l3.6,8.1l3.4-8.1c0.3-0.7,0.5-1.2,0.5-1.5c0-0.4-0.4-0.7-1-0.8v-0.5
	c0.4,0,1.5,0.1,1.9,0.1c0.3,0,1.6-0.1,2.1-0.1V46c-0.8,0.2-1.4,0.7-1.8,1.8l-5,11.7h-1.1L118.1,47.3z M164.6,14
	c-0.6-1.3-1.5-2.2-2.9-2.5v-0.7c0.9,0,4,0.1,4.7,0.1c0.6,0,3.6-0.1,4.6-0.1v0.7c-0.8,0.2-1.8,0.6-1.8,1.5c0,0.6,0.4,1.5,1.1,3
	l6.8,15.4l6.4-15.4c0.5-1.2,0.9-2.2,0.9-2.9c0-0.8-0.8-1.4-1.8-1.6v-0.7c0.9,0,2.9,0.1,3.6,0.1c0.6,0,3-0.1,4-0.1v0.7
	c-1.6,0.4-2.6,1.4-3.5,3.4l-9.4,22.2h-2.1C175.2,37.1,164.6,14,164.6,14z M73.6,36.2c1.2-0.3,2.1-0.8,2.1-2.2V13.7
	c0-1.3-0.8-1.9-2.1-2.2v-0.8c0.6,0,3.4,0.1,4.1,0.1c0.8,0,3.7-0.1,4.3-0.1v0.7c-1.2,0.3-2.1,0.8-2.1,2.2v8.6h15.2v-8.5
	c0-1.4-0.8-2-2.1-2.2v-0.8c0.6,0,3.5,0.1,4.3,0.1c0.7,0,3.5-0.1,4.2-0.1v0.7c-1.2,0.3-2.1,0.8-2.1,2.2v20.3c0,1.3,0.8,1.9,2.1,2.2
	v0.7c-0.6,0-3.5-0.1-4.2-0.1c-0.8,0-3.6,0.1-4.3,0.1v-0.6c1.2-0.3,2.1-0.8,2.1-2.2v-9.6H79.9V34c0,1.4,0.8,1.9,2.1,2.2v0.7
	c-0.6,0-3.6-0.1-4.3-0.1c-0.7,0-3.4,0.1-4.1,0.1C73.6,36.9,73.6,36.2,73.6,36.2z M248.8,36.2c1.6-0.3,2.4-0.9,2.4-2.3V13.7
	c0-1.4-0.9-2-2.4-2.2v-0.8c0.9,0,3.7,0.1,4.5,0.1c1.3,0,4.8-0.3,7.6-0.3c9.3,0,15,5.2,15,13.1c0,7.7-5.9,13.4-15.5,13.4
	c-2.8,0-6-0.2-7.3-0.2c-0.8,0-3.4,0.1-4.3,0.1L248.8,36.2L248.8,36.2z M255.4,34.9c1,0.2,2.7,0.3,4.1,0.3c7.8,0,11.9-4.7,11.9-11.3
	c0-6.8-4.3-11.6-11.6-11.6c-1.5,0-3.4,0.1-4.4,0.3V34.9z M143.3,33.8c0,1.3,0.9,2.1,2.4,2.4v0.7c-0.9,0-3.7-0.1-4.6-0.1
	c-0.7,0-3.5,0.1-4.4,0.1v-0.7c1.5-0.3,2.3-1,2.3-2.4v-20c0-1.2-0.7-2-2.3-2.3v-0.8c0.9,0,3.6,0.1,4.4,0.1c1.3,0,4.9-0.2,6.4-0.2
	c6.3,0,9.8,2.6,9.8,7c0,3.5-2.6,5.8-6.6,6.8c0,0,0.9,0.5,1.8,1.6c1.1,1.3,4.2,5.7,5.4,7.2s2.8,3.2,4.5,3.2V37
	c-0.8,0.2-2.1,0.3-3.1,0.3c-2.1,0-3.8-0.8-5.5-2.8c-1.4-1.7-3.9-5.4-5.3-7.2c-0.9-1.2-2-2.1-4-2.4c-0.4-0.1-0.8-0.1-1.2-0.2
	L143.3,33.8L143.3,33.8z M143.3,23.2c0.8,0.1,2.1,0.2,3.3,0.2c4.9,0,6.4-2.8,6.4-5.3c0-3.5-2.4-5.7-6.6-5.7c-0.9,0-2.2,0.1-3.1,0.3
	L143.3,23.2L143.3,23.2z M225.9,33.8c0,1.3,0.9,2.1,2.4,2.4v0.7c-0.9,0-3.7-0.1-4.5-0.1c-0.7,0-3.5,0.1-4.4,0.1v-0.7
	c1.5-0.3,2.3-1,2.3-2.4v-20c0-1.2-0.7-2-2.3-2.3v-0.8c0.9,0,3.6,0.1,4.4,0.1c1.3,0,4.9-0.2,6.3-0.2c6.3,0,9.8,2.6,9.8,7
	c0,3.5-2.6,5.8-6.6,6.8c0,0,0.9,0.5,1.8,1.6c1.1,1.3,4.2,5.7,5.4,7.2s2.8,3.2,4.5,3.2V37c-0.8,0.2-2.1,0.3-3.1,0.3
	c-2.1,0-3.8-0.8-5.5-2.8c-1.4-1.7-3.9-5.4-5.3-7.2c-0.9-1.2-2-2.1-4-2.4c-0.4-0.1-0.8-0.1-1.2-0.2L225.9,33.8L225.9,33.8z
	 M225.9,23.2c0.8,0.1,2.1,0.2,3.3,0.2c4.9,0,6.4-2.8,6.4-5.3c0-3.5-2.4-5.7-6.6-5.7c-0.9,0-2.2,0.1-3.1,0.3L225.9,23.2L225.9,23.2z
	 M105.3,36.2c1.7-0.4,2.6-1.5,3.2-2.9l8.4-20.2c0.4-0.8,0.8-2.5,0.8-2.5h2.4c0,0,0.4,1.7,0.8,2.6l8.9,20.2c0.6,1.4,1.3,2.4,3.1,2.8
	v0.7c-1,0-3.9-0.1-4.6-0.1s-3.5,0.1-4.5,0.1v-0.7c1.3-0.3,1.7-1,1.7-1.6c0-0.5-0.2-1.2-0.5-1.8l-1.9-4.3h-9.8l-1.7,4.4
	c-0.2,0.5-0.4,1.2-0.4,1.7c0,0.7,0.4,1.3,1.8,1.7V37c-0.9,0-3.2-0.1-3.7-0.1l-3.8,0.1C105.5,37,105.3,36.2,105.3,36.2z M122,26.4
	l-4.2-9.7l-3.9,9.7H122z M188.5,36.2c1.7-0.4,2.6-1.5,3.2-2.9l8.4-20.2c0.4-0.8,0.8-2.5,0.8-2.5h2.4c0,0,0.4,1.7,0.8,2.6l8.9,20.2
	c0.6,1.4,1.3,2.4,3.1,2.8v0.7c-1,0-3.9-0.1-4.6-0.1c-0.7,0-3.5,0.1-4.5,0.1v-0.7c1.3-0.3,1.7-1,1.7-1.6c0-0.5-0.2-1.2-0.5-1.8
	l-1.9-4.3h-9.8l-1.7,4.4c-0.2,0.5-0.4,1.2-0.4,1.7c0,0.7,0.4,1.3,1.8,1.7V37c-0.9,0-3.2-0.1-3.7-0.1l-3.8,0.1v-0.8H188.5z
	 M205.1,26.4l-4.2-9.7l-3.9,9.7H205.1L205.1,26.4z"/>
<g>
	<path fill="#A51C30" d="M0.4,0.4h58.5v22.1c0,10.1-3.8,31.6-29,47.6c0,0-27.4-11.4-29.5-47.6C0.4,22.5,0.4,0.4,0.4,0.4z"/>
	<path fill="#1E1E1E" d="M29.8,70.4l-0.2-0.1C29.4,70.2,2.1,58.4,0,22.5V0h59.2v22.4c0,8.8-2.8,31.2-29.2,47.8
		C30,70.2,29.8,70.4,29.8,70.4z M0.7,0.7v21.7c2,34,26.8,46.2,29.1,47.2c25.9-16.5,28.7-38.5,28.7-47.2V0.7H0.7z"/>
	<path fill="#FFFFFF" d="M44.7,28.8c0,0-0.5,1.7-2.8,0l-8-0.2c0,0-1,0.3-1.2-0.8c0,0,0.2-2.2,0.1-2.4c0,0,0-0.6-1-0.6
		c0,0-1.6,0.2-1.7-1.2c0,0-0.3-1.5,1.9-1.5c0,0,0.7,0.3,0.8-0.6c0,0-0.1-6.2,0-6.6c0,0,0.2-0.6-0.9-0.7c0,0-1.6,0.3-1.8-0.7
		c0,0-0.1-1.6,1-1.7c0,0,1.3,0.1,1.5-0.2c0,0,0.3,0.2,0.2-0.9v-2c0,0,0.1-0.5,1-0.5c0,0,1.5,0.1,1.7,0c0,0,0.3-0.4,0.4-0.6
		c0,0,0.8,0,0.9,0.1c0,0,1.1,0.8,5.5,0.5c0,0,0.7,0,0.8,0.2c0,0,0.8,0.6,1.3,0c0,0,0.7-0.1,2.8-0.1c0,0,2.3,0.6,3.9-0.7l0.5,0.1
		c0,0,0.7,1.1,1.1,0.8c0,0,1.4-0.1,1.7,0.1c0,0,0.5,0.7,0.2,2.6c0,0-0.3,0.8,1.1,0.8c0,0,1.6-0.3,1.4,1.2c0,0,0.4,1.7-2.2,1.4
		c0,0-0.3,0.5-0.3,0.8c0,0-0.1,5.4-0.1,6c0,0-0.1,0.8,1.1,0.8c0,0,1.5-0.1,1.6,1.3c0,0,0.2,1.8-2,1.5c0,0-0.7,0.1-0.8,0.5l-0.1,2.4
		c0,0,0.1,1.2-1.3,0.9c-0.2,0-7.4,0.1-8,0C45.1,28.6,44.8,28.6,44.7,28.8 M29.4,36.7c0,0,0.3-0.1,0.4-0.4c0,0,1-0.1,1.1-0.2l3.1,0.2
		c0,0,3.1,0.2,4.4-0.7c0,0,0.5,0,0.8,0.1c0,0,0.7,0.1,0.8,0.4h1.8c0,0,1,0.3,1,1V38c0,0-0.2,1.7,0.3,1.8h1.4c0,0,1.1,0.5,1,1.2
		c0,0,0,1-1,1.1c0,0-1,0.3-1.3,0.2c0,0-0.3,0.4-0.4,1l-0.1,6.2c0,0-0.1,0.7,0.9,0.6c0,0,1.5-0.1,1.9,0.7c0,0,0.4,1.4-0.4,1.6
		l-0.6,0.3l-1.2,0.2c0,0-0.5,0.1-0.6,0.9v1.7c0,0,0,1.1-0.8,1.1l-1.3,0.1c0,0-0.3,0.3-1,0.1c0,0-8.1,0.1-8.3,0.1l-1,0.2
		c0,0-1,0.9-1.9,0.2l-0.7-0.5c0,0-0.5,0.1-0.7,0.1c-0.2-0.1-8.9,0.1-8.9,0.1s-1.9,0.2-2-0.4c0,0-0.2-2.4-0.1-2.7c0,0,0-0.7-0.4-0.8
		c0,0-1.9-0.1-1.9-0.3c0,0-1-0.7-0.7-1.4c0,0,0.3-0.9,1.3-1c0,0,1.5,0.2,1.5-0.2c0,0,0.1-0.3,0.1-0.8c0,0,0.1-5.6,0-6
		c0,0,0.1-0.7-0.5-0.7c0,0-0.7,0.2-1.1-0.1c0,0-1.1,0-1.4-0.8c0,0-0.2-0.6,0.1-1c0,0,0.5-1,2-0.7c0,0,0.8,0.2,1-0.4v-2.3
		c0,0-0.2-0.6,1-1c0,0,1.5,0.4,2-0.3c0,0,0.5-1,1-0.3c0,0,0.9,0.9,3.4,0.8c0,0,4.3-0.3,4.4-0.2c0,0,1,0.2,1.3,0.5L29.4,36.7
		L29.4,36.7z M16.5,28.8c0,0-0.5,1.7-2.8,0l-8-0.2c0,0-1,0.3-1.2-0.8c0,0,0.2-2.2,0.1-2.4c0,0,0.1-0.6-1-0.6c0,0-1.6,0.2-1.7-1.2
		c0,0-0.3-1.5,1.9-1.5c0,0,0.7,0.3,0.8-0.6c0,0-0.1-6.2-0.1-6.6c0,0,0.2-0.6-0.9-0.7c0,0-1.6,0.3-1.8-0.7c0,0-0.1-1.6,0.9-1.7
		c0,0,1.3,0.1,1.5-0.2c0,0,0.3,0.2,0.2-1l0.1-1.9c0,0,0.1-0.5,0.9-0.5c0,0,1.5,0.1,1.7,0c0,0,0.3-0.4,0.4-0.6c0,0,0.8,0,0.9,0.1
		c0,0,1.1,0.8,5.5,0.5c0,0,0.7,0,0.8,0.2c0,0,0.8,0.6,1.3,0c0,0,0.7-0.1,2.9-0.1c0,0,2.3,0.6,3.9-0.7l0.5,0.1c0,0,0.7,1.1,1.1,0.8
		c0,0,1.4-0.1,1.7,0.1c0,0,0.5,0.7,0.2,2.6c0,0-0.3,0.8,1.1,0.8c0,0,1.6-0.3,1.4,1.2c0,0,0.4,1.7-2.2,1.4c0,0-0.3,0.5-0.3,0.8
		c0,0,0,5.4-0.1,6c0,0,0,0.8,1.1,0.8c0,0,1.5-0.1,1.6,1.3c0,0,0.2,1.8-2,1.5c0,0-0.7,0.1-0.8,0.5L26,27.9c0,0,0,1.2-1.3,0.9
		c-0.2,0-7.4,0.1-8,0C16.9,28.6,16.6,28.6,16.5,28.8"/>
	<path fill="#1E1E1E" d="M44.7,28.8c0,0-0.5,1.7-2.8,0l-8-0.2c0,0-1,0.3-1.2-0.8c0,0,0.2-2.2,0.1-2.4c0,0,0-0.6-1-0.6
		c0,0-1.6,0.2-1.7-1.2c0,0-0.3-1.5,1.9-1.5c0,0,0.7,0.3,0.8-0.6c0,0-0.1-6.2,0-6.6c0,0,0.2-0.6-0.9-0.7c0,0-1.6,0.3-1.8-0.7
		c0,0-0.1-1.6,1-1.7c0,0,1.3,0.1,1.5-0.2c0,0,0.3,0.2,0.2-0.9v-2c0,0,0.1-0.5,1-0.5c0,0,1.5,0.1,1.7,0c0,0,0.3-0.4,0.4-0.6
		c0,0,0.8,0,0.9,0.1c0,0,1.1,0.8,5.5,0.5c0,0,0.7,0,0.8,0.2c0,0,0.8,0.6,1.3,0c0,0,0.7-0.1,2.8-0.1c0,0,2.3,0.6,3.9-0.7l0.5,0.1
		c0,0,0.7,1.1,1.1,0.8c0,0,1.4-0.1,1.7,0.1c0,0,0.5,0.7,0.2,2.6c0,0-0.3,0.8,1.1,0.8c0,0,1.6-0.3,1.4,1.2c0,0,0.4,1.7-2.2,1.4
		c0,0-0.3,0.5-0.3,0.8c0,0-0.1,5.4-0.1,6c0,0-0.1,0.8,1.1,0.8c0,0,1.5-0.1,1.6,1.3c0,0,0.2,1.8-2,1.5c0,0-0.7,0.1-0.8,0.5l-0.1,2.4
		c0,0,0.1,1.2-1.3,0.9c-0.2,0-7.4,0.1-8,0C45.1,28.6,44.8,28.6,44.7,28.8"/>
	<path fill="none" stroke="#1E1E1E" stroke-width="0.164" d="M44.7,28.8c0,0-0.5,1.7-2.8,0l-8-0.2c0,0-1,0.3-1.2-0.8
		c0,0,0.2-2.2,0.1-2.4c0,0,0-0.6-1-0.6c0,0-1.6,0.2-1.7-1.2c0,0-0.3-1.5,1.9-1.5c0,0,0.7,0.3,0.8-0.6c0,0-0.1-6.2,0-6.6
		c0,0,0.2-0.6-0.9-0.7c0,0-1.6,0.3-1.8-0.7c0,0-0.1-1.6,1-1.7c0,0,1.3,0.1,1.5-0.2c0,0,0.3,0.2,0.2-0.9v-2c0,0,0.1-0.5,1-0.5
		c0,0,1.5,0.1,1.7,0c0,0,0.3-0.4,0.4-0.6c0,0,0.8,0,0.9,0.1c0,0,1.1,0.8,5.5,0.5c0,0,0.7,0,0.8,0.2c0,0,0.8,0.6,1.3,0
		c0,0,0.7-0.1,2.8-0.1c0,0,2.3,0.6,3.9-0.7l0.5,0.1c0,0,0.7,1.1,1.1,0.8c0,0,1.4-0.1,1.7,0.1c0,0,0.5,0.7,0.2,2.6
		c0,0-0.3,0.8,1.1,0.8c0,0,1.6-0.3,1.4,1.2c0,0,0.4,1.7-2.2,1.4c0,0-0.3,0.5-0.3,0.8c0,0-0.1,5.4-0.1,6c0,0-0.1,0.8,1.1,0.8
		c0,0,1.5-0.1,1.6,1.3c0,0,0.2,1.8-2,1.5c0,0-0.7,0.1-0.8,0.5l-0.1,2.4c0,0,0.1,1.2-1.3,0.9c-0.2,0-7.4,0.1-8,0
		C45.1,28.6,44.8,28.6,44.7,28.8z"/>
	<path fill="#FFFFFF" d="M35.8,9.2c0,0,0.1,1,0.1,1.2s-0.1,13.7-0.1,13.7s0.1,1-0.8,1.6c0,0-0.2,0.1-0.3-0.6l0.1-14.2
		C34.8,10.9,34.9,9.2,35.8,9.2"/>
	<path fill="none" stroke="#1E1E1E" stroke-width="0.1722" d="M35.8,9.2c0,0,0.1,1,0.1,1.2s-0.1,13.7-0.1,13.7s0.1,1-0.8,1.6
		c0,0-0.2,0.1-0.3-0.6l0.1-14.2C34.8,10.9,34.9,9.2,35.8,9.2z"/>
	<path fill="#FFFFFF" d="M34.2,25.8c0,0,0.1-13.4,0-13.6v0.2c0,0-0.1-2.3,0.5-3.3c0,0-0.2-0.8-1.3,0.2v1.9c0,0,0,1.1-1,1
		c0,0-1.1,0-1.7,0.5c0,0-0.3,1,0.8,0.9c0,0,1.7,0,1.8,0.7l-0.1,7.2c0,0,0.4,1.2-1,1.2c0,0-1.6-0.1-1.6,0.9c0,0,0.3,0.8,1.7,0.6
		c0,0,1,0.2,1,1.1v1.8c0,0-0.1,0.7,0.8,0.8h7.4c0,0,0.4,0,0.4-0.4c0,0,0-0.4-0.6-0.4l-6-0.1C35.3,27,34.3,27.3,34.2,25.8"/>
	<path fill="#FFFFFF" d="M35.6,25.8c0,0-0.2,0.7,0.5,0.5H41l1.3,0.3c0,0,1.4-0.3,0-1.1h-4.7c0,0-0.9-0.2-1.1-0.3
		C36.5,25.2,36,25,35.6,25.8"/>
	<path fill="none" stroke="#1E1E1E" stroke-width="0.1722" d="M35.6,25.8c0,0-0.2,0.7,0.5,0.5H41l1.3,0.3c0,0,1.4-0.3,0-1.1h-4.7
		c0,0-0.9-0.2-1.1-0.3C36.5,25.2,36,25,35.6,25.8z"/>
	<path fill="#FFFFFF" d="M43.7,26.5c0,0-0.9,0-0.8,1.2c0,0,0.1,0.9,1,0.9c0,0,0.8-0.1,0.8-1.1C44.7,27.5,44.1,26.3,43.7,26.5
		 M44.4,26c0,0,0.4-0.5,0.7-0.5c0,0,4.7,0.4,5.5-0.1c0,0,0.7-0.1,0.9,0c0,0,0.7,0.6,0.7,0.9c0,0,0,0.4-0.9,0.2h-5.6
		C45.7,26.5,44.2,26.9,44.4,26"/>
	<path fill="none" stroke="#1E1E1E" stroke-width="0.1722" d="M44.4,26c0,0,0.4-0.5,0.7-0.5c0,0,4.7,0.4,5.5-0.1c0,0,0.7-0.1,0.9,0
		c0,0,0.7,0.6,0.7,0.9c0,0,0,0.4-0.9,0.2h-5.6C45.7,26.5,44.2,26.9,44.4,26z"/>
	<path fill="#FFFFFF" d="M45,27.5c0,0,0-0.4,0.7-0.4h6.6c0,0,0.6,0.3,0.6-0.8c0,0,0.2-5.2,0.3-10.9c0-1.7,0.1-3.5,0-5.1
		c0,0-0.2-0.7-0.3-0.9c0,0,0-0.8,0.8-0.5c0,0,0.7,0,0.5,1.1v1.6c0,0-0.1,0.7,1.1,0.5c0,0,1.3,0.2,1.3,0.7c0,0,0.4,1-1.1,0.9h-1.1
		c0,0-0.5,0.3-0.3,0.9L54,21.5c0,0-0.1,1.2,1,1.1c0,0,1.2,0,1.4,0.3c0,0,0.8,1.2-0.9,1.1c0,0-1.1,0-1.3,0.1c0,0-0.2,0.2-0.3,2.5
		c0,0,0.1,1.3-0.9,1.2c0,0-6.6,0.1-7.2,0C45.8,27.9,45.1,28.1,45,27.5 M36.5,8.8L36.3,24c0,0,0,0.7,1.1,0.8c0,0,1.4,0.1,1.7,0h3.2
		c0,0,0.6,0.6,0.6-0.2c0,0,0.4-12.3,0.2-14.9c0,0,0-1.1-0.9-1.1c0,0-3.6,0.3-3.9,0L37,8.4C37,8.4,36.4,8.4,36.5,8.8"/>
	<path fill="#FFFFFF" d="M44,9.6c0,0-0.1,7.2-0.1,7.4l-0.1,6l-0.2,2.1c0,0,0.3,0.4,0.5,0.1c0,0,1.5-0.4,2.5-0.2c0,0,3,0.3,3.7-0.2
		c0,0,0.5,0.2,0.6-0.5c0,0,0.2-13.3,0.1-13.5c0,0,0.2-1.9,0.1-2.1c0,0,0-0.4-0.8,0c0,0,0.1,0.4-4.4,0.2C45.8,8.9,44,8.8,44,9.6
		 M51.5,9.4v15c0,0,0.4,1.3,1,1.2c0,0,0.1-0.3,0.1-0.8l0.2-14.3C52.8,10.5,52.3,8.3,51.5,9.4"/>
	<path fill="none" stroke="#1E1E1E" stroke-width="0.1722" d="M51.5,9.4v15c0,0,0.4,1.3,1,1.2c0,0,0.1-0.3,0.1-0.8l0.2-14.3
		C52.8,10.5,52.3,8.3,51.5,9.4z"/>
	<path fill="#1E1E1E" d="M45.7,13.9c-0.1-0.4,0.8-0.4,0.8-0.4l0.5,0.1c0.3,0,0.7,0.1,0.7,0.1c0.3,0.5-0.2,0.8-0.2,0.8l-0.2,0.6v5
		c0.1,0.2,0.5,0.7,0.5,0.7c0,0.4-0.5,0.3-0.5,0.3h-1.4c-0.4,0-0.3-0.5-0.3-0.5c0.5-0.2,0.6-1.1,0.6-1.1v-4.7
		C46.2,14.8,45.7,13.9,45.7,13.9z M39.3,18.3l-0.1,1.5l0.4,0.7c0.3,0.4-0.2,0.7-0.2,0.7L37.9,21c-0.3-0.1,0-0.6,0-0.6
		c0.4-0.2,0.4-0.8,0.4-0.8v-4.8c0-0.2-0.4-0.7-0.4-0.7c-0.3,0-0.2-0.5-0.2-0.5c0.1-0.2,0.9-0.1,0.9-0.1h2c1.9,0.6,1.6,2,1.6,2
		c0.1,1.4-1.3,1.9-1.3,1.9l-0.1,0.8l1.4,2.2c0.2,0.2,0.2,0.4,0.2,0.4c-0.2,0.5-1,0-1,0l-1.7-2.7C39.5,17.9,39.3,18.3,39.3,18.3
		 M39.3,14.5V17c0.9,0.7,1.4-0.3,1.4-0.3c1.2-1.1,0-2.2-0.2-2.5s-1.1,0-1.1,0S39.3,14.5,39.3,14.5z M29.4,36.7c0,0,0.3-0.1,0.4-0.4
		c0,0,1-0.1,1.1-0.2l3.1,0.2c0,0,3.1,0.2,4.4-0.7c0,0,0.5,0,0.8,0.1c0,0,0.7,0.1,0.8,0.4h1.8c0,0,1,0.3,1,1V38c0,0-0.2,1.7,0.3,1.8
		h1.4c0,0,1.1,0.5,1,1.2c0,0,0,1-1,1.1c0,0-1,0.3-1.3,0.2c0,0-0.3,0.4-0.4,1l-0.1,6.2c0,0-0.1,0.7,0.9,0.6c0,0,1.5-0.1,1.9,0.7
		c0,0,0.4,1.4-0.4,1.6l-0.6,0.3l-1.2,0.2c0,0-0.5,0.1-0.6,0.9v1.7c0,0,0,1.1-0.8,1.1l-1.3,0.1c0,0-0.3,0.3-1,0.1
		c0,0-8.1,0.1-8.3,0.1l-1,0.2c0,0-1,0.9-1.9,0.2l-0.7-0.5c0,0-0.5,0.1-0.7,0.1c-0.2-0.1-8.9,0.1-8.9,0.1s-1.9,0.2-2-0.4
		c0,0-0.2-2.4-0.1-2.7c0,0,0-0.7-0.4-0.8c0,0-1.9-0.1-1.9-0.3c0,0-1-0.7-0.7-1.4c0,0,0.3-0.9,1.3-1c0,0,1.5,0.2,1.5-0.2
		c0,0,0.1-0.3,0.1-0.8c0,0,0.1-5.6,0-6c0,0,0.1-0.7-0.5-0.7c0,0-0.7,0.2-1.1-0.1c0,0-1.1,0-1.4-0.8c0,0-0.2-0.6,0.1-1
		c0,0,0.5-1,2-0.7c0,0,0.8,0.2,1-0.4v-2.3c0,0-0.2-0.6,1-1c0,0,1.5,0.4,2-0.3c0,0,0.5-1,1-0.3c0,0,0.9,0.9,3.4,0.8
		c0,0,4.3-0.3,4.4-0.2c0,0,1,0.2,1.3,0.5L29.4,36.7L29.4,36.7z"/>
	<path fill="none" stroke="#1E1E1E" stroke-width="0.164" d="M29.4,36.6c0,0,0.3-0.1,0.4-0.4c0,0,1-0.1,1.1-0.2l3.1,0.2
		c0,0,3.1,0.2,4.4-0.7c0,0,0.5,0,0.8,0.1c0,0,0.7,0.1,0.8,0.4h1.8c0,0,1,0.3,1,1v0.8c0,0-0.2,1.7,0.3,1.8h1.4c0,0,1.1,0.5,1,1.2
		c0,0,0,1-1,1.1c0,0-1,0.3-1.3,0.2c0,0-0.3,0.4-0.4,1l-0.1,6.2c0,0-0.1,0.7,0.9,0.6c0,0,1.5-0.1,1.9,0.7c0,0,0.4,1.4-0.4,1.6
		l-0.6,0.3l-1.2,0.2c0,0-0.5,0.1-0.6,0.9v1.7c0,0,0,1.1-0.8,1.1l-1.3,0.1c0,0-0.3,0.3-1,0.1c0,0-8.1,0.1-8.3,0.1l-1,0.2
		c0,0-1,0.9-1.9,0.2l-0.7-0.5c0,0-0.5,0.1-0.7,0.1c-0.2-0.1-8.9,0.1-8.9,0.1s-1.9,0.2-2-0.4c0,0-0.2-2.4-0.1-2.7c0,0,0-0.7-0.4-0.8
		c0,0-1.9-0.1-1.9-0.3c0,0-1-0.7-0.7-1.4c0,0,0.3-0.9,1.3-1c0,0,1.5,0.2,1.5-0.2c0,0,0.1-0.3,0.1-0.8c0,0,0.1-5.6,0-6
		c0,0,0.1-0.7-0.5-0.7c0,0-0.7,0.2-1.1-0.1c0,0-1.1,0-1.4-0.8c0,0-0.2-0.6,0.1-1c0,0,0.5-1,2-0.7c0,0,0.9,0.2,1-0.4v-2.3
		c0,0-0.2-0.6,1-1c0,0,1.5,0.4,2-0.3c0,0,0.5-1,1-0.3c0,0,0.9,0.9,3.4,0.8c0,0,4.3-0.3,4.4-0.2c0,0,1,0.2,1.3,0.5L29.4,36.6
		L29.4,36.6z"/>
	<path fill="#FFFFFF" d="M30.6,55.3c0,0,0.6-0.3,1-0.2s5.9-0.1,5.9-0.1s2.4,0.2,2.8-0.2l0.6-0.2c0,0,0.2-0.3,0.2-0.7v-1.7l0.1-0.5
		V38.6c0,0,0.2-1-0.4-1.6c0,0,0-0.4,0.2-0.3s0.1,0,0.1,0s0.8-0.2,1,0.1c0,0,0.4,1.1,0,1.8c0,0-0.1,1.4,0.6,1.4c0,0,0.3,0.3,0.8,0.1
		c0,0,1.2,0.1,1.2,0.5c0,0,0,0.9-0.8,0.7l-1.1,0.1c0,0-0.8,0.2-0.7,1c0.1,0.9,0,7.4,0,7.4s0,0.8,1.2,0.7c0,0,1.5-0.1,1.5,0.4
		c0,0,0.4,0.9-0.7,1c0,0-2-0.1-1.8,0.5c0,0-0.1,1.3-0.2,1.6c0,0,0.2,1.1,0,1.3c0,0-0.1,0.6-1.4,0.5c0,0-8.1,0-9.4,0.1
		C31.2,56.1,30.4,56,30.6,55.3 M29.2,54.4c0,0,0.8,0.1,0.8,0.9s0,1.2-0.4,1.3c-0.5,0.1-1-0.1-1.1-0.7C28.3,55.3,28.5,54.6,29.2,54.4
		"/>
	<path fill="#FFFFFF" d="M30.1,54c0,0,0.8-0.6,1.2-0.5c0,0,4.3,0.3,5.6,0.1s0.5-0.1,0.5-0.1s1.1,0,1.5-0.4c0,0,0.3-0.1,0.5,0.2
		l0.7,0.8c0,0,0,0.5-0.8,0.4c0,0-7.7,0-8,0.1C31.4,54.6,30,54.8,30.1,54"/>
	<path fill="none" stroke="#1E1E1E" stroke-width="0.1722" d="M30.1,54c0,0,0.8-0.6,1.2-0.5c0,0,4.3,0.3,5.6,0.1s0.5-0.1,0.5-0.1
		s1.1,0,1.5-0.4c0,0,0.3-0.1,0.5,0.2l0.7,0.8c0,0,0,0.5-0.8,0.4c0,0-7.7,0-8,0.1C31.4,54.6,30,54.8,30.1,54z"/>
	<path fill="#FFFFFF" d="M18.9,37.2c0,0,0.3,0,0.3,0.6l-0.1,14.3c0,0,0.1,0.9-0.7,1.6c0,0-0.4,0.5-0.4-0.3l0.2-14.6
		C18.2,38.8,18.2,37.7,18.9,37.2"/>
	<path fill="none" stroke="#1E1E1E" stroke-width="0.1722" d="M18.9,37.2c0,0,0.3,0,0.3,0.6l-0.1,14.3c0,0,0.1,0.9-0.7,1.6
		c0,0-0.4,0.5-0.4-0.3l0.2-14.6C18.2,38.8,18.2,37.7,18.9,37.2z"/>
	<path fill="#FFFFFF" d="M18.1,37.3c0,0-0.6,1-0.5,1.3v15.8c0,0-0.1,1.1,0.8,0.8c0,0,8.3-0.2,8.9,0c0,0,0.8,0.1,0.5,0.5
		c0,0,0,0.3-0.5,0.2c0,0-3.9,0.4-7.5,0.2c0,0-2.4,0.1-2.5-0.1c0,0-0.4-0.1-0.4-1.4c0,0,0-1.3-0.1-1.5c0,0,0.1-0.7-1.1-0.8
		c0,0-1.7,0.3-1.7-0.7c0,0,0.2-0.7,1.9-0.6c0,0,1.2,0.2,0.9-0.8l0.1-7c0,0,0.2-1.2-0.7-1.3h-1c0,0-1.4,0-1.3-0.8
		c0,0,0.5-0.8,1.9-0.7c0,0,1,0.2,1.1-1c0,0,0-2.4,0.5-2.5C17.3,36.9,18.5,37,18.1,37.3"/>
	<path fill="#FFFFFF" d="M19.5,53c0,0,0.7,0.7,1.8,0.7l6.4,0.1c0,0,0.7,0.1,0.7,0.4c0,0-0.1,0.6-1,0.4l-7.8-0.1l-0.9,0.1
		c0,0-0.6-0.1,0.3-1.2C19,53.4,19.5,53,19.5,53z"/>
	<path fill="none" stroke="#1E1E1E" stroke-width="0.1722" d="M19.5,53c0,0,0.7,0.7,1.8,0.7l6.4,0.1c0,0,0.7,0.1,0.7,0.4
		c0,0-0.1,0.6-1,0.4l-7.8-0.1l-0.9,0.1c0,0-0.6-0.1,0.3-1.2C19,53.4,19.5,53,19.5,53z"/>
	<path fill="#FFFFFF" d="M39.4,52.4c0,0,0.6,1.1,0.8,1.2c0,0,0.5,0.6,0.4-0.5l0.1-13.7c0,0-0.1-0.5,0-1.2l-0.6-1
		c0,0-0.6-0.5-0.6,0.3V52C39.5,52,39.4,52.4,39.4,52.4z"/>
	<path fill="none" stroke="#1E1E1E" stroke-width="0.1722" d="M39.4,52.4c0,0,0.6,1.1,0.8,1.2c0,0,0.5,0.6,0.4-0.5l0.1-13.7
		c0,0-0.1-0.5,0-1.2l-0.6-1c0,0-0.6-0.5-0.6,0.3V52C39.5,52,39.4,52.4,39.4,52.4z"/>
	<path fill="#FFFFFF" d="M28.9,45.9c0,0,0,1.1-0.1,2.2c-0.1,0.6,0.2,3.4,0,4.8c0,0,0,0.5-1,0.1c0,0-6.1,0.1-6.2-0.1
		c0,0-1.7,0.1-1.8-0.8c0,0,0.2-6.5,0.1-6.7c0,0-0.1-3.5,0-3.9c0,0,0.1-3.3,0-3.7c0,0,0-0.8-0.1-1.1c0,0,0-0.5,0.8-0.2
		c0,0,0.3,0.5,1.8,0.3c0,0,1.1,0.2,2.2,0c0,0,2.4-0.2,3,0c0,0,1-0.2,1.2,0.9v2.9l0.3,1l0.3-0.2l0.1-0.7v-3.1c0,0,0.2-0.6,1-0.7
		c0,0,1.2-0.1,1.4,0c0.2,0.1,2.8,0.2,3.5,0.1s0.8,0.5,3-0.6c0,0,0.6,0,0.6,0.4c0,0-0.2,4,0,4.8c0,0,0,7.4-0.2,7.9l0.1,2.4
		c0,0,0.1,1-1.6,1.1c0,0,1,0.1-5.5-0.1c0,0-1-0.1-2.2,0.5c0,0-0.2-0.1-0.2-0.7c0,0,0.2-2.2,0-4.4l-0.1-2.4
		C29.3,45.9,28.9,45.9,28.9,45.9z"/>
	<path fill="#1E1E1E" d="M24.7,42.5c0,0,0.1,3.5,0,4v0.8c0,0,0.2,0.5,0.5,0.7c0,0,0.2,0.7-0.3,0.6c0,0-1.2-0.1-1.5,0
		c0,0-0.7,0,0-0.8c0,0,0.2-0.3,0.2-1.2c0,0,0-4,0.1-4.2c0,0,0.1-0.5-0.2-0.7h-0.6l-0.7,0.7c0,0-0.2,0.7-0.5,0V42l0.4-1.1h0.3
		c0,0,0.4,0.3,0.8,0.4h2.2l0.8-0.4c0,0,0.3,0,0.2,0.5c0,0,0.1,1.1-0.5,1.2c0,0-0.4-0.1-0.6-0.7C25.3,41.8,24.7,41.4,24.7,42.5
		 M35.1,41.2c0,0-1.8-0.2-1.8,1.8c0,0-0.2,1.3,1.8,2.2c0,0,1.5,0.7,1.4,1.6c0,0-0.2,1.6-1.8,0.8c0,0-0.8-0.4-0.7-0.8
		c0,0-0.2-0.5-0.5-0.4c0,0-0.3,0.1-0.2,1.7c0,0,0,0.6,0.7,0l0.4,0.1c0,0,1.3,1,2.4-0.2c0,0,1.2-1.1,0.3-2.4c0,0-0.6-1-1.7-1.4
		c0,0-1-0.5-1.3-1.3c0,0,0.3-1.4,1.6-0.7c0,0,0.5,0.6,0.8,0.7c0,0,0.4,0,0.3-0.9l-0.1-0.7c0,0-0.1-0.5-0.8,0
		C35.9,41.2,35.3,41.5,35.1,41.2 M29.4,40.2c0.3,0.2,0.4,0.7,0.4,0.7c1,2.5,1.8,6.2,1.8,6.2c0.2,0.5,0.7,0.8,0.7,0.8
		c0.8,0.3,0,0.5,0,0.5c-0.3,0.1-1.4,0-1.4,0c-0.6-0.1-0.3-0.3-0.3-0.3c0.2-0.2,0-1.2,0-1.2c0-0.4-0.5-1-0.5-1
		c-0.2-0.1-0.5,0.3-0.5,0.3s-0.5,0.2-0.6,0s-0.4-0.4-0.4-0.4c-0.6,0-0.8,1.4-0.8,1.4c0.3,1.2,0,1,0,1c-0.3,0.4-1.2,0.1-1.2,0.1
		c-0.4-0.1-0.1-0.4-0.1-0.4c0.5-0.1,0.7-0.7,0.7-0.7c0.2-0.3,1.8-6.5,1.8-6.5C28.9,40.6,29,40,29.4,40.2 M28.6,43.4
		c0,0.2-0.4,1.6-0.4,1.6l0.3,0.5h1c0.2,0,0.3-0.2,0.3-0.5c0-0.2-0.5-1.7-0.5-1.7L29.1,43C29.1,43,28.6,43.4,28.6,43.4z M16.5,28.8
		c0,0-0.5,1.7-2.8,0l-8-0.2c0,0-1,0.3-1.2-0.8c0,0,0.2-2.2,0.1-2.4c0,0,0.1-0.6-1-0.6c0,0-1.6,0.2-1.7-1.2c0,0-0.3-1.5,1.9-1.5
		c0,0,0.7,0.3,0.8-0.6c0,0-0.1-6.2-0.1-6.6c0,0,0.2-0.6-0.9-0.7c0,0-1.6,0.3-1.8-0.7c0,0-0.1-1.6,0.9-1.7c0,0,1.3,0.1,1.5-0.2
		c0,0,0.3,0.2,0.2-1l0.1-1.9c0,0,0.1-0.5,0.9-0.5c0,0,1.5,0.1,1.7,0c0,0,0.3-0.4,0.4-0.6c0,0,0.8,0,0.9,0.1c0,0,1.1,0.8,5.5,0.5
		c0,0,0.7,0,0.8,0.2c0,0,0.8,0.6,1.3,0c0,0,0.7-0.1,2.9-0.1c0,0,2.3,0.6,3.9-0.7l0.5,0.1c0,0,0.7,1.1,1.1,0.8c0,0,1.4-0.1,1.7,0.1
		c0,0,0.5,0.7,0.2,2.6c0,0-0.3,0.8,1.1,0.8c0,0,1.6-0.3,1.4,1.2c0,0,0.4,1.7-2.2,1.4c0,0-0.3,0.5-0.3,0.8c0,0,0,5.4-0.1,6
		c0,0,0,0.8,1.1,0.8c0,0,1.5-0.1,1.6,1.3c0,0,0.2,1.8-2,1.5c0,0-0.7,0.1-0.8,0.5L26,27.9c0,0,0,1.2-1.3,0.9c-0.2,0-7.4,0.1-8,0
		C16.9,28.6,16.6,28.6,16.5,28.8"/>
	<path fill="none" stroke="#1E1E1E" stroke-width="0.164" d="M16.5,28.8c0,0-0.5,1.7-2.8,0l-8-0.2c0,0-1,0.3-1.2-0.8
		c0,0,0.2-2.2,0.1-2.4c0,0,0.1-0.6-1-0.6c0,0-1.6,0.2-1.7-1.2c0,0-0.3-1.5,1.9-1.5c0,0,0.7,0.3,0.8-0.6c0,0-0.1-6.2-0.1-6.6
		c0,0,0.2-0.6-0.9-0.7c0,0-1.6,0.3-1.8-0.7c0,0-0.1-1.6,0.9-1.7c0,0,1.3,0.1,1.5-0.2c0,0,0.3,0.2,0.2-1l0.1-1.9c0,0,0.1-0.5,0.9-0.5
		c0,0,1.5,0.1,1.7,0c0,0,0.3-0.4,0.4-0.6c0,0,0.8,0,0.9,0.1c0,0,1.1,0.8,5.5,0.5c0,0,0.7,0,0.8,0.2c0,0,0.8,0.6,1.3,0
		c0,0,0.7-0.1,2.9-0.1c0,0,2.3,0.6,3.9-0.7l0.5,0.1c0,0,0.7,1.1,1.1,0.8c0,0,1.4-0.1,1.7,0.1c0,0,0.5,0.7,0.2,2.6
		c0,0-0.3,0.8,1.1,0.8c0,0,1.6-0.3,1.4,1.2c0,0,0.4,1.7-2.2,1.4c0,0-0.3,0.5-0.3,0.8c0,0,0,5.4-0.1,6c0,0,0,0.8,1.1,0.8
		c0,0,1.5-0.1,1.6,1.3c0,0,0.2,1.8-2,1.5c0,0-0.7,0.1-0.8,0.5L26,27.9c0,0,0,1.2-1.3,0.9c-0.2,0-7.4,0.1-8,0
		C16.9,28.6,16.6,28.6,16.5,28.8z"/>
	<path fill="#FFFFFF" d="M7.6,9.2c0,0,0.1,1,0.1,1.2S7.6,24.1,7.6,24.1s0.1,1-0.8,1.6c0,0-0.2,0.1-0.3-0.6l0.1-14.2
		C6.6,10.9,6.7,9.2,7.6,9.2"/>
	<path fill="none" stroke="#1E1E1E" stroke-width="0.1722" d="M7.6,9.2c0,0,0.1,1,0.1,1.2S7.6,24.1,7.6,24.1s0.1,1-0.8,1.6
		c0,0-0.2,0.1-0.3-0.6l0.1-14.2C6.6,10.9,6.7,9.2,7.6,9.2z"/>
	<path fill="#FFFFFF" d="M6,25.8c0,0,0.1-13.4,0.1-13.6c-0.1-0.2,0,0.2,0,0.2S6,10.1,6.6,9.1c0,0-0.2-0.8-1.3,0.2l-0.1,2
		c0,0,0,1.1-1,1c0,0-1.1,0-1.7,0.5c0,0-0.3,1,0.8,0.9c0,0,1.7,0,1.8,0.7L5,21.6c0,0,0.4,1.2-0.9,1.2c0,0-1.6-0.1-1.6,0.9
		c0,0,0.3,0.8,1.7,0.6c0,0,1,0.2,0.9,1.1v1.8c0,0-0.1,0.7,0.9,0.8h7.4c0,0,0.4,0,0.4-0.4c0,0,0-0.4-0.6-0.4L7.1,27
		C7.1,27,6.1,27.3,6,25.8"/>
	<path fill="#FFFFFF" d="M7.3,25.9c0,0-0.2,0.7,0.5,0.5h4.9l1.3,0.3c0,0,1.4-0.3,0-1.1H9.3c0,0-0.9-0.2-1.1-0.3
		C8.2,25.3,7.7,25.1,7.3,25.9"/>
	<path fill="none" stroke="#1E1E1E" stroke-width="0.1722" d="M7.3,25.9c0,0-0.2,0.7,0.5,0.5h4.9l1.3,0.3c0,0,1.4-0.3,0-1.1H9.3
		c0,0-0.9-0.2-1.1-0.3C8.2,25.3,7.7,25.1,7.3,25.9z"/>
	<path fill="#FFFFFF" d="M15.4,26.6c0,0-0.9,0-0.9,1.2c0,0,0.1,0.9,1,0.9c0,0,0.8-0.2,0.8-1.1C16.3,27.6,15.8,26.4,15.4,26.6
		 M16,26.1c0,0,0.4-0.5,0.7-0.5c0,0,4.7,0.4,5.5-0.1c0,0,0.7-0.1,0.9,0c0,0,0.7,0.6,0.7,0.9c0,0,0,0.4-0.9,0.2h-5.6
		C17.4,26.6,15.9,27,16,26.1"/>
	<path fill="none" stroke="#1E1E1E" stroke-width="0.1722" d="M16,26.1c0,0,0.4-0.5,0.7-0.5c0,0,4.7,0.4,5.5-0.1c0,0,0.7-0.1,0.9,0
		c0,0,0.7,0.6,0.7,0.9c0,0,0,0.4-0.9,0.2h-5.6C17.4,26.6,15.9,27,16,26.1z"/>
	<path fill="#FFFFFF" d="M16.8,27.5c0,0,0-0.4,0.7-0.4h6.6c0,0,0.6,0.3,0.6-0.8c0,0,0.2-5.2,0.3-10.9c0-1.7,0.1-3.5,0-5.1
		c0,0-0.1-0.7-0.3-0.9c0,0,0-0.8,0.8-0.5c0,0,0.7,0,0.5,1.1v1.7c0,0-0.1,0.7,1.1,0.5c0,0,1.3,0.2,1.3,0.7c0,0,0.4,1-1.1,0.9h-1.1
		c0,0-0.5,0.3-0.3,0.9l-0.1,6.9c0,0-0.1,1.2,1,1.1c0,0,1.2,0,1.4,0.3c0,0,0.8,1.2-1,1.1c0,0-1.1,0-1.3,0.1c0,0-0.2,0.2-0.3,2.5
		c0,0,0.1,1.3-0.9,1.2c0,0-6.6,0.1-7.2,0C17.5,27.9,16.9,28.1,16.8,27.5 M8.3,8.8L8.1,24c0,0,0,0.7,1.1,0.8c0,0,1.4,0.1,1.7,0h3.2
		c0,0,0.6,0.6,0.6-0.1c0,0,0.4-12.3,0.2-14.9c0,0,0-1.1-0.9-1.1c0,0-3.6,0.3-3.9,0L8.8,8.4C8.8,8.4,8.2,8.4,8.3,8.8"/>
	<path fill="#FFFFFF" d="M23.3,9.4v15c0,0,0.4,1.3,1,1.2c0,0,0.1-0.3,0.1-0.8l0.2-14.3C24.6,10.5,24.1,8.2,23.3,9.4"/>
	<path fill="none" stroke="#1E1E1E" stroke-width="0.1722" d="M23.3,9.4v15c0,0,0.4,1.3,1,1.2c0,0,0.1-0.3,0.1-0.8l0.2-14.3
		C24.6,10.5,24.1,8.2,23.3,9.4z"/>
	<path fill="#FFFFFF" d="M15.7,9.5c0,0-0.1,7.2-0.1,7.4l-0.1,6L15.4,25c0,0,0.3,0.4,0.5,0.1c0,0,1.5-0.4,2.5-0.2c0,0,3,0.3,3.7-0.2
		c0,0,0.5,0.2,0.6-0.5c0,0,0.2-13.3,0.1-13.5c0,0,0.2-1.9,0.1-2.1c0,0,0-0.4-0.9,0c0,0,0.1,0.4-4.4,0.2C17.5,8.8,15.8,8.8,15.7,9.5"
		/>
	<path fill="#1E1E1E" d="M14.3,13.9l-0.4,0.9c0,0-1,4.6-1.6,5.5c0,0-0.1,1-0.9,0.2c0,0-1.9-5.8-2-6l-0.6-0.4c0,0-0.4-0.5,0.3-0.6
		h1.8c0,0,0.6,0.5-0.2,1c0,0,0.1,0.8,1.1,3.7c0,0,0.3,1.1,0.6,0.3l1-3.4l-0.3-1c0,0-0.3-0.5,0.1-0.5C13.2,13.6,14.2,13.5,14.3,13.9
		 M17,14.7v5l-0.1,0.4c0,0-0.5,0.6-0.1,0.7c0,0-0.4,0.3,3,0.3c0,0,1.3,0.2,1-1.5c0,0-0.1-0.6-0.6,0.3c0,0-0.1,0.8-1.9,0.5
		c0,0-0.4-0.3-0.4-0.7v-2.1c0,0,0-0.5,0.8-0.5c0,0,0.9,0.6,1,0.3c0,0,0.3-0.8,0-1.2c0,0-0.4,0-0.5,0.1c0,0-0.3,0.6-1.1,0.2
		c0,0-0.4-0.8-0.1-1.4c0,0-0.1-1.2,0.7-1.1c0,0,1,0.2,1,0.5c0,0,0.2,0.6,0.5-0.1L20,13.7c0,0-0.1-0.3-0.4-0.2c0,0-1.6,0.2-1.8,0
		l-1.3,0.1c0,0-0.2,0.5,0.4,0.7C16.9,14.4,17,14.5,17,14.7"/>
</g>
</svg>
