<svg height="265" viewBox="45.07 43.18 515.89 93.05" width="2500" xmlns="http://www.w3.org/2000/svg"><path d="m101.73 45.07v35.8h-37.35v-35.8h-19.31v90.14h19.31v-37.73h37.35v37.73h19.31v-90.14zm142.57 73.39v-73.39h-19.33v73.65c0 10.69 5.81 16.49 16.49 16.49h43.92v-16.75zm41.07-73.39v16.61h26.64v73.53h19.31v-73.53h26.66v-16.61zm110.38 68.11c-1.43 5.54-6.19 8.37-13.39 8.37-9.01 0-14.81-5.67-16.09-14.81h46.6c.14-1.41.27-3.34.27-5.79 0-14.81-9.14-31.67-32.06-31.67-22.03 0-32.06 16.86-32.06 33.35 0 16.34 11.34 33.6 33.35 33.6 15.97 0 28.32-9.01 30.9-23.05zm-14.69-30.77c8.62 0 13.64 5.79 14.16 13.02h-28.72c1.56-9.04 6.45-13.02 14.56-13.02zm89.64 28.59c-1.29 5.79-6.56 9.78-13.12 9.78-9.78 0-15.57-7.47-15.57-18.02s5.65-18.15 15.32-18.15c6.56 0 12.09 4.24 13.12 10.03h18.02c-1.16-15.06-14.68-25.36-31.67-25.36-20.1 0-33.47 14.54-33.47 33.47 0 18.92 13.38 33.47 33.47 33.47 16.86 0 30.26-10.82 32.19-25.23h-18.29zm66.18-41.72c-9.01 0-16.09 3.74-19.83 10.03v-34.24h-17.9v90.14h17.9v-35.55c0-8.37 5.54-14.41 13.39-14.41 7.47 0 12.62 5.67 12.62 13.52v36.44h17.9v-40.43c0-14.95-9.53-25.5-24.08-25.5zm-403.71 19.91c0-30.33 19.6-46.01 41.96-46.01 21.04 0 36.46 12.85 38.73 32.26h-18.77c-1.2-9.38-9.44-15.68-19.96-15.68-13.51 0-23.91 10.15-23.91 29.43s10.4 29.31 23.91 29.31c10.76 0 19.01-6.3 20.44-15.55h17.93c-1.55 19.28-16.97 32.26-38.37 32.26-22.72-.01-41.96-15.69-41.96-46.02z" fill="#315ea8"/></svg>