<svg width="136" height="48" viewBox="0 0 136 48" fill="none" xmlns="http://www.w3.org/2000/svg">
<path d="M7.86682 7.13324C5.13601 8.28088 2.13394 11.5231 1.18578 15.5928C-0.0149765 20.7493 4.98195 22.9299 5.3918 22.2149C5.87419 21.3748 4.49641 21.0907 4.21281 18.4153C3.84627 14.9597 5.44635 11.0986 7.46011 9.4044C7.83443 9.08964 7.81662 9.52773 7.81662 10.3381C7.81662 11.7871 7.73687 24.7956 7.73687 27.5105C7.73687 31.1841 7.58575 32.3441 7.31432 33.4904C7.03931 34.652 6.59718 35.4369 6.9322 35.7393C7.3065 36.0775 8.90465 35.273 9.82984 33.9766C10.9393 32.4217 11.3276 30.5544 11.3974 28.5265C11.4816 26.082 11.478 22.203 11.4816 19.9905C11.4849 17.9613 11.5156 12.0192 11.4461 8.44711C11.4291 7.57094 9.00886 6.65171 7.86669 7.13217M104.838 24.3253C104.75 26.2351 104.329 27.7279 103.806 28.7808C102.794 30.8192 100.695 31.4522 99.8038 28.5219C99.3181 26.9246 99.2954 24.2569 99.6446 22.0279C100 19.7572 100.993 18.0423 102.636 18.1969C104.258 18.3498 105.016 20.4472 104.838 24.3253ZM77.5074 36.1742C77.4854 39.3474 76.9879 42.1297 75.9212 42.9378C74.4083 44.0836 72.3748 43.2241 72.7959 40.9086C73.1684 38.8595 74.9304 36.7669 77.5117 34.2101C77.5117 34.2101 77.517 34.7932 77.5074 36.1742ZM77.0942 24.3068C77.0017 26.0463 76.5525 27.7937 76.0625 28.781C75.051 30.8194 72.9364 31.4567 72.0601 28.5221C71.461 26.5171 71.6045 23.9221 71.9009 22.287C72.2856 20.1655 73.2181 18.1974 74.8927 18.1974C76.5208 18.1974 77.3237 19.9906 77.0942 24.3068ZM61.2616 24.2802C61.1623 26.1224 60.8044 27.6625 60.2299 28.781C59.1906 30.8054 57.1344 31.4474 56.2276 28.5221C55.5738 26.4127 55.7964 23.5365 56.0683 21.9828C56.4719 19.6771 57.4825 18.0425 59.0601 18.1974C60.6806 18.3563 61.4684 20.4472 61.2616 24.2802ZM133.819 26.432C133.423 26.432 133.242 26.842 133.092 27.5321C132.573 29.9315 132.028 30.4733 131.325 30.4733C130.539 30.4733 129.834 29.2852 129.652 26.9068C129.51 25.0367 129.532 21.5937 129.715 18.1688C129.752 17.4651 129.559 16.7688 127.679 16.0832C126.87 15.7883 125.694 15.354 125.109 16.7729C123.454 20.7815 122.807 23.964 122.655 25.2569C122.647 25.3238 122.565 25.3374 122.551 25.1811C122.454 24.1456 122.237 22.264 122.21 18.3106C122.205 17.5393 122.042 16.8827 121.194 16.3452C120.644 15.9964 118.973 15.3795 118.371 16.1134C117.85 16.7136 117.247 18.3289 116.619 20.2435C116.11 21.7997 115.755 22.8525 115.755 22.8525C115.755 22.8525 115.761 18.6535 115.767 17.0608C115.77 16.4599 115.359 16.2597 115.236 16.2234C114.679 16.0611 113.581 15.7899 113.115 15.7899C112.54 15.7899 112.399 16.1125 112.399 16.5826C112.399 16.6442 112.308 22.1109 112.308 25.9335C112.308 26.0995 112.308 26.2807 112.31 26.4731C111.992 28.23 110.961 30.615 109.839 30.615C108.717 30.615 108.187 29.6179 108.187 25.0608C108.187 22.4023 108.266 21.2463 108.305 19.3235C108.328 18.216 108.372 17.3655 108.369 17.1725C108.361 16.5807 107.342 16.2824 106.867 16.1721C106.391 16.0609 105.977 16.0179 105.653 16.0364C105.196 16.0623 104.872 16.3638 104.872 16.7784C104.872 17.0007 104.874 17.4235 104.874 17.4235C104.285 16.4934 103.337 15.8461 102.706 15.6585C101.007 15.1519 99.2338 15.6008 97.8965 17.4796C96.8336 18.9724 96.1929 20.6632 95.9407 23.0924C95.7563 24.8684 95.8165 26.6693 96.1442 28.1923C95.7482 29.9109 95.0132 30.615 94.2084 30.615C93.0399 30.615 92.1928 28.7002 92.2912 25.3886C92.3561 23.2105 92.7902 21.6819 93.2647 19.4705C93.467 18.5278 93.3026 18.0343 92.8903 17.5612C92.5121 17.1274 91.7064 16.9058 90.548 17.1784C89.723 17.3727 88.5433 17.5817 87.464 17.7423C87.464 17.7423 87.5291 17.4814 87.5826 17.0215C87.8633 14.6094 85.2526 14.8051 84.4197 15.5755C83.9225 16.0355 83.584 16.578 83.4556 17.5533C83.2519 19.1012 84.5093 19.8313 84.5093 19.8313C84.0967 21.7272 83.0855 24.204 82.0415 25.9947C81.4823 26.9541 81.0545 27.665 80.5022 28.4207C80.5002 28.1393 80.4987 27.858 80.4977 27.5779C80.4851 23.5918 80.5379 20.4546 80.5612 19.3239C80.5839 18.2164 80.6282 17.3884 80.6257 17.1954C80.6195 16.7625 80.3677 16.5991 79.844 16.3921C79.3809 16.209 78.8334 16.0823 78.2654 16.0381C77.5486 15.982 77.1167 16.3637 77.128 16.8151C77.1302 16.9003 77.1302 17.4236 77.1302 17.4236C76.5406 16.4936 75.5925 15.8462 74.9617 15.6586C73.2626 15.1522 71.4896 15.6012 70.1522 17.4798C69.0896 18.9726 68.3936 21.0674 68.1964 23.0741C68.0127 24.9444 68.0467 26.5337 68.2971 27.8726C68.0269 29.2132 67.2501 30.6152 66.3718 30.6152C65.2489 30.6152 64.61 29.6181 64.61 25.061C64.61 22.4024 64.6895 21.2465 64.7286 19.3239C64.7513 18.2164 64.7951 17.3657 64.7926 17.1729C64.7843 16.581 63.7649 16.2827 63.2907 16.1723C62.7944 16.0571 62.3659 16.0147 62.0369 16.039C61.6028 16.0715 61.2976 16.4618 61.2976 16.7529V17.4236C60.7081 16.4936 59.7599 15.8462 59.1291 15.6586C57.43 15.1522 55.6669 15.6084 54.3197 17.4798C53.4411 18.7 52.7299 20.0528 52.3639 23.0475C52.2581 23.9129 52.2114 24.7233 52.2174 25.4808C51.8671 27.6318 50.3198 30.111 49.0541 30.111C48.3135 30.111 47.6081 28.6687 47.6081 25.5949C47.6081 21.5003 47.8605 15.6706 47.9032 15.1087C47.9032 15.1087 49.5024 15.0815 49.8121 15.0778C50.6097 15.069 51.3322 15.088 52.3946 15.0334C52.9275 15.0061 53.4409 13.086 52.8909 12.8484C52.6417 12.7408 50.8799 12.6466 50.1815 12.6317C49.5942 12.6184 47.9593 12.4969 47.9593 12.4969C47.9593 12.4969 48.106 8.62737 48.1401 8.21861C48.1691 7.87792 47.73 7.70251 47.4783 7.59608C46.8661 7.33612 46.3184 7.21165 45.6691 7.07727C44.7722 6.89149 44.3653 7.07321 44.2858 7.83327C44.1661 8.98679 44.1041 12.3654 44.1041 12.3654C43.4459 12.3654 41.1974 12.2363 40.539 12.2363C39.9273 12.2363 39.267 14.8776 40.1128 14.9101C41.0858 14.948 42.7816 14.9807 43.9058 15.0147C43.9058 15.0147 43.8557 20.9405 43.8557 22.77C43.8557 22.9646 43.8574 23.152 43.8577 23.3339C43.239 26.5717 41.0598 28.3206 41.0598 28.3206C41.5278 26.1787 40.5718 24.5701 38.8498 23.2085C38.2154 22.7068 36.9629 21.7569 35.5616 20.716C35.5616 20.716 36.3732 19.9129 37.0929 18.2971C37.6029 17.1527 37.625 15.8429 36.3732 15.5541C34.3049 15.0765 32.5995 16.6016 32.0908 18.2297C31.6967 19.491 31.9069 20.4269 32.679 21.3991C32.7353 21.4702 32.7964 21.5428 32.8595 21.6158C32.3926 22.5193 31.7513 23.7357 31.208 24.6791C29.7002 27.2981 28.5612 29.3697 27.7004 29.3697C27.0123 29.3697 27.0215 27.2665 27.0215 25.2973C27.0215 23.5997 27.1464 21.0474 27.2461 18.4049C27.2791 17.531 26.8439 17.0331 26.1143 16.5822C25.671 16.3083 24.7248 15.7696 24.1769 15.7696C23.3567 15.7696 20.9904 15.8817 18.7546 22.375C18.4728 23.1934 17.9193 24.6847 17.9193 24.6847L17.9669 16.8762C17.9669 16.6932 17.8698 16.5162 17.6474 16.3951C17.2707 16.1897 16.2644 15.7696 15.3696 15.7696C14.9433 15.7696 14.7305 15.9687 14.7305 16.3655L14.6525 28.5819C14.6525 29.5101 14.6766 30.593 14.768 31.0666C14.859 31.5408 15.0066 31.9266 15.1893 32.1561C15.3718 32.3852 15.5828 32.5599 15.9308 32.632C16.2547 32.699 18.0282 32.9276 18.1204 32.2472C18.2309 31.4317 18.2351 30.5496 19.1664 27.26C20.6162 22.1385 22.5064 19.6396 23.3951 18.7521C23.5504 18.597 23.7278 18.5878 23.7193 18.8416C23.6814 19.9645 23.5479 22.7702 23.4581 25.1539C23.2174 31.5329 24.3733 32.7152 26.025 32.7152C27.2887 32.7152 29.07 31.4546 30.9795 28.2636C32.17 26.275 33.3259 24.3251 34.1563 22.9197C34.735 23.4576 35.3845 24.0365 36.0335 24.6549C37.5417 26.0921 38.0369 27.4578 37.7084 28.7533C37.4571 29.7437 36.5107 30.7644 34.8264 29.7723C34.3355 29.4829 34.126 29.2593 33.6324 28.933C33.3672 28.7577 32.9623 28.7053 32.7195 28.8889C32.0889 29.3663 31.7282 29.9735 31.5223 30.7252C31.322 31.4566 32.0516 31.8433 32.808 32.1815C33.4592 32.4726 34.859 32.7364 35.7517 32.7664C39.2299 32.8832 42.0161 31.0803 43.9558 26.4298C44.303 30.4461 45.7806 32.7188 48.348 32.7188C50.0644 32.7188 51.7852 30.4913 52.5378 28.3001C52.7538 29.1933 53.0736 29.9701 53.4866 30.6269C55.4649 33.7738 59.3026 33.0965 61.2303 30.4243C61.8263 29.5986 61.9171 29.3019 61.9171 29.3019C62.1982 31.8251 64.2221 32.7067 65.3809 32.7067C66.6787 32.7067 68.0187 32.0907 68.9578 29.9679C69.0679 30.1983 69.188 30.4183 69.3192 30.6268C71.2974 33.7737 75.1352 33.0964 77.0629 30.4242C77.1538 30.2989 77.2327 30.1851 77.3016 30.0831L77.3582 31.7405C77.3582 31.7405 76.2585 32.7533 75.5834 33.3747C72.6123 36.1114 70.3531 38.1878 70.1869 40.6057C69.9736 43.6888 72.4641 44.8346 74.3483 44.9848C76.3492 45.1442 78.0627 44.0345 79.1159 42.4814C80.0423 41.1144 80.6486 38.1722 80.6042 35.2664C80.5864 34.1027 80.5572 32.6232 80.5343 31.0372C81.5786 29.8197 82.7551 28.2809 83.8385 26.4796C85.019 24.5166 86.2843 21.8805 86.9322 19.8289C86.9322 19.8289 88.0315 19.8384 89.2046 19.7613C89.5799 19.7367 89.6877 19.8136 89.6183 20.0898C89.5345 20.4235 88.1361 25.8388 89.4123 29.4463C90.2859 31.9159 92.2552 32.7104 93.4228 32.7104C94.7895 32.7104 96.097 31.6742 96.7976 30.1354C96.8821 30.3069 96.9703 30.4729 97.0667 30.6262C99.0449 33.7731 102.869 33.0917 104.81 30.4235C105.249 29.8215 105.497 29.3011 105.497 29.3011C105.914 31.9125 107.936 32.7192 109.095 32.7192C110.302 32.7192 111.447 32.2225 112.376 30.0149C112.415 30.9869 112.476 31.7817 112.573 32.0323C112.632 32.1855 112.975 32.3779 113.224 32.4708C114.328 32.8818 115.454 32.6875 115.871 32.6029C116.159 32.5443 116.384 32.3118 116.415 31.7116C116.496 30.1356 116.446 27.4877 116.922 25.5198C117.721 22.2171 118.466 20.936 118.82 20.3017C119.017 19.9464 119.241 19.8878 119.249 20.2638C119.265 21.0248 119.303 23.2594 119.613 26.2618C119.84 28.4699 120.144 29.775 120.377 30.1881C121.043 31.3693 121.865 31.4253 122.535 31.4253C122.961 31.4253 123.852 31.3071 123.772 30.5554C123.733 30.189 123.801 27.9246 124.589 24.6708C125.103 22.546 125.96 20.6261 126.27 19.9243C126.384 19.6654 126.437 19.8695 126.435 19.9092C126.37 21.3725 126.224 26.1588 126.817 28.7765C127.622 32.3227 129.951 32.7195 130.762 32.7195C132.494 32.7195 133.911 31.3966 134.388 27.9159C134.503 27.0782 134.333 26.4314 133.823 26.4314" fill="#262626"/>
</svg>
