<svg width="176" height="50" viewBox="0 0 176 50" fill="none" xmlns="http://www.w3.org/2000/svg">
<path d="M12.6958 1.1683C9.23764 2.61796 5.43595 6.71343 4.23525 11.8541C2.71466 18.3676 9.04255 21.1219 9.56156 20.2188C10.1724 19.1576 8.42768 18.7988 8.06854 15.4193C7.60437 11.0544 9.63064 6.17714 12.1808 4.03713C12.6548 3.63954 12.6323 4.19292 12.6323 5.21651C12.6323 7.04692 12.5313 23.4787 12.5313 26.908C12.5313 31.5483 12.3399 33.0136 11.9962 34.4615C11.6479 35.9289 11.088 36.9203 11.5123 37.3022C11.9863 37.7294 14.0101 36.7133 15.1817 35.0757C16.5866 33.1116 17.0784 30.7529 17.1667 28.1914C17.2734 25.1036 17.2688 20.2038 17.2734 17.409C17.2776 14.8458 17.3165 7.34009 17.2285 2.82793C17.207 1.72119 14.142 0.560056 12.6957 1.16695M135.496 22.8846C135.384 25.297 134.851 27.1826 134.189 28.5126C132.908 31.0874 130.25 31.8869 129.121 28.1855C128.506 26.1679 128.477 22.7982 128.919 19.9826C129.369 17.1143 130.626 14.9481 132.708 15.1435C134.761 15.3366 135.722 17.986 135.496 22.8846ZM100.886 37.8516C100.858 41.8599 100.228 45.3744 98.8769 46.3951C96.961 47.8425 94.3859 46.7568 94.9191 43.8319C95.3909 41.2436 97.6222 38.6003 100.891 35.3706C100.891 35.3706 100.898 36.1072 100.886 37.8516ZM100.362 22.8612C100.245 25.0584 99.6763 27.2657 99.0558 28.5129C97.7749 31.0877 95.0971 31.8926 93.9874 28.1858C93.2287 25.6531 93.4104 22.3752 93.7858 20.3098C94.2729 17.6301 95.4537 15.1441 97.5744 15.1441C99.6362 15.1441 100.653 17.4092 100.362 22.8612ZM80.3126 22.8276C80.1869 25.1547 79.7336 27.1 79.0061 28.5129C77.69 31.07 75.0861 31.8809 73.9377 28.1858C73.1099 25.5213 73.3917 21.8882 73.7361 19.9256C74.2472 17.0132 75.5269 14.9484 77.5247 15.1441C79.5769 15.3448 80.5745 17.986 80.3126 22.8276ZM172.196 25.5457C171.694 25.5457 171.465 26.0636 171.276 26.9353C170.619 29.9661 169.928 30.6505 169.038 30.6505C168.043 30.6505 167.149 29.1497 166.919 26.1455C166.739 23.7832 166.768 19.4341 166.999 15.1079C167.046 14.2191 166.801 13.3396 164.42 12.4735C163.396 12.101 161.907 11.5524 161.166 13.3447C159.071 18.4082 158.251 22.4282 158.058 24.0613C158.048 24.1458 157.945 24.1631 157.927 23.9656C157.804 22.6576 157.529 20.2808 157.495 15.2871C157.488 14.3128 157.282 13.4834 156.208 12.8044C155.512 12.3639 153.396 11.5846 152.634 12.5117C151.974 13.2698 151.21 15.3101 150.415 17.7287C149.77 19.6944 149.32 21.0242 149.32 21.0242C149.32 21.0242 149.329 15.7203 149.336 13.7084C149.34 12.9494 148.82 12.6965 148.663 12.6506C147.958 12.4456 146.567 12.103 145.977 12.103C145.249 12.103 145.071 12.5105 145.071 13.1043C145.071 13.1821 144.956 20.0874 144.956 24.916C144.956 25.1257 144.956 25.3546 144.958 25.5976C144.556 27.8169 143.25 30.8295 141.829 30.8295C140.407 30.8295 139.737 29.57 139.737 23.8136C139.737 20.4555 139.837 18.9953 139.887 16.5665C139.915 15.1676 139.971 14.0933 139.968 13.8495C139.957 13.1019 138.666 12.7251 138.066 12.5858C137.462 12.4454 136.938 12.391 136.528 12.4144C135.949 12.4471 135.539 12.8279 135.539 13.3517C135.539 13.6325 135.542 14.1665 135.542 14.1665C134.795 12.9917 133.595 12.174 132.796 11.937C130.644 11.2971 128.399 11.8641 126.705 14.2374C125.359 16.1231 124.548 18.2588 124.229 21.3273C123.995 23.5706 124.071 25.8454 124.486 27.7693C123.985 29.9401 123.054 30.8295 122.035 30.8295C120.555 30.8295 119.483 28.4108 119.607 24.2277C119.689 21.4764 120.239 19.5456 120.84 16.7522C121.096 15.5614 120.888 14.938 120.366 14.3405C119.887 13.7925 118.867 13.5126 117.4 13.8569C116.355 14.1024 114.861 14.3664 113.494 14.5692C113.494 14.5692 113.577 14.2397 113.644 13.6587C114 10.6118 110.694 10.8591 109.639 11.8322C109.009 12.4132 108.581 13.0985 108.418 14.3305C108.16 16.2857 109.752 17.2079 109.752 17.2079C109.23 19.6028 107.949 22.7314 106.627 24.9933C105.919 26.2052 105.377 27.1032 104.678 28.0578C104.676 27.7023 104.674 27.3469 104.672 26.9931C104.656 21.958 104.723 17.9953 104.753 16.567C104.782 15.1681 104.838 14.1223 104.834 13.8785C104.827 13.3316 104.508 13.1252 103.844 12.8637C103.258 12.6324 102.565 12.4724 101.846 12.4166C100.938 12.3457 100.391 12.8278 100.405 13.398C100.408 13.5057 100.408 14.1667 100.408 14.1667C99.6613 12.9919 98.4606 12.1742 97.6618 11.9372C95.5101 11.2976 93.2649 11.8646 91.5713 14.2376C90.2256 16.1233 89.3443 18.7694 89.0946 21.3041C88.8619 23.6666 88.9049 25.6742 89.222 27.3653C88.8799 29.0588 87.8962 30.8297 86.7839 30.8297C85.362 30.8297 84.5529 29.5702 84.5529 23.8138C84.5529 20.4557 84.6536 18.9955 84.7031 16.567C84.7318 15.1681 84.7872 14.0935 84.7841 13.85C84.7737 13.1024 83.4827 12.7256 82.8821 12.586C82.2536 12.4405 81.711 12.3869 81.2944 12.4177C80.7447 12.4587 80.3582 12.9517 80.3582 13.3194V14.1667C79.6116 12.9919 78.411 12.1742 77.6121 11.9372C75.4604 11.2976 73.2277 11.8737 71.5217 14.2376C70.4091 15.779 69.5085 17.4878 69.0449 21.2705C68.911 22.3637 68.8518 23.3873 68.8595 24.3441C68.4158 27.0612 66.4564 30.1929 64.8536 30.1929C63.9157 30.1929 63.0224 28.371 63.0224 24.4883C63.0224 19.3162 63.3421 11.9523 63.3961 11.2426C63.3961 11.2426 65.4212 11.2081 65.8134 11.2036C66.8235 11.1925 67.7384 11.2164 69.0839 11.1475C69.7587 11.113 70.4088 8.68762 69.7124 8.38745C69.3967 8.2516 67.1657 8.13255 66.2812 8.11375C65.5375 8.09688 63.4672 7.94344 63.4672 7.94344C63.4672 7.94344 63.6529 3.05563 63.6961 2.5393C63.7328 2.10895 63.1768 1.88738 62.858 1.75294C62.0828 1.42457 61.3892 1.26735 60.567 1.09761C59.4311 0.862939 58.9158 1.09248 58.8152 2.05255C58.6636 3.50962 58.5851 7.77739 58.5851 7.77739C57.7515 7.77739 54.9042 7.61421 54.0704 7.61421C53.2958 7.61421 52.4596 10.9507 53.5307 10.9917C54.7629 11.0395 56.9103 11.0808 58.334 11.1238C58.334 11.1238 58.2706 18.609 58.2706 20.9199C58.2706 21.1658 58.2727 21.4026 58.2731 21.6323C57.4896 25.7221 54.7299 27.9313 54.7299 27.9313C55.3226 25.2257 54.1119 23.1939 51.9313 21.4739C51.1279 20.8402 49.5418 19.6403 47.7672 18.3254C47.7672 18.3254 48.795 17.311 49.7065 15.2701C50.3523 13.8244 50.3802 12.17 48.795 11.8052C46.1758 11.2019 44.0162 13.1283 43.372 15.1849C42.8729 16.7781 43.1391 17.9603 44.1168 19.1884C44.1882 19.2781 44.2656 19.3698 44.3455 19.4621C43.7542 20.6034 42.942 22.1399 42.2541 23.3314C40.3447 26.6397 38.9023 29.2565 37.8122 29.2565C36.9408 29.2565 36.9525 26.5998 36.9525 24.1124C36.9525 21.968 37.1106 18.7441 37.2369 15.4062C37.2787 14.3023 36.7276 13.6734 35.8036 13.1039C35.2422 12.7578 34.0441 12.0774 33.3502 12.0774C32.3115 12.0774 29.315 12.219 26.4836 20.421C26.1268 21.4548 25.4258 23.3385 25.4258 23.3385L25.4861 13.4752C25.4861 13.244 25.3631 13.0204 25.0815 12.8675C24.6044 12.608 23.3301 12.0774 22.197 12.0774C21.6571 12.0774 21.3877 12.3289 21.3877 12.8302L21.2889 28.2614C21.2889 29.4339 21.3194 30.8017 21.4351 31.3999C21.5505 31.9989 21.7373 32.4862 21.9687 32.7761C22.1998 33.0655 22.467 33.2862 22.9077 33.3773C23.3179 33.4619 25.5638 33.7507 25.6805 32.8912C25.8204 31.8611 25.8257 30.7469 27.0051 26.5916C28.841 20.1223 31.2348 16.9658 32.3601 15.8448C32.5568 15.6489 32.7815 15.6372 32.7707 15.9579C32.7226 17.3762 32.5537 20.9203 32.44 23.9312C32.1351 31.9889 33.5988 33.4824 35.6905 33.4824C37.2908 33.4824 39.5466 31.89 41.9647 27.8593C43.4723 25.3473 44.936 22.8843 45.9877 21.1091C46.7206 21.7885 47.543 22.5198 48.3649 23.301C50.2748 25.1164 50.9019 26.8414 50.4859 28.4779C50.1676 29.7289 48.9692 31.0182 46.8363 29.765C46.2146 29.3994 45.9493 29.117 45.3242 28.7048C44.9883 28.4834 44.4756 28.4172 44.1682 28.6492C43.3696 29.2522 42.9129 30.0191 42.6521 30.9687C42.3984 31.8926 43.3224 32.381 44.2802 32.8082C45.1049 33.1759 46.8775 33.5091 48.008 33.547C52.4126 33.6945 55.941 31.4172 58.3972 25.5429C58.8369 30.6161 60.7082 33.4869 63.9593 33.4869C66.1329 33.4869 68.3122 30.6733 69.2652 27.9054C69.5387 29.0337 69.9437 30.0148 70.4667 30.8445C72.9719 34.8195 77.8318 33.964 80.273 30.5886C81.0278 29.5456 81.1426 29.1708 81.1426 29.1708C81.4987 32.358 84.0616 33.4716 85.5291 33.4716C87.1726 33.4716 88.8695 32.6935 90.0588 30.0121C90.1982 30.3031 90.3503 30.581 90.5164 30.8444C93.0216 34.8194 97.8815 33.9639 100.323 30.5885C100.438 30.4301 100.538 30.2865 100.625 30.1576L100.697 32.2511C100.697 32.2511 99.304 33.5305 98.4491 34.3154C94.6867 37.7723 91.8257 40.3951 91.6153 43.4493C91.3451 47.3437 94.499 48.7911 96.885 48.9808C99.4189 49.1821 101.589 47.7804 102.923 45.8186C104.096 44.0918 104.864 40.3754 104.807 36.7049C104.785 35.235 104.748 33.3661 104.719 31.3628C106.041 29.8249 107.531 27.8811 108.903 25.6058C110.398 23.1262 112 19.7964 112.821 17.2049C112.821 17.2049 114.213 17.2169 115.698 17.1195C116.174 17.0885 116.31 17.1856 116.222 17.5345C116.116 17.956 114.345 24.7964 115.961 29.3532C117.068 32.4727 119.562 33.4763 121.04 33.4763C122.771 33.4763 124.427 32.1674 125.314 30.2236C125.421 30.4403 125.533 30.65 125.655 30.8436C128.16 34.8186 133.003 33.9579 135.461 30.5876C136.016 29.8272 136.331 29.1698 136.331 29.1698C136.858 32.4684 139.42 33.4874 140.887 33.4874C142.415 33.4874 143.865 32.86 145.042 30.0715C145.091 31.2993 145.169 32.3032 145.291 32.6197C145.366 32.8133 145.8 33.0563 146.116 33.1736C147.514 33.6928 148.94 33.4473 149.467 33.3405C149.833 33.2664 150.118 32.9728 150.157 32.2147C150.259 30.2239 150.196 26.8791 150.799 24.3934C151.81 20.2216 152.754 18.6033 153.202 17.8022C153.452 17.3533 153.735 17.2793 153.745 17.7543C153.766 18.7155 153.814 21.5382 154.206 25.3307C154.494 28.1199 154.878 29.7685 155.174 30.2902C156.017 31.7823 157.058 31.853 157.906 31.853C158.446 31.853 159.574 31.7037 159.473 30.7542C159.424 30.2913 159.51 27.4311 160.507 23.3211C161.158 20.6371 162.244 18.212 162.636 17.3254C162.78 16.9984 162.847 17.2562 162.845 17.3064C162.763 19.1548 162.578 25.2006 163.329 28.5071C164.349 32.9865 167.297 33.4878 168.325 33.4878C170.518 33.4878 172.312 31.8168 172.917 27.42C173.062 26.3619 172.847 25.5449 172.201 25.5449" fill="#262626"/>
</svg>
