<svg width="196" height="48" viewBox="0 0 196 48" fill="none" xmlns="http://www.w3.org/2000/svg">
<path d="M23.9127 7.00191H12.8914V7.89423H16.4645V26.0636C16.4645 31.5742 14.9761 33.0627 11.552 33.0627C9.46735 33.0627 9.02023 31.4252 9.02023 30.68C9.02023 28.7444 8.87119 27.405 7.08272 27.405C5.29617 27.405 5 29.1915 5 29.7877C5 32.3194 6.1904 34.255 11.1049 34.255C17.0626 34.255 20.1886 32.3194 20.1886 25.6184V7.89232H23.7636V7.00191H23.9127ZM25.4031 30.0838C24.8069 30.0838 24.2107 30.2367 23.9127 30.68C23.4656 31.1271 23.3165 31.5742 23.3165 32.1704C23.3165 32.7627 23.4656 33.2118 23.9127 33.6608C24.3598 34.106 24.8069 34.2531 25.4031 34.2531C25.9973 34.2531 26.4444 34.1041 26.8915 33.6608C27.3387 33.2137 27.4877 32.7627 27.4877 32.1704C27.4877 31.5742 27.3387 31.1271 26.8915 30.68C26.4444 30.2329 25.9973 30.0838 25.4011 30.0838H25.4031ZM49.8264 30.0838C49.2302 30.0838 48.7831 30.2367 48.336 30.68C47.8908 31.1271 47.7417 31.5742 47.7417 32.1704C47.7417 32.7627 47.8908 33.2118 48.336 33.6608C48.7831 34.106 49.2302 34.2531 49.8264 34.2531C50.4225 34.2531 51.0168 34.1041 51.3167 33.6608C51.7619 33.2118 51.911 32.7627 51.911 32.1704C51.911 31.5742 51.7619 31.1271 51.3148 30.68C50.8677 30.2329 50.4225 30.0838 49.8244 30.0838H49.8264ZM42.0801 7.00191H31.357V7.89423H34.4849V28.7463C34.4849 30.3838 34.3358 30.829 34.1868 31.2762C34.0378 31.8742 33.5907 32.1723 32.8455 32.4704C32.4002 32.6194 31.6551 32.7665 30.6118 32.7665V33.6608H42.2292V32.7665C41.1859 32.7665 40.4426 32.6194 39.9936 32.4704C39.2503 32.1723 38.8032 31.7252 38.6561 31.2781C38.4573 30.755 38.3556 30.2001 38.3561 29.6406V22.4886H41.1859C49.5264 22.4886 51.9091 19.2136 51.9091 14.7443C51.9091 10.1279 50.5696 7.00191 42.0801 7.00191ZM40.5898 21.4472H38.3561V8.04327H40.2936C46.6965 8.04327 48.185 10.7241 48.185 14.8933C48.185 19.2116 45.6552 21.4472 40.5898 21.4472ZM86.3122 31.1271C86.1158 30.5519 86.0151 29.9484 86.0142 29.3406V7.89423H88.8421V7.00191H81.9959C81.8468 7.29999 73.8063 27.2559 73.8063 27.2559L73.6573 27.4069C73.5083 27.4069 73.5083 27.4069 73.5083 27.2578C73.5083 27.2578 64.8716 7.15095 64.8716 7.00191H57.2707V7.89614H60.5476V30.5329C60.5476 30.9819 60.3986 31.429 60.1005 31.8742C59.8024 32.3213 59.3553 32.6194 58.9082 32.7665C58.6101 32.9194 58.0159 32.9194 57.4178 32.9194V33.8098H64.8659V32.9156C64.2698 32.9156 63.9717 32.7665 63.5265 32.7665C62.9303 32.6175 62.6322 32.3194 62.3342 31.8723C62.0361 31.5742 61.887 31.1271 61.887 30.5329L61.738 28.5954V10.7222H62.1851C62.1851 10.7222 71.865 33.3589 72.0141 33.657H72.7593L81.992 10.8731H82.2901V29.3406C82.2901 30.0858 82.1411 30.68 81.992 31.2762C81.843 31.8723 81.3978 32.1704 80.8016 32.4685C80.1777 32.6754 79.5233 32.7755 78.866 32.7646V33.6589H89.2911V32.7646C88.6332 32.7756 87.9782 32.6755 87.3536 32.4685C86.9084 32.1704 86.4613 31.7233 86.3122 31.1271ZM100.459 14.1501C94.7998 14.1501 91.3758 17.8722 91.3758 24.2771C91.3758 33.8079 98.822 34.4041 100.31 34.4041C103.438 34.4041 109.396 32.4685 109.396 24.1299C109.396 17.576 105.523 14.1501 100.459 14.1501ZM100.31 33.2118C96.1412 33.2118 95.396 31.129 95.396 24.4261C95.396 19.2136 95.6941 15.3405 100.31 15.3405C105.225 15.3405 105.225 19.3607 105.225 24.1261C105.225 30.829 104.035 33.2118 100.31 33.2118ZM123.992 14.4481C120.714 14.4481 119.525 16.3837 118.629 18.4684H118.331C118.331 18.4684 117.886 15.4895 117.737 14.7443H111.183V15.7876H114.756V28.8934C114.756 30.2329 114.609 31.129 114.312 31.7214C114.012 32.3194 113.118 32.7646 111.779 32.7646H111.183V33.957H122.204V32.7646H121.608C120.117 32.7646 119.525 32.4685 119.223 31.8723C118.927 31.2762 118.778 30.3819 118.778 29.0425V21.8943C118.778 19.6588 120.564 16.9799 122.651 16.9799C124.885 16.9799 124.734 20.2549 127.267 18.9155C128.46 18.1703 128.162 14.4481 123.992 14.4481ZM167.328 31.7214C166.136 31.7214 165.84 31.129 165.691 29.9367V19.5116C165.691 17.7232 165.391 16.6818 164.351 15.6366C163.308 14.5953 161.371 14.1462 158.543 14.1462C155.862 14.1462 153.926 14.5953 152.585 15.6366C151.395 16.5328 150.8 17.4251 150.8 18.7664C150.8 19.3588 150.949 19.8078 151.245 19.9568C151.544 20.2549 151.991 20.404 152.436 20.404C153.477 20.404 154.075 19.8116 154.371 18.4684C154.524 17.4251 154.819 16.8308 155.268 16.2328C155.86 15.6404 156.758 15.3405 157.797 15.3405C159.139 15.3405 160.18 15.6366 160.627 16.3818C161.074 17.127 161.372 18.0212 161.372 19.2097V22.3396C157.945 22.6376 149.606 23.3809 150.053 29.6367C150.202 32.0194 152.289 34.2531 155.117 34.2531C158.245 34.2531 160.178 32.4685 161.518 31.1252C161.669 32.4666 163.008 34.106 165.244 34.106C167.774 34.106 169.264 32.9137 169.415 29.7858H168.819C168.819 30.9781 168.074 31.7233 167.328 31.7233V31.7214ZM161.671 29.6386V29.7877L161.522 29.9367C159.735 31.5761 158.246 32.1723 157.203 32.1723C154.522 32.1723 154.075 29.9367 154.075 28.8954C154.075 25.3222 158.99 23.5338 161.671 23.5338V29.6386ZM189.669 31.5742C189.371 30.98 188.924 30.0838 188.924 28.7463V20.1059C188.924 18.9155 188.775 17.7232 188.328 16.9799C187.88 16.0856 187.137 15.4895 186.392 15.0424C185.498 14.5953 184.605 14.4481 183.564 14.4481C179.691 14.4481 178.201 16.8308 177.308 18.1703H177.01L176.265 14.7443H170.307V15.7876H173.288V28.8934C173.288 29.9367 173.137 30.68 172.988 31.129C172.837 31.7214 172.396 32.1704 171.947 32.3194C171.649 32.4685 171.052 32.6175 170.307 32.6175V33.8079H179.689V32.6175C178.795 32.4685 178.05 32.3194 177.753 31.8723C177.455 31.4252 177.159 30.531 177.159 29.1915V24.128C177.159 22.0453 177.159 19.9568 177.904 18.7664C178.648 17.4251 180.136 16.6818 181.627 16.6818C183.117 16.6818 183.86 17.1289 184.309 18.0212C184.754 18.7664 184.902 21.0001 184.902 22.4886V28.7444C184.902 29.7858 185.054 30.531 184.902 30.98C184.754 31.5723 184.605 32.0214 184.156 32.3175C183.86 32.6175 183.262 32.6175 182.668 32.7646V33.957H191.755V32.7646C190.71 32.3194 189.967 32.0194 189.669 31.5742ZM147.076 13.2558C146.48 13.4049 146.182 14.001 145.884 14.7462C145.735 15.4914 145.437 15.9366 144.99 16.0837C144.543 16.2347 144.097 16.2347 143.65 15.9366C142.609 15.0424 140.82 14.001 137.543 14.001C132.182 14.001 129.948 17.7232 129.948 21.1472C129.948 25.1694 131.439 27.1069 134.861 27.8502C135.012 27.8502 135.012 28.1483 134.861 28.1483C132.033 28.7444 129.352 29.6386 129.352 32.3194C129.352 33.9589 130.246 34.8512 131.588 35.4473C132.925 36.0416 134.861 36.3416 137.245 36.3416C139.328 36.3416 140.818 36.4906 141.713 36.4906C142.61 36.6063 143.473 36.9111 144.244 37.3848C144.841 37.832 145.139 38.5772 145.139 39.4676C145.139 40.8089 144.394 41.7032 143.054 42.5974C141.717 43.3426 140.073 43.6407 137.842 43.6407C136.055 43.6407 134.417 43.4897 133.076 42.5974C132.035 42.0012 131.884 40.8108 132.035 39.9166C132.186 39.0224 131.884 38.13 130.842 37.832C130.526 37.7621 130.195 37.797 129.899 37.9314C129.604 38.0658 129.36 38.2924 129.205 38.5772C128.905 39.0205 128.756 39.6166 128.756 40.3618C128.756 42.5955 130.544 43.6368 131.884 44.084C133.968 44.6782 135.312 44.8292 137.096 44.8292C139.63 44.8292 141.564 44.382 143.054 43.7859C144.544 43.0407 145.439 42.1484 146.033 41.1051C146.627 40.0637 146.927 39.0205 146.927 37.9772C146.927 36.6377 146.627 35.4454 146.033 34.7021C144.097 32.1704 141.415 32.4666 135.459 32.1704C132.629 32.1704 132.033 31.5742 132.033 30.68C132.033 29.3406 133.076 28.8934 137.245 28.1483C141.415 27.5521 145.286 25.9146 145.286 21.0001C145.286 19.5097 144.99 18.3193 144.541 17.427C145.437 17.5741 146.182 17.5741 146.925 17.427C147.821 17.1289 148.265 16.6818 148.565 16.2347C148.863 15.6385 149.01 15.0424 148.714 14.5953C148.863 13.4049 148.118 12.9577 147.076 13.2558ZM137.694 27.2559C135.165 27.2559 133.821 26.3598 133.821 21.2982C133.821 17.7251 135.014 15.0424 137.694 15.0424C140.822 15.0424 141.715 17.4251 141.715 21.1492C141.715 26.5107 140.077 27.2559 137.694 27.2559Z" fill="#54301A"/>
</svg>
