<svg width="167" height="48" viewBox="0 0 167 48" fill="none" xmlns="http://www.w3.org/2000/svg">
<path d="M9.20377 29.1032C9.20377 30.9428 9.60754 32.3552 10.1353 33.2096C10.8272 34.3288 11.8593 34.8029 12.9114 34.8029C14.2685 34.8029 15.5099 34.4662 17.9024 31.1573C19.8191 28.5051 22.0775 24.7824 23.5971 22.4486L26.1705 18.4947C27.9581 15.7487 30.0272 12.6961 32.3996 10.627C34.3363 8.93822 36.4255 8 38.5282 8C42.0582 8 45.4207 10.0457 47.9941 13.8823C50.8105 18.0842 52.1776 23.3768 52.1776 28.8385C52.1776 32.0854 51.5376 34.4712 50.4486 36.356C49.3964 38.1788 47.3458 40 43.8961 40V34.8029C46.8498 34.8029 47.587 32.0888 47.587 28.9826C47.587 24.5562 46.555 19.644 44.2815 16.134C42.6681 13.6444 40.5772 12.1231 38.2769 12.1231C35.7889 12.1231 33.7868 13.9996 31.5368 17.3453C30.3405 19.1229 29.1125 21.2892 27.7336 23.7336L26.2157 26.4226C23.1665 31.8291 22.3941 33.0605 20.8695 35.0928C18.1973 38.6513 15.9154 40 12.9114 40C9.34785 40 7.09445 38.457 5.69885 36.1315C4.55958 34.2367 4 31.7504 4 28.9173L9.20377 29.1032Z" fill="#0081FB"/>
<path d="M8.10303 14.2492C10.4888 10.5717 13.9317 8 17.8806 8C20.1675 8 22.441 8.67686 24.8151 10.6153C27.4119 12.7347 30.1797 16.2245 33.6327 21.9761L34.8708 24.0402C37.8597 29.0195 39.5602 31.5812 40.5554 32.7891C41.8354 34.3405 42.7317 34.8029 43.8961 34.8029C46.8498 34.8029 47.587 32.0888 47.587 28.9826L52.1776 28.8385C52.1776 32.0854 51.5376 34.4712 50.4486 36.356C49.3964 38.1788 47.3457 40 43.8961 40C41.7516 40 39.8517 39.5342 37.7508 37.5523C36.1357 36.031 34.2475 33.3286 32.795 30.8993L28.4741 23.6817C26.3062 20.0595 24.3175 17.3587 23.1665 16.1357C21.9284 14.8205 20.3367 13.2323 17.7968 13.2323C15.7411 13.2323 13.9954 14.6748 12.5344 16.8813L8.10303 14.2492Z" fill="url(#paint0_linear_256_452)"/>
<path d="M17.7969 13.2323C15.7412 13.2323 13.9954 14.6748 12.5344 16.8813C10.4687 19.9992 9.20377 24.6434 9.20377 29.1032C9.20377 30.9428 9.60754 32.3552 10.1353 33.2096L5.69885 36.1315C4.55958 34.2367 4 31.7504 4 28.9173C4 23.7654 5.41403 18.3958 8.10304 14.2492C10.4888 10.5717 13.9317 8 17.8806 8L17.7969 13.2323Z" fill="url(#paint1_linear_256_452)"/>
<path d="M62.2936 9.01221H68.3133L78.5482 27.5286L88.7849 9.01221H94.6739V39.4373H89.7633V16.1192L80.7866 32.2667H76.1792L67.2042 16.1192V39.4373H62.2936V9.01221ZM110.061 20.3563C106.539 20.3563 104.418 23.0068 103.91 26.2889H115.863C115.616 22.9079 113.666 20.3563 110.061 20.3563ZM99.0416 28.1586C99.0416 21.2526 103.505 16.2264 110.146 16.2264C116.678 16.2264 120.579 21.189 120.579 28.5272V29.8759H103.91C104.502 33.4461 106.871 35.852 110.691 35.852C113.738 35.852 115.643 34.9222 117.449 33.2216L120.058 36.4166C117.6 38.6767 114.474 39.9802 110.516 39.9802C103.327 39.9802 99.0416 34.7379 99.0416 28.1586ZM126.533 20.7919H122.013V16.771H126.533V10.1213H131.271V16.771H138.139V20.7919H131.271V30.9833C131.271 34.4631 132.384 35.6995 135.118 35.6995C136.366 35.6995 137.081 35.5923 138.139 35.4164V39.3938C136.822 39.7657 135.565 39.9366 134.205 39.9366C129.09 39.9366 126.533 37.1421 126.533 31.5479V20.7919ZM158.089 24.7023C157.138 22.2997 155.015 20.5305 151.895 20.5305C147.841 20.5305 145.246 23.4072 145.246 28.0933C145.246 32.6621 147.635 35.6778 151.701 35.6778C154.898 35.6778 157.179 33.8181 158.089 31.5044V24.7023ZM162.827 39.4373H158.176V36.2641C156.876 38.1322 154.511 39.9802 150.679 39.9802C144.517 39.9802 140.399 34.8216 140.399 28.0933C140.399 21.3012 144.616 16.2264 150.94 16.2264C154.067 16.2264 156.519 17.4763 158.176 19.6828V16.771H162.827V39.4373Z" fill="#192830"/>
<defs>
<linearGradient id="paint0_linear_256_452" x1="14.2199" y1="27.6021" x2="47.3927" y2="29.2775" gradientUnits="userSpaceOnUse">
<stop stop-color="#0064E1"/>
<stop offset="0.4" stop-color="#0064E1"/>
<stop offset="0.83" stop-color="#0073EE"/>
<stop offset="1" stop-color="#0082FB"/>
</linearGradient>
<linearGradient id="paint1_linear_256_452" x1="11.5393" y1="31.288" x2="11.5393" y2="19.0576" gradientUnits="userSpaceOnUse">
<stop stop-color="#0082FB"/>
<stop offset="1" stop-color="#0064E0"/>
</linearGradient>
</defs>
</svg>
