<svg width="178" height="48" viewBox="0 0 178 48" fill="none" xmlns="http://www.w3.org/2000/svg">
<path d="M72.8904 5H54.032V12.5434H72.8904V5Z" fill="black"/>
<path d="M24.8014 5H17.2581V29.516H24.8014V5Z" fill="black"/>
<path d="M37.0594 5H29.516V40.831H37.0594V5Z" fill="black"/>
<path d="M12.5434 5H5V40.831H12.5434V5Z" fill="black"/>
<path d="M61.5754 17.2583H54.032V40.8313H61.5754V17.2583Z" fill="black"/>
<path d="M49.3173 5H41.7739V12.5434H49.3173V5Z" fill="black"/>
<path d="M49.3173 17.2583H41.7739V40.8313H49.3173V17.2583Z" fill="#054187"/>
<path d="M88.92 5H92.0317L93.5404 11.2233L95.049 5H98.0664V13.392H96.0862V6.88584L94.389 13.392H92.5031L90.8059 6.88584V13.392H88.92V5Z" fill="black"/>
<path d="M104.95 12.0722C104.95 12.5437 104.95 13.0152 105.138 13.3923H103.441C103.347 13.2038 103.347 12.9209 103.347 12.7323C103.064 13.2038 102.121 13.5809 101.461 13.5809C100.235 13.5809 99.3866 12.9209 99.3866 11.6951C99.3866 10.1864 100.612 9.62065 102.593 9.33777L103.253 9.24348V8.77202C103.253 8.30056 102.875 8.11197 102.404 8.11197C101.838 8.11197 101.555 8.30056 101.461 8.9606H99.6695C99.7638 7.16905 101.367 6.98047 102.215 6.98047C103.913 6.98047 104.95 7.35764 105.044 8.77202C104.95 8.77202 104.95 12.0722 104.95 12.0722ZM103.253 10.375L102.027 10.7522C101.555 10.8464 101.178 11.035 101.178 11.6008C101.178 12.0722 101.555 12.3551 102.027 12.3551C102.781 12.3551 103.253 11.8837 103.253 10.9407V10.375Z" fill="black"/>
<path d="M110.796 8.96017C110.419 8.48871 109.664 8.30012 109.099 8.30012C108.627 8.30012 108.344 8.48871 108.344 8.77159C108.344 9.8088 112.022 8.96017 112.022 11.3175C112.022 13.0147 110.513 13.5805 109.193 13.5805C107.873 13.5805 107.024 13.2033 106.176 12.3547L107.307 11.3175C107.873 11.8832 108.439 12.1661 109.287 12.1661C109.57 12.1661 110.324 12.0718 110.324 11.5061C110.324 10.5631 106.647 11.3175 106.647 9.05446C106.647 7.4515 108.061 6.88574 109.287 6.88574C110.23 6.88574 111.173 7.26291 112.022 7.82866L110.796 8.96017Z" fill="black"/>
<path d="M117.302 8.96017C116.925 8.48871 116.171 8.30012 115.605 8.30012C115.133 8.30012 114.85 8.48871 114.85 8.77159C114.85 9.8088 118.528 8.96017 118.528 11.3175C118.528 13.0147 117.113 13.5805 115.699 13.5805C114.379 13.5805 113.53 13.2033 112.682 12.3547L113.813 11.3175C114.379 11.8832 114.945 12.1661 115.793 12.1661C116.076 12.1661 116.831 12.0718 116.831 11.5061C116.831 10.5631 113.153 11.3175 113.153 9.05446C113.153 7.4515 114.568 6.88574 115.793 6.88574C116.736 6.88574 117.679 7.26291 118.528 7.82866L117.302 8.96017Z" fill="black"/>
<path d="M125.128 12.0722C125.128 12.5437 125.128 13.0152 125.317 13.3923H123.62C123.525 13.2038 123.525 12.9209 123.525 12.7323C123.242 13.2038 122.3 13.5809 121.639 13.5809C120.414 13.5809 119.565 12.9209 119.565 11.6951C119.565 10.1864 120.791 9.62065 122.771 9.33777L123.431 9.24348V8.77202C123.431 8.30056 123.054 8.11197 122.582 8.11197C122.017 8.11197 121.734 8.30056 121.639 8.9606H119.848C119.942 7.16905 121.545 6.98047 122.394 6.98047C124.091 6.98047 125.128 7.35764 125.223 8.77202C125.128 8.77202 125.128 12.0722 125.128 12.0722ZM123.337 10.375L122.111 10.7522C121.639 10.8464 121.262 11.035 121.262 11.6008C121.262 12.0722 121.639 12.3551 122.111 12.3551C122.865 12.3551 123.337 11.8837 123.337 10.9407V10.375Z" fill="black"/>
<path d="M130.88 9.24348C130.503 8.48914 130.032 8.39485 129.749 8.39485C128.711 8.39485 128.334 9.24348 128.334 10.2807C128.334 11.3179 128.806 12.1665 129.749 12.1665C130.314 12.1665 130.786 11.978 131.069 11.2236L132.389 11.8837C131.823 12.9209 130.786 13.5809 129.56 13.5809C127.674 13.5809 126.354 12.3551 126.354 10.2807C126.354 8.20627 127.769 6.98047 129.466 6.98047C130.692 6.98047 131.729 7.45193 132.295 8.48914L130.88 9.24348Z" fill="black"/>
<path d="M133.332 5H135.123V7.73447C135.501 7.26301 136.255 6.98014 136.821 6.98014C138.141 6.98014 138.801 7.73447 138.801 8.96027V13.392H137.009V9.62032C137.009 8.67739 136.443 8.39452 136.066 8.39452C135.689 8.39452 135.123 8.67739 135.123 9.8089V13.2977H133.332V5Z" fill="black"/>
<path d="M146.061 13.3922H144.27V12.8265C143.798 13.3922 143.044 13.5808 142.478 13.5808C140.969 13.5808 140.592 12.7322 140.592 11.7893V7.16895H142.384V11.2235C142.384 11.7893 142.572 12.0721 143.232 12.0721C143.798 12.0721 144.175 11.7893 144.175 11.1292V7.16895H145.967L146.061 13.3922Z" fill="black"/>
<path d="M151.813 8.96017C151.436 8.48871 150.681 8.30012 150.116 8.30012C149.644 8.30012 149.361 8.48871 149.361 8.77159C149.267 9.90309 153.039 8.96017 153.039 11.3175C153.039 13.0147 151.53 13.5805 150.21 13.5805C148.89 13.5805 148.041 13.2033 147.193 12.3547L148.324 11.3175C148.89 11.8832 149.456 12.1661 150.304 12.1661C150.587 12.1661 151.341 12.0718 151.341 11.5061C151.341 10.5631 147.664 11.3175 147.664 9.05446C147.664 7.4515 149.078 6.88574 150.304 6.88574C151.247 6.88574 152.19 7.26291 153.039 7.82866L151.813 8.96017Z" fill="black"/>
<path d="M155.679 10.6579C155.679 11.8837 156.433 12.2608 156.999 12.2608C157.659 12.2608 158.036 11.8837 158.508 11.1293L159.922 11.8837C159.262 13.0152 158.319 13.5809 156.905 13.5809C154.925 13.5809 153.793 12.2608 153.793 10.4693C153.793 8.30056 154.925 6.98047 156.905 6.98047C159.168 6.98047 159.922 8.67773 160.016 10.6579H155.679ZM158.131 9.52636C158.036 8.58344 157.376 8.30056 156.905 8.30056C156.433 8.30056 155.773 8.67773 155.679 9.52636H158.131Z" fill="black"/>
<path d="M164.354 8.39474H163.222V11.5064C163.222 11.9778 163.505 12.1664 163.788 12.1664C163.977 12.1664 164.259 12.1664 164.354 12.1664V13.5808C164.165 13.5808 163.599 13.6751 163.222 13.6751C161.619 13.6751 161.431 12.7322 161.431 11.7893V8.39474H160.582V7.26323H161.431V5.47168H163.222V7.26323H164.354V8.39474Z" fill="black"/>
<path d="M168.503 8.39474H167.371V11.5064C167.371 11.9778 167.654 12.1664 167.937 12.1664C168.125 12.1664 168.408 12.1664 168.503 12.1664V13.5808C168.314 13.5808 167.748 13.6751 167.371 13.6751C165.768 13.6751 165.58 12.7322 165.58 11.7893V8.39474H164.731V7.26323H165.58V5.47168H167.371V7.26323H168.503V8.39474Z" fill="black"/>
<path d="M173.689 8.96017C173.312 8.48871 172.557 8.30012 171.992 8.30012C171.52 8.30012 171.237 8.48871 171.237 8.77159C171.237 9.8088 174.915 8.96017 174.915 11.3175C174.915 13.0147 173.406 13.5805 172.086 13.5805C170.766 13.5805 169.917 13.2033 169.068 12.3547L170.2 11.3175C170.766 11.8832 171.331 12.1661 172.18 12.1661C172.463 12.1661 173.217 12.0718 173.217 11.5061C173.217 10.5631 169.54 11.3175 169.54 9.05446C169.54 7.4515 170.954 6.88574 172.18 6.88574C173.123 6.88574 174.066 7.26291 174.915 7.82866L173.689 8.96017Z" fill="black"/>
<path d="M89.0145 18.7666H91.089V27.1586H89.0145V18.7666Z" fill="black"/>
<path d="M92.6918 20.8414H94.5776V21.4072C95.0491 20.8414 95.8034 20.6528 96.3692 20.6528C97.8778 20.6528 98.255 21.5015 98.255 22.4444V27.0647H96.4635V23.1044C96.4635 22.5387 96.2749 22.0672 95.6148 22.0672C94.8605 22.0672 94.6719 22.5387 94.6719 23.1044V26.9704H92.6918C92.6918 27.0647 92.6918 20.8414 92.6918 20.8414Z" fill="black"/>
<path d="M104.007 22.7273C103.63 22.2558 102.875 22.0672 102.31 22.0672C101.838 22.0672 101.555 22.2558 101.555 22.5387C101.555 23.5759 105.233 22.7273 105.233 25.0846C105.233 26.6875 103.724 27.3476 102.404 27.3476C101.084 27.3476 100.235 26.8761 99.2922 26.0275L100.424 25.0846C100.989 25.6503 101.555 25.9332 102.404 25.9332C102.687 25.9332 103.441 25.8389 103.441 25.2731C103.441 24.3302 99.7637 25.0846 99.7637 22.8216C99.7637 21.2186 101.178 20.6528 102.404 20.6528C103.347 20.6528 104.29 21.03 105.138 21.5958L104.007 22.7273Z" fill="black"/>
<path d="M109.57 22.067H108.439V25.1787C108.439 25.6501 108.722 25.8387 109.004 25.8387C109.193 25.8387 109.476 25.8387 109.57 25.8387V27.2531C109.382 27.2531 108.816 27.3474 108.439 27.3474C106.836 27.3474 106.647 26.4045 106.647 25.4616V22.1613H105.798V21.0298H106.647V19.2383H108.439V21.0298H109.57C109.57 20.9355 109.57 22.067 109.57 22.067Z" fill="black"/>
<path d="M110.607 20.181V18.7666H112.399V20.181H110.607ZM112.493 20.841V27.0643H110.607V20.841H112.493Z" fill="black"/>
<path d="M117.208 22.067H116.076V25.1787C116.076 25.6501 116.359 25.8387 116.642 25.8387C116.831 25.8387 117.113 25.8387 117.208 25.8387V27.2531C117.019 27.2531 116.453 27.3474 116.076 27.3474C114.473 27.3474 114.285 26.4045 114.285 25.4616V22.1613H113.436V21.0298H114.285V19.2383H116.076V21.0298H117.208C117.208 20.9355 117.208 22.067 117.208 22.067Z" fill="black"/>
<path d="M123.808 27.0646H122.017V26.4988C121.545 27.0646 120.791 27.2532 120.225 27.2532C118.717 27.2532 118.339 26.4045 118.339 25.4616V20.8413H120.131V24.9902C120.131 25.5559 120.319 25.8388 120.98 25.8388C121.545 25.8388 121.922 25.5559 121.922 24.8959V20.9356H123.714L123.808 27.0646Z" fill="black"/>
<path d="M128.617 22.067H127.485V25.1787C127.485 25.6501 127.768 25.8387 128.051 25.8387C128.24 25.8387 128.523 25.8387 128.617 25.8387V27.2531C128.428 27.2531 127.863 27.3474 127.485 27.3474C125.882 27.3474 125.694 26.4045 125.694 25.4616V22.1613H124.751V21.0298H125.6V19.2383H127.391V21.0298H128.523L128.617 22.067Z" fill="black"/>
<path d="M130.974 24.3302C130.974 25.556 131.729 25.9332 132.295 25.9332C132.955 25.9332 133.332 25.556 133.803 24.8017L135.218 25.556C134.558 26.6875 133.615 27.2533 132.2 27.2533C130.22 27.2533 129.089 25.9332 129.089 24.1416C129.089 21.9729 130.22 20.6528 132.2 20.6528C134.463 20.6528 135.218 22.4444 135.312 24.3302H130.974ZM133.52 23.1987C133.426 22.2558 132.766 21.9729 132.295 21.9729C131.823 21.9729 131.163 22.3501 131.069 23.1987H133.52Z" fill="black"/>
<path d="M146.156 23.9531C146.156 26.0275 144.741 27.2533 142.855 27.2533C140.969 27.2533 139.555 26.0275 139.555 23.9531C139.555 21.8786 140.969 20.6528 142.855 20.6528C144.741 20.6528 146.156 21.8786 146.156 23.9531ZM141.252 23.9531C141.252 24.9903 141.724 25.8389 142.761 25.8389C143.798 25.8389 144.27 24.9903 144.27 23.8588C144.27 22.8216 143.798 22.0672 142.761 22.0672C141.724 22.0672 141.252 22.9158 141.252 23.9531Z" fill="black"/>
<path d="M147.57 22.0669H146.627V20.9354H147.57V20.3696C147.57 19.6153 147.758 18.6724 149.361 18.6724C149.739 18.6724 150.304 18.7667 150.587 18.7667V20.0867H150.021C149.739 20.0867 149.361 20.181 149.361 20.5582V20.9354H150.493V22.0669H149.361V27.0644H147.57V22.0669Z" fill="black"/>
<path d="M86.8457 32.439H93.3519V34.0419H91.1831V40.831H89.1087V34.0419H86.94V32.439H86.8457Z" fill="black"/>
<path d="M94.7662 38.0968C94.7662 39.3226 95.5206 39.6998 96.0863 39.6998C96.7464 39.6998 97.1235 39.3226 97.595 38.5683L99.0094 39.3226C98.4436 40.4541 97.4064 41.0199 95.992 41.0199C94.0119 41.0199 92.8804 39.6998 92.8804 37.9082C92.8804 35.7395 94.0119 34.4194 95.992 34.4194C98.255 34.4194 99.0094 36.1167 99.1037 38.0968H94.7662ZM97.2178 36.9653C97.1235 36.0224 96.4635 35.7395 95.992 35.7395C95.5206 35.7395 94.8605 36.1167 94.7662 36.9653H97.2178Z" fill="black"/>
<path d="M104.478 36.6824C104.195 35.9281 103.63 35.8338 103.347 35.8338C102.31 35.8338 101.932 36.6824 101.932 37.7197C101.932 38.7569 102.404 39.6055 103.347 39.6055C103.913 39.6055 104.384 39.4169 104.667 38.6626L105.987 39.3226C105.421 40.3598 104.384 41.0199 103.158 41.0199C101.272 41.0199 99.9523 39.7941 99.9523 37.7197C99.9523 35.6452 101.367 34.4194 103.064 34.4194C104.29 34.4194 105.233 34.8909 105.893 35.9281L104.478 36.6824Z" fill="black"/>
<path d="M106.93 32.439H108.721V35.1734C109.099 34.702 109.853 34.4191 110.419 34.4191C111.739 34.4191 112.399 35.1734 112.399 36.3992V40.831H110.607V37.0593C110.607 36.1164 110.042 35.8335 109.664 35.8335C109.287 35.8335 108.721 36.1164 108.721 37.2479V40.7367H106.93V32.439Z" fill="black"/>
<path d="M114.096 34.608H115.888V35.1738C116.359 34.608 117.113 34.4194 117.679 34.4194C119.188 34.4194 119.565 35.2681 119.565 36.211V40.8313H117.773V36.871C117.773 36.211 117.585 35.8338 116.925 35.8338C116.17 35.8338 115.982 36.3053 115.982 36.871V40.737H114.19L114.096 34.608Z" fill="black"/>
<path d="M127.58 37.7197C127.58 39.7941 126.165 41.0199 124.28 41.0199C122.299 41.0199 120.979 39.7941 120.979 37.7197C120.979 35.6452 122.394 34.4194 124.28 34.4194C126.165 34.4194 127.58 35.5509 127.58 37.7197ZM122.771 37.7197C122.771 38.7569 123.242 39.6055 124.28 39.6055C125.317 39.6055 125.788 38.7569 125.788 37.6254C125.788 36.5882 125.317 35.8338 124.28 35.8338C123.148 35.8338 122.771 36.5882 122.771 37.7197Z" fill="black"/>
<path d="M128.806 40.831V32.439H130.597V40.831H128.806Z" fill="black"/>
<path d="M138.518 37.7197C138.518 39.7941 137.103 41.0199 135.218 41.0199C133.332 41.0199 131.917 39.7941 131.917 37.7197C131.917 35.6452 133.332 34.4194 135.218 34.4194C137.103 34.4194 138.518 35.5509 138.518 37.7197ZM133.615 37.7197C133.615 38.7569 134.086 39.6055 135.123 39.6055C136.161 39.6055 136.632 38.7569 136.632 37.6254C136.632 36.5882 136.161 35.8338 135.123 35.8338C134.086 35.8338 133.615 36.5882 133.615 37.7197Z" fill="black"/>
<path d="M145.213 34.608V40.9256C145.213 42.9057 143.138 43 142.195 43C140.309 43 139.366 42.34 139.272 40.8313H141.158C141.158 41.4913 141.535 41.7742 142.195 41.7742C142.855 41.7742 143.327 41.5856 143.327 40.737V39.9827C142.95 40.3598 142.195 40.4541 141.629 40.4541C139.838 40.4541 139.178 39.0398 139.178 37.4368C139.178 35.9281 140.026 34.4194 141.629 34.4194C142.289 34.4194 142.95 34.608 143.421 35.0795V34.608C143.515 34.608 145.213 34.608 145.213 34.608ZM142.195 35.7395C141.629 35.7395 141.064 36.1167 141.064 37.4368C141.064 38.1911 141.252 39.134 142.195 39.134C143.327 39.134 143.421 38.0968 143.421 37.4368C143.421 36.1167 142.761 35.7395 142.195 35.7395Z" fill="black"/>
<path d="M146.533 41.4912C146.721 41.4912 146.91 41.4912 147.193 41.4912C147.758 41.4912 148.041 41.3969 148.041 41.0198C148.041 40.9255 148.041 40.8312 147.853 40.3597L146.061 34.6079H148.041L149.079 39.4168L150.116 34.6079H152.096L149.927 41.3027C149.644 42.2456 149.173 42.9999 148.136 42.9999H146.721L146.533 41.4912Z" fill="black"/>
</svg>
