<?xml version="1.0" encoding="utf-8"?>
<!-- Generator: Adobe Illustrator 25.4.1, SVG Export Plug-In . SVG Version: 6.00 Build 0)  -->
<svg version="1.1" id="Layer_1" xmlns="http://www.w3.org/2000/svg" xmlns:xlink="http://www.w3.org/1999/xlink" x="0px" y="0px"
	 viewBox="0 0 180.6 42.7" style="enable-background:new 0 0 180.6 42.7;" xml:space="preserve">
<style type="text/css">
	.st0{fill:#054187;}
</style>
<g>
	<g>
		<rect x="52" y="1.8" width="20" height="8"/>
		<rect x="13" y="1.8" width="8" height="26"/>
		<rect x="26" y="1.8" width="8" height="38"/>
		<rect y="1.8" width="8" height="38"/>
		<rect x="52" y="14.8" width="8" height="25"/>
		<rect x="39" y="1.8" width="8" height="8"/>
		<rect x="39" y="14.8" class="st0" width="8" height="25"/>
	</g>
	<g>
		<path d="M89,1.8h3.3l1.6,6.6h0l1.6-6.6h3.2v8.9h-2.1V3.8h0l-1.8,6.9h-2l-1.8-6.9h0v6.9h-2C89,10.7,89,1.8,89,1.8z"/>
		<path d="M106,9.3c0,0.5,0,1,0.2,1.4h-1.8c-0.1-0.2-0.1-0.5-0.1-0.7h0c-0.3,0.5-1.3,0.9-2,0.9c-1.3,0-2.2-0.7-2.2-2
			c0-1.6,1.3-2.2,3.4-2.5l0.7-0.1V5.8c0-0.5-0.4-0.7-0.9-0.7c-0.6,0-0.9,0.2-1,0.9h-1.9c0.1-1.9,1.8-2.1,2.7-2.1
			c1.8,0,2.9,0.4,3,1.9C106,5.8,106,9.3,106,9.3z M104.2,7.5l-1.3,0.4c-0.5,0.1-0.9,0.3-0.9,0.9c0,0.5,0.4,0.8,0.9,0.8
			c0.8,0,1.3-0.5,1.3-1.5L104.2,7.5L104.2,7.5z"/>
		<path d="M112.2,6c-0.4-0.5-1.2-0.7-1.8-0.7c-0.5,0-0.8,0.2-0.8,0.5c0,1.1,3.9,0.2,3.9,2.7c0,1.8-1.6,2.4-3,2.4
			c-1.4,0-2.3-0.4-3.2-1.3l1.2-1.1c0.6,0.6,1.2,0.9,2.1,0.9c0.3,0,1.1-0.1,1.1-0.7c0-1-3.9-0.2-3.9-2.6c0-1.7,1.5-2.3,2.8-2.3
			c1,0,2,0.4,2.9,1L112.2,6z"/>
		<path d="M119.1,6c-0.4-0.5-1.2-0.7-1.8-0.7c-0.5,0-0.8,0.2-0.8,0.5c0,1.1,3.9,0.2,3.9,2.7c0,1.8-1.5,2.4-3,2.4
			c-1.4,0-2.3-0.4-3.2-1.3l1.2-1.1c0.6,0.6,1.2,0.9,2.1,0.9c0.3,0,1.1-0.1,1.1-0.7c0-1-3.9-0.2-3.9-2.6c0-1.7,1.5-2.3,2.8-2.3
			c1,0,2,0.4,2.9,1L119.1,6z"/>
		<path d="M127.4,9.3c0,0.5,0,1,0.2,1.4h-1.8c-0.1-0.2-0.1-0.5-0.1-0.7h0c-0.3,0.5-1.3,0.9-2,0.9c-1.3,0-2.2-0.7-2.2-2
			c0-1.6,1.3-2.2,3.4-2.5l0.7-0.1V5.8c0-0.5-0.4-0.7-0.9-0.7c-0.6,0-0.9,0.2-1,0.9h-1.9c0.1-1.9,1.8-2.1,2.7-2.1
			c1.8,0,2.9,0.4,3,1.9C127.4,5.8,127.4,9.3,127.4,9.3z M125.5,7.5l-1.3,0.4c-0.5,0.1-0.9,0.3-0.9,0.9c0,0.5,0.4,0.8,0.9,0.8
			c0.8,0,1.3-0.5,1.3-1.5L125.5,7.5L125.5,7.5z"/>
		<path d="M133.5,6.3c-0.4-0.8-0.9-0.9-1.2-0.9c-1.1,0-1.5,0.9-1.5,2s0.5,2,1.5,2c0.6,0,1.1-0.2,1.4-1l1.4,0.7
			c-0.6,1.1-1.7,1.8-3,1.8c-2,0-3.4-1.3-3.4-3.5c0-2.2,1.5-3.5,3.3-3.5c1.3,0,2.4,0.5,3,1.6L133.5,6.3z"/>
		<path d="M136.1,1.8h1.9v2.9h0c0.4-0.5,1.2-0.8,1.8-0.8c1.4,0,2.1,0.8,2.1,2.1v4.7H140v-4c0-1-0.6-1.3-1-1.3c-0.4,0-1,0.3-1,1.5
			v3.7h-1.9L136.1,1.8L136.1,1.8z"/>
		<path d="M149.6,10.7h-1.9v-0.6c-0.5,0.6-1.3,0.8-1.9,0.8c-1.6,0-2-0.9-2-1.9V4.1h1.9v4.3c0,0.6,0.2,0.9,0.9,0.9c0.6,0,1-0.3,1-1
			V4.1h1.9L149.6,10.7L149.6,10.7z"/>
		<path d="M155.7,6c-0.4-0.5-1.2-0.7-1.8-0.7c-0.5,0-0.8,0.2-0.8,0.5C153,7,157,6,157,8.5c0,1.8-1.6,2.4-3,2.4
			c-1.4,0-2.3-0.4-3.2-1.3l1.2-1.1c0.6,0.6,1.2,0.9,2.1,0.9c0.3,0,1.1-0.1,1.1-0.7c0-1-3.9-0.2-3.9-2.6c0-1.7,1.5-2.3,2.8-2.3
			c1,0,2,0.4,2.9,1L155.7,6z"/>
		<path d="M159.8,7.8c0,1.3,0.8,1.7,1.4,1.7c0.7,0,1.1-0.4,1.6-1.2l1.5,0.8c-0.7,1.2-1.7,1.8-3.2,1.8c-2.1,0-3.3-1.4-3.3-3.3
			c0-2.3,1.2-3.7,3.3-3.7c2.4,0,3.2,1.8,3.3,3.9C164.4,7.8,159.8,7.8,159.8,7.8z M162.4,6.6c-0.1-1-0.8-1.3-1.3-1.3
			s-1.2,0.4-1.3,1.3H162.4z"/>
		<path d="M169,5.4h-1.2v3.3c0,0.5,0.3,0.7,0.6,0.7c0.2,0,0.5,0,0.6,0v1.5c-0.2,0-0.8,0.1-1.2,0.1c-1.7,0-1.9-1-1.9-2V5.4H165V4.2
			h0.9V2.3h1.9v1.9h1.2L169,5.4L169,5.4z"/>
		<path d="M173.4,5.4h-1.2v3.3c0,0.5,0.3,0.7,0.6,0.7c0.2,0,0.5,0,0.6,0v1.5c-0.2,0-0.8,0.1-1.2,0.1c-1.7,0-1.9-1-1.9-2V5.4h-0.9
			V4.2h0.9V2.3h1.9v1.9h1.2L173.4,5.4L173.4,5.4z"/>
		<path d="M178.9,6c-0.4-0.5-1.2-0.7-1.8-0.7c-0.5,0-0.8,0.2-0.8,0.5c0,1.1,3.9,0.2,3.9,2.7c0,1.8-1.6,2.4-3,2.4
			c-1.4,0-2.3-0.4-3.2-1.3l1.2-1.1c0.6,0.6,1.2,0.9,2.1,0.9c0.3,0,1.1-0.1,1.1-0.7c0-1-3.9-0.2-3.9-2.6c0-1.7,1.5-2.3,2.8-2.3
			c1,0,2,0.4,2.9,1L178.9,6z"/>
		<path d="M89.1,16.4h2.2v8.9h-2.2V16.4z"/>
		<path d="M93,18.6H95v0.6c0.5-0.6,1.3-0.8,1.9-0.8c1.6,0,2,0.9,2,1.9v4.9H97v-4.2c0-0.6-0.2-1.1-0.9-1.1c-0.8,0-1,0.5-1,1.1v4.1H93
			C93,25.2,93,18.6,93,18.6z"/>
		<path d="M105,20.6c-0.4-0.5-1.2-0.7-1.8-0.7c-0.5,0-0.8,0.2-0.8,0.5c0,1.1,3.9,0.2,3.9,2.7c0,1.7-1.6,2.4-3,2.4S101,25,100,24.1
			l1.2-1c0.6,0.6,1.2,0.9,2.1,0.9c0.3,0,1.1-0.1,1.1-0.7c0-1-3.9-0.2-3.9-2.6c0-1.7,1.5-2.3,2.8-2.3c1,0,2,0.4,2.9,1L105,20.6z"/>
		<path d="M110.9,19.9h-1.2v3.3c0,0.5,0.3,0.7,0.6,0.7c0.2,0,0.5,0,0.6,0v1.5c-0.2,0-0.8,0.1-1.2,0.1c-1.7,0-1.9-1-1.9-2v-3.5h-0.9
			v-1.2h0.9v-1.9h1.9v1.9h1.2C110.9,18.7,110.9,19.9,110.9,19.9z"/>
		<path d="M112,17.9v-1.5h1.9v1.5H112z M114,18.6v6.6H112v-6.6H114z"/>
		<path d="M119,19.9h-1.2v3.3c0,0.5,0.3,0.7,0.6,0.7c0.2,0,0.5,0,0.6,0v1.5c-0.2,0-0.8,0.1-1.2,0.1c-1.7,0-1.9-1-1.9-2v-3.5H115
			v-1.2h0.9v-1.9h1.9v1.9h1.2C119,18.7,119,19.9,119,19.9z"/>
		<path d="M126,25.2h-1.9v-0.6c-0.5,0.6-1.3,0.8-1.9,0.8c-1.6,0-2-0.9-2-1.9v-4.9h1.9V23c0,0.6,0.2,0.9,0.9,0.9c0.6,0,1-0.3,1-1
			v-4.2h1.9L126,25.2L126,25.2z"/>
		<path d="M131.1,19.9h-1.2v3.3c0,0.5,0.3,0.7,0.6,0.7c0.2,0,0.5,0,0.6,0v1.5c-0.2,0-0.8,0.1-1.2,0.1c-1.7,0-1.9-1-1.9-2v-3.5H127
			v-1.2h0.9v-1.9h1.9v1.9h1.2L131.1,19.9L131.1,19.9z"/>
		<path d="M133.6,22.3c0,1.3,0.8,1.7,1.4,1.7c0.7,0,1.1-0.4,1.6-1.2l1.5,0.8c-0.7,1.2-1.7,1.8-3.2,1.8c-2.1,0-3.3-1.4-3.3-3.3
			c0-2.3,1.2-3.7,3.3-3.7c2.4,0,3.2,1.9,3.3,3.9C138.2,22.3,133.6,22.3,133.6,22.3z M136.3,21.1c-0.1-1-0.8-1.3-1.3-1.3
			s-1.2,0.4-1.3,1.3H136.3z"/>
		<path d="M149.7,21.9c0,2.2-1.5,3.5-3.5,3.5s-3.5-1.3-3.5-3.5s1.5-3.5,3.5-3.5S149.7,19.7,149.7,21.9z M144.5,21.9
			c0,1.1,0.5,2,1.6,2s1.6-0.9,1.6-2.1c0-1.1-0.5-1.9-1.6-1.9S144.5,20.8,144.5,21.9z"/>
		<path d="M151.2,19.9h-1v-1.2h1v-0.6c0-0.8,0.2-1.8,1.9-1.8c0.4,0,1,0.1,1.3,0.1v1.4h-0.6c-0.3,0-0.7,0.1-0.7,0.5v0.4h1.2v1.2h-1.2
			v5.3h-1.9L151.2,19.9L151.2,19.9z"/>
		<path d="M86.8,30.9h6.9v1.7h-2.3v7.2h-2.2v-7.2h-2.3V30.9z"/>
		<path d="M95.2,36.9c0,1.3,0.8,1.7,1.4,1.7c0.7,0,1.1-0.4,1.6-1.2l1.5,0.8C99.1,39.4,98,40,96.5,40c-2.1,0-3.3-1.4-3.3-3.3
			c0-2.3,1.2-3.7,3.3-3.7c2.4,0,3.2,1.8,3.3,3.9H95.2z M97.8,35.7c-0.1-1-0.8-1.3-1.3-1.3s-1.2,0.4-1.3,1.3H97.8z"/>
		<path d="M105.5,35.4c-0.3-0.8-0.9-0.9-1.2-0.9c-1.1,0-1.5,0.9-1.5,2s0.5,2,1.5,2c0.6,0,1.1-0.2,1.4-1l1.4,0.7
			c-0.6,1.1-1.7,1.8-3,1.8c-2,0-3.4-1.3-3.4-3.5c0-2.2,1.5-3.5,3.3-3.5c1.3,0,2.3,0.5,3,1.6L105.5,35.4z"/>
		<path d="M108.1,30.9h1.9v2.9h0c0.4-0.5,1.2-0.8,1.8-0.8c1.4,0,2.1,0.8,2.1,2.1v4.7H112v-4c0-1-0.6-1.3-1-1.3c-0.4,0-1,0.3-1,1.5
			v3.7h-1.9L108.1,30.9L108.1,30.9z"/>
		<path d="M115.7,33.2h1.9v0.6c0.5-0.6,1.3-0.8,1.9-0.8c1.6,0,2,0.9,2,1.9v4.9h-1.9v-4.2c0-0.7-0.2-1.1-0.9-1.1c-0.8,0-1,0.5-1,1.1
			v4.1h-1.9L115.7,33.2L115.7,33.2z"/>
		<path d="M130,36.5c0,2.2-1.5,3.5-3.5,3.5c-2.1,0-3.5-1.3-3.5-3.5s1.5-3.5,3.5-3.5S130,34.2,130,36.5z M124.9,36.5
			c0,1.1,0.5,2,1.6,2c1.1,0,1.6-0.9,1.6-2.1c0-1.1-0.5-1.9-1.6-1.9C125.3,34.5,124.9,35.3,124.9,36.5z"/>
		<path d="M131.3,39.8v-8.9h1.9v8.9H131.3z"/>
		<path d="M141.6,36.5c0,2.2-1.5,3.5-3.5,3.5s-3.5-1.3-3.5-3.5s1.5-3.5,3.5-3.5S141.6,34.2,141.6,36.5z M136.4,36.5
			c0,1.1,0.5,2,1.6,2s1.6-0.9,1.6-2.1c0-1.1-0.5-1.9-1.6-1.9S136.4,35.3,136.4,36.5z"/>
		<path d="M148.7,33.2v6.7c0,2.1-2.2,2.2-3.2,2.2c-2,0-3-0.7-3.1-2.3h2c0,0.7,0.4,1,1.1,1c0.7,0,1.2-0.2,1.2-1.1v-0.8
			c-0.4,0.4-1.2,0.5-1.8,0.5c-1.9,0-2.6-1.5-2.6-3.2c0-1.6,0.9-3.2,2.6-3.2c0.7,0,1.4,0.2,1.9,0.7v-0.5
			C146.9,33.2,148.7,33.2,148.7,33.2z M145.5,34.4c-0.6,0-1.2,0.4-1.2,1.8c0,0.8,0.2,1.8,1.2,1.8c1.2,0,1.3-1.1,1.3-1.8
			C146.8,34.8,146.1,34.4,145.5,34.4z"/>
		<path d="M150.1,40.5c0.2,0,0.4,0,0.7,0c0.6,0,0.9-0.1,0.9-0.5c0-0.1,0-0.2-0.2-0.7l-1.9-6.1h2.1l1.1,5.1h0l1.1-5.1h2.1l-2.3,7.1
			c-0.3,1-0.8,1.8-1.9,1.8h-1.5L150.1,40.5L150.1,40.5z"/>
	</g>
</g>
</svg>
