<svg width="88" height="50" viewBox="0 0 88 50" fill="none" xmlns="http://www.w3.org/2000/svg">
<path d="M22.8413 13.5191H37.9019V14.7118H24.2219V23.6887H37.0861V24.8814H24.2219V34.7372H38.0588V35.9299H22.8413V13.5191ZM39.251 13.5191H40.8512L47.9422 23.3748L55.1901 13.5191L65.0484 1L48.8521 24.4106L57.1982 35.9299H55.5352L47.9422 25.4464L40.3178 35.9299H38.6863L47.0951 24.4106L39.251 13.5191ZM57.7943 14.7118V13.5191H74.9571V14.7118H67.0503V35.9299H65.6697V14.7118H57.7943ZM4 13.5191H5.72569L29.5219 49L19.6881 35.9299L5.4433 15.214L5.38055 35.9299H4L4 13.5191ZM74.818 34.3773C74.5359 34.3773 74.3244 34.1595 74.3244 33.8781C74.3244 33.5967 74.5359 33.3789 74.818 33.3789C75.1034 33.3789 75.3116 33.5967 75.3116 33.8781C75.3116 34.1595 75.1034 34.3773 74.818 34.3773ZM76.1745 33.064H76.9132C76.9233 33.4627 77.2154 33.7307 77.6452 33.7307C78.1254 33.7307 78.3974 33.4426 78.3974 32.9032V29.4861H79.1495V32.9066C79.1495 33.8781 78.5854 34.4376 77.6519 34.4376C76.7756 34.4376 76.1745 33.8948 76.1745 33.064ZM80.1334 33.0205H80.8788C80.9426 33.4794 81.3925 33.7709 82.0406 33.7709C82.645 33.7709 83.0882 33.4593 83.0882 33.0305C83.0882 32.662 82.8062 32.4409 82.1648 32.2901L81.5403 32.1394C80.6639 31.935 80.2643 31.5129 80.2643 30.8027C80.2643 29.9417 80.9695 29.3688 82.0272 29.3688C83.011 29.3688 83.7296 29.9417 83.7732 30.7558H83.0412C82.9707 30.3102 82.5812 30.0322 82.0171 30.0322C81.4228 30.0322 81.0265 30.3169 81.0265 30.7524C81.0265 31.0975 81.2817 31.2952 81.913 31.4426L82.4469 31.5732C83.4408 31.8044 83.8505 32.2064 83.8505 32.9334C83.8505 33.858 83.1319 34.4376 81.9835 34.4376C80.909 34.4376 80.1871 33.8848 80.1334 33.0205Z" fill="black"/>
</svg>
