<svg width="244" height="50" viewBox="0 0 244 50" fill="none" xmlns="http://www.w3.org/2000/svg">
<path d="M161.274 1.01999H202.745V8.67443H186.294V48.9434H178.068V8.67443H161.274V1.01999Z" fill="black"/>
<path d="M93.07 1.01999V8.67443H59.8283V20.9881H86.5613V28.6425H59.8283V41.289H93.07V48.9434H51.6027V8.67443H51.5993V1.01999H93.07Z" fill="black"/>
<path d="M113.778 1.03997H103.013L141.57 48.9634H152.366L133.085 25.0182L152.335 1.07654L141.57 1.09317L127.696 18.3247L113.778 1.03997Z" fill="black"/>
<path d="M124.824 35.272L119.433 28.5693L102.982 49H113.778L124.824 35.272Z" fill="black"/>
<path fill-rule="evenodd" clip-rule="evenodd" d="M51.891 48.9434L13.282 1H3V48.9234H11.2256V11.2436L41.5575 48.9434H51.891Z" fill="black"/>
<path d="M204.594 48.6507C203.992 48.6507 203.479 48.4421 203.05 48.0247C202.621 47.6073 202.409 47.102 202.414 46.5034C202.409 45.9212 202.621 45.4214 203.05 45.004C203.479 44.5867 203.992 44.3779 204.594 44.3779C205.174 44.3779 205.681 44.5867 206.11 45.004C206.545 45.4214 206.762 45.9212 206.768 46.5034C206.762 46.8988 206.661 47.2612 206.461 47.5852C206.255 47.9148 205.993 48.173 205.664 48.3597C205.34 48.5519 204.984 48.6507 204.594 48.6507Z" fill="black"/>
<path d="M218.633 28.462H222.278V42.5051C222.273 43.7958 221.994 44.8997 221.448 45.8279C220.896 46.756 220.133 47.4644 219.152 47.9642C218.177 48.4584 217.034 48.7111 215.735 48.7111C214.548 48.7111 213.484 48.4969 212.536 48.0796C211.589 47.6622 210.836 47.0361 210.285 46.2122C209.727 45.3884 209.454 44.3614 209.454 43.1312H213.105C213.11 43.6695 213.233 44.1362 213.467 44.5262C213.701 44.9161 214.024 45.2126 214.437 45.4214C214.854 45.6301 215.334 45.7344 215.874 45.7344C216.46 45.7344 216.961 45.6136 217.368 45.3664C217.775 45.1248 218.087 44.7623 218.305 44.279C218.516 43.8013 218.628 43.2081 218.633 42.5051V28.462Z" fill="black"/>
<path d="M237.276 33.954C237.187 33.1027 236.797 32.4382 236.117 31.9659C235.431 31.4881 234.545 31.2519 233.458 31.2519C232.695 31.2519 232.038 31.3673 231.491 31.5925C230.945 31.8231 230.521 32.1306 230.231 32.5206C229.942 32.9105 229.797 33.3554 229.785 33.8552C229.785 34.2726 229.886 34.635 230.081 34.9371C230.276 35.2446 230.538 35.5028 230.878 35.7115C231.212 35.9257 231.586 36.1014 231.993 36.2442C232.405 36.387 232.818 36.5078 233.23 36.6067L235.13 37.0735C235.894 37.2492 236.636 37.4855 237.343 37.7875C238.051 38.0841 238.692 38.463 239.255 38.9188C239.818 39.3747 240.264 39.9239 240.593 40.5665C240.921 41.209 241.089 41.9614 241.089 42.8292C241.089 43.9989 240.788 45.026 240.18 45.9157C239.572 46.7999 238.697 47.4919 237.549 47.9917C236.407 48.486 235.025 48.7386 233.397 48.7386C231.826 48.7386 230.454 48.497 229.301 48.0137C228.142 47.5359 227.238 46.8328 226.586 45.9102C225.934 44.9875 225.583 43.8616 225.533 42.5381H229.145C229.195 43.23 229.418 43.8068 229.797 44.2736C230.181 44.7349 230.683 45.0754 231.296 45.3061C231.915 45.5312 232.606 45.6466 233.37 45.6466C234.167 45.6466 234.869 45.5257 235.476 45.2896C236.078 45.0534 236.552 44.724 236.892 44.2956C237.238 43.8726 237.41 43.3729 237.416 42.8017C237.41 42.28 237.254 41.846 236.953 41.5055C236.647 41.1651 236.223 40.8795 235.682 40.6488C235.136 40.4182 234.501 40.2095 233.776 40.0282L231.469 39.4461C229.802 39.0232 228.481 38.3806 227.517 37.5184C226.548 36.6561 226.068 35.5138 226.068 34.0804C226.068 32.9051 226.391 31.8726 227.044 30.9884C227.69 30.1042 228.576 29.4176 229.697 28.9288C230.822 28.4346 232.093 28.1929 233.508 28.1929C234.947 28.1929 236.206 28.4346 237.293 28.9288C238.38 29.4176 239.233 30.0987 239.851 30.9664C240.47 31.8341 240.793 32.8282 240.81 33.954H237.276Z" fill="black"/>
</svg>
