<svg width="200" height="48" viewBox="0 0 200 48" fill="none" xmlns="http://www.w3.org/2000/svg">
<path d="M120.833 12.6846V36.324H127.504V12.6846H120.833ZM68.3457 12.6445V36.304H75.0769V17.9333L80.3257 17.9534C82.0485 17.9534 83.2505 18.3741 84.0719 19.2556C85.1337 20.3774 85.5544 22.2005 85.5544 25.506V36.304H92.0853V23.2422C92.0853 13.9066 86.1354 12.6445 80.3257 12.6445H68.3457ZM131.591 12.6846V36.324H142.409C148.179 36.324 150.062 35.3624 152.085 33.2188C153.528 31.7163 154.449 28.3908 154.449 24.7647C154.449 21.4392 153.668 18.4742 152.286 16.6312C149.842 13.3257 146.276 12.6846 140.947 12.6846H131.591ZM138.202 17.8131H141.067C145.234 17.8131 147.918 19.6763 147.918 24.5243C147.918 29.3724 145.234 31.2556 141.067 31.2556H138.202V17.8131ZM111.217 12.6846L105.648 31.4158L100.319 12.6846H93.107L100.72 36.324H110.336L118.029 12.6846H111.217ZM157.574 36.324H164.246V12.6846H157.574V36.324ZM176.286 12.6846L166.97 36.304H173.541L175.024 32.117H186.042L187.444 36.2839H194.596L185.2 12.6846H176.286ZM180.613 16.9918L184.66 28.0502H176.446L180.613 16.9918Z" fill="black"/>
<path d="M25.2938 16.6109V13.3655C25.6144 13.3455 25.9349 13.3255 26.2554 13.3255C35.1503 13.045 40.98 20.9782 40.98 20.9782C40.98 20.9782 34.6895 29.7128 27.9382 29.7128C27.0367 29.7128 26.1553 29.5725 25.3139 29.2921V19.4357C28.7796 19.8564 29.4808 21.3789 31.5442 24.8447L36.172 20.9582C36.172 20.9582 32.7863 16.5308 27.0968 16.5308C26.4958 16.5108 25.8948 16.5508 25.2938 16.6109ZM25.2938 5.87305V10.7211L26.2554 10.661C38.616 10.2403 46.6895 20.7979 46.6895 20.7979C46.6895 20.7979 37.4341 32.0567 27.798 32.0567C26.9566 32.0567 26.1352 31.9766 25.3139 31.8363V34.8413C25.995 34.9215 26.6962 34.9816 27.3773 34.9816C36.3523 34.9816 42.8431 30.3939 49.1336 24.9849C50.1753 25.8263 54.4424 27.8497 55.3239 28.7311C49.3539 33.7395 35.4307 37.7662 27.5376 37.7662C26.7763 37.7662 26.0551 37.7261 25.3339 37.646V41.873H59.4307V5.87305H25.2938ZM25.2938 29.2921V31.8564C17 30.3739 14.6962 21.7395 14.6962 21.7395C14.6962 21.7395 18.6828 17.3321 25.2938 16.6109V19.4156H25.2738C21.808 18.9949 19.0835 22.2403 19.0835 22.2403C19.0835 22.2403 20.626 27.7094 25.2938 29.2921ZM10.5693 21.3789C10.5693 21.3789 15.4775 14.1268 25.3139 13.3655V10.7211C14.4157 11.6026 5 20.818 5 20.818C5 20.818 10.3289 36.2437 25.2938 37.646V34.8413C14.3155 33.4791 10.5693 21.3789 10.5693 21.3789Z" fill="#76B900"/>
</svg>
