<svg width="308" height="50" viewBox="0 0 308 50" fill="none" xmlns="http://www.w3.org/2000/svg">
<path d="M4.00002 25C4.00002 11.7467 14.7467 1 28 1C37.7441 1 46.1317 6.80938 49.8936 15.1548L18.1548 46.8936C16.7983 46.2828 15.505 45.5498 14.2875 44.6988L33.9821 25.0042H28L11.0311 41.9731C6.52345 37.4781 3.9916 31.3697 4.00002 25.0042M52 25.0084L28.0084 49C41.2575 48.9958 51.9958 38.2575 52 25.0084Z" fill="black"/>
<path fill-rule="evenodd" clip-rule="evenodd" d="M64.7267 8.29639V41.0842H69.3102V30.9188H76.1559C82.3823 30.8556 87.4502 26.1458 87.4502 19.9699C87.4502 13.1158 82.5171 8.29639 76.1811 8.29639H64.7225H64.7267ZM83.0648 19.6666C83.0648 23.5086 79.9305 26.883 76.1053 26.9041H69.3102V12.3406H76.0716C79.9094 12.3406 83.0648 15.6223 83.0648 19.6666Z" fill="black"/>
<path d="M271.492 41.0842V8.29639H276.101V41.0842H271.492ZM94.4392 41.0842V8.31323H89.8304V41.0842H94.4392Z" fill="black"/>
<path fill-rule="evenodd" clip-rule="evenodd" d="M122.829 41.0842V16.5365H118.22V19.991H118.132C116.227 17.1979 113.215 15.8709 109.626 15.8709C102.405 15.8709 96.7772 21.3643 96.7772 29.2084C96.7772 36.2985 102.629 41.7034 109.803 41.7034C113.304 41.7034 116.404 40.1995 118.132 37.2716H118.22V41.0842H122.829ZM109.757 37.4949C105.148 37.4949 101.382 33.4633 101.382 28.8546C101.382 24.2458 105.148 20.0836 109.757 20.0836C114.85 20.0836 118.309 24.0731 118.309 28.8546C118.309 33.636 114.542 37.4949 109.757 37.4949Z" fill="black"/>
<path d="M148.539 41.0842V26.3733C148.539 19.595 144.196 15.8709 138.302 15.8709C135.467 15.8709 132.939 16.8019 131.124 19.1484H131.035V16.5323H126.431V41.0799H131.347V27.6539C131.347 23.0452 133.782 20.0752 137.814 20.0752C141.845 20.0752 143.93 22.5144 143.93 27.6961V41.0799H148.539V41.0842Z" fill="black"/>
<path fill-rule="evenodd" clip-rule="evenodd" d="M175.842 30.6281C175.947 29.8614 175.947 29.2 175.947 28.5007C175.947 21.457 170.454 15.8709 163.229 15.8709C156.716 15.8709 150.869 21.2758 150.869 29.0315C150.869 35.5908 156.451 41.7034 163.364 41.7034C168.638 41.7034 173.247 38.4259 175.151 33.3748H170.542C169.123 35.991 166.422 37.4949 163.541 37.4949C159.813 37.4949 156.602 34.9293 155.507 30.9188H175.791C175.808 30.8219 175.825 30.725 175.842 30.6281ZM155.516 26.9041C156.046 22.8851 159.707 20.0836 163.364 20.0836C167.021 20.0836 170.774 22.9272 171.301 26.9041H155.516Z" fill="black"/>
<path d="M209.477 16.4902H214.603C213.824 12.4628 209.228 8.29639 203.048 8.29639C196.868 8.29639 191.623 11.9952 191.623 17.5476C191.623 22.0299 194.829 24.7808 200.006 26.1837L203.815 27.2242C207.261 28.1384 209.927 29.3517 209.927 32.2163C209.927 35.3633 206.924 37.4401 202.782 37.4401C199.484 37.4401 196.67 36.1426 195.857 33.4338H190.734C191.577 38.4006 195.996 41.7034 202.816 41.7034C210.382 41.7034 214.742 37.7224 214.742 32.2627C214.742 26.4575 209.557 24.1237 205.466 23.1168L202.319 22.2995C199.804 21.655 196.455 20.349 196.472 17.2653C196.472 14.527 198.974 12.3406 202.938 12.3406C206.33 12.3406 208.824 13.9541 209.477 16.4902ZM240.954 33.4296C238.911 38.6871 234.328 41.7034 229.028 41.7034C221.984 41.7034 216.444 36.0331 216.444 29.0315C216.444 21.6339 221.807 15.8709 228.982 15.8709C234.395 15.8709 239.349 19.161 240.979 24.2079H235.785C234.399 21.6171 232.251 20.0794 229.116 20.0794C224.284 20.0794 221.053 23.7571 221.053 28.7619C221.053 33.7666 224.377 37.4907 229.028 37.4907C232.002 37.4907 234.42 35.9867 235.764 33.4254H240.958L240.954 33.4296Z" fill="black"/>
<path fill-rule="evenodd" clip-rule="evenodd" d="M267.886 16.5365V41.0842H263.277V37.2716H263.189C261.462 40.1953 258.357 41.7034 254.86 41.7034C247.682 41.7034 241.835 36.2985 241.835 29.2084C241.835 21.3643 247.463 15.8709 254.684 15.8709C258.273 15.8709 261.285 17.2021 263.193 19.991H263.282V16.5365H267.89H267.886ZM246.439 28.8546C246.439 33.4633 250.205 37.4949 254.814 37.4949C259.423 37.4949 263.366 33.5054 263.366 28.8546C263.366 24.2037 259.912 20.0836 254.814 20.0836C250.205 20.0836 246.439 24.0268 246.439 28.8546ZM303.417 30.4933C303.505 29.7856 303.505 29.1579 303.505 28.5007C303.505 28.3912 303.505 28.2816 303.501 28.1721C303.48 27.3043 303.374 26.4407 303.181 25.5981C302.844 24.1068 302.233 22.6871 301.382 21.4107C299.136 18.0531 295.299 15.8751 290.787 15.8751C284.274 15.8751 278.427 21.2801 278.427 29.0357C278.427 29.8572 278.515 30.6703 278.679 31.4623C279.842 37.0273 284.872 41.7077 290.922 41.7077C296.196 41.7077 300.805 38.4301 302.709 33.3791H298.1C297.923 33.6992 297.729 34.011 297.51 34.3059C296.006 36.3448 293.622 37.4991 291.098 37.4991C287.366 37.4991 284.16 34.9336 283.065 30.923H303.349L303.37 30.8051C303.387 30.6998 303.404 30.5944 303.412 30.4933M283.141 26.487C283.861 22.6913 287.391 20.0836 290.922 20.0836C294.751 20.0836 298.332 22.9272 298.858 26.9041H283.073C283.09 26.765 283.115 26.6218 283.141 26.487Z" fill="black"/>
<path d="M184.154 16.5407H189.302V20.5597H184.154V34.2848C184.154 36.6945 185.321 37.3643 186.627 37.4865C186.719 37.4865 186.799 37.4907 186.871 37.4949C187.663 37.537 188.286 37.4149 188.661 37.2927C189.201 38.5144 189.938 39.6434 190.839 40.625C189.243 41.5855 187.347 41.7666 185.915 41.6824C185.236 41.6487 184.567 41.5349 183.922 41.3369C181.104 40.4775 180.215 38.4512 179.895 37.6213H179.916C179.659 36.8588 179.532 36.0584 179.545 35.2579V20.5597H175.926V16.5407H179.545V8.29639H184.154V16.5407Z" fill="black"/>
</svg>
