<svg width="200" height="48" viewBox="0 0 200 48" fill="none" xmlns="http://www.w3.org/2000/svg">
<path d="M1.39743e-05 24C1.39743e-05 15.1645 7.16449 8 16 8C22.4961 8 28.0878 11.8729 30.5958 17.4365L9.43656 38.5958C8.53222 38.1885 7.67001 37.6998 6.85836 37.1325L19.9881 24.0028H16L4.68739 35.3154C1.6823 32.3188 -0.00560302 28.2464 1.39743e-05 24.0028M32 24.0056L16.0056 40C24.8383 39.9972 31.9972 32.8383 32 24.0056Z" fill="black"/>
<path fill-rule="evenodd" clip-rule="evenodd" d="M40.4844 12.8643V34.7228H43.5401V27.9459H48.1039C52.2548 27.9037 55.6335 24.7639 55.6335 20.6466C55.6335 16.0772 52.3447 12.8643 48.1207 12.8643H40.4816H40.4844ZM52.7098 20.4444C52.7098 23.0057 50.6203 25.2553 48.0702 25.2694H43.5401V15.5604H48.0477C50.6063 15.5604 52.7098 17.7482 52.7098 20.4444Z" fill="black"/>
<path d="M178.328 34.7228V12.8643H181.401V34.7228H178.328ZM60.2928 34.7228V12.8755H57.2203V34.7228H60.2928Z" fill="black"/>
<path fill-rule="evenodd" clip-rule="evenodd" d="M79.2192 34.7228V18.3577H76.1467V20.6606H76.0877C74.8183 18.7986 72.8102 17.9139 70.4174 17.9139C65.6036 17.9139 61.8515 21.5762 61.8515 26.8056C61.8515 31.5323 65.7525 35.1356 70.5353 35.1356C72.8692 35.1356 74.9363 34.133 76.0877 32.1811H76.1467V34.7228H79.2192ZM70.5044 32.3299C67.4319 32.3299 64.9212 29.6422 64.9212 26.5697C64.9212 23.4972 67.4319 20.7224 70.5044 20.7224C73.8999 20.7224 76.2057 23.3821 76.2057 26.5697C76.2057 29.7574 73.6949 32.3299 70.5044 32.3299Z" fill="black"/>
<path d="M96.3595 34.7228V24.9155C96.3595 20.3966 93.4639 17.9139 89.5348 17.9139C87.6447 17.9139 85.9596 18.5346 84.7491 20.0989H84.6902V18.3549H81.6205V34.72H84.898V25.7693C84.898 22.6968 86.5213 20.7168 89.209 20.7168C91.8968 20.7168 93.287 22.3429 93.287 25.7974V34.72H96.3595V34.7228Z" fill="black"/>
<path fill-rule="evenodd" clip-rule="evenodd" d="M114.561 27.7521C114.632 27.2409 114.632 26.8 114.632 26.3338C114.632 21.638 110.969 17.9139 106.153 17.9139C101.811 17.9139 97.9126 21.5172 97.9126 26.6877C97.9126 31.0605 101.634 35.1356 106.243 35.1356C109.759 35.1356 112.831 32.9506 114.101 29.5832H111.028C110.082 31.3273 108.282 32.3299 106.361 32.3299C103.875 32.3299 101.735 30.6196 101.005 27.9459H114.528C114.539 27.8813 114.55 27.8167 114.561 27.7521ZM101.01 25.2694C101.364 22.5901 103.805 20.7224 106.243 20.7224C108.68 20.7224 111.183 22.6182 111.534 25.2694H101.01Z" fill="black"/>
<path d="M136.984 18.3268H140.402C139.883 15.6419 136.819 12.8643 132.699 12.8643C128.579 12.8643 125.082 15.3301 125.082 19.0317C125.082 22.02 127.219 23.8539 130.671 24.7891L133.21 25.4828C135.507 26.0923 137.285 26.9011 137.285 28.8109C137.285 30.9088 135.282 32.2934 132.522 32.2934C130.323 32.2934 128.447 31.4284 127.904 29.6225H124.489C125.051 32.9338 127.997 35.1356 132.544 35.1356C137.588 35.1356 140.495 32.4816 140.495 28.8418C140.495 24.9717 137.038 23.4158 134.311 22.7445L132.213 22.1997C130.536 21.77 128.303 20.8994 128.315 18.8435C128.315 17.018 129.983 15.5604 132.626 15.5604C134.886 15.5604 136.549 16.6361 136.984 18.3268ZM157.969 29.6197C156.607 33.1247 153.552 35.1356 150.019 35.1356C145.323 35.1356 141.63 31.3554 141.63 26.6877C141.63 21.756 145.205 17.9139 149.988 17.9139C153.597 17.9139 156.899 20.1074 157.986 23.4719H154.523C153.599 21.7447 152.167 20.7196 150.078 20.7196C146.856 20.7196 144.702 23.1714 144.702 26.5079C144.702 29.8444 146.918 32.3271 150.019 32.3271C152.001 32.3271 153.613 31.3245 154.509 29.6169H157.972L157.969 29.6197Z" fill="black"/>
<path fill-rule="evenodd" clip-rule="evenodd" d="M175.924 18.3577V34.7228H172.852V32.1811H172.793C171.641 34.1302 169.571 35.1356 167.24 35.1356C162.455 35.1356 158.556 31.5323 158.556 26.8056C158.556 21.5762 162.309 17.9139 167.122 17.9139C169.515 17.9139 171.523 18.8014 172.795 20.6606H172.854V18.3577H175.927H175.924ZM161.626 26.5697C161.626 29.6422 164.137 32.3299 167.209 32.3299C170.282 32.3299 172.911 29.6703 172.911 26.5697C172.911 23.4691 170.608 20.7224 167.209 20.7224C164.137 20.7224 161.626 23.3512 161.626 26.5697ZM199.611 27.6622C199.67 27.1904 199.67 26.7719 199.67 26.3338C199.67 26.2608 199.67 26.1878 199.667 26.1147C199.653 25.5362 199.583 24.9604 199.454 24.3987C199.229 23.4045 198.822 22.4581 198.254 21.6071C196.758 19.3687 194.199 17.9167 191.191 17.9167C186.849 17.9167 182.951 21.52 182.951 26.6905C182.951 27.2381 183.01 27.7802 183.12 28.3082C183.895 32.0182 187.248 35.1384 191.281 35.1384C194.797 35.1384 197.87 32.9534 199.139 29.586H196.067C195.949 29.7995 195.82 30.0073 195.673 30.2039C194.671 31.5632 193.081 32.3327 191.399 32.3327C188.911 32.3327 186.773 30.6224 186.043 27.9487H199.566L199.58 27.87C199.591 27.7998 199.603 27.7296 199.608 27.6622M186.094 24.9913C186.574 22.4609 188.927 20.7224 191.281 20.7224C193.834 20.7224 196.221 22.6182 196.572 25.2694H186.049C186.06 25.1767 186.077 25.0812 186.094 24.9913Z" fill="black"/>
<path d="M120.102 18.3605H123.534V21.0398H120.102V30.1899C120.102 31.7963 120.88 32.2429 121.751 32.3243C121.813 32.3243 121.866 32.3271 121.914 32.3299C122.442 32.358 122.858 32.2766 123.108 32.1951C123.467 33.0096 123.959 33.7623 124.56 34.4166C123.495 35.057 122.231 35.1778 121.276 35.1216C120.824 35.0991 120.378 35.0233 119.948 34.8913C118.069 34.3184 117.477 32.9675 117.263 32.4142H117.277C117.106 31.9059 117.022 31.3722 117.03 30.8386V21.0398H114.617V18.3605H117.03V12.8643H120.102V18.3605Z" fill="black"/>
</svg>
