<svg width="70" height="48" viewBox="0 0 70 48" fill="none" xmlns="http://www.w3.org/2000/svg">
<path fill-rule="evenodd" clip-rule="evenodd" d="M29.2548 5.17689C31.4455 2.89634 34.4946 1.4841 37.863 1.4841C42.3542 1.4841 46.2466 3.97923 48.3425 7.69697C50.203 6.86528 52.2181 6.4359 54.256 6.43693C62.3402 6.43693 68.9024 13.049 68.9024 21.2081C68.9024 29.3671 62.3402 35.9792 54.256 35.9792C53.2679 35.9792 52.3048 35.8799 51.3616 35.6923C49.5277 38.9609 46.0221 41.1816 42.0299 41.1816C40.4045 41.1848 38.7999 40.8161 37.339 40.1037C35.4802 44.4701 31.1511 47.5392 26.111 47.5392C20.8462 47.5392 16.38 44.2206 14.6583 39.5547C13.8921 39.7165 13.111 39.7977 12.3279 39.7973C6.06511 39.7973 1 34.6573 1 28.3446C1 24.1029 3.28055 20.4101 6.66394 18.414C5.94615 16.7605 5.57668 14.9769 5.57856 13.1743C5.57856 5.8885 11.492 0 18.7778 0C23.0444 0 26.862 2.03353 29.2573 5.18986" fill="#00A1E0"/>
<path fill-rule="evenodd" clip-rule="evenodd" d="M10.8906 24.6385C10.8479 24.7498 10.9058 24.773 10.9195 24.7927C11.047 24.885 11.1765 24.9519 11.3063 25.027C11.9999 25.3938 12.6536 25.5011 13.3373 25.5011C14.7296 25.5011 15.5954 24.76 15.5954 23.5673V23.5439C15.5954 22.441 14.6173 22.0393 13.7041 21.7524L13.5846 21.7137C12.8934 21.4896 12.2971 21.2945 12.2971 20.8404V20.8172C12.2971 20.428 12.6464 20.141 13.1854 20.141C13.7842 20.141 14.4978 20.3404 14.9544 20.5926C14.9544 20.5926 15.0896 20.68 15.1388 20.5495C15.1655 20.4789 15.3983 19.8558 15.4232 19.786C15.4497 19.7129 15.4033 19.6577 15.3556 19.6293C14.8316 19.3099 14.108 19.0928 13.3595 19.0928L13.2205 19.0933C11.9455 19.0933 11.0548 19.8643 11.0548 20.9672V20.9909C11.0548 22.1536 12.0378 22.5328 12.9561 22.7948L13.1038 22.8407C13.7725 23.0463 14.3513 23.225 14.3513 23.6941V23.7175C14.3513 24.1492 13.9746 24.4711 13.3707 24.4711C13.1359 24.4711 12.3877 24.4671 11.5767 23.9546C11.4787 23.8974 11.4228 23.8563 11.3472 23.8101C11.3073 23.7859 11.2075 23.7422 11.164 23.873L10.8896 24.6365M31.2748 24.6365C31.2321 24.7478 31.29 24.771 31.3042 24.7907C31.4312 24.883 31.5612 24.9499 31.691 25.025C32.3846 25.3918 33.0383 25.4991 33.722 25.4991C35.1143 25.4991 35.9801 24.758 35.9801 23.5653V23.5419C35.9801 22.439 35.0045 22.0373 34.0888 21.7504L33.9693 21.7117C33.2781 21.4876 32.6818 21.2925 32.6818 20.8384V20.8152C32.6818 20.426 33.0311 20.139 33.57 20.139C34.1689 20.139 34.88 20.3384 35.3391 20.5906C35.3391 20.5906 35.4743 20.678 35.5237 20.5475C35.5502 20.4769 35.7832 19.8538 35.8057 19.784C35.8324 19.7109 35.7857 19.6557 35.7383 19.6273C35.2143 19.3079 34.4907 19.0908 33.7422 19.0908L33.603 19.0913C32.328 19.0913 31.4372 19.8623 31.4372 20.9652V20.9889C31.4372 22.1516 32.4203 22.5309 33.3385 22.7928L33.4859 22.8387C34.1571 23.0443 34.7335 23.223 34.7335 23.6921V23.7155C34.7335 24.1472 34.3568 24.4691 33.7529 24.4691C33.5176 24.4691 32.7674 24.4651 31.9589 23.9526C31.8609 23.8954 31.8035 23.856 31.7291 23.8081C31.7039 23.7921 31.5864 23.7462 31.5462 23.871L31.2718 24.6345M45.1946 22.2991C45.1946 22.9727 45.0688 23.5042 44.8228 23.881C44.5773 24.2527 44.2065 24.4349 43.69 24.4349C43.1735 24.4349 42.8043 24.2542 42.5622 23.8835C42.3185 23.5092 42.1954 22.9752 42.1954 22.3015C42.1954 21.6279 42.3192 21.0989 42.5622 20.7271C42.8038 20.3578 43.171 20.1807 43.69 20.1807C44.209 20.1807 44.5783 20.3596 44.8228 20.7271C45.0703 21.0989 45.1946 21.6279 45.1946 22.3015M46.3573 21.0515C46.2428 20.6647 46.0654 20.3254 45.8283 20.041C45.5911 19.7565 45.2919 19.527 44.9351 19.3623C44.5808 19.1964 44.1616 19.1128 43.6875 19.1128C43.2135 19.1128 42.7968 19.1969 42.44 19.3623C42.0857 19.528 41.7837 19.7565 41.5467 20.041C41.3102 20.3254 41.1325 20.6647 41.0177 21.0515C40.9042 21.4357 40.8466 21.8549 40.8466 22.3015C40.8466 22.7482 40.9042 23.1674 41.0177 23.5516C41.1318 23.9384 41.3097 24.2777 41.5467 24.5621C41.784 24.8466 42.0857 25.0736 42.44 25.2358C42.7968 25.3975 43.2159 25.4798 43.6875 25.4798C44.1591 25.4798 44.5783 25.3975 44.9326 25.2358C45.2869 25.0741 45.5888 24.8466 45.8259 24.5621C46.0626 24.2777 46.24 23.9384 46.3548 23.5516C46.4681 23.1674 46.5257 22.7482 46.5257 22.3015C46.5257 21.8574 46.4681 21.4357 46.3548 21.0515M55.9112 24.2453C55.873 24.1322 55.7627 24.1749 55.7627 24.1749C55.5938 24.2395 55.4134 24.2994 55.2213 24.3293C55.0276 24.3598 54.8121 24.375 54.585 24.375C54.0236 24.375 53.5745 24.2076 53.2551 23.876C52.9332 23.5441 52.7536 23.0102 52.7561 22.2866C52.7578 21.6279 52.917 21.1338 53.2027 20.7546C53.4846 20.3803 53.9188 20.1857 54.4927 20.1857C54.9717 20.1857 55.3385 20.2413 55.7228 20.3616C55.7228 20.3616 55.8138 20.4013 55.8575 20.2812C55.9596 19.9993 56.0349 19.7972 56.1444 19.4878C56.1754 19.3992 56.0995 19.3618 56.0718 19.3511C55.9211 19.2922 55.5653 19.1956 55.2959 19.1549C55.0438 19.1165 54.7519 19.0966 54.4226 19.0966C53.9335 19.0966 53.4994 19.1801 53.1276 19.3458C52.7558 19.5112 52.4414 19.7401 52.1919 20.0245C51.9424 20.3089 51.7528 20.6483 51.6255 21.035C51.4995 21.4193 51.4359 21.8409 51.4359 22.2876C51.4359 23.2507 51.6954 24.0317 52.2094 24.6031C52.7234 25.1769 53.4969 25.4664 54.5049 25.4664C55.1012 25.4664 55.7125 25.3459 56.1517 25.1719C56.1517 25.1719 56.2355 25.1315 56.1991 25.0337L55.9122 24.2453M57.9457 21.6503C58.0013 21.2761 58.1039 20.9642 58.2651 20.7221C58.5063 20.3529 58.8739 20.1508 59.3904 20.1508C59.9069 20.1508 60.2487 20.3539 60.4932 20.7221C60.6554 20.9654 60.7263 21.2885 60.7527 21.6503L57.9332 21.6498L57.9457 21.6503ZM61.863 20.8269C61.764 20.4552 61.5187 20.0784 61.359 19.9062C61.1045 19.6343 60.8575 19.4421 60.6105 19.3373C60.2539 19.1857 59.8702 19.1079 59.4827 19.1085C58.9911 19.1085 58.5445 19.1916 58.1827 19.3605C57.8209 19.5307 57.5165 19.7623 57.277 20.0517C57.0377 20.3411 56.8578 20.683 56.743 21.0747C56.6283 21.4614 56.5704 21.8856 56.5704 22.3297C56.5704 22.7839 56.6305 23.2055 56.7488 23.5873C56.8683 23.9715 57.0607 24.3084 57.3202 24.5878C57.5796 24.8698 57.9115 25.0894 58.3107 25.2441C58.7074 25.3975 59.189 25.4771 59.7404 25.4753C60.8782 25.4716 61.477 25.2184 61.7216 25.0811C61.7652 25.0567 61.8064 25.0145 61.755 24.893L61.498 24.1719C61.4586 24.0644 61.3498 24.1033 61.3498 24.1033C61.0678 24.2086 60.6686 24.3977 59.7329 24.3952C59.1216 24.3942 58.67 24.2138 58.3856 23.9311C58.0961 23.6417 57.9514 23.22 57.929 22.6212L61.8713 22.6242C61.8713 22.6242 61.9751 22.6232 61.9858 22.5219C61.99 22.48 62.1208 21.7134 61.8683 20.8277L61.863 20.8269ZM26.4322 21.6503C26.4879 21.2761 26.5907 20.9642 26.7516 20.7221C26.9931 20.3529 27.3604 20.1508 27.8769 20.1508C28.3934 20.1508 28.7352 20.3539 28.9798 20.7221C29.1417 20.9654 29.2125 21.2885 29.2392 21.6503L26.4198 21.6498L26.4322 21.6503ZM30.3496 20.8269C30.2508 20.4552 30.0052 20.0784 29.8456 19.9062C29.5911 19.6343 29.344 19.4421 29.097 19.3373C28.7404 19.1857 28.3568 19.1079 27.9692 19.1085C27.4777 19.1085 27.0311 19.1916 26.6693 19.3605C26.3075 19.5307 26.0031 19.7623 25.7635 20.0517C25.5248 20.3411 25.3444 20.683 25.2296 21.0747C25.1151 21.4614 25.0574 21.8856 25.0574 22.3297C25.0574 22.7839 25.117 23.2055 25.2361 23.5873C25.3553 23.9715 25.548 24.3084 25.805 24.5878C26.0644 24.8698 26.3963 25.0894 26.7955 25.2441C27.1922 25.3975 27.6713 25.4771 28.2252 25.4753C29.363 25.4716 29.9618 25.2184 30.2064 25.0811C30.2498 25.0567 30.2912 25.0145 30.2395 24.893L29.9825 24.1719C29.9429 24.0644 29.8341 24.1033 29.8341 24.1033C29.5521 24.2086 29.1529 24.3977 28.2172 24.3952C27.6084 24.3942 27.1543 24.2138 26.8699 23.9311C26.5804 23.6417 26.4357 23.22 26.4133 22.6212L30.3556 22.6242C30.3556 22.6242 30.4594 22.6232 30.4701 22.5219C30.4743 22.48 30.6051 21.7134 30.3523 20.8277L30.3496 20.8269ZM17.9238 24.2203C17.7694 24.097 17.7479 24.0669 17.6968 23.9868C17.6187 23.8662 17.5788 23.6948 17.5788 23.4753C17.5788 23.1309 17.6935 22.8814 17.9306 22.7142C17.9281 22.7147 18.2699 22.4198 19.0734 22.4298C19.431 22.4362 19.7877 22.4666 20.1413 22.5209V24.3099H20.1418C20.1418 24.3099 19.6427 24.4174 19.0788 24.4514C18.2779 24.4995 17.9236 24.2208 17.9261 24.2215L17.9238 24.2203ZM19.4908 21.4507C19.3311 21.439 19.124 21.4332 18.877 21.4332C18.5401 21.4332 18.2133 21.4752 17.9089 21.5575C17.602 21.6403 17.325 21.7686 17.088 21.9393C16.8503 22.1088 16.6548 22.3308 16.5166 22.588C16.3771 22.8475 16.306 23.1519 16.306 23.4962C16.306 23.8455 16.3666 24.1474 16.4864 24.3945C16.6038 24.6395 16.7804 24.8513 17.0004 25.0108C17.2192 25.1699 17.4894 25.2877 17.8013 25.3576C18.1107 25.4282 18.4601 25.4639 18.8443 25.4639C19.2485 25.4639 19.6502 25.4299 20.0395 25.3643C20.371 25.3071 20.7012 25.2429 21.03 25.1717C21.1613 25.1415 21.307 25.1018 21.307 25.1018C21.4043 25.0771 21.3968 24.9731 21.3968 24.9731L21.3946 21.3801C21.3946 20.5916 21.184 20.0053 20.7683 19.6435C20.3541 19.2817 19.7478 19.0996 18.9618 19.0996C18.6674 19.0996 18.1908 19.1395 17.9064 19.1966C17.9064 19.1966 17.0481 19.3633 16.6937 19.6407C16.6937 19.6407 16.6159 19.6887 16.6583 19.7972L16.9378 20.5457C16.9725 20.6428 17.067 20.6096 17.067 20.6096C17.067 20.6096 17.0967 20.5979 17.1316 20.5772C17.8877 20.1655 18.8458 20.1779 18.8458 20.1779C19.27 20.1779 19.5993 20.264 19.8189 20.4324C20.0337 20.5974 20.1433 20.8466 20.1433 21.3706V21.537C19.8064 21.4881 19.4945 21.4599 19.4945 21.4599L19.4908 21.4507ZM51.1789 19.4222C51.1846 19.409 51.1875 19.3948 51.1876 19.3805C51.1877 19.3662 51.1849 19.352 51.1794 19.3388C51.1739 19.3255 51.1657 19.3136 51.1555 19.3035C51.1453 19.2935 51.1331 19.2857 51.1198 19.2804C51.0526 19.255 50.718 19.1844 50.461 19.1684C49.967 19.1375 49.6926 19.2208 49.4455 19.3316C49.2015 19.4416 48.9315 19.6185 48.7818 19.8231L48.7813 19.3441C48.7813 19.2782 48.7347 19.2251 48.6683 19.2251H47.6603C47.5949 19.2251 47.5475 19.2782 47.5475 19.3441V25.2076C47.5476 25.2393 47.5602 25.2697 47.5826 25.2921C47.605 25.3145 47.6353 25.3271 47.667 25.3271H48.7C48.7316 25.3271 48.762 25.3145 48.7843 25.292C48.8067 25.2696 48.8193 25.2393 48.8193 25.2076V22.2634C48.8193 21.8691 48.8627 21.4774 48.9493 21.2304C49.0346 20.9861 49.1506 20.7912 49.2936 20.6515C49.43 20.5166 49.5969 20.4164 49.7801 20.3596C49.9521 20.3102 50.1302 20.2852 50.3091 20.2852C50.5149 20.2852 50.7408 20.3381 50.7408 20.3381C50.8166 20.3466 50.8588 20.3002 50.8845 20.2318C50.9521 20.0519 51.144 19.5132 51.1814 19.406" fill="#FFFFFE"/>
<path fill-rule="evenodd" clip-rule="evenodd" d="M41.531 16.7164C41.4034 16.6778 41.2735 16.647 41.1421 16.6241C40.9653 16.5946 40.7863 16.5808 40.6071 16.5827C39.8952 16.5827 39.3341 16.7838 38.9401 17.181C38.5489 17.5753 38.2826 18.1758 38.1491 18.966L38.101 19.2328H37.2075C37.2075 19.2328 37.0984 19.2283 37.0755 19.3473L36.9288 20.1657C36.9186 20.244 36.9522 20.293 37.057 20.2925H37.9268L37.0443 25.2186C36.9752 25.6153 36.8961 25.9417 36.8085 26.1889C36.7222 26.433 36.6378 26.6159 36.5341 26.7486C36.4335 26.8771 36.3382 26.9717 36.1738 27.0268C36.038 27.0725 35.8818 27.0934 35.7107 27.0934C35.6153 27.0934 35.4886 27.0775 35.395 27.0587C35.3015 27.0403 35.2528 27.0193 35.1827 26.9899C35.1827 26.9899 35.0806 26.9509 35.0405 27.0532C35.0078 27.1368 34.776 27.7743 34.7485 27.8532C34.7206 27.931 34.7598 27.9924 34.8092 28.0101C34.9249 28.0515 35.011 28.078 35.1687 28.1152C35.3878 28.1668 35.5724 28.1701 35.7453 28.1701C36.1076 28.1701 36.4377 28.1192 36.7115 28.0204C36.9869 27.9208 37.2267 27.7474 37.4388 27.5126C37.6681 27.2593 37.8123 26.9941 37.9503 26.6323C38.0868 26.2738 38.203 25.8286 38.2961 25.3099L39.1829 20.2925H40.4793C40.4793 20.2925 40.5886 20.2964 40.6113 20.1779L40.7581 19.3595C40.7683 19.2812 40.7348 19.2323 40.6296 19.2328H39.3713C39.3775 19.2043 39.4346 18.7617 39.5791 18.345C39.6407 18.1671 39.7568 18.0236 39.8551 17.9251C39.9469 17.8312 40.0599 17.7609 40.1847 17.72C40.3214 17.6777 40.464 17.6572 40.6071 17.6591C40.7256 17.6591 40.8419 17.6733 40.9305 17.6918C41.0525 17.7177 41.0999 17.7315 41.1318 17.7409C41.2601 17.7801 41.2773 17.7422 41.3025 17.6801L41.6034 16.8537C41.6343 16.7648 41.559 16.7274 41.531 16.7164ZM23.9469 25.2291C23.9469 25.2949 23.9 25.3486 23.8341 25.3486H22.7904C22.7243 25.3486 22.6774 25.2949 22.6774 25.2291V16.8285C22.6774 16.7628 22.7243 16.7097 22.7904 16.7097H23.8341C23.9 16.7097 23.9469 16.7628 23.9469 16.8285V25.2291Z" fill="#FFFFFE"/>
</svg>
