<svg width="121" height="48" viewBox="0 0 121 48" fill="none" xmlns="http://www.w3.org/2000/svg">
<path d="M37.9243 32.4265L39.3924 28.995C40.9999 30.1854 43.0966 30.8155 45.1937 30.8155C46.7315 30.8155 47.7099 30.2205 47.7099 29.3103C47.6749 26.7891 38.4486 28.7499 38.3784 22.4113C38.3434 19.1898 41.2094 16.7037 45.2639 16.7037C47.6749 16.7037 50.0868 17.2992 51.799 18.665L50.4271 22.1697C48.8518 21.1567 46.906 20.4504 45.0539 20.4504C43.7958 20.4504 42.9567 21.0454 42.9567 21.8163C42.9918 24.3024 52.2887 22.9366 52.3935 28.995C52.3935 32.2866 49.5971 34.5978 45.6128 34.5978C42.6775 34.5978 39.9864 33.8976 37.9238 32.4265H37.9243ZM96.3824 27.7524C96.0118 28.4109 95.4727 28.9589 94.8205 29.3403C94.1682 29.7217 93.4263 29.9227 92.6707 29.9228C90.3159 29.9228 88.4072 28.0101 88.4072 25.6508C88.4072 23.2914 90.3159 21.3787 92.6707 21.3787C93.4263 21.3788 94.1682 21.5798 94.8205 21.9612C95.4727 22.3426 96.0118 22.8906 96.3824 23.5491L100.464 21.2835C98.9352 18.5513 96.019 16.7037 92.6707 16.7037C87.7391 16.7037 83.7412 20.7091 83.7412 25.6508C83.7412 30.5919 87.7391 34.5978 92.6707 34.5978C96.019 34.5978 98.9352 32.7502 100.464 30.018L96.3824 27.7524ZM55.042 34.2474H60.1446V9.25586H55.0425L55.042 34.2474ZM103.041 9.25586V34.2474H108.143V26.76L114.19 34.2474H120.712L113.023 25.3525L120.152 17.0526H113.91L108.143 23.9531V9.25586H103.041ZM75.8648 17.0536V19.0851C75.0262 17.6841 72.9642 16.7037 70.7973 16.7037C66.3238 16.7037 62.7941 20.661 62.7941 25.6332C62.7941 30.6055 66.3238 34.5978 70.7973 34.5978C72.9642 34.5978 75.0262 33.6174 75.8648 32.2164V34.2474H80.9674V17.0536H75.8648ZM75.8648 27.787C75.131 29.0125 73.5932 29.9223 71.881 29.9223C69.5257 29.9223 67.617 28.0101 67.617 25.6508C67.617 23.2914 69.5257 21.3787 71.881 21.3787C73.5932 21.3787 75.131 22.3241 75.8648 23.5842V27.787Z" fill="black"/>
<path d="M10.978 8.70361C9.32448 8.70361 7.98417 10.0469 7.98417 11.7035C7.98378 12.0971 8.0609 12.4868 8.21115 12.8506C8.36139 13.2143 8.5818 13.5449 8.85981 13.8235C9.13782 14.1021 9.46797 14.3231 9.83142 14.4741C10.1949 14.6251 10.5845 14.703 10.978 14.7034H13.9724V11.7035C13.9731 10.9086 13.658 10.1461 13.0965 9.58348C12.5349 9.0209 11.7729 8.70441 10.978 8.70361V8.70361ZM10.978 16.7033H2.99388C1.3403 16.7033 0 18.0466 0 19.7037C0 21.3603 1.3403 22.7036 2.99388 22.7036H10.9786C12.6316 22.7036 13.9724 21.3603 13.9724 19.7037C13.9724 18.0466 12.6316 16.7033 10.978 16.7033" fill="#36C5F0"/>
<path d="M29.9412 19.7037C29.9412 18.0466 28.6004 16.7033 26.9468 16.7033C25.2932 16.7033 23.9529 18.0466 23.9529 19.7037V22.7036H26.9468C27.7417 22.7028 28.5037 22.3863 29.0652 21.8237C29.6268 21.2612 29.9418 20.4986 29.9412 19.7037V19.7037ZM21.957 19.7037V11.7035C21.9577 10.9086 21.6426 10.1461 21.081 9.58348C20.5195 9.0209 19.7575 8.70441 18.9626 8.70361C17.3091 8.70361 15.9688 10.0469 15.9688 11.7035V19.7032C15.9688 21.3608 17.3091 22.7041 18.9626 22.7041C19.7575 22.7033 20.5195 22.3868 21.081 21.8242C21.6426 21.2617 21.9577 20.4991 21.957 19.7042" fill="#2EB67D"/>
<path d="M18.9626 38.7036C19.7575 38.7028 20.5195 38.3863 21.081 37.8237C21.6426 37.2612 21.9577 36.4986 21.957 35.7037C21.9577 34.9088 21.6426 34.1463 21.081 33.5837C20.5195 33.0211 19.7575 32.7046 18.9626 32.7038H15.9688V35.7037C15.9688 37.3603 17.3091 38.7036 18.9626 38.7036ZM18.9626 30.7039H26.9473C28.6004 30.7039 29.9412 29.3606 29.9412 27.7035C29.9418 26.9086 29.6268 26.1461 29.0652 25.5835C28.5037 25.0209 27.7417 24.7044 26.9468 24.7036H18.9626C17.3091 24.7036 15.9688 26.0469 15.9688 27.7035C15.9684 28.0971 16.0455 28.4868 16.1957 28.8506C16.346 29.2143 16.5664 29.5449 16.8444 29.8235C17.1224 30.1021 17.4526 30.3231 17.816 30.4741C18.1794 30.6251 18.5691 30.703 18.9626 30.7034" fill="#ECB22E"/>
<path d="M1.51064e-06 27.7035C-0.000393626 28.0971 0.0767319 28.4868 0.226974 28.8506C0.377217 29.2143 0.597634 29.5449 0.875642 29.8235C1.15365 30.1021 1.4838 30.3231 1.84725 30.4741C2.2107 30.6251 2.60032 30.703 2.99388 30.7034C3.78875 30.7026 4.55075 30.3861 5.11229 29.8235C5.67383 29.261 5.98892 28.4984 5.98826 27.7035V24.7036H2.99388C1.3403 24.7036 1.51064e-06 26.0469 1.51064e-06 27.7035V27.7035ZM7.98417 27.7035V35.7032C7.98417 37.3603 9.32448 38.7036 10.9781 38.7036C11.7729 38.7028 12.5349 38.3863 13.0965 37.8237C13.658 37.2612 13.9731 36.4986 13.9724 35.7037V27.7035C13.9728 27.3099 13.8957 26.9201 13.7454 26.5563C13.5951 26.1925 13.3747 25.8619 13.0966 25.5833C12.8186 25.3048 12.4883 25.0837 12.1248 24.9327C11.7613 24.7818 11.3716 24.7039 10.9781 24.7036C9.32448 24.7036 7.98417 26.0469 7.98417 27.7035Z" fill="#E01E5A"/>
</svg>
