<svg width="157" height="48" viewBox="0 0 157 48" fill="none" xmlns="http://www.w3.org/2000/svg">
<path d="M50.0372 35.0485L51.8968 30.702C53.9329 32.2098 56.5887 33.0079 59.245 33.0079C61.1929 33.0079 62.4322 32.2543 62.4322 31.1013C62.3879 27.9078 50.7013 30.3915 50.6124 22.3627C50.568 18.2821 54.1983 15.1331 59.334 15.1331C62.3879 15.1331 65.4429 15.8874 67.6117 17.6174L65.874 22.0566C63.8786 20.7735 61.4139 19.8789 59.068 19.8789C57.4744 19.8789 56.4115 20.6325 56.4115 21.609C56.456 24.758 68.232 23.028 68.3647 30.702C68.3647 34.8713 64.8226 37.7988 59.7759 37.7988C56.0579 37.7988 52.6498 36.9119 50.0372 35.0485ZM124.084 29.128C123.614 29.9621 122.931 30.6562 122.105 31.1393C121.279 31.6224 120.339 31.877 119.382 31.8772C116.399 31.8772 113.982 29.4544 113.982 26.466C113.982 23.4774 116.399 21.0547 119.382 21.0547C120.339 21.0548 121.279 21.3094 122.105 21.7925C122.931 22.2756 123.614 22.9698 124.084 23.8039L129.254 20.9341C127.317 17.4734 123.623 15.1331 119.382 15.1331C113.136 15.1331 108.072 20.2066 108.072 26.466C108.072 32.7247 113.136 37.7988 119.382 37.7988C123.623 37.7988 127.317 35.4585 129.254 31.9978L124.084 29.128ZM71.7195 37.355H78.1827V5.69922H71.7201L71.7195 37.355ZM132.518 5.69922V37.355H138.98V27.871L146.64 37.355H154.901L145.162 26.0882L154.192 15.575H146.285L138.98 24.3156V5.69922H132.518ZM98.0948 15.5763V18.1495C97.0326 16.3749 94.4208 15.1331 91.676 15.1331C86.0097 15.1331 81.5387 20.1456 81.5387 26.4437C81.5387 32.7419 86.0097 37.7988 91.676 37.7988C94.4208 37.7988 97.0326 36.557 98.0948 34.7824V37.355H104.558V15.5763H98.0948ZM98.0948 29.1718C97.1654 30.7241 95.2175 31.8765 93.0487 31.8765C90.0654 31.8765 87.6477 29.4544 87.6477 26.466C87.6477 23.4774 90.0654 21.0547 93.0487 21.0547C95.2175 21.0547 97.1654 22.2522 98.0948 23.8483V29.1718Z" fill="black"/>
<path d="M15.9054 5C13.8109 5 12.1132 6.70149 12.1132 8.79983C12.1127 9.29839 12.2104 9.79201 12.4007 10.2528C12.591 10.7135 12.8702 11.1323 13.2224 11.4851C13.5745 11.838 13.9927 12.118 14.453 12.3092C14.9135 12.5005 15.4069 12.5992 15.9054 12.5997H19.6983V8.79983C19.6991 7.79297 19.3 6.82714 18.5888 6.11449C17.8774 5.4019 16.9122 5.00101 15.9054 5ZM15.9054 15.1329H5.79222C3.6977 15.1329 2 16.8344 2 18.9334C2 21.0317 3.6977 22.7332 5.79222 22.7332H15.9061C17.9999 22.7332 19.6983 21.0317 19.6983 18.9334C19.6983 16.8344 17.9999 15.1329 15.9054 15.1329Z" fill="#36C5F0"/>
<path d="M39.9252 18.9334C39.9252 16.8344 38.2268 15.1329 36.1323 15.1329C34.0378 15.1329 32.3401 16.8344 32.3401 18.9334V22.7332H36.1323C37.1392 22.7322 38.1044 22.3313 38.8156 21.6187C39.5269 20.9062 39.9259 19.9402 39.9252 18.9334ZM29.8119 18.9334V8.79983C29.8128 7.79297 29.4137 6.82714 28.7023 6.11449C27.9911 5.4019 27.0259 5.00101 26.0191 5C23.9246 5 22.2269 6.70149 22.2269 8.79983V18.9327C22.2269 21.0323 23.9246 22.7338 26.0191 22.7338C27.0259 22.7328 27.9911 22.3319 28.7023 21.6193C29.4137 20.9068 29.8128 19.9402 29.8119 18.9334Z" fill="#2EB67D"/>
<path d="M26.0191 42.9998C27.0259 42.9988 27.9911 42.5979 28.7023 41.8853C29.4137 41.1728 29.8128 40.2068 29.8119 39.2C29.8128 38.1931 29.4137 37.2273 28.7023 36.5146C27.9911 35.802 27.0259 35.4011 26.0191 35.4001H22.2269V39.2C22.2269 41.2983 23.9246 42.9998 26.0191 42.9998ZM26.0191 32.8669H36.1329C38.2269 32.8669 39.9252 31.1654 39.9252 29.0665C39.9259 28.0596 39.527 27.0938 38.8156 26.3811C38.1044 25.6685 37.1392 25.2676 36.1323 25.2666H26.0191C23.9246 25.2666 22.2269 26.9681 22.2269 29.0665C22.2264 29.565 22.3241 30.0586 22.5143 30.5194C22.7047 30.9801 22.9839 31.3989 23.336 31.7518C23.6881 32.1047 24.1064 32.3846 24.5667 32.5759C25.027 32.7671 25.5206 32.8664 26.0191 32.8669Z" fill="#ECB22E"/>
<path d="M2 29.0665C1.9995 29.565 2.09719 30.0586 2.2875 30.5194C2.4778 30.9801 2.757 31.3989 3.10914 31.7518C3.46128 32.1047 3.87947 32.3846 4.33983 32.5759C4.8002 32.7671 5.29372 32.8658 5.79222 32.8663C6.79905 32.8653 7.76424 32.4644 8.47552 31.7518C9.1868 31.0393 9.58591 30.0733 9.58508 29.0665V25.2666H5.79222C3.6977 25.2666 2 26.9681 2 29.0665ZM12.1132 29.0665V39.1993C12.1132 41.2983 13.8109 42.9998 15.9055 42.9998C16.9122 42.9988 17.8774 42.5979 18.5888 41.8853C19.3 41.1728 19.6991 40.2068 19.6983 39.2V29.0665C19.6988 28.5679 19.6011 28.0741 19.4107 27.6133C19.2203 27.1525 18.9412 26.7338 18.5889 26.3809C18.2368 26.0281 17.8184 25.7481 17.358 25.5568C16.8975 25.3657 16.4039 25.267 15.9055 25.2666C13.8109 25.2666 12.1132 26.9681 12.1132 29.0665Z" fill="#E01E5A"/>
</svg>
