<svg width="210" height="48" viewBox="0 0 210 48" fill="none" xmlns="http://www.w3.org/2000/svg">
<g clip-path="url(#clip0_257_949)">
<path d="M20.7399 41.9421C18.7927 42.2898 16.915 41.038 16.5673 39.0908L11.282 10.2305C10.9343 8.28329 12.1861 6.40563 14.1333 6.05791C16.0805 5.7102 17.9582 6.96197 18.3059 8.90917L23.5911 37.7695C23.9389 39.7167 22.6175 41.5944 20.7399 41.9421Z" fill="#FF5543"/>
<path d="M6.90093 37.0049C5.64916 37.2135 4.39738 36.7962 3.49332 35.8226C2.24155 34.2927 2.38064 32.0673 3.91058 30.8155L26.2339 11.8303C27.7638 10.5785 29.9892 10.7176 31.241 12.2476C32.4928 13.7775 32.3537 16.0029 30.8237 17.2547L8.56996 36.2399C8.08316 36.6571 7.45727 36.9353 6.90093 37.0049Z" fill="#A112FF"/>
<path d="M31.8668 32.4146C31.241 32.5537 30.6151 32.4842 30.0587 32.2755L2.38062 22.47C0.50296 21.7745 -0.470642 19.7578 0.224788 17.8801C0.920217 16.0025 2.93696 15.0289 4.81462 15.7243L32.4232 25.5299C34.3008 26.2253 35.2745 28.242 34.579 30.1197C34.1618 31.3715 33.0491 32.206 31.8668 32.4146Z" fill="#00CBEC"/>
<path d="M54.9551 28.9374C54.9551 28.242 54.6769 27.6857 54.1901 27.2684C53.7033 26.8512 53.0774 26.4339 52.3125 26.0862C51.5475 25.7385 50.713 25.3908 49.8089 24.9735C48.9048 24.6258 48.0703 24.139 47.3054 23.5826C46.5404 23.0263 45.9145 22.3309 45.4277 21.4963C44.9409 20.6618 44.6627 19.6187 44.6627 18.3669C44.6627 17.2542 44.8714 16.2806 45.2191 15.5156C45.5668 14.6811 46.1231 14.0552 46.8186 13.4989C47.514 12.9426 48.279 12.5948 49.2526 12.3167C50.1566 12.0385 51.1998 11.8994 52.382 11.8994C53.7033 11.8994 54.9551 12.0385 56.0678 12.2471C57.1805 12.4558 58.2236 12.8035 58.919 13.2207L57.5282 16.9065C57.0414 16.6283 56.3459 16.3502 55.3723 16.1415C54.3987 15.8634 53.4251 15.7938 52.3125 15.7938C51.2693 15.7938 50.5043 16.0024 49.948 16.4197C49.3917 16.837 49.1135 17.3933 49.1135 18.0887C49.1135 18.7146 49.3916 19.271 49.8784 19.6882C50.3652 20.1055 50.9911 20.5227 51.7561 20.8705C52.5211 21.2182 53.3556 21.6354 54.2597 21.9831C55.1637 22.4004 55.9982 22.8177 56.7632 23.374C57.5282 23.9303 58.1541 24.6258 58.6409 25.3908C59.1277 26.2253 59.4058 27.1989 59.4058 28.3811C59.4058 29.5633 59.1972 30.6065 58.78 31.5105C58.3627 32.4146 57.8064 33.11 57.1109 33.6664C56.4155 34.2227 55.5114 34.7095 54.4683 34.9877C53.4251 35.2659 52.3125 35.4049 51.0607 35.4049C49.4612 35.4049 48.0008 35.2659 46.8186 34.9181C45.5668 34.64 44.6627 34.2923 44.1064 34.0141L45.4972 30.2588C45.7059 30.3978 46.0536 30.5369 46.4013 30.676C46.749 30.8151 47.2358 30.9542 47.6531 31.0933C48.1399 31.2324 48.6267 31.3019 49.183 31.441C49.7394 31.5105 50.2262 31.5801 50.7825 31.5801C52.1038 31.5801 53.0774 31.3714 53.7729 30.8846C54.6074 30.4674 54.9551 29.8415 54.9551 28.9374ZM61.2835 26.9207C61.2835 24.2085 61.9789 22.0527 63.3002 20.5923C64.6216 19.1319 66.4992 18.3669 68.9332 18.3669C70.2545 18.3669 71.3672 18.5755 72.2713 18.9928C73.2449 19.4101 74.0099 19.9664 74.6358 20.7314C75.2616 21.4963 75.7484 22.4004 76.0266 23.4435C76.3048 24.4867 76.5134 25.6689 76.5134 26.9207C76.5134 29.6329 75.818 31.7887 74.4967 33.2491C73.1754 34.7095 71.2977 35.4745 68.8637 35.4745C67.5424 35.4745 66.4297 35.2659 65.5256 34.8486C64.552 34.4313 63.7871 33.875 63.1612 33.11C62.5353 32.345 62.0485 31.441 61.7703 30.3978C61.4226 29.3547 61.2835 28.1725 61.2835 26.9207ZM65.5952 26.9207C65.5952 27.6161 65.6647 28.3116 65.8038 28.8679C65.9429 29.4938 66.1515 29.9806 66.3601 30.4674C66.6383 30.9542 66.986 31.3019 67.4033 31.5105C67.8205 31.7887 68.3073 31.8582 68.9332 31.8582C70.0459 31.8582 70.8804 31.441 71.3672 30.676C71.9236 29.911 72.2018 28.5897 72.2018 26.9207C72.2018 25.4603 71.9236 24.2085 71.4368 23.3045C70.95 22.4004 70.1155 21.9136 68.9332 21.9136C67.8901 21.9136 67.0556 22.3309 66.4992 23.0958C65.8733 23.8608 65.5952 25.1126 65.5952 26.9207ZM82.8418 18.8537V28.0334C82.8418 29.3547 82.9809 30.3283 83.3286 30.8846C83.6068 31.441 84.2327 31.7887 85.1367 31.7887C85.9017 31.7887 86.5971 31.5801 87.1535 31.0933C87.7098 30.6065 88.0576 30.0501 88.3357 29.3547V18.9233H92.5083V30.1892C92.5083 31.0933 92.5778 31.9278 92.6474 32.7623C92.7169 33.5968 92.856 34.3618 93.0646 35.0572H89.8657L89.1007 32.6928H88.9616C88.4748 33.5273 87.7794 34.2227 86.8753 34.7095C85.9713 35.2659 84.9281 35.544 83.7459 35.544C82.9114 35.544 82.2159 35.4049 81.5205 35.1963C80.8946 34.9877 80.3383 34.64 79.921 34.1532C79.5038 33.6664 79.156 32.9709 78.9474 32.1364C78.7388 31.3019 78.5997 30.1892 78.5997 28.8679V18.8537H82.8418ZM104.678 22.7481C103.983 22.5395 103.427 22.4004 102.87 22.4004C102.105 22.4004 101.479 22.609 100.993 23.0263C100.506 23.4435 100.158 23.9303 99.9494 24.5562V34.9877H95.7768V18.8537H99.0453L99.5321 21.0095H99.6712C100.019 20.2446 100.506 19.6187 101.132 19.1319C101.758 18.6451 102.522 18.506 103.357 18.506C103.913 18.506 105.096 18.7842 105.721 19.0623L104.678 22.7481ZM118.309 34.0141C117.683 34.5009 116.848 34.8486 115.944 35.1268C115.04 35.4049 114.067 35.4745 113.093 35.4745C111.772 35.4745 110.729 35.2659 109.825 34.8486C108.92 34.4313 108.225 33.875 107.669 33.11C107.112 32.345 106.695 31.441 106.486 30.3978C106.208 29.3547 106.139 28.1725 106.139 26.9207C106.139 24.2085 106.765 22.0527 108.016 20.5923C109.268 19.1319 111.007 18.3669 113.371 18.3669C114.553 18.3669 115.527 18.4365 116.222 18.6451C116.918 18.8537 117.613 19.0623 118.17 19.4101L117.196 22.8177C116.709 22.609 116.222 22.4004 115.736 22.2613C115.249 22.1222 114.693 22.0527 114.067 22.0527C112.884 22.0527 112.05 22.4699 111.424 23.2349C110.798 23.9999 110.52 25.2517 110.52 26.9207C110.52 27.6161 110.589 28.242 110.729 28.7984C110.868 29.3547 111.076 29.911 111.424 30.3283C111.702 30.7456 112.119 31.0933 112.606 31.3714C113.093 31.6496 113.649 31.7192 114.275 31.7192C114.971 31.7192 115.597 31.6496 116.083 31.441C116.57 31.2324 116.987 31.0237 117.405 30.7456L118.309 34.0141ZM133.121 33.5968C132.496 34.0836 131.591 34.5704 130.479 34.9181C129.366 35.2659 128.184 35.4745 126.932 35.4745C124.289 35.4745 122.412 34.7095 121.23 33.1796C120.047 31.6496 119.421 29.5633 119.421 26.9207C119.421 24.0694 120.117 21.9136 121.438 20.5227C122.76 19.1319 124.707 18.3669 127.141 18.3669C127.975 18.3669 128.74 18.506 129.505 18.7146C130.27 18.9233 130.966 19.271 131.591 19.7578C132.217 20.2446 132.704 20.94 133.052 21.7745C133.4 22.609 133.608 23.6522 133.608 24.904C133.608 25.3908 133.608 25.808 133.539 26.3644C133.469 26.8512 133.4 27.4075 133.33 27.9638H123.594C123.664 29.3547 124.011 30.3283 124.637 31.0237C125.263 31.7192 126.306 32.0669 127.697 32.0669C128.601 32.0669 129.366 31.9278 130.062 31.6496C130.757 31.3714 131.313 31.0933 131.661 30.8151L133.121 33.5968ZM127.071 21.705C125.958 21.705 125.124 22.0527 124.637 22.6786C124.081 23.3045 123.803 24.2085 123.664 25.3212H129.644C129.714 24.139 129.575 23.2349 129.088 22.609C128.74 22.0527 128.045 21.705 127.071 21.705ZM149.951 34.9877C149.951 37.3521 149.325 39.0907 148.073 40.2034C146.821 41.3161 145.013 41.8724 142.718 41.8724C141.188 41.8724 139.937 41.7334 139.033 41.5247C138.129 41.3161 137.433 41.1075 137.016 40.8293L137.92 37.4912C138.407 37.6999 138.963 37.9085 139.658 38.0476C140.354 38.1867 141.119 38.3257 142.092 38.3257C143.553 38.3257 144.526 37.978 145.083 37.3521C145.639 36.7263 145.848 35.8222 145.848 34.7095V33.7359H145.709C144.944 34.7791 143.622 35.2659 141.675 35.2659C139.589 35.2659 138.059 34.64 137.016 33.3187C135.973 31.9973 135.486 29.9806 135.486 27.2684C135.486 24.3476 136.181 22.1918 137.572 20.7314C138.963 19.271 140.98 18.506 143.553 18.506C144.944 18.506 146.195 18.5755 147.239 18.7842C148.282 18.9928 149.186 19.2014 149.881 19.4796V34.9877H149.951ZM142.857 31.8582C143.692 31.8582 144.318 31.6496 144.735 31.3019C145.152 30.9542 145.5 30.3978 145.778 29.6329V22.4004C145.083 22.1222 144.248 21.9831 143.275 21.9831C142.162 21.9831 141.327 22.4004 140.771 23.1654C140.145 23.9999 139.867 25.2517 139.867 27.0598C139.867 28.6593 140.145 29.8415 140.632 30.676C141.119 31.5105 141.884 31.8582 142.857 31.8582ZM162.121 22.7481C161.425 22.5395 160.869 22.4004 160.313 22.4004C159.548 22.4004 158.922 22.609 158.435 23.0263C157.948 23.4435 157.601 23.9303 157.392 24.5562V34.9877H153.219V18.8537H156.488L156.975 21.0095H157.114C157.461 20.2446 157.948 19.6187 158.574 19.1319C159.2 18.6451 159.965 18.506 160.8 18.506C161.356 18.506 161.982 18.6451 162.677 18.8537L162.121 22.7481ZM164.138 19.6187C164.972 19.2014 165.598 19.0623 166.78 18.8537C167.962 18.6451 169.214 18.506 170.466 18.506C171.579 18.506 172.552 18.6451 173.248 18.9233C173.943 19.2014 174.569 19.5491 175.056 20.1055C175.473 20.5923 175.821 21.2182 175.96 21.9136C176.169 22.609 176.238 23.374 176.238 24.2085C176.238 25.1821 176.238 26.0862 176.169 27.0598C176.099 28.0334 176.099 28.9374 176.029 29.911C176.029 30.8151 176.029 31.7192 176.099 32.6232C176.169 33.5273 176.308 34.2923 176.586 35.1268H173.178L172.483 32.9014C172.065 33.5968 171.44 34.1532 170.675 34.64C169.91 35.1268 168.936 35.3354 167.684 35.3354C166.919 35.3354 166.224 35.1963 165.668 34.9877C165.042 34.7791 164.555 34.4313 164.138 34.0141C163.72 33.5968 163.373 33.11 163.164 32.5537C162.955 31.9973 162.816 31.3714 162.816 30.6065C162.816 29.6329 163.025 28.7984 163.512 28.1029C163.999 27.4075 164.555 26.8512 165.389 26.4339C166.224 26.0166 167.197 25.7385 168.38 25.5298C169.562 25.3212 170.814 25.3212 172.274 25.3908C172.413 24.2085 172.344 23.3045 171.996 22.8177C171.648 22.2613 170.953 22.0527 169.84 22.0527C169.006 22.0527 168.102 22.1222 167.197 22.3309C166.293 22.5395 165.876 22.609 165.32 22.8872L164.138 19.6187ZM169.075 31.7887C169.91 31.7887 170.605 31.5801 171.092 31.2324C171.579 30.8846 171.926 30.4674 172.205 30.0501V27.9638C171.509 27.8943 170.883 27.8943 170.257 27.9638C169.631 28.0334 169.075 28.1029 168.658 28.242C168.241 28.3811 167.823 28.5897 167.545 28.8679C167.267 29.1461 167.128 29.4938 167.128 29.911C167.128 30.5369 167.337 30.9542 167.684 31.3019C167.962 31.6496 168.449 31.7887 169.075 31.7887ZM179.507 18.8537H182.566L183.053 20.8009H183.192C183.749 19.9664 184.444 19.4101 185.209 18.9928C185.974 18.5755 186.878 18.4365 187.991 18.4365C190.008 18.4365 191.538 19.0623 192.581 20.3837C193.624 21.705 194.111 23.7217 194.111 26.573C194.111 27.9638 193.972 29.2156 193.624 30.3283C193.276 31.441 192.789 32.4146 192.163 33.1796C191.538 33.9445 190.773 34.5704 189.868 34.9877C188.964 35.4049 187.921 35.6136 186.739 35.6136C186.044 35.6136 185.487 35.544 185.07 35.4745C184.653 35.4049 184.236 35.1963 183.749 34.9877V41.5943H179.576V18.8537H179.507ZM186.67 21.9136C185.835 21.9136 185.209 22.1222 184.722 22.5395C184.236 22.9567 183.888 23.5826 183.61 24.4172V31.1628C183.888 31.3714 184.236 31.5801 184.583 31.7192C184.931 31.8582 185.418 31.9278 185.974 31.9278C187.156 31.9278 188.06 31.5105 188.686 30.676C189.312 29.8415 189.59 28.4506 189.59 26.4339C189.59 25.043 189.382 23.9303 188.895 23.1654C188.478 22.3309 187.713 21.9136 186.67 21.9136ZM206.281 34.9877V25.808C206.281 24.4867 206.072 23.5131 205.724 22.9567C205.377 22.4004 204.681 22.0527 203.708 22.0527C203.012 22.0527 202.317 22.2613 201.76 22.7481C201.134 23.2349 200.787 23.8608 200.578 24.6258V34.9181H196.406V12.3862H200.578V20.6618H200.717C201.204 19.9664 201.899 19.4101 202.595 18.9928C203.36 18.5755 204.333 18.3669 205.446 18.3669C206.281 18.3669 206.976 18.506 207.602 18.7146C208.228 18.9233 208.784 19.271 209.201 19.7578C209.619 20.2446 209.966 20.94 210.106 21.7745C210.245 22.609 210.384 23.6522 210.384 24.904V34.9877H206.281Z" fill="black"/>
</g>
<defs>
<clipPath id="clip0_257_949">
<rect width="210" height="48" fill="white"/>
</clipPath>
</defs>
</svg>
