<svg width="113" height="48" viewBox="0 0 113 48" fill="none" xmlns="http://www.w3.org/2000/svg">
<path fill-rule="evenodd" clip-rule="evenodd" d="M102.347 25.0102C102.347 18.5163 99.2013 13.3921 93.1894 13.3921C87.1521 13.3921 83.4993 18.5163 83.4993 24.9594C83.4993 32.5949 87.8115 36.4506 94.0011 36.4506C97.0198 36.4506 99.3028 35.7657 101.028 34.8018V29.7284C99.3028 30.5909 97.3241 31.1237 94.8128 31.1237C92.3523 31.1237 90.1707 30.2612 89.8916 27.2678H102.296C102.296 26.9381 102.347 25.619 102.347 25.0102ZM89.8156 22.6003C89.8156 19.7339 91.5659 18.5416 93.164 18.5416C94.7114 18.5416 96.3602 19.7339 96.3602 22.6003H89.8156Z" fill="#635BFF"/>
<path fill-rule="evenodd" clip-rule="evenodd" d="M73.7075 13.3921C71.2215 13.3921 69.6233 14.559 68.7355 15.3707L68.4057 13.798H62.8251V43.3758L69.1668 42.0314L69.1921 34.8526C70.1053 35.512 71.4497 36.4506 73.682 36.4506C78.2228 36.4506 82.3576 32.7978 82.3576 24.7565C82.3321 17.4001 78.1467 13.3921 73.7075 13.3921ZM72.1854 30.8699C70.6888 30.8699 69.8009 30.3372 69.1921 29.6777L69.1668 20.2666C69.8263 19.5309 70.7395 19.0235 72.1854 19.0235C74.4939 19.0235 76.0919 21.611 76.0919 24.9341C76.0919 28.3332 74.5192 30.8699 72.1854 30.8699Z" fill="#635BFF"/>
<path fill-rule="evenodd" clip-rule="evenodd" d="M54.0989 11.8953L60.4659 10.5255V5.37598L54.0989 6.72043V11.8953Z" fill="#635BFF"/>
<path d="M60.4659 13.8232H54.0989V36.0193H60.4659V13.8232Z" fill="#635BFF"/>
<path fill-rule="evenodd" clip-rule="evenodd" d="M47.2748 15.7L46.869 13.8228H41.3896V36.0188H47.7314V20.9763C49.2281 19.023 51.7647 19.3781 52.5512 19.6571V13.8228C51.7394 13.5183 48.7715 12.9603 47.2748 15.7Z" fill="#635BFF"/>
<path fill-rule="evenodd" clip-rule="evenodd" d="M34.5914 8.31787L28.4019 9.63692L28.3766 29.9558C28.3766 33.7102 31.1922 36.4752 34.9466 36.4752C37.0267 36.4752 38.5486 36.0946 39.3858 35.638V30.4885C38.5741 30.8183 34.566 31.9852 34.566 28.2308V19.2256H39.3858V13.8225H34.566L34.5914 8.31787Z" fill="#635BFF"/>
<path fill-rule="evenodd" clip-rule="evenodd" d="M17.4437 20.2666C17.4437 19.2773 18.2554 18.8967 19.5999 18.8967C21.5278 18.8967 23.963 19.4802 25.8909 20.5203V14.559C23.7855 13.7219 21.7053 13.3921 19.5999 13.3921C14.4504 13.3921 11.0259 16.0811 11.0259 20.571C11.0259 27.5723 20.6653 26.4561 20.6653 29.4748C20.6653 30.6416 19.6506 31.0221 18.2301 31.0221C16.1246 31.0221 13.4357 30.1596 11.3049 28.9928V35.0301C13.664 36.0447 16.0485 36.4761 18.2301 36.4761C23.5064 36.4761 27.1338 33.8632 27.1338 29.3226C27.1085 21.7632 17.4437 23.1077 17.4437 20.2666Z" fill="#635BFF"/>
</svg>
