<svg width="176" height="48" viewBox="0 0 176 48" fill="none" xmlns="http://www.w3.org/2000/svg">
<path fill-rule="evenodd" clip-rule="evenodd" d="M69.0952 9H69.1065C69.1178 12.4737 69.1065 15.9474 69.1065 19.4211C70.02 18.3835 71.2493 17.6391 72.5802 17.3233C73.3584 17.1203 74.1478 17.109 74.9373 17.1316C76.4373 17.1992 77.9035 17.718 79.1215 18.5977C80.7117 19.7594 81.8057 21.5188 82.3584 23.391C82.8659 25.0376 83.0012 26.7632 82.9787 28.4662C82.9335 30.6429 82.6065 32.8759 81.5802 34.8271C80.7456 36.4399 79.3584 37.7932 77.6553 38.4474C76.7305 38.8083 75.7381 38.9662 74.7568 39H74.2155C72.2982 38.9323 70.4486 38.0865 69.1065 36.7218C69.1065 37.3158 69.1065 37.9098 69.1065 38.5038C67.9185 38.5038 66.7343 38.5038 65.5538 38.5038C65.5538 29.3308 65.5538 20.1579 65.5538 10.985C66.7381 10.3195 67.9223 9.66541 69.0952 9ZM72.9298 20.4925C71.3621 20.797 69.9523 21.812 69.1178 23.1654C69.1065 26.4023 69.1065 29.6391 69.1178 32.8647C70.0764 34.5677 71.9937 35.6955 73.9561 35.6955C75.3546 35.7744 76.7644 35.1541 77.6666 34.0827C78.1854 33.4624 78.5576 32.718 78.8057 31.9511C79.223 30.7105 79.3358 29.391 79.3584 28.094C79.3471 26.6165 79.2117 25.1165 78.6929 23.718C78.3095 22.7143 77.6892 21.7669 76.7869 21.1692C75.6591 20.4361 74.2381 20.2669 72.9298 20.4925Z" fill="#58595B"/>
<path d="M109.99 9C109.99 11.8722 109.99 14.7481 109.99 17.6278C111.704 17.6278 113.418 17.6278 115.133 17.6278C115.133 18.6654 115.133 19.703 115.133 20.7293C113.418 20.7293 111.704 20.7293 109.99 20.7293C109.99 24.9023 109.99 29.0752 109.99 33.2481C110.012 33.8459 110.159 34.4323 110.441 34.9624C110.712 35.4023 111.219 35.6053 111.704 35.6617C112.561 35.7632 113.407 35.5489 114.174 35.188C114.497 36.1353 114.821 37.0827 115.144 38.0301C113.926 38.6278 112.584 38.9436 111.231 39H110.599C109.46 38.9662 108.242 38.6165 107.497 37.703C106.595 36.609 106.415 35.1316 106.437 33.7782C106.437 29.4323 106.437 25.0827 106.437 20.7293C105.309 20.7293 104.182 20.7293 103.054 20.7293C103.054 19.6992 103.054 18.6654 103.054 17.6278C104.182 17.6278 105.309 17.6278 106.437 17.6278C106.449 15.4173 106.437 13.2068 106.437 10.9962C107.622 10.3195 108.806 9.66541 109.99 9Z" fill="#58595B"/>
<path d="M158.249 11.1316C159.434 10.4662 160.618 9.80075 161.802 9.13534C161.802 14.3571 161.802 19.5902 161.813 24.8233C163.934 22.5451 166.088 20.2782 168.219 18.0113C168.343 17.8759 168.445 17.7293 168.603 17.6278C170.001 17.6278 171.411 17.6278 172.809 17.6278C170.994 19.5226 169.178 21.4173 167.351 23.3008C169.967 28.3647 172.573 33.4399 175.189 38.5038C173.896 38.5038 172.603 38.5038 171.309 38.5038C169.159 34.3008 167.012 30.094 164.87 25.8835C163.84 26.9361 162.817 28 161.802 29.0752C161.802 32.218 161.802 35.3609 161.802 38.5038C160.622 38.5038 159.437 38.5038 158.249 38.5038C158.249 29.3797 158.249 20.2556 158.249 11.1316Z" fill="#58595B"/>
<path d="M29.8809 17.6053C31.5163 17.0639 33.2869 17.0075 34.9787 17.312C36.9411 17.6617 38.7456 18.7444 40.0087 20.2782C39.1967 20.9662 38.3734 21.6429 37.5614 22.3195C36.4223 21.0564 34.7305 20.312 33.0275 20.312C32.0689 20.2669 31.0877 20.4925 30.2757 21.0226C29.6328 21.4737 29.3621 22.3308 29.52 23.0865C29.6441 23.7406 30.1178 24.2707 30.6704 24.609C31.1215 24.8684 31.5839 25.1165 32.0463 25.3534C33.5125 26.0414 35.0802 26.4925 36.5238 27.2368C37.5726 27.8008 38.6215 28.4211 39.4335 29.3233C40.3358 30.3496 40.6741 31.7481 40.6741 33.0902C40.7418 34.7932 39.9298 36.4962 38.5651 37.5C37.1441 38.5714 35.3396 38.9549 33.5914 39H32.8809C30.1403 38.8872 27.411 37.6353 25.6854 35.4812C26.5313 34.7707 27.3659 34.0376 28.223 33.3158C28.8546 33.9925 29.5764 34.6128 30.3997 35.0526C31.7757 35.8083 33.4448 36.0226 34.9674 35.6278C35.6328 35.4248 36.332 35.1541 36.7606 34.5677C37.2907 33.8684 37.3245 32.8872 36.9523 32.109C36.7268 31.6128 36.2982 31.2406 35.9035 30.8797C35.1929 30.282 34.3245 29.9549 33.4787 29.6053C32.6666 29.2669 31.8433 28.985 31.0426 28.6241C29.9035 28.1165 28.7757 27.5188 27.817 26.718C26.8471 25.9286 26.1929 24.7782 26.0238 23.5489C25.8772 22.4323 25.9787 21.2368 26.5426 20.2331C27.2305 18.9474 28.5275 18.0902 29.8809 17.6053Z" fill="#58595B"/>
<path d="M91.5952 17.2218C93.332 17.0075 95.1478 17.1541 96.7719 17.8308C98.0576 18.3496 99.1854 19.218 100.076 20.2782C99.2531 20.9549 98.4411 21.6429 97.6177 22.3195C96.4786 21.0677 94.7982 20.312 93.0952 20.312C92.2042 20.2669 91.302 20.4586 90.5238 20.8985C90.0501 21.1692 89.6892 21.6429 89.5877 22.1729C89.4523 22.8045 89.5877 23.4925 90.005 23.9887C90.4223 24.5301 91.0764 24.8008 91.6629 25.1278C92.9711 25.8383 94.4147 26.2331 95.7681 26.8534C97.02 27.4286 98.238 28.1053 99.2418 29.0526C100.223 30.0338 100.685 31.4211 100.719 32.7857C100.776 33.6654 100.663 34.5564 100.302 35.3684C99.817 36.5188 98.8922 37.4436 97.7982 38.0301C96.535 38.7068 95.0914 38.9549 93.6704 39H92.9711C90.2192 38.8985 87.4674 37.6579 85.7418 35.4699C86.599 34.7594 87.4335 34.0376 88.2681 33.3158C89.4185 34.5677 90.9411 35.5714 92.6553 35.7632C93.7155 35.8872 94.8208 35.797 95.7907 35.3346C96.2756 35.1316 96.7155 34.7932 96.9749 34.3195C97.505 33.3947 97.2681 32.1429 96.5125 31.4098C95.9599 30.8233 95.2944 30.3496 94.5501 30.0338C93.0952 29.3684 91.5614 28.9173 90.1403 28.1729C89.1478 27.6654 88.1892 27.0677 87.3997 26.2895C86.4749 25.3195 85.9787 23.9774 86.0238 22.6353C85.9899 21.3835 86.4636 20.1203 87.332 19.2068C88.4599 18.0677 90.0162 17.4248 91.5952 17.2218Z" fill="#58595B"/>
<path fill-rule="evenodd" clip-rule="evenodd" d="M119.644 19.3308C121.855 17.8759 124.494 17.0977 127.144 17.1316C128.791 17.1316 130.505 17.391 131.903 18.3158C132.941 18.9925 133.685 20.0414 134.091 21.203C134.565 22.5338 134.633 23.9662 134.61 25.3647C134.621 29.7406 134.61 34.1278 134.621 38.5038C133.505 38.515 132.388 38.5038 131.272 38.5038C131.261 37.8722 131.272 37.2293 131.272 36.5865C129.794 38.0526 127.753 38.9211 125.678 39H124.866C124.099 38.9436 123.332 38.8534 122.599 38.6165C121.076 38.1541 119.689 37.1391 118.922 35.718C118.257 34.5 118.054 33.0902 118.088 31.7143C118.121 30.4511 118.415 29.1541 119.137 28.094C119.982 26.8421 121.324 26.0414 122.712 25.5451C124.121 25.0376 125.644 24.9812 127.133 25.1165C128.576 25.2632 129.997 25.6917 131.272 26.4135C131.249 25.3872 131.328 24.3383 131.125 23.312C131.001 22.6917 130.787 22.0827 130.392 21.5865C129.918 21 129.219 20.6391 128.509 20.4474C127.392 20.1541 126.219 20.1992 125.091 20.391C123.49 20.6729 121.956 21.3383 120.648 22.3195C120.321 21.3271 119.971 20.3346 119.644 19.3308ZM122.757 29.1541C122.012 29.7068 121.516 30.5752 121.437 31.5C121.403 32.1316 121.415 32.7744 121.652 33.3609C121.956 34.2293 122.61 34.9737 123.445 35.3571C123.907 35.6053 124.426 35.718 124.945 35.797C126.005 35.9323 127.11 35.8421 128.114 35.4474C129.355 34.9737 130.437 34.1278 131.261 33.1015C131.272 31.906 131.261 30.7105 131.272 29.5263C129.817 28.6015 128.103 28.1165 126.388 28.1278C125.114 28.0714 123.806 28.4211 122.757 29.1541Z" fill="#58595B"/>
<path d="M143.644 17.7857C145.065 17.188 146.644 17.0526 148.178 17.1767C149.509 17.2895 150.851 17.6842 151.956 18.485C153.152 19.3421 153.986 20.6165 154.46 22.0038C153.343 22.4098 152.238 22.8158 151.121 23.2218C150.772 22.2857 150.163 21.4173 149.272 20.9323C148.482 20.4925 147.546 20.391 146.655 20.4699C145.809 20.5376 144.975 20.8195 144.309 21.3271C143.418 22.015 142.866 23.0414 142.516 24.0789C142.02 25.6579 141.941 27.3271 141.997 28.9624C142.076 30.5977 142.381 32.2782 143.283 33.6654C143.994 34.7932 145.257 35.5602 146.588 35.6391C147.558 35.6842 148.561 35.594 149.418 35.0977C150.388 34.5789 151.009 33.5865 151.325 32.5489C152.43 32.8985 153.535 33.282 154.629 33.6541C154.2 35.2105 153.231 36.6316 151.911 37.5789C150.67 38.4361 149.193 38.9098 147.704 39H146.689C145.922 38.9662 145.155 38.8759 144.422 38.6504C143.001 38.2444 141.727 37.3872 140.779 36.2481C139.922 35.2218 139.313 34.0038 138.941 32.718C138.49 31.1842 138.343 29.594 138.343 28.0038C138.355 25.4098 138.817 22.703 140.328 20.5263C141.152 19.3308 142.291 18.3496 143.644 17.7857Z" fill="#58595B"/>
<path d="M44.114 17.6278C45.2982 17.6278 46.4824 17.6165 47.6666 17.6391C47.6553 21.7556 47.6666 25.8722 47.6666 29.9887C47.6553 31.1729 47.7569 32.4135 48.2756 33.4962C48.7832 34.5451 49.8095 35.2895 50.926 35.5714C51.5802 35.7406 52.2794 35.7068 52.9561 35.6504C54.0163 35.5376 55.0877 35.1316 55.7982 34.3083C56.6892 33.2707 56.9373 31.8496 56.9711 30.5188C56.9711 26.2218 56.9599 21.9248 56.9711 17.6278C58.1553 17.6278 59.3396 17.6278 60.5125 17.6278C60.5125 24.5902 60.5125 31.5489 60.5125 38.5038C59.332 38.5038 58.1516 38.5038 56.9711 38.5038C56.9711 37.8383 56.9599 37.1729 56.9711 36.4962C55.8771 37.9624 54.1178 38.9098 52.2907 39H51.1629C49.6741 38.9098 48.1403 38.5714 46.9335 37.6579C45.9636 36.9474 45.2756 35.9098 44.8696 34.8045C44.317 33.3158 44.1478 31.7143 44.114 30.1353C44.114 25.9699 44.114 21.8008 44.114 17.6278Z" fill="#58595B"/>
<path d="M0.941162 17.6167C7.18928 17.6167 13.4374 17.6167 19.6855 17.6167C19.6855 18.4588 19.6855 19.3009 19.6855 20.143C13.4374 20.143 7.18928 20.143 0.941162 20.143V17.6167Z" fill="#FF6719"/>
<path d="M0.941162 22.4325C7.18928 22.4325 13.4374 22.4325 19.6855 22.4325C19.6855 23.2671 19.6855 24.1129 19.6855 24.9588C13.4374 24.9588 7.18928 24.9588 0.941162 24.9588V22.4325Z" fill="#FF6719"/>
<path d="M0.941162 27.2483C7.18928 27.2483 13.4374 27.2483 19.6855 27.2483C19.6855 31.1618 19.6968 35.0866 19.6742 39.0001H19.6517C19.6517 38.9889 19.663 38.9776 19.6742 38.9663C18.2194 38.1881 16.787 37.3535 15.3434 36.5528C13.663 35.6167 11.9825 34.6806 10.3133 33.7445C7.18928 35.5039 4.05394 37.2295 0.941162 39.0001V27.2483Z" fill="#FF6719"/>
</svg>
