<svg width="73" height="14" viewBox="0 0 73 14" fill="none" xmlns="http://www.w3.org/2000/svg">
<g clip-path="url(#clip0_54_6089)">
<mask id="mask0_54_6089" style="mask-type:luminance" maskUnits="userSpaceOnUse" x="0" y="0" width="73" height="14">
<path d="M72.9528 0.216675H0.438477V13.9571H72.9528V0.216675Z" fill="white"/>
</mask>
<g mask="url(#mask0_54_6089)">
<path d="M67.0751 4.48602H63.9761L65.1952 6.23442H66.7661L65.4449 13.7557H68.1971L69.52 6.23442H72.9528L67.5336 1.87463L67.0751 4.48602Z" fill="#ABACBA"/>
<path d="M13.2839 0.216675H0.779947L0.438477 2.18609H5.29324L3.25929 13.7566H6.0115L8.04589 2.18609H12.9424L13.2839 0.216675Z" fill="#ABACBA"/>
<path d="M15.3195 4.27783C11.8212 4.27783 9.58169 6.47973 9.13718 9.03783C8.64437 11.8781 10.3896 13.9573 13.9202 13.9573C15.4977 13.9573 16.9735 13.6605 18.1727 12.9941L18.545 10.8756C17.3737 11.7148 15.883 12.1838 14.6201 12.1838C12.8601 12.1838 11.4608 11.451 11.6809 9.77008H18.9537C19.0413 9.57045 19.1463 9.221 19.222 8.78504C19.5745 6.7555 18.8551 4.27783 15.3195 4.27783ZM16.7461 8.13589H11.9596C12.2473 7.18776 13.1772 5.87692 14.87 5.87692C16.7122 5.87692 16.9069 7.27739 16.7461 8.13589Z" fill="#ABACBA"/>
<path d="M27.4734 4.27881C25.7556 4.27881 24.4688 4.99083 23.8621 5.7106H23.7979L21.3753 4.27881C21.2862 5.0822 21.1673 6.1731 20.9811 7.24385L19.8496 13.7566H22.6017L23.5589 8.30249C23.6048 8.03476 23.6958 7.75101 23.8143 7.55834C24.2254 6.84277 25.088 6.18376 26.1816 6.18376C27.6834 6.18376 28.0921 7.197 27.8616 8.52656L26.9412 13.7566H29.6939L30.663 8.25078C31.1719 5.31961 29.3694 4.27881 27.4734 4.27881Z" fill="#ABACBA"/>
<path d="M60.4889 4.27881C58.7702 4.27881 57.485 4.99083 56.8781 5.7106H56.814L54.3913 4.27881C54.3022 5.0822 54.1827 6.1731 53.9966 7.24385L52.8662 13.7566H55.6173L56.575 8.30249C56.6204 8.03476 56.7115 7.75101 56.8294 7.55834C57.241 6.84277 58.1036 6.18376 59.1964 6.18376C60.6999 6.18376 61.1082 7.197 60.8778 8.52656L59.9579 13.7566H62.71L63.6777 8.25078C64.1868 5.31961 62.3849 4.27881 60.4889 4.27881Z" fill="#ABACBA"/>
<path d="M48.3351 4.27783C44.8368 4.27783 42.5979 6.47973 42.1533 9.03783C41.6605 11.8781 43.4057 13.9573 46.9358 13.9573C48.5132 13.9573 49.9896 13.6605 51.1883 12.9941L51.5612 10.8756C50.39 11.7148 48.8996 12.1838 47.6352 12.1838C45.8761 12.1838 44.4785 11.451 44.6969 9.77008H51.9707C52.0569 9.57045 52.1624 9.221 52.2395 8.78504C52.5899 6.7555 51.8702 4.27783 48.3351 4.27783ZM49.7616 8.13589H44.9757C45.2629 7.18776 46.1927 5.87692 47.885 5.87692C49.7283 5.87692 49.9229 7.27739 49.7616 8.13589Z" fill="#ABACBA"/>
<path d="M31.8201 8.99665C31.3209 11.8739 33.3354 13.956 36.745 13.956C38.101 13.956 39.7196 13.5661 40.333 13.3387L40.778 10.8613C39.8218 11.8898 38.5255 12.1033 37.6057 12.1033C35.7326 12.1033 34.3145 11.0127 34.6445 9.11217C34.9307 7.4128 36.54 6.10682 38.6381 6.10682C39.4922 6.10682 40.6516 6.39289 41.3823 7.35457L41.8089 4.83455C41.217 4.60737 40.2698 4.28308 38.8675 4.28308C35.0417 4.28301 32.3025 6.22161 31.8201 8.99665Z" fill="#ABACBA"/>
</g>
</g>
<defs>
<clipPath id="clip0_54_6089">
<rect width="72.5144" height="13.7777" fill="white" transform="translate(0.437988 0.215088)"/>
</clipPath>
</defs>
</svg>
