<svg width="180" height="48" viewBox="0 0 180 48" fill="none" xmlns="http://www.w3.org/2000/svg">
<path d="M89.95 14.2397C83.05 14.2397 78.0748 18.7397 78.0748 25.4897C78.0748 32.2397 83.6688 36.7397 90.5752 36.7397C94.7436 36.7397 98.4188 35.0897 100.694 32.3085L95.9124 29.546C94.65 30.9273 92.7312 31.7335 90.5752 31.7335C87.5812 31.7335 85.0376 30.171 84.0936 27.671H101.606C101.744 26.971 101.825 26.246 101.825 25.4835C101.825 18.7397 96.8564 14.2397 89.95 14.2397ZM84.0436 23.3022C84.8248 20.8085 86.9624 19.2397 89.95 19.2397C92.9436 19.2397 95.0812 20.8085 95.8564 23.3022H84.0436ZM82.6312 7.36475L65.3124 37.3647L47.9876 7.36475H54.4812L65.3064 26.1147L76.1312 7.36475H82.6312ZM24.0938 4.23975L47.1876 44.2397H1L24.0938 4.23975ZM126.95 25.4897C126.95 29.2397 129.4 31.7397 133.2 31.7397C135.775 31.7397 137.706 30.571 138.7 28.6647L143.5 31.4335C141.512 34.746 137.788 36.7397 133.2 36.7397C126.294 36.7397 121.325 32.2397 121.325 25.4897C121.325 18.7397 126.3 14.2397 133.2 14.2397C137.788 14.2397 141.506 16.2335 143.5 19.546L138.7 22.3147C137.706 20.4085 135.775 19.2397 133.2 19.2397C129.406 19.2397 126.95 21.7397 126.95 25.4897ZM178.5 7.36475V36.1147H172.875V7.36475H178.5ZM157.25 14.2397C150.35 14.2397 145.375 18.7397 145.375 25.4897C145.375 32.2397 150.975 36.7397 157.875 36.7397C162.044 36.7397 165.719 35.0897 167.994 32.3085L163.212 29.546C161.95 30.9273 160.031 31.7335 157.875 31.7335C154.881 31.7335 152.338 30.171 151.394 27.671H168.906C169.044 26.971 169.125 26.246 169.125 25.4835C169.125 18.7397 164.156 14.2397 157.25 14.2397ZM151.344 23.3022C152.125 20.8085 154.256 19.2397 157.25 19.2397C160.244 19.2397 162.381 20.8085 163.156 23.3022H151.344ZM119.45 14.8647V20.921C118.825 20.7397 118.162 20.6147 117.45 20.6147C113.819 20.6147 111.2 23.1147 111.2 26.8647V36.1147H105.575V14.8647H111.2V20.6147C111.2 17.4397 114.894 14.8647 119.45 14.8647Z" fill="black"/>
</svg>
