<svg width="110" height="48" viewBox="0 0 110 48" fill="none" xmlns="http://www.w3.org/2000/svg">
<path d="M41.9712 7.60095L28.1881 40.4857H19.1957L12.4131 14.2422C12.0013 12.6257 11.6432 12.0335 10.3909 11.3525C8.34731 10.2433 4.97078 9.20313 2 8.55722L2.20178 7.60095H16.6768C18.5219 7.60095 20.1805 8.82918 20.5994 10.9539L24.1816 29.9827L33.0347 7.60095H41.9712ZM77.2054 29.7491C77.2416 21.0698 65.2039 20.5917 65.2867 16.7145C65.3124 15.5345 66.4359 14.28 68.8951 13.9598C70.114 13.8002 73.4725 13.6785 77.2816 15.4315L78.7758 8.45797C76.7289 7.715 74.0954 7 70.8186 7C62.4102 7 56.4928 11.4699 56.4429 17.8704C56.3886 22.6045 60.6666 25.2463 63.8896 26.8194C67.2052 28.4304 68.3178 29.4656 68.3052 30.9066C68.2816 33.1125 65.6606 34.0863 63.2113 34.1247C58.9355 34.1905 56.4544 32.9677 54.4766 32.0482L52.9347 39.2525C54.9224 40.1644 58.5912 40.96 62.3948 41C71.3319 41 77.178 36.5855 77.2054 29.7491ZM99.4089 40.4862H107.277L100.409 7.60095H93.1472C91.5143 7.60095 90.1369 8.55174 89.5272 10.0135L76.7618 40.4857H85.6945L87.4683 35.5733H98.3825L99.4095 40.4857L99.4089 40.4862ZM89.917 28.834L94.3946 16.487L96.9717 28.834H89.9176H89.917ZM54.1262 7.60095L47.0919 40.4857H38.5853L45.6224 7.60095H54.1262Z" fill="#1434CB"/>
</svg>
