<svg width="391" height="51" viewBox="0 0 391 51" fill="none" xmlns="http://www.w3.org/2000/svg">
<path d="M117.367 26.8898C117.367 22.2674 115.393 18.2004 108.718 18.2004C105.293 18.2004 102.573 19.1646 101.087 20.02L102.175 23.7345C103.53 22.879 105.694 22.1699 107.739 22.1699C111.123 22.1624 111.679 24.0871 111.679 25.3215V25.6142C104.299 25.6029 99.635 28.158 99.635 33.3656C99.635 36.5435 102.01 39.5226 106.141 39.5226C108.681 39.5226 110.805 38.5095 112.076 36.8849H112.204C112.204 36.8849 113.048 40.4118 117.693 39.0611C117.449 37.5941 117.37 36.0295 117.37 34.146V26.8898H117.367ZM111.855 31.7748C111.855 32.15 111.821 32.5402 111.72 32.8779C111.292 34.2924 109.829 35.4855 107.998 35.4855C106.471 35.4855 105.259 34.6188 105.259 32.7878C105.259 29.9852 108.343 29.2085 111.859 29.2273V31.7711L111.855 31.7748ZM8.48952 11.9046C9.05981 14.7824 10.6806 23.1229 10.6806 23.1229C11.3597 26.5559 11.9863 30.1502 12.4591 32.9942H12.5416C13.0031 29.9739 13.7235 27.1112 14.4963 23.5656L17.224 11.9009H23.2571L25.8084 23.8695C26.48 27.1975 27.009 29.7638 27.4292 32.8591H27.5118C27.9733 29.7338 28.5698 27.0624 29.2264 23.6444L31.6764 11.9009H37.4694L30.2957 39.0611C25.7259 40.0628 23.9737 38.2244 23.3434 35.3016C22.7168 32.3789 21.4899 26.8185 21.4899 26.8185C20.8634 23.7757 20.3719 21.6259 20.0267 18.5005H19.9404C19.4489 21.5959 18.9386 23.7645 18.1732 26.8073L15.1604 39.0611C10.493 39.9915 8.87596 38.6108 7.97925 34.8702C7.21011 31.666 2.38889 11.9046 2.38889 11.9046H8.48952ZM53.9328 26.8898C53.9328 22.2674 51.9593 18.2004 45.2847 18.2004C41.8554 18.2004 39.1352 19.1646 37.6532 20.02L38.7375 23.7345C40.0957 22.879 42.2568 22.1699 44.3016 22.1699C47.6896 22.1624 48.2449 24.0871 48.2449 25.3215V25.6142C40.8611 25.6029 36.2012 28.158 36.2012 33.3656C36.2012 36.5435 38.5762 39.5226 42.7033 39.5226C45.2434 39.5226 47.3707 38.5095 48.6426 36.8849H48.7664C48.7664 36.8849 49.6106 40.4118 54.2555 39.0611C54.0116 37.5941 53.9328 36.0295 53.9328 34.146V26.8898ZM48.425 31.7748C48.425 32.15 48.3912 32.5402 48.2899 32.8779C47.8622 34.2924 46.399 35.4855 44.568 35.4855C43.041 35.4855 41.8291 34.6188 41.8291 32.7878C41.8291 29.9852 44.9132 29.2085 48.425 29.2273V31.7711V31.7748ZM63.1288 39.0648H57.6135V11.9046H63.1288V39.0648ZM140.722 11.9046V18.3279H145.525V23.5243H140.722V31.1895C140.722 33.6696 141.353 34.8739 143.232 34.8739C144.118 34.8739 144.763 34.7651 145.326 34.6263L145.397 38.9373C144.639 39.2186 143.037 39.5301 141.405 39.5301C139.488 39.5301 137.886 38.8622 136.914 37.8267C135.804 36.6448 135.282 34.7088 135.282 31.9474V11.9046H140.722ZM126.037 18.6618V22.5113H126.191C127.204 19.5736 129.62 18.2041 131.744 18.2041C132.277 18.2041 132.569 18.2454 132.997 18.3317V23.6744C132.487 23.5994 132.014 23.5281 131.354 23.5281C128.953 23.5281 127.279 24.9276 126.855 27.1149C126.765 27.5652 126.731 28.0567 126.731 28.6195V39.0648H121.044V18.6618H126.034H126.037ZM72.2497 18.6618V21.4345H72.3323C73.274 19.9488 74.8236 18.2004 78.2753 18.2004C80.9617 18.2004 83.0215 19.6524 83.8995 21.851H83.982C84.7361 20.7442 85.6028 19.9037 86.5671 19.3109C87.7152 18.6056 88.9833 18.2041 90.5929 18.2041C94.2248 18.2041 97.4439 20.7142 97.4439 27.0512V39.0686H91.9023V27.8878C91.9023 24.6762 90.8143 22.819 88.5444 22.819C86.8823 22.819 85.6741 23.9333 85.2164 25.3028C85.0588 25.7755 84.9838 26.4208 84.9838 26.9574V39.0686H79.4459V27.4414C79.4459 24.7137 78.3991 22.819 76.163 22.819C74.3733 22.819 73.2515 24.2297 72.7938 25.4341C72.5987 25.9518 72.5349 26.5446 72.5349 27.1037V39.0686H66.9895V18.6618H72.2535H72.2497Z" fill="#041E41"/>
<path d="M155.254 15.3939C155.422 14.8836 155.539 14.3509 155.768 13.8706C156.139 13.0865 156.717 12.4711 157.516 12.0885C158.251 11.7358 158.945 11.7508 159.655 12.2273C163.755 14.9774 167.868 17.7051 171.976 20.4402C172.738 20.9467 173.51 21.4345 174.268 21.9448C176.733 23.5919 176.722 27.2125 174.253 28.8596C169.743 31.8649 165.237 34.8701 160.731 37.8754C160.352 38.1306 159.966 38.3744 159.595 38.6408C159.047 39.0385 158.458 39.0836 157.842 38.8584C156.822 38.4832 156.162 37.7291 155.7 36.7799C155.336 36.037 155.182 35.2528 155.362 34.4312C155.49 33.8459 155.813 33.4181 156.36 33.1443C161.178 30.7468 165.988 28.3418 170.802 25.9368C171.143 25.768 171.481 25.5916 171.848 25.404C171.773 25.3553 171.724 25.3177 171.668 25.2915C166.528 22.7402 161.392 20.1889 156.252 17.6376C155.704 17.3674 155.445 16.8947 155.314 16.3281C155.295 16.2493 155.276 16.1705 155.257 16.0918V15.3939H155.254Z" fill="#08F27B"/>
<path d="M197.02 15.8703C196.956 16.1292 196.904 16.4894 196.784 16.8271C196.637 17.2323 196.333 17.5099 195.932 17.69C192.747 19.1307 189.565 20.5752 186.387 22.0272C185.858 22.2711 185.378 22.2261 184.894 21.9409C183.986 21.4007 183.412 20.1925 183.599 19.217C183.667 18.8681 183.832 18.5905 184.128 18.3766C187.017 16.3018 189.903 14.2157 192.792 12.1447C193.456 11.6682 194.165 11.7807 194.818 12.1522C196.21 12.9401 196.881 14.182 197.016 15.8666L197.02 15.8703Z" fill="#08F27B"/>
<path d="M196.975 35.2453C196.874 36.8511 196.183 38.108 194.735 38.8734C194.007 39.2561 193.294 39.2073 192.585 38.6933C189.842 36.701 187.085 34.7275 184.308 32.7765C183.644 32.3113 183.457 31.7297 183.596 30.9906C183.753 30.1351 184.196 29.4673 184.954 29.0283C185.385 28.7769 185.835 28.7394 186.312 28.957C189.512 30.4053 192.713 31.846 195.917 33.283C196.581 33.5794 196.874 34.1197 196.967 34.8025C196.986 34.9489 196.967 35.1027 196.967 35.2528L196.975 35.2453Z" fill="#08F27B"/>
<path d="M176.099 48.9811C175.113 48.9736 174.205 48.7373 173.48 48.0244C173.06 47.6117 172.888 47.1164 172.951 46.5124C173.143 44.7377 173.3 42.9556 173.477 41.1809C173.634 39.5601 173.784 37.9392 173.961 36.3184C174.077 35.2453 174.674 34.7013 175.762 34.6075C176.396 34.555 177.007 34.6263 177.559 34.9752C177.956 35.2303 178.204 35.5755 178.253 36.067C178.433 37.9617 178.624 39.8527 178.816 41.7474C178.973 43.3082 179.12 44.8728 179.3 46.4336C179.397 47.2665 179.063 47.8668 178.414 48.3321C177.784 48.7785 177.045 48.9811 176.103 48.9849L176.099 48.9811Z" fill="#08F27B"/>
<path d="M176.084 2.01823C177.056 1.98447 177.919 2.22459 178.647 2.85116C179.142 3.27888 179.363 3.81165 179.285 4.49075C179.12 5.93524 178.999 7.38349 178.857 8.83173C178.699 10.4451 178.538 12.0546 178.38 13.668C178.339 14.0732 178.287 14.4784 178.268 14.8836C178.245 15.3376 178.035 15.6715 177.683 15.9304C176.85 16.5494 175.416 16.5494 174.58 15.9379C174.25 15.6978 174.039 15.3901 173.998 14.9699C173.863 13.5629 173.717 12.1597 173.574 10.7565C173.413 9.17691 173.255 7.6011 173.094 6.02154C173.038 5.45875 172.974 4.89971 172.929 4.33692C172.865 3.56778 173.274 3.04626 173.859 2.63355C174.475 2.20208 175.176 2.02199 176.08 2.02199L176.084 2.01823Z" fill="#08F27B"/>
<path d="M219.854 11.5818C223.659 11.5818 226.409 12.8987 228.971 15.0861C229.272 15.3862 229.309 15.8402 229.009 16.1404C228.671 16.478 228.255 16.857 227.955 17.1947C227.617 17.5699 227.388 17.5323 226.975 17.1571C225.054 15.4613 222.342 14.2194 219.817 14.2194C213.862 14.2194 209.341 19.1944 209.341 25.0324C209.341 30.8704 213.862 35.9243 219.817 35.9243C223.963 35.9243 226.6 34.341 226.6 34.341V29.0658H222.267C221.85 29.0658 221.55 28.7656 221.55 28.3867V26.9909C221.55 26.5782 221.85 26.2743 222.267 26.2743H228.788C229.163 26.2743 229.467 26.612 229.467 26.9909V35.6204C229.467 35.808 229.317 36.1119 229.167 36.2244C229.167 36.2244 225.325 38.712 219.858 38.712C212.32 38.712 206.254 32.7201 206.254 25.1863C206.254 17.6524 212.32 11.5818 219.858 11.5818H219.854Z" fill="#041E41"/>
<path d="M234.663 12.7862C234.663 12.3735 235.038 11.957 235.492 11.957H236.622C237.038 11.957 237.451 12.3735 237.451 12.7862V37.5039C237.451 37.9579 237.038 38.3331 236.622 38.3331H235.492C235.038 38.3331 234.663 37.9579 234.663 37.5039V12.7862Z" fill="#041E41"/>
<path d="M251.018 20.5491C255.843 20.5491 259.76 24.6949 259.76 29.5912C259.76 34.4875 255.839 38.7497 251.018 38.7497C246.197 38.7497 242.276 34.5663 242.276 29.5912C242.276 24.6162 246.193 20.5491 251.018 20.5491ZM251.018 36.2246C254.447 36.2246 256.972 33.2081 256.972 29.5912C256.972 25.9744 254.447 23.0704 251.018 23.0704C247.589 23.0704 245.026 26.0456 245.026 29.5912C245.026 33.1368 247.589 36.2246 251.018 36.2246Z" fill="#041E41"/>
<path d="M264.397 12.7862C264.397 12.3735 264.735 11.957 265.189 11.957H266.318C266.735 11.957 267.147 12.3735 267.147 12.7862V21.6408C267.147 21.6408 269.068 20.5489 271.972 20.5489C277.173 20.5489 280.185 24.5035 280.185 29.5911C280.185 34.6787 276.831 38.7495 272.385 38.7495C269.71 38.7495 267.977 37.5827 266.885 36.5284C266.772 37.6577 266.168 38.4869 265.076 38.4869C264.664 38.4869 264.397 38.2243 264.397 37.8078V12.7862ZM267.147 33.3618C267.147 33.3618 268.956 36.2245 272.085 36.2245C275.214 36.2245 277.36 33.0203 277.36 29.6286C277.36 26.2369 275.364 23.0702 271.556 23.0702C269.143 23.0702 267.147 24.162 267.147 24.162V33.358V33.3618Z" fill="#041E41"/>
<path d="M290.473 27.2949C292.319 27.2949 294.202 27.8615 294.202 27.8615C294.24 24.6573 292.694 23.0778 290.21 23.0778C288.289 23.0778 286.969 23.8319 286.177 24.0946C285.723 24.2821 285.498 24.057 285.348 23.6406L284.973 22.6238C284.823 22.0948 285.085 21.8697 285.502 21.6821C286.368 21.3069 287.952 20.5527 290.364 20.5527C294.81 20.5527 296.885 23.1903 296.885 27.8615V37.8078C296.885 38.2206 296.622 38.4869 296.206 38.4869C295.077 38.4869 294.473 37.6202 294.36 36.4534C293.456 37.3951 291.61 38.7533 288.897 38.7533C285.847 38.7533 283.509 36.566 283.509 33.0617C283.509 29.745 285.997 27.2949 290.48 27.2949H290.473ZM289.381 36.2245C291.527 36.2245 293.414 35.0202 294.169 33.8871V30.3453C293.602 30.0451 292.21 29.6662 290.477 29.6662C288.064 29.6662 286.256 30.833 286.256 33.0579C286.256 34.8288 287.46 36.2245 289.385 36.2245H289.381Z" fill="#041E41"/>
<path d="M302.682 12.7862C302.682 12.3735 303.057 11.957 303.511 11.957H304.64C305.057 11.957 305.469 12.3735 305.469 12.7862V37.5039C305.469 37.9579 305.057 38.3331 304.64 38.3331H303.511C303.057 38.3331 302.682 37.9579 302.682 37.5039V12.7862Z" fill="#041E41"/>
<path d="M324.537 14.4821H317.978C317.566 14.4821 317.262 14.1444 317.262 13.7655V12.6736C317.262 12.2985 317.562 11.957 317.978 11.957H333.954C334.37 11.957 334.671 12.2947 334.671 12.6736V13.7655C334.671 14.1407 334.37 14.4821 333.954 14.4821H327.399V37.6202C327.399 37.9954 327.062 38.3368 326.683 38.3368H325.25C324.871 38.3368 324.533 37.9991 324.533 37.6202V14.4821H324.537Z" fill="#041E41"/>
<path d="M342.887 20.5491C347.446 20.5491 350.763 23.9033 350.763 28.4619C350.763 28.762 350.725 29.216 350.688 29.5162C350.65 29.9702 350.275 30.2703 349.896 30.2703H337.237C337.312 33.1706 339.762 36.2246 342.925 36.2246C345.225 36.2246 346.654 35.433 347.634 34.7914C348.238 34.3749 348.5 34.2248 348.954 34.9039L349.408 35.5455C349.746 36.0745 349.896 36.2621 349.258 36.7499C348.204 37.5791 345.904 38.7459 342.891 38.7459C337.616 38.7459 334.449 34.6 334.449 29.6287C334.449 24.6574 337.616 20.5491 342.891 20.5491H342.887ZM347.975 28.0492C347.9 25.4866 345.866 23.0741 342.887 23.0741C339.908 23.0741 337.612 25.3365 337.275 28.0492H347.975Z" fill="#041E41"/>
<path d="M362.896 20.5491C365.496 20.5491 367.605 21.5658 369.226 23.4118C369.564 23.8245 369.489 24.316 369.076 24.6537L368.472 25.2202C367.905 25.7117 367.568 25.3328 367.23 24.9576C366.026 23.5994 364.63 23.0741 362.859 23.0741C359.542 23.0741 356.905 26.0119 356.905 29.6325C356.905 33.2531 359.505 36.2284 362.746 36.2284C365.384 36.2284 366.513 34.8702 367.493 33.7408C367.984 33.1743 368.472 33.3281 368.963 33.8159L369.188 34.041C369.564 34.4162 369.717 34.7951 369.413 35.2454C368.093 37.1663 365.759 38.7497 362.855 38.7497C357.692 38.7497 354.076 34.9077 354.076 29.67C354.076 24.4323 357.843 20.5528 362.893 20.5528L362.896 20.5491Z" fill="#041E41"/>
<path d="M373.938 12.7862C373.938 12.3735 374.314 11.957 374.768 11.957H375.897C376.313 11.957 376.726 12.3735 376.726 12.7862V22.7738C376.726 22.7738 378.76 20.5489 382.264 20.5489C386.597 20.5489 388.556 23.2241 388.556 28.3117V37.5039C388.556 37.9579 388.139 38.3331 387.727 38.3331H386.556C386.102 38.3331 385.727 37.9579 385.727 37.5039V28.3117C385.727 24.995 384.748 23.074 382.073 23.074C378.756 23.074 376.722 25.5615 376.722 25.5615V37.5076C376.722 37.9616 376.31 38.3368 375.893 38.3368H374.764C374.31 38.3368 373.935 37.9616 373.935 37.5076V12.7862H373.938Z" fill="#041E41"/>
</svg>
