<svg width="352" height="225" viewBox="0 0 352 225" fill="none" xmlns="http://www.w3.org/2000/svg">
<rect width="352" height="225" fill="white"/>
<path fill-rule="evenodd" clip-rule="evenodd" d="M176.002 47.2947L108.015 78.9499L108.015 78.9503H108.008V88.5849H112.137L112.137 81.9351L176.177 52.0728L239.865 81.771V88.5849H243.994V78.9512L243.994 78.9507L243.994 78.9507V78.9503H243.993L176.009 47.2974L176.007 47.2925L176.003 47.2944L176.002 47.2942L176.002 47.2947ZM235.738 97.1185V92.9894L243.994 92.9894V88.585L108.009 88.585L108.009 92.9894L115.994 92.9894V97.1185H120.123V92.9894H231.609V97.1185H235.738ZM124.251 101.523V105.377H140.491V101.523H124.251ZM120.121 101.523L115.994 101.523V97.1186L235.738 97.1186V101.523L231.332 101.523V105.377V105.377V109.781H206.832L206.832 105.377H206.833V101.523H202.428V105.377V105.377V109.781H177.928L177.928 105.377H177.929V101.523H173.524V105.377V105.377V109.781H149.025V105.377H149.025V101.523H144.62V105.377V105.377V109.781H120.121V105.377H120.121L120.121 101.523ZM153.154 101.523V105.377H169.395V101.523H153.154ZM182.058 101.523V105.377H198.299V101.523H182.058ZM210.962 101.523V105.377H227.203V101.523H210.962ZM128.655 109.781H124.251V150.247H128.655V109.781ZM144.62 150.247V154.651V154.651V158.505H149.025V154.651H149.025V150.247H173.524V154.651V154.651V158.505H177.929V154.651H177.928L177.928 150.247H202.428V154.651V154.651V158.505H206.833V154.651H206.832L206.832 150.247H231.332V154.651V154.651V158.505H235.738V162.909H115.994V158.505L120.121 158.505L120.121 154.651H120.121V150.247H144.62ZM140.491 154.651V158.505H124.251V154.651H140.491ZM169.395 158.505H153.154V154.651H169.395V158.505ZM198.299 158.505H182.058V154.651H198.299V158.505ZM227.203 158.505H210.962V154.651H227.203V158.505ZM120.123 162.909V166.763H231.609V162.909H235.738V166.763H241.791V171.167V171.167V175.021H237.662V171.167H114.07V175.021H109.941L109.941 171.167H109.934L109.934 166.763L115.994 166.763V162.909H120.123ZM241.791 175.021V179.426L109.934 179.426L109.934 175.021L241.791 175.021ZM186.463 109.781H182.058V150.247H186.463V109.781ZM136.634 109.781H141.039V150.247H136.634V109.781ZM198.846 109.781H194.442V150.247H198.846V109.781ZM153.154 109.781H157.559V150.247H153.154V109.781ZM215.367 109.781H210.962V150.247H215.367V109.781ZM165.538 109.781H169.943V150.247H165.538V109.781ZM227.75 109.781H223.346V150.247H227.75V109.781Z" fill="url(#paint0_linear_4646_8164)"/>
<defs>
<linearGradient id="paint0_linear_4646_8164" x1="122.614" y1="46.6968" x2="249.978" y2="209.048" gradientUnits="userSpaceOnUse">
<stop stop-color="#3A424E"/>
<stop offset="1" stop-color="#697483"/>
</linearGradient>
</defs>
</svg>
