<svg width="48" height="48" viewBox="0 0 48 48" fill="none" xmlns="http://www.w3.org/2000/svg">
<mask id="mask0_255_182" style="mask-type:luminance" maskUnits="userSpaceOnUse" x="5" y="0" width="38" height="46">
<path d="M5 0H42.4586V46H5V0Z" fill="white"/>
</mask>
<g mask="url(#mask0_255_182)">
<path d="M36.2798 24.4401C36.2269 18.6207 41.0368 15.8246 41.2535 15.6872C38.5473 11.7284 34.34 11.1892 32.8389 11.1258C29.2606 10.7611 25.8514 13.2347 24.0332 13.2347C22.215 13.2347 19.4137 11.1787 16.4432 11.2368C12.5372 11.2949 8.93773 13.5043 6.92394 17.0033C2.86994 24.0331 5.88797 34.4614 9.84155 40.1751C11.7761 42.9659 14.0753 46.1108 17.1039 45.9945C20.0215 45.8782 21.1209 44.1075 24.641 44.1075C28.1612 44.1075 29.1549 45.9945 32.2311 45.9363C35.3654 45.8729 37.3528 43.0821 39.2714 40.2808C41.486 37.0408 42.4004 33.9012 42.4533 33.7373C42.3846 33.7109 36.3432 31.3958 36.2798 24.4401" fill="black"/>
</g>
<path d="M30.4922 7.34689C32.099 5.40182 33.1825 2.69562 32.8865 0C30.5714 0.0951396 27.7701 1.54338 26.1104 3.48845C24.6252 5.20625 23.3197 7.96001 23.6738 10.6028C26.2479 10.8036 28.8854 9.28668 30.4922 7.34689Z" fill="black"/>
</svg>
