<svg width="144" height="48" viewBox="0 0 144 48" fill="none" xmlns="http://www.w3.org/2000/svg">
<g clip-path="url(#clip0_255_231)">
<path d="M118.871 28.8C119.098 28.1987 119.178 27.5519 119.104 26.9133C119.03 26.2748 118.805 25.6632 118.447 25.1294C118.079 24.6884 117.628 24.3243 117.119 24.0578C116.611 23.7913 116.054 23.6278 115.482 23.5765L90.9176 23.2941C90.7764 23.2941 90.6353 23.153 90.4941 23.153C90.4612 23.1283 90.4345 23.0963 90.4161 23.0596C90.3978 23.0228 90.3882 22.9823 90.3882 22.9412C90.3882 22.9001 90.3978 22.8596 90.4161 22.8228C90.4345 22.7861 90.4612 22.7541 90.4941 22.7294C90.6353 22.4471 90.7764 22.3059 91.0588 22.3059L115.765 22.0236C117.333 21.8495 118.827 21.2607 120.092 20.3178C121.358 19.375 122.349 18.112 122.965 16.6588L124.376 12.9883C124.376 12.8471 124.518 12.7059 124.376 12.5647C123.609 9.14602 121.746 6.07132 119.072 3.80783C116.397 1.54434 113.057 0.21581 109.558 0.0241085C106.06 -0.167593 102.594 0.788018 99.6885 2.74573C96.7826 4.70344 94.5952 7.55624 93.4588 10.8706C91.9834 9.81692 90.1839 9.31703 88.3764 9.45885C86.7177 9.6438 85.1712 10.3874 83.9911 11.5676C82.8109 12.7478 82.0673 14.2942 81.8823 15.953C81.7883 16.802 81.836 17.6607 82.0235 18.4941C79.3396 18.5683 76.7906 19.6867 74.9187 21.6114C73.0467 23.5361 71.9996 26.1151 72 28.8C71.9768 29.3217 72.0243 29.844 72.1411 30.353C72.1476 30.4632 72.1943 30.5672 72.2724 30.6452C72.3505 30.7233 72.4545 30.77 72.5647 30.7765H117.882C118.165 30.7765 118.447 30.6353 118.447 30.353L118.871 28.8Z" fill="#F48120"/>
<path d="M126.635 12.9885H125.929C125.788 12.9885 125.647 13.1297 125.506 13.2709L124.518 16.6591C124.291 17.2604 124.21 17.9073 124.284 18.5458C124.358 19.1843 124.583 19.796 124.941 20.3297C125.309 20.7707 125.76 21.1349 126.269 21.4014C126.778 21.6678 127.334 21.8314 127.906 21.8826L133.129 22.165C133.271 22.165 133.412 22.3062 133.553 22.3062C133.586 22.3308 133.613 22.3628 133.631 22.3996C133.649 22.4363 133.659 22.4768 133.659 22.5179C133.659 22.559 133.649 22.5996 133.631 22.6363C133.613 22.6731 133.586 22.705 133.553 22.7297C133.412 23.0121 133.271 23.1532 132.988 23.1532L127.624 23.4356C126.055 23.6096 124.561 24.1984 123.296 25.1413C122.03 26.0842 121.039 27.3471 120.424 28.8003L120.141 30.0709C120 30.2121 120.141 30.4944 120.424 30.4944H139.059C139.116 30.5026 139.175 30.4973 139.23 30.479C139.285 30.4606 139.335 30.4296 139.376 30.3885C139.418 30.3474 139.449 30.2973 139.467 30.2422C139.485 30.1871 139.491 30.1284 139.482 30.0709C139.818 28.8747 140.008 27.6422 140.047 26.4003C140.025 22.8502 138.605 19.4518 136.094 16.9415C133.584 14.4311 130.185 13.0109 126.635 12.9885Z" fill="#FAAD3F"/>
<path d="M141.882 38.3999C141.631 38.3999 141.385 38.3254 141.176 38.1858C140.967 38.0462 140.804 37.8477 140.708 37.6155C140.612 37.3834 140.587 37.1279 140.636 36.8814C140.685 36.635 140.806 36.4086 140.984 36.2309C141.161 36.0532 141.388 35.9322 141.634 35.8831C141.881 35.8341 142.136 35.8593 142.368 35.9554C142.601 36.0516 142.799 36.2145 142.939 36.4234C143.078 36.6324 143.153 36.878 143.153 37.1293C143.153 37.2964 143.121 37.4619 143.057 37.6164C142.994 37.7708 142.9 37.9112 142.782 38.0293C142.664 38.1474 142.524 38.241 142.369 38.3046C142.215 38.3682 142.049 38.4006 141.882 38.3999ZM141.882 36.1411C141.687 36.1411 141.496 36.199 141.333 36.3076C141.171 36.4162 141.044 36.5706 140.969 36.7511C140.894 36.9317 140.875 37.1304 140.913 37.3221C140.951 37.5138 141.045 37.6899 141.183 37.8281C141.322 37.9663 141.498 38.0604 141.689 38.0986C141.881 38.1367 142.08 38.1171 142.26 38.0423C142.441 37.9675 142.595 37.8409 142.704 37.6783C142.812 37.5158 142.87 37.3248 142.87 37.1293C142.874 36.9987 142.85 36.8687 142.802 36.7474C142.753 36.6261 142.68 36.5158 142.588 36.4234C142.496 36.331 142.385 36.2583 142.264 36.2098C142.143 36.1613 142.013 36.1379 141.882 36.1411ZM142.447 37.8352H142.165L141.882 37.4117H141.6V37.8352H141.317V36.5646H142.023C142.081 36.5564 142.14 36.5617 142.195 36.5801C142.25 36.5984 142.3 36.6294 142.341 36.6705C142.382 36.7116 142.413 36.7617 142.431 36.8168C142.45 36.872 142.455 36.9306 142.447 36.9881C142.447 37.1293 142.306 37.2705 142.165 37.4117L142.447 37.8352ZM142.023 37.1293C142.165 37.1293 142.165 37.1293 142.165 36.9881C142.165 36.9695 142.162 36.951 142.155 36.9336C142.148 36.9163 142.137 36.9006 142.124 36.8874C142.111 36.8742 142.095 36.8639 142.078 36.8569C142.061 36.8499 142.042 36.8466 142.023 36.847H141.6V37.2705H142.023V37.1293ZM15.3881 35.8587H18.494V44.3293H23.8587V47.0117H15.3881V35.8587ZM27.1057 41.3646C27.1058 40.5804 27.265 39.8044 27.5737 39.0835C27.8824 38.3627 28.3342 37.712 28.9018 37.1708C29.4693 36.6297 30.1408 36.2093 30.8756 35.9353C31.6103 35.6612 32.393 35.5391 33.1763 35.5764C33.9523 35.5414 34.7272 35.6661 35.4531 35.9428C36.1789 36.2195 36.8402 36.6422 37.3961 37.1848C37.9519 37.7274 38.3905 38.3784 38.6845 39.0973C38.9786 39.8163 39.122 40.588 39.1057 41.3646C39.1057 42.1488 38.9465 42.9248 38.6377 43.6457C38.329 44.3665 37.8772 45.0173 37.3097 45.5584C36.7421 46.0996 36.0706 46.5199 35.3359 46.794C34.6012 47.068 33.8184 47.1901 33.0351 47.1528C32.2622 47.1758 31.4925 47.0429 30.772 46.7619C30.0515 46.4809 29.395 46.0577 28.8416 45.5175C28.2882 44.9773 27.8493 44.3312 27.5511 43.6177C27.2528 42.9042 27.1014 42.1379 27.1057 41.3646ZM35.9998 41.3646C36.0275 40.9732 35.9755 40.5803 35.8471 40.2096C35.7186 39.8389 35.5163 39.4981 35.2524 39.2078C34.9884 38.9175 34.6684 38.6837 34.3116 38.5206C33.9547 38.3574 33.5685 38.2684 33.1763 38.2587C32.4151 38.2959 31.6972 38.6245 31.1716 39.1764C30.646 39.7283 30.3528 40.4613 30.3528 41.2234C30.3528 41.9856 30.646 42.7186 31.1716 43.2705C31.6972 43.8224 32.4151 44.151 33.1763 44.1881C34.8704 44.4705 35.9998 43.0587 35.9998 41.3646ZM42.9175 42.0705V35.8587H46.0234V42.0705C46.0234 43.6234 46.8704 44.4705 48.141 44.4705C48.4378 44.4952 48.7362 44.4524 49.0141 44.3455C49.292 44.2385 49.5422 44.0702 49.7458 43.8529C49.9495 43.6357 50.1014 43.3752 50.1902 43.091C50.279 42.8068 50.3024 42.5062 50.2587 42.2117V35.8587H53.3646V42.0705C53.3646 45.7411 51.2469 47.294 48.141 47.294C44.894 47.1528 42.9175 45.5999 42.9175 42.0705ZM58.0234 35.8587H62.3999C66.3528 35.8587 68.7528 38.1175 68.7528 41.3646C68.7528 44.6117 66.3528 47.0117 62.3999 47.0117H58.1646V35.8587H58.0234ZM62.3999 44.1881C62.7933 44.2257 63.1902 44.1806 63.5652 44.0558C63.9401 43.931 64.2849 43.7292 64.5773 43.4633C64.8697 43.1975 65.1034 42.8735 65.2632 42.5121C65.4231 42.1506 65.5057 41.7598 65.5057 41.3646C65.5057 40.9694 65.4231 40.5786 65.2632 40.2171C65.1034 39.8557 64.8697 39.5317 64.5773 39.2659C64.2849 39 63.9401 38.7982 63.5652 38.6734C63.1902 38.5486 62.7933 38.5035 62.3999 38.5411H61.1293V44.1881H62.3999ZM73.1293 35.8587H82.0234V38.5411H76.2351V40.3764H81.4587V42.9175H76.2351V47.0117H73.1293V35.8587ZM86.3999 35.8587H89.5057V44.3293H94.8704V47.0117H86.3999V35.8587ZM102.917 35.7175H106.023L110.823 47.0117H107.435L106.588 45.0352H102.212L101.365 47.0117H98.1175L102.917 35.7175ZM105.741 42.6352L104.47 39.5293L103.2 42.6352H105.741ZM114.776 35.8587H120C120.666 35.8046 121.337 35.8897 121.969 36.1084C122.601 36.3271 123.18 36.6748 123.67 37.1293C124.075 37.5654 124.368 38.0925 124.526 38.6661C124.684 39.2396 124.701 39.8427 124.577 40.4243C124.452 41.0059 124.189 41.549 123.81 42.0075C123.431 42.4661 122.948 42.8266 122.4 43.0587L125.082 47.0117H121.553L119.294 43.6234H117.882V47.0117H114.776V35.8587ZM119.859 41.2234C120.847 41.2234 121.553 40.6587 121.553 39.9528C121.553 39.1058 120.847 38.6823 119.859 38.6823H117.882V41.3646H119.859V41.2234ZM129.035 35.8587H138.07V38.3999H132.141V40.094H137.506V42.6352H132.141V44.3293H138.212V47.0117H129.035V35.8587ZM8.61161 42.7764C8.39869 43.2753 8.04489 43.7013 7.59353 44.0022C7.14218 44.3031 6.61287 44.4658 6.07044 44.4705C5.30917 44.4333 4.59137 44.1048 4.06573 43.5528C3.54009 43.0009 3.24691 42.268 3.24691 41.5058C3.24691 40.7436 3.54009 40.0106 4.06573 39.4587C4.59137 38.9068 5.30917 38.5782 6.07044 38.5411C6.64778 38.5522 7.2093 38.7318 7.68588 39.0579C8.16245 39.384 8.5333 39.8423 8.75279 40.3764H11.9998C11.7221 39.024 10.974 37.8139 9.88841 36.961C8.80284 36.108 7.45009 35.6675 6.07044 35.7175C5.29004 35.6922 4.51241 35.8225 3.78292 36.1008C3.05342 36.3792 2.38667 36.8001 1.82158 37.3389C1.25648 37.8777 0.804352 38.5237 0.491576 39.2391C0.178799 39.9545 0.0116381 40.7251 -0.000153215 41.5058C-0.00449882 42.2791 0.146964 43.0454 0.4452 43.7589C0.743435 44.4724 1.18233 45.1185 1.73571 45.6587C2.28908 46.1989 2.9456 46.6221 3.66608 46.9031C4.38657 47.184 5.15627 47.317 5.92926 47.294C7.27814 47.3031 8.59195 46.8646 9.66492 46.0471C10.7379 45.2296 11.5094 44.0793 11.8587 42.7764H8.61161Z" fill="#404041"/>
</g>
<defs>
<clipPath id="clip0_255_231">
<rect width="144" height="48" fill="white"/>
</clipPath>
</defs>
</svg>
