<svg width="182" height="48" viewBox="0 0 182 48" fill="none" xmlns="http://www.w3.org/2000/svg">
<g clip-path="url(#clip0_256_298)">
<path d="M85.7757 13.7665C84.8064 13.7363 84.0189 14.4919 83.9886 15.429C83.9886 15.4592 83.9886 15.5197 83.9886 15.5499V24.1348C79.8386 20.8097 73.75 21.4747 70.418 25.6159C69.0549 27.339 68.2977 29.455 68.2977 31.6615C68.2068 36.9818 72.4476 41.3648 77.7789 41.4556C83.11 41.5463 87.5023 37.3143 87.5932 31.994C87.5932 31.8731 87.5932 31.7825 87.5932 31.6615V15.5499C87.5932 15.0663 87.4115 14.6129 87.0783 14.2804C86.7147 13.9479 86.2603 13.7665 85.7757 13.7665ZM83.5038 33.9892C82.898 35.4402 81.747 36.5888 80.2929 37.2236C78.7784 37.8584 77.0821 37.8584 75.5676 37.2236C74.1135 36.619 72.9928 35.4402 72.387 34.0194C71.7509 32.5383 71.7509 30.8454 72.387 29.3341C72.9928 27.883 74.1438 26.7344 75.5676 26.1299C77.0821 25.495 78.7784 25.495 80.2929 26.1299C81.747 26.7646 82.898 27.9133 83.5038 29.3643C84.14 30.8152 84.14 32.508 83.5038 33.9892Z" fill="#0091E2"/>
<path d="M105.919 24.8604C102.163 21.1121 96.0444 21.1121 92.2884 24.8604C90.4708 26.6742 89.4713 29.1225 89.4713 31.6617C89.3804 36.982 93.6211 41.365 98.9524 41.4557C104.284 41.5464 108.676 37.3145 108.767 31.9942C108.767 31.8733 108.767 31.7827 108.767 31.6617C108.767 30.3922 108.524 29.1528 108.04 27.9739C107.555 26.7951 106.828 25.737 105.919 24.8604ZM104.677 33.9591C104.375 34.6846 103.92 35.3193 103.375 35.8636C102.83 36.4076 102.163 36.8611 101.467 37.1633C99.952 37.7981 98.2557 37.7981 96.7411 37.1633C95.2872 36.5588 94.1362 35.3798 93.5302 33.9591C92.8942 32.4779 92.8942 30.7852 93.5302 29.2737C94.1362 27.8228 95.2872 26.7044 96.7411 26.0695C98.2557 25.4347 99.952 25.4347 101.467 26.0695C102.194 26.3719 102.83 26.8253 103.375 27.3694C103.92 27.9135 104.375 28.5785 104.677 29.2737C105.314 30.8154 105.314 32.5081 104.677 33.9591Z" fill="#0091E2"/>
<path d="M145.813 23.8023C145.813 23.5605 145.752 23.3187 145.661 23.1071C145.57 22.8955 145.419 22.7142 145.267 22.5328C145.116 22.3817 144.904 22.2305 144.693 22.1399C144.479 22.0492 144.238 21.9887 143.996 21.9887C143.662 21.9887 143.329 22.0794 143.026 22.2608L132.727 28.9412V15.5803C132.727 15.0967 132.545 14.6432 132.213 14.3107C131.878 13.9782 131.425 13.7666 130.94 13.7666C129.94 13.7666 129.153 14.5525 129.122 15.5501C129.122 15.5501 129.122 15.5501 129.122 15.5803V39.4606C129.122 39.9443 129.304 40.3978 129.637 40.7303C129.97 41.093 130.425 41.2743 130.91 41.2743C131.394 41.2743 131.849 41.093 132.181 40.7303C132.515 40.3978 132.727 39.9443 132.696 39.4606V33.2638L134.787 31.9036L142.753 40.8209C143.087 41.1232 143.511 41.3046 143.965 41.2743C144.208 41.2743 144.449 41.2441 144.661 41.1232C144.873 41.0325 145.055 40.9116 145.237 40.7303C145.388 40.5489 145.54 40.3675 145.631 40.1559C145.722 39.9443 145.782 39.7025 145.782 39.4606C145.782 39.0072 145.601 38.5538 145.298 38.2213L137.907 29.9085L145.116 25.2231C145.601 24.9209 145.843 24.3768 145.813 23.8023Z" fill="#0091E2"/>
<path d="M115.915 27.3694C116.461 26.8252 117.127 26.3718 117.854 26.0695C118.611 25.7672 119.399 25.5859 120.217 25.5859C120.944 25.5859 121.641 25.7068 122.307 25.9486C122.973 26.2206 123.609 26.5833 124.155 27.067C124.488 27.3391 124.912 27.4601 125.336 27.4601C125.821 27.4903 126.305 27.3089 126.639 26.9461C126.972 26.6136 127.153 26.1299 127.153 25.6463C127.153 25.1324 126.941 24.6186 126.517 24.2861C124.791 22.7444 122.549 21.898 120.217 21.9585C114.886 21.9585 110.554 26.2811 110.554 31.6013C110.554 36.9215 114.855 41.2139 120.156 41.2441C122.489 41.2441 124.73 40.428 126.487 38.9165C126.851 38.584 127.063 38.1004 127.063 37.5865C127.093 36.6192 126.336 35.8332 125.397 35.803C125.366 35.803 125.306 35.803 125.275 35.803C124.851 35.803 124.458 35.9239 124.124 36.1657C123.579 36.6495 122.973 37.0122 122.307 37.2842C121.641 37.526 120.913 37.647 120.217 37.647C119.399 37.647 118.611 37.4958 117.854 37.1633C117.127 36.8611 116.491 36.4075 115.915 35.8634C113.553 33.5057 113.553 29.6969 115.885 27.3391C115.915 27.3996 115.915 27.3996 115.915 27.3694Z" fill="#0091E2"/>
<path d="M181.587 23.2279C181.224 22.8952 180.83 22.6534 180.375 22.5023C179.86 22.3209 179.316 22.2 178.77 22.1396C178.225 22.0791 177.68 22.0489 177.134 22.0489C176.043 22.0489 174.923 22.2302 173.893 22.6232C172.864 22.9859 171.924 23.5301 171.076 24.1951V23.8324C171.046 22.8348 170.197 22.0791 169.198 22.1093C168.259 22.1396 167.501 22.8952 167.471 23.8324V39.5209C167.501 40.5184 168.35 41.274 169.35 41.2438C170.288 41.2136 171.046 40.4579 171.076 39.5209V31.6917C171.076 30.8756 171.227 30.0897 171.561 29.334C171.864 28.6084 172.288 27.9736 172.864 27.4296C173.408 26.8855 174.075 26.4321 174.772 26.1297C175.529 25.8274 176.316 25.646 177.134 25.646C177.952 25.646 178.74 25.7972 179.498 26.0692C179.739 26.1902 179.981 26.2506 180.254 26.2506C180.497 26.2506 180.739 26.2203 180.951 26.0994C181.163 26.0087 181.345 25.8878 181.527 25.7065C181.678 25.5553 181.83 25.3438 181.921 25.1322C182.012 24.9206 182.072 24.6788 182.072 24.4369C182.101 23.9835 181.921 23.5604 181.587 23.2279Z" fill="#0091E2"/>
<path d="M164.866 27.9736C163.322 24.4067 159.808 22.0791 155.93 22.0489C150.599 22.0489 146.298 26.3414 146.267 31.6615C146.267 36.9817 150.599 41.3043 155.93 41.3043C158.232 41.3043 160.473 40.4881 162.231 38.9768C162.261 38.9466 162.292 38.9163 162.292 38.9163C162.443 38.7954 162.595 38.6443 162.685 38.4628C163.261 37.6164 163.049 36.498 162.231 35.9237C161.534 35.4702 160.625 35.561 160.02 36.1353C159.959 36.1958 159.778 36.3469 159.778 36.3771L159.747 36.4074C159.232 36.8305 158.656 37.1933 158.02 37.4049C157.353 37.6467 156.658 37.7676 155.93 37.7374C155.264 37.7374 154.627 37.6467 153.992 37.4351C153.386 37.2235 152.81 36.9515 152.295 36.5585C151.78 36.1958 151.327 35.7424 150.963 35.2284C150.569 34.7145 150.296 34.11 150.115 33.5054H163.745C164.23 33.5054 164.684 33.3241 165.018 32.9916C165.381 32.6591 165.563 32.2056 165.533 31.7219C165.563 30.4222 165.321 29.1525 164.866 27.9736ZM150.115 29.9083C150.296 29.2734 150.569 28.6991 150.963 28.1852C151.327 27.6714 151.78 27.218 152.295 26.8552C152.81 26.4925 153.386 26.1901 153.992 25.9785C154.597 25.7669 155.264 25.6763 155.9 25.6763C156.536 25.6763 157.203 25.7669 157.808 25.9785C159.02 26.3716 160.081 27.1575 160.837 28.1852C161.231 28.6991 161.504 29.3036 161.716 29.9083H150.115Z" fill="#0091E2"/>
<path d="M175.438 38.6746C174.741 38.6746 174.196 39.2489 174.196 39.9442C174.196 40.6394 174.771 41.1836 175.467 41.1836C176.164 41.1836 176.71 40.6092 176.71 39.9442C176.71 39.2187 176.134 38.6746 175.438 38.6746ZM175.438 40.9114C174.893 40.9416 174.438 40.5185 174.408 39.9744C174.378 39.4303 174.802 38.9769 175.347 38.9467C175.893 38.9164 176.346 39.3396 176.376 39.8837C176.376 39.9139 176.376 39.9139 176.376 39.9442C176.407 40.458 175.982 40.9114 175.467 40.9114C175.467 40.9114 175.467 40.9114 175.438 40.9114Z" fill="#0091E2"/>
<path d="M175.741 39.9439C175.893 39.9137 175.982 39.7928 175.982 39.6417C175.982 39.5207 175.952 39.4301 175.861 39.3696C175.741 39.3092 175.59 39.2789 175.438 39.2789C175.287 39.2789 175.105 39.2789 174.953 39.3092V40.5486H175.226V40.0648H175.347C175.499 40.0648 175.59 40.1253 175.62 40.2462C175.65 40.3369 175.679 40.4579 175.711 40.5486H176.014C175.952 40.4579 175.923 40.3369 175.923 40.2462C175.952 40.1253 175.861 40.0044 175.741 39.9439ZM175.377 39.8532H175.226V39.4905C175.287 39.4905 175.347 39.4905 175.377 39.4905C175.559 39.4905 175.65 39.5812 175.65 39.6719C175.679 39.7928 175.529 39.8835 175.377 39.8532Z" fill="#0091E2"/>
<path d="M64.9956 17.8172C64.8139 17.6661 63.1782 16.4268 59.6644 16.4268C58.7556 16.4268 57.8166 16.5174 56.9079 16.6686C56.2414 12.0436 52.3944 9.80677 52.243 9.68587L51.304 9.14178L50.6982 10.0184C49.9408 11.1972 49.3653 12.5273 49.0321 13.8876C48.396 16.5174 48.7898 18.9962 50.1226 21.1121C48.5172 22.019 45.9121 22.2306 45.3669 22.2608H2.3533C1.23252 22.2608 0.323778 23.1676 0.323778 24.286C0.263195 28.0345 0.899312 31.7827 2.20183 35.3194C3.68611 39.1886 5.89737 42.0603 8.74475 43.8136C11.9556 45.7784 17.196 46.8969 23.1028 46.8969C25.7685 46.8969 28.434 46.6551 31.0694 46.1713C34.7347 45.5063 38.2485 44.2368 41.4897 42.3928C44.1553 40.8512 46.5482 38.8863 48.5778 36.589C52.0007 32.75 54.0302 28.4576 55.5144 24.6488C55.7265 24.6488 55.9082 24.6488 56.1202 24.6488C59.8462 24.6488 62.1482 23.1676 63.4205 21.8981C64.2686 21.1121 64.9047 20.1448 65.3591 19.0566L65.6317 18.2706L64.9956 17.8172Z" fill="#0091E2"/>
<path d="M6.35183 21.0214H12.1072C12.3798 21.0214 12.6221 20.8098 12.6221 20.5075V15.3687C12.6221 15.0966 12.4101 14.8548 12.1072 14.8548H6.35183C6.07921 14.8548 5.83689 15.0664 5.83689 15.3687V20.5075C5.86718 20.8098 6.07921 21.0214 6.35183 21.0214Z" fill="#0091E2"/>
<path d="M14.2883 21.0214H20.0437C20.3163 21.0214 20.5586 20.8098 20.5586 20.5075V15.3687C20.5586 15.0966 20.3466 14.8548 20.0437 14.8548H14.2883C14.0157 14.8548 13.7734 15.0664 13.7734 15.3687V20.5075C13.8037 20.8098 14.0157 21.0214 14.2883 21.0214Z" fill="#0091E2"/>
<path d="M22.3762 21.0214H28.1315C28.4041 21.0214 28.6465 20.8098 28.6465 20.5075V15.3687C28.6465 15.0966 28.4344 14.8548 28.1315 14.8548H22.3762C22.1036 14.8548 21.8612 15.0664 21.8612 15.3687V20.5075C21.8612 20.8098 22.0733 21.0214 22.3762 21.0214Z" fill="#0091E2"/>
<path d="M30.3426 21.0214H36.0978C36.3704 21.0214 36.6129 20.8098 36.6129 20.5075V15.3687C36.6129 15.0966 36.4007 14.8548 36.0978 14.8548H30.3426C30.0699 14.8548 29.8275 15.0664 29.8275 15.3687V20.5075C29.8275 20.8098 30.0699 21.0214 30.3426 21.0214Z" fill="#0091E2"/>
<path d="M14.2883 13.6757H20.0437C20.3163 13.6757 20.5586 13.4338 20.5586 13.1617V8.02296C20.5586 7.7509 20.3466 7.50907 20.0437 7.50907H14.2883C14.0157 7.50907 13.7734 7.72068 13.7734 8.02296V13.1617C13.8037 13.4338 14.0157 13.6757 14.2883 13.6757Z" fill="#0091E2"/>
<path d="M22.3762 13.6757H28.1315C28.4041 13.6757 28.6465 13.4338 28.6465 13.1617V8.02296C28.6465 7.7509 28.4344 7.50907 28.1315 7.50907H22.3762C22.1036 7.50907 21.8612 7.72068 21.8612 8.02296V13.1617C21.8612 13.4338 22.0733 13.6757 22.3762 13.6757Z" fill="#0091E2"/>
<path d="M30.3426 13.6757H36.0978C36.3704 13.6757 36.6129 13.4338 36.6129 13.1617V8.02296C36.6129 7.7509 36.3704 7.50907 36.0978 7.50907H30.3426C30.0699 7.50907 29.8275 7.72068 29.8275 8.02296V13.1617C29.8275 13.4338 30.0699 13.6757 30.3426 13.6757Z" fill="#0091E2"/>
<path d="M30.3426 6.30011H36.0978C36.3704 6.30011 36.6129 6.08852 36.6129 5.78623V0.64743C36.6129 0.375374 36.3704 0.133545 36.0978 0.133545H30.3426C30.0699 0.133545 29.8275 0.345147 29.8275 0.64743V5.78623C29.8275 6.05829 30.0699 6.30011 30.3426 6.30011Z" fill="#0091E2"/>
<path d="M38.3698 21.0214H44.1252C44.3978 21.0214 44.6401 20.8098 44.6401 20.5075V15.3687C44.6401 15.0966 44.4281 14.8548 44.1252 14.8548H38.3698C38.0972 14.8548 37.8548 15.0664 37.8548 15.3687V20.5075C37.8851 20.8098 38.0972 21.0214 38.3698 21.0214Z" fill="#0091E2"/>
</g>
<defs>
<clipPath id="clip0_256_298">
<rect width="182" height="48" fill="white"/>
</clipPath>
</defs>
</svg>
