<svg width="144" height="48" viewBox="0 0 144 48" fill="none" xmlns="http://www.w3.org/2000/svg">
<path d="M61.2966 25.5954C61.2966 32.3196 55.9899 37.2744 49.4771 37.2744C42.9645 37.2744 37.6576 32.3196 37.6576 25.5954C37.6576 18.824 42.9645 13.9165 49.4771 13.9165C55.9899 13.9165 61.2966 18.824 61.2966 25.5954ZM56.1226 25.5954C56.1226 21.3935 53.0469 18.5186 49.4771 18.5186C45.9074 18.5186 42.8317 21.3935 42.8317 25.5954C42.8317 29.7552 45.9074 32.6724 49.4771 32.6724C53.0469 32.6724 56.1226 29.7499 56.1226 25.5954Z" fill="#EA4335"/>
<path d="M86.7958 25.5954C86.7958 32.3196 81.4889 37.2744 74.9763 37.2744C68.4636 37.2744 63.1568 32.3196 63.1568 25.5954C63.1568 18.8293 68.4636 13.9165 74.9763 13.9165C81.4889 13.9165 86.7958 18.824 86.7958 25.5954ZM81.6217 25.5954C81.6217 21.3935 78.5461 18.5186 74.9763 18.5186C71.4065 18.5186 68.3308 21.3935 68.3308 25.5954C68.3308 29.7552 71.4065 32.6724 74.9763 32.6724C78.5461 32.6724 81.6217 29.7499 81.6217 25.5954Z" fill="#FBBC05"/>
<path d="M111.231 14.6221V35.5894C111.231 44.2144 106.099 47.7371 100.033 47.7371C94.3221 47.7371 90.8853 43.9511 89.5891 40.855L94.0938 38.9963C94.896 40.8971 96.8614 43.1402 100.027 43.1402C103.911 43.1402 106.317 40.7654 106.317 36.295V34.6154H106.136C104.978 36.0317 102.747 37.2691 99.9318 37.2691C94.0406 37.2691 88.6436 32.1827 88.6436 25.6376C88.6436 19.0452 94.0406 13.9165 99.9318 13.9165C102.742 13.9165 104.973 15.1539 106.136 16.5282H106.317V14.6274H111.231V14.6221ZM106.684 25.6376C106.684 21.5251 103.916 18.5186 100.394 18.5186C96.8242 18.5186 93.8334 21.5251 93.8334 25.6376C93.8334 29.7079 96.8242 32.6724 100.394 32.6724C103.916 32.6724 106.684 29.7079 106.684 25.6376Z" fill="#4285F4"/>
<path d="M119.332 2.33203V36.558H114.286V2.33203H119.332Z" fill="#34A853"/>
<path d="M138.997 29.4393L143.014 32.093C141.718 33.994 138.595 37.2691 133.197 37.2691C126.504 37.2691 121.505 32.1405 121.505 25.5902C121.505 18.6449 126.546 13.9111 132.618 13.9111C138.732 13.9111 141.723 18.7344 142.701 21.3409L143.237 22.6677L127.486 29.1338C128.692 31.477 130.568 32.6723 133.197 32.6723C135.832 32.6723 137.659 31.3876 138.997 29.4393ZM126.637 25.2374L137.165 20.9038C136.586 19.4453 134.844 18.4291 132.794 18.4291C130.164 18.4291 126.504 20.73 126.637 25.2374Z" fill="#EA4335"/>
<path d="M18.5553 22.557V17.6022H35.4C35.5647 18.4658 35.6497 19.4873 35.6497 20.5931C35.6497 24.3106 34.6245 28.9073 31.3204 32.1824C28.1065 35.4997 24.0002 37.269 18.5606 37.269C8.47816 37.269 0 29.1285 0 19.1345C0 9.14053 8.47816 1 18.5606 1C24.1383 1 28.1118 3.1694 31.0972 5.99704L27.57 9.49333C25.4292 7.50298 22.5287 5.95485 18.5553 5.95485C11.1927 5.95485 5.43431 11.8365 5.43431 19.1345C5.43431 26.4325 11.1927 32.3142 18.5553 32.3142C23.3309 32.3142 26.0507 30.4132 27.7931 28.6861C29.2061 27.2855 30.1357 25.2847 30.5022 22.5519L18.5553 22.557Z" fill="#4285F4"/>
</svg>
