<svg width="184" height="48" viewBox="0 0 184 48" fill="none" xmlns="http://www.w3.org/2000/svg">
<path d="M135.644 14.9563C133.416 14.9563 131.279 15.8787 129.727 17.4985V8.92707C129.727 8.6571 129.502 8.43213 129.232 8.43213H126.217C125.947 8.43213 125.722 8.6571 125.722 8.92707V32.0992C125.722 32.3691 125.947 32.5941 126.217 32.5941H129.232C129.502 32.5941 129.727 32.3691 129.727 32.0992V30.5019C131.279 32.1217 133.394 33.0441 135.644 33.0441C140.345 33.0441 144.147 28.9946 144.147 24.0002C144.147 19.0058 140.345 14.9563 135.644 14.9563ZM134.946 29.422C132.089 29.422 129.772 27.0373 129.749 24.0677V23.9327C129.794 20.9631 132.089 18.5784 134.946 18.5784C137.826 18.5784 140.143 21.0081 140.143 24.0002C140.143 26.9923 137.803 29.422 134.946 29.422Z" fill="black"/>
<path d="M155.239 14.9563C150.154 14.9563 146.037 19.0058 146.037 24.0002C146.037 28.9946 150.154 33.0441 155.239 33.0441C160.323 33.0441 164.44 28.9946 164.44 24.0002C164.44 19.0058 160.323 14.9563 155.239 14.9563ZM155.216 29.422C152.336 29.422 150.019 26.9923 150.019 24.0002C150.019 21.0081 152.359 18.5784 155.216 18.5784C158.073 18.5784 160.413 21.0081 160.413 24.0002C160.413 26.9923 158.073 29.422 155.216 29.422Z" fill="black"/>
<path d="M98.9731 15.4063H95.9584C95.6885 15.4063 95.4635 15.6312 95.4635 15.9012V17.4985C93.9112 15.8787 91.7965 14.9563 89.5467 14.9563C84.8448 14.9563 81.0428 19.0058 81.0428 24.0002C81.0428 28.9946 84.8448 33.0441 89.5467 33.0441C91.774 33.0441 93.9112 32.1217 95.4635 30.5019V32.0992C95.4635 32.3691 95.6885 32.5941 95.9584 32.5941H98.9731C99.243 32.5941 99.468 32.3691 99.468 32.0992V15.9012C99.468 15.6312 99.243 15.4063 98.9731 15.4063ZM90.2442 29.422C87.3645 29.422 85.0473 26.9923 85.0473 24.0002C85.0473 21.0081 87.387 18.5784 90.2442 18.5784C93.1013 18.5784 95.4185 20.9631 95.441 23.9327V24.0677C95.4185 27.0373 93.1013 29.422 90.2442 29.422Z" fill="black"/>
<path d="M114.024 14.9563C111.796 14.9563 109.659 15.8787 108.107 17.4985V15.9012C108.107 15.6312 107.882 15.4063 107.612 15.4063H104.597C104.327 15.4063 104.102 15.6312 104.102 15.9012V39.0733C104.102 39.3433 104.327 39.5682 104.597 39.5682H107.612C107.882 39.5682 108.107 39.3433 108.107 39.0733V30.5019C109.659 32.1217 111.774 33.0441 114.024 33.0441C118.726 33.0441 122.528 28.9946 122.528 24.0002C122.528 19.0058 118.726 14.9563 114.024 14.9563ZM113.326 29.422C110.469 29.422 108.152 27.0373 108.129 24.0677V23.9327C108.174 20.9631 110.469 18.5784 113.326 18.5784C116.206 18.5784 118.523 21.0081 118.523 24.0002C118.523 26.9923 116.206 29.422 113.326 29.422Z" fill="black"/>
<path d="M72.0214 14.9563C69.7717 14.9788 67.7245 16.2836 66.7571 18.3308C65.6547 16.2386 63.45 14.9338 61.0878 14.9563C59.243 14.9563 57.5108 15.8562 56.4309 17.341V15.9012C56.4309 15.6312 56.2059 15.4062 55.936 15.4062H52.9213C52.6514 15.4062 52.4264 15.6312 52.4264 15.9012V32.0991C52.4264 32.3691 52.6514 32.5941 52.9213 32.5941H55.936C56.2059 32.5941 56.4309 32.3691 56.4309 32.0991V22.4028C56.5434 20.2431 58.0507 18.5108 59.8955 18.5108C61.8077 18.5108 63.405 20.1081 63.405 22.2004V32.0991C63.405 32.3691 63.63 32.5941 63.9 32.5941H66.9371C67.207 32.5941 67.432 32.3691 67.432 32.0991L67.4095 22.0204C67.6795 20.0406 69.0968 18.5108 70.8291 18.5108C72.7414 18.5108 74.3387 20.1081 74.3387 22.2004V32.0991C74.3387 32.3691 74.5636 32.5941 74.8336 32.5941H77.8707C78.1407 32.5941 78.3657 32.3691 78.3657 32.0991L78.3432 20.963C78.3432 17.6334 75.5085 14.9563 72.0214 14.9563Z" fill="black"/>
<path d="M180.66 31.8967L175.441 23.9552L180.615 16.0812C180.75 15.8787 180.683 15.5862 180.48 15.4512C180.413 15.4062 180.323 15.3837 180.233 15.3837H176.746C176.476 15.3837 176.228 15.5187 176.093 15.7437L173.056 20.8506L170.019 15.7662C169.884 15.5412 169.637 15.4062 169.367 15.4062H165.88C165.632 15.4062 165.43 15.6087 165.43 15.8562C165.43 15.9462 165.452 16.0362 165.497 16.1036L170.672 23.9777L165.452 31.9192C165.317 32.1216 165.385 32.4141 165.587 32.5491C165.655 32.5941 165.745 32.6166 165.835 32.6166H169.322C169.592 32.6166 169.839 32.4816 169.974 32.2566L173.079 27.0823L176.183 32.2566C176.318 32.4816 176.566 32.6166 176.836 32.6166H180.278C180.525 32.6166 180.728 32.4141 180.728 32.1666C180.728 32.0767 180.705 31.9867 180.66 31.8967Z" fill="black"/>
<path d="M23 4.00049C11.9539 4.00049 3 12.9544 3 24.0005C3 35.0466 11.9539 44.0005 23 44.0005C34.0461 44.0005 43 35.0466 43 24.0005C43 12.9544 34.0461 4.00049 23 4.00049ZM32.4938 28.9049C25.6547 35.744 13.4387 33.5618 13.4387 33.5618C13.4387 33.5618 11.234 21.3683 18.0956 14.5067C21.8976 10.7047 28.1969 10.8621 32.1789 14.8216C36.1609 18.7811 36.2958 25.1029 32.4938 28.9049Z" fill="black"/>
<path d="M25.2947 15.7217L23.3375 19.7487L19.3105 21.7059L23.3375 23.6632L25.2947 27.6902L27.252 23.6632L31.279 21.7059L27.252 19.7487L25.2947 15.7217Z" fill="black"/>
</svg>
