<svg width="151" height="48" viewBox="0 0 151 48" fill="none" xmlns="http://www.w3.org/2000/svg">
<path d="M99.9212 9.01249H125.841V13.7965H115.559V38.9646H110.417V13.7965H99.9212V9.01249Z" fill="black"/>
<path d="M57.2938 9.01249V13.7965H36.5177V21.4926H53.2258V26.2766H36.5177V34.1806H57.2938V38.9646H31.3767V13.7965H31.3745V9.01249H57.2938Z" fill="black"/>
<path d="M70.2361 9.02498H63.5081L87.6062 38.9771H94.3539L82.3033 24.0114L94.3346 9.04783L87.6062 9.05823L78.9347 19.8279L70.2361 9.02498Z" fill="black"/>
<path d="M77.14 30.42L73.7707 26.2308L63.4888 39H70.2361L77.14 30.42Z" fill="black"/>
<path fill-rule="evenodd" clip-rule="evenodd" d="M31.5568 38.9646L7.42624 9H1V38.9521H6.141V15.4023L25.0984 38.9646H31.5568Z" fill="black"/>
<path d="M126.996 38.7817C126.62 38.7817 126.299 38.6513 126.031 38.3904C125.763 38.1296 125.631 37.8137 125.634 37.4396C125.631 37.0758 125.763 36.7634 126.031 36.5025C126.299 36.2417 126.62 36.1112 126.996 36.1112C127.358 36.1112 127.675 36.2417 127.943 36.5025C128.215 36.7634 128.351 37.0758 128.355 37.4396C128.351 37.6867 128.288 37.9133 128.163 38.1158C128.034 38.3218 127.871 38.4831 127.665 38.5998C127.463 38.7199 127.24 38.7817 126.996 38.7817Z" fill="black"/>
<path d="M135.771 26.1637H138.049V34.9407C138.046 35.7474 137.871 36.4373 137.53 37.0174C137.185 37.5975 136.708 38.0402 136.095 38.3526C135.485 38.6615 134.771 38.8195 133.96 38.8195C133.217 38.8195 132.552 38.6856 131.96 38.4247C131.368 38.1639 130.898 37.7725 130.553 37.2577C130.204 36.7428 130.034 36.1009 130.034 35.332H132.315C132.319 35.6684 132.396 35.9601 132.542 36.2039C132.688 36.4476 132.89 36.6329 133.148 36.7633C133.409 36.8938 133.709 36.959 134.046 36.959C134.412 36.959 134.726 36.8835 134.98 36.729C135.234 36.578 135.429 36.3515 135.565 36.0494C135.698 35.7508 135.767 35.3801 135.771 34.9407V26.1637Z" fill="black"/>
<path d="M147.423 29.5963C147.367 29.0642 147.123 28.6489 146.698 28.3537C146.27 28.0551 145.716 27.9075 145.036 27.9075C144.559 27.9075 144.149 27.9796 143.807 28.1203C143.466 28.2644 143.201 28.4566 143.02 28.7004C142.839 28.9441 142.748 29.2221 142.741 29.5345C142.741 29.7954 142.804 30.0219 142.926 30.2107C143.048 30.4029 143.211 30.5642 143.424 30.6947C143.633 30.8285 143.866 30.9384 144.121 31.0276C144.378 31.1169 144.636 31.1924 144.894 31.2542L146.081 31.5459C146.559 31.6558 147.022 31.8034 147.465 31.9922C147.907 32.1775 148.308 32.4144 148.659 32.6993C149.011 32.9842 149.29 33.3274 149.495 33.729C149.701 34.1306 149.805 34.6009 149.805 35.1432C149.805 35.8743 149.617 36.5162 149.237 37.0723C148.858 37.6249 148.311 38.0574 147.593 38.3698C146.879 38.6787 146.015 38.8366 144.998 38.8366C144.016 38.8366 143.159 38.6856 142.438 38.3836C141.714 38.0849 141.149 37.6455 140.741 37.0689C140.334 36.4922 140.115 35.7885 140.083 34.9613H142.341C142.372 35.3938 142.511 35.7542 142.748 36.046C142.988 36.3343 143.302 36.5471 143.685 36.6913C144.072 36.832 144.504 36.9041 144.981 36.9041C145.479 36.9041 145.918 36.8286 146.298 36.681C146.674 36.5334 146.97 36.3275 147.182 36.0597C147.398 35.7954 147.506 35.4831 147.51 35.1261C147.506 34.8 147.409 34.5288 147.221 34.316C147.029 34.1032 146.764 33.9247 146.426 33.7805C146.085 33.6364 145.688 33.5059 145.235 33.3926L143.793 33.0288C142.751 32.7645 141.926 32.3629 141.323 31.824C140.717 31.2851 140.417 30.5711 140.417 29.6752C140.417 28.9407 140.619 28.2954 141.027 27.7427C141.431 27.1901 141.985 26.761 142.685 26.4555C143.389 26.1466 144.183 25.9955 145.068 25.9955C145.967 25.9955 146.754 26.1466 147.433 26.4555C148.112 26.761 148.646 27.1867 149.032 27.729C149.419 28.2713 149.621 28.8926 149.631 29.5963H147.423Z" fill="black"/>
</svg>
