<svg width="144" height="48" viewBox="0 0 144 48" fill="none" xmlns="http://www.w3.org/2000/svg">
<path d="M16.0319 5C7.76517 5 1 11.7648 1 20.0331C1 28.3015 7.76517 35.0663 16.0319 35.0663C24.2986 35.0663 31.0638 28.343 31.0638 20.0331C31.0638 11.7233 24.3401 5 16.0319 5ZM16.0319 29.6794C10.8968 29.6794 6.7614 25.4619 6.7614 20.0331C6.7614 14.6044 10.8968 10.3868 16.0319 10.3868C21.1669 10.3868 25.3024 14.6044 25.3024 20.0331C25.3024 25.4619 21.1669 29.6794 16.0319 29.6794Z" fill="black"/>
<path d="M46.2656 13.3514C43.5487 13.3514 40.919 14.4369 39.5419 16.2744V13.7687H34.1123V43H39.5419V32.435C40.919 34.1472 43.4657 35.066 46.2656 35.066C52.1099 35.066 56.7058 30.4726 56.7058 24.2085C56.7058 17.9448 52.1099 13.3514 46.2656 13.3514ZM45.3447 30.3473C42.2546 30.3473 39.5004 27.925 39.5004 24.2085C39.5004 20.492 42.2546 18.0701 45.3447 18.0701C48.4349 18.0701 51.1932 20.492 51.1932 24.2085C51.1932 27.925 48.4349 30.3473 45.3447 30.3473Z" fill="black"/>
<path d="M69.4854 13.3514C63.5539 13.3514 58.8751 17.9867 58.8751 24.2085C58.8751 30.4307 62.9691 35.066 69.6513 35.066C75.1223 35.066 78.6273 31.7672 79.714 28.0502H74.4089C73.7411 29.5953 71.8621 30.6812 69.6098 30.6812C66.81 30.6812 64.6822 28.7185 64.1803 25.9207H79.9629V23.7912C79.9629 18.112 75.9975 13.3514 69.4854 13.3514ZM64.2218 22.079C64.8066 19.448 66.9759 17.7362 69.6098 17.7362C72.4055 17.7362 74.5375 19.5732 74.7864 22.079H64.2218Z" fill="black"/>
<path d="M94.4141 13.3514C91.9917 13.3514 89.445 14.4369 88.2753 16.2325V13.7687H82.8457V34.6483H88.2753V23.415C88.2753 20.1581 90.0298 18.0282 92.8669 18.0282C95.5008 18.0282 96.9194 20.0328 96.9194 22.8306V34.6483H102.349V21.9537C102.349 16.7755 99.1717 13.3514 94.4141 13.3514Z" fill="black"/>
<path d="M116.249 5.41783L104.431 34.6491H110.238L112.744 28.2597H126.191L128.696 34.6491H134.582L122.848 5.41783H116.249ZM114.623 23.4159L119.467 11.1805L124.266 23.4159H114.623Z" fill="black"/>
<path d="M142.31 5.41783H136.797V34.6491H142.31V5.41783Z" fill="black"/>
</svg>
