<svg width="178" height="48" viewBox="0 0 178 48" fill="none" xmlns="http://www.w3.org/2000/svg">
<path d="M104.813 25.243C104.813 21.1096 103.048 17.4728 97.0799 17.4728C94.0168 17.4728 91.5845 18.3351 90.2559 19.1L91.2288 22.4214C92.44 21.6565 94.3758 21.0224 96.2043 21.0224C99.2304 21.0157 99.727 22.7368 99.727 23.8406V24.1023C93.1278 24.0922 88.9575 26.3769 88.9575 31.0336C88.9575 33.8753 91.0812 36.5392 94.775 36.5392C97.0464 36.5392 98.9453 35.6333 100.083 34.1806H100.197C100.197 34.1806 100.952 37.3343 105.105 36.1265C104.887 34.8147 104.816 33.4157 104.816 31.7315V25.243H104.813ZM99.8847 29.6111C99.8847 29.9466 99.8545 30.2955 99.7639 30.5975C99.3814 31.8623 98.073 32.9292 96.4358 32.9292C95.0703 32.9292 93.9866 32.1542 93.9866 30.517C93.9866 28.0108 96.7444 27.3163 99.888 27.3331V29.6078L99.8847 29.6111ZM7.45518 11.8432C7.96514 14.4165 9.41449 21.8746 9.41449 21.8746C10.0217 24.9444 10.582 28.1584 11.0047 30.7015H11.0786C11.4912 28.0007 12.1354 25.4409 12.8265 22.2705L15.2656 11.8398H20.6604L22.9417 22.5422C23.5423 25.5181 24.0153 27.8129 24.3911 30.5807H24.4649C24.8776 27.786 25.411 25.3973 25.9981 22.3409L28.1889 11.8398H33.369L26.9543 36.1265C22.8679 37.0223 21.3012 35.3783 20.7375 32.7648C20.1772 30.1513 19.0802 25.1792 19.0802 25.1792C18.5199 22.4583 18.0804 20.5359 17.7717 17.7412H17.6946C17.2551 20.5091 16.7988 22.4483 16.1144 25.1691L13.4203 36.1265C9.24674 36.9585 7.80075 35.7239 6.99891 32.379C6.31114 29.5138 2 11.8432 2 11.8432H7.45518ZM48.0906 25.243C48.0906 21.1096 46.3259 17.4728 40.3574 17.4728C37.291 17.4728 34.8586 18.3351 33.5334 19.1L34.503 22.4214C35.7175 21.6565 37.6499 21.0224 39.4784 21.0224C42.5079 21.0157 43.0045 22.7368 43.0045 23.8406V24.1023C36.4019 24.0922 32.235 26.3769 32.235 31.0336C32.235 33.8753 34.3587 36.5392 38.0492 36.5392C40.3205 36.5392 42.2228 35.6333 43.3601 34.1806H43.4708C43.4708 34.1806 44.2257 37.3343 48.3791 36.1265C48.1611 34.8147 48.0906 33.4157 48.0906 31.7315V25.243ZM43.1655 29.6111C43.1655 29.9466 43.1353 30.2955 43.0447 30.5975C42.6623 31.8623 41.3538 32.9292 39.7166 32.9292C38.3511 32.9292 37.2675 32.1542 37.2675 30.517C37.2675 28.0108 40.0253 27.3163 43.1655 27.3331V29.6078V29.6111ZM56.3136 36.1298H51.3818V11.8432H56.3136V36.1298ZM125.698 11.8432V17.5869H129.992V22.2335H125.698V29.0878C125.698 31.3054 126.261 32.3823 127.942 32.3823C128.734 32.3823 129.311 32.285 129.814 32.1609L129.878 36.0158C129.2 36.2674 127.768 36.5459 126.308 36.5459C124.594 36.5459 123.161 35.9487 122.293 35.0227C121.299 33.9659 120.833 32.2347 120.833 29.7655V11.8432H125.698ZM112.566 17.8855V21.3277H112.704C113.61 18.7008 115.77 17.4762 117.669 17.4762C118.146 17.4762 118.407 17.5131 118.79 17.5903V22.3677C118.334 22.3006 117.911 22.2369 117.32 22.2369C115.173 22.2369 113.677 23.4883 113.298 25.4443C113.217 25.8469 113.187 26.2864 113.187 26.7896V36.1298H108.101V17.8855H112.563H112.566ZM64.4696 17.8855V20.3648H64.5434C65.3855 19.0363 66.7711 17.4728 69.8577 17.4728C72.2598 17.4728 74.1017 18.7712 74.8868 20.7372H74.9606C75.6349 19.7475 76.4099 18.996 77.2722 18.4659C78.2988 17.8352 79.4328 17.4762 80.872 17.4762C84.1196 17.4762 86.9982 19.7207 86.9982 25.3872V36.1332H82.0429V26.1354C82.0429 23.2635 81.07 21.6028 79.0402 21.6028C77.554 21.6028 76.4737 22.5992 76.0644 23.8238C75.9235 24.2465 75.8564 24.8236 75.8564 25.3033V36.1332H70.9044V25.7361C70.9044 23.2971 69.9684 21.6028 67.9688 21.6028C66.3685 21.6028 65.3654 22.8643 64.956 23.9412C64.7816 24.4042 64.7246 24.9343 64.7246 25.4342V36.1332H59.7659V17.8855H64.4729H64.4696Z" fill="#041E41"/>
<path d="M138.692 14.9632C138.843 14.5069 138.947 14.0305 139.151 13.6011C139.483 12.8999 140 12.3496 140.715 12.0074C141.372 11.6921 141.993 11.7055 142.627 12.1316C146.294 14.5908 149.971 17.0298 153.645 19.4756C154.326 19.9285 155.017 20.3647 155.695 20.821C157.899 22.2938 157.889 25.5313 155.681 27.0042C151.649 29.6915 147.619 32.3788 143.59 35.0662C143.251 35.2943 142.905 35.5124 142.573 35.7506C142.084 36.1062 141.557 36.1465 141.007 35.9452C140.094 35.6097 139.504 34.9353 139.091 34.0865C138.765 33.4222 138.628 32.721 138.789 31.9863C138.903 31.4629 139.192 31.0805 139.681 30.8355C143.989 28.6917 148.29 26.5412 152.595 24.3906C152.9 24.2397 153.202 24.082 153.531 23.9142C153.464 23.8706 153.42 23.8371 153.37 23.8136C148.773 21.5322 144.18 19.2508 139.584 16.9694C139.094 16.7279 138.863 16.3052 138.745 15.7986C138.729 15.7281 138.712 15.6576 138.695 15.5872V14.9632H138.692Z" fill="#08F27B"/>
<path d="M176.039 15.3888C175.982 15.6203 175.935 15.9424 175.828 16.2443C175.697 16.6066 175.425 16.8549 175.066 17.0159C172.218 18.3043 169.373 19.5959 166.531 20.8943C166.058 21.1124 165.629 21.0721 165.196 20.8171C164.384 20.334 163.871 19.2537 164.038 18.3814C164.099 18.0694 164.246 17.8211 164.511 17.6299C167.095 15.7746 169.675 13.9092 172.258 12.0573C172.852 11.6312 173.486 11.7319 174.07 12.064C175.314 12.7685 175.915 13.879 176.036 15.3854L176.039 15.3888Z" fill="#08F27B"/>
<path d="M175.999 32.7138C175.908 34.1497 175.291 35.2737 173.996 35.9581C173.345 36.3003 172.708 36.2567 172.073 35.797C169.621 34.0155 167.155 32.2508 164.672 30.5062C164.079 30.0902 163.911 29.5702 164.035 28.9093C164.176 28.1443 164.572 27.5472 165.249 27.1546C165.635 26.9298 166.038 26.8963 166.464 27.0909C169.326 28.3859 172.188 29.6742 175.053 30.9592C175.647 31.2242 175.908 31.7073 175.992 32.3179C176.009 32.4488 175.992 32.5863 175.992 32.7205L175.999 32.7138Z" fill="#08F27B"/>
<path d="M157.332 44.9966C156.449 44.9899 155.637 44.7785 154.99 44.1411C154.614 43.7721 154.46 43.3292 154.517 42.789C154.688 41.2021 154.829 39.6085 154.987 38.0216C155.127 36.5723 155.262 35.1229 155.419 33.6736C155.523 32.7141 156.057 32.2276 157.03 32.1437C157.597 32.0968 158.144 32.1605 158.637 32.4725C158.992 32.7006 159.214 33.0093 159.257 33.4488C159.419 35.1431 159.59 36.834 159.761 38.5282C159.902 39.9239 160.032 41.3229 160.193 42.7186C160.281 43.4634 159.982 44.0002 159.402 44.4162C158.838 44.8155 158.177 44.9966 157.335 45L157.332 44.9966Z" fill="#08F27B"/>
<path d="M157.318 3.00277C158.187 2.97257 158.959 3.18729 159.61 3.74757C160.053 4.13004 160.251 4.60645 160.18 5.2137C160.033 6.50536 159.925 7.80038 159.798 9.0954C159.657 10.538 159.513 11.9773 159.372 13.42C159.335 13.7823 159.288 14.1446 159.271 14.507C159.251 14.9129 159.063 15.2115 158.748 15.443C158.003 15.9966 156.721 15.9966 155.973 15.4497C155.678 15.235 155.49 14.9599 155.453 14.5841C155.332 13.326 155.201 12.0713 155.074 10.8165C154.93 9.40406 154.789 7.99497 154.644 6.58252C154.594 6.07928 154.537 5.57939 154.497 5.07614C154.44 4.38837 154.805 3.92203 155.329 3.55298C155.879 3.16716 156.506 3.00612 157.315 3.00612L157.318 3.00277Z" fill="#08F27B"/>
</svg>
